<svg xmlns="http://www.w3.org/2000/svg" xmlns:xlink="http://www.w3.org/1999/xlink" viewBox="0 0 1365.63 655.17"><defs><style>.cls-1{fill:none;}.cls-2{fill:#fff;}.cls-3{opacity:0.1;fill:url(#New_Pattern_Swatch_6);}</style><pattern id="New_Pattern_Swatch_6" data-name="New Pattern Swatch 6" width="415.19" height="415.19" patternUnits="userSpaceOnUse" viewBox="0 0 415.19 415.19"><rect class="cls-1" width="415.19" height="415.19"/><path class="cls-1" d="M281.67,93.33V83h-2.2v10.3a.28.28,0,0,1-.28.28H262.85v2.27h16.34a.28.28,0,0,1,.28.28v10.18h2.2V96.16a.28.28,0,0,1,.28-.28h16.49V93.61H281.95A.28.28,0,0,1,281.67,93.33Z"/><path class="cls-1" d="M282.23,106.34h1.37a.28.28,0,0,1,0-.06v-6.1a.28.28,0,0,1,.44-.23l9.57,6.38h4.84v-.18l-12-8a.28.28,0,0,1,.16-.51h11.84V96.44H282.23Z"/><path class="cls-1" d="M298.41,91.21h0V83.93l-10.92,7.28Z"/><polygon class="cls-1" points="262.86 83.94 262.86 91.21 273.75 91.21 262.86 83.94"/><path class="cls-1" d="M262.85,97.69a.28.28,0,0,1,.15,0h11.68a.28.28,0,0,1,.16.51l-12,8v.19h4.82l9.57-6.38a.28.28,0,0,1,.44.23v6.1a.29.29,0,0,1,0,.06h1.24v-9.9H262.85Z"/><path class="cls-1" d="M277.12,83.13a.28.28,0,0,1,0-.11h-8.55l8.53,5.69Z"/><path class="cls-1" d="M284.16,106.29a.28.28,0,0,1,0,.06h8.46l-8.46-5.64Z"/><rect class="cls-1" x="349.95" y="311" width="19.84" height="2.31"/><path class="cls-1" d="M287.52,98.21l10.92,7.28V98.21H287.52Z"/><path class="cls-1" d="M278.91,83h-1.26a.28.28,0,0,1,0,.11v6.1a.28.28,0,0,1-.44.23L267.58,83h-4.72v.24l12,8a.28.28,0,0,1-.16.51H262.85V93h16.06Z"/><path class="cls-1" d="M284,89.47a.28.28,0,0,1-.44-.23v-6.1a.28.28,0,0,1,0-.11h-1.39V93h16.21V91.77H286.6a.28.28,0,0,1-.16-.51l12-8V83H293.7Z"/><path class="cls-1" d="M263,98.21a.28.28,0,0,1-.15,0v7.31l10.9-7.26Z"/><path class="cls-1" d="M369.79,329V327H334.2V329h35.59Z"/><path class="cls-1" d="M284.16,88.71,292.69,83h-8.55a.28.28,0,0,1,0,.11Z"/><path class="cls-1" d="M334.28,323.78h-.07V311h15.18v12.78Zm13.37-11.31a.46.46,0,1,0,.46-.46A.46.46,0,0,0,347.65,312.48Zm0,2.46a.46.46,0,1,0,.46-.46A.46.46,0,0,0,347.65,314.94Zm0,2.46a.46.46,0,1,0,.46-.46A.46.46,0,0,0,347.65,317.4Zm0,2.46a.46.46,0,1,0,.46-.46A.46.46,0,0,0,347.65,319.86Zm0,2.46a.46.46,0,1,0,.46-.46A.46.46,0,0,0,347.65,322.32Zm-1.27-8.62a.46.46,0,1,0,.46-.46A.46.46,0,0,0,346.38,313.71Zm0,2.46a.46.46,0,1,0,.46-.46A.46.46,0,0,0,346.38,316.17Zm0,2.46a.46.46,0,1,0,.46-.46A.46.46,0,0,0,346.38,318.63Zm0,2.46a.46.46,0,1,0,.46-.46A.46.46,0,0,0,346.38,321.09Zm-1.27-8.62a.46.46,0,1,0,.46-.46A.46.46,0,0,0,345.11,312.48Zm0,2.46a.46.46,0,1,0,.46-.46A.46.46,0,0,0,345.11,314.94Zm0,2.46a.46.46,0,1,0,.46-.46A.46.46,0,0,0,345.11,317.4Zm0,2.46a.46.46,0,1,0,.46-.46A.46.46,0,0,0,345.11,319.86Zm0,2.46a.46.46,0,1,0,.46-.46A.46.46,0,0,0,345.11,322.32Zm-1.27-8.62a.46.46,0,1,0,.46-.46A.46.46,0,0,0,343.84,313.71Zm0,2.46a.46.46,0,1,0,.46-.46A.46.46,0,0,0,343.84,316.17Zm0,2.46a.46.46,0,1,0,.46-.46A.46.46,0,0,0,343.84,318.63Zm0,2.46a.46.46,0,1,0,.46-.46A.46.46,0,0,0,343.84,321.09Zm-1.27-8.62A.46.46,0,1,0,343,312,.46.46,0,0,0,342.57,312.48Zm0,2.46a.46.46,0,1,0,.46-.46A.46.46,0,0,0,342.57,314.94Zm0,2.46a.46.46,0,1,0,.46-.46A.46.46,0,0,0,342.57,317.4Zm0,2.46a.46.46,0,1,0,.46-.46A.46.46,0,0,0,342.57,319.86Zm0,2.46a.46.46,0,1,0,.46-.46A.46.46,0,0,0,342.57,322.32Zm-1.27-8.62a.46.46,0,1,0,.46-.46A.46.46,0,0,0,341.3,313.71Zm0,2.46a.46.46,0,1,0,.46-.46A.46.46,0,0,0,341.3,316.17Zm0,2.46a.46.46,0,1,0,.46-.46A.46.46,0,0,0,341.3,318.63Zm0,2.46a.46.46,0,1,0,.46-.46A.46.46,0,0,0,341.3,321.09ZM340,312.48a.46.46,0,1,0,.46-.46A.46.46,0,0,0,340,312.48Zm0,2.46a.46.46,0,1,0,.46-.46A.46.46,0,0,0,340,314.94Zm0,2.46a.46.46,0,1,0,.46-.46A.46.46,0,0,0,340,317.4Zm0,2.46a.46.46,0,1,0,.46-.46A.46.46,0,0,0,340,319.86Zm0,2.46a.46.46,0,1,0,.46-.46A.46.46,0,0,0,340,322.32Zm-1.27-8.62a.46.46,0,1,0,.46-.46A.46.46,0,0,0,338.75,313.71Zm0,2.46a.46.46,0,1,0,.46-.46A.46.46,0,0,0,338.75,316.17Zm0,2.46a.46.46,0,1,0,.46-.46A.46.46,0,0,0,338.75,318.63Zm0,2.46a.46.46,0,1,0,.46-.46A.46.46,0,0,0,338.75,321.09Zm-1.27-8.62a.46.46,0,1,0,.46-.46A.46.46,0,0,0,337.48,312.48Zm0,2.46a.46.46,0,1,0,.46-.46A.46.46,0,0,0,337.48,314.94Zm0,2.46a.46.46,0,1,0,.46-.46A.46.46,0,0,0,337.48,317.4Zm0,2.46a.46.46,0,1,0,.46-.46A.46.46,0,0,0,337.48,319.86Zm0,2.46a.46.46,0,1,0,.46-.46A.46.46,0,0,0,337.48,322.32Zm-1.27-8.62a.46.46,0,1,0,.46-.46A.46.46,0,0,0,336.21,313.71Zm0,2.46a.46.46,0,1,0,.46-.46A.46.46,0,0,0,336.21,316.17Zm0,2.46a.46.46,0,1,0,.46-.46A.46.46,0,0,0,336.21,318.63Zm0,2.46a.46.46,0,1,0,.46-.46A.46.46,0,0,0,336.21,321.09Zm-1.27-8.62a.46.46,0,1,0,.46-.46A.46.46,0,0,0,334.94,312.48Zm0,2.46a.46.46,0,1,0,.46-.46A.46.46,0,0,0,334.94,314.94Zm0,2.46a.46.46,0,1,0,.46-.46A.46.46,0,0,0,334.94,317.4Zm0,2.46a.46.46,0,1,0,.46-.46A.46.46,0,0,0,334.94,319.86Zm0,2.46a.46.46,0,1,0,.46-.46A.46.46,0,0,0,334.94,322.32Z"/><path class="cls-1" d="M369.79,326.4v-2.06H334.2v2.08h35.59Z"/><path class="cls-1" d="M5.63,35.09H10v3.35l-.76-1a.28.28,0,0,0-.22-.11h0a.28.28,0,0,0-.23.12l-.21.29-.52-1a.28.28,0,0,0-.25-.16.29.29,0,0,0-.25.15L7,37.71l-.21-.29a.28.28,0,0,0-.22-.11h0a.28.28,0,0,0-.22.11l-.75,1Zm3,.62a.21.21,0,0,0,0-.42A.21.21,0,0,0,8.68,35.71Zm-.84.56a.21.21,0,0,0,0-.42A.21.21,0,0,0,7.83,36.27ZM7,35.71a.21.21,0,0,0,0-.42A.21.21,0,0,0,7,35.71Z"/><path class="cls-1" d="M8.87,40.25a1,1,0,0,1-.7-.27.49.49,0,0,0-.7,0,1,1,0,0,1-1.4,0l-.05,0a4.15,4.15,0,0,0,1.82,1.23,4,4,0,0,0,1.86-1.27L9.57,40A1,1,0,0,1,8.87,40.25Z"/><path class="cls-1" d="M8.81,38.41a.28.28,0,0,1-.48,0l-.49-1-.52,1a.28.28,0,0,1-.47,0l-.25-.34-.9,1.21h0a1,1,0,0,1,.7.27.49.49,0,0,0,.7,0,1,1,0,0,1,1.4,0,.49.49,0,0,0,.7,0,1,1,0,0,1,.7-.27H10l-.91-1.22Z"/><path class="cls-1" d="M268.28,372.23a.28.28,0,0,1,.21-.1l2.16-.05v-2.13a.28.28,0,0,1,.28-.28h2.28l-1.09-1a.28.28,0,0,1-.09-.19l-.11-1.93-.52-.21a.28.28,0,0,1-.18-.24l-.13-2h-1.75l-.49.76a.28.28,0,0,1-.24.13h-.77l0,1.62.71,1.08a.28.28,0,0,1-.23.43l-1,0a.28.28,0,0,1-.18-.05l-.91-.67h-4v1.16a.28.28,0,0,1-.28.28h-8.61l-1.1,2.37a.28.28,0,0,1-.25.16h-1v.47a.28.28,0,0,1-.27.28l-1.11,0v1.23a.28.28,0,0,1-.27.28l-1,0a.27.27,0,0,1-.2-.08.28.28,0,0,1-.09-.2V373l-4.06-.08a.28.28,0,0,1-.22-.12l-1-1.36H238l-.08.49a.28.28,0,0,1-.28.23h-.93l-2.13,2.36v1.6l2.49,0a.28.28,0,0,1,.28.27l0,1.47a.28.28,0,0,1-.09.21L236,379.25l0,.89h1.15a.28.28,0,0,1,.28.28V383a.28.28,0,0,1-.28.28h-.47v.23l.58.78,1.25,0a.28.28,0,0,1,.27.27l0,.51,2.05,2.58a.28.28,0,0,1-.22.46h-.5l-.37.62a.28.28,0,0,1-.23.14l-2.2.06-.67.72.12.83h4l.05-1.35a.28.28,0,0,1,.28-.27h0l1.05,0a.28.28,0,0,1,.27.27l0,.54,4,0,0-.57a.28.28,0,0,1,.28-.27h1l.92-2.15a.28.28,0,0,1,.29-.17l1.11.12a.28.28,0,0,1,.22.16l1,2.08.77,0a.28.28,0,0,1,.24.17l.26.61.59,0v-.51a.28.28,0,0,1,.09-.2.28.28,0,0,1,.2-.08l.9,0a.28.28,0,0,1,.27.25l.06.59h1.46a.28.28,0,0,1,.25.15l.28.52h2l0-.86-.52-.52a.28.28,0,0,1-.08-.2v-4.51a.28.28,0,0,1,.28-.28h1.21l.18-.53a.28.28,0,0,1,.27-.19h.87l.43-.68a.28.28,0,0,1,.24-.13h2l0-3.41h-1.11a.28.28,0,0,1-.28-.28l0-2.47a.28.28,0,0,1,.28-.28h.7l0-.52a.28.28,0,0,1,.27-.29l1,0v-.39a.28.28,0,0,1,.27-.28l1.77-.08Z"/><polygon class="cls-1" points="320.46 198.39 341.76 198.39 341.76 187.01 306.68 187.01 320.46 198.39"/><path class="cls-1" d="M236.57,255.93l-.59.49.73.63a.28.28,0,0,1,.1.19l.11,1.15h.59a.28.28,0,0,1,.28.28v1a.28.28,0,0,1-.1.22l-.58.49,1.42,1.19a.28.28,0,0,1,.1.22v2.1a.28.28,0,0,1-.2.27l-.78.22V266l1.47,1.6a.28.28,0,0,1,.07.16l.14,1.4a.28.28,0,0,1-.28.31h-1l1.3,1.2a.28.28,0,0,1,.09.21v1.54a.28.28,0,0,1-.28.28h-1.31l2.45,2.56,3.44,1.24a.28.28,0,0,1,.18.23l.14,1.26a.28.28,0,0,1-.26.31l-1.54.12.09.86H243a.28.28,0,0,1,.28.26l.12,1.7h1.14a.28.28,0,0,1,.28.27l.13,2.54h.74l.12-1.56a.28.28,0,0,1,.28-.26h2.08l.62-1.12A.28.28,0,0,1,249,281h5.61v-4.63a.28.28,0,0,1,.28-.28h1.71l.83-.83-2.72-2.33a.28.28,0,0,1-.1-.21v-1.4h-.56a.28.28,0,0,1-.28-.28v-.56a.28.28,0,0,1,.07-.19l1.75-1.89.12-2.13H255a.28.28,0,0,1-.28-.28v-.84a.28.28,0,0,1,.28-.28h1.54v-.44l-2.08-.12-.34.68a.28.28,0,0,1-.25.16H252.1a.28.28,0,0,1-.28-.28v-.56h-1.26a.28.28,0,0,1-.26-.17l-.49-1.1h-.52a.28.28,0,0,1-.28-.28v-2.28l-1.11-1.23h-1.42a.28.28,0,0,1-.28-.28v-.7h-.7a.28.28,0,0,1-.28-.28v-2.28l-2.79-3.19h-2.81l-.48.72a.28.28,0,0,1-.23.12h-2.1l-.81,1.12.48.16a.28.28,0,0,1,.19.27v.84A.28.28,0,0,1,236.57,255.93Z"/><path class="cls-1" d="M369.79,331.64v-2.06H334.2v2.08h35.59Z"/><rect class="cls-1" x="349.95" y="313.87" width="19.84" height="2.06"/><path class="cls-1" d="M369.79,332.2H334.2v2.13h35.59Z"/><polygon class="cls-1" points="306.68 210.33 341.76 210.33 341.76 198.95 320.46 198.95 306.68 210.33"/><polygon class="cls-1" points="306.18 187.33 306.18 210.01 319.92 198.67 306.18 187.33"/><path class="cls-1" d="M277.12,100.71l-8.46,5.64h8.46a.29.29,0,0,1,0-.06Z"/><path class="cls-1" d="M121.32,99V92h-6.57v7.5h6.6C121.33,99.3,121.32,99.13,121.32,99Z"/><path class="cls-1" d="M123.42,91.4h6.47l.37-1.55-1.34.94a.28.28,0,0,1-.33,0l-1.94-1.41-1.94,1.41a.28.28,0,0,1-.33,0l-1.34-.94Z"/><path class="cls-1" d="M144.8,265H125.43a8.68,8.68,0,0,1-4.29,2.8H121a8.68,8.68,0,0,1-4.29-2.8h-7.45v7.5H144.8Z"/><path class="cls-1" d="M126.65,104.29a5.34,5.34,0,0,1-5.22-4.27h-6.68v7.5h35.59V100H131.87A5.34,5.34,0,0,1,126.65,104.29Z"/><path class="cls-1" d="M123.92,264.15a.28.28,0,0,1-.24-.13,3.11,3.11,0,0,0-2.09-1.4,3,3,0,0,0-1.06,0,3.11,3.11,0,0,0-2.09,1.4.28.28,0,0,1-.34.11,8.64,8.64,0,0,0-1.36-.16c.47,1,1.61,2.31,4.32,3.24,2.73-.93,3.86-2.25,4.33-3.25a6.94,6.94,0,0,0-1.36.16Z"/><path class="cls-1" d="M116.14,264a5.18,5.18,0,0,1-.4-2v-5.1h-6.53v7.5h7.1Q116.22,264.23,116.14,264Z"/><path class="cls-1" d="M115.74,254a.28.28,0,0,1,.28-.28h10.06a.28.28,0,0,1,.28.28v2.33H144.8v-7.2H109.22v7.2h6.53Z"/><path class="cls-1" d="M129.6,89.62A3.42,3.42,0,0,0,126.93,88v.9l1.83,1.33Z"/><path class="cls-1" d="M114.75,91.4h8.09l-.51-2.14a.28.28,0,0,1,.43-.29l.47.33a4,4,0,0,1,3.13-1.88v-.49a.28.28,0,0,1,.56,0v.49a4,4,0,0,1,3.13,1.88l.47-.33a.28.28,0,0,1,.43.29l-.51,2.14h19.87V84.2H114.75Z"/><path class="cls-1" d="M125.24,96a.42.42,0,0,0-.44-.41c-.31,0-.7.25-.7.41v3.28l1.14-.5Z"/><path class="cls-1" d="M121.88,92h9.54v7a4.77,4.77,0,0,1-9.54,0Zm1.66,7.76a.28.28,0,0,0,.28.28l.11,0,1.54-.68a1.83,1.83,0,0,0,.9.44v2a.28.28,0,0,0,.56,0v-2a1.83,1.83,0,0,0,.9-.44l1.54.68.11,0a.28.28,0,0,0,.28-.28V96c0-.58-.76-1-1.26-1a1,1,0,0,0-.72.3h-.6l.36-1.13h.68a.28.28,0,1,0,0-.56h-.89a.28.28,0,0,0-.27.19l-.41,1.26-.41-1.26a.28.28,0,0,0-.27-.19h-.89a.28.28,0,1,0,0,.56h.68l.36,1.13h-.62a1,1,0,0,0-.72-.3c-.5,0-1.26.39-1.26,1Z"/><path class="cls-1" d="M127.5,98.84V95.9h-1.7v2.94a1.18,1.18,0,0,0,1.7,0Z"/><path class="cls-1" d="M126.37,88.88V88a3.45,3.45,0,0,0-2.67,1.64l.84.59Z"/><path class="cls-1" d="M125.8,262V254.3h-9.5V262a4.72,4.72,0,0,0,.2,1.39,14.6,14.6,0,0,1,1.56.15,3.67,3.67,0,0,1,2.36-1.48l.35,0v-1.78H119.3a.28.28,0,0,1,0-.56h1.48V258H120a.28.28,0,0,1,0-.56h.81v-1.11a.28.28,0,0,1,.28-.28h0a.28.28,0,0,1,.28.28v1.11h.81a.28.28,0,0,1,0,.56h-.81v1.63h1.47a.28.28,0,1,1,0,.56h-1.47V262l.35,0a3.67,3.67,0,0,1,2.36,1.48,10.4,10.4,0,0,1,1.56-.15A4.72,4.72,0,0,0,125.8,262Z"/><path class="cls-1" d="M129.2,96c0-.16-.39-.41-.7-.41a.42.42,0,0,0-.44.41v2.78l1.14.5Z"/><path class="cls-1" d="M126.36,262a5.18,5.18,0,0,1-.4,2h0q-.08.19-.18.37h19v-7.5H126.36Z"/><rect class="cls-1" x="10.32" y="326.86" width="35.58" height="11.38"/><rect class="cls-1" x="349.95" y="321.73" width="19.84" height="2.06"/><rect class="cls-1" x="349.95" y="319.11" width="19.84" height="2.06"/><rect class="cls-1" x="10.32" y="338.8" width="35.58" height="11.38"/><path class="cls-1" d="M221.09,26.73v.42h1.43L224,25.77v-.72a.28.28,0,0,1,.28-.28h.86l.12-1.7a.28.28,0,0,1,.28-.26h.28v-.28a.28.28,0,0,1,.28-.28h.95l.76-1.53a.28.28,0,0,1,.25-.16h1.4v-.71l-1.72-1.46a.28.28,0,0,1-.07-.09l-.34-.69h-.67a.28.28,0,0,1-.28-.28V16.8l-1.05-.59h-.91v.42a.28.28,0,0,1-.28.28h-1.12a.28.28,0,0,1-.28-.28V15.51h-.28a.28.28,0,0,1-.2-.48l.48-.48v-.87h-.42v.42a.28.28,0,0,1-.28.28h-.7a.28.28,0,0,1-.22-.11l-.34-.45h-.42a.28.28,0,0,1-.2-.08l-.49-.49-1-.13a.28.28,0,0,1-.25-.28v-.28H218v.7h.28a.28.28,0,0,1,.28.28v1.12a.28.28,0,0,1-.28.28h-1l-.48.48a.28.28,0,0,1-.4,0l-2.53-2.53a.28.28,0,0,1,0-.4l1-1V10.6h-.56v.28a.28.28,0,0,1-.28.28h-1a.28.28,0,0,1-.28-.28V10.6h-.7a.28.28,0,0,1-.28-.28v-1h-.28v.28a.28.28,0,0,1-.28.28h-.56a.28.28,0,0,1-.28-.28V9.46l-1.29-.12a.28.28,0,0,1-.17-.08l-.7-.7a.28.28,0,0,1-.08-.2V7.48l-.74-.11a.28.28,0,0,1-.21-.15l-.2-.41h-.11v1a.28.28,0,0,1-.1.21l-1,.84a.28.28,0,0,1-.18.07h-.84a.28.28,0,0,1-.28-.28v-1L204,6.82h-1.26v.42h.42a.28.28,0,0,1,.28.28V7.8a.28.28,0,0,1-.08.2l-1.4,1.4a.28.28,0,0,1-.2.08h-.84a.28.28,0,0,1-.28-.28h0l-1.1.8a.28.28,0,0,1-.17.05h-1v.28a.28.28,0,0,1-.28.28h-.83l-.76,1.14a.28.28,0,0,1-.23.12h-.84v.28a.28.28,0,0,1-.28.28h-.56a.28.28,0,0,1-.22-.11l-.25-.33-1.32,1.08a.28.28,0,0,1-.18.06h-.74l-.76.64a.28.28,0,0,1-.43-.09l-.2-.41h-.53v.62l.35.09a.28.28,0,0,1,.21.22l.12.62,1.62,1.62a.28.28,0,0,1,.08.2v1.12a.28.28,0,0,1-.28.28h-.28v.62l.35.09a.28.28,0,0,1,.21.27v1h.28a.28.28,0,0,1,.28.28v.86l1.24,1.12,1,.13a.28.28,0,0,1,.25.28v.89l.57.79h1a.28.28,0,0,1,.28.28V26l2.32.64a.28.28,0,0,1,.21.27v1h.84a.28.28,0,0,1,.28.25l.12,1,.8.45h.91v-.28A.28.28,0,0,1,203,29h1a.28.28,0,0,1,.28.28v.28h.28v-.7a.28.28,0,0,1,.09-.21l1.73-1.6V25.61a.28.28,0,0,1,.28-.28h.84a.28.28,0,0,1,.28.28v.14h2A.28.28,0,0,1,210,26v.38l1,.46h1.76a.28.28,0,0,1,.28.23l.11.67,1.72.54v-.88a.28.28,0,0,1,.28-.28h1.26a.28.28,0,0,1,.25.16l.25.49,1.52,1,.09-.81a.28.28,0,0,1,.28-.25h.28v-1a.28.28,0,0,1,.28-.28h1.4A.28.28,0,0,1,221.09,26.73Z"/><path class="cls-1" d="M82.24,414.15l-.44.91h1.77v-.36a.28.28,0,0,1,.28-.28h1.7l2.87-1.4,0-.51a.28.28,0,0,1,.28-.27H91l.6-1.94-.09-2.75-.47-.19a.28.28,0,0,1-.11-.44l2-2.45v-.93h-.23a.28.28,0,0,1-.25-.15l-.88-1.74H89.86a.28.28,0,0,1-.27-.2l-.13-.44H88.23l-.16.42a.28.28,0,0,1-.25.18l-.91,0-.61,1,0,.38h.5a.28.28,0,0,1,.22.45l-1.15,1.47a.28.28,0,0,1-.22.11H84.39a.28.28,0,0,1-.28-.28v-.38h-.57l-.62,1.19.41,0a.28.28,0,0,1,.21.44l-.59.83,0,.62,1.21.78a.28.28,0,0,1,.13.24v1.35a.28.28,0,0,1-.12.23l-1.35.94.06,1.13a.28.28,0,0,1-.26.29l-.4,0-.47,1.11.42.23A.28.28,0,0,1,82.24,414.15Z"/><rect class="cls-1" x="349.95" y="316.49" width="19.84" height="2.06"/><path class="cls-1" d="M184.84,164h14.61a.32.32,0,0,1,.32.32v2.21h3.82a.32.32,0,0,1,0,.63h-3.82v1.67h3.82a.32.32,0,0,1,0,.63h-3.82v1.67h3.66a.32.32,0,0,1,0,.63h-3.66v1.61h3.66a.32.32,0,0,1,0,.63h-3.66v1.7h3.66a.32.32,0,1,1,0,.63h-3.66V178h.76a.32.32,0,0,1,0,.63h-.76v1.63h3.66a.32.32,0,0,1,0,.63h-3.66v1.63h3.66a.32.32,0,1,1,0,.63h-3.66v1.67h3.66a.32.32,0,0,1,0,.63h-3.66v4.76h6.51v-27H184.84Z"/><polygon class="cls-1" points="148.4 345.47 152.49 344.11 149.77 341.38 148.4 345.47"/><polygon class="cls-1" points="150.04 340.86 153.02 343.83 162.7 334.15 159.72 331.18 150.04 340.86"/><path class="cls-1" d="M177.7,164.63h21.43v27.12H177.7ZM196.78,182a.32.32,0,0,0-.32-.32H185.68a.32.32,0,1,0,0,.63h10.78A.32.32,0,0,0,196.78,182Zm-.32,2h-5.39a.32.32,0,0,0,0,.63h5.39a.32.32,0,0,0,0-.63Zm.32-6.52a.32.32,0,0,0-.32-.32h-9.1a.32.32,0,0,0,0,.63h9.1A.32.32,0,0,0,196.78,177.41Zm0-2.28a.32.32,0,0,0-.32-.32h-4a.32.32,0,0,0,0,.63h4A.32.32,0,0,0,196.78,175.13Zm-16.58-6.84a.32.32,0,0,0,.32.32h16a.32.32,0,0,0,0-.63h-16A.32.32,0,0,0,180.19,168.29Zm0,4.58a.32.32,0,0,0,.32.32h16a.32.32,0,0,0,0-.63h-16A.32.32,0,0,0,180.19,172.87Zm0,2.26a.32.32,0,0,0,.32.32h10.78a.32.32,0,0,0,0-.63H180.51A.32.32,0,0,0,180.19,175.13Zm0,2.28a.32.32,0,0,0,.32.32h5.69a.32.32,0,0,0,0-.63h-5.69A.32.32,0,0,0,180.19,177.41Zm0,4.56a.32.32,0,0,0,.32.32h4a.32.32,0,0,0,0-.63h-4A.32.32,0,0,0,180.19,182Zm0,2.28a.32.32,0,0,0,.32.32h9.08a.32.32,0,0,0,0-.63h-9.08A.32.32,0,0,0,180.19,184.25Zm0,2.28a.32.32,0,0,0,.32.32h16a.32.32,0,0,0,0-.63h-16A.32.32,0,0,0,180.19,186.52Zm0,2.28a.32.32,0,0,0,.32.32h10.09a.32.32,0,0,0,0-.63H180.51A.32.32,0,0,0,180.19,188.8Z"/><path class="cls-1" d="M168.31,322.59l-8.2,8.2,3,3,8.2-8.2a2.1,2.1,0,0,0-3-3Z"/><path class="cls-1" d="M132,99c0,.17,0,.34,0,.5h18.38V92H132Z"/><path class="cls-2" d="M342.05,1.55l-.74.11a.28.28,0,0,0-.16.48l1,1a.28.28,0,0,0,.2.08h.7v.56l-.86.62a.28.28,0,0,0,0,.47l.84.48v1.2l-.81.35a.28.28,0,0,0-.14.39l1.12,2.1a.28.28,0,0,0,.25.15H344v1.13l-.74.62a.28.28,0,0,0-.1.22v1.26a.28.28,0,0,0,.44.23l1.19-.83L346,13.62a.28.28,0,0,0,.22.1h2.17l-.59,1a.28.28,0,0,0,0,.27L349,17.21a.28.28,0,0,0,.45.07l1.12-1.12a.28.28,0,0,0-.07-.45l-.66-.33.08-.68h.57l.48.84a.28.28,0,0,0,.22.14l1.29.12v1.29a.28.28,0,0,0,.28.28h.71l3,3.41a.28.28,0,0,0,.45,0l.34-.57h1.55l.11,1.15a.28.28,0,0,0,.28.25h1.26a.28.28,0,0,0,.28-.26l.12-1.43H362l.9.77a.28.28,0,0,0,.38,0l.62-.62h1.86l1.32,1.45a.28.28,0,0,0,.21.09H370a.28.28,0,0,0,.15-.52l-1-.62v-2.3l.78-.22a.28.28,0,0,0,.14-.09l3.79-4.63a.28.28,0,0,0-.22-.46h-.56V12h.56a.28.28,0,0,0,.21-.47l-1-1.12a.28.28,0,0,0-.17-.09l-1.35-.21.69-.89a.28.28,0,0,0-.06-.4l-.87-.62L371,5a.28.28,0,0,0-.28-.27h-.56V4H371a.28.28,0,0,0,.21-.1L372,3a.28.28,0,0,0,.07-.18V0h-.56V2.67l-.69.81h-1a.28.28,0,0,0-.28.28V5a.28.28,0,0,0,.28.28h.57l.13,3.1a.28.28,0,0,0,.12.22l.74.53-.8,1a.28.28,0,0,0,.18.45l1.72.27.51.58h-.22a.28.28,0,0,0-.28.28V13a.28.28,0,0,0,.28.28H373l-3.36,4.1-.9.26a.28.28,0,0,0-.2.27v2.67a.28.28,0,0,0,.13.24L369,21h-1.56l-1.32-1.45a.28.28,0,0,0-.21-.09h-2.1a.28.28,0,0,0-.2.08l-.52.52-.78-.67a.28.28,0,0,0-.18-.07h-1.54a.28.28,0,0,0-.28.26L360.17,21h-.75l-.11-1.15a.28.28,0,0,0-.28-.25h-2a.28.28,0,0,0-.24.14l-.22.37-2.83-3.22a.28.28,0,0,0-.21-.1H353V15.54a.28.28,0,0,0-.26-.28l-1.4-.13-.49-.85a.28.28,0,0,0-.24-.14h-1a.28.28,0,0,0-.28.25l-.14,1.12a.28.28,0,0,0,.15.29l.49.25-.57.57-.88-1.76.76-1.27a.28.28,0,0,0-.24-.42h-2.53l-1.32-1.58a.28.28,0,0,0-.38-.05l-1,.67V11.6l.74-.62a.28.28,0,0,0,.1-.22V9.23a.28.28,0,0,0-.28-.28h-.67l-.9-1.69.7-.3a.28.28,0,0,0,.17-.26V5.16a.28.28,0,0,0-.14-.24l-.6-.34.63-.45a.28.28,0,0,0,.12-.23v-1a.28.28,0,0,0-.28-.28h-.87l-.5-.5.43-.06a.28.28,0,0,0,.24-.28V0h-.56Z"/><path class="cls-2" d="M236.11,255.58v-.51l-.65-.22a.28.28,0,0,1-.14-.43l1.12-1.54a.28.28,0,0,1,.23-.12h2.09l.48-.72a.28.28,0,0,1,.23-.12h3.09a.28.28,0,0,1,.21.1l2.95,3.37a.28.28,0,0,1,.07.18v2.1h.7a.28.28,0,0,1,.28.28v.7H248a.28.28,0,0,1,.21.09l1.26,1.4a.28.28,0,0,1,.07.19v2.1H250a.28.28,0,0,1,.26.17l.49,1.1h1.36a.28.28,0,0,1,.28.28v.56h1.37l.34-.69a.28.28,0,0,1,.27-.15l2.53.14a.28.28,0,0,1,.27.28v1a.28.28,0,0,1-.28.28h-1.54v.28h.7a.28.28,0,0,1,.28.3l-.14,2.53a.28.28,0,0,1-.07.18l-1.75,1.88v.17h.56a.28.28,0,0,1,.28.28v1.55L258,275a.28.28,0,0,1,0,.41l-1.12,1.12a.28.28,0,0,1-.2.08h-1.54v4.63a.28.28,0,0,1-.28.28h-5.73l-.62,1.12a.28.28,0,0,1-.25.14h-2l-.12,1.56a.28.28,0,0,1-.28.26h-1.26a.28.28,0,0,1-.28-.27l-.13-2.54h-1.14a.28.28,0,0,1-.28-.26l-.12-1.7h-.58a.28.28,0,0,1-.28-.25l-.14-1.4a.28.28,0,0,1,.26-.31l1.53-.12-.09-.8-3.34-1.2a.28.28,0,0,1-.11-.07L237,272.6a.28.28,0,0,1,.2-.47h1.68V271l-1.73-1.6a.28.28,0,0,1,.19-.49h1.37l-.1-1-1.48-1.61a.28.28,0,0,1-.07-.19v-2a.28.28,0,0,1,.2-.27l.78-.22v-1.76l-1.58-1.32a.28.28,0,0,1,0-.43l.74-.62v-.57h-.56a.28.28,0,0,1-.28-.25l-.13-1.29-.9-.77a.28.28,0,0,1,0-.43Zm.56-.71v.84a.28.28,0,0,1-.1.22l-.59.49.73.63a.28.28,0,0,1,.1.19l.11,1.15h.59a.28.28,0,0,1,.28.28v1a.28.28,0,0,1-.1.22l-.58.49,1.42,1.19a.28.28,0,0,1,.1.22v2.1a.28.28,0,0,1-.2.27l-.78.22V266l1.47,1.6a.28.28,0,0,1,.07.16l.14,1.4a.28.28,0,0,1-.28.31h-1l1.3,1.2a.28.28,0,0,1,.09.21v1.54a.28.28,0,0,1-.28.28h-1.31l2.45,2.56,3.44,1.24a.28.28,0,0,1,.18.23l.14,1.26a.28.28,0,0,1-.26.31l-1.54.12.09.86H243a.28.28,0,0,1,.28.26l.12,1.7h1.14a.28.28,0,0,1,.28.27l.13,2.54h.74l.12-1.56a.28.28,0,0,1,.28-.26h2.08l.62-1.12A.28.28,0,0,1,249,281h5.61v-4.63a.28.28,0,0,1,.28-.28h1.71l.83-.83-2.72-2.33a.28.28,0,0,1-.1-.21v-1.4h-.56a.28.28,0,0,1-.28-.28v-.56a.28.28,0,0,1,.07-.19l1.75-1.89.12-2.13H255a.28.28,0,0,1-.28-.28v-.84a.28.28,0,0,1,.28-.28h1.54v-.44l-2.08-.12-.34.68a.28.28,0,0,1-.25.16H252.1a.28.28,0,0,1-.28-.28v-.56h-1.26a.28.28,0,0,1-.26-.17l-.49-1.1h-.52a.28.28,0,0,1-.28-.28v-2.28l-1.11-1.23h-1.42a.28.28,0,0,1-.28-.28v-.7h-.7a.28.28,0,0,1-.28-.28v-2.28l-2.79-3.19h-2.81l-.48.72a.28.28,0,0,1-.23.12h-2.1l-.81,1.12.48.16A.28.28,0,0,1,236.67,254.87Z"/><path class="cls-2" d="M6.22,253.35l1-1.54a.28.28,0,0,0-.24-.43H6.41V250.1l.95-.83H11.6a.28.28,0,0,0,.21-.09l1.32-1.45h1.7v.7a.28.28,0,0,0,.09.21.28.28,0,0,0,.21.07l1.54-.14a.28.28,0,0,0,.26-.28v-.56h.56a.28.28,0,0,0,.28-.23l.1-.61H19a.28.28,0,0,0,.2-.08l.7-.7a.28.28,0,0,0,.08-.17l.13-1.31.84-1h1a.28.28,0,0,0,.23-.12l.47-.7,1.08.11.35.7a.28.28,0,0,0,.26.15l3.51-.14a.28.28,0,0,0,.27-.23l.1-.61h.3L30.29,246a.28.28,0,0,0,.25.15h1.4a.28.28,0,0,0,.28-.28v-.56h2a.28.28,0,0,0,.28-.28v-2.15l.61-.1a.28.28,0,0,0,.17-.09l.84-1a.28.28,0,0,0,.07-.17l.13-2.54,1.45-1.18a.28.28,0,0,0,.1-.22v-1.26a.28.28,0,0,0-.28-.28H35.3v-.56a.28.28,0,0,0-.15-.25l-1.54-.84a.28.28,0,0,0-.13,0h-.56v-1.26a.28.28,0,0,0-.28-.28H30.39v-.56a.28.28,0,0,0-.28-.28H25.76a.28.28,0,0,0-.22.1l-1.18,1.44H23.24v-.42a.28.28,0,0,0-.28-.28H18.47a.28.28,0,0,0-.18.07l-1,.84a.28.28,0,0,0-.1.21v.88l-.83-.55a.28.28,0,0,0-.4.09l-.34.57H14.8l.36-.36a.28.28,0,0,0,.08-.2v-1.26a.28.28,0,0,0-.26-.28l-1.43-.12v-.58a.28.28,0,0,0-.28-.28h-.56v-1.12a.28.28,0,0,0-.28-.28H11.32a.28.28,0,0,0-.24.14l-.35.58-1.4.13a.28.28,0,0,0-.26.28v1.26H7.95v-1.4a.28.28,0,0,0-.28-.28H4.86a.28.28,0,0,0-.21.09l-2,2.29H1.36a.28.28,0,0,0-.28.28v1.4H.51a.28.28,0,0,0-.28.28v1.12l-.23.17v.7L.68,237a.28.28,0,0,0,.11-.22v-1h.56a.28.28,0,0,0,.28-.28v-1.4H2.76A.28.28,0,0,0,3,234l2-2.29h2.4v1.4a.28.28,0,0,0,.28.28H9.35a.28.28,0,0,0,.28-.28v-1.29l1.29-.12a.28.28,0,0,0,.22-.14l.34-.57h.68v1.12a.28.28,0,0,0,.28.28H13V233a.28.28,0,0,0,.26.28l1.43.12v.89l-.76.76a.28.28,0,0,0,.2.48H15.8a.28.28,0,0,0,.24-.14l.27-.45,1,.68a.28.28,0,0,0,.44-.23v-1.27l.81-.69h4.1v.42a.28.28,0,0,0,.28.28H24.5a.28.28,0,0,0,.22-.1l1.18-1.44h3.94v.56a.28.28,0,0,0,.28.28h2.24v1.26a.28.28,0,0,0,.28.28h.77l1.33.73v.68a.28.28,0,0,0,.28.28h2.24v.85l-1.44,1.18a.28.28,0,0,0-.1.2l-.14,2.57-.71.83-.74.12a.28.28,0,0,0-.23.28v2.1h-2a.28.28,0,0,0-.28.28v.56h-1L29,242.4a.28.28,0,0,0-.25-.15H28a.28.28,0,0,0-.28.23l-.1.62-3.1.12-.34-.68a.28.28,0,0,0-.22-.15l-1.4-.14a.28.28,0,0,0-.26.12l-.48.72h-1a.28.28,0,0,0-.21.1l-1,1.12a.28.28,0,0,0-.07.16l-.13,1.3-.55.55H17.63a.28.28,0,0,0-.28.23l-.1.61h-.6a.28.28,0,0,0-.28.28V248l-1,.09v-.67a.28.28,0,0,0-.28-.28H13a.28.28,0,0,0-.21.09l-1.32,1.45H7.25a.28.28,0,0,0-.18.07l-1.12,1a.28.28,0,0,0-.1.21v1.68a.28.28,0,0,0,.28.28h.33l-.62,1H0v.56H6A.28.28,0,0,0,6.22,253.35Z"/><path class="cls-2" d="M220.53,27.44V27h-.84v1a.28.28,0,0,1-.28.28h-.31l-.11,1a.28.28,0,0,1-.43.21l-2-1.26a.28.28,0,0,1-.1-.11l-.2-.41h-.81v1a.28.28,0,0,1-.36.27l-2.24-.7a.28.28,0,0,1-.19-.22l-.1-.61H211l-.11,0-1.26-.56a.28.28,0,0,1-.17-.26v-.28h-2a.28.28,0,0,1-.28-.28v-.14h-.28v1.26a.28.28,0,0,1-.09.21L205.1,29v.86a.28.28,0,0,1-.28.28H204a.28.28,0,0,1-.28-.28v-.28h-.42v.28a.28.28,0,0,1-.28.28h-1.26a.28.28,0,0,1-.14,0l-1-.56a.28.28,0,0,1-.14-.21l-.11-.88h-.87a.28.28,0,0,1-.28-.28v-1l-2.32-.64a.28.28,0,0,1-.21-.27V24.91h-.84a.28.28,0,0,1-.23-.12l-.7-1a.28.28,0,0,1-.05-.16v-.73L194,22.8a.28.28,0,0,1-.15-.07l-1.4-1.26a.28.28,0,0,1-.09-.21v-.7h-.28a.28.28,0,0,1-.28-.28v-1l-.35-.09a.28.28,0,0,1-.21-.27V17.76a.28.28,0,0,1,.28-.28h.28v-.73l-1.6-1.6a.28.28,0,0,1-.08-.14l-.11-.53-.39-.1a.28.28,0,0,1-.21-.27V13a.28.28,0,0,1,.28-.28h1a.28.28,0,0,1,.25.16l.12.24.57-.47a.28.28,0,0,1,.18-.07h.74l1.47-1.2a.28.28,0,0,1,.4,0l.34.45h.14v-.28a.28.28,0,0,1,.28-.28h1l.76-1.14a.28.28,0,0,1,.23-.12h.7V9.76a.28.28,0,0,1,.28-.28h1.17l1.47-1.07a.28.28,0,0,1,.45.23v.28h.44l1.12-1.12h-.3a.28.28,0,0,1-.28-.28v-1a.28.28,0,0,1,.28-.28h1.68a.28.28,0,0,1,.23.12l.7,1a.28.28,0,0,1,.05.16v.84h.46l.81-.69V6.53a.28.28,0,0,1,.28-.28h.56a.28.28,0,0,1,.25.16l.21.43.84.12a.28.28,0,0,1,.24.28v1l.55.55,1.44.13a.28.28,0,0,1,.26.28V9.06a.28.28,0,0,1,.28-.28h.84a.28.28,0,0,1,.28.28v1h.7a.28.28,0,0,1,.28.28v.28h.42v-.28a.28.28,0,0,1,.28-.28h1.12a.28.28,0,0,1,.28.28v1.26a.28.28,0,0,1-.08.2l-.92.92,2.13,2.13.36-.36a.28.28,0,0,1,.2-.08H218v-.56h-.28a.28.28,0,0,1-.28-.28V12.29a.28.28,0,0,1,.28-.28h1a.28.28,0,0,1,.28.28v.31l.88.11a.28.28,0,0,1,.16.08l.48.48h.44a.28.28,0,0,1,.22.11l.34.45h.28v-.42a.28.28,0,0,1,.28-.28h1a.28.28,0,0,1,.28.28v1.26a.28.28,0,0,1-.08.2l-.1.1a.28.28,0,0,1,.18.26v1.12h.56v-.42a.28.28,0,0,1,.28-.28h1.26a.28.28,0,0,1,.14,0l1.26.7a.28.28,0,0,1,.14.25v.42h.56a.28.28,0,0,1,.25.16l.4.79L230,19.51a.28.28,0,0,1,.1.21v1.12a.28.28,0,0,1-.28.28h-1.51l-.76,1.53a.28.28,0,0,1-.25.16h-.84v.28a.28.28,0,0,1-.28.28h-.3l-.12,1.7a.28.28,0,0,1-.28.26h-.84v.56a.28.28,0,0,1-.09.21l-1.68,1.54a.28.28,0,0,1-.19.07h-1.82A.28.28,0,0,1,220.53,27.44Zm.28-1a.28.28,0,0,1,.28.28v.42h1.43L224,25.77v-.72a.28.28,0,0,1,.28-.28h.86l.12-1.7a.28.28,0,0,1,.28-.26h.28v-.28a.28.28,0,0,1,.28-.28h.95l.76-1.53a.28.28,0,0,1,.25-.16h1.4v-.71l-1.72-1.46a.28.28,0,0,1-.07-.09l-.34-.69h-.67a.28.28,0,0,1-.28-.28V16.8l-1.05-.59h-.91v.42a.28.28,0,0,1-.28.28h-1.12a.28.28,0,0,1-.28-.28V15.51h-.28a.28.28,0,0,1-.2-.48l.48-.48v-.87h-.42v.42a.28.28,0,0,1-.28.28h-.7a.28.28,0,0,1-.22-.11l-.34-.45h-.42a.28.28,0,0,1-.2-.08l-.49-.49-1-.13a.28.28,0,0,1-.25-.28v-.28H218v.7h.28a.28.28,0,0,1,.28.28v1.12a.28.28,0,0,1-.28.28h-1l-.48.48a.28.28,0,0,1-.4,0l-2.53-2.53a.28.28,0,0,1,0-.4l1-1V10.6h-.56v.28a.28.28,0,0,1-.28.28h-1a.28.28,0,0,1-.28-.28V10.6h-.7a.28.28,0,0,1-.28-.28v-1h-.28v.28a.28.28,0,0,1-.28.28h-.56a.28.28,0,0,1-.28-.28V9.46l-1.29-.12a.28.28,0,0,1-.17-.08l-.7-.7a.28.28,0,0,1-.08-.2V7.48l-.74-.11a.28.28,0,0,1-.21-.15l-.2-.41h-.11v1a.28.28,0,0,1-.1.21l-1,.84a.28.28,0,0,1-.18.07h-.84a.28.28,0,0,1-.28-.28v-1L204,6.82h-1.26v.42h.42a.28.28,0,0,1,.28.28V7.8a.28.28,0,0,1-.08.2l-1.4,1.4a.28.28,0,0,1-.2.08h-.84a.28.28,0,0,1-.28-.28h0l-1.1.8a.28.28,0,0,1-.17.05h-1v.28a.28.28,0,0,1-.28.28h-.83l-.76,1.14a.28.28,0,0,1-.23.12h-.84v.28a.28.28,0,0,1-.28.28h-.56a.28.28,0,0,1-.22-.11l-.25-.33-1.32,1.08a.28.28,0,0,1-.18.06h-.74l-.76.64a.28.28,0,0,1-.43-.09l-.2-.41h-.53v.62l.35.09a.28.28,0,0,1,.21.22l.12.62,1.62,1.62a.28.28,0,0,1,.08.2v1.12a.28.28,0,0,1-.28.28h-.28v.62l.35.09a.28.28,0,0,1,.21.27v1h.28a.28.28,0,0,1,.28.28v.86l1.24,1.12,1,.13a.28.28,0,0,1,.25.28v.89l.57.79h1a.28.28,0,0,1,.28.28V26l2.32.64a.28.28,0,0,1,.21.27v1h.84a.28.28,0,0,1,.28.25l.12,1,.8.45h.91v-.28A.28.28,0,0,1,203,29h1a.28.28,0,0,1,.28.28v.28h.28v-.7a.28.28,0,0,1,.09-.21l1.73-1.6V25.61a.28.28,0,0,1,.28-.28h.84a.28.28,0,0,1,.28.28v.14h2A.28.28,0,0,1,210,26v.38l1,.46h1.76a.28.28,0,0,1,.28.23l.11.67,1.72.54v-.88a.28.28,0,0,1,.28-.28h1.26a.28.28,0,0,1,.25.16l.25.49,1.52,1,.09-.81a.28.28,0,0,1,.28-.25h.28v-1a.28.28,0,0,1,.28-.28Z"/><path class="cls-2" d="M264.68,375.82l-1,0,0,.53a.28.28,0,0,1-.28.29h-.71l0,1.91h1.11a.28.28,0,0,1,.28.28l0,4a.28.28,0,0,1-.28.28h-2.16l-.43.68a.28.28,0,0,1-.24.13h-.82l-.18.53a.28.28,0,0,1-.27.19h-1.13v4.12l.52.52a.28.28,0,0,1,.08.19l0,1.26a.28.28,0,0,1-.28.29h-2.5a.28.28,0,0,1-.25-.15l-.28-.52h-1.55a.28.28,0,0,1-.28-.25l-.06-.6h-.37V390a.28.28,0,0,1-.27.28l-1.05,0a.28.28,0,0,1-.27-.17l-.26-.62-.76,0a.28.28,0,0,1-.23-.16l-1-2.09-.75-.08-.91,2.13a.28.28,0,0,1-.26.17h-1l0,.57a.28.28,0,0,1-.28.27h0l-4.51,0a.28.28,0,0,1-.28-.27l0-.55h-.51l0,1.35a.28.28,0,0,1-.28.27h-4.48a.28.28,0,0,1-.28-.24l-.18-1.2a.28.28,0,0,1,.07-.23l.84-.9a.28.28,0,0,1,.2-.09l2.16-.06.37-.62a.28.28,0,0,1,.24-.14H240l-1.74-2.19a.28.28,0,0,1-.06-.16l0-.34-1.12,0a.28.28,0,0,1-.22-.11l-.72-1a.28.28,0,0,1-.06-.17V383a.28.28,0,0,1,.28-.28h.47v-2H235.7a.28.28,0,0,1-.28-.29l.06-1.29a.28.28,0,0,1,.09-.19l1.23-1.15,0-1.08-2.5,0a.28.28,0,0,1-.28-.28v-2a.28.28,0,0,1,.07-.19l2.29-2.53a.28.28,0,0,1,.21-.09h.82l.08-.49a.28.28,0,0,1,.28-.23H243a.28.28,0,0,1,.23.12l1,1.36,4.19.09a.28.28,0,0,1,.27.28v.46h.46v-1.23a.28.28,0,0,1,.27-.28l1.11,0v-.48a.28.28,0,0,1,.28-.28h1.11l1.1-2.37a.28.28,0,0,1,.25-.16h8.51v-1.16a.28.28,0,0,1,.28-.28h4.35a.28.28,0,0,1,.17.05l.9.66h.35l-.48-.72a.28.28,0,0,1,0-.15l0-2a.28.28,0,0,1,.28-.28h.9l.49-.76a.28.28,0,0,1,.24-.13h2.17a.28.28,0,0,1,.28.26l.14,2.06.53.21a.28.28,0,0,1,.18.25l.11,2,1.54,1.4a.28.28,0,0,1-.19.49h-2.73v2.13a.28.28,0,0,1-.27.28l-2.31.06L266.79,375a.28.28,0,0,1-.2.1l-1.63.08v.39A.28.28,0,0,1,264.68,375.82Zm0-1.22,1.77-.08,1.85-2.28a.28.28,0,0,1,.21-.1l2.16-.05v-2.13a.28.28,0,0,1,.28-.28h2.28l-1.09-1a.28.28,0,0,1-.09-.19l-.11-1.93-.52-.21a.28.28,0,0,1-.18-.24l-.13-2h-1.75l-.49.76a.28.28,0,0,1-.24.13h-.77l0,1.62.71,1.08a.28.28,0,0,1-.23.43l-1,0a.28.28,0,0,1-.18-.05l-.91-.67h-4v1.16a.28.28,0,0,1-.28.28h-8.61l-1.1,2.37a.28.28,0,0,1-.25.16h-1v.47a.28.28,0,0,1-.27.28l-1.11,0v1.23a.28.28,0,0,1-.27.28l-1,0a.27.27,0,0,1-.2-.08.28.28,0,0,1-.09-.2V373l-4.06-.08a.28.28,0,0,1-.22-.12l-1-1.36H238l-.08.49a.28.28,0,0,1-.28.23h-.93l-2.13,2.36v1.6l2.49,0a.28.28,0,0,1,.28.27l0,1.47a.28.28,0,0,1-.09.21L236,379.25l0,.89h1.15a.28.28,0,0,1,.28.28V383a.28.28,0,0,1-.28.28h-.47v.23l.58.78,1.25,0a.28.28,0,0,1,.27.27l0,.51,2.05,2.58a.28.28,0,0,1-.22.46h-.5l-.37.62a.28.28,0,0,1-.23.14l-2.2.06-.67.72.12.83h4l.05-1.35a.28.28,0,0,1,.28-.27h0l1.05,0a.28.28,0,0,1,.27.27l0,.54,4,0,0-.57a.28.28,0,0,1,.28-.27h1l.92-2.15a.28.28,0,0,1,.29-.17l1.11.12a.28.28,0,0,1,.22.16l1,2.08.77,0a.28.28,0,0,1,.24.17l.26.61.59,0v-.51a.28.28,0,0,1,.09-.2.28.28,0,0,1,.2-.08l.9,0a.28.28,0,0,1,.27.25l.06.59h1.46a.28.28,0,0,1,.25.15l.28.52h2l0-.86-.52-.52a.28.28,0,0,1-.08-.2v-4.51a.28.28,0,0,1,.28-.28h1.21l.18-.53a.28.28,0,0,1,.27-.19h.87l.43-.68a.28.28,0,0,1,.24-.13h2l0-3.41h-1.11a.28.28,0,0,1-.28-.28l0-2.47a.28.28,0,0,1,.28-.28h.7l0-.52a.28.28,0,0,1,.27-.29l1,0v-.39A.28.28,0,0,1,264.66,374.6Z"/><path class="cls-2" d="M98.62,415.09a.28.28,0,0,0-.21.08v0H100a.27.27,0,0,0-.11,0Z"/><path class="cls-2" d="M109.5,415.06h-1l1.18-1.6a.28.28,0,0,0,.05-.17v-1.93h.49a.28.28,0,0,0,.25-.41l-.8-1.54a.28.28,0,0,0-.24-.15l-2.27,0a.3.3,0,0,0-.2.08.28.28,0,0,0-.08.2v.42h-.56v-.67l.67-.75a.28.28,0,0,0-.06-.42l-1.28-.81v-1.19a.28.28,0,0,0-.28-.28H105v-1.59a.28.28,0,0,0-.06-.18l-.67-.82a.28.28,0,0,0-.22-.1h-.88l-1-.58v-1.79a.28.28,0,0,0-.28-.28h-.33v-.95a.28.28,0,0,0-.1-.21l-1.73-1.46a.28.28,0,0,0-.38,0l-.65.67h-.59v-.31l1.3-1a.28.28,0,0,0,.11-.24l-.06-1.36.66-.53a.28.28,0,0,0,.1-.22v-.79l.53-.3a.28.28,0,0,0,.14-.24V392a.28.28,0,0,0-.08-.2.27.27,0,0,0-.2-.08l-3.81,0h-.36l.34-.87,1.45-1.27a.28.28,0,0,0,.09-.17l.42-2.69a.28.28,0,0,0-.43-.28l-2.52,1.71H93.93a.28.28,0,0,0-.28.28v2.57h-1a.28.28,0,0,0-.28.28V393H92.1V391.8a.28.28,0,0,0-.49-.18l-.8.93a.28.28,0,0,0-.07.18v1.6a.28.28,0,0,0,.26.28l1.43.08v.39l-1.75.06a.28.28,0,0,0-.15.51L92.44,397l0,.53-1.24,0a.29.29,0,0,0-.2.08.28.28,0,0,0-.08.2v1.89a.28.28,0,0,0,.28.28h.61a.28.28,0,0,0,.28-.28V399h.48l.08,2a.28.28,0,0,0,.48.19l.93-.9a.28.28,0,0,0,.09-.2v-.8l.49,0,0,1.8-.57,0a.28.28,0,0,0-.27.3l.06.93a.28.28,0,0,0,.18.24l2,.74a.28.28,0,0,0,.38-.25l0-.43,1,0,.08,1.53a.28.28,0,0,0,.09.19l1,1,0,3.06h-2l-.64-.49a.28.28,0,0,0-.44.15l-.6,2.15a.28.28,0,0,0,.25.36l.79,0,0,1.95-1.19,0a.29.29,0,0,0-.21.09.28.28,0,0,0-.08.21l0,.53H93.23a.28.28,0,0,0-.19.49l1.09,1a.29.29,0,0,0,.2.07l1.32-.06.54.31h1.15l-1.49-.83a.28.28,0,0,0-.15,0l-1.28.06L94,414h.75a.28.28,0,0,0,.28-.3l0-.52,1.16,0h0a.28.28,0,0,0,.28-.27l.06-2.5a.28.28,0,0,0-.26-.29l-.71,0,.39-1.41.39.29a.28.28,0,0,0,.17.06H98.8a.28.28,0,0,0,.28-.28l0-3.46A.28.28,0,0,0,99,405l-1-1-.09-1.67a.28.28,0,0,0-.27-.27l-1.51-.06a.29.29,0,0,0-.29.27v.32l-1.42-.54,0-.46.54,0a.28.28,0,0,0,.27-.28l0-2.34a.28.28,0,0,0-.27-.28l-1.06,0a.27.27,0,0,0-.2.08.28.28,0,0,0-.09.2v1l-.39.38-.07-1.61a.28.28,0,0,0-.28-.27h-1a.28.28,0,0,0-.28.28v.64h0v-1.32l1.25,0a.28.28,0,0,0,.21-.08.28.28,0,0,0,.08-.21l0-1a.28.28,0,0,0-.12-.22l-1.34-1,1.19,0a.28.28,0,0,0,.27-.28v-.93a.28.28,0,0,0-.26-.28l-1.43-.08v-1.23l.24-.28v.75a.28.28,0,0,0,.28.28h.83a.28.28,0,0,0,.28-.28v-1.67h1a.28.28,0,0,0,.28-.28v-2.57h1.67a.28.28,0,0,0,.16,0l2.06-1.4-.3,2-1.43,1.25a.28.28,0,0,0-.08.11L95.78,392a.28.28,0,0,0,.26.38h.77l3.53,0v1.09l-.53.3a.28.28,0,0,0-.14.24v.82l-.66.53a.28.28,0,0,0-.1.23l.06,1.36-1.29,1a.28.28,0,0,0-.11.22v.73a.28.28,0,0,0,.28.28h1A.28.28,0,0,0,99,399l.55-.57,1.43,1.21v1.1a.28.28,0,0,0,.28.28h.33v1.67a.28.28,0,0,0,.14.24l1.19.7a.28.28,0,0,0,.14,0h.83l.52.64v1.77a.28.28,0,0,0,.28.28h.36v1.06a.28.28,0,0,0,.13.24l1.13.72-.52.59a.28.28,0,0,0-.07.19v1.06a.28.28,0,0,0,.28.28h1.12a.28.28,0,0,0,.28-.28v-.42l1.82,0,.51,1h-.31a.28.28,0,0,0-.28.28v2.12l-1.45,2v0h2A.26.26,0,0,0,109.5,415.06Z"/><path class="cls-2" d="M81.1,415.19l.51-1-.41-.22a.28.28,0,0,1-.12-.36l.64-1.51a.28.28,0,0,1,.24-.17l.3,0-.05-1a.28.28,0,0,1,.12-.24l1.35-.94v-1l-1.22-.78a.28.28,0,0,1-.13-.25l0-.86a.28.28,0,0,1,.05-.15l.35-.49-.34,0a.28.28,0,0,1-.23-.41l.9-1.71a.28.28,0,0,1,.25-.15h1a.28.28,0,0,1,.28.28v.38h.86l.71-.91h-.19a.28.28,0,0,1-.28-.27l0-.74a.28.28,0,0,1,0-.16l.74-1.15a.28.28,0,0,1,.23-.13l.87,0,.16-.43a.28.28,0,0,1,.26-.18h1.63a.28.28,0,0,1,.27.2l.13.44h1.68a.28.28,0,0,1,.25.15l.88,1.74h.34a.28.28,0,0,1,.28.28v1.31a.28.28,0,0,1-.07.18L91.58,407l.28.11a.28.28,0,0,1,.18.25l.1,3a.28.28,0,0,1,0,.09l-.67,2.18a.28.28,0,0,1-.27.2H89l0,.41a.28.28,0,0,1-.16.24L85.73,415a.28.28,0,0,1-.12,0H84.12v.21Zm.6-1.64.42.23a.28.28,0,0,1,.12.37l-.44.91h1.77v-.36a.28.28,0,0,1,.28-.28h1.7l2.87-1.4,0-.51a.28.28,0,0,1,.28-.27H91l.6-1.94-.09-2.75-.47-.19a.28.28,0,0,1-.11-.44l2-2.45v-.93h-.23a.28.28,0,0,1-.25-.15l-.88-1.74H89.86a.28.28,0,0,1-.27-.2l-.13-.44H88.23l-.16.42a.28.28,0,0,1-.25.18l-.91,0-.61,1,0,.38h.5a.28.28,0,0,1,.22.45l-1.15,1.47a.28.28,0,0,1-.22.11H84.39a.28.28,0,0,1-.28-.28v-.38h-.57l-.62,1.19.41,0a.28.28,0,0,1,.21.44l-.59.83,0,.62,1.21.78a.28.28,0,0,1,.13.24v1.35a.28.28,0,0,1-.12.23l-1.35.94.06,1.13a.28.28,0,0,1-.26.29l-.4,0Z"/><path class="cls-2" d="M298.72,106.91H262.57a.28.28,0,0,1-.28-.28V82.75a.28.28,0,0,1,.28-.28h36.15a.28.28,0,0,1,.28.28v23.88A.28.28,0,0,1,298.72,106.91ZM284.14,83a.28.28,0,0,1,0,.11v5.58L292.69,83Zm-15.55,0,8.53,5.69V83.13a.28.28,0,0,1,0-.11Zm-5.73,8.18h10.9l-10.9-7.26Zm0,1.84h16.06V83h-1.26a.28.28,0,0,1,0,.11v6.1a.28.28,0,0,1-.44.23L267.58,83h-4.72v.24l12,8a.28.28,0,0,1-.16.51H262.85Zm0,12.43,10.9-7.26H263a.28.28,0,0,1-.15,0Zm14.27.87a.29.29,0,0,1,0-.06v-5.58l-8.46,5.64Zm1.79-9.9H262.85v1.25a.28.28,0,0,1,.15,0h11.68a.28.28,0,0,1,.16.51l-12,8v.19h4.82l9.57-6.38a.28.28,0,0,1,.44.23v6.1a.29.29,0,0,1,0,.06h1.24Zm13.7,9.9-8.46-5.64v5.58a.28.28,0,0,1,0,.06Zm5.83-8.14H287.52l10.92,7.28Zm0-1.77H282.23v9.9h1.37a.28.28,0,0,1,0-.06v-6.1a.28.28,0,0,1,.44-.23l9.57,6.38h4.84v-.18l-12-8a.28.28,0,0,1,.16-.51h11.84Zm0-2.84H281.95a.28.28,0,0,1-.28-.28V83h-2.2v10.3a.28.28,0,0,1-.28.28H262.85v2.27h16.34a.28.28,0,0,1,.28.28v10.18h2.2V96.16a.28.28,0,0,1,.28-.28h16.49Zm0-9.67-10.92,7.28h10.92Zm0-.9H293.7L284,89.47a.28.28,0,0,1-.44-.23v-6.1a.28.28,0,0,1,0-.11h-1.39V93h16.21V91.77H286.6a.28.28,0,0,1-.16-.51l12-8Z"/><path class="cls-2" d="M46.19,326.3a.28.28,0,0,1,.28.28v23.88a.28.28,0,0,1-.28.28H10a.28.28,0,0,1-.28-.28V326.58a.28.28,0,0,1,.28-.28Zm-.28,12.5H10.32v11.38H45.91Zm0-11.94H10.32v11.38H45.91Z"/><path class="cls-2" d="M333.64,334.6V310.72a.28.28,0,0,1,.28-.28h36.15a.28.28,0,0,1,.28.28V334.6a.28.28,0,0,1-.28.28H333.92A.28.28,0,0,1,333.64,334.6Zm16.3-21.29h19.84V311H349.95Zm0,2.62h19.84v-2.06H349.95Zm0,2.62h19.84v-2.06H349.95Zm0,2.62h19.84v-2.06H349.95Zm0,2.62h19.84v-2.06H349.95Zm-15.74,0h15.18V311H334.2Zm0,2.62h35.59v-2.06H334.2Zm0,2.62h35.59V327H334.2Zm0,2.62h35.59v-2.06H334.2Zm0,2.67h35.59V332.2H334.2Z"/><circle class="cls-2" cx="336.67" cy="321.09" r="0.46"/><circle class="cls-2" cx="339.22" cy="321.09" r="0.46"/><circle class="cls-2" cx="341.76" cy="321.09" r="0.46"/><circle class="cls-2" cx="344.3" cy="321.09" r="0.46"/><circle class="cls-2" cx="346.84" cy="321.09" r="0.46"/><circle class="cls-2" cx="335.4" cy="322.32" r="0.46"/><circle class="cls-2" cx="337.94" cy="322.32" r="0.46"/><circle class="cls-2" cx="340.49" cy="322.32" r="0.46"/><circle class="cls-2" cx="343.03" cy="322.32" r="0.46"/><circle class="cls-2" cx="345.57" cy="322.32" r="0.46"/><circle class="cls-2" cx="348.11" cy="322.32" r="0.46"/><circle class="cls-2" cx="335.4" cy="319.86" r="0.46"/><circle class="cls-2" cx="337.94" cy="319.86" r="0.46"/><circle class="cls-2" cx="340.49" cy="319.86" r="0.46"/><circle class="cls-2" cx="343.03" cy="319.86" r="0.46"/><circle class="cls-2" cx="345.57" cy="319.86" r="0.46"/><circle class="cls-2" cx="348.11" cy="319.86" r="0.46"/><circle class="cls-2" cx="336.67" cy="318.63" r="0.46"/><circle class="cls-2" cx="339.22" cy="318.63" r="0.46"/><circle class="cls-2" cx="341.76" cy="318.63" r="0.46"/><circle class="cls-2" cx="344.3" cy="318.63" r="0.46"/><circle class="cls-2" cx="346.84" cy="318.63" r="0.46"/><circle class="cls-2" cx="335.4" cy="317.4" r="0.46"/><circle class="cls-2" cx="337.94" cy="317.4" r="0.46"/><circle class="cls-2" cx="340.49" cy="317.4" r="0.46"/><circle class="cls-2" cx="343.03" cy="317.4" r="0.46"/><circle class="cls-2" cx="345.57" cy="317.4" r="0.46"/><circle class="cls-2" cx="348.11" cy="317.4" r="0.46"/><circle class="cls-2" cx="336.67" cy="316.17" r="0.46"/><circle class="cls-2" cx="339.22" cy="316.17" r="0.46"/><circle class="cls-2" cx="341.76" cy="316.17" r="0.46"/><circle class="cls-2" cx="344.3" cy="316.17" r="0.46"/><circle class="cls-2" cx="346.84" cy="316.17" r="0.46"/><circle class="cls-2" cx="335.4" cy="314.94" r="0.46"/><circle class="cls-2" cx="337.94" cy="314.94" r="0.46"/><circle class="cls-2" cx="340.49" cy="314.94" r="0.46"/><circle class="cls-2" cx="343.03" cy="314.94" r="0.46"/><circle class="cls-2" cx="345.57" cy="314.94" r="0.46"/><circle class="cls-2" cx="348.11" cy="314.94" r="0.46"/><circle class="cls-2" cx="336.67" cy="313.71" r="0.46"/><circle class="cls-2" cx="339.22" cy="313.71" r="0.46"/><circle class="cls-2" cx="341.76" cy="313.71" r="0.46"/><circle class="cls-2" cx="344.3" cy="313.71" r="0.46"/><circle class="cls-2" cx="346.84" cy="313.71" r="0.46"/><circle class="cls-2" cx="335.4" cy="312.48" r="0.46"/><circle class="cls-2" cx="337.94" cy="312.48" r="0.46"/><circle class="cls-2" cx="340.49" cy="312.48" r="0.46"/><circle class="cls-2" cx="343.03" cy="312.48" r="0.46"/><circle class="cls-2" cx="345.57" cy="312.48" r="0.46"/><circle class="cls-2" cx="348.11" cy="312.48" r="0.46"/><path class="cls-2" d="M108.66,272.75V256.64h0v-7.76a.28.28,0,0,1,.28-.28h36.15a.28.28,0,0,1,.28.28v23.88a.28.28,0,0,1-.28.28H108.94A.28.28,0,0,1,108.66,272.75Zm36.15-15.84H126.36V262a5.18,5.18,0,0,1-.4,2h0q-.08.19-.18.37h19Zm-19.2,6.48a4.72,4.72,0,0,0,.2-1.38V254.3h-9.5V262a4.72,4.72,0,0,0,.2,1.39,14.6,14.6,0,0,1,1.56.15,3.67,3.67,0,0,1,2.36-1.48l.35,0v-1.78H119.3a.28.28,0,0,1,0-.56h1.48V258H120a.28.28,0,0,1,0-.56h.81v-1.11a.28.28,0,0,1,.28-.28h0a.28.28,0,0,1,.28.28v1.11h.81a.28.28,0,0,1,0,.56h-.81v1.63h1.47a.28.28,0,1,1,0,.56h-1.47V262l.35,0a3.67,3.67,0,0,1,2.36,1.48A10.4,10.4,0,0,1,125.6,263.4Zm-1.58.73-.1,0a.28.28,0,0,1-.24-.13,3.11,3.11,0,0,0-2.09-1.4,3,3,0,0,0-1.06,0,3.11,3.11,0,0,0-2.09,1.4.28.28,0,0,1-.34.11,8.64,8.64,0,0,0-1.36-.16c.47,1,1.61,2.31,4.32,3.24,2.73-.93,3.86-2.25,4.33-3.25A6.94,6.94,0,0,0,124,264.13Zm-14.8-7.78h6.53V254a.28.28,0,0,1,.28-.28h10.06a.28.28,0,0,1,.28.28v2.33H144.8v-7.2H109.22Zm0,8.06h7.1q-.1-.18-.18-.37a5.18,5.18,0,0,1-.4-2v-5.1h-6.53Zm0,8.06H144.8V265H125.43a8.68,8.68,0,0,1-4.29,2.8H121a8.68,8.68,0,0,1-4.29-2.8h-7.45Z"/><path class="cls-2" d="M342,210.89H305.77l0,0h0l0,0h0l0,0v-.13h0V186.73h0v-.13l0,0h0l0,0,0,0,0,0H342a.28.28,0,0,1,.28.28v23.88A.28.28,0,0,1,342,210.89ZM306.18,210l13.74-11.34-13.74-11.34ZM341.76,199h-21.3l-13.79,11.38h35.08Zm0-11.94H306.68l13.79,11.38h21.3Z"/><path class="cls-2" d="M33.38,54.51H0V54H33.1v-7.5H0v-.56H33.1V38.4H10.6v.44c0,.87-.46,2.08-2.67,2.9l-.1,0-.1,0c-2.21-.82-2.67-2-2.67-2.9V38.4H0v-.56H5.06V34.52H10.6v3.31H33.1v-7.2H0v-.56H33.38a.28.28,0,0,1,.28.28V54.23A.28.28,0,0,1,33.38,54.51ZM9.69,39.89,9.57,40a1,1,0,0,1-1.4,0,.49.49,0,0,0-.7,0,1,1,0,0,1-1.4,0l-.05,0a4.15,4.15,0,0,0,1.82,1.23A4,4,0,0,0,9.69,39.89Zm.28-.61-.91-1.22-.25.35a.28.28,0,0,1-.48,0l-.49-1-.52,1a.28.28,0,0,1-.47,0l-.25-.34-.9,1.21h0a1,1,0,0,1,.7.27.49.49,0,0,0,.7,0,1,1,0,0,1,1.4,0,.49.49,0,0,0,.7,0,1,1,0,0,1,.7-.27ZM10,35.09H5.63v3.34l.75-1a.28.28,0,0,1,.22-.11h0a.28.28,0,0,1,.22.11l.21.29.56-1.06a.29.29,0,0,1,.25-.15.28.28,0,0,1,.25.16l.52,1,.21-.29a.28.28,0,0,1,.23-.12h0a.28.28,0,0,1,.22.11l.76,1Z"/><path class="cls-2" d="M7.83,36.27a.21.21,0,0,0,0-.42A.21.21,0,0,0,7.83,36.27Z"/><path class="cls-2" d="M8.68,35.71a.21.21,0,0,0,0-.42A.21.21,0,0,0,8.68,35.71Z"/><path class="cls-2" d="M7,35.71a.21.21,0,0,0,0-.42A.21.21,0,0,0,7,35.71Z"/><path class="cls-2" d="M173.07,327.34a2.23,2.23,0,0,0-.1-3.07l-.53-.53a2.66,2.66,0,0,1-.75,2.22l-8.39,8.39-10.08,10.08a.28.28,0,0,1-.15.08l-5,1.65-.45.45a.28.28,0,0,1-.4-.4l.45-.45,1.65-5a.28.28,0,0,1,.08-.15l10.08-10.08,8.39-8.39a2.67,2.67,0,0,1,3.77,0l1.68,1.68a2.77,2.77,0,0,1,.1,3.86l-8.39,8.39a.28.28,0,0,1-.4-.4Zm-20.57,16.77-2.73-2.73-1.36,4.09Zm10.2-10-3-3L150,340.86l3,3Zm8.59-11.57a2.11,2.11,0,0,0-3,0l-8.2,8.2,3,3,8.2-8.2A2.11,2.11,0,0,0,171.29,322.59Z"/><path class="cls-2" d="M206.91,162.85v27.64a.32.32,0,0,1-.32.32h-6.83v1.27a.32.32,0,0,1-.32.32H177.39a.32.32,0,0,1-.32-.32V164.31a.32.32,0,0,1,.32-.32h6.82v-1.15a.32.32,0,0,1,.32-.32H206.6A.32.32,0,0,1,206.91,162.85Zm-7.78,1.78H177.7v27.12h21.43Zm7.14-1.47H184.84V164h14.61a.32.32,0,0,1,.32.32v2.21h3.82a.32.32,0,0,1,0,.63h-3.82v1.67h3.82a.32.32,0,0,1,0,.63h-3.82v1.67h3.66a.32.32,0,0,1,0,.63h-3.66v1.61h3.66a.32.32,0,0,1,0,.63h-3.66v1.7h3.66a.32.32,0,1,1,0,.63h-3.66V178h.76a.32.32,0,0,1,0,.63h-.76v1.63h3.66a.32.32,0,0,1,0,.63h-3.66v1.63h3.66a.32.32,0,1,1,0,.63h-3.66v1.67h3.66a.32.32,0,0,1,0,.63h-3.66v4.76h6.51Z"/><path class="cls-2" d="M180.51,168.61h16a.32.32,0,0,0,0-.63h-16a.32.32,0,1,0,0,.63Z"/><path class="cls-2" d="M180.51,173.19h16a.32.32,0,0,0,0-.63h-16a.32.32,0,1,0,0,.63Z"/><path class="cls-2" d="M180.51,175.44h10.78a.32.32,0,0,0,0-.63H180.51a.32.32,0,1,0,0,.63Z"/><path class="cls-2" d="M196.46,174.81h-4a.32.32,0,0,0,0,.63h4a.32.32,0,0,0,0-.63Z"/><path class="cls-2" d="M196.46,177.09h-9.1a.32.32,0,0,0,0,.63h9.1a.32.32,0,0,0,0-.63Z"/><path class="cls-2" d="M180.51,177.72h5.69a.32.32,0,0,0,0-.63h-5.69a.32.32,0,1,0,0,.63Z"/><path class="cls-2" d="M196.46,181.65H185.68a.32.32,0,1,0,0,.63h10.78a.32.32,0,1,0,0-.63Z"/><path class="cls-2" d="M180.51,182.28h4a.32.32,0,0,0,0-.63h-4a.32.32,0,1,0,0,.63Z"/><path class="cls-2" d="M196.46,183.93h-5.39a.32.32,0,0,0,0,.63h5.39a.32.32,0,0,0,0-.63Z"/><path class="cls-2" d="M180.51,184.56h9.08a.32.32,0,0,0,0-.63h-9.08a.32.32,0,1,0,0,.63Z"/><path class="cls-2" d="M180.51,186.84h16a.32.32,0,0,0,0-.63h-16a.32.32,0,1,0,0,.63Z"/><path class="cls-2" d="M180.51,189.12h10.09a.32.32,0,0,0,0-.63H180.51a.32.32,0,1,0,0,.63Z"/><path class="cls-2" d="M150.62,108.08H114.47a.28.28,0,0,1-.28-.28V91.68h0V83.92a.28.28,0,0,1,.28-.28h36.15a.28.28,0,0,1,.28.28V107.8A.28.28,0,0,1,150.62,108.08Zm-35.87-8.62h6.6c0-.16,0-.33,0-.5V92h-6.57Zm35.59.56H131.87a5.33,5.33,0,0,1-10.45,0h-6.68v7.5h35.59ZM123.05,89.85l.37,1.55h6.47l.37-1.55-1.34.94a.28.28,0,0,1-.33,0l-1.94-1.41-1.94,1.41a.28.28,0,0,1-.33,0Zm1.49.36,1.83-1.33V88a3.45,3.45,0,0,0-2.67,1.64Zm4.21,0,.84-.59A3.42,3.42,0,0,0,126.93,88v.9ZM121.88,92v7a4.77,4.77,0,0,0,9.54,0V92Zm28.45,0H132v7c0,.17,0,.34,0,.5h18.38Zm0-7.76H114.75v7.2h8.09l-.51-2.14a.28.28,0,0,1,.43-.29l.47.33a4,4,0,0,1,3.13-1.88v-.49a.28.28,0,0,1,.56,0v.49a4,4,0,0,1,3.13,1.88l.47-.33a.28.28,0,0,1,.43.29l-.51,2.14h19.87Z"/><path class="cls-2" d="M123.67,100a.28.28,0,0,1-.13-.24V96c0-.58.76-1,1.26-1a1,1,0,0,1,.72.3h.62l-.36-1.13h-.68a.28.28,0,1,1,0-.56H126a.28.28,0,0,1,.27.19l.41,1.26.41-1.26a.28.28,0,0,1,.27-.19h.89a.28.28,0,1,1,0,.56h-.68l-.36,1.13h.6a1,1,0,0,1,.72-.3c.5,0,1.26.39,1.26,1v3.71a.28.28,0,0,1-.28.28l-.11,0-1.54-.68a1.83,1.83,0,0,1-.9.44v2a.28.28,0,0,1-.56,0v-2a1.83,1.83,0,0,1-.9-.44l-1.54.68-.11,0A.28.28,0,0,1,123.67,100Zm4.39-1.17,1.14.5V96c0-.16-.39-.41-.7-.41a.42.42,0,0,0-.44.41Zm-2.26.05a1.18,1.18,0,0,0,1.7,0V95.9h-1.7v2.94Zm-1.7.45,1.14-.5V96a.42.42,0,0,0-.44-.41c-.31,0-.7.25-.7.41Z"/><path class="cls-2" d="M72,153h.23l0,0,0,0,0,0,0,0,0,0,2.41-3a.31.31,0,0,0-.49-.39l-1.89,2.35a9.1,9.1,0,0,0-17.64-2.22.31.31,0,0,0,.59.21,8.47,8.47,0,0,1,16.44,2.26L69,150.41a.31.31,0,1,0-.34.53l3.3,2.08Z"/><path class="cls-2" d="M57.8,155.18a.31.31,0,0,0,.17-.58l-3.3-2.08-.06,0h-.2l-.07,0h0l-.06.06h0l-2.41,3a.31.31,0,0,0,.49.39l1.89-2.35a9.1,9.1,0,0,0,17.64,2.22.31.31,0,0,0-.59-.21,8.47,8.47,0,0,1-16.44-2.26l2.8,1.76A.31.31,0,0,0,57.8,155.18Z"/><path class="cls-2" d="M2.16,140.77a.28.28,0,0,0,.13-.24v-4.1l.9-.56a.28.28,0,0,0,.13-.24v-2.42l1-.57.08-.06.77-.9a.28.28,0,0,0,.07-.18v-1.16a.28.28,0,0,0-.1-.22l-1.55-1.29a.28.28,0,0,0-.46.22v1.32L1,132.89H0v.56H1.1a.28.28,0,0,0,.21-.1l2.32-2.71a.28.28,0,0,0,.07-.18v-.82l1,.82v.93l-.67.79-1.12.62a.28.28,0,0,0-.14.25v2.43l-.9.56a.28.28,0,0,0-.13.24v4.1l-.9.56a.28.28,0,0,0-.13.24v1a.28.28,0,0,0,.28.28h.75v1L.89,144H0v.56H1a.28.28,0,0,0,.15,0l1-.65a.28.28,0,0,0,.13-.24v-1.42a.28.28,0,0,0-.28-.28H1.26v-.6Z"/><path class="cls-2" d="M0,144.88v1.8a.28.28,0,0,0,.09-.22Z"/><path class="cls-2" d="M371.79,414.6h-.7v-2.24a.28.28,0,0,0-.28-.28h-.7v-2.24a.28.28,0,0,0-.28-.28h-1.29l-.76-.76a.28.28,0,0,0-.43,0l-.48.72h-8.69a.28.28,0,0,0-.28.28v.56h-.4l-.48-.84a.28.28,0,0,0-.24-.14h-1.4v-.84h.56a.28.28,0,0,0,.21-.47l-1-1.12a.28.28,0,0,0-.21-.1h-2.1a.28.28,0,0,0-.26.17l-.35.81h-1.64a.28.28,0,0,0-.28.28v.42h-1a.28.28,0,0,0-.21.09l-1.6,1.73h-2.26a.28.28,0,0,0-.24.14l-.48.84h-2.22a.28.28,0,0,0-.21.46l.77.9v.46h-.56a.28.28,0,0,0-.28.28v1.71h.56v-1.43h.56a.28.28,0,0,0,.28-.28v-.84a.28.28,0,0,0-.07-.18l-.44-.52h1.77a.28.28,0,0,0,.24-.14l.48-.84h2.22a.28.28,0,0,0,.21-.09l1.6-1.73h1.14a.28.28,0,0,0,.28-.28v-.42h1.54a.28.28,0,0,0,.26-.17l.35-.81h1.79l.49.56h-.22a.28.28,0,0,0-.28.28v1.4a.28.28,0,0,0,.28.28h1.52l.48.84a.28.28,0,0,0,.24.14h.84a.28.28,0,0,0,.28-.28v-.56H367a.28.28,0,0,0,.23-.12l.37-.56.6.6a.28.28,0,0,0,.2.08h1.12v2.24a.28.28,0,0,0,.28.28h.7v2.24a.28.28,0,0,0,.28.28h.7v0h.56v-.31A.28.28,0,0,0,371.79,414.6Z"/><path class="cls-2" d="M107.71.27a.28.28,0,0,0,.25.15h1.27l0,.88-2,1.28h-3.66a.28.28,0,0,0-.28.28V3.2h-.17l0-.45a.28.28,0,0,0-.27-.25l-1.35-.06a.29.29,0,0,0-.21.08.28.28,0,0,0-.09.2V3.2H98.16a.28.28,0,0,0-.28.29l0,1.12-.76.49L97,4.66a.28.28,0,0,0-.26-.18l-2,0a.3.3,0,0,0-.23.12l-1,1.34-1-.3V5.48l.67,0a.28.28,0,0,0,.19-.09l2.91-3a.28.28,0,0,0,.08-.2l0-.75.49,0v.28a.28.28,0,0,0,.27.28L98.66,2a.28.28,0,0,0,.23-.1L100.13.42a.28.28,0,0,0,0-.29A.27.27,0,0,0,100,0H98.4a.28.28,0,0,0-.08.18V.25h-.54L97.34,0H96.19l1.38.78a.28.28,0,0,0,.14,0h.9a.28.28,0,0,0,.28-.28V.47l.45,0-.79.93-1.13,0V1.08a.28.28,0,0,0-.09-.2A.27.27,0,0,0,97.12.8L96.06.86a.28.28,0,0,0-.26.29l0,.91L93.07,4.9l-.85,0a.28.28,0,0,0-.27.3l0,.61a.28.28,0,0,0,.2.25l1.41.42h.08a.28.28,0,0,0,.23-.12L94.9,5l1.62,0,.22.59a.28.28,0,0,0,.42.14L98.34,5a.28.28,0,0,0,.13-.24l0-1h3.08a.28.28,0,0,0,.28-.28V3l.81,0,0,.46a.28.28,0,0,0,.28.26h.7a.28.28,0,0,0,.28-.28V3.15h3.47a.28.28,0,0,0,.15,0l2.18-1.41a.28.28,0,0,0,.13-.25L109.78.13a.27.27,0,0,0-.06-.13h-2A.28.28,0,0,0,107.71.27Z"/><path class="cls-2" d="M81.11.3a.28.28,0,0,0,.24.13h2.5a.28.28,0,0,0,.28-.28V0h-3V0A.28.28,0,0,0,81.11.3Z"/><path class="cls-2" d="M415.19,252.92H411.9l-2.25-2.51-.13-.63a.28.28,0,0,0-.28-.23h-1.44l-.79-.68.13-1.4a.28.28,0,0,0-.28-.31h-.56v-1.4a.28.28,0,0,0-.28-.28h-.56v-.74l.61-.1a.28.28,0,0,0,.23-.28v-2.83l1.66-1.66h4.37a.28.28,0,0,0,.25-.16l.34-.69H414a.28.28,0,0,0,.28-.28v-.56l.89-.67v-.7l-1.34,1a.28.28,0,0,0-.11.22v.42h-1a.28.28,0,0,0-.25.16l-.34.69h-4.32a.28.28,0,0,0-.2.08l-1.82,1.82a.28.28,0,0,0-.08.2v2.71l-.61.1a.28.28,0,0,0-.23.28v1.26a.28.28,0,0,0,.28.28h.56v1.4a.28.28,0,0,0,.28.28h.53l-.11,1.24a.28.28,0,0,0,.1.24l1,.84a.28.28,0,0,0,.18.07H409l.1.48a.28.28,0,0,0,.07.13l2.38,2.67a.28.28,0,0,0,.21.09h3.41Z"/><path class="cls-2" d="M412.14,30.35v7.76h0V54.23a.28.28,0,0,0,.28.28h2.77V54h-2.49v-7.5h2.49v-.56h-2.49V38.4h2.49v-.56h-2.49v-7.2h2.49v-.56h-2.77A.28.28,0,0,0,412.14,30.35Z"/><path class="cls-2" d="M415.19,146.68h0v-1.81l0-.31h0V144h-.32a.28.28,0,0,0-.28.3l.12,2.06-.92.81-1.29,1a.28.28,0,0,0-.1.24l.13,1.68a.28.28,0,0,0,.13.22l1.93,1.21v2.39l-1.9-1.4-.12-1.42a.28.28,0,0,0-.24-.25l-1.59-.23-.11-1.07a.28.28,0,0,0-.3-.25l-1.42.13a.28.28,0,0,0-.24.2l-.22.78-2,1-5.24.26a.28.28,0,0,0-.15.05l-.86.61-1.11.25a.28.28,0,0,0-.22.26l-.1,2.4-2-1.74v-1.68a.28.28,0,0,0-.27-.28l-2.45-.13a.28.28,0,0,0-.29.25l-.08.7-1-.69.12-1.77a.28.28,0,0,0-.27-.3l-6.09-.12-.1-.67a.28.28,0,0,0-.26-.24l-1.71-.11-.1-.68a.28.28,0,0,0-.26-.24l-1.72-.12-2.3-1.94-.12-.92a.28.28,0,0,0-.1-.18l-.81-.7-.12-2.72a.28.28,0,0,0-.28-.27h-.62v-2.15h.62a.28.28,0,0,0,.28-.28v-3.72h.75a.28.28,0,0,0,.28-.28v-3.53l.6.51a.27.27,0,0,0,.19.07h.74a.28.28,0,0,0,.24-.14l.44-.75h.82l.31.73a.28.28,0,0,0,.25.17l3.8.12.2.71a.28.28,0,0,0,.27.2l16.5.13v.06l-.88.44a.28.28,0,0,0-.16.25v.9a.28.28,0,0,0,.28.28h.89l.77,1.1v2.75a.28.28,0,0,0,.28.28h1.81a.28.28,0,0,0,.28-.28v-3l.6-.68,1.55,1.86v1.41a.28.28,0,0,0,.28.28h.9a.28.28,0,0,0,.18-.06l3.74-3.06a.28.28,0,0,0,.1-.22v-1.27h.42v-.56h-.7a.28.28,0,0,0-.28.28v1.42l-3.56,2.92h-.52v-1.24a.28.28,0,0,0-.07-.18l-1.83-2.19a.28.28,0,0,0-.21-.1.28.28,0,0,0-.21.1l-.88,1a.28.28,0,0,0-.07.18v2.84H405.6v-2.56a.28.28,0,0,0-.05-.16l-.9-1.29a.28.28,0,0,0-.23-.12h-.75v-.45l.88-.44a.28.28,0,0,0,.16-.25v-.52a.28.28,0,0,0-.28-.28l-16.57-.13-.2-.7a.28.28,0,0,0-.26-.2l-3.82-.12-.32-.74a.28.28,0,0,0-.26-.17h-1.16a.28.28,0,0,0-.24.14l-.44.75h-.48l-1-.84a.28.28,0,0,0-.46.21v3.85h-.75a.28.28,0,0,0-.28.28v3.72h-.62a.28.28,0,0,0-.28.28v2.71a.28.28,0,0,0,.28.28h.64l.12,2.57a.28.28,0,0,0,.1.2l.82.7.12.93a.28.28,0,0,0,.1.18l2.45,2.07a.28.28,0,0,0,.16.07l1.58.11.1.68a.28.28,0,0,0,.26.24l1.71.11.1.68a.28.28,0,0,0,.27.24l6,.12-.11,1.64a.28.28,0,0,0,.12.25l1.55,1a.28.28,0,0,0,.43-.2l.1-.9,1.92.1v1.54a.28.28,0,0,0,.1.21l2.58,2.19a.28.28,0,0,0,.18.07l.11,0a.28.28,0,0,0,.17-.24l.12-2.75,1-.21.1,0,.84-.6,5.21-.25.11,0,2.19-1a.28.28,0,0,0,.15-.18l.21-.72,1-.09.1,1a.28.28,0,0,0,.24.25l1.59.23.11,1.33a.28.28,0,0,0,.11.2l2.45,1.81a.28.28,0,0,0,.45-.23v-3.1a.28.28,0,0,0-.13-.24l-1.95-1.22-.11-1.39,1.18-.95Z"/></pattern></defs><title>Pattern1</title><g id="Layer_2" data-name="Layer 2"><g id="Layer_1-2" data-name="Layer 1"><rect class="cls-3" width="1365.63" height="655.17"/></g></g></svg>