<svg xmlns="http://www.w3.org/2000/svg" viewBox="0 0 691.57 148.83"><defs><style>.cls-1{fill:#fff;}.cls-2{fill:#48626b;}.cls-3{fill:#3b5158;}</style></defs><title>1-cz</title><g id="Layer_2" data-name="Layer 2"><g id="Layer_1-2" data-name="Layer 1"><polygon class="cls-1" points="325.66 33.38 312.23 33.38 343.88 74.41 312.23 115.45 325.66 115.45 357.31 74.41 325.66 33.38"/><path class="cls-2" d="M606,73.3a1.46,1.46,0,0,0,.54-1.21,1.4,1.4,0,0,0-.54-1.18,2.41,2.41,0,0,0-1.54-.4h-3v3.21h3A2.47,2.47,0,0,0,606,73.3Z"/><path class="cls-2" d="M596,72.83a2.09,2.09,0,0,0-.73-1.74,3.28,3.28,0,0,0-2.12-.59h-2.73v4.72h2.73a3.28,3.28,0,0,0,2.12-.6A2.19,2.19,0,0,0,596,72.83Z"/><polygon class="cls-2" points="473.19 75.96 477.7 75.96 475.43 70.74 473.19 75.96"/><polygon class="cls-2" points="556.77 75.96 561.28 75.96 559.01 70.74 556.77 75.96"/><path class="cls-2" d="M606.37,75.51a3.33,3.33,0,0,0-1.87-.46h-3v3.5h3a3.18,3.18,0,0,0,1.87-.45,1.51,1.51,0,0,0,.68-1.31A1.47,1.47,0,0,0,606.37,75.51Z"/><polygon class="cls-2" points="448.75 75.96 453.26 75.96 450.99 70.74 448.75 75.96"/><path class="cls-2" d="M325.66,33.38l31.64,41-31.64,41H691.57V33.38ZM612.88,66.11l.93,1,.94-1h1.42l-1.61,2h-1.5l-1.61-2Zm-90.42,0,.93,1,.94-1h1.43l-1.61,2h-1.51l-1.61-2Zm-108.39,0,.94,1,.94-1h1.42l-1.61,2h-1.5l-1.61-2Zm-19.1,0,.94,1,.93-1h1.43l-1.61,2h-1.5l-1.62-2Zm3.18,13.45A5.6,5.6,0,0,1,396,80a5.53,5.53,0,0,1-2.81-.73,5.41,5.41,0,0,1-2.74-4.76,5.26,5.26,0,0,1,.74-2.76,5.41,5.41,0,0,1,2-2,5.9,5.9,0,0,1,5-.3A5.37,5.37,0,0,1,400,70.68l-.87,1.06a4.48,4.48,0,0,0-1.43-1,4.08,4.08,0,0,0-1.67-.36,4.15,4.15,0,0,0-2.09.55,4.07,4.07,0,0,0-1.5,1.5,4.15,4.15,0,0,0,1.5,5.66,4.16,4.16,0,0,0,3.74.2,4.7,4.7,0,0,0,1.45-.94l.89,1A6.35,6.35,0,0,1,398.15,79.56Zm11.58.34h-7.64V69.16h7.46V70.5h-6v3.31h5.36v1.33h-5.36v3.43h6.17Zm9-1.35a3.24,3.24,0,0,1-1.4,1.07,5.33,5.33,0,0,1-2.06.37,6,6,0,0,1-2.31-.46A6.16,6.16,0,0,1,411,78.31l.66-1.28a5.54,5.54,0,0,0,1.73,1.16,4.78,4.78,0,0,0,1.86.41,2.93,2.93,0,0,0,1.7-.43,1.32,1.32,0,0,0,.62-1.14,1.29,1.29,0,0,0-.34-.93,2.4,2.4,0,0,0-.85-.59A14.6,14.6,0,0,0,415,75a15.71,15.71,0,0,1-1.75-.63,3.05,3.05,0,0,1-1.14-.91,2.5,2.5,0,0,1-.47-1.58,2.52,2.52,0,0,1,.48-1.52,3,3,0,0,1,1.33-1,5.33,5.33,0,0,1,2-.35,6.41,6.41,0,0,1,1.89.28,6.25,6.25,0,0,1,1.65.76l-.61,1.32a6.22,6.22,0,0,0-1.56-.71,5.23,5.23,0,0,0-1.48-.24,2.75,2.75,0,0,0-1.5.36,1.13,1.13,0,0,0-.56,1,1.29,1.29,0,0,0,.34.93,2.36,2.36,0,0,0,.83.57c.33.13.78.29,1.36.48a15.29,15.29,0,0,1,1.77.64,3.09,3.09,0,0,1,1.15.92,2.5,2.5,0,0,1,.47,1.6A2.69,2.69,0,0,1,418.72,78.55Zm9.85-8h-3.46V79.9h-1.48V70.51h-3.45V69.16h8.39Zm3.16,9.39h-1.47V69.16h1.47Zm12.17,0h-1.49l-6.13-8.32V79.9H434.8V69.16h1.49l6.15,8.33V69.16h1.46Zm11.06,0-1.13-2.61h-5.66l-1.12,2.61H445.5l4.77-10.74h1.53l4.76,10.74Zm6.8,1.84h-1.23l4.82-14.41h1.24Zm17.65-1.84-1.14-2.61h-5.66l-1.12,2.61h-1.55l4.77-10.74h1.54L481,79.9Zm12.26,0h-1.49L484,71.58V79.9h-1.47V69.16h1.48l6.16,8.33V69.16h1.46Zm4.18-3.29a4.23,4.23,0,0,0,3.66,2.08,4.45,4.45,0,0,0,1.37-.22,5.21,5.21,0,0,0,1.3-.63V74.65h1.3V78.6A7,7,0,0,1,499.41,80a5.58,5.58,0,0,1-2.83-.73,5.39,5.39,0,0,1-2.78-4.76,5.27,5.27,0,0,1,.75-2.76,5.42,5.42,0,0,1,2.06-2,5.83,5.83,0,0,1,2.88-.72,6.11,6.11,0,0,1,2.19.4,5.88,5.88,0,0,1,1.85,1.09l-.85,1.07a4.74,4.74,0,0,0-3.19-1.26,4.29,4.29,0,0,0-2.12.55,4.08,4.08,0,0,0-1.52,1.51,4,4,0,0,0-.56,2.09A4.12,4.12,0,0,0,495.85,76.61Zm16.59,3.29h-6.17V69.16h1.47v9.41h4.7Zm3.34,0h-1.47V69.16h1.47Zm9.85-.34a5.63,5.63,0,0,1-5-.28,5.44,5.44,0,0,1-2.75-4.76,5.27,5.27,0,0,1,.75-2.76,5.34,5.34,0,0,1,2-2,5.71,5.71,0,0,1,2.84-.72,5.82,5.82,0,0,1,2.17.42,5.37,5.37,0,0,1,1.82,1.19l-.88,1.06a4.44,4.44,0,0,0-1.42-1,4.14,4.14,0,0,0-5.27,1.69,4.14,4.14,0,0,0,1.51,5.66,4.14,4.14,0,0,0,2.08.55,4.23,4.23,0,0,0,1.66-.35,4.78,4.78,0,0,0,1.44-.94l.89,1A6.1,6.1,0,0,1,525.63,79.56Zm11-9h-3.47V79.9h-1.47V70.51H528.2V69.16h8.39Zm3.16,9.39h-1.47V69.16h1.47Zm12.17,0h-1.49l-6.14-8.32V79.9h-1.47V69.16h1.49l6.15,8.33V69.16h1.46Zm11.06,0-1.14-2.61h-5.66l-1.12,2.61h-1.55l4.77-10.74h1.54l4.76,10.74Zm6.8,1.84h-1.23l4.82-14.41h1.24Zm16.27-3.19a3.19,3.19,0,0,1-1.4,1.07,5.3,5.3,0,0,1-2.06.37,5.9,5.9,0,0,1-2.3-.46,6.21,6.21,0,0,1-1.94-1.22L579,77a5.54,5.54,0,0,0,1.73,1.16,4.78,4.78,0,0,0,1.86.41,2.93,2.93,0,0,0,1.7-.43,1.32,1.32,0,0,0,.62-1.14,1.29,1.29,0,0,0-.34-.93,2.4,2.4,0,0,0-.85-.59,13.68,13.68,0,0,0-1.39-.47,16.49,16.49,0,0,1-1.75-.63,3.05,3.05,0,0,1-1.14-.91,2.5,2.5,0,0,1-.47-1.58,2.52,2.52,0,0,1,.48-1.52,3,3,0,0,1,1.33-1,5.37,5.37,0,0,1,2-.35,6.41,6.41,0,0,1,1.89.28,6.25,6.25,0,0,1,1.65.76l-.61,1.32a6.07,6.07,0,0,0-1.56-.71,5.23,5.23,0,0,0-1.48-.24,2.78,2.78,0,0,0-1.5.36,1.13,1.13,0,0,0-.56,1,1.33,1.33,0,0,0,.34.93,2.46,2.46,0,0,0,.83.57c.33.13.78.29,1.37.48a15.75,15.75,0,0,1,1.76.64,3.09,3.09,0,0,1,1.15.92,2.5,2.5,0,0,1,.48,1.6A2.7,2.7,0,0,1,586.05,78.55Zm9.78,1.35-2.13-3.37-.6,0h-2.73V79.9h-1.48V69.16h4.21a4.77,4.77,0,0,1,3.15.94,3.34,3.34,0,0,1,1.11,2.68,3.87,3.87,0,0,1-.6,2.2A3.41,3.41,0,0,1,595,76.26l2.5,3.64Zm11.68-.77a4.72,4.72,0,0,1-2.86.77H600V69.16h4.59a4.23,4.23,0,0,1,2.58.71,2.56,2.56,0,0,1,.42,3.53,2.49,2.49,0,0,1-1.42.85,2.85,2.85,0,0,1,1.75.9,2.65,2.65,0,0,1,.64,1.82A2.56,2.56,0,0,1,607.51,79.13Zm10-.58a3.24,3.24,0,0,1-1.4,1.07,5.33,5.33,0,0,1-2.06.37,6,6,0,0,1-2.31-.46,6.16,6.16,0,0,1-1.93-1.22l.66-1.28a5.54,5.54,0,0,0,1.73,1.16,4.78,4.78,0,0,0,1.86.41,2.93,2.93,0,0,0,1.7-.43,1.32,1.32,0,0,0,.62-1.14,1.29,1.29,0,0,0-.34-.93,2.4,2.4,0,0,0-.85-.59,14.6,14.6,0,0,0-1.39-.47,15.71,15.71,0,0,1-1.75-.63,3.05,3.05,0,0,1-1.14-.91,2.5,2.5,0,0,1-.47-1.58,2.52,2.52,0,0,1,.48-1.52,3,3,0,0,1,1.33-1,5.33,5.33,0,0,1,2-.35,6.41,6.41,0,0,1,1.89.28,6.25,6.25,0,0,1,1.65.76l-.61,1.32a6.07,6.07,0,0,0-1.56-.71,5.23,5.23,0,0,0-1.48-.24,2.75,2.75,0,0,0-1.5.36,1.13,1.13,0,0,0-.56,1,1.33,1.33,0,0,0,.34.93,2.46,2.46,0,0,0,.83.57c.33.13.78.29,1.36.48a15.29,15.29,0,0,1,1.77.64,3.09,3.09,0,0,1,1.15.92,2.5,2.5,0,0,1,.48,1.6A2.7,2.7,0,0,1,617.52,78.55Zm9.86-8h-3.47V79.9h-1.48V70.51H619V69.16h8.4Zm3.16,9.39h-1.48V69.16h1.48Zm12.16,0h-1.49l-6.13-8.32V79.9H633.6V69.16h1.49l6.16,8.33V69.16h1.45Zm11.06,0-1.13-2.61H647l-1.12,2.61H644.3l4.77-10.74h1.53l4.76,10.74Z"/><polygon class="cls-2" points="647.55 75.96 652.06 75.96 649.79 70.74 647.55 75.96"/><polygon class="cls-3" points="290.35 75.89 293.52 75.89 291.95 71.82 290.35 75.89"/><path class="cls-3" d="M212.37,71.56a2.83,2.83,0,0,0-1.56-.44,2.91,2.91,0,0,0-1.57.44,3.26,3.26,0,0,0-1.15,1.21,3.55,3.55,0,0,0-.42,1.71,3.46,3.46,0,0,0,.43,1.72,3.37,3.37,0,0,0,1.15,1.22,2.89,2.89,0,0,0,1.56.45,2.84,2.84,0,0,0,1.56-.45,3.21,3.21,0,0,0,1.12-1.22,3.79,3.79,0,0,0,0-3.43A3.11,3.11,0,0,0,212.37,71.56Z"/><path class="cls-3" d="M312.23,33.38H136.45a74.2,74.2,0,0,1,0,82.07H312.23l31.65-41Zm-60.71,32,1,1.1,1-1.1h2.09l-1.78,2.5h-2.56l-1.78-2.5ZM194,78.76A3.67,3.67,0,0,1,192.39,80a6.53,6.53,0,0,1-2.34.41,8.49,8.49,0,0,1-2.83-.5,7.6,7.6,0,0,1-2.44-1.36l1.16-2.33a7.07,7.07,0,0,0,2,1.25,5.54,5.54,0,0,0,2.1.49,2,2,0,0,0,1-.24.79.79,0,0,0,.38-.72.83.83,0,0,0-.28-.65,2.11,2.11,0,0,0-.72-.42c-.29-.1-.69-.22-1.21-.36a15.39,15.39,0,0,1-1.94-.66,3.51,3.51,0,0,1-1.32-1,2.85,2.85,0,0,1-.54-1.81,3.16,3.16,0,0,1,.56-1.85,3.59,3.59,0,0,1,1.6-1.24,6.35,6.35,0,0,1,2.4-.43,8.9,8.9,0,0,1,2.45.35,8.4,8.4,0,0,1,2.12.94l-1.13,2.38a10.1,10.1,0,0,0-1.95-.88,5.62,5.62,0,0,0-1.73-.34,1.65,1.65,0,0,0-.87.2.66.66,0,0,0-.32.6.77.77,0,0,0,.28.62,2,2,0,0,0,.68.41c.27.1.67.24,1.21.4a15.93,15.93,0,0,1,2,.69,3.28,3.28,0,0,1,1.33,1,2.91,2.91,0,0,1,.55,1.85A3.18,3.18,0,0,1,194,78.76ZM204,80.2h-7.82V68.77h3v8.89H204Zm12.17-2.71a5.76,5.76,0,0,1-2.21,2.14,6.41,6.41,0,0,1-3.16.78,6.5,6.5,0,0,1-3.15-.77,5.8,5.8,0,0,1-3-5.18,5.67,5.67,0,0,1,.81-3,5.75,5.75,0,0,1,2.22-2.1,6.85,6.85,0,0,1,6.31,0,5.7,5.7,0,0,1,3,5.1A5.77,5.77,0,0,1,216.15,77.49Zm8.52,2.71h-3.1l-4.43-11.43h3.21L223.21,77l2.86-8.27h3.07Zm8.53,0h-3V68.77h3Zm12.8,0h-2.61l-5.19-6.83V80.2h-2.78V68.77H238l5.2,6.88,0-6.88H246Zm10.64-1.44A3.67,3.67,0,0,1,255,80a6.49,6.49,0,0,1-2.34.41,8.49,8.49,0,0,1-2.83-.5,7.71,7.71,0,0,1-2.44-1.36l1.16-2.33a7.07,7.07,0,0,0,2,1.25,5.54,5.54,0,0,0,2.1.49,2,2,0,0,0,1-.24.79.79,0,0,0,.38-.72.83.83,0,0,0-.28-.65,2.11,2.11,0,0,0-.72-.42c-.29-.1-.69-.22-1.21-.36a15.39,15.39,0,0,1-1.94-.66,3.59,3.59,0,0,1-1.32-1,2.85,2.85,0,0,1-.54-1.81,3.16,3.16,0,0,1,.56-1.85,3.59,3.59,0,0,1,1.6-1.24,6.35,6.35,0,0,1,2.4-.43,8.9,8.9,0,0,1,2.45.35,8.4,8.4,0,0,1,2.12.94l-1.13,2.38a10.1,10.1,0,0,0-2-.88,5.62,5.62,0,0,0-1.73-.34,1.65,1.65,0,0,0-.87.2.66.66,0,0,0-.32.6.77.77,0,0,0,.28.62,2,2,0,0,0,.68.41c.27.1.67.24,1.21.4a15.93,15.93,0,0,1,2,.69,3.28,3.28,0,0,1,1.33,1,2.91,2.91,0,0,1,.55,1.85A3.18,3.18,0,0,1,256.64,78.76Zm10.92-7.53h-3.42v9h-3v-9h-3.39V68.77h9.79Zm4.19,9h-3V68.77h3Zm12.8,0h-2.61l-5.18-6.83V80.2H274V68.77h2.62l5.2,6.88V68.77h2.77Zm10.63,0-.78-2h-4.94l-.8,2h-3.07l4.91-11.43h3.07l4.79,11.43Z"/><path class="cls-2" d="M137.83,74.41a63.42,63.42,0,1,0-63.42,63.42A63.49,63.49,0,0,0,137.83,74.41Zm-83.13-16V44.49H84.28V109.7h-17V58.44Z"/><path class="cls-1" d="M136.45,33.38a74.2,74.2,0,1,0,12.38,41A74.39,74.39,0,0,0,136.45,33.38ZM11,74.41a63.42,63.42,0,1,1,63.41,63.42A63.49,63.49,0,0,1,11,74.41Z"/><polygon class="cls-1" points="84.28 109.69 84.28 44.49 54.7 44.49 54.7 58.44 67.25 58.44 67.25 109.69 84.28 109.69"/><path class="cls-1" d="M192.76,73.91a15.93,15.93,0,0,0-2-.69c-.54-.16-.94-.3-1.21-.4a2,2,0,0,1-.68-.41.77.77,0,0,1-.28-.62.66.66,0,0,1,.32-.6,1.65,1.65,0,0,1,.87-.2,5.62,5.62,0,0,1,1.73.34,10.1,10.1,0,0,1,1.95.88l1.13-2.38a8.4,8.4,0,0,0-2.12-.94,8.9,8.9,0,0,0-2.45-.35,6.35,6.35,0,0,0-2.4.43,3.59,3.59,0,0,0-1.6,1.24,3.16,3.16,0,0,0-.56,1.85,2.85,2.85,0,0,0,.54,1.81,3.51,3.51,0,0,0,1.32,1,15.39,15.39,0,0,0,1.94.66c.52.14.92.26,1.21.36a2.11,2.11,0,0,1,.72.42.83.83,0,0,1,.28.65.79.79,0,0,1-.38.72,2,2,0,0,1-1,.24,5.54,5.54,0,0,1-2.1-.49,7.07,7.07,0,0,1-2-1.25l-1.16,2.33a7.6,7.6,0,0,0,2.44,1.36,8.49,8.49,0,0,0,2.83.5,6.53,6.53,0,0,0,2.34-.41A3.67,3.67,0,0,0,194,78.76a3.18,3.18,0,0,0,.6-2,2.91,2.91,0,0,0-.55-1.85A3.28,3.28,0,0,0,192.76,73.91Z"/><polygon class="cls-1" points="199.14 68.77 196.16 68.77 196.16 80.2 203.98 80.2 203.98 77.66 199.14 77.66 199.14 68.77"/><path class="cls-1" d="M213.94,69.36a6.85,6.85,0,0,0-6.31,0,5.75,5.75,0,0,0-2.22,2.1,5.67,5.67,0,0,0-.81,3,5.8,5.8,0,0,0,3,5.18,6.5,6.5,0,0,0,3.15.77,6.41,6.41,0,0,0,3.16-.78,5.82,5.82,0,0,0,3-5.17,5.7,5.7,0,0,0-3-5.1Zm-.45,6.84a3.21,3.21,0,0,1-1.12,1.22,2.84,2.84,0,0,1-1.56.45,2.89,2.89,0,0,1-1.56-.45,3.37,3.37,0,0,1-1.15-1.22,3.46,3.46,0,0,1-.43-1.72,3.55,3.55,0,0,1,.42-1.71,3.26,3.26,0,0,1,1.15-1.21,2.91,2.91,0,0,1,1.57-.44,2.83,2.83,0,0,1,1.56.44,3.11,3.11,0,0,1,1.12,1.21,3.79,3.79,0,0,1,0,3.43Z"/><polygon class="cls-1" points="223.21 77.04 220.35 68.77 217.14 68.77 221.57 80.2 224.67 80.2 229.14 68.77 226.07 68.77 223.21 77.04"/><rect class="cls-1" x="230.21" y="68.77" width="2.98" height="11.43"/><polygon class="cls-1" points="243.24 75.65 238.04 68.77 235.41 68.77 235.41 80.2 238.2 80.2 238.2 73.37 243.39 80.2 246 80.2 246 68.77 243.22 68.77 243.24 75.65"/><path class="cls-1" d="M255.36,73.91a15.93,15.93,0,0,0-2-.69c-.54-.16-.94-.3-1.21-.4a2,2,0,0,1-.68-.41.77.77,0,0,1-.28-.62.66.66,0,0,1,.32-.6,1.65,1.65,0,0,1,.87-.2,5.62,5.62,0,0,1,1.73.34,10.1,10.1,0,0,1,2,.88l1.13-2.38a8.4,8.4,0,0,0-2.12-.94,8.9,8.9,0,0,0-2.45-.35,6.35,6.35,0,0,0-2.4.43,3.59,3.59,0,0,0-1.6,1.24,3.16,3.16,0,0,0-.56,1.85,2.85,2.85,0,0,0,.54,1.81,3.59,3.59,0,0,0,1.32,1,15.39,15.39,0,0,0,1.94.66c.52.14.92.26,1.21.36a2.11,2.11,0,0,1,.72.42.83.83,0,0,1,.28.65.79.79,0,0,1-.38.72,2,2,0,0,1-1,.24,5.54,5.54,0,0,1-2.1-.49,7.07,7.07,0,0,1-2-1.25l-1.16,2.33a7.71,7.71,0,0,0,2.44,1.36,8.49,8.49,0,0,0,2.83.5A6.49,6.49,0,0,0,255,80a3.67,3.67,0,0,0,1.65-1.21,3.18,3.18,0,0,0,.6-2,2.91,2.91,0,0,0-.55-1.85A3.28,3.28,0,0,0,255.36,73.91Z"/><polygon class="cls-1" points="253.77 67.86 255.55 65.36 253.46 65.36 252.48 66.46 251.52 65.36 249.44 65.36 251.21 67.86 253.77 67.86"/><polygon class="cls-1" points="257.77 71.23 261.16 71.23 261.16 80.2 264.14 80.2 264.14 71.23 267.56 71.23 267.56 68.77 257.77 68.77 257.77 71.23"/><rect class="cls-1" x="268.77" y="68.77" width="2.98" height="11.43"/><polygon class="cls-1" points="281.8 75.65 276.6 68.77 273.97 68.77 273.97 80.2 276.76 80.2 276.76 73.37 281.94 80.2 284.55 80.2 284.55 68.77 281.78 68.77 281.8 75.65"/><path class="cls-1" d="M290.5,68.77,285.59,80.2h3.07l.8-2h4.94l.78,2h3.18l-4.79-11.43Zm-.15,7.12,1.6-4.07,1.57,4.07Z"/><path class="cls-1" d="M397.7,78.28a4.16,4.16,0,0,1-3.74-.2,4.14,4.14,0,0,1-1.5-5.66,4.07,4.07,0,0,1,1.5-1.5,4.15,4.15,0,0,1,2.09-.55,4.08,4.08,0,0,1,1.67.36,4.48,4.48,0,0,1,1.43,1l.87-1.06a5.37,5.37,0,0,0-1.82-1.19,5.9,5.9,0,0,0-5,.3,5.41,5.41,0,0,0-2,2,5.26,5.26,0,0,0-.74,2.76,5.41,5.41,0,0,0,2.74,4.76A5.53,5.53,0,0,0,396,80a5.6,5.6,0,0,0,2.18-.45A6.35,6.35,0,0,0,400,78.31l-.89-1A4.7,4.7,0,0,1,397.7,78.28Z"/><polygon class="cls-1" points="396.66 68.15 398.27 66.11 396.84 66.11 395.91 67.14 394.97 66.11 393.55 66.11 395.16 68.15 396.66 68.15"/><polygon class="cls-1" points="403.56 75.14 408.92 75.14 408.92 73.81 403.56 73.81 403.56 70.5 409.55 70.5 409.55 69.16 402.09 69.16 402.09 79.9 409.73 79.9 409.73 78.57 403.56 78.57 403.56 75.14"/><polygon class="cls-1" points="415.76 68.15 417.37 66.11 415.95 66.11 415.01 67.14 414.07 66.11 412.65 66.11 414.26 68.15 415.76 68.15"/><path class="cls-1" d="M417.59,74.42a15.29,15.29,0,0,0-1.77-.64c-.58-.19-1-.35-1.36-.48a2.36,2.36,0,0,1-.83-.57,1.29,1.29,0,0,1-.34-.93,1.13,1.13,0,0,1,.56-1,2.75,2.75,0,0,1,1.5-.36,5.23,5.23,0,0,1,1.48.24,6.22,6.22,0,0,1,1.56.71l.61-1.32a6.25,6.25,0,0,0-1.65-.76,6.41,6.41,0,0,0-1.89-.28,5.33,5.33,0,0,0-2,.35,3,3,0,0,0-1.33,1,2.52,2.52,0,0,0-.48,1.52,2.5,2.5,0,0,0,.47,1.58,3.05,3.05,0,0,0,1.14.91A15.71,15.71,0,0,0,415,75a14.6,14.6,0,0,1,1.39.47,2.4,2.4,0,0,1,.85.59,1.29,1.29,0,0,1,.34.93,1.32,1.32,0,0,1-.62,1.14,2.93,2.93,0,0,1-1.7.43,4.78,4.78,0,0,1-1.86-.41A5.54,5.54,0,0,1,411.68,77L411,78.31A6.16,6.16,0,0,0,413,79.53a6,6,0,0,0,2.31.46,5.33,5.33,0,0,0,2.06-.37,3.24,3.24,0,0,0,1.4-1.07,2.69,2.69,0,0,0,.49-1.61,2.5,2.5,0,0,0-.47-1.6A3.09,3.09,0,0,0,417.59,74.42Z"/><polygon class="cls-1" points="420.18 70.51 423.63 70.51 423.63 79.9 425.11 79.9 425.11 70.51 428.57 70.51 428.57 69.16 420.18 69.16 420.18 70.51"/><rect class="cls-1" x="430.26" y="69.16" width="1.47" height="10.74"/><polygon class="cls-1" points="442.44 77.49 436.29 69.16 434.8 69.16 434.8 79.9 436.27 79.9 436.27 71.58 442.41 79.9 443.9 79.9 443.9 69.16 442.44 69.16 442.44 77.49"/><path class="cls-1" d="M450.27,69.16,445.5,79.9h1.55l1.12-2.61h5.66L455,79.9h1.6L451.8,69.16ZM448.75,76,451,70.74,453.26,76Z"/><polygon class="cls-1" points="460.53 81.74 461.76 81.74 466.6 67.33 465.35 67.33 460.53 81.74"/><path class="cls-1" d="M474.71,69.16,469.94,79.9h1.55l1.12-2.61h5.66l1.14,2.61H481l-4.75-10.74ZM473.19,76l2.24-5.22L477.7,76Z"/><polygon class="cls-1" points="490.21 77.49 484.06 69.16 482.57 69.16 482.57 79.9 484.04 79.9 484.04 71.58 490.18 79.9 491.67 79.9 491.67 69.16 490.21 69.16 490.21 77.49"/><path class="cls-1" d="M497.37,70.92a4.29,4.29,0,0,1,2.12-.55,4.74,4.74,0,0,1,3.19,1.26l.85-1.07a5.88,5.88,0,0,0-1.85-1.09,6.11,6.11,0,0,0-2.19-.4,5.83,5.83,0,0,0-2.88.72,5.42,5.42,0,0,0-2.06,2,5.27,5.27,0,0,0-.75,2.76,5.39,5.39,0,0,0,2.78,4.76,5.58,5.58,0,0,0,2.83.73,7,7,0,0,0,4.07-1.41V74.65h-1.3v3.19a5.21,5.21,0,0,1-1.3.63,4.45,4.45,0,0,1-1.37.22,4.23,4.23,0,0,1-3.66-2.08,4.12,4.12,0,0,1-.56-2.09,4,4,0,0,1,.56-2.09A4.08,4.08,0,0,1,497.37,70.92Z"/><polygon class="cls-1" points="507.74 69.16 506.27 69.16 506.27 79.9 512.44 79.9 512.44 78.57 507.74 78.57 507.74 69.16"/><rect class="cls-1" x="514.31" y="69.16" width="1.47" height="10.74"/><path class="cls-1" d="M525.19,78.28a4.23,4.23,0,0,1-1.66.35,4.14,4.14,0,0,1-2.08-.55,4.05,4.05,0,0,1-1.51-1.51,4.19,4.19,0,0,1,0-4.15,4.1,4.1,0,0,1,1.51-1.5,4.16,4.16,0,0,1,3.76-.19,4.44,4.44,0,0,1,1.42,1l.88-1.06a5.37,5.37,0,0,0-1.82-1.19,5.82,5.82,0,0,0-2.17-.42,5.71,5.71,0,0,0-2.84.72,5.34,5.34,0,0,0-2,2,5.27,5.27,0,0,0-.75,2.76,5.44,5.44,0,0,0,2.75,4.76,5.63,5.63,0,0,0,5,.28,6.1,6.1,0,0,0,1.89-1.25l-.89-1A4.78,4.78,0,0,1,525.19,78.28Z"/><polygon class="cls-1" points="524.15 68.15 525.76 66.11 524.33 66.11 523.39 67.14 522.46 66.11 521.03 66.11 522.64 68.15 524.15 68.15"/><polygon class="cls-1" points="528.2 70.51 531.65 70.51 531.65 79.9 533.12 79.9 533.12 70.51 536.59 70.51 536.59 69.16 528.2 69.16 528.2 70.51"/><rect class="cls-1" x="538.28" y="69.16" width="1.47" height="10.74"/><polygon class="cls-1" points="550.46 77.49 544.31 69.16 542.82 69.16 542.82 79.9 544.29 79.9 544.29 71.58 550.43 79.9 551.92 79.9 551.92 69.16 550.46 69.16 550.46 77.49"/><path class="cls-1" d="M558.28,69.16,553.51,79.9h1.55l1.12-2.61h5.66L563,79.9h1.6l-4.76-10.74ZM556.77,76,559,70.74,561.28,76Z"/><polygon class="cls-1" points="568.55 81.74 569.78 81.74 574.61 67.33 573.37 67.33 568.55 81.74"/><path class="cls-1" d="M584.92,74.42a15.75,15.75,0,0,0-1.76-.64c-.59-.19-1-.35-1.37-.48a2.46,2.46,0,0,1-.83-.57,1.33,1.33,0,0,1-.34-.93,1.13,1.13,0,0,1,.56-1,2.78,2.78,0,0,1,1.5-.36,5.23,5.23,0,0,1,1.48.24,6.07,6.07,0,0,1,1.56.71l.61-1.32a6.25,6.25,0,0,0-1.65-.76,6.41,6.41,0,0,0-1.89-.28,5.37,5.37,0,0,0-2,.35,3,3,0,0,0-1.33,1,2.52,2.52,0,0,0-.48,1.52,2.5,2.5,0,0,0,.47,1.58,3.05,3.05,0,0,0,1.14.91,16.49,16.49,0,0,0,1.75.63,13.68,13.68,0,0,1,1.39.47,2.4,2.4,0,0,1,.85.59,1.29,1.29,0,0,1,.34.93,1.32,1.32,0,0,1-.62,1.14,2.93,2.93,0,0,1-1.7.43,4.78,4.78,0,0,1-1.86-.41A5.54,5.54,0,0,1,579,77l-.66,1.28a6.21,6.21,0,0,0,1.94,1.22,5.9,5.9,0,0,0,2.3.46,5.3,5.3,0,0,0,2.06-.37,3.19,3.19,0,0,0,1.4-1.07,2.7,2.7,0,0,0,.5-1.61,2.5,2.5,0,0,0-.48-1.6A3.09,3.09,0,0,0,584.92,74.42Z"/><path class="cls-1" d="M596.76,75a3.87,3.87,0,0,0,.6-2.2,3.34,3.34,0,0,0-1.11-2.68,4.77,4.77,0,0,0-3.15-.94h-4.21V79.9h1.48V76.56h2.73l.6,0,2.13,3.37h1.69L595,76.26A3.41,3.41,0,0,0,596.76,75Zm-3.66.24h-2.73V70.5h2.73a3.28,3.28,0,0,1,2.12.59,2.09,2.09,0,0,1,.73,1.74,2.19,2.19,0,0,1-.73,1.79A3.28,3.28,0,0,1,593.1,75.22Z"/><path class="cls-1" d="M606.16,74.25a2.49,2.49,0,0,0,1.42-.85,2.56,2.56,0,0,0-.42-3.53,4.23,4.23,0,0,0-2.58-.71H600V79.9h4.66a4.72,4.72,0,0,0,2.86-.77,2.56,2.56,0,0,0,1-2.16,2.65,2.65,0,0,0-.64-1.82A2.85,2.85,0,0,0,606.16,74.25Zm-4.7-3.74h3a2.41,2.41,0,0,1,1.54.4,1.4,1.4,0,0,1,.54,1.18A1.46,1.46,0,0,1,606,73.3a2.47,2.47,0,0,1-1.54.42h-3Zm4.91,7.59a3.18,3.18,0,0,1-1.87.45h-3v-3.5h3a3.33,3.33,0,0,1,1.87.46,1.47,1.47,0,0,1,.68,1.28A1.51,1.51,0,0,1,606.37,78.1Z"/><path class="cls-1" d="M616.39,74.42a15.29,15.29,0,0,0-1.77-.64c-.58-.19-1-.35-1.36-.48a2.46,2.46,0,0,1-.83-.57,1.33,1.33,0,0,1-.34-.93,1.13,1.13,0,0,1,.56-1,2.75,2.75,0,0,1,1.5-.36,5.23,5.23,0,0,1,1.48.24,6.07,6.07,0,0,1,1.56.71l.61-1.32a6.25,6.25,0,0,0-1.65-.76,6.41,6.41,0,0,0-1.89-.28,5.33,5.33,0,0,0-2,.35,3,3,0,0,0-1.33,1,2.52,2.52,0,0,0-.48,1.52,2.5,2.5,0,0,0,.47,1.58,3.05,3.05,0,0,0,1.14.91,15.71,15.71,0,0,0,1.75.63,14.6,14.6,0,0,1,1.39.47,2.4,2.4,0,0,1,.85.59,1.29,1.29,0,0,1,.34.93,1.32,1.32,0,0,1-.62,1.14,2.93,2.93,0,0,1-1.7.43,4.78,4.78,0,0,1-1.86-.41A5.54,5.54,0,0,1,610.48,77l-.66,1.28a6.16,6.16,0,0,0,1.93,1.22,6,6,0,0,0,2.31.46,5.33,5.33,0,0,0,2.06-.37,3.24,3.24,0,0,0,1.4-1.07,2.7,2.7,0,0,0,.5-1.61,2.5,2.5,0,0,0-.48-1.6A3.09,3.09,0,0,0,616.39,74.42Z"/><polygon class="cls-1" points="614.56 68.15 616.17 66.11 614.75 66.11 613.81 67.14 612.88 66.11 611.45 66.11 613.06 68.15 614.56 68.15"/><polygon class="cls-1" points="618.98 70.51 622.43 70.51 622.43 79.9 623.91 79.9 623.91 70.51 627.38 70.51 627.38 69.16 618.98 69.16 618.98 70.51"/><rect class="cls-1" x="629.06" y="69.16" width="1.47" height="10.74"/><polygon class="cls-1" points="641.25 77.49 635.09 69.16 633.6 69.16 633.6 79.9 635.08 79.9 635.08 71.58 641.22 79.9 642.7 79.9 642.7 69.16 641.25 69.16 641.25 77.49"/><path class="cls-1" d="M649.07,69.16,644.3,79.9h1.55L647,77.29h5.66l1.13,2.61h1.6L650.6,69.16ZM647.55,76l2.24-5.22L652.06,76Z"/></g></g></svg>