<svg xmlns="http://www.w3.org/2000/svg" viewBox="0 0 689.58 148.83"><defs><style>.cls-1{fill:#fff;}.cls-2{fill:#00aaaf;}.cls-3{fill:#008c90;}</style></defs><title>2-cz</title><g id="Layer_2" data-name="Layer 2"><g id="Layer_1-2" data-name="Layer 1"><polygon class="cls-1" points="500.67 33.38 485.81 33.38 517.45 74.42 485.81 115.45 500.67 115.45 532.32 74.42 500.67 33.38"/><polygon class="cls-2" points="651.95 76.96 656.46 76.96 654.19 71.75 651.95 76.96"/><path class="cls-2" d="M500.67,33.38l31.65,41-31.65,41H689.58V33.38Zm116.6,33.73.94,1,.93-1h1.43l-1.61,2h-1.5l-1.61-2ZM565,79.56a3.23,3.23,0,0,1-1.4,1.06,5.33,5.33,0,0,1-2.06.38,6,6,0,0,1-2.31-.46,6.37,6.37,0,0,1-1.93-1.23L558,78a5.54,5.54,0,0,0,1.73,1.16,4.76,4.76,0,0,0,1.86.4,3,3,0,0,0,1.7-.42,1.4,1.4,0,0,0,.28-2.08,2.38,2.38,0,0,0-.85-.58c-.34-.14-.81-.3-1.39-.48a12.49,12.49,0,0,1-1.75-.63,2.93,2.93,0,0,1-1.14-.9,2.77,2.77,0,0,1,0-3.1,2.92,2.92,0,0,1,1.33-1,5.14,5.14,0,0,1,2-.36,6.42,6.42,0,0,1,1.89.29,6.25,6.25,0,0,1,1.65.76l-.61,1.32a6.26,6.26,0,0,0-1.56-.72,5.57,5.57,0,0,0-1.48-.23,2.75,2.75,0,0,0-1.5.36,1.13,1.13,0,0,0-.56,1,1.28,1.28,0,0,0,.34.92,2.36,2.36,0,0,0,.83.57c.33.14.78.3,1.36.49a15.29,15.29,0,0,1,1.77.64,3.06,3.06,0,0,1,1.15.91A2.53,2.53,0,0,1,565.5,78,2.69,2.69,0,0,1,565,79.56Zm9,1.35h-6.17V70.17h1.47v9.4H574Zm11.46-2.62a5.47,5.47,0,0,1-2.05,2,6,6,0,0,1-5.69,0,5.54,5.54,0,0,1-2-2,5.33,5.33,0,0,1-.75-2.77,5.24,5.24,0,0,1,.75-2.75,5.36,5.36,0,0,1,2-2,6,6,0,0,1,5.7,0,5.32,5.32,0,0,1,2.05,2,5.24,5.24,0,0,1,.75,2.75A5.33,5.33,0,0,1,585.48,78.29Zm7.14,2.62h-1.54l-4.32-10.74h1.58l3.54,9.1,3.54-9.1H597Zm7.44,0h-1.48V70.17h1.48Zm12.16,0h-1.48l-6.14-8.32v8.32h-1.47V70.17h1.48l6.16,8.33V70.17h1.45Zm9.69-1.35a3.14,3.14,0,0,1-1.39,1.06,5.34,5.34,0,0,1-2.07.38,6,6,0,0,1-2.3-.46,6.37,6.37,0,0,1-1.93-1.23l.66-1.27a5.54,5.54,0,0,0,1.73,1.16,4.73,4.73,0,0,0,1.86.4,3,3,0,0,0,1.7-.42,1.32,1.32,0,0,0,.62-1.14,1.37,1.37,0,0,0-.34-.94,2.47,2.47,0,0,0-.85-.58c-.35-.14-.81-.3-1.39-.48a12.49,12.49,0,0,1-1.75-.63,2.93,2.93,0,0,1-1.14-.9,2.46,2.46,0,0,1-.47-1.58,2.58,2.58,0,0,1,.47-1.52,3,3,0,0,1,1.34-1,5.12,5.12,0,0,1,2-.36,6.44,6.44,0,0,1,1.9.29,6.25,6.25,0,0,1,1.65.76l-.62,1.32a6.2,6.2,0,0,0-1.55-.72,5.57,5.57,0,0,0-1.48-.23,2.73,2.73,0,0,0-1.5.36,1.13,1.13,0,0,0-.56,1,1.28,1.28,0,0,0,.34.92,2.36,2.36,0,0,0,.83.57c.32.14.78.3,1.36.49a15.29,15.29,0,0,1,1.77.64,3.06,3.06,0,0,1,1.15.91,2.59,2.59,0,0,1,.47,1.61A2.63,2.63,0,0,1,621.91,79.56Zm9.86-8H628.3v9.39h-1.47V71.52h-3.45V70.17h8.39Zm3.16,9.39h-1.47V70.17h1.47Zm12.17,0h-1.49l-6.14-8.32v8.32H638V70.17h1.49l6.15,8.33V70.17h1.46Zm11.06,0L657,78.3h-5.66l-1.12,2.61H648.7l4.77-10.74H655l4.76,10.74Z"/><path class="cls-2" d="M582.67,72a4,4,0,0,0-2.07-.56,4.22,4.22,0,0,0-3.6,2,3.94,3.94,0,0,0-.57,2.08,4,4,0,0,0,.57,2.09,4.23,4.23,0,0,0,1.52,1.51,4.11,4.11,0,0,0,2.08.56,4,4,0,0,0,2.07-.56,4.26,4.26,0,0,0,1.5-1.51,4.09,4.09,0,0,0,.56-2.09,4,4,0,0,0-.56-2.08A4.12,4.12,0,0,0,582.67,72Z"/><path class="cls-3" d="M417.51,76.07a1,1,0,0,0,.36-.84,1,1,0,0,0-.36-.81,1.43,1.43,0,0,0-1-.26h-2.28v2.21h2.28A1.49,1.49,0,0,0,417.51,76.07Z"/><polygon class="cls-3" points="465.06 78.95 468.23 78.95 466.66 74.87 465.06 78.95"/><polygon class="cls-3" points="275.66 78.95 278.83 78.95 277.26 74.87 275.66 78.95"/><path class="cls-3" d="M417.77,78.84a2.08,2.08,0,0,0-1.24-.3h-2.28v2.4h2.28a2.07,2.07,0,0,0,1.24-.33,1.07,1.07,0,0,0,.46-.91A1,1,0,0,0,417.77,78.84Z"/><polygon class="cls-3" points="366.88 78.95 370.04 78.95 368.47 74.87 366.88 78.95"/><polygon class="cls-3" points="250.04 78.95 253.2 78.95 251.64 74.87 250.04 78.95"/><path class="cls-3" d="M404.61,74.2h-2.16v3.51h2.16a2,2,0,0,0,1.41-.46,1.66,1.66,0,0,0,.5-1.32,1.62,1.62,0,0,0-.5-1.28A2,2,0,0,0,404.61,74.2Z"/><path class="cls-3" d="M485.81,33.38H136.45a74.2,74.2,0,0,1,0,82.07H485.81l31.64-41Zm-59.58,35,1,1.09,1-1.09h2.09l-1.78,2.49h-2.56l-1.78-2.49Zm-97.89,0,1,1.09,1-1.09h2.08l-1.77,2.49H328l-1.78-2.49Zm-117.13,0,1,1.09,1-1.09h2.08l-1.77,2.49H210.9l-1.78-2.49Zm-21.25,0,1,1.09,1-1.09H194l-1.78,2.49h-2.56l-1.77-2.49Zm3.47,14.46a6.14,6.14,0,0,1-5.6-.2,5.71,5.71,0,0,1-2.15-2.13,6,6,0,0,1-.79-3,5.68,5.68,0,0,1,3-5.1,6.49,6.49,0,0,1,7.73,1.21l-1.73,2.08a4.25,4.25,0,0,0-1.32-1.11,3.11,3.11,0,0,0-1.51-.42,3.07,3.07,0,0,0-1.58.43,3.1,3.1,0,0,0-1.11,1.19,3.69,3.69,0,0,0,0,3.38,3.1,3.1,0,0,0,1.11,1.19,3,3,0,0,0,1.58.43,3.44,3.44,0,0,0,1.46-.36,4.41,4.41,0,0,0,1.37-1l1.75,1.88A6.94,6.94,0,0,1,193.43,82.88Zm12.66.37h-9.18V71.82h9V74.2h-6v2.14h5.45V78.7l-5.45,0v2.15h6.2Zm10.24-1.44A3.69,3.69,0,0,1,214.67,83a6.46,6.46,0,0,1-2.34.41,8.28,8.28,0,0,1-2.83-.5,7.55,7.55,0,0,1-2.43-1.36l1.15-2.33a7.37,7.37,0,0,0,2.05,1.26,5.69,5.69,0,0,0,2.09.49,2,2,0,0,0,1.06-.25.8.8,0,0,0,.38-.72.86.86,0,0,0-.29-.65,2.14,2.14,0,0,0-.71-.41c-.29-.11-.7-.23-1.22-.37a16,16,0,0,1-1.94-.66,3.38,3.38,0,0,1-1.31-1,2.74,2.74,0,0,1-.55-1.8,3.11,3.11,0,0,1,.57-1.86A3.56,3.56,0,0,1,209.94,72a6.17,6.17,0,0,1,2.41-.43,8.47,8.47,0,0,1,2.44.35,7.91,7.91,0,0,1,2.12.93l-1.12,2.38a10.75,10.75,0,0,0-1.95-.88A6,6,0,0,0,212.1,74a1.55,1.55,0,0,0-.87.21.66.66,0,0,0-.32.59.81.81,0,0,0,.28.63,2.22,2.22,0,0,0,.69.41q.41.15,1.2.39a16.15,16.15,0,0,1,2,.69A3.5,3.5,0,0,1,216.37,78a2.91,2.91,0,0,1,.56,1.85A3.18,3.18,0,0,1,216.33,81.81Zm10.92-7.52h-3.43v9h-3v-9h-3.39V71.82h9.8Zm4.19,9h-3V71.82h3Zm12.79,0h-2.6l-5.19-6.83v6.83h-2.79V71.82h2.63l5.2,6.88,0-6.88h2.77Zm10.63,0-.78-2h-4.94l-.8,2h-3.06l4.9-11.43h3.07L258,83.25ZM263.41,85H261l5.28-15h2.45Zm17.08-1.79-.78-2h-4.94l-.8,2H270.9l4.91-11.43h3.07l4.79,11.43Zm14.79,0h-2.61l-5.19-6.83v6.83H284.7V71.82h2.62l5.2,6.88,0-6.88h2.78Zm5-4a3.19,3.19,0,0,0,1.18,1.21,3.24,3.24,0,0,0,1.66.44,4.47,4.47,0,0,0,2-.55v-3h2.58V82a7.66,7.66,0,0,1-2.24,1.09,8.38,8.38,0,0,1-2.52.41,6.28,6.28,0,0,1-3.12-.77,5.79,5.79,0,0,1-3-5.16,5.65,5.65,0,0,1,.82-3,5.71,5.71,0,0,1,2.27-2.11,6.74,6.74,0,0,1,3.21-.77,7.41,7.41,0,0,1,2.55.47,6.48,6.48,0,0,1,2.15,1.25l-1.7,2.08a4.72,4.72,0,0,0-1.42-.93,4.21,4.21,0,0,0-1.59-.34,3.18,3.18,0,0,0-1.65.44,3.29,3.29,0,0,0-1.16,1.21,3.49,3.49,0,0,0-.42,1.71A3.61,3.61,0,0,0,300.26,79.27Zm17.19,4h-7.83V71.82h3v8.89h4.84Zm4.33,0h-3V71.82h3Zm10-.37a6.14,6.14,0,0,1-5.6-.2,5.71,5.71,0,0,1-2.15-2.13,6,6,0,0,1-.78-3,5.69,5.69,0,0,1,3-5.1,6.48,6.48,0,0,1,5.63-.24,6.21,6.21,0,0,1,2.1,1.45l-1.72,2.08A4.25,4.25,0,0,0,331,74.59a3.18,3.18,0,0,0-1.52-.42,3,3,0,0,0-1.57.43,3.05,3.05,0,0,0-1.12,1.19,3.69,3.69,0,0,0,0,3.38,3.05,3.05,0,0,0,1.12,1.19,2.92,2.92,0,0,0,1.57.43,3.48,3.48,0,0,0,1.47-.36,4.66,4.66,0,0,0,1.37-1L334,81.33A6.94,6.94,0,0,1,331.8,82.88Zm12.28-8.59h-3.42v9h-3v-9h-3.39V71.82h9.79Zm4.19,9h-3V71.82h3Zm12.8,0h-2.61l-5.18-6.83v6.83h-2.79V71.82h2.63l5.2,6.88,0-6.88h2.77Zm10.63,0-.78-2H366l-.8,2h-3.06L367,71.82h3.07l4.79,11.43ZM380.24,85H377.8l5.28-15h2.44Zm17.1-3.23A3.6,3.6,0,0,1,395.69,83a6.46,6.46,0,0,1-2.34.41,8.24,8.24,0,0,1-2.83-.5,7.71,7.71,0,0,1-2.44-1.36l1.16-2.33a7.37,7.37,0,0,0,2.05,1.26,5.69,5.69,0,0,0,2.09.49,1.94,1.94,0,0,0,1.05-.25.79.79,0,0,0,.39-.72.86.86,0,0,0-.29-.65,2.09,2.09,0,0,0-.72-.41,12.61,12.61,0,0,0-1.21-.37,16,16,0,0,1-1.94-.66,3.38,3.38,0,0,1-1.31-1,2.74,2.74,0,0,1-.55-1.8,3.17,3.17,0,0,1,.56-1.86A3.65,3.65,0,0,1,391,72a6.17,6.17,0,0,1,2.41-.43,8.47,8.47,0,0,1,2.44.35,7.91,7.91,0,0,1,2.12.93l-1.12,2.38a10.75,10.75,0,0,0-1.95-.88,6,6,0,0,0-1.74-.34,1.55,1.55,0,0,0-.87.21.66.66,0,0,0-.32.59.81.81,0,0,0,.28.63,2.16,2.16,0,0,0,.68.41c.28.1.68.23,1.21.39a15.36,15.36,0,0,1,2,.69A3.45,3.45,0,0,1,397.39,78a2.91,2.91,0,0,1,.56,1.85A3.13,3.13,0,0,1,397.34,81.81Zm9,1.44-1.67-3.16h-2.21v3.16h-3V71.82h5.14a5.24,5.24,0,0,1,3.51,1.06,3.65,3.65,0,0,1,1.25,3,4.62,4.62,0,0,1-.52,2.23,3.69,3.69,0,0,1-1.52,1.46l2.38,3.73Zm14.44-1.49a3.42,3.42,0,0,1-1.53,1.11,6.62,6.62,0,0,1-2.33.38h-5.64V71.82h5.42a6.65,6.65,0,0,1,2.25.35,3.33,3.33,0,0,1,1.47,1,2.34,2.34,0,0,1,.52,1.53,2.38,2.38,0,0,1-.53,1.56,2.66,2.66,0,0,1-1.44.92,2.8,2.8,0,0,1,1.72,1,2.91,2.91,0,0,1,.63,1.89A2.75,2.75,0,0,1,420.77,81.76Zm10.58,0A3.6,3.6,0,0,1,429.7,83a6.53,6.53,0,0,1-2.34.41,8.24,8.24,0,0,1-2.83-.5,7.6,7.6,0,0,1-2.44-1.36l1.16-2.33a7.18,7.18,0,0,0,2,1.26,5.73,5.73,0,0,0,2.1.49,2,2,0,0,0,1.05-.25.78.78,0,0,0,.38-.72.85.85,0,0,0-.28-.65,2.09,2.09,0,0,0-.72-.41c-.29-.11-.69-.23-1.21-.37a15.39,15.39,0,0,1-1.94-.66,3.41,3.41,0,0,1-1.32-1,2.8,2.8,0,0,1-.54-1.8,3.17,3.17,0,0,1,.56-1.86A3.65,3.65,0,0,1,425,72a6.16,6.16,0,0,1,2.4-.43,8.54,8.54,0,0,1,2.45.35,8,8,0,0,1,2.12.93l-1.13,2.38a10.75,10.75,0,0,0-1.95-.88,6,6,0,0,0-1.73-.34,1.61,1.61,0,0,0-.88.21.65.65,0,0,0-.31.59.83.83,0,0,0,.27.63,2.34,2.34,0,0,0,.69.41c.27.1.67.23,1.21.39a15.93,15.93,0,0,1,2,.69A3.45,3.45,0,0,1,431.4,78a2.91,2.91,0,0,1,.55,1.85A3.18,3.18,0,0,1,431.35,81.81Zm10.92-7.52h-3.42v9h-3v-9h-3.4V71.82h9.8Zm4.19,9h-3V71.82h3Zm12.8,0h-2.61l-5.18-6.83v6.83h-2.79V71.82h2.62l5.2,6.88V71.82h2.77Zm10.63,0-.78-2h-4.94l-.8,2H460.3l4.91-11.43h3.06l4.8,11.43Z"/><path class="cls-1" d="M192.52,80.43a3.44,3.44,0,0,1-1.46.36,3,3,0,0,1-1.58-.43,3.1,3.1,0,0,1-1.11-1.19,3.69,3.69,0,0,1,0-3.38,3.1,3.1,0,0,1,1.11-1.19,3.07,3.07,0,0,1,1.58-.43,3.11,3.11,0,0,1,1.51.42,4.25,4.25,0,0,1,1.32,1.11l1.73-2.08a6.48,6.48,0,0,0-7.73-1.21,5.68,5.68,0,0,0-3,5.1,6,6,0,0,0,.79,3,5.71,5.71,0,0,0,2.15,2.13,6.14,6.14,0,0,0,5.6.2,6.94,6.94,0,0,0,2.21-1.55l-1.75-1.88A4.41,4.41,0,0,1,192.52,80.43Z"/><polygon class="cls-1" points="192.21 70.91 193.99 68.42 191.9 68.42 190.93 69.51 189.97 68.42 187.88 68.42 189.65 70.91 192.21 70.91"/><polygon class="cls-1" points="199.89 78.72 205.34 78.7 205.34 76.34 199.89 76.34 199.89 74.2 205.93 74.2 205.93 71.82 196.91 71.82 196.91 83.25 206.09 83.25 206.09 80.87 199.89 80.87 199.89 78.72"/><polygon class="cls-1" points="213.46 70.91 215.23 68.42 213.15 68.42 212.17 69.51 211.21 68.42 209.12 68.42 210.9 70.91 213.46 70.91"/><path class="cls-1" d="M215.05,77a16.15,16.15,0,0,0-2-.69q-.79-.24-1.2-.39a2.22,2.22,0,0,1-.69-.41.81.81,0,0,1-.28-.63.66.66,0,0,1,.32-.59,1.55,1.55,0,0,1,.87-.21,6,6,0,0,1,1.74.34,10.75,10.75,0,0,1,1.95.88l1.12-2.38a7.91,7.91,0,0,0-2.12-.93,8.47,8.47,0,0,0-2.44-.35,6.17,6.17,0,0,0-2.41.43,3.56,3.56,0,0,0-1.59,1.23,3.11,3.11,0,0,0-.57,1.86,2.74,2.74,0,0,0,.55,1.8,3.38,3.38,0,0,0,1.31,1,16,16,0,0,0,1.94.66c.52.14.93.26,1.22.37a2.14,2.14,0,0,1,.71.41.86.86,0,0,1,.29.65.8.8,0,0,1-.38.72,2,2,0,0,1-1.06.25,5.69,5.69,0,0,1-2.09-.49,7.37,7.37,0,0,1-2.05-1.26l-1.15,2.33a7.55,7.55,0,0,0,2.43,1.36,8.28,8.28,0,0,0,2.83.5,6.46,6.46,0,0,0,2.34-.41,3.69,3.69,0,0,0,1.66-1.21,3.18,3.18,0,0,0,.6-2,2.91,2.91,0,0,0-.56-1.85A3.5,3.5,0,0,0,215.05,77Z"/><polygon class="cls-1" points="217.45 74.29 220.84 74.29 220.84 83.25 223.82 83.25 223.82 74.29 227.25 74.29 227.25 71.82 217.45 71.82 217.45 74.29"/><rect class="cls-1" x="228.45" y="71.82" width="2.98" height="11.43"/><polygon class="cls-1" points="241.48 78.7 236.28 71.82 233.65 71.82 233.65 83.25 236.44 83.25 236.44 76.42 241.63 83.25 244.23 83.25 244.23 71.82 241.46 71.82 241.48 78.7"/><path class="cls-1" d="M250.18,71.82l-4.9,11.43h3.06l.8-2h4.94l.78,2H258l-4.79-11.43ZM250,79l1.6-4.08L253.2,79Z"/><polygon class="cls-1" points="260.96 85.05 263.41 85.05 268.69 70.05 266.24 70.05 260.96 85.05"/><path class="cls-1" d="M275.81,71.82,270.9,83.25H274l.8-2h4.94l.78,2h3.18l-4.79-11.43ZM275.66,79l1.6-4.08L278.83,79Z"/><polygon class="cls-1" points="292.52 78.7 287.32 71.82 284.69 71.82 284.69 83.25 287.48 83.25 287.48 76.42 292.67 83.25 295.27 83.25 295.27 71.82 292.5 71.82 292.52 78.7"/><path class="cls-1" d="M301.42,74.61a3.18,3.18,0,0,1,1.65-.44,4.21,4.21,0,0,1,1.59.34,4.72,4.72,0,0,1,1.42.93l1.7-2.08a6.48,6.48,0,0,0-2.15-1.25,7.41,7.41,0,0,0-2.55-.47,6.74,6.74,0,0,0-3.21.77,5.71,5.71,0,0,0-2.27,2.11,5.65,5.65,0,0,0-.82,3,5.79,5.79,0,0,0,3,5.16,6.28,6.28,0,0,0,3.12.77,8.38,8.38,0,0,0,2.52-.41A7.66,7.66,0,0,0,307.65,82V77.42h-2.58v3a4.47,4.47,0,0,1-2,.55,3.24,3.24,0,0,1-1.66-.44,3.19,3.19,0,0,1-1.18-1.21,3.61,3.61,0,0,1-.42-1.74,3.49,3.49,0,0,1,.42-1.71A3.29,3.29,0,0,1,301.42,74.61Z"/><polygon class="cls-1" points="312.61 71.82 309.62 71.82 309.62 83.25 317.45 83.25 317.45 80.71 312.61 80.71 312.61 71.82"/><rect class="cls-1" x="318.8" y="71.82" width="2.98" height="11.43"/><polygon class="cls-1" points="330.59 70.91 332.36 68.42 330.28 68.42 329.3 69.51 328.34 68.42 326.25 68.42 328.03 70.91 330.59 70.91"/><path class="cls-1" d="M330.9,80.43a3.48,3.48,0,0,1-1.47.36,2.92,2.92,0,0,1-1.57-.43,3.05,3.05,0,0,1-1.12-1.19,3.69,3.69,0,0,1,0-3.38,3.05,3.05,0,0,1,1.12-1.19,3,3,0,0,1,1.57-.43,3.18,3.18,0,0,1,1.52.42,4.25,4.25,0,0,1,1.32,1.11L334,73.62a6.21,6.21,0,0,0-2.1-1.45,6.48,6.48,0,0,0-5.63.24,5.69,5.69,0,0,0-3,5.1,6,6,0,0,0,.78,3,5.71,5.71,0,0,0,2.15,2.13,6.14,6.14,0,0,0,5.6.2A6.94,6.94,0,0,0,334,81.33l-1.74-1.88A4.66,4.66,0,0,1,330.9,80.43Z"/><polygon class="cls-1" points="334.29 74.29 337.68 74.29 337.68 83.25 340.66 83.25 340.66 74.29 344.08 74.29 344.08 71.82 334.29 71.82 334.29 74.29"/><rect class="cls-1" x="345.29" y="71.82" width="2.98" height="11.43"/><polygon class="cls-1" points="358.32 78.7 353.12 71.82 350.49 71.82 350.49 83.25 353.28 83.25 353.28 76.42 358.46 83.25 361.07 83.25 361.07 71.82 358.3 71.82 358.32 78.7"/><path class="cls-1" d="M367,71.82l-4.9,11.43h3.06l.8-2h4.94l.78,2h3.18l-4.79-11.43ZM366.88,79l1.59-4.08L370,79Z"/><polygon class="cls-1" points="377.8 85.05 380.24 85.05 385.52 70.05 383.08 70.05 377.8 85.05"/><path class="cls-1" d="M396.06,77a15.36,15.36,0,0,0-2-.69c-.53-.16-.93-.29-1.21-.39a2.16,2.16,0,0,1-.68-.41.81.81,0,0,1-.28-.63.66.66,0,0,1,.32-.59,1.55,1.55,0,0,1,.87-.21,6,6,0,0,1,1.74.34,10.75,10.75,0,0,1,1.95.88l1.12-2.38a7.91,7.91,0,0,0-2.12-.93,8.47,8.47,0,0,0-2.44-.35A6.17,6.17,0,0,0,391,72a3.65,3.65,0,0,0-1.6,1.23,3.17,3.17,0,0,0-.56,1.86,2.74,2.74,0,0,0,.55,1.8,3.38,3.38,0,0,0,1.31,1,16,16,0,0,0,1.94.66,12.61,12.61,0,0,1,1.21.37,2.09,2.09,0,0,1,.72.41.86.86,0,0,1,.29.65.79.79,0,0,1-.39.72,1.94,1.94,0,0,1-1.05.25,5.69,5.69,0,0,1-2.09-.49,7.37,7.37,0,0,1-2.05-1.26l-1.16,2.33a7.71,7.71,0,0,0,2.44,1.36,8.24,8.24,0,0,0,2.83.5,6.46,6.46,0,0,0,2.34-.41,3.6,3.6,0,0,0,1.65-1.21,3.13,3.13,0,0,0,.61-2,2.91,2.91,0,0,0-.56-1.85A3.45,3.45,0,0,0,396.06,77Z"/><path class="cls-1" d="M408.84,78.06a4.62,4.62,0,0,0,.52-2.23,3.65,3.65,0,0,0-1.25-3,5.24,5.24,0,0,0-3.51-1.06h-5.14V83.25h3V80.09h2.21l1.67,3.16h3.37l-2.38-3.73A3.69,3.69,0,0,0,408.84,78.06ZM406,77.25a2,2,0,0,1-1.41.46h-2.16V74.2h2.16a2,2,0,0,1,1.41.45,1.62,1.62,0,0,1,.5,1.28A1.66,1.66,0,0,1,406,77.25Z"/><path class="cls-1" d="M419,77.19a2.66,2.66,0,0,0,1.44-.92,2.38,2.38,0,0,0,.53-1.56,2.34,2.34,0,0,0-.52-1.53,3.33,3.33,0,0,0-1.47-1,6.65,6.65,0,0,0-2.25-.35h-5.42V83.25h5.64a6.62,6.62,0,0,0,2.33-.38,3.42,3.42,0,0,0,1.53-1.11,2.75,2.75,0,0,0,.54-1.69,2.91,2.91,0,0,0-.63-1.89A2.8,2.8,0,0,0,419,77.19Zm-4.71-3h2.28a1.43,1.43,0,0,1,1,.26,1,1,0,0,1,.36.81,1,1,0,0,1-.36.84,1.49,1.49,0,0,1-1,.3h-2.28Zm3.52,6.45a2.07,2.07,0,0,1-1.24.33h-2.28v-2.4h2.28a2.08,2.08,0,0,1,1.24.3,1,1,0,0,1,.46.86A1.07,1.07,0,0,1,417.77,80.61Z"/><polygon class="cls-1" points="428.48 70.91 430.26 68.42 428.17 68.42 427.19 69.51 426.23 68.42 424.14 68.42 425.92 70.91 428.48 70.91"/><path class="cls-1" d="M430.07,77a15.93,15.93,0,0,0-2-.69c-.54-.16-.94-.29-1.21-.39a2.34,2.34,0,0,1-.69-.41.83.83,0,0,1-.27-.63.65.65,0,0,1,.31-.59,1.61,1.61,0,0,1,.88-.21,6,6,0,0,1,1.73.34,10.75,10.75,0,0,1,1.95.88l1.13-2.38a8,8,0,0,0-2.12-.93,8.54,8.54,0,0,0-2.45-.35A6.16,6.16,0,0,0,425,72a3.65,3.65,0,0,0-1.6,1.23,3.17,3.17,0,0,0-.56,1.86,2.8,2.8,0,0,0,.54,1.8,3.41,3.41,0,0,0,1.32,1,15.39,15.39,0,0,0,1.94.66c.52.14.92.26,1.21.37a2.09,2.09,0,0,1,.72.41.85.85,0,0,1,.28.65.78.78,0,0,1-.38.72,2,2,0,0,1-1.05.25,5.73,5.73,0,0,1-2.1-.49,7.18,7.18,0,0,1-2-1.26l-1.16,2.33a7.6,7.6,0,0,0,2.44,1.36,8.24,8.24,0,0,0,2.83.5A6.53,6.53,0,0,0,429.7,83a3.6,3.6,0,0,0,1.65-1.21,3.18,3.18,0,0,0,.6-2A2.91,2.91,0,0,0,431.4,78,3.45,3.45,0,0,0,430.07,77Z"/><polygon class="cls-1" points="432.48 74.29 435.87 74.29 435.87 83.25 438.85 83.25 438.85 74.29 442.27 74.29 442.27 71.82 432.48 71.82 432.48 74.29"/><rect class="cls-1" x="443.48" y="71.82" width="2.98" height="11.43"/><polygon class="cls-1" points="456.5 78.7 451.3 71.82 448.68 71.82 448.68 83.25 451.47 83.25 451.47 76.42 456.65 83.25 459.26 83.25 459.26 71.82 456.49 71.82 456.5 78.7"/><path class="cls-1" d="M465.21,71.82,460.3,83.25h3.07l.8-2h4.94l.78,2h3.18l-4.8-11.43ZM465.06,79l1.6-4.08L468.23,79Z"/><path class="cls-2" d="M137.83,74.41a63.42,63.42,0,1,0-63.42,63.42A63.49,63.49,0,0,0,137.83,74.41ZM74.43,41.83A30.21,30.21,0,0,1,86.11,44a18.82,18.82,0,0,1,8.09,6,14.52,14.52,0,0,1,2.93,8.93,19.73,19.73,0,0,1-3.3,10.37,64.34,64.34,0,0,1-9.35,11.4L71.18,94.1H99v13.68H49.32l-.09-11.26L73,72.15a32.89,32.89,0,0,0,4.55-5.77,9.9,9.9,0,0,0,1.77-4.93,4.86,4.86,0,0,0-2-4.14,9.1,9.1,0,0,0-5.49-1.44,21.21,21.21,0,0,0-8.7,2.19,38.26,38.26,0,0,0-9.25,6.09L47.37,51.59Q60.86,41.83,74.43,41.83Z"/><path class="cls-1" d="M136.45,33.38a74.2,74.2,0,1,0,12.38,41A74.39,74.39,0,0,0,136.45,33.38ZM11,74.41a63.42,63.42,0,1,1,63.41,63.42A63.49,63.49,0,0,1,11,74.41Z"/><path class="cls-1" d="M53.88,64.15a38.26,38.26,0,0,1,9.25-6.09,21.21,21.21,0,0,1,8.7-2.19,9.1,9.1,0,0,1,5.49,1.44,4.86,4.86,0,0,1,2,4.14,9.9,9.9,0,0,1-1.77,4.93A32.89,32.89,0,0,1,73,72.15L49.23,96.52l.09,11.26H99V94.1H71.18l13.3-13.39a64.34,64.34,0,0,0,9.35-11.4,19.73,19.73,0,0,0,3.3-10.37A14.52,14.52,0,0,0,94.2,50a18.82,18.82,0,0,0-8.09-6,30.21,30.21,0,0,0-11.68-2.14q-13.58,0-27.06,9.76Z"/><path class="cls-1" d="M563.88,75.43a15.29,15.29,0,0,0-1.77-.64c-.58-.19-1-.35-1.36-.49a2.36,2.36,0,0,1-.83-.57,1.28,1.28,0,0,1-.34-.92,1.13,1.13,0,0,1,.56-1,2.75,2.75,0,0,1,1.5-.36,5.57,5.57,0,0,1,1.48.23,6.26,6.26,0,0,1,1.56.72l.61-1.32a6.25,6.25,0,0,0-1.65-.76,6.42,6.42,0,0,0-1.89-.29,5.14,5.14,0,0,0-2,.36,2.92,2.92,0,0,0-1.33,1,2.77,2.77,0,0,0,0,3.1,2.93,2.93,0,0,0,1.14.9,12.49,12.49,0,0,0,1.75.63c.58.18,1.05.34,1.39.48a2.38,2.38,0,0,1,.85.58,1.4,1.4,0,0,1-.28,2.08,3,3,0,0,1-1.7.42,4.76,4.76,0,0,1-1.86-.4A5.54,5.54,0,0,1,558,78l-.66,1.27a6.37,6.37,0,0,0,1.93,1.23,6,6,0,0,0,2.31.46,5.33,5.33,0,0,0,2.06-.38,3.23,3.23,0,0,0,1.4-1.06A2.69,2.69,0,0,0,565.5,78a2.53,2.53,0,0,0-.47-1.61A3.06,3.06,0,0,0,563.88,75.43Z"/><polygon class="cls-1" points="569.32 70.17 567.85 70.17 567.85 80.91 574.02 80.91 574.02 79.57 569.32 79.57 569.32 70.17"/><path class="cls-1" d="M583.43,70.8a6,6,0,0,0-5.7,0,5.36,5.36,0,0,0-2,2,5.24,5.24,0,0,0-.75,2.75,5.33,5.33,0,0,0,.75,2.77,5.54,5.54,0,0,0,2,2,6,6,0,0,0,5.69,0,5.47,5.47,0,0,0,2.05-2,5.33,5.33,0,0,0,.75-2.77,5.24,5.24,0,0,0-.75-2.75A5.32,5.32,0,0,0,583.43,70.8Zm.74,6.81a4.26,4.26,0,0,1-1.5,1.51,4,4,0,0,1-2.07.56,4.11,4.11,0,0,1-2.08-.56A4.23,4.23,0,0,1,577,77.61a4,4,0,0,1-.57-2.09,3.94,3.94,0,0,1,.57-2.08,4.22,4.22,0,0,1,3.6-2,4,4,0,0,1,2.07.56,4.12,4.12,0,0,1,1.5,1.49,4,4,0,0,1,.56,2.08A4.09,4.09,0,0,1,584.17,77.61Z"/><polygon class="cls-1" points="591.88 79.27 588.34 70.17 586.76 70.17 591.08 80.91 592.62 80.91 596.98 70.17 595.42 70.17 591.88 79.27"/><rect class="cls-1" x="598.58" y="70.17" width="1.47" height="10.74"/><polygon class="cls-1" points="610.77 78.5 604.61 70.17 603.13 70.17 603.13 80.91 604.6 80.91 604.6 72.59 610.74 80.91 612.23 80.91 612.23 70.17 610.77 70.17 610.77 78.5"/><path class="cls-1" d="M620.79,75.43a15.29,15.29,0,0,0-1.77-.64c-.58-.19-1-.35-1.36-.49a2.36,2.36,0,0,1-.83-.57,1.28,1.28,0,0,1-.34-.92,1.13,1.13,0,0,1,.56-1,2.73,2.73,0,0,1,1.5-.36,5.57,5.57,0,0,1,1.48.23,6.2,6.2,0,0,1,1.55.72l.62-1.32a6.25,6.25,0,0,0-1.65-.76,6.44,6.44,0,0,0-1.9-.29,5.12,5.12,0,0,0-2,.36,3,3,0,0,0-1.34,1,2.58,2.58,0,0,0-.47,1.52,2.46,2.46,0,0,0,.47,1.58,2.93,2.93,0,0,0,1.14.9,12.49,12.49,0,0,0,1.75.63c.58.18,1,.34,1.39.48a2.47,2.47,0,0,1,.85.58,1.37,1.37,0,0,1,.34.94,1.32,1.32,0,0,1-.62,1.14,3,3,0,0,1-1.7.42,4.73,4.73,0,0,1-1.86-.4A5.54,5.54,0,0,1,614.88,78l-.66,1.27a6.37,6.37,0,0,0,1.93,1.23,6,6,0,0,0,2.3.46,5.34,5.34,0,0,0,2.07-.38,3.14,3.14,0,0,0,1.39-1.06,2.63,2.63,0,0,0,.5-1.61,2.59,2.59,0,0,0-.47-1.61A3.06,3.06,0,0,0,620.79,75.43Z"/><polygon class="cls-1" points="618.96 69.15 620.57 67.11 619.14 67.11 618.21 68.14 617.27 67.11 615.85 67.11 617.46 69.15 618.96 69.15"/><polygon class="cls-1" points="623.38 71.52 626.83 71.52 626.83 80.91 628.3 80.91 628.3 71.52 631.77 71.52 631.77 70.17 623.38 70.17 623.38 71.52"/><rect class="cls-1" x="633.46" y="70.17" width="1.47" height="10.74"/><polygon class="cls-1" points="645.64 78.5 639.49 70.17 638 70.17 638 80.91 639.47 80.91 639.47 72.59 645.61 80.91 647.1 80.91 647.1 70.17 645.64 70.17 645.64 78.5"/><path class="cls-1" d="M653.47,70.17,648.7,80.91h1.55l1.12-2.61H657l1.13,2.61h1.6L655,70.17ZM652,77l2.24-5.21L656.46,77Z"/></g></g></svg>