<svg xmlns="http://www.w3.org/2000/svg" viewBox="0 0 689.58 148.83"><defs><style>.cls-1{fill:#fff;}.cls-2{fill:#4b88a2;}.cls-3{fill:#3e7085;}</style></defs><title>3-cz</title><g id="Layer_2" data-name="Layer 2"><g id="Layer_1-2" data-name="Layer 1"><polygon class="cls-1" points="417.65 33.38 402.79 33.38 434.43 74.41 402.79 115.45 417.65 115.45 449.3 74.41 417.65 33.38"/><path class="cls-2" d="M511.66,72a4,4,0,0,0-2.06-.55,4.07,4.07,0,0,0-2.08.55,4.23,4.23,0,0,0-1.53,1.5,4.08,4.08,0,0,0,0,4.16,4.18,4.18,0,0,0,1.53,1.51,4,4,0,0,0,2.08.56,3.91,3.91,0,0,0,2.06-.56,4.2,4.2,0,0,0,1.51-1.51,4.14,4.14,0,0,0,0-4.16A4.25,4.25,0,0,0,511.66,72Z"/><path class="cls-2" d="M417.65,33.38l31.65,41-31.65,41H689.58V33.38ZM546.27,67.12l.94,1,.93-1h1.43l-1.61,2h-1.51l-1.61-2ZM494,79.56a3.21,3.21,0,0,1-1.39,1.07,5.35,5.35,0,0,1-2.07.37,5.94,5.94,0,0,1-2.3-.46,6,6,0,0,1-1.93-1.22L487,78a5.5,5.5,0,0,0,1.72,1.16,4.79,4.79,0,0,0,1.87.41,2.9,2.9,0,0,0,1.69-.43,1.3,1.3,0,0,0,.62-1.14,1.32,1.32,0,0,0-.33-.93,2.49,2.49,0,0,0-.85-.59c-.35-.14-.81-.3-1.39-.47a15.71,15.71,0,0,1-1.75-.63,3.16,3.16,0,0,1-1.15-.91,2.81,2.81,0,0,1,0-3.1,3,3,0,0,1,1.34-1,5.28,5.28,0,0,1,2-.35,6.43,6.43,0,0,1,1.9.28,6.57,6.57,0,0,1,1.65.76l-.62,1.32a6.07,6.07,0,0,0-1.56-.71,5.18,5.18,0,0,0-1.48-.24,2.72,2.72,0,0,0-1.49.36,1.11,1.11,0,0,0-.56,1,1.29,1.29,0,0,0,.34.93,2.41,2.41,0,0,0,.82.57c.33.13.79.3,1.37.48a15,15,0,0,1,1.76.64,3.12,3.12,0,0,1,1.16.92,2.56,2.56,0,0,1,.47,1.6A2.7,2.7,0,0,1,494,79.56Zm9,1.35h-6.17V70.17h1.47v9.41H503Zm11.46-2.62a5.47,5.47,0,0,1-2.05,2,5.91,5.91,0,0,1-5.69,0,5.39,5.39,0,0,1-2.05-2,5.45,5.45,0,0,1,0-5.52,5.44,5.44,0,0,1,2-2,6,6,0,0,1,5.7,0,5.46,5.46,0,0,1,2.05,2,5.45,5.45,0,0,1,0,5.52Zm7.13,2.62h-1.53l-4.33-10.74h1.58l3.55,9.1,3.54-9.1H526Zm7.44,0h-1.47V70.17h1.47Zm12.17,0h-1.49l-6.14-8.32v8.32h-1.47V70.17h1.49l6.15,8.33V70.17h1.46Zm9.69-1.35a3.19,3.19,0,0,1-1.4,1.07,5.26,5.26,0,0,1-2.06.37,5.94,5.94,0,0,1-2.3-.46,6,6,0,0,1-1.93-1.22l.66-1.28a5.5,5.5,0,0,0,1.72,1.16,4.79,4.79,0,0,0,1.87.41,2.9,2.9,0,0,0,1.69-.43,1.3,1.3,0,0,0,.62-1.14,1.32,1.32,0,0,0-.33-.93,2.44,2.44,0,0,0-.86-.59,14.26,14.26,0,0,0-1.38-.47,15.71,15.71,0,0,1-1.75-.63,3,3,0,0,1-1.15-.91,2.5,2.5,0,0,1-.47-1.58,2.52,2.52,0,0,1,.48-1.52,3,3,0,0,1,1.34-1,5.28,5.28,0,0,1,2-.35,6.36,6.36,0,0,1,1.89.28,6.25,6.25,0,0,1,1.65.76l-.61,1.32A6.07,6.07,0,0,0,549,71.7a5.18,5.18,0,0,0-1.48-.24,2.72,2.72,0,0,0-1.49.36,1.11,1.11,0,0,0-.56,1,1.32,1.32,0,0,0,.33.93,2.56,2.56,0,0,0,.83.57c.33.13.78.3,1.37.48a15.75,15.75,0,0,1,1.76.64,3,3,0,0,1,1.15.92,2.5,2.5,0,0,1,.48,1.6A2.7,2.7,0,0,1,550.91,79.56Zm9.86-8H557.3v9.39h-1.47V71.52h-3.45V70.17h8.39Zm3.16,9.39h-1.47V70.17h1.47Zm12.17,0h-1.49l-6.14-8.32v8.32H567V70.17h1.49l6.15,8.33V70.17h1.46Zm11.06,0L586,78.3h-5.66l-1.12,2.61h-1.55l4.77-10.74H584l4.75,10.74Z"/><polygon class="cls-2" points="580.94 76.97 585.46 76.97 583.18 71.75 580.94 76.97"/><path class="cls-3" d="M402.79,33.38H136.45a74.2,74.2,0,0,1,0,82.07H402.79l31.64-41ZM344.86,67l.9,1,.92-1h2L347,69.3h-2.41L342.89,67ZM220.07,67l.9,1,.93-1h2l-1.67,2.35h-2.41L218.11,67Zm-26.59,9.93a4.53,4.53,0,0,1-3.19,1.05h-1.92v3h-2.81V70.16h4.73a4.7,4.7,0,0,1,3.19,1,3.46,3.46,0,0,1,1.14,2.78A3.81,3.81,0,0,1,193.48,76.88Zm12.7,1.48a5.53,5.53,0,0,1-2.09,2,5.9,5.9,0,0,1-3,.74,6.05,6.05,0,0,1-3-.73,5.29,5.29,0,0,1-2.08-2,5.46,5.46,0,0,1-.76-2.86,5.36,5.36,0,0,1,2.84-4.8,6.49,6.49,0,0,1,5.94,0,5.55,5.55,0,0,1,2.09,7.65Zm9.52,2.55h-7.37V70.16h2.81v8.36h4.56Zm9.19-1.36a3.47,3.47,0,0,1-1.56,1.15,6.15,6.15,0,0,1-2.2.38,8,8,0,0,1-2.66-.47,7.32,7.32,0,0,1-2.3-1.28l1.09-2.19a6.88,6.88,0,0,0,1.93,1.18,5.39,5.39,0,0,0,2,.46,1.86,1.86,0,0,0,1-.23.76.76,0,0,0,.36-.68.79.79,0,0,0-.27-.61,2.08,2.08,0,0,0-.67-.39c-.28-.1-.66-.21-1.15-.35a13.58,13.58,0,0,1-1.82-.62,3.18,3.18,0,0,1-1.24-1,2.63,2.63,0,0,1-.51-1.7,2.89,2.89,0,0,1,.53-1.74,3.28,3.28,0,0,1,1.5-1.16,5.84,5.84,0,0,1,2.26-.41,8.27,8.27,0,0,1,2.31.33,7.55,7.55,0,0,1,2,.88l-1.06,2.24a10.13,10.13,0,0,0-1.83-.83,5.57,5.57,0,0,0-1.64-.32,1.6,1.6,0,0,0-.82.19.63.63,0,0,0-.3.56.76.76,0,0,0,.26.59,2.08,2.08,0,0,0,.65.39c.25.1.63.22,1.13.37a14.2,14.2,0,0,1,1.85.65,3.07,3.07,0,0,1,1.25,1,2.71,2.71,0,0,1,.53,1.74A2.94,2.94,0,0,1,224.89,79.55Zm10.28-7.08H232v8.44h-2.81V72.47H226V70.16h9.22Zm3.94,8.44H236.3V70.16h2.81Zm12,0H248.7l-4.88-6.43v6.43H241.2V70.16h2.47l4.89,6.47V70.16h2.61Zm10,0-.74-1.9h-4.65l-.75,1.9h-2.88l4.62-10.75h2.88l4.51,10.75Zm8,1.69h-2.3l5-14.12h2.3Zm16.09-3a3.39,3.39,0,0,1-1.55,1.15,6.21,6.21,0,0,1-2.21.38,8,8,0,0,1-2.66-.47,7.27,7.27,0,0,1-2.29-1.28l1.09-2.19a6.83,6.83,0,0,0,1.92,1.18,5.39,5.39,0,0,0,2,.46,1.84,1.84,0,0,0,1-.23.77.77,0,0,0,.37-.68.79.79,0,0,0-.27-.61,2.13,2.13,0,0,0-.68-.39c-.27-.1-.65-.21-1.14-.35A13.29,13.29,0,0,1,279,75.9a3.15,3.15,0,0,1-1.23-1,2.58,2.58,0,0,1-.52-1.7,3,3,0,0,1,.53-1.74,3.36,3.36,0,0,1,1.51-1.16,5.84,5.84,0,0,1,2.26-.41,8.2,8.2,0,0,1,2.3.33,7.62,7.62,0,0,1,2,.88l-1.06,2.24a10.55,10.55,0,0,0-1.84-.83,5.52,5.52,0,0,0-1.63-.32,1.58,1.58,0,0,0-.82.19.63.63,0,0,0-.3.56.76.76,0,0,0,.26.59,2,2,0,0,0,.64.39c.26.1.64.22,1.14.37a14.76,14.76,0,0,1,1.85.65,3.13,3.13,0,0,1,1.25,1,2.71,2.71,0,0,1,.52,1.74A2.94,2.94,0,0,1,285.29,79.55Zm9.36,1.36h-7.36V70.16h2.81v8.36h4.55Zm11.46-2.55a5.53,5.53,0,0,1-2.09,2,5.93,5.93,0,0,1-3,.74,6.05,6.05,0,0,1-3-.73,5.29,5.29,0,0,1-2.08-2,5.46,5.46,0,0,1-.76-2.86,5.36,5.36,0,0,1,2.84-4.8,6.49,6.49,0,0,1,5.94,0,5.55,5.55,0,0,1,2.09,7.65Zm8,2.55h-2.91L307,70.16h3l2.68,7.77,2.7-7.77h2.89Zm13.86,0h-8.64V70.16h8.49V72.4h-5.68v2h5.12v2.22l-5.12,0v2H328Zm11.67,0H337.2l-4.88-6.43v6.43H329.7V70.16h2.47l4.89,6.47V70.16h2.6Zm10-1.36a3.44,3.44,0,0,1-1.55,1.15,6.21,6.21,0,0,1-2.21.38,8,8,0,0,1-2.66-.47A7.27,7.27,0,0,1,341,79.33l1.09-2.19A6.83,6.83,0,0,0,344,78.32a5.39,5.39,0,0,0,2,.46,1.84,1.84,0,0,0,1-.23.76.76,0,0,0,.36-.68.78.78,0,0,0-.26-.61,2.13,2.13,0,0,0-.68-.39c-.27-.1-.65-.21-1.14-.35a13.29,13.29,0,0,1-1.83-.62,3.15,3.15,0,0,1-1.23-1,2.58,2.58,0,0,1-.52-1.7,3,3,0,0,1,.53-1.74,3.36,3.36,0,0,1,1.51-1.16,5.84,5.84,0,0,1,2.26-.41,8.2,8.2,0,0,1,2.3.33,7.62,7.62,0,0,1,2,.88l-1.06,2.24a10.55,10.55,0,0,0-1.84-.83,5.52,5.52,0,0,0-1.63-.32,1.58,1.58,0,0,0-.82.19.63.63,0,0,0-.3.56.76.76,0,0,0,.26.59,2,2,0,0,0,.64.39c.26.1.64.22,1.14.37a14.76,14.76,0,0,1,1.85.65,3.13,3.13,0,0,1,1.25,1,2.71,2.71,0,0,1,.52,1.74A2.94,2.94,0,0,1,349.67,79.55ZM360,72.47h-3.22v8.44h-2.81V72.47h-3.19V70.16H360Zm3.95,8.44h-2.81V70.16h2.81Zm12,0h-2.45l-4.88-6.43v6.43H366V70.16h2.47l4.9,6.47,0-6.47h2.61Zm10,0-.74-1.9h-4.65l-.75,1.9h-2.89l4.62-10.75h2.89l4.51,10.75Z"/><polygon class="cls-3" points="381.4 76.86 384.38 76.86 382.91 73.02 381.4 76.86"/><path class="cls-3" d="M202.62,72.78a2.72,2.72,0,0,0-1.47-.41,2.78,2.78,0,0,0-1.48.41,3.11,3.11,0,0,0-1.08,1.14,3.4,3.4,0,0,0,0,3.22,3.07,3.07,0,0,0,1.08,1.15,2.73,2.73,0,0,0,2.94,0,3,3,0,0,0,1-1.15,3.6,3.6,0,0,0,0-3.22A3,3,0,0,0,202.62,72.78Z"/><path class="cls-3" d="M190.15,72.4h-1.78v3.29h1.78a1.88,1.88,0,0,0,1.33-.43A1.6,1.6,0,0,0,192,74a1.54,1.54,0,0,0-.47-1.2A1.93,1.93,0,0,0,190.15,72.4Z"/><polygon class="cls-3" points="256.62 76.86 259.59 76.86 258.12 73.02 256.62 76.86"/><path class="cls-3" d="M302.55,72.78a2.72,2.72,0,0,0-1.47-.41,2.78,2.78,0,0,0-1.48.41,3.11,3.11,0,0,0-1.08,1.14,3.4,3.4,0,0,0,0,3.22,3.07,3.07,0,0,0,1.08,1.15,2.73,2.73,0,0,0,2.94,0,3,3,0,0,0,1.05-1.15,3.6,3.6,0,0,0,0-3.22A3,3,0,0,0,302.55,72.78Z"/><path class="cls-2" d="M137.83,74.41a63.42,63.42,0,1,0-63.42,63.42A63.49,63.49,0,0,0,137.83,74.41Zm-84.31,16a30.18,30.18,0,0,0,8.74,5.21,26,26,0,0,0,9.3,1.77q5.4,0,8.28-2.1a7,7,0,0,0,2.89-6,6.86,6.86,0,0,0-2.89-5.95c-1.92-1.36-4.71-2.05-8.37-2.05h-11V72L75.56,57.51H50.63v-13H96.21v9.86L78.45,70.63l3.44.65a22,22,0,0,1,12.7,5.81,16.16,16.16,0,0,1,4.79,12,19.39,19.39,0,0,1-3.26,11.07,21.47,21.47,0,0,1-9.21,7.53,33.51,33.51,0,0,1-14,2.7,46.47,46.47,0,0,1-14.09-2.19,37.65,37.65,0,0,1-11.68-5.81Z"/><path class="cls-1" d="M136.45,33.38a74.2,74.2,0,1,0,12.38,41A74.39,74.39,0,0,0,136.45,33.38ZM11,74.41a63.42,63.42,0,1,1,63.41,63.42A63.49,63.49,0,0,1,11,74.41Z"/><path class="cls-1" d="M58.87,108.25A46.47,46.47,0,0,0,73,110.44a33.51,33.51,0,0,0,14-2.7,21.47,21.47,0,0,0,9.21-7.53,19.39,19.39,0,0,0,3.26-11.07,16.16,16.16,0,0,0-4.79-12,22,22,0,0,0-12.7-5.81l-3.44-.65L96.21,54.35V44.49H50.63v13H75.56L60.49,72v9.3h11c3.66,0,6.45.69,8.37,2.05a6.86,6.86,0,0,1,2.89,5.95,7,7,0,0,1-2.89,6q-2.88,2.1-8.28,2.1a26,26,0,0,1-9.3-1.77,30.18,30.18,0,0,1-8.74-5.21l-6.33,12A37.65,37.65,0,0,0,58.87,108.25Z"/><path class="cls-1" d="M190.29,70.16h-4.73V80.91h2.81v-3h1.92a4.53,4.53,0,0,0,3.19-1.05,3.81,3.81,0,0,0,1.14-2.95,3.46,3.46,0,0,0-1.14-2.78A4.7,4.7,0,0,0,190.29,70.16Zm1.19,5.1a1.88,1.88,0,0,1-1.33.43h-1.78V72.4h1.78a1.93,1.93,0,0,1,1.33.42A1.54,1.54,0,0,1,192,74,1.6,1.6,0,0,1,191.48,75.26Z"/><path class="cls-1" d="M204.09,70.71a6.49,6.49,0,0,0-5.94,0,5.36,5.36,0,0,0-2.84,4.8,5.46,5.46,0,0,0,.76,2.86,5.29,5.29,0,0,0,2.08,2,6.05,6.05,0,0,0,3,.73,5.9,5.9,0,0,0,3-.74,5.44,5.44,0,0,0,2.85-4.86,5.35,5.35,0,0,0-2.85-4.8Zm-.42,6.43a3,3,0,0,1-1,1.15,2.73,2.73,0,0,1-2.94,0,3.07,3.07,0,0,1-1.08-1.15,3.4,3.4,0,0,1,0-3.22,3.11,3.11,0,0,1,1.08-1.14,2.78,2.78,0,0,1,1.48-.41,2.72,2.72,0,0,1,1.47.41,3,3,0,0,1,1,1.14,3.6,3.6,0,0,1,0,3.22Z"/><polygon class="cls-1" points="211.14 70.16 208.33 70.16 208.33 80.91 215.7 80.91 215.7 78.52 211.14 78.52 211.14 70.16"/><path class="cls-1" d="M223.68,75a14.2,14.2,0,0,0-1.85-.65c-.5-.15-.88-.27-1.13-.37a2.08,2.08,0,0,1-.65-.39.76.76,0,0,1-.26-.59.63.63,0,0,1,.3-.56,1.6,1.6,0,0,1,.82-.19,5.57,5.57,0,0,1,1.64.32,10.13,10.13,0,0,1,1.83.83l1.06-2.24a7.55,7.55,0,0,0-2-.88,8.27,8.27,0,0,0-2.31-.33,5.84,5.84,0,0,0-2.26.41,3.28,3.28,0,0,0-1.5,1.16,2.89,2.89,0,0,0-.53,1.74,2.63,2.63,0,0,0,.51,1.7,3.18,3.18,0,0,0,1.24,1,13.58,13.58,0,0,0,1.82.62c.49.14.87.25,1.15.35a2.08,2.08,0,0,1,.67.39.79.79,0,0,1,.27.61.76.76,0,0,1-.36.68,1.86,1.86,0,0,1-1,.23,5.39,5.39,0,0,1-2-.46,6.88,6.88,0,0,1-1.93-1.18l-1.09,2.19a7.32,7.32,0,0,0,2.3,1.28,8,8,0,0,0,2.66.47,6.15,6.15,0,0,0,2.2-.38,3.47,3.47,0,0,0,1.56-1.15,2.94,2.94,0,0,0,.57-1.83,2.71,2.71,0,0,0-.53-1.74A3.07,3.07,0,0,0,223.68,75Z"/><polygon class="cls-1" points="222.19 69.3 223.86 66.95 221.9 66.95 220.97 67.98 220.07 66.95 218.1 66.95 219.78 69.3 222.19 69.3"/><polygon class="cls-1" points="225.95 72.47 229.14 72.47 229.14 80.91 231.94 80.91 231.94 72.47 235.17 72.47 235.17 70.16 225.95 70.16 225.95 72.47"/><rect class="cls-1" x="236.3" y="70.16" width="2.81" height="10.76"/><polygon class="cls-1" points="248.56 76.63 243.67 70.16 241.2 70.16 241.2 80.91 243.82 80.91 243.82 74.48 248.7 80.91 251.16 80.91 251.16 70.16 248.55 70.16 248.56 76.63"/><path class="cls-1" d="M256.76,70.16l-4.62,10.75H255l.75-1.9h4.65l.74,1.9h3l-4.51-10.75Zm-.14,6.7,1.5-3.84,1.47,3.84Z"/><polygon class="cls-1" points="266.9 82.6 269.2 82.6 274.17 68.48 271.87 68.48 266.9 82.6"/><path class="cls-1" d="M284.09,75a14.76,14.76,0,0,0-1.85-.65c-.5-.15-.88-.27-1.14-.37a2,2,0,0,1-.64-.39.76.76,0,0,1-.26-.59.63.63,0,0,1,.3-.56,1.58,1.58,0,0,1,.82-.19,5.52,5.52,0,0,1,1.63.32,10.55,10.55,0,0,1,1.84.83l1.06-2.24a7.62,7.62,0,0,0-2-.88,8.2,8.2,0,0,0-2.3-.33,5.84,5.84,0,0,0-2.26.41,3.36,3.36,0,0,0-1.51,1.16,3,3,0,0,0-.53,1.74,2.58,2.58,0,0,0,.52,1.7,3.15,3.15,0,0,0,1.23,1,13.29,13.29,0,0,0,1.83.62c.49.14.87.25,1.14.35a2.13,2.13,0,0,1,.68.39.79.79,0,0,1,.27.61.77.77,0,0,1-.37.68,1.84,1.84,0,0,1-1,.23,5.39,5.39,0,0,1-2-.46,6.83,6.83,0,0,1-1.92-1.18l-1.09,2.19a7.27,7.27,0,0,0,2.29,1.28,8,8,0,0,0,2.66.47,6.21,6.21,0,0,0,2.21-.38,3.39,3.39,0,0,0,1.55-1.15,2.94,2.94,0,0,0,.57-1.83,2.71,2.71,0,0,0-.52-1.74A3.13,3.13,0,0,0,284.09,75Z"/><polygon class="cls-1" points="290.1 70.16 287.29 70.16 287.29 80.91 294.65 80.91 294.65 78.52 290.1 78.52 290.1 70.16"/><path class="cls-1" d="M304,70.71a6.49,6.49,0,0,0-5.94,0,5.36,5.36,0,0,0-2.84,4.8,5.46,5.46,0,0,0,.76,2.86,5.29,5.29,0,0,0,2.08,2,6.05,6.05,0,0,0,3,.73,5.93,5.93,0,0,0,3-.74,5.44,5.44,0,0,0,2.85-4.86,5.35,5.35,0,0,0-2.85-4.8Zm-.42,6.43a3,3,0,0,1-1.05,1.15,2.73,2.73,0,0,1-2.94,0,3.07,3.07,0,0,1-1.08-1.15,3.4,3.4,0,0,1,0-3.22,3.11,3.11,0,0,1,1.08-1.14,2.78,2.78,0,0,1,1.48-.41,2.72,2.72,0,0,1,1.47.41,3,3,0,0,1,1.05,1.14,3.6,3.6,0,0,1,0,3.22Z"/><polygon class="cls-1" points="312.74 77.94 310.06 70.16 307.04 70.16 311.21 80.91 314.12 80.91 318.33 70.16 315.44 70.16 312.74 77.94"/><polygon class="cls-1" points="322.15 76.65 327.27 76.63 327.27 74.41 322.15 74.41 322.15 72.4 327.82 72.4 327.82 70.16 319.34 70.16 319.34 80.91 327.98 80.91 327.98 78.67 322.15 78.67 322.15 76.65"/><polygon class="cls-1" points="337.06 76.63 332.17 70.16 329.7 70.16 329.7 80.91 332.32 80.91 332.32 74.48 337.2 80.91 339.65 80.91 339.65 70.16 337.05 70.16 337.06 76.63"/><path class="cls-1" d="M348.47,75a14.76,14.76,0,0,0-1.85-.65c-.5-.15-.88-.27-1.14-.37a2,2,0,0,1-.64-.39.76.76,0,0,1-.26-.59.63.63,0,0,1,.3-.56,1.58,1.58,0,0,1,.82-.19,5.52,5.52,0,0,1,1.63.32,10.55,10.55,0,0,1,1.84.83l1.06-2.24a7.62,7.62,0,0,0-2-.88,8.2,8.2,0,0,0-2.3-.33,5.84,5.84,0,0,0-2.26.41,3.36,3.36,0,0,0-1.51,1.16,3,3,0,0,0-.53,1.74,2.58,2.58,0,0,0,.52,1.7,3.15,3.15,0,0,0,1.23,1,13.29,13.29,0,0,0,1.83.62c.49.14.87.25,1.14.35a2.13,2.13,0,0,1,.68.39.78.78,0,0,1,.26.61.76.76,0,0,1-.36.68,1.84,1.84,0,0,1-1,.23,5.39,5.39,0,0,1-2-.46,6.83,6.83,0,0,1-1.92-1.18L341,79.33a7.27,7.27,0,0,0,2.29,1.28,8,8,0,0,0,2.66.47,6.21,6.21,0,0,0,2.21-.38,3.44,3.44,0,0,0,1.55-1.15,2.94,2.94,0,0,0,.57-1.83,2.71,2.71,0,0,0-.52-1.74A3.13,3.13,0,0,0,348.47,75Z"/><polygon class="cls-1" points="346.97 69.3 348.65 66.95 346.68 66.95 345.76 67.98 344.86 66.95 342.89 66.95 344.56 69.3 346.97 69.3"/><polygon class="cls-1" points="350.73 72.47 353.92 72.47 353.92 80.91 356.73 80.91 356.73 72.47 359.95 72.47 359.95 70.16 350.73 70.16 350.73 72.47"/><rect class="cls-1" x="361.09" y="70.16" width="2.81" height="10.76"/><polygon class="cls-1" points="373.35 76.63 368.45 70.16 365.98 70.16 365.98 80.91 368.61 80.91 368.61 74.48 373.49 80.91 375.94 80.91 375.94 70.16 373.33 70.16 373.35 76.63"/><path class="cls-1" d="M381.54,70.16l-4.62,10.75h2.89l.75-1.9h4.65l.74,1.9h3l-4.51-10.75Zm-.14,6.7L382.91,73l1.47,3.84Z"/><path class="cls-1" d="M492.87,75.43a15,15,0,0,0-1.76-.64c-.58-.18-1-.35-1.37-.48a2.41,2.41,0,0,1-.82-.57,1.29,1.29,0,0,1-.34-.93,1.11,1.11,0,0,1,.56-1,2.72,2.72,0,0,1,1.49-.36,5.18,5.18,0,0,1,1.48.24,6.07,6.07,0,0,1,1.56.71l.62-1.32a6.57,6.57,0,0,0-1.65-.76,6.43,6.43,0,0,0-1.9-.28,5.28,5.28,0,0,0-2,.35,3,3,0,0,0-1.34,1,2.81,2.81,0,0,0,0,3.1,3.16,3.16,0,0,0,1.15.91,15.71,15.71,0,0,0,1.75.63c.58.17,1,.33,1.39.47a2.49,2.49,0,0,1,.85.59,1.32,1.32,0,0,1,.33.93,1.3,1.3,0,0,1-.62,1.14,2.9,2.9,0,0,1-1.69.43,4.79,4.79,0,0,1-1.87-.41A5.5,5.5,0,0,1,487,78l-.66,1.28a6,6,0,0,0,1.93,1.22,5.94,5.94,0,0,0,2.3.46,5.35,5.35,0,0,0,2.07-.37A3.21,3.21,0,0,0,494,79.56a2.7,2.7,0,0,0,.5-1.61,2.56,2.56,0,0,0-.47-1.6A3.12,3.12,0,0,0,492.87,75.43Z"/><polygon class="cls-1" points="498.32 70.17 496.85 70.17 496.85 80.91 503.02 80.91 503.02 79.58 498.32 79.58 498.32 70.17"/><path class="cls-1" d="M512.43,70.8a6,6,0,0,0-5.7,0,5.44,5.44,0,0,0-2,2,5.45,5.45,0,0,0,0,5.52,5.39,5.39,0,0,0,2.05,2,5.91,5.91,0,0,0,5.69,0,5.47,5.47,0,0,0,2.05-2,5.45,5.45,0,0,0,0-5.52A5.46,5.46,0,0,0,512.43,70.8Zm.74,6.81a4.2,4.2,0,0,1-1.51,1.51,3.91,3.91,0,0,1-2.06.56,4,4,0,0,1-2.08-.56A4.18,4.18,0,0,1,506,77.61a4.08,4.08,0,0,1,0-4.16,4.23,4.23,0,0,1,1.53-1.5,4.07,4.07,0,0,1,2.08-.55,4,4,0,0,1,2.06.55,4.25,4.25,0,0,1,1.51,1.5,4.14,4.14,0,0,1,0,4.16Z"/><polygon class="cls-1" points="520.88 79.27 517.33 70.17 515.75 70.17 520.08 80.91 521.61 80.91 525.97 70.17 524.42 70.17 520.88 79.27"/><rect class="cls-1" x="527.58" y="70.17" width="1.47" height="10.74"/><polygon class="cls-1" points="539.76 78.5 533.61 70.17 532.12 70.17 532.12 80.91 533.6 80.91 533.6 72.59 539.73 80.91 541.22 80.91 541.22 70.17 539.76 70.17 539.76 78.5"/><path class="cls-1" d="M549.78,75.43a15.75,15.75,0,0,0-1.76-.64c-.59-.18-1-.35-1.37-.48a2.56,2.56,0,0,1-.83-.57,1.32,1.32,0,0,1-.33-.93,1.11,1.11,0,0,1,.56-1,2.72,2.72,0,0,1,1.49-.36,5.18,5.18,0,0,1,1.48.24,6.07,6.07,0,0,1,1.56.71l.61-1.32a6.25,6.25,0,0,0-1.65-.76,6.36,6.36,0,0,0-1.89-.28,5.28,5.28,0,0,0-2,.35,3,3,0,0,0-1.34,1,2.52,2.52,0,0,0-.48,1.52,2.5,2.5,0,0,0,.47,1.58,3,3,0,0,0,1.15.91,15.71,15.71,0,0,0,1.75.63,14.26,14.26,0,0,1,1.38.47,2.44,2.44,0,0,1,.86.59,1.32,1.32,0,0,1,.33.93,1.3,1.3,0,0,1-.62,1.14,2.9,2.9,0,0,1-1.69.43,4.79,4.79,0,0,1-1.87-.41A5.5,5.5,0,0,1,543.88,78l-.66,1.28a6,6,0,0,0,1.93,1.22,5.94,5.94,0,0,0,2.3.46,5.26,5.26,0,0,0,2.06-.37,3.19,3.19,0,0,0,1.4-1.07,2.7,2.7,0,0,0,.5-1.61,2.5,2.5,0,0,0-.48-1.6A3,3,0,0,0,549.78,75.43Z"/><polygon class="cls-1" points="547.96 69.16 549.57 67.12 548.14 67.12 547.21 68.15 546.27 67.12 544.84 67.12 546.45 69.16 547.96 69.16"/><polygon class="cls-1" points="552.38 71.52 555.83 71.52 555.83 80.91 557.3 80.91 557.3 71.52 560.77 71.52 560.77 70.17 552.38 70.17 552.38 71.52"/><rect class="cls-1" x="562.46" y="70.17" width="1.47" height="10.74"/><polygon class="cls-1" points="574.64 78.5 568.49 70.17 567 70.17 567 80.91 568.47 80.91 568.47 72.59 574.61 80.91 576.1 80.91 576.1 70.17 574.64 70.17 574.64 78.5"/><path class="cls-1" d="M582.46,70.17l-4.77,10.74h1.55l1.12-2.61H586l1.14,2.61h1.59L584,70.17ZM580.94,77l2.24-5.22L585.46,77Z"/></g></g></svg>