<svg xmlns="http://www.w3.org/2000/svg" viewBox="0 0 717.15 102.75"><defs><style>.cls-1{fill:#fff;}.cls-2{fill:#00aaaf;}.cls-3{fill:#008c90;}</style></defs><title>Mobi-2</title><g id="Layer_2" data-name="Layer 2"><g id="Layer_1-2" data-name="Layer 1"><polygon class="cls-1" points="521.23 13.32 506.37 13.32 538.01 50.36 506.37 87.39 521.23 87.39 552.88 50.36 521.23 13.32"/><polygon class="cls-2" points="521.23 13.32 552.88 50.36 521.23 87.39 717.15 87.39 717.15 13.32 521.23 13.32"/><polygon class="cls-3" points="506.37 13.32 0 13.32 0 87.39 506.37 87.39 538.01 50.36 506.37 13.32"/><path class="cls-1" d="M169.15,49.69a3.7,3.7,0,0,0-1.77-.49,3.47,3.47,0,0,0-1.84.51,3.59,3.59,0,0,0-1.31,1.39,4.33,4.33,0,0,0,0,4,3.58,3.58,0,0,0,1.31,1.39,3.47,3.47,0,0,0,1.84.5,4.05,4.05,0,0,0,1.72-.42,5.47,5.47,0,0,0,1.6-1.15l2,2.19a8.15,8.15,0,0,1-2.58,1.82,7.18,7.18,0,0,1-6.55-.24,6.69,6.69,0,0,1-2.52-2.5,7,7,0,0,1-.92-3.55,6.67,6.67,0,0,1,3.5-6,7.6,7.6,0,0,1,6.59-.28,7.28,7.28,0,0,1,2.46,1.69l-2,2.44A5,5,0,0,0,169.15,49.69Zm-.78-7.22h2.44l-2.08,2.92h-3l-2.08-2.92h2.44l1.13,1.28Z"/><path class="cls-1" d="M174.23,46.46h10.55v2.79h-7.06v2.5h6.37v2.77l-6.37,0V57H185v2.79H174.23Z"/><path class="cls-1" d="M194,49.45a6.74,6.74,0,0,0-2-.4,1.88,1.88,0,0,0-1,.24.78.78,0,0,0-.37.7,1,1,0,0,0,.32.74,2.49,2.49,0,0,0,.8.48q.48.18,1.41.47a18.23,18.23,0,0,1,2.3.8A4,4,0,0,1,197,53.7a3.42,3.42,0,0,1,.65,2.17,3.7,3.7,0,0,1-.71,2.28A4.27,4.27,0,0,1,195,59.57a7.51,7.51,0,0,1-2.74.48,9.9,9.9,0,0,1-3.31-.58,9,9,0,0,1-2.85-1.59l1.35-2.73a8.42,8.42,0,0,0,2.39,1.47,6.53,6.53,0,0,0,2.45.57,2.28,2.28,0,0,0,1.23-.29.94.94,0,0,0,.45-.84,1,1,0,0,0-.33-.76,2.47,2.47,0,0,0-.84-.49q-.51-.18-1.42-.43a17.59,17.59,0,0,1-2.27-.77,4,4,0,0,1-1.54-1.18,3.26,3.26,0,0,1-.64-2.11,3.68,3.68,0,0,1,.66-2.18,4.19,4.19,0,0,1,1.87-1.44,7.27,7.27,0,0,1,2.82-.51,10.22,10.22,0,0,1,2.86.41,9.42,9.42,0,0,1,2.48,1.1l-1.32,2.79A11.77,11.77,0,0,0,194,49.45Zm-.81-7h2.44l-2.08,2.92h-3l-2.08-2.92H191l1.13,1.28Z"/><path class="cls-1" d="M207.56,49.69a3.7,3.7,0,0,0-1.77-.49,3.47,3.47,0,0,0-1.84.51,3.59,3.59,0,0,0-1.31,1.39,4.33,4.33,0,0,0,0,4,3.58,3.58,0,0,0,1.31,1.39,3.47,3.47,0,0,0,1.84.5,4.05,4.05,0,0,0,1.72-.42,5.47,5.47,0,0,0,1.6-1.15l2,2.19a8.15,8.15,0,0,1-2.58,1.82,7.18,7.18,0,0,1-6.55-.24,6.69,6.69,0,0,1-2.52-2.5,7,7,0,0,1-.92-3.55,6.67,6.67,0,0,1,3.5-6,7.6,7.6,0,0,1,6.59-.28,7.28,7.28,0,0,1,2.46,1.69l-2,2.44A5,5,0,0,0,207.56,49.69Zm-.78-7.22h2.44l-2.08,2.92h-3l-2.08-2.92h2.44l1.13,1.28Z"/><path class="cls-1" d="M212.64,46.46h3.49V59.83h-3.49Z"/><path class="cls-1" d="M227.86,46.46h3.24V59.83h-3.05l-6.07-8v8h-3.26V46.46h3.07l6.09,8.05Z"/><path class="cls-1" d="M243.55,59.83l-.92-2.37h-5.78l-.93,2.37h-3.59l5.74-13.38h3.59l5.61,13.38Zm-5.65-5h3.7L239.77,50Z"/><path class="cls-1" d="M256.87,44.38h2.86l-6.18,17.55h-2.86Z"/><path class="cls-1" d="M273.55,59.83l-.92-2.37h-5.78l-.93,2.37h-3.59l5.74-13.38h3.59l5.61,13.38Zm-5.65-5h3.7L269.77,50Z"/><path class="cls-1" d="M287.61,46.46h3.24V59.83H287.8l-6.07-8v8h-3.26V46.46h3.07l6.09,8.05Z"/><path class="cls-1" d="M302.32,53h3v5.32a8.91,8.91,0,0,1-2.62,1.27,9.89,9.89,0,0,1-2.95.49,7.39,7.39,0,0,1-3.65-.91,6.7,6.7,0,0,1-2.57-2.49,6.84,6.84,0,0,1-.94-3.55,6.61,6.61,0,0,1,1-3.52,6.76,6.76,0,0,1,2.65-2.47,7.91,7.91,0,0,1,3.77-.9,8.63,8.63,0,0,1,3,.54,7.76,7.76,0,0,1,2.52,1.46l-2,2.44a5.55,5.55,0,0,0-1.67-1.09,4.73,4.73,0,0,0-1.86-.4,3.67,3.67,0,0,0-3.28,1.93,4.06,4.06,0,0,0-.5,2,4.16,4.16,0,0,0,.5,2,3.65,3.65,0,0,0,1.37,1.42,3.77,3.77,0,0,0,1.95.52,5.28,5.28,0,0,0,2.31-.65Z"/><path class="cls-1" d="M307.65,46.46h3.49v10.4h5.67v3h-9.16Z"/><path class="cls-1" d="M318.39,46.46h10.55v2.79h-7.06v2.5h6.37v2.77l-6.37,0V57h7.25v2.79H318.39Z"/><path class="cls-1" d="M338.21,49.45a6.74,6.74,0,0,0-2-.4,1.88,1.88,0,0,0-1,.24.78.78,0,0,0-.37.7,1,1,0,0,0,.32.74,2.49,2.49,0,0,0,.8.48q.48.18,1.41.47a18.23,18.23,0,0,1,2.3.8,4,4,0,0,1,1.55,1.23,3.42,3.42,0,0,1,.65,2.17,3.7,3.7,0,0,1-.71,2.28,4.27,4.27,0,0,1-1.94,1.42,7.51,7.51,0,0,1-2.74.48,9.9,9.9,0,0,1-3.31-.58,9,9,0,0,1-2.85-1.59l1.35-2.73A8.42,8.42,0,0,0,334,56.61a6.53,6.53,0,0,0,2.45.57,2.28,2.28,0,0,0,1.23-.29.94.94,0,0,0,.45-.84,1,1,0,0,0-.33-.76,2.47,2.47,0,0,0-.84-.49q-.51-.18-1.42-.43a17.59,17.59,0,0,1-2.27-.77,4,4,0,0,1-1.54-1.18,3.26,3.26,0,0,1-.64-2.11,3.68,3.68,0,0,1,.66-2.18,4.19,4.19,0,0,1,1.87-1.44,7.27,7.27,0,0,1,2.82-.51,10.22,10.22,0,0,1,2.86.41,9.42,9.42,0,0,1,2.48,1.1l-1.32,2.79A11.77,11.77,0,0,0,338.21,49.45Zm-.81-7h2.44l-2.08,2.92h-3l-2.08-2.92h2.44l1.13,1.28Z"/><path class="cls-1" d="M351.72,49.69a3.7,3.7,0,0,0-1.77-.49,3.47,3.47,0,0,0-1.84.51,3.59,3.59,0,0,0-1.31,1.39,4.33,4.33,0,0,0,0,4,3.58,3.58,0,0,0,1.31,1.39A3.47,3.47,0,0,0,350,57a4.05,4.05,0,0,0,1.72-.42,5.47,5.47,0,0,0,1.6-1.15l2,2.19a8.15,8.15,0,0,1-2.58,1.82,7.18,7.18,0,0,1-6.55-.24,6.69,6.69,0,0,1-2.52-2.5,7,7,0,0,1-.92-3.55,6.67,6.67,0,0,1,3.5-6,7.6,7.6,0,0,1,6.59-.28,7.28,7.28,0,0,1,2.46,1.69l-2,2.44A5,5,0,0,0,351.72,49.69Zm-.78-7.22h2.44l-2.08,2.92h-3l-2.08-2.92h2.44l1.13,1.28Z"/><path class="cls-1" d="M356.8,46.46h3.49V59.83H356.8Z"/><path class="cls-1" d="M372,46.46h3.24V59.83h-3.05l-6.07-8v8h-3.26V46.46H366L372,54.51Z"/><path class="cls-1" d="M387.71,59.83l-.92-2.37H381l-.93,2.37h-3.59l5.74-13.38h3.59l5.61,13.38Zm-5.65-5h3.7L383.93,50Z"/><path class="cls-1" d="M401,44.38h2.86l-6.18,17.55h-2.86Z"/><path class="cls-1" d="M414.82,49.45a6.74,6.74,0,0,0-2-.4,1.88,1.88,0,0,0-1,.24.78.78,0,0,0-.37.7,1,1,0,0,0,.32.74,2.49,2.49,0,0,0,.8.48q.48.18,1.41.47a18.23,18.23,0,0,1,2.3.8,4,4,0,0,1,1.55,1.23,3.42,3.42,0,0,1,.65,2.17,3.7,3.7,0,0,1-.71,2.28,4.27,4.27,0,0,1-1.94,1.42,7.51,7.51,0,0,1-2.74.48,9.9,9.9,0,0,1-3.31-.58,9,9,0,0,1-2.85-1.59l1.35-2.73a8.42,8.42,0,0,0,2.39,1.47,6.53,6.53,0,0,0,2.45.57,2.28,2.28,0,0,0,1.23-.29.94.94,0,0,0,.45-.84,1,1,0,0,0-.33-.76,2.47,2.47,0,0,0-.84-.49q-.51-.18-1.42-.43a17.59,17.59,0,0,1-2.27-.77,4,4,0,0,1-1.54-1.18,3.26,3.26,0,0,1-.64-2.11,3.68,3.68,0,0,1,.66-2.18,4.19,4.19,0,0,1,1.87-1.44,7.27,7.27,0,0,1,2.82-.51,10.22,10.22,0,0,1,2.86.41,9.42,9.42,0,0,1,2.48,1.1l-1.32,2.79A11.77,11.77,0,0,0,414.82,49.45Z"/><path class="cls-1" d="M428.24,59.83l-1.95-3.7H423.7v3.7h-3.49V46.46h6a6.2,6.2,0,0,1,4.11,1.23,4.28,4.28,0,0,1,1.46,3.46,5.27,5.27,0,0,1-.61,2.6,4.22,4.22,0,0,1-1.77,1.71l2.79,4.37Zm-4.54-6.49h2.54a2.35,2.35,0,0,0,1.65-.53,2,2,0,0,0,.58-1.54,1.91,1.91,0,0,0-.58-1.5,2.38,2.38,0,0,0-1.65-.53H423.7Z"/><path class="cls-1" d="M443,46.87A3.85,3.85,0,0,1,444.73,48a2.79,2.79,0,0,1,.61,1.79,2.86,2.86,0,0,1-.62,1.83A3.11,3.11,0,0,1,443,52.74a3.29,3.29,0,0,1,2,1.16,3.43,3.43,0,0,1,.73,2.21,3.23,3.23,0,0,1-.63,2,3.92,3.92,0,0,1-1.79,1.3,7.58,7.58,0,0,1-2.73.45H434V46.46h6.35A7.6,7.6,0,0,1,443,46.87Zm-1.67,4.56a1.22,1.22,0,0,0,.42-1,1.14,1.14,0,0,0-.42-.94,1.72,1.72,0,0,0-1.15-.31h-2.67v2.59h2.67A1.73,1.73,0,0,0,441.33,51.43Zm.3,5.31a1.24,1.24,0,0,0,.53-1.07,1.16,1.16,0,0,0-.53-1,2.41,2.41,0,0,0-1.45-.35h-2.67v2.8h2.67A2.46,2.46,0,0,0,441.64,56.74Z"/><path class="cls-1" d="M454.62,49.45a6.74,6.74,0,0,0-2-.4,1.88,1.88,0,0,0-1,.24.78.78,0,0,0-.37.7,1,1,0,0,0,.32.74,2.49,2.49,0,0,0,.8.48q.48.18,1.41.47a18.23,18.23,0,0,1,2.3.8,4,4,0,0,1,1.55,1.23,3.42,3.42,0,0,1,.65,2.17,3.7,3.7,0,0,1-.71,2.28,4.27,4.27,0,0,1-1.94,1.42,7.51,7.51,0,0,1-2.74.48,9.9,9.9,0,0,1-3.31-.58,9,9,0,0,1-2.85-1.59l1.35-2.73a8.42,8.42,0,0,0,2.39,1.47,6.53,6.53,0,0,0,2.45.57,2.28,2.28,0,0,0,1.23-.29.94.94,0,0,0,.45-.84,1,1,0,0,0-.33-.76,2.47,2.47,0,0,0-.84-.49q-.51-.18-1.42-.43a17.59,17.59,0,0,1-2.27-.77,4,4,0,0,1-1.54-1.18,3.26,3.26,0,0,1-.64-2.11,3.68,3.68,0,0,1,.66-2.18,4.19,4.19,0,0,1,1.87-1.44,7.27,7.27,0,0,1,2.82-.51,10.22,10.22,0,0,1,2.86.41,9.42,9.42,0,0,1,2.48,1.1l-1.32,2.79A11.77,11.77,0,0,0,454.62,49.45Zm-.81-7h2.44l-2.08,2.92h-3l-2.08-2.92h2.44l1.13,1.28Z"/><path class="cls-1" d="M468.14,49.69a3.7,3.7,0,0,0-1.77-.49,3.47,3.47,0,0,0-1.84.51,3.59,3.59,0,0,0-1.31,1.39,4.33,4.33,0,0,0,0,4,3.58,3.58,0,0,0,1.31,1.39,3.47,3.47,0,0,0,1.84.5,4.05,4.05,0,0,0,1.72-.42,5.47,5.47,0,0,0,1.6-1.15l2,2.19a8.15,8.15,0,0,1-2.58,1.82,7.18,7.18,0,0,1-6.55-.24,6.69,6.69,0,0,1-2.52-2.5,7,7,0,0,1-.92-3.55,6.67,6.67,0,0,1,3.5-6,7.6,7.6,0,0,1,6.59-.28,7.28,7.28,0,0,1,2.46,1.69l-2,2.44A5,5,0,0,0,468.14,49.69Zm-.78-7.22h2.44l-2.08,2.92h-3l-2.08-2.92h2.44l1.13,1.28Z"/><path class="cls-1" d="M473.22,46.46h3.49V59.83h-3.49Z"/><path class="cls-1" d="M488.45,46.46h3.24V59.83h-3.05l-6.07-8v8h-3.26V46.46h3.07l6.09,8.05Z"/><path class="cls-1" d="M504.13,59.83l-.92-2.37h-5.78l-.93,2.37h-3.59l5.74-13.38h3.59l5.61,13.38Zm-5.65-5h3.7L500.35,50Z"/><path class="cls-2" d="M87,8a43.37,43.37,0,1,0,43.37,43.37A43.42,43.42,0,0,0,87,8Z"/><path class="cls-1" d="M87,0a51.37,51.37,0,1,0,51.37,51.37A51.43,51.43,0,0,0,87,0Zm0,94.75a43.37,43.37,0,1,1,43.37-43.37A43.42,43.42,0,0,1,87,94.75Z"/><path class="cls-1" d="M103.87,62.91v9.4H69.72l-.06-7.74L86,47.82a23.08,23.08,0,0,0,3.13-4,6.83,6.83,0,0,0,1.22-3.39A3.33,3.33,0,0,0,89,37.62a6.26,6.26,0,0,0-3.77-1,14.6,14.6,0,0,0-6,1.5,26.22,26.22,0,0,0-6.36,4.19l-4.48-8.63Q77.65,27,87,27a20.79,20.79,0,0,1,8,1.47,13,13,0,0,1,5.56,4.16,10,10,0,0,1,2,6.14,13.58,13.58,0,0,1-2.27,7.13,44.33,44.33,0,0,1-6.43,7.83l-9.14,9.21Z"/><path class="cls-1" d="M576.35,46.64a5.87,5.87,0,0,0-1.64-.26,3,3,0,0,0-1.66.4,1.24,1.24,0,0,0-.62,1.1,1.45,1.45,0,0,0,.37,1,2.65,2.65,0,0,0,.92.63q.54.23,1.51.54a17.23,17.23,0,0,1,2,.71,3.4,3.4,0,0,1,1.28,1,2.8,2.8,0,0,1,.53,1.78,3,3,0,0,1-.55,1.79,3.54,3.54,0,0,1-1.55,1.18,5.89,5.89,0,0,1-2.29.42,6.65,6.65,0,0,1-2.55-.51,6.91,6.91,0,0,1-2.14-1.36l.73-1.41A6.14,6.14,0,0,0,572.56,55a5.26,5.26,0,0,0,2.07.45,3.3,3.3,0,0,0,1.88-.47,1.56,1.56,0,0,0,.31-2.3,2.63,2.63,0,0,0-.94-.65,16.18,16.18,0,0,0-1.54-.53,15.78,15.78,0,0,1-1.94-.7,3.35,3.35,0,0,1-1.27-1,2.76,2.76,0,0,1-.52-1.75,2.81,2.81,0,0,1,.53-1.68,3.34,3.34,0,0,1,1.48-1.12,5.78,5.78,0,0,1,2.21-.39,7.17,7.17,0,0,1,2.1.31,7,7,0,0,1,1.83.84l-.68,1.46A6.89,6.89,0,0,0,576.35,46.64Z"/><path class="cls-1" d="M581.6,45h1.63V55.37h5.2v1.48H581.6Z"/><path class="cls-1" d="M598.86,45.65a6,6,0,0,1,2.27,2.18,5.82,5.82,0,0,1,.83,3.05,5.91,5.91,0,0,1-.83,3.07,6,6,0,0,1-2.27,2.21,6.56,6.56,0,0,1-6.31,0A6,6,0,0,1,590.29,54a5.91,5.91,0,0,1-.83-3.07,5.82,5.82,0,0,1,.83-3.05,6,6,0,0,1,2.26-2.18,6.64,6.64,0,0,1,6.32,0Zm-5.44,1.28a4.65,4.65,0,0,0-1.69,1.66,4.55,4.55,0,0,0,0,4.62,4.7,4.7,0,0,0,1.69,1.67,4.48,4.48,0,0,0,2.3.62,4.39,4.39,0,0,0,2.29-.62,4.67,4.67,0,0,0,1.67-1.67,4.6,4.6,0,0,0,0-4.62A4.62,4.62,0,0,0,598,46.92a4.44,4.44,0,0,0-2.29-.61A4.53,4.53,0,0,0,593.42,46.92Z"/><path class="cls-1" d="M602.54,45h1.75L608.22,55,612.15,45h1.72L609,56.85h-1.7Z"/><path class="cls-1" d="M615.65,45h8.26v1.48h-6.63V50.1h5.93v1.48h-5.93v3.79h6.83v1.48h-8.47Z"/><path class="cls-1" d="M635.22,45h1.62v11.9h-1.65l-6.8-9.21v9.21h-1.63V45h1.65l6.82,9.23Z"/><path class="cls-1" d="M645.48,46.64a5.87,5.87,0,0,0-1.64-.26,3,3,0,0,0-1.66.4,1.24,1.24,0,0,0-.62,1.1,1.45,1.45,0,0,0,.37,1,2.65,2.65,0,0,0,.92.63q.54.23,1.51.54a17.23,17.23,0,0,1,2,.71,3.4,3.4,0,0,1,1.28,1,2.8,2.8,0,0,1,.53,1.78,3,3,0,0,1-.55,1.79A3.54,3.54,0,0,1,646,56.54a5.89,5.89,0,0,1-2.29.42,6.65,6.65,0,0,1-2.55-.51A6.91,6.91,0,0,1,639,55.08l.73-1.41A6.14,6.14,0,0,0,641.69,55a5.26,5.26,0,0,0,2.07.45,3.3,3.3,0,0,0,1.88-.47,1.56,1.56,0,0,0,.31-2.3A2.63,2.63,0,0,0,645,52a16.18,16.18,0,0,0-1.54-.53,15.78,15.78,0,0,1-1.94-.7,3.35,3.35,0,0,1-1.27-1,2.76,2.76,0,0,1-.52-1.75,2.81,2.81,0,0,1,.53-1.68,3.34,3.34,0,0,1,1.48-1.12,5.78,5.78,0,0,1,2.21-.39,7.17,7.17,0,0,1,2.1.31,7,7,0,0,1,1.83.84l-.68,1.46A6.89,6.89,0,0,0,645.48,46.64Zm-1-5.07h1.58l-1.79,2.26h-1.67l-1.79-2.26h1.58l1,1.14Z"/><path class="cls-1" d="M657.76,46.7a4.58,4.58,0,0,0-5.83,1.87,4.57,4.57,0,0,0,4,6.88,4.64,4.64,0,0,0,1.84-.38,5.32,5.32,0,0,0,1.6-1l1,1.07a6.64,6.64,0,0,1-2.09,1.38,6.24,6.24,0,0,1-5.52-.31,6,6,0,0,1-3-5.28,5.86,5.86,0,0,1,.82-3.05,6,6,0,0,1,2.25-2.18,6.34,6.34,0,0,1,3.15-.8,6.4,6.4,0,0,1,2.41.47,6,6,0,0,1,2,1.32l-1,1.17A4.93,4.93,0,0,0,657.76,46.7Zm-1-5.13h1.58l-1.78,2.26h-1.67l-1.79-2.26h1.58l1,1.14Z"/><path class="cls-1" d="M662.6,45h1.63v11.9H662.6Z"/><path class="cls-1" d="M676.1,45h1.62v11.9h-1.65l-6.8-9.21v9.21h-1.63V45h1.65l6.82,9.23Z"/><path class="cls-1" d="M690,56.85,688.72,54h-6.27l-1.24,2.89h-1.72L684.77,45h1.7l5.27,11.9Zm-6.88-4.37h5l-2.52-5.78Z"/></g></g></svg>