<svg xmlns="http://www.w3.org/2000/svg" viewBox="0 0 717.15 102.75"><defs><style>.cls-1{fill:#fff;}.cls-2{fill:#00aaaf;}.cls-3{fill:#008c90;}</style></defs><title>2_mobi-cz</title><g id="Layer_2" data-name="Layer 2"><g id="Layer_1-2" data-name="Layer 1"><polygon class="cls-1" points="521.23 13.32 506.37 13.32 538.01 50.36 506.37 87.39 521.23 87.39 552.88 50.36 521.23 13.32"/><path class="cls-2" d="M521.23,13.32l31.65,37-31.65,37H717.15V13.32ZM640.36,41.57l1,1.14,1-1.14H644l-1.78,2.26h-1.67l-1.78-2.26ZM582.45,55.36a3.59,3.59,0,0,1-1.55,1.18,5.85,5.85,0,0,1-2.29.41,6.67,6.67,0,0,1-2.55-.51,6.81,6.81,0,0,1-2.14-1.36l.73-1.41A6.2,6.2,0,0,0,576.56,55a5.3,5.3,0,0,0,2.07.45,3.33,3.33,0,0,0,1.88-.47,1.54,1.54,0,0,0,.31-2.3,2.55,2.55,0,0,0-.94-.65c-.38-.16-.89-.33-1.54-.53a16,16,0,0,1-1.94-.69,3.34,3.34,0,0,1-1.26-1,2.72,2.72,0,0,1-.52-1.75,2.76,2.76,0,0,1,.53-1.68,3.29,3.29,0,0,1,1.47-1.12,5.81,5.81,0,0,1,2.21-.39,7.07,7.07,0,0,1,2.1.31,7,7,0,0,1,1.83.84l-.68,1.46a7,7,0,0,0-1.72-.79,6.11,6.11,0,0,0-1.64-.26,3,3,0,0,0-1.66.4,1.23,1.23,0,0,0-.62,1.1,1.45,1.45,0,0,0,.37,1,2.71,2.71,0,0,0,.92.62c.36.16.87.33,1.51.54a18.52,18.52,0,0,1,2,.71,3.45,3.45,0,0,1,1.27,1,2.81,2.81,0,0,1,.53,1.78A3,3,0,0,1,582.45,55.36Zm10,1.49H585.6V45h1.63V55.37h5.2Zm12.7-2.9a5.88,5.88,0,0,1-2.27,2.21,6.53,6.53,0,0,1-6.3,0,6,6,0,0,1-3.11-5.27,5.8,5.8,0,0,1,.84-3.06,6,6,0,0,1,2.26-2.18,6.62,6.62,0,0,1,6.31,0,6,6,0,0,1,2.27,2.18,6,6,0,0,1,0,6.12Zm7.91,2.9h-1.7L606.54,45h1.76L612.22,55,616.15,45h1.72Zm8.24,0h-1.63V45h1.63Zm13.48,0h-1.65l-6.8-9.21v9.21h-1.63V45h1.65l6.82,9.23V45h1.61Zm10.74-1.49A3.53,3.53,0,0,1,644,56.54a5.81,5.81,0,0,1-2.29.41,6.58,6.58,0,0,1-2.54-.51A6.86,6.86,0,0,1,637,55.08l.73-1.41A6.12,6.12,0,0,0,639.62,55a5.22,5.22,0,0,0,2.06.45,3.31,3.31,0,0,0,1.88-.47,1.56,1.56,0,0,0,.32-2.3,2.59,2.59,0,0,0-1-.65c-.38-.16-.89-.33-1.54-.53a15.14,15.14,0,0,1-1.93-.69,3.37,3.37,0,0,1-1.27-1,2.72,2.72,0,0,1-.52-1.75,2.82,2.82,0,0,1,.53-1.68,3.27,3.27,0,0,1,1.48-1.12,5.78,5.78,0,0,1,2.21-.39,7.17,7.17,0,0,1,2.1.31,7.08,7.08,0,0,1,1.82.84l-.68,1.46a7,7,0,0,0-1.72-.79,6,6,0,0,0-1.64-.26,3,3,0,0,0-1.66.4,1.25,1.25,0,0,0-.62,1.1,1.45,1.45,0,0,0,.37,1,2.71,2.71,0,0,0,.92.62c.37.16.87.33,1.52.54a19.08,19.08,0,0,1,2,.71,3.45,3.45,0,0,1,1.27,1,2.76,2.76,0,0,1,.53,1.78A3,3,0,0,1,645.5,55.36Zm10.92-8.91h-3.84v10.4H651V46.45h-3.83V45h9.3Zm3.5,10.4h-1.63V45h1.63Zm13.48,0h-1.65L665,47.64v9.21h-1.64V45H665l6.82,9.23V45h1.61Zm12.26,0L684.4,54h-6.27l-1.24,2.89h-1.72L680.46,45h1.7l5.27,11.9Z"/><polygon class="cls-2" points="678.78 52.48 683.77 52.48 681.26 46.7 678.78 52.48"/><path class="cls-2" d="M602,46.92a4.5,4.5,0,0,0-2.28-.61,4.64,4.64,0,0,0-2.31.61,4.72,4.72,0,0,0-1.69,1.66,4.55,4.55,0,0,0,0,4.62,4.74,4.74,0,0,0,1.69,1.67,4.45,4.45,0,0,0,2.31.62,4.32,4.32,0,0,0,2.28-.62,4.61,4.61,0,0,0,1.67-1.67,4.61,4.61,0,0,0,0-4.62A4.58,4.58,0,0,0,602,46.92Z"/><polygon class="cls-3" points="494.1 54.8 497.81 54.8 495.97 50.02 494.1 54.8"/><path class="cls-3" d="M438.75,54.67a2.42,2.42,0,0,0-1.45-.35h-2.67v2.8h2.67a2.42,2.42,0,0,0,1.45-.38,1.24,1.24,0,0,0,.53-1.07A1.17,1.17,0,0,0,438.75,54.67Z"/><path class="cls-3" d="M52.49,13.32H0V87.39H50.39a51.28,51.28,0,0,1,2.1-74.07Z"/><polygon class="cls-3" points="242.41 54.8 246.12 54.8 244.28 50.02 242.41 54.8"/><path class="cls-3" d="M423.35,49.24h-2.54v4.11h2.54a2.34,2.34,0,0,0,1.65-.54,2,2,0,0,0,.58-1.54,1.91,1.91,0,0,0-.58-1.5A2.39,2.39,0,0,0,423.35,49.24Z"/><path class="cls-3" d="M506.37,13.32H121.46a51.28,51.28,0,0,1,2.1,74.07H506.37l31.64-37ZM448.65,42.47l1.13,1.28,1.14-1.28h2.44l-2.08,2.92h-3l-2.08-2.92Zm-114.59,0,1.13,1.28,1.14-1.28h2.45l-2.08,2.92h-3l-2.08-2.92Zm-137.1,0,1.13,1.28,1.14-1.28h2.44l-2.08,2.92h-3l-2.08-2.92Zm-24.86,0,1.12,1.28,1.15-1.28h2.44l-2.08,2.92h-3l-2.08-2.92Zm4.05,16.93a7.18,7.18,0,0,1-6.55-.23,6.72,6.72,0,0,1-2.52-2.5,7,7,0,0,1-.92-3.55,6.72,6.72,0,0,1,3.5-6,7.57,7.57,0,0,1,3.66-.89,7.33,7.33,0,0,1,2.94.62,7.25,7.25,0,0,1,2.46,1.69l-2,2.44a5.11,5.11,0,0,0-1.55-1.31,3.74,3.74,0,0,0-1.77-.48,3.47,3.47,0,0,0-1.85.5,3.63,3.63,0,0,0-1.3,1.39,4.3,4.3,0,0,0,0,3.95,3.47,3.47,0,0,0,3.15,1.9,4,4,0,0,0,1.71-.42,5.49,5.49,0,0,0,1.61-1.14l2,2.19A8.09,8.09,0,0,1,176.15,59.4Zm14.82.43H180.23V46.46h10.55v2.78h-7.06v2.5h6.37v2.77l-6.37,0v2.52H191Zm12-1.68A4.27,4.27,0,0,1,201,59.57a7.72,7.72,0,0,1-2.74.47,9.83,9.83,0,0,1-3.31-.58,9.32,9.32,0,0,1-2.86-1.59l1.36-2.73a8.3,8.3,0,0,0,2.39,1.47,6.6,6.6,0,0,0,2.46.57,2.29,2.29,0,0,0,1.23-.28,1,1,0,0,0,.45-.84,1,1,0,0,0-.34-.77,2.44,2.44,0,0,0-.84-.48c-.34-.12-.81-.27-1.42-.43a18.32,18.32,0,0,1-2.27-.78,4,4,0,0,1-1.54-1.18,3.3,3.3,0,0,1-.64-2.11,3.67,3.67,0,0,1,.66-2.17,4.09,4.09,0,0,1,1.87-1.44,7.24,7.24,0,0,1,2.82-.51,10.35,10.35,0,0,1,2.86.41,9.23,9.23,0,0,1,2.48,1.1l-1.32,2.78a11.76,11.76,0,0,0-2.28-1,6.92,6.92,0,0,0-2-.4,1.88,1.88,0,0,0-1,.24.77.77,0,0,0-.37.7,1,1,0,0,0,.32.73,2.54,2.54,0,0,0,.8.48c.32.12.79.28,1.42.47a17.64,17.64,0,0,1,2.3.8A4.08,4.08,0,0,1,203,53.7a3.42,3.42,0,0,1,.65,2.17A3.71,3.71,0,0,1,203,58.15Zm12.79-8.81h-4V59.83h-3.49V49.34h-4V46.46h11.47Zm4.9,10.49h-3.49V46.46h3.49Zm15,0h-3.05l-6.07-8v8h-3.26V46.46h3.07l6.09,8,0-8h3.24Zm12.44,0-.91-2.36h-5.79l-.93,2.36h-3.59l5.75-13.37h3.58l5.61,13.37Zm10,2.1H255.2l6.18-17.55h2.86Zm20-2.1-.92-2.36h-5.78l-.93,2.36h-3.59l5.74-13.37h3.59l5.61,13.37Zm17.31,0h-3.06l-6.07-8v8H283V46.46h3.07l6.09,8,0-8h3.25Zm5.83-4.66a3.69,3.69,0,0,0,1.38,1.42,3.78,3.78,0,0,0,1.94.52,5.28,5.28,0,0,0,2.31-.65V53h3v5.33a9.13,9.13,0,0,1-2.62,1.27,10,10,0,0,1-3,.48,7.46,7.46,0,0,1-3.66-.9,6.73,6.73,0,0,1-2.56-2.49,6.8,6.8,0,0,1-.94-3.55,6.62,6.62,0,0,1,1-3.52,6.84,6.84,0,0,1,2.66-2.48,8,8,0,0,1,3.77-.89,8.64,8.64,0,0,1,3,.54A7.67,7.67,0,0,1,310,48.25l-2,2.44a5.64,5.64,0,0,0-1.67-1.08,4.69,4.69,0,0,0-1.86-.4,3.69,3.69,0,0,0-1.93.51,3.84,3.84,0,0,0-1.36,1.41,4.1,4.1,0,0,0-.49,2A4.18,4.18,0,0,0,301.2,55.17Zm20.12,4.66h-9.16V46.46h3.49v10.4h5.67Zm5.07,0H322.9V46.46h3.49Zm11.73-.43a7,7,0,0,1-3,.68,7.12,7.12,0,0,1-3.59-.91,6.79,6.79,0,0,1-2.52-2.5,7,7,0,0,1-.91-3.55,6.67,6.67,0,0,1,3.5-6,7.55,7.55,0,0,1,3.65-.89,7.69,7.69,0,0,1,5.41,2.31l-2,2.44a5.07,5.07,0,0,0-1.54-1.31,3.75,3.75,0,0,0-1.78-.48,3.44,3.44,0,0,0-1.84.5,3.65,3.65,0,0,0-1.31,1.39,4.38,4.38,0,0,0,0,3.95,3.61,3.61,0,0,0,1.31,1.4,3.53,3.53,0,0,0,1.84.5,4.06,4.06,0,0,0,1.72-.42,5.44,5.44,0,0,0,1.6-1.14l2,2.19A7.94,7.94,0,0,1,338.12,59.4ZM352.5,49.34h-4V59.83H345V49.34h-4V46.46H352.5Zm4.9,10.49h-3.49V46.46h3.49Zm15,0h-3.05l-6.07-8v8H360V46.46h3.07l6.08,8v-8h3.24Zm12.44,0-.91-2.36h-5.79l-.93,2.36H373.6l5.75-13.37h3.58l5.61,13.37Zm10,2.1H392l6.18-17.55H401Zm20-3.78a4.3,4.3,0,0,1-1.94,1.42,7.68,7.68,0,0,1-2.74.47,9.87,9.87,0,0,1-3.31-.58A9.15,9.15,0,0,1,404,57.87l1.35-2.73a8.49,8.49,0,0,0,2.4,1.47,6.55,6.55,0,0,0,2.45.57,2.29,2.29,0,0,0,1.23-.28,1,1,0,0,0,.45-.84,1,1,0,0,0-.33-.77,2.64,2.64,0,0,0-.84-.48c-.34-.12-.81-.27-1.43-.43A18.92,18.92,0,0,1,407,53.6a4,4,0,0,1-1.53-1.18,3.24,3.24,0,0,1-.64-2.11,3.67,3.67,0,0,1,.66-2.17,4.09,4.09,0,0,1,1.87-1.44,7.15,7.15,0,0,1,2.81-.51,10.3,10.3,0,0,1,2.86.41,9.23,9.23,0,0,1,2.48,1.1l-1.31,2.78a12.33,12.33,0,0,0-2.28-1,7,7,0,0,0-2-.4,1.89,1.89,0,0,0-1,.24.79.79,0,0,0-.37.7.93.93,0,0,0,.33.73,2.34,2.34,0,0,0,.8.48c.31.12.79.28,1.41.47a17.13,17.13,0,0,1,2.3.8,4.08,4.08,0,0,1,1.55,1.23,3.36,3.36,0,0,1,.65,2.17A3.7,3.7,0,0,1,414.84,58.15Zm10.51,1.68-2-3.7h-2.59v3.7h-3.49V46.46h6a6.19,6.19,0,0,1,4.11,1.23,4.28,4.28,0,0,1,1.46,3.46,5.25,5.25,0,0,1-.61,2.61,4.21,4.21,0,0,1-1.77,1.7l2.78,4.37Zm16.91-1.74a4,4,0,0,1-1.8,1.3,7.72,7.72,0,0,1-2.72.44h-6.61V46.46h6.36a7.43,7.43,0,0,1,2.62.41A3.85,3.85,0,0,1,441.84,48a2.83,2.83,0,0,1,.61,1.79,2.88,2.88,0,0,1-.62,1.84,3.21,3.21,0,0,1-1.69,1.07,3.26,3.26,0,0,1,2,1.16,3.43,3.43,0,0,1,.74,2.21A3.25,3.25,0,0,1,442.26,58.09Zm12.38.06a4.3,4.3,0,0,1-1.94,1.42A7.67,7.67,0,0,1,450,60a9.83,9.83,0,0,1-3.31-.58,9.21,9.21,0,0,1-2.86-1.59l1.36-2.73a8.3,8.3,0,0,0,2.39,1.47,6.59,6.59,0,0,0,2.45.57,2.24,2.24,0,0,0,1.23-.28,1,1,0,0,0,.45-.84,1,1,0,0,0-.33-.77,2.44,2.44,0,0,0-.84-.48c-.34-.12-.81-.27-1.42-.43a18.32,18.32,0,0,1-2.27-.78,4,4,0,0,1-1.54-1.18,3.24,3.24,0,0,1-.64-2.11,3.67,3.67,0,0,1,.66-2.17,4.09,4.09,0,0,1,1.87-1.44,7.24,7.24,0,0,1,2.82-.51,10.35,10.35,0,0,1,2.86.41,9.23,9.23,0,0,1,2.48,1.1L454,50.48a11.76,11.76,0,0,0-2.28-1,6.92,6.92,0,0,0-2-.4,1.88,1.88,0,0,0-1,.24.77.77,0,0,0-.37.7.92.92,0,0,0,.32.73,2.44,2.44,0,0,0,.8.48c.32.12.79.28,1.41.47a16.64,16.64,0,0,1,2.3.8,4,4,0,0,1,1.56,1.23,3.42,3.42,0,0,1,.65,2.17A3.71,3.71,0,0,1,454.64,58.15Zm12.79-8.81h-4V59.83h-3.49V49.34h-4V46.46h11.47Zm4.9,10.49h-3.49V46.46h3.49Zm15,0h-3.05l-6.07-8v8h-3.26V46.46H478l6.09,8,0-8h3.24Zm12.44,0-.91-2.36h-5.79l-.93,2.36h-3.59l5.74-13.37h3.59l5.61,13.37Z"/><polygon class="cls-3" points="379.17 54.8 382.88 54.8 381.04 50.02 379.17 54.8"/><path class="cls-3" d="M438.44,51.43a1.21,1.21,0,0,0,.42-1,1.14,1.14,0,0,0-.42-1,1.68,1.68,0,0,0-1.14-.31h-2.67v2.59h2.67A1.74,1.74,0,0,0,438.44,51.43Z"/><polygon class="cls-3" points="272.41 54.8 276.11 54.8 274.28 50.02 272.41 54.8"/><path class="cls-1" d="M175.09,56.53a4,4,0,0,1-1.71.42,3.47,3.47,0,0,1-3.15-1.9,4.3,4.3,0,0,1,0-3.95,3.63,3.63,0,0,1,1.3-1.39,3.47,3.47,0,0,1,1.85-.5,3.74,3.74,0,0,1,1.77.48A5.11,5.11,0,0,1,176.7,51l2-2.44a7.25,7.25,0,0,0-2.46-1.69,7.33,7.33,0,0,0-2.94-.62,7.57,7.57,0,0,0-3.66.89,6.72,6.72,0,0,0-3.5,6,7,7,0,0,0,.92,3.55,6.72,6.72,0,0,0,2.52,2.5,7.18,7.18,0,0,0,6.55.23,8.09,8.09,0,0,0,2.59-1.82l-2-2.19A5.49,5.49,0,0,1,175.09,56.53Z"/><polygon class="cls-1" points="174.73 45.39 176.81 42.47 174.37 42.47 173.22 43.75 172.1 42.47 169.66 42.47 171.74 45.39 174.73 45.39"/><polygon class="cls-1" points="183.72 54.53 190.09 54.51 190.09 51.74 183.72 51.74 183.72 49.24 190.78 49.24 190.78 46.46 180.23 46.46 180.23 59.83 190.97 59.83 190.97 57.05 183.72 57.05 183.72 54.53"/><path class="cls-1" d="M201.46,52.47a17.64,17.64,0,0,0-2.3-.8c-.63-.19-1.1-.35-1.42-.47a2.54,2.54,0,0,1-.8-.48,1,1,0,0,1-.32-.73.77.77,0,0,1,.37-.7,1.88,1.88,0,0,1,1-.24,6.92,6.92,0,0,1,2,.4,11.76,11.76,0,0,1,2.28,1l1.32-2.78a9.23,9.23,0,0,0-2.48-1.1,10.35,10.35,0,0,0-2.86-.41,7.24,7.24,0,0,0-2.82.51,4.09,4.09,0,0,0-1.87,1.44,3.67,3.67,0,0,0-.66,2.17,3.3,3.3,0,0,0,.64,2.11,4,4,0,0,0,1.54,1.18,18.32,18.32,0,0,0,2.27.78c.61.16,1.08.31,1.42.43a2.44,2.44,0,0,1,.84.48,1,1,0,0,1,.34.77,1,1,0,0,1-.45.84,2.29,2.29,0,0,1-1.23.28,6.6,6.6,0,0,1-2.46-.57,8.3,8.3,0,0,1-2.39-1.47l-1.36,2.73A9.32,9.32,0,0,0,195,59.46a9.83,9.83,0,0,0,3.31.58,7.72,7.72,0,0,0,2.74-.47A4.27,4.27,0,0,0,203,58.15a3.71,3.71,0,0,0,.71-2.28A3.42,3.42,0,0,0,203,53.7,4.08,4.08,0,0,0,201.46,52.47Z"/><polygon class="cls-1" points="199.59 45.39 201.67 42.47 199.23 42.47 198.09 43.75 196.96 42.47 194.52 42.47 196.6 45.39 199.59 45.39"/><polygon class="cls-1" points="204.27 49.34 208.24 49.34 208.24 59.83 211.73 59.83 211.73 49.34 215.74 49.34 215.74 46.46 204.27 46.46 204.27 49.34"/><rect class="cls-1" x="217.15" y="46.46" width="3.49" height="13.38"/><polygon class="cls-1" points="232.4 54.51 226.31 46.46 223.24 46.46 223.24 59.83 226.5 59.83 226.5 51.84 232.57 59.83 235.62 59.83 235.62 46.46 232.38 46.46 232.4 54.51"/><path class="cls-1" d="M242.59,46.46l-5.75,13.37h3.59l.93-2.36h5.79l.91,2.36h3.72l-5.61-13.37Zm-.18,8.34L244.28,50l1.84,4.77Z"/><polygon class="cls-1" points="255.2 61.93 258.06 61.93 264.24 44.38 261.38 44.38 255.2 61.93"/><path class="cls-1" d="M272.58,46.46l-5.74,13.37h3.59l.93-2.36h5.78l.92,2.36h3.72l-5.61-13.37Zm-.17,8.34L274.28,50l1.83,4.77Z"/><polygon class="cls-1" points="292.14 54.51 286.05 46.46 282.98 46.46 282.98 59.83 286.25 59.83 286.25 51.84 292.31 59.83 295.37 59.83 295.37 46.46 292.12 46.46 292.14 54.51"/><path class="cls-1" d="M302.56,49.72a3.69,3.69,0,0,1,1.93-.51,4.69,4.69,0,0,1,1.86.4A5.64,5.64,0,0,1,308,50.69l2-2.44a7.67,7.67,0,0,0-2.52-1.46,8.64,8.64,0,0,0-3-.54,8,8,0,0,0-3.77.89,6.84,6.84,0,0,0-2.66,2.48,6.62,6.62,0,0,0-1,3.52,6.8,6.8,0,0,0,.94,3.55,6.73,6.73,0,0,0,2.56,2.49,7.46,7.46,0,0,0,3.66.9,10,10,0,0,0,3-.48,9.13,9.13,0,0,0,2.62-1.27V53h-3v3.46a5.28,5.28,0,0,1-2.31.65,3.78,3.78,0,0,1-1.94-.52,3.69,3.69,0,0,1-1.38-1.42,4.18,4.18,0,0,1-.49-2,4.1,4.1,0,0,1,.49-2A3.84,3.84,0,0,1,302.56,49.72Z"/><polygon class="cls-1" points="315.65 46.46 312.16 46.46 312.16 59.83 321.32 59.83 321.32 56.86 315.65 56.86 315.65 46.46"/><rect class="cls-1" x="322.9" y="46.46" width="3.49" height="13.38"/><polygon class="cls-1" points="336.7 45.39 338.78 42.47 336.33 42.47 335.19 43.75 334.06 42.47 331.62 42.47 333.7 45.39 336.7 45.39"/><path class="cls-1" d="M337.06,56.53a4.06,4.06,0,0,1-1.72.42,3.53,3.53,0,0,1-1.84-.5,3.61,3.61,0,0,1-1.31-1.4,4.38,4.38,0,0,1,0-3.95,3.65,3.65,0,0,1,1.31-1.39,3.44,3.44,0,0,1,1.84-.5,3.75,3.75,0,0,1,1.78.48A5.07,5.07,0,0,1,338.66,51l2-2.44a7.69,7.69,0,0,0-5.41-2.31,7.55,7.55,0,0,0-3.65.89,6.67,6.67,0,0,0-3.5,6,7,7,0,0,0,.91,3.55,6.79,6.79,0,0,0,2.52,2.5,7.12,7.12,0,0,0,3.59.91,7,7,0,0,0,3-.68,7.94,7.94,0,0,0,2.58-1.82l-2-2.19A5.44,5.44,0,0,1,337.06,56.53Z"/><polygon class="cls-1" points="341.03 49.34 345 49.34 345 59.83 348.49 59.83 348.49 49.34 352.5 49.34 352.5 46.46 341.03 46.46 341.03 49.34"/><rect class="cls-1" x="353.91" y="46.46" width="3.49" height="13.38"/><polygon class="cls-1" points="369.15 54.51 363.07 46.46 360 46.46 360 59.83 363.26 59.83 363.26 51.84 369.33 59.83 372.38 59.83 372.38 46.46 369.13 46.46 369.15 54.51"/><path class="cls-1" d="M379.35,46.46,373.6,59.83h3.59l.93-2.36h5.79l.91,2.36h3.72l-5.61-13.37Zm-.18,8.34L381,50l1.84,4.77Z"/><polygon class="cls-1" points="391.96 61.93 394.82 61.93 401 44.38 398.14 44.38 391.96 61.93"/><path class="cls-1" d="M413.34,52.47a17.13,17.13,0,0,0-2.3-.8c-.62-.19-1.1-.35-1.41-.47a2.34,2.34,0,0,1-.8-.48.93.93,0,0,1-.33-.73.79.79,0,0,1,.37-.7,1.89,1.89,0,0,1,1-.24,7,7,0,0,1,2,.4,12.33,12.33,0,0,1,2.28,1l1.31-2.78A9.23,9.23,0,0,0,413,46.6a10.3,10.3,0,0,0-2.86-.41,7.15,7.15,0,0,0-2.81.51,4.09,4.09,0,0,0-1.87,1.44,3.67,3.67,0,0,0-.66,2.17,3.24,3.24,0,0,0,.64,2.11A4,4,0,0,0,407,53.6a18.92,18.92,0,0,0,2.27.78c.62.16,1.09.31,1.43.43a2.64,2.64,0,0,1,.84.48,1,1,0,0,1,.33.77,1,1,0,0,1-.45.84,2.29,2.29,0,0,1-1.23.28,6.55,6.55,0,0,1-2.45-.57,8.49,8.49,0,0,1-2.4-1.47L404,57.87a9.15,9.15,0,0,0,2.85,1.59,9.87,9.87,0,0,0,3.31.58,7.68,7.68,0,0,0,2.74-.47,4.3,4.3,0,0,0,1.94-1.42,3.7,3.7,0,0,0,.7-2.28,3.36,3.36,0,0,0-.65-2.17A4.08,4.08,0,0,0,413.34,52.47Z"/><path class="cls-1" d="M428.29,53.76a5.25,5.25,0,0,0,.61-2.61,4.28,4.28,0,0,0-1.46-3.46,6.19,6.19,0,0,0-4.11-1.23h-6V59.83h3.49v-3.7h2.59l2,3.7h3.95l-2.78-4.37A4.21,4.21,0,0,0,428.29,53.76ZM425,52.81a2.34,2.34,0,0,1-1.65.54h-2.54V49.24h2.54a2.39,2.39,0,0,1,1.65.53,1.91,1.91,0,0,1,.58,1.5A2,2,0,0,1,425,52.81Z"/><path class="cls-1" d="M440.14,52.74a3.21,3.21,0,0,0,1.69-1.07,2.88,2.88,0,0,0,.62-1.84,2.83,2.83,0,0,0-.61-1.79,3.85,3.85,0,0,0-1.73-1.17,7.43,7.43,0,0,0-2.62-.41h-6.36V59.83h6.61a7.72,7.72,0,0,0,2.72-.44,4,4,0,0,0,1.8-1.3,3.25,3.25,0,0,0,.63-2,3.43,3.43,0,0,0-.74-2.21A3.26,3.26,0,0,0,440.14,52.74Zm-5.51-3.55h2.67a1.68,1.68,0,0,1,1.14.31,1.14,1.14,0,0,1,.42,1,1.21,1.21,0,0,1-.42,1,1.74,1.74,0,0,1-1.14.35h-2.67Zm4.12,7.55a2.42,2.42,0,0,1-1.45.38h-2.67v-2.8h2.67a2.42,2.42,0,0,1,1.45.35,1.17,1.17,0,0,1,.53,1A1.24,1.24,0,0,1,438.75,56.74Z"/><path class="cls-1" d="M453.14,52.47a16.64,16.64,0,0,0-2.3-.8c-.62-.19-1.09-.35-1.41-.47a2.44,2.44,0,0,1-.8-.48.92.92,0,0,1-.32-.73.77.77,0,0,1,.37-.7,1.88,1.88,0,0,1,1-.24,6.92,6.92,0,0,1,2,.4,11.76,11.76,0,0,1,2.28,1l1.32-2.78a9.23,9.23,0,0,0-2.48-1.1,10.35,10.35,0,0,0-2.86-.41,7.24,7.24,0,0,0-2.82.51,4.09,4.09,0,0,0-1.87,1.44,3.67,3.67,0,0,0-.66,2.17,3.24,3.24,0,0,0,.64,2.11,4,4,0,0,0,1.54,1.18,18.32,18.32,0,0,0,2.27.78c.61.16,1.08.31,1.42.43a2.44,2.44,0,0,1,.84.48,1,1,0,0,1,.33.77,1,1,0,0,1-.45.84,2.24,2.24,0,0,1-1.23.28,6.59,6.59,0,0,1-2.45-.57,8.3,8.3,0,0,1-2.39-1.47l-1.36,2.73a9.21,9.21,0,0,0,2.86,1.59A9.83,9.83,0,0,0,450,60a7.67,7.67,0,0,0,2.73-.47,4.3,4.3,0,0,0,1.94-1.42,3.71,3.71,0,0,0,.71-2.28,3.42,3.42,0,0,0-.65-2.17A4,4,0,0,0,453.14,52.47Z"/><polygon class="cls-1" points="451.28 45.39 453.36 42.47 450.92 42.47 449.78 43.75 448.65 42.47 446.21 42.47 448.29 45.39 451.28 45.39"/><polygon class="cls-1" points="455.96 49.34 459.93 49.34 459.93 59.83 463.42 59.83 463.42 49.34 467.43 49.34 467.43 46.46 455.96 46.46 455.96 49.34"/><rect class="cls-1" x="468.84" y="46.46" width="3.49" height="13.38"/><polygon class="cls-1" points="484.08 54.51 478 46.46 474.93 46.46 474.93 59.83 478.19 59.83 478.19 51.84 484.26 59.83 487.31 59.83 487.31 46.46 484.07 46.46 484.08 54.51"/><path class="cls-1" d="M494.27,46.46l-5.74,13.37h3.59l.93-2.36h5.79l.91,2.36h3.72l-5.61-13.37Zm-.17,8.34L496,50l1.84,4.77Z"/><path class="cls-2" d="M87,8a43.38,43.38,0,1,0,43.37,43.37A43.43,43.43,0,0,0,87,8Zm2,29.62a6.24,6.24,0,0,0-3.77-1,14.64,14.64,0,0,0-6,1.5,26,26,0,0,0-6.36,4.19l-4.48-8.63Q77.65,27,87,27a20.77,20.77,0,0,1,8,1.47,13,13,0,0,1,5.57,4.16,10,10,0,0,1,2,6.14,13.61,13.61,0,0,1-2.27,7.13A44.18,44.18,0,0,1,93.9,53.7l-9.15,9.21h19.12v9.4H69.72l-.06-7.74L86,47.82a22.73,22.73,0,0,0,3.13-4,6.81,6.81,0,0,0,1.21-3.39A3.3,3.3,0,0,0,89,37.62Z"/><path class="cls-1" d="M121.46,13.32a51.28,51.28,0,1,0,16.89,38.05A51.22,51.22,0,0,0,121.46,13.32ZM87,94.75a43.38,43.38,0,1,1,43.37-43.38A43.43,43.43,0,0,1,87,94.75Z"/><path class="cls-1" d="M86,47.82,69.66,64.57l.06,7.74h34.15v-9.4H84.75L93.9,53.7a44.18,44.18,0,0,0,6.42-7.83,13.61,13.61,0,0,0,2.27-7.13,10,10,0,0,0-2-6.14A13,13,0,0,0,95,28.44,20.77,20.77,0,0,0,87,27q-9.33,0-18.61,6.72l4.48,8.63a26,26,0,0,1,6.36-4.19,14.64,14.64,0,0,1,6-1.5,6.24,6.24,0,0,1,3.77,1,3.3,3.3,0,0,1,1.34,2.84,6.81,6.81,0,0,1-1.21,3.39A22.73,22.73,0,0,1,86,47.82Z"/><path class="cls-1" d="M581.2,50.78a18.52,18.52,0,0,0-2-.71c-.64-.21-1.15-.38-1.51-.54a2.71,2.71,0,0,1-.92-.62,1.45,1.45,0,0,1-.37-1,1.23,1.23,0,0,1,.62-1.1,3,3,0,0,1,1.66-.4,6.11,6.11,0,0,1,1.64.26,7,7,0,0,1,1.72.79l.68-1.46a7,7,0,0,0-1.83-.84,7.07,7.07,0,0,0-2.1-.31,5.81,5.81,0,0,0-2.21.39,3.29,3.29,0,0,0-1.47,1.12,2.76,2.76,0,0,0-.53,1.68,2.72,2.72,0,0,0,.52,1.75,3.34,3.34,0,0,0,1.26,1,16,16,0,0,0,1.94.69c.65.2,1.16.37,1.54.53a2.55,2.55,0,0,1,.94.65,1.54,1.54,0,0,1-.31,2.3,3.33,3.33,0,0,1-1.88.47,5.3,5.3,0,0,1-2.07-.45,6.2,6.2,0,0,1-1.91-1.29l-.73,1.41a6.81,6.81,0,0,0,2.14,1.36,6.67,6.67,0,0,0,2.55.51,5.85,5.85,0,0,0,2.29-.41,3.59,3.59,0,0,0,1.55-1.18,3,3,0,0,0,.55-1.79,2.81,2.81,0,0,0-.53-1.78A3.45,3.45,0,0,0,581.2,50.78Z"/><polygon class="cls-1" points="587.23 44.95 585.6 44.95 585.6 56.85 592.43 56.85 592.43 55.37 587.23 55.37 587.23 44.95"/><path class="cls-1" d="M602.86,45.65a6.62,6.62,0,0,0-6.31,0,6,6,0,0,0-2.26,2.18,6,6,0,0,0,0,6.12,5.88,5.88,0,0,0,2.27,2.21,6.53,6.53,0,0,0,6.3,0A6,6,0,0,0,606,50.89a5.8,5.8,0,0,0-.84-3.06A6,6,0,0,0,602.86,45.65Zm.82,7.55A4.61,4.61,0,0,1,602,54.87a4.32,4.32,0,0,1-2.28.62,4.45,4.45,0,0,1-2.31-.62,4.74,4.74,0,0,1-1.69-1.67,4.55,4.55,0,0,1,0-4.62,4.72,4.72,0,0,1,1.69-1.66,4.64,4.64,0,0,1,2.31-.61,4.5,4.5,0,0,1,2.28.61,4.58,4.58,0,0,1,1.67,1.66,4.61,4.61,0,0,1,0,4.62Z"/><polygon class="cls-1" points="612.22 55.03 608.29 44.95 606.54 44.95 611.34 56.85 613.04 56.85 617.87 44.95 616.15 44.95 612.22 55.03"/><rect class="cls-1" x="619.65" y="44.95" width="1.63" height="11.9"/><polygon class="cls-1" points="633.15 54.18 626.33 44.95 624.68 44.95 624.68 56.85 626.32 56.85 626.32 47.64 633.11 56.85 634.76 56.85 634.76 44.95 633.15 44.95 633.15 54.18"/><path class="cls-1" d="M644.25,50.78a19.08,19.08,0,0,0-2-.71c-.65-.21-1.15-.38-1.52-.54a2.71,2.71,0,0,1-.92-.62,1.45,1.45,0,0,1-.37-1,1.25,1.25,0,0,1,.62-1.1,3,3,0,0,1,1.66-.4,6,6,0,0,1,1.64.26,7,7,0,0,1,1.72.79l.68-1.46a7.08,7.08,0,0,0-1.82-.84,7.17,7.17,0,0,0-2.1-.31,5.78,5.78,0,0,0-2.21.39,3.27,3.27,0,0,0-1.48,1.12,2.82,2.82,0,0,0-.53,1.68,2.72,2.72,0,0,0,.52,1.75,3.37,3.37,0,0,0,1.27,1,15.14,15.14,0,0,0,1.93.69c.65.2,1.16.37,1.54.53a2.59,2.59,0,0,1,1,.65,1.56,1.56,0,0,1-.32,2.3,3.31,3.31,0,0,1-1.88.47,5.22,5.22,0,0,1-2.06-.45,6.12,6.12,0,0,1-1.92-1.29L637,55.08a6.86,6.86,0,0,0,2.15,1.36,6.58,6.58,0,0,0,2.54.51,5.81,5.81,0,0,0,2.29-.41,3.53,3.53,0,0,0,1.55-1.18,3,3,0,0,0,.55-1.79,2.76,2.76,0,0,0-.53-1.78A3.45,3.45,0,0,0,644.25,50.78Z"/><polygon class="cls-1" points="642.23 43.83 644.01 41.57 642.43 41.57 641.39 42.71 640.36 41.57 638.78 41.57 640.56 43.83 642.23 43.83"/><polygon class="cls-1" points="647.12 46.45 650.95 46.45 650.95 56.85 652.58 56.85 652.58 46.45 656.42 46.45 656.42 44.95 647.12 44.95 647.12 46.45"/><rect class="cls-1" x="658.29" y="44.95" width="1.63" height="11.9"/><polygon class="cls-1" points="671.79 54.18 664.97 44.95 663.32 44.95 663.32 56.85 664.96 56.85 664.96 47.64 671.75 56.85 673.4 56.85 673.4 44.95 671.79 44.95 671.79 54.18"/><path class="cls-1" d="M680.46,45l-5.29,11.9h1.72L678.13,54h6.27l1.26,2.89h1.77L682.16,45Zm-1.68,7.53,2.48-5.78,2.51,5.78Z"/></g></g></svg>