<svg xmlns="http://www.w3.org/2000/svg" viewBox="0 0 719.13 102.75"><defs><style>.cls-1{fill:#fff;}.cls-2{fill:#48626b;}.cls-3{fill:#3b5158;}</style></defs><title>1_mobi-cz</title><g id="Layer_2" data-name="Layer 2"><g id="Layer_1-2" data-name="Layer 1"><polygon class="cls-1" points="321.22 13.03 307.8 13.03 339.44 50.06 307.8 87.09 321.22 87.09 352.87 50.06 321.22 13.03"/><polygon class="cls-2" points="447.83 51.69 452.82 51.69 450.31 45.9 447.83 51.69"/><path class="cls-2" d="M610.92,48.22a2.33,2.33,0,0,0-.81-1.93,3.67,3.67,0,0,0-2.35-.66h-3v5.24h3a3.62,3.62,0,0,0,2.35-.67A2.43,2.43,0,0,0,610.92,48.22Z"/><polygon class="cls-2" points="567.5 51.69 572.5 51.69 569.99 45.9 567.5 51.69"/><polygon class="cls-2" points="474.91 51.69 479.91 51.69 477.39 45.9 474.91 51.69"/><path class="cls-2" d="M622.1,48.74a1.61,1.61,0,0,0,.6-1.34,1.55,1.55,0,0,0-.6-1.31,2.74,2.74,0,0,0-1.71-.44H617V49.2h3.37A2.74,2.74,0,0,0,622.1,48.74Z"/><polygon class="cls-2" points="668.09 51.69 673.09 51.69 670.57 45.9 668.09 51.69"/><path class="cls-2" d="M321.22,13l31.65,37-31.65,37H719.13V13ZM629.67,40.77l1,1.14,1-1.14h1.58L631.54,43h-1.66l-1.79-2.26Zm-100.18,0,1,1.14,1-1.14h1.58L531.36,43H529.7l-1.79-2.26Zm-120.08,0,1,1.14,1-1.14h1.58L411.28,43h-1.67l-1.78-2.26Zm-21.17,0,1,1.14,1-1.14h1.58L390.11,43h-1.66l-1.79-2.26Zm3.52,14.9a6.05,6.05,0,0,1-2.41.5,6.21,6.21,0,0,1-3.11-.8,6,6,0,0,1-3.05-5.28A5.84,5.84,0,0,1,384,47a5.92,5.92,0,0,1,2.25-2.19,6.36,6.36,0,0,1,3.15-.8,6.45,6.45,0,0,1,2.4.47,5.9,5.9,0,0,1,2,1.32l-1,1.17a4.82,4.82,0,0,0-1.58-1.11,4.61,4.61,0,0,0-4.17.21,4.58,4.58,0,0,0-1.67,1.66,4.59,4.59,0,0,0,5.82,6.49,5.35,5.35,0,0,0,1.6-1l1,1.08A6.56,6.56,0,0,1,391.76,55.67Zm12.84.38h-8.47V44.15h8.26v1.48h-6.63V49.3h5.93v1.48h-5.93v3.8h6.84Zm9.95-1.49A3.53,3.53,0,0,1,413,55.74a5.8,5.8,0,0,1-2.28.42,6.6,6.6,0,0,1-2.55-.51A7,7,0,0,1,406,54.29l.73-1.41a6.27,6.27,0,0,0,1.92,1.28,5.25,5.25,0,0,0,2.06.45,3.31,3.31,0,0,0,1.88-.47,1.45,1.45,0,0,0,.69-1.26,1.47,1.47,0,0,0-.37-1,2.72,2.72,0,0,0-.95-.65,15,15,0,0,0-1.54-.52,16.66,16.66,0,0,1-1.93-.7,3.28,3.28,0,0,1-1.27-1,2.72,2.72,0,0,1-.52-1.75,2.82,2.82,0,0,1,.53-1.68,3.27,3.27,0,0,1,1.48-1.12,5.78,5.78,0,0,1,2.21-.39,7.17,7.17,0,0,1,2.1.31,7.08,7.08,0,0,1,1.82.84l-.68,1.47a6.69,6.69,0,0,0-1.72-.8,6,6,0,0,0-1.64-.26,3,3,0,0,0-1.66.4,1.25,1.25,0,0,0-.62,1.1,1.45,1.45,0,0,0,.37,1,2.89,2.89,0,0,0,.92.63c.36.15.87.33,1.52.53a19.08,19.08,0,0,1,1.95.71,3.38,3.38,0,0,1,1.27,1,2.73,2.73,0,0,1,.53,1.77A3,3,0,0,1,414.55,54.56Zm10.92-8.91h-3.84v10.4H420V45.65h-3.83v-1.5h9.3Zm3.5,10.4h-1.63V44.15H429Zm13.48,0h-1.64L434,46.84v9.21h-1.64V44.15H434l6.82,9.23V44.15h1.61Zm12.26,0-1.26-2.89h-6.27l-1.24,2.89h-1.72l5.29-11.9h1.7l5.27,11.9Zm7.53,2h-1.36l5.34-16h1.38Zm19.55-2-1.26-2.89h-6.27L473,56.05H471.3l5.29-11.9h1.7l5.27,11.9Zm13.59,0h-1.65l-6.8-9.21v9.21h-1.64V44.15h1.65l6.82,9.23V44.15h1.62ZM500,52.41a4.67,4.67,0,0,0,4,2.3,4.79,4.79,0,0,0,1.52-.25,5.6,5.6,0,0,0,1.44-.68V50.24h1.45v4.37a7.75,7.75,0,0,1-2.11,1.14,7.31,7.31,0,0,1-2.4.42,6.41,6.41,0,0,1-3.15-.8,6,6,0,0,1-2.25-2.21,6,6,0,0,1-.82-3.07,5.84,5.84,0,0,1,.83-3.05,6,6,0,0,1,2.28-2.19,6.52,6.52,0,0,1,3.2-.8,7,7,0,0,1,2.42.44,6.62,6.62,0,0,1,2,1.21l-.94,1.19a5.36,5.36,0,0,0-1.64-1,5.2,5.2,0,0,0-1.89-.36,4.6,4.6,0,0,0-2.35.61,4.58,4.58,0,0,0-1.68,6.3Zm18.37,3.64h-6.83V44.15h1.63V54.58h5.2Zm3.71,0h-1.63V44.15h1.63ZM533,55.67a6.05,6.05,0,0,1-2.41.5,6.24,6.24,0,0,1-3.11-.8,6,6,0,0,1-3-5.28,5.84,5.84,0,0,1,.83-3.05,5.92,5.92,0,0,1,2.25-2.19,6.5,6.5,0,0,1,5.55-.33,5.9,5.9,0,0,1,2,1.32l-1,1.17a4.82,4.82,0,0,0-1.58-1.11,4.56,4.56,0,0,0-5.83,1.87A4.59,4.59,0,0,0,528.37,54a4.48,4.48,0,0,0,2.31.61,4.56,4.56,0,0,0,1.84-.38,5.35,5.35,0,0,0,1.6-1l1,1.08A6.45,6.45,0,0,1,533,55.67Zm12.14-10h-3.84v10.4h-1.63V45.65h-3.83v-1.5h9.3Zm3.5,10.4H547V44.15h1.63Zm13.48,0h-1.65l-6.8-9.21v9.21h-1.63V44.15h1.65l6.82,9.23V44.15h1.61Zm12.26,0-1.26-2.89h-6.27l-1.24,2.89H563.9l5.29-11.9h1.7l5.27,11.9Zm7.53,2h-1.36l5.34-16h1.38Zm18-3.53a3.59,3.59,0,0,1-1.55,1.18,5.81,5.81,0,0,1-2.29.42,6.67,6.67,0,0,1-2.55-.51,7.11,7.11,0,0,1-2.14-1.36l.73-1.41a6.27,6.27,0,0,0,1.92,1.28,5.22,5.22,0,0,0,2.06.45,3.31,3.31,0,0,0,1.88-.47,1.45,1.45,0,0,0,.69-1.26,1.48,1.48,0,0,0-.38-1,2.59,2.59,0,0,0-.94-.65,15,15,0,0,0-1.54-.52,17.64,17.64,0,0,1-1.94-.7,3.32,3.32,0,0,1-1.26-1,2.72,2.72,0,0,1-.52-1.75,2.82,2.82,0,0,1,.53-1.68,3.27,3.27,0,0,1,1.48-1.12,5.78,5.78,0,0,1,2.21-.39,7.17,7.17,0,0,1,2.1.31,7.08,7.08,0,0,1,1.82.84l-.68,1.47a6.69,6.69,0,0,0-1.72-.8,6,6,0,0,0-1.64-.26,3,3,0,0,0-1.66.4,1.25,1.25,0,0,0-.62,1.1,1.45,1.45,0,0,0,.37,1,2.89,2.89,0,0,0,.92.63c.36.15.87.33,1.51.53a18.52,18.52,0,0,1,2,.71A3.38,3.38,0,0,1,600,51a2.73,2.73,0,0,1,.53,1.77A3,3,0,0,1,600,54.56Zm10.84,1.49-2.37-3.74a6,6,0,0,1-.66,0h-3v3.7H603.1V44.15h4.66a5.21,5.21,0,0,1,3.49,1.05,3.68,3.68,0,0,1,1.24,3,4.21,4.21,0,0,1-.68,2.43A3.74,3.74,0,0,1,609.89,52l2.77,4Zm12.94-.85a5.19,5.19,0,0,1-3.17.85h-5.17V44.15h5.09a4.69,4.69,0,0,1,2.86.79,2.6,2.6,0,0,1,1,2.19,2.65,2.65,0,0,1-.58,1.72,2.84,2.84,0,0,1-1.58.95,3.06,3.06,0,0,1,1.94,1,3,3,0,0,1,.71,2A2.82,2.82,0,0,1,623.73,55.2Zm11.08-.64a3.5,3.5,0,0,1-1.54,1.18,5.88,5.88,0,0,1-2.29.42,6.67,6.67,0,0,1-2.55-.51,7,7,0,0,1-2.14-1.36l.73-1.41a6.22,6.22,0,0,0,1.91,1.28,5.3,5.3,0,0,0,2.07.45,3.33,3.33,0,0,0,1.88-.47,1.44,1.44,0,0,0,.68-1.26,1.47,1.47,0,0,0-.37-1,2.68,2.68,0,0,0-.94-.65,15.87,15.87,0,0,0-1.54-.52,17.64,17.64,0,0,1-1.94-.7,3.25,3.25,0,0,1-1.26-1,2.72,2.72,0,0,1-.52-1.75,2.81,2.81,0,0,1,.52-1.68A3.32,3.32,0,0,1,629,44.41,5.81,5.81,0,0,1,631.2,44a7.07,7.07,0,0,1,2.1.31,7,7,0,0,1,1.83.84l-.68,1.47a6.75,6.75,0,0,0-1.73-.8,6,6,0,0,0-1.64-.26,3,3,0,0,0-1.65.4,1.23,1.23,0,0,0-.62,1.1,1.45,1.45,0,0,0,.37,1,2.78,2.78,0,0,0,.92.63c.36.15.86.33,1.51.53a18.23,18.23,0,0,1,1.95.71,3.41,3.41,0,0,1,1.28,1,2.78,2.78,0,0,1,.53,1.77A3,3,0,0,1,634.81,54.56Zm10.93-8.91H641.9v10.4h-1.64V45.65h-3.82v-1.5h9.3Zm3.5,10.4h-1.63V44.15h1.63Zm13.48,0h-1.65l-6.8-9.21v9.21h-1.63V44.15h1.65l6.81,9.23V44.15h1.62Zm12.26,0-1.26-2.89h-6.27l-1.25,2.89h-1.71l5.28-11.9h1.71l5.26,11.9Z"/><path class="cls-2" d="M622.47,51.19a3.68,3.68,0,0,0-2.08-.51H617v3.88h3.37a3.6,3.6,0,0,0,2.08-.5,1.69,1.69,0,0,0,.74-1.46A1.63,1.63,0,0,0,622.47,51.19Z"/><path class="cls-3" d="M52.84,13H0V87.09H50.1A51.26,51.26,0,0,1,52.84,13Z"/><path class="cls-3" d="M307.79,13H121.11a51.26,51.26,0,0,1,2.74,74.07H307.79l31.65-37ZM245.7,39.12l1.13,1.27L248,39.12h2.44L248.33,42h-3l-2.08-2.92ZM178.42,54.79a4.23,4.23,0,0,1-1.94,1.42,7.47,7.47,0,0,1-2.74.48,9.87,9.87,0,0,1-3.31-.58,9,9,0,0,1-2.85-1.6l1.35-2.72a9,9,0,0,0,2.4,1.47,6.55,6.55,0,0,0,2.45.57,2.28,2.28,0,0,0,1.23-.29.93.93,0,0,0,.45-.84,1,1,0,0,0-.33-.76,2.66,2.66,0,0,0-.84-.49c-.34-.12-.81-.26-1.43-.43a17.44,17.44,0,0,1-2.27-.77,4.08,4.08,0,0,1-1.53-1.18,3.24,3.24,0,0,1-.64-2.11,3.7,3.7,0,0,1,.66-2.18A4.23,4.23,0,0,1,171,43.34a7.16,7.16,0,0,1,2.81-.5,9.94,9.94,0,0,1,2.86.41,9.54,9.54,0,0,1,2.48,1.09l-1.31,2.79a12.33,12.33,0,0,0-2.28-1,6.66,6.66,0,0,0-2-.4,1.89,1.89,0,0,0-1,.24.79.79,0,0,0-.37.69,1,1,0,0,0,.33.74,2.5,2.5,0,0,0,.8.48c.32.12.79.27,1.41.46a20.49,20.49,0,0,1,2.3.8,4,4,0,0,1,1.55,1.24,3.35,3.35,0,0,1,.65,2.16A3.7,3.7,0,0,1,178.42,54.79Zm11.64,1.69H180.9V43.1h3.49V53.5h5.67Zm14.24-3.17a6.77,6.77,0,0,1-2.59,2.5,7.92,7.92,0,0,1-7.39,0,6.69,6.69,0,0,1-2.59-2.5,6.85,6.85,0,0,1-.95-3.56,6.67,6.67,0,0,1,3.54-6,8,8,0,0,1,7.39,0,6.9,6.9,0,0,1,2.59,9.52Zm10,3.17h-3.62L205.46,43.1h3.76l3.34,9.68,3.35-9.68h3.59Zm10,0h-3.49V43.1h3.49Zm15,0h-3l-6.07-8v8h-3.26V43.1h3.07L236,51.16l0-8.06h3.24Zm12.46-1.69a4.2,4.2,0,0,1-1.93,1.42,7.51,7.51,0,0,1-2.74.48,9.83,9.83,0,0,1-3.31-.58,9,9,0,0,1-2.86-1.6l1.36-2.72a8.76,8.76,0,0,0,2.39,1.47,6.6,6.6,0,0,0,2.46.57,2.28,2.28,0,0,0,1.23-.29.92.92,0,0,0,.44-.84,1,1,0,0,0-.33-.76,2.45,2.45,0,0,0-.84-.49c-.34-.12-.81-.26-1.42-.43a16.93,16.93,0,0,1-2.27-.77,4.11,4.11,0,0,1-1.54-1.18,3.3,3.3,0,0,1-.64-2.11,3.7,3.7,0,0,1,.66-2.18,4.23,4.23,0,0,1,1.87-1.44,7.24,7.24,0,0,1,2.82-.5,10,10,0,0,1,2.86.41,9.54,9.54,0,0,1,2.48,1.09l-1.32,2.79a11.76,11.76,0,0,0-2.28-1,6.61,6.61,0,0,0-2-.4,1.88,1.88,0,0,0-1,.24.77.77,0,0,0-.37.69,1,1,0,0,0,.32.74,2.62,2.62,0,0,0,.8.48c.32.12.79.27,1.42.46a20.25,20.25,0,0,1,2.29.8,4,4,0,0,1,1.56,1.24,3.41,3.41,0,0,1,.65,2.16A3.71,3.71,0,0,1,251.69,54.79ZM264.48,46h-4V56.48H257V46h-4V43.1h11.47Zm4.9,10.49h-3.49V43.1h3.49Zm15,0h-3.05l-6.07-8v8H272V43.1h3.07l6.09,8.06,0-8.06h3.24Zm12.44,0-.91-2.37H290.1l-.93,2.37h-3.59l5.75-13.38h3.58l5.61,13.38Z"/><polygon class="cls-3" points="291.15 51.44 294.86 51.44 293.02 46.67 291.15 51.44"/><path class="cls-3" d="M199.87,46.37a3.33,3.33,0,0,0-1.82-.52,3.44,3.44,0,0,0-1.84.52,3.67,3.67,0,0,0-1.34,1.42,4,4,0,0,0-.5,2,4.07,4.07,0,0,0,.51,2,3.84,3.84,0,0,0,1.34,1.43,3.38,3.38,0,0,0,1.83.52,3.33,3.33,0,0,0,1.82-.52,3.69,3.69,0,0,0,1.31-1.43,4.27,4.27,0,0,0,.48-2,4.18,4.18,0,0,0-.48-2A3.53,3.53,0,0,0,199.87,46.37Z"/><path class="cls-2" d="M87,8a43.38,43.38,0,1,0,43.37,43.37A43.43,43.43,0,0,0,87,8ZM73.42,40.39V30.8H93.75V75.63H82.05V40.39Z"/><path class="cls-1" d="M121.11,13a51.26,51.26,0,1,0,17.24,38.35A51.16,51.16,0,0,0,121.11,13ZM87,94.75a43.38,43.38,0,1,1,43.37-43.38A43.43,43.43,0,0,1,87,94.75Z"/><polygon class="cls-1" points="93.75 75.63 93.75 30.8 73.42 30.8 73.42 40.4 82.05 40.4 82.05 75.63 93.75 75.63"/><path class="cls-1" d="M176.92,49.11a20.49,20.49,0,0,0-2.3-.8c-.62-.19-1.09-.34-1.41-.46a2.5,2.5,0,0,1-.8-.48,1,1,0,0,1-.33-.74.79.79,0,0,1,.37-.69,1.89,1.89,0,0,1,1-.24,6.66,6.66,0,0,1,2,.4,12.33,12.33,0,0,1,2.28,1l1.31-2.79a9.54,9.54,0,0,0-2.48-1.09,9.94,9.94,0,0,0-2.86-.41,7.16,7.16,0,0,0-2.81.5,4.23,4.23,0,0,0-1.87,1.44,3.7,3.7,0,0,0-.66,2.18,3.24,3.24,0,0,0,.64,2.11,4.08,4.08,0,0,0,1.53,1.18,17.44,17.44,0,0,0,2.27.77c.62.17,1.09.31,1.43.43a2.66,2.66,0,0,1,.84.49,1,1,0,0,1,.33.76.93.93,0,0,1-.45.84,2.28,2.28,0,0,1-1.23.29,6.55,6.55,0,0,1-2.45-.57,9,9,0,0,1-2.4-1.47l-1.35,2.72a9,9,0,0,0,2.85,1.6,9.87,9.87,0,0,0,3.31.58,7.47,7.47,0,0,0,2.74-.48,4.23,4.23,0,0,0,1.94-1.42,3.7,3.7,0,0,0,.7-2.28,3.35,3.35,0,0,0-.65-2.16A4,4,0,0,0,176.92,49.11Z"/><polygon class="cls-1" points="184.39 43.1 180.9 43.1 180.9 56.48 190.06 56.48 190.06 53.5 184.39 53.5 184.39 43.1"/><path class="cls-1" d="M201.71,43.79a8,8,0,0,0-7.39,0,6.67,6.67,0,0,0-3.54,6,6.85,6.85,0,0,0,.95,3.56,6.69,6.69,0,0,0,2.59,2.5,7.92,7.92,0,0,0,7.39,0,6.8,6.8,0,0,0,3.54-6.05,6.67,6.67,0,0,0-3.54-6Zm-.53,8a3.69,3.69,0,0,1-1.31,1.43,3.33,3.33,0,0,1-1.82.52,3.38,3.38,0,0,1-1.83-.52,3.84,3.84,0,0,1-1.34-1.43,4.07,4.07,0,0,1-.51-2,4,4,0,0,1,.5-2,3.67,3.67,0,0,1,1.34-1.42,3.44,3.44,0,0,1,1.84-.52,3.33,3.33,0,0,1,1.82.52,3.53,3.53,0,0,1,1.31,1.42,4.18,4.18,0,0,1,.48,2A4.27,4.27,0,0,1,201.18,51.8Z"/><polygon class="cls-1" points="212.56 52.78 209.22 43.1 205.46 43.1 210.65 56.48 214.27 56.48 219.5 43.1 215.91 43.1 212.56 52.78"/><rect class="cls-1" x="220.76" y="43.1" width="3.49" height="13.38"/><polygon class="cls-1" points="236.01 51.16 229.92 43.1 226.85 43.1 226.85 56.48 230.11 56.48 230.11 48.48 236.18 56.48 239.23 56.48 239.23 43.1 235.99 43.1 236.01 51.16"/><path class="cls-1" d="M250.19,49.11a20.25,20.25,0,0,0-2.29-.8c-.63-.19-1.1-.34-1.42-.46a2.62,2.62,0,0,1-.8-.48,1,1,0,0,1-.32-.74.77.77,0,0,1,.37-.69,1.88,1.88,0,0,1,1-.24,6.61,6.61,0,0,1,2,.4,11.76,11.76,0,0,1,2.28,1l1.32-2.79a9.54,9.54,0,0,0-2.48-1.09,10,10,0,0,0-2.86-.41,7.24,7.24,0,0,0-2.82.5,4.23,4.23,0,0,0-1.87,1.44,3.7,3.7,0,0,0-.66,2.18,3.3,3.3,0,0,0,.64,2.11,4.11,4.11,0,0,0,1.54,1.18,16.93,16.93,0,0,0,2.27.77c.61.17,1.08.31,1.42.43a2.45,2.45,0,0,1,.84.49,1,1,0,0,1,.33.76.92.92,0,0,1-.44.84,2.28,2.28,0,0,1-1.23.29,6.6,6.6,0,0,1-2.46-.57,8.76,8.76,0,0,1-2.39-1.47l-1.36,2.72a9,9,0,0,0,2.86,1.6,9.83,9.83,0,0,0,3.31.58,7.51,7.51,0,0,0,2.74-.48,4.2,4.2,0,0,0,1.93-1.42,3.71,3.71,0,0,0,.71-2.28,3.41,3.41,0,0,0-.65-2.16A4,4,0,0,0,250.19,49.11Z"/><polygon class="cls-1" points="248.33 42.03 250.41 39.12 247.97 39.12 246.83 40.39 245.7 39.12 243.26 39.12 245.34 42.03 248.33 42.03"/><polygon class="cls-1" points="253.01 45.98 256.98 45.98 256.98 56.48 260.47 56.48 260.47 45.98 264.48 45.98 264.48 43.1 253.01 43.1 253.01 45.98"/><rect class="cls-1" x="265.89" y="43.1" width="3.49" height="13.38"/><polygon class="cls-1" points="281.14 51.16 275.05 43.1 271.98 43.1 271.98 56.48 275.24 56.48 275.24 48.48 281.31 56.48 284.36 56.48 284.36 43.1 281.12 43.1 281.14 51.16"/><path class="cls-1" d="M291.33,43.1l-5.75,13.38h3.59l.93-2.37h5.79l.91,2.37h3.72L294.91,43.1Zm-.18,8.34L293,46.67l1.84,4.77Z"/><polygon class="cls-1" points="390.11 43.03 391.9 40.77 390.32 40.77 389.28 41.91 388.24 40.77 386.66 40.77 388.45 43.03 390.11 43.03"/><path class="cls-1" d="M391.27,54.26a4.56,4.56,0,0,1-1.84.38,4.48,4.48,0,0,1-2.31-.61,4.6,4.6,0,0,1-1.67-6.26,4.58,4.58,0,0,1,1.67-1.66,4.61,4.61,0,0,1,4.17-.21A4.82,4.82,0,0,1,392.87,47l1-1.17a5.9,5.9,0,0,0-2-1.32,6.45,6.45,0,0,0-2.4-.47,6.36,6.36,0,0,0-3.15.8A5.92,5.92,0,0,0,384,47a5.84,5.84,0,0,0-.83,3.05,6,6,0,0,0,3.05,5.28,6.21,6.21,0,0,0,3.11.8,6.05,6.05,0,0,0,2.41-.5,6.56,6.56,0,0,0,2.09-1.38l-1-1.08A5.35,5.35,0,0,1,391.27,54.26Z"/><polygon class="cls-1" points="397.76 50.78 403.69 50.78 403.69 49.3 397.76 49.3 397.76 45.63 404.39 45.63 404.39 44.15 396.13 44.15 396.13 56.05 404.6 56.05 404.6 54.58 397.76 54.58 397.76 50.78"/><polygon class="cls-1" points="411.28 43.03 413.06 40.77 411.48 40.77 410.44 41.91 409.41 40.77 407.83 40.77 409.61 43.03 411.28 43.03"/><path class="cls-1" d="M413.3,50a19.08,19.08,0,0,0-1.95-.71c-.65-.2-1.16-.38-1.52-.53a2.89,2.89,0,0,1-.92-.63,1.45,1.45,0,0,1-.37-1,1.25,1.25,0,0,1,.62-1.1,3,3,0,0,1,1.66-.4,6,6,0,0,1,1.64.26,6.69,6.69,0,0,1,1.72.8l.68-1.47a7.08,7.08,0,0,0-1.82-.84,7.17,7.17,0,0,0-2.1-.31,5.78,5.78,0,0,0-2.21.39,3.27,3.27,0,0,0-1.48,1.12,2.82,2.82,0,0,0-.53,1.68,2.72,2.72,0,0,0,.52,1.75,3.28,3.28,0,0,0,1.27,1,16.66,16.66,0,0,0,1.93.7,15,15,0,0,1,1.54.52,2.72,2.72,0,0,1,.95.65,1.47,1.47,0,0,1,.37,1,1.45,1.45,0,0,1-.69,1.26,3.31,3.31,0,0,1-1.88.47,5.25,5.25,0,0,1-2.06-.45,6.27,6.27,0,0,1-1.92-1.28L406,54.29a7,7,0,0,0,2.15,1.36,6.6,6.6,0,0,0,2.55.51,5.8,5.8,0,0,0,2.28-.42,3.53,3.53,0,0,0,1.55-1.18,3,3,0,0,0,.55-1.79,2.73,2.73,0,0,0-.53-1.77A3.38,3.38,0,0,0,413.3,50Z"/><polygon class="cls-1" points="416.17 45.65 420 45.65 420 56.05 421.63 56.05 421.63 45.65 425.47 45.65 425.47 44.15 416.17 44.15 416.17 45.65"/><rect class="cls-1" x="427.34" y="44.15" width="1.63" height="11.9"/><polygon class="cls-1" points="440.84 53.38 434.02 44.15 432.37 44.15 432.37 56.05 434 56.05 434 46.84 440.81 56.05 442.45 56.05 442.45 44.15 440.84 44.15 440.84 53.38"/><path class="cls-1" d="M449.51,44.15l-5.29,11.9h1.72l1.24-2.89h6.27l1.26,2.89h1.77l-5.27-11.9Zm-1.68,7.53,2.48-5.78,2.51,5.78Z"/><polygon class="cls-1" points="460.88 58.09 462.24 58.09 467.6 42.13 466.22 42.13 460.88 58.09"/><path class="cls-1" d="M476.59,44.15l-5.29,11.9H473l1.24-2.89h6.27l1.26,2.89h1.77l-5.27-11.9Zm-1.68,7.53,2.48-5.78,2.52,5.78Z"/><polygon class="cls-1" points="493.76 53.38 486.94 44.15 485.29 44.15 485.29 56.05 486.93 56.05 486.93 46.84 493.73 56.05 495.38 56.05 495.38 44.15 493.76 44.15 493.76 53.38"/><path class="cls-1" d="M501.7,46.11a4.6,4.6,0,0,1,2.35-.61,5.2,5.2,0,0,1,1.89.36,5.36,5.36,0,0,1,1.64,1l.94-1.19a6.62,6.62,0,0,0-2-1.21,7,7,0,0,0-2.42-.44,6.52,6.52,0,0,0-3.2.8A6,6,0,0,0,498.57,47a5.84,5.84,0,0,0-.83,3.05,6,6,0,0,0,.82,3.07,6,6,0,0,0,2.25,2.21,6.41,6.41,0,0,0,3.15.8,7.31,7.31,0,0,0,2.4-.42,7.75,7.75,0,0,0,2.11-1.14V50.24H507v3.54a5.6,5.6,0,0,1-1.44.68,4.79,4.79,0,0,1-1.52.25,4.67,4.67,0,0,1-4-2.3,4.56,4.56,0,0,1,1.68-6.3Z"/><polygon class="cls-1" points="513.19 44.15 511.56 44.15 511.56 56.05 518.39 56.05 518.39 54.58 513.19 54.58 513.19 44.15"/><rect class="cls-1" x="520.47" y="44.15" width="1.63" height="11.9"/><polygon class="cls-1" points="531.36 43.03 533.15 40.77 531.57 40.77 530.53 41.91 529.49 40.77 527.91 40.77 529.7 43.03 531.36 43.03"/><path class="cls-1" d="M532.52,54.26a4.56,4.56,0,0,1-1.84.38,4.48,4.48,0,0,1-2.31-.61,4.58,4.58,0,0,1-1.66-6.26,4.58,4.58,0,0,1,5.83-1.87A4.82,4.82,0,0,1,534.12,47l1-1.17a5.9,5.9,0,0,0-2-1.32,6.5,6.5,0,0,0-5.55.33A5.92,5.92,0,0,0,525.27,47a5.84,5.84,0,0,0-.83,3.05,6,6,0,0,0,3,5.28,6.24,6.24,0,0,0,3.11.8,6.05,6.05,0,0,0,2.41-.5,6.45,6.45,0,0,0,2.09-1.38l-1-1.08A5.35,5.35,0,0,1,532.52,54.26Z"/><polygon class="cls-1" points="535.85 45.65 539.68 45.65 539.68 56.05 541.31 56.05 541.31 45.65 545.15 45.65 545.15 44.15 535.85 44.15 535.85 45.65"/><rect class="cls-1" x="547.02" y="44.15" width="1.63" height="11.9"/><polygon class="cls-1" points="560.52 53.38 553.7 44.15 552.05 44.15 552.05 56.05 553.68 56.05 553.68 46.84 560.48 56.05 562.13 56.05 562.13 44.15 560.52 44.15 560.52 53.38"/><path class="cls-1" d="M569.19,44.15l-5.29,11.9h1.72l1.24-2.89h6.27l1.26,2.89h1.77l-5.27-11.9Zm-1.68,7.53L570,45.9l2.51,5.78Z"/><polygon class="cls-1" points="580.56 58.09 581.92 58.09 587.28 42.13 585.9 42.13 580.56 58.09"/><path class="cls-1" d="M598.7,50a18.52,18.52,0,0,0-2-.71c-.64-.2-1.15-.38-1.51-.53a2.89,2.89,0,0,1-.92-.63,1.45,1.45,0,0,1-.37-1,1.25,1.25,0,0,1,.62-1.1,3,3,0,0,1,1.66-.4,6,6,0,0,1,1.64.26,6.69,6.69,0,0,1,1.72.8l.68-1.47a7.08,7.08,0,0,0-1.82-.84,7.17,7.17,0,0,0-2.1-.31,5.78,5.78,0,0,0-2.21.39,3.27,3.27,0,0,0-1.48,1.12,2.82,2.82,0,0,0-.53,1.68,2.72,2.72,0,0,0,.52,1.75,3.32,3.32,0,0,0,1.26,1,17.64,17.64,0,0,0,1.94.7,15,15,0,0,1,1.54.52,2.59,2.59,0,0,1,.94.65,1.48,1.48,0,0,1,.38,1,1.45,1.45,0,0,1-.69,1.26,3.31,3.31,0,0,1-1.88.47,5.22,5.22,0,0,1-2.06-.45,6.27,6.27,0,0,1-1.92-1.28l-.73,1.41a7.11,7.11,0,0,0,2.14,1.36,6.67,6.67,0,0,0,2.55.51,5.81,5.81,0,0,0,2.29-.42A3.59,3.59,0,0,0,600,54.56a3,3,0,0,0,.55-1.79A2.73,2.73,0,0,0,600,51,3.38,3.38,0,0,0,598.7,50Z"/><path class="cls-1" d="M611.81,50.6a4.21,4.21,0,0,0,.68-2.43,3.68,3.68,0,0,0-1.24-3,5.21,5.21,0,0,0-3.49-1.05H603.1v11.9h1.63v-3.7h3a6,6,0,0,0,.66,0l2.37,3.74h1.87l-2.77-4A3.74,3.74,0,0,0,611.81,50.6Zm-4,.27h-3V45.63h3a3.67,3.67,0,0,1,2.35.66,2.33,2.33,0,0,1,.81,1.93,2.43,2.43,0,0,1-.81,2A3.62,3.62,0,0,1,607.76,50.87Z"/><path class="cls-1" d="M622.23,49.8a2.84,2.84,0,0,0,1.58-.95,2.65,2.65,0,0,0,.58-1.72,2.6,2.6,0,0,0-1-2.19,4.69,4.69,0,0,0-2.86-.79h-5.09v11.9h5.17a5.19,5.19,0,0,0,3.17-.85,2.82,2.82,0,0,0,1.15-2.39,3,3,0,0,0-.71-2A3.06,3.06,0,0,0,622.23,49.8ZM617,45.65h3.37a2.74,2.74,0,0,1,1.71.44,1.55,1.55,0,0,1,.6,1.31,1.61,1.61,0,0,1-.6,1.34,2.74,2.74,0,0,1-1.71.46H617Zm5.45,8.41a3.6,3.6,0,0,1-2.08.5H617V50.68h3.37a3.68,3.68,0,0,1,2.08.51,1.63,1.63,0,0,1,.74,1.41A1.69,1.69,0,0,1,622.47,54.06Z"/><path class="cls-1" d="M633.56,50a18.23,18.23,0,0,0-1.95-.71c-.65-.2-1.15-.38-1.51-.53a2.78,2.78,0,0,1-.92-.63,1.45,1.45,0,0,1-.37-1,1.23,1.23,0,0,1,.62-1.1,3,3,0,0,1,1.65-.4,6,6,0,0,1,1.64.26,6.75,6.75,0,0,1,1.73.8l.68-1.47a7,7,0,0,0-1.83-.84,7.07,7.07,0,0,0-2.1-.31,5.81,5.81,0,0,0-2.21.39,3.32,3.32,0,0,0-1.48,1.12,2.81,2.81,0,0,0-.52,1.68,2.72,2.72,0,0,0,.52,1.75,3.25,3.25,0,0,0,1.26,1,17.64,17.64,0,0,0,1.94.7,15.87,15.87,0,0,1,1.54.52,2.68,2.68,0,0,1,.94.65,1.47,1.47,0,0,1,.37,1,1.44,1.44,0,0,1-.68,1.26,3.33,3.33,0,0,1-1.88.47,5.3,5.3,0,0,1-2.07-.45A6.22,6.22,0,0,1,627,52.88l-.73,1.41a7,7,0,0,0,2.14,1.36,6.67,6.67,0,0,0,2.55.51,5.88,5.88,0,0,0,2.29-.42,3.5,3.5,0,0,0,1.54-1.18,3,3,0,0,0,.56-1.79,2.78,2.78,0,0,0-.53-1.77A3.41,3.41,0,0,0,633.56,50Z"/><polygon class="cls-1" points="631.54 43.03 633.33 40.77 631.75 40.77 630.71 41.91 629.67 40.77 628.09 40.77 629.88 43.03 631.54 43.03"/><polygon class="cls-1" points="636.44 45.65 640.26 45.65 640.26 56.05 641.9 56.05 641.9 45.65 645.74 45.65 645.74 44.15 636.44 44.15 636.44 45.65"/><rect class="cls-1" x="647.61" y="44.15" width="1.63" height="11.9"/><polygon class="cls-1" points="661.11 53.38 654.29 44.15 652.64 44.15 652.64 56.05 654.27 56.05 654.27 46.84 661.07 56.05 662.72 56.05 662.72 44.15 661.11 44.15 661.11 53.38"/><path class="cls-1" d="M669.77,44.15l-5.28,11.9h1.71l1.25-2.89h6.27L675,56.05h1.76l-5.26-11.9Zm-1.68,7.53,2.48-5.78,2.52,5.78Z"/></g></g></svg>