<svg xmlns="http://www.w3.org/2000/svg" viewBox="0 0 717.15 102.75"><defs><style>.cls-1{fill:#fff;}.cls-2{fill:#4b88a2;}.cls-3{fill:#3e7085;}</style></defs><title>3_mobi-cz</title><g id="Layer_2" data-name="Layer 2"><g id="Layer_1-2" data-name="Layer 1"><polygon class="cls-1" points="450.21 13.03 435.35 13.03 466.99 50.06 435.35 87.09 450.21 87.09 481.86 50.06 450.21 13.03"/><path class="cls-2" d="M450.21,13l31.65,37-31.65,37H717.15V13ZM578.35,41.27l1,1.14,1-1.14H582l-1.79,2.26h-1.66l-1.79-2.26ZM520.44,55.06a3.49,3.49,0,0,1-1.54,1.18,5.88,5.88,0,0,1-2.29.42,6.67,6.67,0,0,1-2.55-.51,6.81,6.81,0,0,1-2.14-1.36l.73-1.41a6.22,6.22,0,0,0,1.91,1.28,5.3,5.3,0,0,0,2.07.45,3.27,3.27,0,0,0,1.87-.46,1.57,1.57,0,0,0,.32-2.31,2.77,2.77,0,0,0-.94-.65c-.39-.15-.9-.33-1.54-.52a15.19,15.19,0,0,1-1.94-.7,3.33,3.33,0,0,1-1.27-1,2.8,2.8,0,0,1-.52-1.75,2.83,2.83,0,0,1,.53-1.69,3.34,3.34,0,0,1,1.48-1.12,5.78,5.78,0,0,1,2.21-.39,7.21,7.21,0,0,1,3.93,1.16l-.68,1.46a6.72,6.72,0,0,0-1.73-.79,5.66,5.66,0,0,0-1.64-.27,3,3,0,0,0-1.66.41,1.24,1.24,0,0,0-.62,1.09,1.45,1.45,0,0,0,.38,1,2.64,2.64,0,0,0,.92.63c.36.15.86.33,1.51.53a16.75,16.75,0,0,1,2,.72,3.39,3.39,0,0,1,1.28,1,2.81,2.81,0,0,1,.52,1.78A2.94,2.94,0,0,1,520.44,55.06Zm10,1.5H523.6V44.66h1.63V55.08h5.2Zm12.7-2.9a6.1,6.1,0,0,1-2.27,2.21,6.55,6.55,0,0,1-6.31,0,6.1,6.1,0,0,1-2.27-2.21,6,6,0,0,1-.83-3.07,5.84,5.84,0,0,1,.83-3.05,6.09,6.09,0,0,1,2.26-2.19,6.71,6.71,0,0,1,6.32,0,6,6,0,0,1,2.27,2.19,5.84,5.84,0,0,1,.83,3.05A6,6,0,0,1,543.13,53.66Zm7.9,2.9h-1.7l-4.79-11.9h1.75l3.93,10.08,3.93-10.08h1.71Zm8.25,0h-1.63V44.66h1.63Zm13.48,0h-1.65l-6.8-9.22v9.22h-1.63V44.66h1.65l6.82,9.23V44.66h1.61Zm10.73-1.5A3.43,3.43,0,0,1,582,56.24a5.85,5.85,0,0,1-2.29.42,6.67,6.67,0,0,1-2.55-.51A6.81,6.81,0,0,1,575,54.79l.73-1.41a6.22,6.22,0,0,0,1.91,1.28,5.3,5.3,0,0,0,2.07.45,3.33,3.33,0,0,0,1.88-.46,1.57,1.57,0,0,0,.31-2.31,2.68,2.68,0,0,0-.94-.65c-.38-.15-.89-.33-1.54-.52a15.78,15.78,0,0,1-1.94-.7,3.22,3.22,0,0,1-1.26-1,2.74,2.74,0,0,1-.52-1.75,2.82,2.82,0,0,1,.52-1.69,3.45,3.45,0,0,1,1.48-1.12,5.81,5.81,0,0,1,2.21-.39,7.21,7.21,0,0,1,3.93,1.16l-.68,1.46a6.72,6.72,0,0,0-1.73-.79,5.66,5.66,0,0,0-1.64-.27,3,3,0,0,0-1.65.41,1.23,1.23,0,0,0-.63,1.09,1.45,1.45,0,0,0,.38,1,2.64,2.64,0,0,0,.92.63c.36.15.87.33,1.51.53a16.08,16.08,0,0,1,2,.72,3.39,3.39,0,0,1,1.28,1,2.81,2.81,0,0,1,.53,1.78A3,3,0,0,1,583.49,55.06Zm10.93-8.91h-3.85V56.56h-1.63V46.15h-3.82V44.66h9.3Zm3.5,10.41h-1.63V44.66h1.63Zm13.48,0h-1.65L603,47.34v9.22h-1.63V44.66H603l6.82,9.23V44.66h1.61Zm12.26,0-1.26-2.89h-6.27l-1.25,2.89h-1.71l5.28-11.9h1.7l5.27,11.9Z"/><path class="cls-2" d="M540,46.63a4.44,4.44,0,0,0-2.29-.61,4.53,4.53,0,0,0-2.3.61,4.64,4.64,0,0,0-1.69,1.66,4.35,4.35,0,0,0-.63,2.3,4.41,4.41,0,0,0,.63,2.31,4.77,4.77,0,0,0,1.69,1.68,4.54,4.54,0,0,0,2.3.62,4.45,4.45,0,0,0,2.29-.62,4.69,4.69,0,0,0,1.66-1.68,4.41,4.41,0,0,0,.63-2.31,4.35,4.35,0,0,0-.63-2.3A4.56,4.56,0,0,0,540,46.63Z"/><polygon class="cls-2" points="616.77 52.19 621.77 52.19 619.25 46.41 616.77 52.19"/><path class="cls-3" d="M52.84,13H0V87.09H50.1A51.26,51.26,0,0,1,52.84,13Z"/><polygon class="cls-3" points="412.13 52.38 415.83 52.38 414 47.6 412.13 52.38"/><path class="cls-3" d="M435.35,13H121.11a51.26,51.26,0,0,1,2.74,74.07h311.5l31.64-37Zm-68.68,27,1.13,1.28,1.14-1.28h2.45L369.31,43h-3l-2.08-2.92Zm-155.19,0,1.13,1.28,1.15-1.28h2.44L214.12,43h-3L209,40.05ZM178.42,52.4a5.59,5.59,0,0,1-4,1.31h-2.39v3.7h-3.49V44h5.88a5.86,5.86,0,0,1,4,1.23,4.34,4.34,0,0,1,1.41,3.46A4.75,4.75,0,0,1,178.42,52.4Zm15.79,1.85a6.94,6.94,0,0,1-2.6,2.5,7.94,7.94,0,0,1-7.38,0,6.65,6.65,0,0,1-2.6-2.5,6.8,6.8,0,0,1-.94-3.55,6.64,6.64,0,0,1,.94-3.51,6.72,6.72,0,0,1,2.6-2.47,8.09,8.09,0,0,1,7.38,0,6.72,6.72,0,0,1,2.6,2.47,6.64,6.64,0,0,1,.94,3.51A6.8,6.8,0,0,1,194.21,54.25Zm11.84,3.16h-9.16V44h3.49v10.4h5.67Zm11.43-1.69a4.32,4.32,0,0,1-1.94,1.43,7.68,7.68,0,0,1-2.74.47,9.83,9.83,0,0,1-3.31-.58,9.15,9.15,0,0,1-2.85-1.59L208,52.72a8.49,8.49,0,0,0,2.4,1.47,6.55,6.55,0,0,0,2.45.57,2.2,2.2,0,0,0,1.23-.29.93.93,0,0,0,.45-.84,1,1,0,0,0-.33-.76,2.86,2.86,0,0,0-.84-.49c-.34-.12-.82-.26-1.43-.42a18.92,18.92,0,0,1-2.27-.78A3.9,3.9,0,0,1,208.12,50a3.24,3.24,0,0,1-.64-2.11,3.65,3.65,0,0,1,.66-2.17A4,4,0,0,1,210,44.28a7.15,7.15,0,0,1,2.81-.51,10.3,10.3,0,0,1,2.86.41,9.23,9.23,0,0,1,2.48,1.1l-1.31,2.78a12.33,12.33,0,0,0-2.28-1,7,7,0,0,0-2-.4,1.88,1.88,0,0,0-1,.24.79.79,0,0,0-.37.7,1,1,0,0,0,.33.73,2.34,2.34,0,0,0,.8.48c.31.12.79.28,1.41.47a17.13,17.13,0,0,1,2.3.8,3.89,3.89,0,0,1,1.55,1.23,3.35,3.35,0,0,1,.65,2.16A3.7,3.7,0,0,1,217.48,55.72Zm12.78-8.8h-4V57.41h-3.49V46.92h-4V44h11.47Zm4.9,10.49h-3.49V44h3.49Zm15,0h-3l-6.07-8v8h-3.26V44h3.07l6.09,8.05,0-8.05h3.24Zm12.45,0-.92-2.36h-5.78L255,57.41h-3.59L257.11,44h3.59l5.61,13.37Zm10,2.1h-2.86L275.9,42h2.87Zm20-3.79a4.32,4.32,0,0,1-1.94,1.43,7.68,7.68,0,0,1-2.74.47,9.87,9.87,0,0,1-3.31-.58,9.15,9.15,0,0,1-2.85-1.59l1.36-2.73a8.3,8.3,0,0,0,2.39,1.47,6.55,6.55,0,0,0,2.45.57,2.2,2.2,0,0,0,1.23-.29.93.93,0,0,0,.45-.84,1,1,0,0,0-.33-.76,2.62,2.62,0,0,0-.84-.49c-.34-.12-.81-.26-1.42-.42a17.76,17.76,0,0,1-2.27-.78A4,4,0,0,1,283.24,50a3.24,3.24,0,0,1-.64-2.11,3.65,3.65,0,0,1,.66-2.17,4.09,4.09,0,0,1,1.87-1.44,7.19,7.19,0,0,1,2.81-.51,10.42,10.42,0,0,1,2.87.41,9.37,9.37,0,0,1,2.48,1.1L292,48.06a11.76,11.76,0,0,0-2.28-1,7,7,0,0,0-2-.4,1.83,1.83,0,0,0-1,.24.78.78,0,0,0-.38.7,1,1,0,0,0,.33.73,2.44,2.44,0,0,0,.8.48c.32.12.79.28,1.41.47a16.64,16.64,0,0,1,2.3.8,3.92,3.92,0,0,1,1.56,1.23,3.41,3.41,0,0,1,.65,2.16A3.71,3.71,0,0,1,292.6,55.72Zm11.64,1.69h-9.16V44h3.49v10.4h5.67Zm14.24-3.16a6.91,6.91,0,0,1-2.59,2.5,8,8,0,0,1-7.39,0,6.62,6.62,0,0,1-2.59-2.5,6.81,6.81,0,0,1-1-3.55,6.7,6.7,0,0,1,3.54-6,8.12,8.12,0,0,1,7.39,0,6.7,6.7,0,0,1,3.54,6A6.81,6.81,0,0,1,318.48,54.25Zm10,3.16h-3.62L319.64,44h3.76l3.34,9.67L330.1,44h3.58Zm17.24,0H334.94V44h10.55v2.78h-7.06v2.5h6.38v2.77l-6.38,0v2.52h7.26Zm14.52,0h-3.06l-6.07-8v8h-3.26V44h3.07L357,52.09,357,44h3.25Zm12.46-1.69a4.37,4.37,0,0,1-1.94,1.43,7.68,7.68,0,0,1-2.74.47,9.83,9.83,0,0,1-3.31-.58,9.15,9.15,0,0,1-2.85-1.59l1.35-2.73a8.35,8.35,0,0,0,2.4,1.47,6.55,6.55,0,0,0,2.45.57,2.2,2.2,0,0,0,1.23-.29.93.93,0,0,0,.45-.84,1,1,0,0,0-.34-.76,2.62,2.62,0,0,0-.84-.49c-.33-.12-.81-.26-1.42-.42a18.92,18.92,0,0,1-2.27-.78A3.9,3.9,0,0,1,363.31,50a3.24,3.24,0,0,1-.64-2.11,3.65,3.65,0,0,1,.66-2.17,4.06,4.06,0,0,1,1.86-1.44,7.24,7.24,0,0,1,2.82-.51,10.3,10.3,0,0,1,2.86.41,9.23,9.23,0,0,1,2.48,1.1L372,48.06a12.33,12.33,0,0,0-2.28-1,7,7,0,0,0-2-.4,1.88,1.88,0,0,0-1,.24.77.77,0,0,0-.37.7,1,1,0,0,0,.32.73,2.49,2.49,0,0,0,.81.48c.31.12.78.28,1.41.47a17.13,17.13,0,0,1,2.3.8,3.89,3.89,0,0,1,1.55,1.23,3.41,3.41,0,0,1,.65,2.16A3.7,3.7,0,0,1,372.67,55.72Zm12.78-8.8h-4V57.41H378V46.92h-4V44h11.47Zm4.9,10.49h-3.49V44h3.49Zm15,0h-3.05l-6.07-8v8H393V44H396l6.09,8.05,0-8.05h3.24Zm12.44,0-.91-2.36h-5.78l-.94,2.36h-3.59L412.3,44h3.59l5.61,13.37Z"/><path class="cls-3" d="M314.06,47.3a3.45,3.45,0,0,0-1.83-.52,3.53,3.53,0,0,0-1.84.52,3.74,3.74,0,0,0-1.34,1.42,4.12,4.12,0,0,0-.5,2,4.06,4.06,0,0,0,.51,2,3.92,3.92,0,0,0,1.34,1.43,3.48,3.48,0,0,0,3.66,0,3.67,3.67,0,0,0,1.3-1.43,4.43,4.43,0,0,0,0-4A3.57,3.57,0,0,0,314.06,47.3Z"/><polygon class="cls-3" points="256.94 52.38 260.64 52.38 258.81 47.6 256.94 52.38"/><path class="cls-3" d="M189.78,47.3a3.41,3.41,0,0,0-1.82-.52,3.51,3.51,0,0,0-1.84.52,3.69,3.69,0,0,0-1.35,1.42,4.12,4.12,0,0,0-.5,2,4.06,4.06,0,0,0,.51,2,4,4,0,0,0,1.35,1.43,3.38,3.38,0,0,0,1.83.52,3.33,3.33,0,0,0,1.82-.52,3.77,3.77,0,0,0,1.31-1.43,4.51,4.51,0,0,0,0-4A3.67,3.67,0,0,0,189.78,47.3Z"/><path class="cls-3" d="M174.28,46.82h-2.22v4.11h2.22a2.34,2.34,0,0,0,1.65-.54,2,2,0,0,0,.58-1.54,1.94,1.94,0,0,0-.58-1.5A2.39,2.39,0,0,0,174.28,46.82Z"/><path class="cls-2" d="M87,8a43.38,43.38,0,1,0,43.37,43.37A43.43,43.43,0,0,0,87,8Zm3.73,47.53A10,10,0,0,0,85,54.13H77.41v-6.4l10.36-10H70.63v-9H102v6.78L89.75,46.77l2.36.45a15,15,0,0,1,8.73,4,11.07,11.07,0,0,1,3.29,8.28,13.34,13.34,0,0,1-2.23,7.61,14.91,14.91,0,0,1-6.33,5.18A23.19,23.19,0,0,1,86,74.14a32,32,0,0,1-9.68-1.5,26,26,0,0,1-8-4l4.35-8.25a20.67,20.67,0,0,0,6,3.58A17.89,17.89,0,0,0,85,65.19a9.6,9.6,0,0,0,5.69-1.44,4.79,4.79,0,0,0,2-4.13A4.7,4.7,0,0,0,90.71,55.53Z"/><path class="cls-1" d="M121.11,13a51.26,51.26,0,1,0,17.24,38.35A51.16,51.16,0,0,0,121.11,13ZM87,94.75a43.38,43.38,0,1,1,43.37-43.38A43.43,43.43,0,0,1,87,94.75Z"/><path class="cls-1" d="M90.71,63.75A9.6,9.6,0,0,1,85,65.19,17.89,17.89,0,0,1,78.62,64a20.67,20.67,0,0,1-6-3.58l-4.35,8.25a26,26,0,0,0,8,4A32,32,0,0,0,86,74.14a23.19,23.19,0,0,0,9.6-1.85,14.91,14.91,0,0,0,6.33-5.18,13.34,13.34,0,0,0,2.23-7.61,11.07,11.07,0,0,0-3.29-8.28,15,15,0,0,0-8.73-4l-2.36-.45L102,35.58V28.8H70.63v9H87.77l-10.36,10v6.4H85a10,10,0,0,1,5.76,1.4,4.7,4.7,0,0,1,2,4.09A4.79,4.79,0,0,1,90.71,63.75Z"/><path class="cls-1" d="M174.45,44h-5.88V57.41h3.49v-3.7h2.39a5.59,5.59,0,0,0,4-1.31,4.75,4.75,0,0,0,1.41-3.67,4.34,4.34,0,0,0-1.41-3.46A5.86,5.86,0,0,0,174.45,44Zm1.48,6.35a2.34,2.34,0,0,1-1.65.54h-2.22V46.82h2.22a2.39,2.39,0,0,1,1.65.53,1.94,1.94,0,0,1,.58,1.5A2,2,0,0,1,175.93,50.39Z"/><path class="cls-1" d="M191.61,44.72a8.09,8.09,0,0,0-7.38,0,6.72,6.72,0,0,0-2.6,2.47,6.64,6.64,0,0,0-.94,3.51,6.8,6.8,0,0,0,.94,3.55,6.65,6.65,0,0,0,2.6,2.5,7.94,7.94,0,0,0,7.38,0,6.94,6.94,0,0,0,2.6-2.5,6.8,6.8,0,0,0,.94-3.55,6.64,6.64,0,0,0-.94-3.51A6.72,6.72,0,0,0,191.61,44.72Zm-.52,8a3.77,3.77,0,0,1-1.31,1.43,3.33,3.33,0,0,1-1.82.52,3.38,3.38,0,0,1-1.83-.52,4,4,0,0,1-1.35-1.43,4.06,4.06,0,0,1-.51-2,4.12,4.12,0,0,1,.5-2,3.69,3.69,0,0,1,1.35-1.42,3.51,3.51,0,0,1,1.84-.52,3.41,3.41,0,0,1,1.82.52,3.67,3.67,0,0,1,1.31,1.42,4.51,4.51,0,0,1,0,4Z"/><polygon class="cls-1" points="200.38 44.04 196.89 44.04 196.89 57.41 206.05 57.41 206.05 54.44 200.38 54.44 200.38 44.04"/><polygon class="cls-1" points="214.12 42.97 216.2 40.05 213.75 40.05 212.61 41.33 211.49 40.05 209.04 40.05 211.12 42.97 214.12 42.97"/><path class="cls-1" d="M216,50.05a17.13,17.13,0,0,0-2.3-.8c-.62-.19-1.1-.35-1.41-.47a2.34,2.34,0,0,1-.8-.48,1,1,0,0,1-.33-.73.79.79,0,0,1,.37-.7,1.88,1.88,0,0,1,1-.24,7,7,0,0,1,2,.4,12.33,12.33,0,0,1,2.28,1l1.31-2.78a9.23,9.23,0,0,0-2.48-1.1,10.3,10.3,0,0,0-2.86-.41,7.15,7.15,0,0,0-2.81.51,4,4,0,0,0-1.87,1.44,3.65,3.65,0,0,0-.66,2.17,3.24,3.24,0,0,0,.64,2.11,3.9,3.9,0,0,0,1.53,1.18,18.92,18.92,0,0,0,2.27.78c.61.16,1.09.3,1.43.42a2.86,2.86,0,0,1,.84.49,1,1,0,0,1,.33.76.93.93,0,0,1-.45.84,2.2,2.2,0,0,1-1.23.29,6.55,6.55,0,0,1-2.45-.57,8.49,8.49,0,0,1-2.4-1.47l-1.35,2.73A9.15,9.15,0,0,0,209.49,57a9.83,9.83,0,0,0,3.31.58,7.68,7.68,0,0,0,2.74-.47,4.32,4.32,0,0,0,1.94-1.43,3.7,3.7,0,0,0,.7-2.28,3.35,3.35,0,0,0-.65-2.16A3.89,3.89,0,0,0,216,50.05Z"/><polygon class="cls-1" points="218.79 46.92 222.76 46.92 222.76 57.41 226.25 57.41 226.25 46.92 230.26 46.92 230.26 44.04 218.79 44.04 218.79 46.92"/><rect class="cls-1" x="231.67" y="44.04" width="3.49" height="13.38"/><polygon class="cls-1" points="246.92 52.09 240.83 44.04 237.76 44.04 237.76 57.41 241.02 57.41 241.02 49.42 247.09 57.41 250.14 57.41 250.14 44.04 246.9 44.04 246.92 52.09"/><path class="cls-1" d="M257.11,44l-5.75,13.37H255l.94-2.36h5.78l.92,2.36h3.72L260.7,44Zm-.17,8.34,1.87-4.77,1.83,4.77Z"/><polygon class="cls-1" points="269.72 59.51 272.58 59.51 278.76 41.96 275.9 41.96 269.72 59.51"/><path class="cls-1" d="M291.1,50.05a16.64,16.64,0,0,0-2.3-.8c-.62-.19-1.09-.35-1.41-.47a2.44,2.44,0,0,1-.8-.48,1,1,0,0,1-.33-.73.78.78,0,0,1,.38-.7,1.83,1.83,0,0,1,1-.24,7,7,0,0,1,2,.4,11.76,11.76,0,0,1,2.28,1l1.32-2.78a9.37,9.37,0,0,0-2.48-1.1,10.42,10.42,0,0,0-2.87-.41,7.19,7.19,0,0,0-2.81.51,4.09,4.09,0,0,0-1.87,1.44,3.65,3.65,0,0,0-.66,2.17,3.24,3.24,0,0,0,.64,2.11,4,4,0,0,0,1.54,1.18,17.76,17.76,0,0,0,2.27.78c.61.16,1.08.3,1.42.42a2.62,2.62,0,0,1,.84.49,1,1,0,0,1,.33.76.93.93,0,0,1-.45.84,2.2,2.2,0,0,1-1.23.29,6.55,6.55,0,0,1-2.45-.57,8.3,8.3,0,0,1-2.39-1.47l-1.36,2.73A9.15,9.15,0,0,0,284.61,57a9.87,9.87,0,0,0,3.31.58,7.68,7.68,0,0,0,2.74-.47,4.32,4.32,0,0,0,1.94-1.43,3.71,3.71,0,0,0,.71-2.28,3.41,3.41,0,0,0-.65-2.16A3.92,3.92,0,0,0,291.1,50.05Z"/><polygon class="cls-1" points="298.57 44.04 295.08 44.04 295.08 57.41 304.24 57.41 304.24 54.44 298.57 54.44 298.57 44.04"/><path class="cls-1" d="M315.89,44.72a8.12,8.12,0,0,0-7.39,0,6.7,6.7,0,0,0-3.54,6,6.81,6.81,0,0,0,1,3.55,6.62,6.62,0,0,0,2.59,2.5,8,8,0,0,0,7.39,0,6.91,6.91,0,0,0,2.59-2.5,6.81,6.81,0,0,0,.95-3.55,6.7,6.7,0,0,0-3.54-6Zm-.53,8a3.67,3.67,0,0,1-1.3,1.43,3.48,3.48,0,0,1-3.66,0,3.92,3.92,0,0,1-1.34-1.43,4.06,4.06,0,0,1-.51-2,4.12,4.12,0,0,1,.5-2,3.74,3.74,0,0,1,1.34-1.42,3.53,3.53,0,0,1,1.84-.52,3.45,3.45,0,0,1,1.83.52,3.57,3.57,0,0,1,1.3,1.42,4.43,4.43,0,0,1,0,4Z"/><polygon class="cls-1" points="326.74 53.71 323.4 44.04 319.64 44.04 324.83 57.41 328.45 57.41 333.68 44.04 330.1 44.04 326.74 53.71"/><polygon class="cls-1" points="338.43 52.11 344.81 52.09 344.81 49.32 338.43 49.32 338.43 46.82 345.49 46.82 345.49 44.04 334.94 44.04 334.94 57.41 345.69 57.41 345.69 54.63 338.43 54.63 338.43 52.11"/><polygon class="cls-1" points="356.98 52.09 350.89 44.04 347.82 44.04 347.82 57.41 351.08 57.41 351.08 49.42 357.15 57.41 360.21 57.41 360.21 44.04 356.96 44.04 356.98 52.09"/><path class="cls-1" d="M371.17,50.05a17.13,17.13,0,0,0-2.3-.8c-.63-.19-1.1-.35-1.41-.47a2.49,2.49,0,0,1-.81-.48,1,1,0,0,1-.32-.73.77.77,0,0,1,.37-.7,1.88,1.88,0,0,1,1-.24,7,7,0,0,1,2,.4,12.33,12.33,0,0,1,2.28,1l1.31-2.78a9.23,9.23,0,0,0-2.48-1.1,10.3,10.3,0,0,0-2.86-.41,7.24,7.24,0,0,0-2.82.51,4.06,4.06,0,0,0-1.86,1.44,3.65,3.65,0,0,0-.66,2.17,3.24,3.24,0,0,0,.64,2.11,3.9,3.9,0,0,0,1.53,1.18,18.92,18.92,0,0,0,2.27.78c.61.16,1.09.3,1.42.42a2.62,2.62,0,0,1,.84.49,1,1,0,0,1,.34.76.93.93,0,0,1-.45.84,2.2,2.2,0,0,1-1.23.29,6.55,6.55,0,0,1-2.45-.57,8.35,8.35,0,0,1-2.4-1.47l-1.35,2.73A9.15,9.15,0,0,0,364.68,57a9.83,9.83,0,0,0,3.31.58,7.68,7.68,0,0,0,2.74-.47,4.37,4.37,0,0,0,1.94-1.43,3.7,3.7,0,0,0,.7-2.28,3.41,3.41,0,0,0-.65-2.16A3.89,3.89,0,0,0,371.17,50.05Z"/><polygon class="cls-1" points="369.31 42.97 371.39 40.05 368.94 40.05 367.8 41.33 366.67 40.05 364.23 40.05 366.31 42.97 369.31 42.97"/><polygon class="cls-1" points="373.98 46.92 377.95 46.92 377.95 57.41 381.44 57.41 381.44 46.92 385.45 46.92 385.45 44.04 373.98 44.04 373.98 46.92"/><rect class="cls-1" x="386.86" y="44.04" width="3.49" height="13.38"/><polygon class="cls-1" points="402.11 52.09 396.02 44.04 392.95 44.04 392.95 57.41 396.21 57.41 396.21 49.42 402.28 57.41 405.33 57.41 405.33 44.04 402.09 44.04 402.11 52.09"/><path class="cls-1" d="M412.3,44l-5.75,13.37h3.59l.94-2.36h5.78l.91,2.36h3.73L415.89,44Zm-.17,8.34L414,47.61l1.83,4.77Z"/><path class="cls-1" d="M519.19,50.49a16.75,16.75,0,0,0-2-.72c-.65-.2-1.15-.38-1.51-.53a2.64,2.64,0,0,1-.92-.63,1.45,1.45,0,0,1-.38-1,1.24,1.24,0,0,1,.62-1.09,3,3,0,0,1,1.66-.41,5.66,5.66,0,0,1,1.64.27,6.72,6.72,0,0,1,1.73.79l.68-1.46a7.21,7.21,0,0,0-3.93-1.16,5.78,5.78,0,0,0-2.21.39A3.34,3.34,0,0,0,513.14,46a2.83,2.83,0,0,0-.53,1.69,2.8,2.8,0,0,0,.52,1.75,3.33,3.33,0,0,0,1.27,1,15.19,15.19,0,0,0,1.94.7c.64.19,1.15.37,1.54.52a2.77,2.77,0,0,1,.94.65,1.57,1.57,0,0,1-.32,2.31,3.27,3.27,0,0,1-1.87.46,5.3,5.3,0,0,1-2.07-.45,6.22,6.22,0,0,1-1.91-1.28l-.73,1.41a6.81,6.81,0,0,0,2.14,1.36,6.67,6.67,0,0,0,2.55.51,5.88,5.88,0,0,0,2.29-.42,3.49,3.49,0,0,0,1.54-1.18,2.94,2.94,0,0,0,.55-1.78,2.81,2.81,0,0,0-.52-1.78A3.39,3.39,0,0,0,519.19,50.49Z"/><polygon class="cls-1" points="525.23 44.66 523.6 44.66 523.6 56.56 530.43 56.56 530.43 55.08 525.23 55.08 525.23 44.66"/><path class="cls-1" d="M540.86,45.35a6.71,6.71,0,0,0-6.32,0,6.09,6.09,0,0,0-2.26,2.19,5.84,5.84,0,0,0-.83,3.05,6,6,0,0,0,.83,3.07,6.1,6.1,0,0,0,2.27,2.21,6.55,6.55,0,0,0,6.31,0,6.1,6.1,0,0,0,2.27-2.21,6,6,0,0,0,.83-3.07,5.84,5.84,0,0,0-.83-3.05A6,6,0,0,0,540.86,45.35Zm.81,7.55A4.69,4.69,0,0,1,540,54.58a4.45,4.45,0,0,1-2.29.62,4.54,4.54,0,0,1-2.3-.62,4.77,4.77,0,0,1-1.69-1.68,4.41,4.41,0,0,1-.63-2.31,4.35,4.35,0,0,1,.63-2.3,4.64,4.64,0,0,1,1.69-1.66,4.53,4.53,0,0,1,2.3-.61,4.44,4.44,0,0,1,2.29.61,4.56,4.56,0,0,1,1.66,1.66,4.35,4.35,0,0,1,.63,2.3A4.41,4.41,0,0,1,541.67,52.9Z"/><polygon class="cls-1" points="550.22 54.74 546.29 44.66 544.54 44.66 549.33 56.56 551.03 56.56 555.86 44.66 554.14 44.66 550.22 54.74"/><rect class="cls-1" x="557.65" y="44.66" width="1.63" height="11.9"/><polygon class="cls-1" points="571.14 53.89 564.33 44.66 562.68 44.66 562.68 56.56 564.31 56.56 564.31 47.34 571.11 56.56 572.76 56.56 572.76 44.66 571.14 44.66 571.14 53.89"/><path class="cls-1" d="M582.24,50.49a16.08,16.08,0,0,0-2-.72c-.64-.2-1.15-.38-1.51-.53a2.64,2.64,0,0,1-.92-.63,1.45,1.45,0,0,1-.38-1,1.23,1.23,0,0,1,.63-1.09,3,3,0,0,1,1.65-.41,5.66,5.66,0,0,1,1.64.27,6.72,6.72,0,0,1,1.73.79l.68-1.46a7.21,7.21,0,0,0-3.93-1.16,5.81,5.81,0,0,0-2.21.39A3.45,3.45,0,0,0,576.19,46a2.82,2.82,0,0,0-.52,1.69,2.74,2.74,0,0,0,.52,1.75,3.22,3.22,0,0,0,1.26,1,15.78,15.78,0,0,0,1.94.7c.65.19,1.16.37,1.54.52a2.68,2.68,0,0,1,.94.65,1.57,1.57,0,0,1-.31,2.31,3.33,3.33,0,0,1-1.88.46,5.3,5.3,0,0,1-2.07-.45,6.22,6.22,0,0,1-1.91-1.28L575,54.79a6.81,6.81,0,0,0,2.14,1.36,6.67,6.67,0,0,0,2.55.51,5.85,5.85,0,0,0,2.29-.42,3.43,3.43,0,0,0,1.54-1.18,3,3,0,0,0,.56-1.78,2.81,2.81,0,0,0-.53-1.78A3.39,3.39,0,0,0,582.24,50.49Z"/><polygon class="cls-1" points="580.22 43.53 582.01 41.27 580.43 41.27 579.39 42.41 578.35 41.27 576.77 41.27 578.56 43.53 580.22 43.53"/><polygon class="cls-1" points="585.12 46.15 588.94 46.15 588.94 56.56 590.58 56.56 590.58 46.15 594.42 46.15 594.42 44.66 585.12 44.66 585.12 46.15"/><rect class="cls-1" x="596.29" y="44.66" width="1.63" height="11.9"/><polygon class="cls-1" points="609.79 53.89 602.97 44.66 601.32 44.66 601.32 56.56 602.95 56.56 602.95 47.34 609.75 56.56 611.4 56.56 611.4 44.66 609.79 44.66 609.79 53.89"/><path class="cls-1" d="M618.45,44.66l-5.28,11.9h1.71l1.25-2.89h6.27l1.26,2.89h1.76l-5.27-11.9Zm-1.68,7.53,2.48-5.78,2.52,5.78Z"/></g></g></svg>