<svg xmlns="http://www.w3.org/2000/svg" viewBox="0 0 1163.76 534.53"><defs><style>.cls-1{fill:#00aaaf;}</style></defs><title>Pattern2</title><g id="Layer_2" data-name="Layer 2"><g id="Layer_1-2" data-name="Layer 1"><path class="cls-1" d="M1135.87,263.63h-1.17a.26.26,0,0,1-.26-.25l-.12-2.35h-1.05a.26.26,0,0,1-.26-.24l-.11-1.58h-.54a.26.26,0,0,1-.26-.23l-.13-1.3a.26.26,0,0,1,.24-.29l1.42-.11-.08-.74-3.1-1.11a.26.26,0,0,1-.1-.07l-2.73-2.86a.26.26,0,0,1,.19-.44h1.56V251l-1.61-1.48a.26.26,0,0,1,.18-.45h1.27l-.09-.93-1.37-1.5a.26.26,0,0,1-.07-.18v-1.82a.26.26,0,0,1,.19-.25l.72-.21v-1.63l-1.47-1.22a.26.26,0,0,1,0-.4l.69-.57v-.53h-.52a.26.26,0,0,1-.26-.23l-.12-1.2-.83-.71a.26.26,0,0,1,0-.4l.69-.57v-.47l-.6-.2a.26.26,0,0,1-.13-.4l1-1.43a.26.26,0,0,1,.21-.11h1.94l.44-.66a.26.26,0,0,1,.22-.12h2.86a.26.26,0,0,1,.2.09l2.73,3.12a.26.26,0,0,1,.06.17v1.95h.65a.26.26,0,0,1,.26.26v.65h1.17a.26.26,0,0,1,.19.09l1.17,1.3a.26.26,0,0,1,.07.17v1.95h.39a.26.26,0,0,1,.24.15l.45,1h1.26a.26.26,0,0,1,.26.26V245h1.27l.32-.64a.26.26,0,0,1,.25-.14l2.34.13a.26.26,0,0,1,.25.26v.91a.26.26,0,0,1-.26.26h-1.43v.26h.65a.26.26,0,0,1,.26.27l-.13,2.34a.26.26,0,0,1-.07.16l-1.62,1.74v.16h.52a.26.26,0,0,1,.26.26v1.44l2.64,2.26a.26.26,0,0,1,0,.38l-1,1a.26.26,0,0,1-.18.08h-1.43v4.29a.26.26,0,0,1-.26.26h-5.31l-.58,1a.26.26,0,0,1-.23.13h-1.84l-.11,1.45A.26.26,0,0,1,1135.87,263.63Zm-.92-.52h.68l.11-1.45a.26.26,0,0,1,.26-.24h1.93l.58-1a.26.26,0,0,1,.23-.13h5.2V256a.26.26,0,0,1,.26-.26h1.58l.77-.77-2.52-2.16a.26.26,0,0,1-.09-.2v-1.3h-.52a.26.26,0,0,1-.26-.26v-.52a.26.26,0,0,1,.07-.18l1.63-1.75.11-2h-.64a.26.26,0,0,1-.26-.26v-.78a.26.26,0,0,1,.26-.26h1.43v-.4l-1.92-.11-.31.63a.26.26,0,0,1-.23.14h-1.69a.26.26,0,0,1-.26-.26v-.52h-1.17a.26.26,0,0,1-.24-.15l-.45-1H1139a.26.26,0,0,1-.26-.26v-2.11l-1-1.14h-1.31a.26.26,0,0,1-.26-.26v-.65h-.65a.26.26,0,0,1-.26-.26v-2.11l-2.59-3H1130l-.44.66a.26.26,0,0,1-.22.12h-1.95l-.75,1,.44.15a.26.26,0,0,1,.18.25v.78a.26.26,0,0,1-.09.2l-.54.45.68.58a.26.26,0,0,1,.09.17l.11,1.07h.54a.26.26,0,0,1,.26.26v.91a.26.26,0,0,1-.09.2l-.54.45,1.32,1.1a.26.26,0,0,1,.09.2v1.95a.26.26,0,0,1-.19.25l-.72.21v1.52l1.36,1.49a.26.26,0,0,1,.07.15l.13,1.3a.26.26,0,0,1-.26.29h-.89l1.2,1.11a.26.26,0,0,1,.08.19v1.43a.26.26,0,0,1-.26.26h-1.21l2.27,2.38,3.19,1.15a.26.26,0,0,1,.17.22l.13,1.17a.26.26,0,0,1-.24.29l-1.42.11.08.8h.54a.26.26,0,0,1,.26.24l.11,1.58h1.06a.26.26,0,0,1,.26.25Z"/><path class="cls-1" d="M970.71,435.2H962a.26.26,0,0,1-.19-.09l-2.21-2.47a.26.26,0,0,1-.06-.12l-.09-.44h-1.22a.26.26,0,0,1-.17-.06l-.91-.78a.26.26,0,0,1-.09-.22l.1-1.15h-.5a.26.26,0,0,1-.26-.26v-1.3h-.52a.26.26,0,0,1-.26-.26v-1.17a.26.26,0,0,1,.22-.26l.56-.09V424a.26.26,0,0,1,.08-.18l1.69-1.69a.26.26,0,0,1,.18-.08h4l.32-.64a.26.26,0,0,1,.23-.14h.91v-.39a.26.26,0,0,1,.1-.21l1.46-1.09v-1a.26.26,0,0,1,.26-.26h.52V417a.26.26,0,0,1,.26-.26h1.18l1.87-2.12a.26.26,0,0,1,.19-.09h2.6a.26.26,0,0,1,.26.26v1.3h1v-1.17a.26.26,0,0,1,.24-.26l1.3-.12.32-.54a.26.26,0,0,1,.22-.13h1a.26.26,0,0,1,.26.26v1h.52a.26.26,0,0,1,.26.26V416l1.32.11a.26.26,0,0,1,.24.26v1.17a.26.26,0,0,1-.08.18l-.34.34h.78l.31-.52a.26.26,0,0,1,.37-.08l.77.51v-.81a.26.26,0,0,1,.09-.2l.91-.78a.26.26,0,0,1,.17-.06h4.16a.26.26,0,0,1,.26.26v.39h1l1.09-1.33a.26.26,0,0,1,.2-.1h4a.26.26,0,0,1,.26.26v.52h2.08a.26.26,0,0,1,.26.26v1.17h.52a.26.26,0,0,1,.12,0l1.43.78a.26.26,0,0,1,.14.23v.52H1000a.26.26,0,0,1,.26.26v1.17a.26.26,0,0,1-.1.2l-1.34,1.1-.12,2.35a.26.26,0,0,1-.06.16l-.78.91a.26.26,0,0,1-.15.09l-.56.09v2a.26.26,0,0,1-.26.26H995v.52a.26.26,0,0,1-.26.26h-1.3a.26.26,0,0,1-.23-.14l-1.62-3h-.27l-.09.56a.26.26,0,0,1-.25.22l-3.25.13a.26.26,0,0,1-.24-.14l-.33-.65-1-.1-.43.65a.26.26,0,0,1-.22.12h-.92l-.78.89-.12,1.22a.26.26,0,0,1-.07.16L983,429a.26.26,0,0,1-.18.08h-1.08l-.09.56a.26.26,0,0,1-.26.22h-.52v.52a.26.26,0,0,1-.24.26l-1.43.13a.26.26,0,0,1-.2-.07.26.26,0,0,1-.08-.19v-.65h-1.57l-1.22,1.34a.26.26,0,0,1-.19.09H972l-.88.77v1.18h.52a.26.26,0,0,1,.22.4l-.91,1.43A.26.26,0,0,1,970.71,435.2Zm-8.59-.52h8.45l.58-.91h-.31a.26.26,0,0,1-.26-.26v-1.56a.26.26,0,0,1,.09-.2l1-.91a.26.26,0,0,1,.17-.06h3.91l1.22-1.34a.26.26,0,0,1,.19-.09h1.95a.26.26,0,0,1,.26.26v.63l.91-.08v-.54a.26.26,0,0,1,.26-.26h.56l.09-.56a.26.26,0,0,1,.26-.22h1.19l.51-.51.12-1.21a.26.26,0,0,1,.06-.15l.91-1a.26.26,0,0,1,.2-.09h.9l.44-.66a.26.26,0,0,1,.24-.11l1.3.13a.26.26,0,0,1,.21.14l.31.63,2.87-.11.1-.57a.26.26,0,0,1,.26-.22h.65a.26.26,0,0,1,.23.14l1.62,3h.88v-.52a.26.26,0,0,1,.26-.26h1.82v-1.95a.26.26,0,0,1,.22-.26l.69-.11.66-.77.13-2.38a.26.26,0,0,1,.09-.19l1.33-1.09v-.79h-2.08a.26.26,0,0,1-.26-.26v-.63l-1.24-.67h-.71a.26.26,0,0,1-.26-.26v-1.17h-2.08a.26.26,0,0,1-.26-.26v-.52h-3.65l-1.09,1.33a.26.26,0,0,1-.2.1h-1.43a.26.26,0,0,1-.26-.26v-.39h-3.8l-.75.64v1.18a.26.26,0,0,1-.4.22l-.94-.63-.25.42a.26.26,0,0,1-.22.13h-1.56a.26.26,0,0,1-.18-.44l.7-.7v-.82l-1.32-.11a.26.26,0,0,1-.24-.26v-.52h-.52a.26.26,0,0,1-.26-.26v-1h-.63l-.31.52a.26.26,0,0,1-.2.13l-1.19.11v1.19a.26.26,0,0,1-.26.26h-1.56a.26.26,0,0,1-.26-.26V415h-2.22l-1.87,2.12a.26.26,0,0,1-.19.09h-1v1.3a.26.26,0,0,1-.26.26h-.52v.91a.26.26,0,0,1-.1.21L964.34,421v.52a.26.26,0,0,1-.26.26h-1l-.32.64a.26.26,0,0,1-.23.14h-4.05l-1.54,1.54v2.62a.26.26,0,0,1-.22.26l-.56.09v.69h.52a.26.26,0,0,1,.26.26v1.3h.52a.26.26,0,0,1,.26.28l-.12,1.3.73.63h1.33a.26.26,0,0,1,.25.21l.12.58Zm-5.45-7.93h0Z"/><path class="cls-1" d="M647.4,44.88h-.78a.26.26,0,0,1-.26-.26v-.26H646v.26a.26.26,0,0,1-.26.26h-1.17a.26.26,0,0,1-.13,0l-.91-.52a.26.26,0,0,1-.13-.19l-.1-.81h-.81a.26.26,0,0,1-.26-.26v-1l-2.15-.6a.26.26,0,0,1-.19-.25V40.07h-.78a.26.26,0,0,1-.21-.11l-.65-.91a.26.26,0,0,1,0-.15v-.68l-.81-.1a.26.26,0,0,1-.14-.06l-1.3-1.17a.26.26,0,0,1-.09-.19V36h-.26a.26.26,0,0,1-.26-.26v-1l-.32-.08a.26.26,0,0,1-.2-.25v-1a.26.26,0,0,1,.26-.26h.26v-.67L633.82,31a.26.26,0,0,1-.07-.13l-.1-.49-.36-.09a.26.26,0,0,1-.2-.25V29a.26.26,0,0,1,.26-.26h.91a.26.26,0,0,1,.23.14l.11.23.53-.44a.26.26,0,0,1,.17-.06H636l1.36-1.11a.26.26,0,0,1,.37,0L638,28h.13v-.26a.26.26,0,0,1,.26-.26h.9l.7-1.05a.26.26,0,0,1,.22-.12h.65V26a.26.26,0,0,1,.26-.26h1.09l1.36-1A.26.26,0,0,1,644,25v.26h.41l1-1h-.28a.26.26,0,0,1-.26-.26V23a.26.26,0,0,1,.26-.26h1.56a.26.26,0,0,1,.21.11l.65.91a.26.26,0,0,1,0,.15v.78h.42l.75-.64V23a.26.26,0,0,1,.26-.26h.52a.26.26,0,0,1,.23.14l.2.4.77.11a.26.26,0,0,1,.22.26v.93l.51.51,1.34.12a.26.26,0,0,1,.24.26v-.13a.26.26,0,0,1,.26-.26h.78a.26.26,0,0,1,.26.26v.91h.65a.26.26,0,0,1,.26.26v.26h.39v-.26a.26.26,0,0,1,.26-.26h1a.26.26,0,0,1,.26.26v1.17a.26.26,0,0,1-.08.18l-.86.86,2,2,.34-.34a.26.26,0,0,1,.18-.08h.78v-.52h-.26a.26.26,0,0,1-.26-.26V28.38a.26.26,0,0,1,.26-.26h.91a.26.26,0,0,1,.26.26v.29l.81.1a.26.26,0,0,1,.15.07l.44.44h.41a.26.26,0,0,1,.21.1l.31.42h.26v-.39a.26.26,0,0,1,.26-.26h.91a.26.26,0,0,1,.26.26v1.17a.26.26,0,0,1-.08.18l-.09.09a.26.26,0,0,1,.17.24v1h.52v-.39a.26.26,0,0,1,.26-.26h1.17a.26.26,0,0,1,.13,0l1.17.65a.26.26,0,0,1,.13.23v.39h.52a.26.26,0,0,1,.23.14l.37.73,1.65,1.4a.26.26,0,0,1,.09.2v1a.26.26,0,0,1-.26.26h-1.4L668.43,38a.26.26,0,0,1-.23.14h-.78v.26a.26.26,0,0,1-.26.26h-.28l-.11,1.58a.26.26,0,0,1-.26.24h-.78V41a.26.26,0,0,1-.08.19l-1.56,1.43a.26.26,0,0,1-.18.07h-1.69a.26.26,0,0,1-.26-.26V42h-.78v.91a.26.26,0,0,1-.26.26h-.29l-.1.94a.26.26,0,0,1-.4.19l-1.82-1.17a.26.26,0,0,1-.09-.1l-.19-.38h-.75v.91a.26.26,0,0,1-.34.25l-2.08-.65a.26.26,0,0,1-.18-.21l-.09-.56h-1.47l-.11,0-1.17-.52a.26.26,0,0,1-.15-.24v-.26h-1.82a.26.26,0,0,1-.26-.26V41h-.26v1.17a.26.26,0,0,1-.08.19l-1.61,1.48v.8A.26.26,0,0,1,647.4,44.88Zm-.52-.52h.26v-.65a.26.26,0,0,1,.08-.19L648.83,42V40.72a.26.26,0,0,1,.26-.26h.78a.26.26,0,0,1,.26.26v.13h1.82a.26.26,0,0,1,.26.26v.35l1,.43h1.63a.26.26,0,0,1,.26.22l.1.62,1.59.5v-.82a.26.26,0,0,1,.26-.26h1.17a.26.26,0,0,1,.23.14l.23.46,1.41.9.08-.75a.26.26,0,0,1,.26-.23h.26v-.91a.26.26,0,0,1,.26-.26h1.3a.26.26,0,0,1,.26.26v.39h1.33l1.4-1.28V40.2a.26.26,0,0,1,.26-.26h.8l.11-1.58a.26.26,0,0,1,.26-.24h.26v-.26a.26.26,0,0,1,.26-.26H668l.71-1.42A.26.26,0,0,1,669,36h1.3v-.66L668.67,34a.26.26,0,0,1-.06-.08l-.32-.64h-.62a.26.26,0,0,1-.26-.26v-.5l-1-.54h-.84v.39a.26.26,0,0,1-.26.26h-1a.26.26,0,0,1-.26-.26v-1h-.26a.26.26,0,0,1-.18-.44l.44-.44v-.8h-.39v.39a.26.26,0,0,1-.26.26h-.65a.26.26,0,0,1-.21-.1l-.31-.42h-.39a.26.26,0,0,1-.18-.08l-.46-.46-1-.12a.26.26,0,0,1-.23-.26v-.26h-.39v.65h.26a.26.26,0,0,1,.26.26v1a.26.26,0,0,1-.26.26h-.93l-.44.44a.26.26,0,0,1-.37,0l-2.34-2.34a.26.26,0,0,1,0-.37l1-1v-.8h-.52v.26a.26.26,0,0,1-.26.26h-.91a.26.26,0,0,1-.26-.26v-.26h-.65a.26.26,0,0,1-.26-.26v-.91h-.26v.26a.26.26,0,0,1-.26.26h-.52a.26.26,0,0,1-.26-.26v-.15l-1.19-.11a.26.26,0,0,1-.16-.08l-.65-.65a.26.26,0,0,1-.08-.18v-.81l-.69-.1a.26.26,0,0,1-.2-.14l-.19-.38h-.1v.91a.26.26,0,0,1-.09.2l-.91.78a.26.26,0,0,1-.17.06h-.78a.26.26,0,0,1-.26-.26V24l-.52-.73h-1.17v.39h.39a.26.26,0,0,1,.26.26v.26a.26.26,0,0,1-.08.18l-1.3,1.3a.26.26,0,0,1-.18.08h-.78a.26.26,0,0,1-.26-.26h0l-1,.74a.26.26,0,0,1-.15,0h-.91v.26a.26.26,0,0,1-.26.26h-.77l-.7,1.05a.26.26,0,0,1-.22.12h-.78v.26a.26.26,0,0,1-.26.26h-.52a.26.26,0,0,1-.21-.1l-.23-.3-1.22,1a.26.26,0,0,1-.16.06h-.69l-.71.59a.26.26,0,0,1-.4-.08l-.19-.38h-.49v.58l.32.08a.26.26,0,0,1,.19.2l.11.57,1.5,1.5a.26.26,0,0,1,.08.18v1a.26.26,0,0,1-.26.26h-.26v.58l.32.08a.26.26,0,0,1,.2.25v.91h.26a.26.26,0,0,1,.26.26v.79l1.15,1,1,.12a.26.26,0,0,1,.23.26v.83l.52.73h.91a.26.26,0,0,1,.26.26V41l2.15.6a.26.26,0,0,1,.19.25v.91h.78a.26.26,0,0,1,.26.23l.11.91.74.42h.84V44.1a.26.26,0,0,1,.26-.26h.91a.26.26,0,0,1,.26.26Z"/><path class="cls-1" d="M313.24,367.37h-2.31a.26.26,0,0,1-.23-.14l-.26-.48H309a.26.26,0,0,1-.26-.23l-.06-.56h-.34v.46a.26.26,0,0,1-.25.26l-1,0a.26.26,0,0,1-.25-.16l-.24-.58-.7,0a.26.26,0,0,1-.22-.15l-.94-1.93-.7-.08-.84,2a.26.26,0,0,1-.24.16h-.89l0,.53a.26.26,0,0,1-.26.25h0l-4.18,0a.26.26,0,0,1-.26-.25l0-.51h-.47l0,1.25a.26.26,0,0,1-.26.25h-4.15a.26.26,0,0,1-.26-.22L292,366a.26.26,0,0,1,.07-.22l.78-.84a.26.26,0,0,1,.18-.08l2-.05.34-.57a.26.26,0,0,1,.22-.13h.07l-1.62-2A.26.26,0,0,1,294,362l0-.32-1,0a.26.26,0,0,1-.2-.1l-.67-.89a.26.26,0,0,1-.05-.16v-.56a.26.26,0,0,1,.26-.26h.44v-1.85h-1.08a.26.26,0,0,1-.26-.27l.06-1.2a.26.26,0,0,1,.08-.18l1.14-1.06,0-1-2.31,0a.26.26,0,0,1-.26-.26V352a.26.26,0,0,1,.07-.17l2.12-2.34a.26.26,0,0,1,.19-.09h.76l.08-.45a.26.26,0,0,1,.26-.22h4.88a.26.26,0,0,1,.21.11l.9,1.26,3.88.08a.26.26,0,0,1,.25.26v.43h.43v-1.14a.26.26,0,0,1,.25-.26l1,0V349a.26.26,0,0,1,.26-.26h1l1-2.19a.26.26,0,0,1,.24-.15h7.88v-1.08a.26.26,0,0,1,.26-.26h4a.26.26,0,0,1,.15.05l.84.62h.33L321,345a.26.26,0,0,1,0-.14l0-1.84a.26.26,0,0,1,.26-.26H322l.45-.7a.26.26,0,0,1,.22-.12h2a.26.26,0,0,1,.26.24l.13,1.91.49.19a.26.26,0,0,1,.16.23l.11,1.85,1.43,1.29a.26.26,0,0,1-.17.45h-2.53v2a.26.26,0,0,1-.25.26l-2.14.05-1.71,2.11a.26.26,0,0,1-.19.1l-1.51.07V353a.26.26,0,0,1-.25.26l-.91,0,0,.49a.26.26,0,0,1-.26.27h-.66l0,1.77h1a.26.26,0,0,1,.26.26l0,3.68a.26.26,0,0,1-.26.26h-2l-.4.63a.26.26,0,0,1-.22.12h-.76l-.16.49a.26.26,0,0,1-.25.18h-1.05v3.81l.48.48a.26.26,0,0,1,.08.18l0,1.17a.26.26,0,0,1-.26.27Zm-2.16-.52H313l0-.8-.48-.48a.26.26,0,0,1-.08-.18V361.2a.26.26,0,0,1,.26-.26h1.12l.16-.49a.26.26,0,0,1,.25-.18h.8l.4-.63a.26.26,0,0,1,.22-.12h1.88l0-3.16h-1a.26.26,0,0,1-.26-.26l0-2.29a.26.26,0,0,1,.26-.26h.65l0-.48a.26.26,0,0,1,.25-.27l.92,0v-.36a.26.26,0,0,1,.25-.26l1.64-.08,1.71-2.11a.26.26,0,0,1,.2-.1l2,0v-2a.26.26,0,0,1,.26-.26h2.11l-1-.91a.26.26,0,0,1-.08-.18l-.1-1.79-.49-.19a.26.26,0,0,1-.16-.22l-.12-1.83h-1.62l-.45.7a.26.26,0,0,1-.22.12h-.71l0,1.5.66,1a.26.26,0,0,1-.21.4l-.88,0a.26.26,0,0,1-.16-.05l-.84-.62h-3.69v1.08a.26.26,0,0,1-.26.26h-8l-1,2.19a.26.26,0,0,1-.24.15h-.94v.44a.26.26,0,0,1-.25.26l-1,0v1.14a.26.26,0,0,1-.25.26l-.95,0a.25.25,0,0,1-.19-.07.26.26,0,0,1-.08-.19v-.44l-3.76-.08a.26.26,0,0,1-.21-.11l-.9-1.26h-4.53l-.08.45a.26.26,0,0,1-.26.22h-.86l-2,2.18v1.48l2.31,0a.26.26,0,0,1,.26.25l0,1.37a.26.26,0,0,1-.08.2l-1.15,1.07,0,.82H293a.26.26,0,0,1,.26.26v2.37a.26.26,0,0,1-.26.26h-.44v.21l.54.72,1.16,0a.26.26,0,0,1,.25.25l0,.47,1.9,2.39a.26.26,0,0,1-.2.42h-.47l-.34.57a.26.26,0,0,1-.22.13l-2,.05-.62.66.12.77h3.68l0-1.26a.26.26,0,0,1,.26-.25h0l1,0a.26.26,0,0,1,.25.25l0,.5,3.68,0,0-.53a.26.26,0,0,1,.26-.25h1l.85-2a.26.26,0,0,1,.27-.16l1,.11a.26.26,0,0,1,.21.14l.94,1.93.71,0a.26.26,0,0,1,.22.16l.24.56.55,0v-.47a.26.26,0,0,1,.08-.19.26.26,0,0,1,.19-.07l.84,0a.26.26,0,0,1,.25.23l.06.55h1.36a.26.26,0,0,1,.23.14Z"/><path class="cls-1" d="M258.69,515.39l-.74-1.42a.26.26,0,0,0-.23-.14l-2.11,0a.28.28,0,0,0-.19.07.26.26,0,0,0-.08.18v.39h-.52v-.62l.62-.7a.26.26,0,0,0-.06-.39L254.2,512v-1.1a.26.26,0,0,0-.26-.26h-.33v-1.47a.26.26,0,0,0-.06-.16l-.62-.76a.26.26,0,0,0-.2-.1h-.82l-.91-.54v-1.66a.26.26,0,0,0-.26-.26h-.3v-.88a.26.26,0,0,0-.09-.2l-1.6-1.36a.26.26,0,0,0-.35,0l-.61.62h-.55v-.28l1.2-.9a.26.26,0,0,0,.1-.22l-.05-1.26.61-.49a.26.26,0,0,0,.1-.2v-.73l.49-.28a.26.26,0,0,0,.13-.23v-1.42a.26.26,0,0,0-.08-.18.25.25,0,0,0-.19-.08l-3.53,0h-.33l.31-.8,1.35-1.17a.26.26,0,0,0,.09-.16l.39-2.49a.26.26,0,0,0-.4-.25l-2.34,1.59h-1.73a.26.26,0,0,0-.26.26V497h-.93a.26.26,0,0,0-.26.26v1.55h-.25v-1.13a.26.26,0,0,0-.46-.17l-.74.86a.26.26,0,0,0-.06.17V500a.26.26,0,0,0,.25.26l1.33.08v.36l-1.62.05a.26.26,0,0,0-.14.47l1.77,1.26,0,.49-1.15,0a.27.27,0,0,0-.19.07.26.26,0,0,0-.08.19v1.75a.26.26,0,0,0,.26.26h.56a.26.26,0,0,0,.26-.26v-.59h.44l.08,1.82a.26.26,0,0,0,.44.18l.86-.83a.26.26,0,0,0,.08-.19v-.74H244l0,1.66-.53,0a.26.26,0,0,0-.25.28l.06.86a.26.26,0,0,0,.17.23l1.81.68a.26.26,0,0,0,.35-.23l0-.39.9,0,.08,1.42a.26.26,0,0,0,.08.18l1,.88,0,2.83h-1.85l-.59-.45a.26.26,0,0,0-.41.14l-.55,2a.26.26,0,0,0,.23.33l.73,0,0,1.8-1.11,0a.27.27,0,0,0-.19.08.26.26,0,0,0-.07.2l0,.49H242.7a.26.26,0,0,0-.18.45l1,.92a.27.27,0,0,0,.19.07l1.22-.06,1.79,1a.26.26,0,0,0,.13,0h.83a.26.26,0,0,0,.26-.26v-.05l.42,0-.73.87-1,0v-.28a.26.26,0,0,0-.08-.19.25.25,0,0,0-.19-.07l-1,.06a.26.26,0,0,0-.24.27l0,.84-2.55,2.64-.79,0a.26.26,0,0,0-.25.27l0,.56a.26.26,0,0,0,.19.24l1.31.39h.07a.26.26,0,0,0,.21-.11l.93-1.29,1.5,0,.2.55a.26.26,0,0,0,.38.13l1.1-.71a.26.26,0,0,0,.12-.22l0-.92h2.85a.26.26,0,0,0,.26-.26v-.44l.75,0,0,.43a.26.26,0,0,0,.26.24h.65a.26.26,0,0,0,.26-.26v-.3h3.21a.26.26,0,0,0,.14,0l2-1.31a.26.26,0,0,0,.12-.23l-.06-1.22a.26.26,0,0,0-.26-.25h-.91l1.09-1.49a.26.26,0,0,0,.05-.15v-1.79h.45a.26.26,0,0,0,.23-.38Zm-.94-.14a.26.26,0,0,0-.26.26v2l-1.34,1.83a.26.26,0,0,0,.21.41h1.18l0,.82-1.83,1.18h-3.4a.26.26,0,0,0-.26.26v.3h-.16l0-.42a.26.26,0,0,0-.25-.24l-1.25-.06a.27.27,0,0,0-.19.07.26.26,0,0,0-.08.19v.45h-2.86a.26.26,0,0,0-.26.27l0,1-.7.46-.15-.41a.26.26,0,0,0-.24-.17l-1.81,0a.28.28,0,0,0-.21.11l-.9,1.25-1-.28v-.12l.63,0a.26.26,0,0,0,.18-.08l2.7-2.79a.26.26,0,0,0,.07-.19l0-.7.45,0v.26a.26.26,0,0,0,.25.26l1.42.06a.26.26,0,0,0,.21-.09l1.16-1.37a.26.26,0,0,0-.19-.43l-1.22-.06a.26.26,0,0,0-.27.26v.07h-.5l-1.79-1a.26.26,0,0,0-.14,0l-1.19.05-.43-.4h.69a.26.26,0,0,0,.26-.28l0-.49,1.08,0h0a.26.26,0,0,0,.26-.25l.06-2.31a.26.26,0,0,0-.24-.27l-.66,0,.36-1.31.36.27a.26.26,0,0,0,.16.05h2.2a.26.26,0,0,0,.26-.26l0-3.2a.26.26,0,0,0-.08-.19l-1-.89-.08-1.55a.26.26,0,0,0-.25-.25l-1.39-.06a.26.26,0,0,0-.27.25v.3l-1.32-.5,0-.43.5,0a.26.26,0,0,0,.25-.26l0-2.17a.26.26,0,0,0-.25-.26l-1,0a.25.25,0,0,0-.19.07.26.26,0,0,0-.08.19v.9l-.37.35-.06-1.49a.26.26,0,0,0-.26-.25h-.95a.26.26,0,0,0-.26.26v.59h0v-1.22l1.16,0a.26.26,0,0,0,.19-.08.26.26,0,0,0,.07-.19l0-.89a.26.26,0,0,0-.11-.2l-1.24-.89,1.1,0a.26.26,0,0,0,.25-.26v-.86a.26.26,0,0,0-.25-.26l-1.33-.08v-1.14l.22-.26v.7a.26.26,0,0,0,.26.26h.77a.26.26,0,0,0,.26-.26v-1.55h.93a.26.26,0,0,0,.26-.26v-2.38h1.55a.26.26,0,0,0,.15,0l1.91-1.3-.28,1.81-1.32,1.15a.26.26,0,0,0-.07.1l-.47,1.22a.26.26,0,0,0,.24.35H246l3.27,0v1l-.49.28a.26.26,0,0,0-.13.23v.76l-.62.49a.26.26,0,0,0-.1.21l.05,1.26-1.2.9a.26.26,0,0,0-.1.21v.67a.26.26,0,0,0,.26.26h.92a.26.26,0,0,0,.19-.08l.51-.53,1.33,1.12v1a.26.26,0,0,0,.26.26h.3v1.55a.26.26,0,0,0,.13.22l1.1.65a.26.26,0,0,0,.13,0h.77l.49.59v1.64a.26.26,0,0,0,.26.26h.33v1a.26.26,0,0,0,.12.22l1,.67-.48.54a.26.26,0,0,0-.07.17v1a.26.26,0,0,0,.26.26h1a.26.26,0,0,0,.26-.26v-.39l1.69,0,.47.91Z"/><path class="cls-1" d="M241.68,514.82l-.09-2.76a.26.26,0,0,0-.16-.23l-.26-.1,1.73-2.07a.26.26,0,0,0,.06-.17v-1.22a.26.26,0,0,0-.26-.26h-.32l-.82-1.61a.26.26,0,0,0-.23-.14h-1.56l-.12-.41a.26.26,0,0,0-.25-.19h-1.51a.26.26,0,0,0-.24.17l-.15.4-.8,0a.26.26,0,0,0-.21.12l-.68,1.07a.26.26,0,0,0,0,.15l0,.68a.26.26,0,0,0,.26.25h.18l-.66.85h-.8V509a.26.26,0,0,0-.26-.26h-.95a.26.26,0,0,0-.23.14l-.83,1.59a.26.26,0,0,0,.21.38l.31,0-.33.46a.26.26,0,0,0,0,.14l0,.8a.26.26,0,0,0,.12.23l1.13.72v1l-1.25.87a.26.26,0,0,0-.11.23l0,.93-.28,0a.26.26,0,0,0-.22.16l-.59,1.39a.26.26,0,0,0,.11.33l.38.21-.49,1a.26.26,0,0,0,.23.37H234a.26.26,0,0,0,.26-.26v-.33h1.37l.11,0,2.85-1.39a.26.26,0,0,0,.15-.22l0-.38h2a.26.26,0,0,0,.25-.18l.62-2A.26.26,0,0,0,241.68,514.82Zm-1.07,1.77h-2.09a.26.26,0,0,0-.26.25l0,.47-2.66,1.3H234a.26.26,0,0,0-.26.26v.33H232.1l.41-.84a.26.26,0,0,0-.11-.34l-.39-.21.44-1,.37,0a.26.26,0,0,0,.25-.27l-.05-1,1.25-.87a.26.26,0,0,0,.11-.21v-1.25a.26.26,0,0,0-.12-.22l-1.12-.72,0-.58.55-.77a.26.26,0,0,0-.19-.41l-.38,0,.57-1.1h.53v.35a.26.26,0,0,0,.26.26h1.19a.26.26,0,0,0,.2-.1l1.07-1.37a.26.26,0,0,0-.2-.42h-.46l0-.35.56-.88.84,0a.26.26,0,0,0,.24-.17l.15-.39h1.14l.12.41a.26.26,0,0,0,.25.19h1.59l.82,1.61a.26.26,0,0,0,.23.14h.21v.86l-1.9,2.27a.26.26,0,0,0,.1.41l.44.17.08,2.55Z"/><path class="cls-1" d="M1163.5,486.2H1130a.26.26,0,0,0-.26.26v22.12a.26.26,0,0,0,.26.26h33.49a.26.26,0,0,0,.26-.26V486.46A.26.26,0,0,0,1163.5,486.2Zm-.26,21.33-10.11-6.74h10.11Zm-15.54-8.64v9.44h-2v-9.44a.26.26,0,0,0-.26-.26h-15.14v-2.11h15.14a.26.26,0,0,0,.26-.26v-9.54h2v9.54a.26.26,0,0,0,.26.26h15.28v2.11H1148A.26.26,0,0,0,1147.7,498.89Zm-17.43,1.86a.26.26,0,0,0,.14,0h10l-10.1,6.73Zm0-13.18,10.1,6.73h-10.1Zm33,6.73h-10.11l10.11-6.74Zm0-7.37-11.12,7.41a.26.26,0,0,0,.14.48h11V496h-15v-9.28h1.29a.26.26,0,0,0,0,.1v5.66a.26.26,0,0,0,.4.22l9-6h4.39Zm-13.25-.21h7.92L1150,492v-5.17A.26.26,0,0,0,1150,486.72Zm-6.48,0a.26.26,0,0,0,0,.1V492l-7.9-5.27Zm-8.86,0,9,6a.26.26,0,0,0,.4-.22v-5.66a.26.26,0,0,0,0-.1h1.16V496h-14.88v-1.18h11a.26.26,0,0,0,.14-.48l-11.1-7.4v-.23Zm-4.38,21.42,11.1-7.4a.26.26,0,0,0-.14-.48H1130.4a.26.26,0,0,0-.14,0v-1.16h14.88v9.18H1144a.26.26,0,0,0,0-.05v-5.66a.26.26,0,0,0-.4-.22l-8.87,5.91h-4.46Zm13.22.18h-7.84l7.83-5.22v5.17A.26.26,0,0,0,1143.49,508.32Zm6.51,0a.26.26,0,0,0,0-.05V503.1l7.83,5.22Zm8.77,0h0l-8.87-5.91a.26.26,0,0,0-.4.22v5.66a.26.26,0,0,0,0,.05h-1.27v-9.18h15v1.12h-11a.26.26,0,0,0-.14.48l11.12,7.41v.17Z"/><path class="cls-1" d="M53.75,434.93H20.26a.26.26,0,0,0-.26.26v22.12a.26.26,0,0,0,.26.26H53.75a.26.26,0,0,0,.26-.26V435.19A.26.26,0,0,0,53.75,434.93Zm-.26.52V446h-33V435.45Zm-33,21.6V446.51h33v10.54Z"/><path class="cls-1" d="M300.94,49.46H267.45a.26.26,0,0,0-.26.26V71.84a.26.26,0,0,0,.26.26h33.49a.26.26,0,0,0,.26-.26V49.72A.26.26,0,0,0,300.94,49.46Zm-33.23,15.3h33v1.91h-33Zm14.59-9.69h18.39V57H282.3Zm0,2.43h18.39v1.91H282.3Zm18.39-2.95H282.3V52.63h18.39ZM282.3,59.91h18.39v1.91H282.3Zm18.39,2.43v1.91h-33V62.33h33Zm-33,4.84h33v1.91h-33Zm33-15.06H282.3V50h18.39ZM281.78,50V61.82H267.71V50Zm-14.07,21.6v-2h33v2Z"/><circle class="cls-1" cx="270" cy="59.32" r="0.43"/><circle class="cls-1" cx="272.36" cy="59.32" r="0.43"/><circle class="cls-1" cx="274.71" cy="59.32" r="0.43"/><circle class="cls-1" cx="277.07" cy="59.32" r="0.43"/><circle class="cls-1" cx="279.42" cy="59.32" r="0.43"/><circle class="cls-1" cx="268.82" cy="60.46" r="0.43"/><circle class="cls-1" cx="271.18" cy="60.46" r="0.43"/><circle class="cls-1" cx="273.53" cy="60.46" r="0.43"/><circle class="cls-1" cx="275.89" cy="60.46" r="0.43"/><circle class="cls-1" cx="278.24" cy="60.46" r="0.43"/><circle class="cls-1" cx="280.6" cy="60.46" r="0.43"/><circle class="cls-1" cx="268.82" cy="58.18" r="0.43"/><circle class="cls-1" cx="271.18" cy="58.18" r="0.43"/><circle class="cls-1" cx="273.53" cy="58.18" r="0.43"/><circle class="cls-1" cx="275.89" cy="58.18" r="0.43"/><circle class="cls-1" cx="278.24" cy="58.18" r="0.43"/><circle class="cls-1" cx="280.6" cy="58.18" r="0.43"/><circle class="cls-1" cx="270" cy="57.04" r="0.43"/><circle class="cls-1" cx="272.36" cy="57.04" r="0.43"/><circle class="cls-1" cx="274.71" cy="57.04" r="0.43"/><circle class="cls-1" cx="277.07" cy="57.04" r="0.43"/><circle class="cls-1" cx="279.42" cy="57.04" r="0.43"/><circle class="cls-1" cx="268.82" cy="55.9" r="0.43"/><circle class="cls-1" cx="271.18" cy="55.9" r="0.43"/><circle class="cls-1" cx="273.53" cy="55.9" r="0.43"/><circle class="cls-1" cx="275.89" cy="55.9" r="0.43"/><circle class="cls-1" cx="278.24" cy="55.9" r="0.43"/><circle class="cls-1" cx="280.6" cy="55.9" r="0.43"/><circle class="cls-1" cx="270" cy="54.76" r="0.43"/><circle class="cls-1" cx="272.36" cy="54.76" r="0.43"/><circle class="cls-1" cx="274.71" cy="54.76" r="0.43"/><circle class="cls-1" cx="277.07" cy="54.76" r="0.43"/><circle class="cls-1" cx="279.42" cy="54.76" r="0.43"/><circle class="cls-1" cx="268.82" cy="53.62" r="0.43"/><circle class="cls-1" cx="271.18" cy="53.62" r="0.43"/><circle class="cls-1" cx="273.53" cy="53.62" r="0.43"/><circle class="cls-1" cx="275.89" cy="53.62" r="0.43"/><circle class="cls-1" cx="278.24" cy="53.62" r="0.43"/><circle class="cls-1" cx="280.6" cy="53.62" r="0.43"/><circle class="cls-1" cx="270" cy="52.48" r="0.43"/><circle class="cls-1" cx="272.36" cy="52.48" r="0.43"/><circle class="cls-1" cx="274.71" cy="52.48" r="0.43"/><circle class="cls-1" cx="277.07" cy="52.48" r="0.43"/><circle class="cls-1" cx="279.42" cy="52.48" r="0.43"/><circle class="cls-1" cx="268.82" cy="51.34" r="0.43"/><circle class="cls-1" cx="271.18" cy="51.34" r="0.43"/><circle class="cls-1" cx="273.53" cy="51.34" r="0.43"/><circle class="cls-1" cx="275.89" cy="51.34" r="0.43"/><circle class="cls-1" cx="278.24" cy="51.34" r="0.43"/><circle class="cls-1" cx="280.6" cy="51.34" r="0.43"/><path class="cls-1" d="M799.24,408.28H765.75a.26.26,0,0,0-.26.26v7.19h0v14.93a.26.26,0,0,0,.26.26h33.49a.26.26,0,0,0,.26-.26V408.54A.26.26,0,0,0,799.24,408.28ZM766,416h6v4.72a4.8,4.8,0,0,0,.37,1.88q.07.18.16.34H766Zm15.37,4.72a4.37,4.37,0,0,1-.19,1.28,9.63,9.63,0,0,0-1.45.14,3.4,3.4,0,0,0-2.18-1.37l-.32,0v-1.65h1.36a.26.26,0,1,0,0-.52h-1.36V417H778a.26.26,0,1,0,0-.52h-.75v-1a.26.26,0,0,0-.26-.26h0a.26.26,0,0,0-.26.26v1H776a.26.26,0,1,0,0,.52h.75v1.51h-1.37a.26.26,0,0,0,0,.52h1.37v1.65l-.32,0a3.4,3.4,0,0,0-2.18,1.38,13.52,13.52,0,0,0-1.45-.14,4.37,4.37,0,0,1-.19-1.28v-7.15h8.8ZM773,422.54a8,8,0,0,1,1.26.14.26.26,0,0,0,.31-.1,2.88,2.88,0,0,1,1.94-1.3,2.81,2.81,0,0,1,1,0,2.88,2.88,0,0,1,1.94,1.3.26.26,0,0,0,.22.12l.09,0a6.42,6.42,0,0,1,1.26-.15c-.43.92-1.48,2.15-4,3C774.46,424.68,773.41,423.46,773,422.54Zm8.55.06h0a4.8,4.8,0,0,0,.37-1.88V416H799v6.95H781.36Q781.45,422.78,781.53,422.6ZM799,408.8v6.67H781.9v-2.16a.26.26,0,0,0-.26-.26h-9.32a.26.26,0,0,0-.26.26v2.16h-6V408.8Zm-33,21.6v-6.95h6.91a8,8,0,0,0,4,2.6h.16a8,8,0,0,0,4-2.6H799v6.95Z"/><path class="cls-1" d="M888.81,114.39H855.17l0,0,0,0h0l0,0v.12h0v22.12h0v.12l0,0h0l0,0h0l0,0h33.61a.26.26,0,0,0,.26-.26V114.65A.26.26,0,0,0,888.81,114.39Zm-.26,11.06H868.82L856,114.91h32.51Zm-33-10.25,12.73,10.51-12.73,10.51Zm.46,21.31L868.82,126h19.74v10.54Z"/><path class="cls-1" d="M1086.71,40.51h-33.49a.26.26,0,0,0-.26.26V48h0V62.89a.26.26,0,0,0,.26.26h33.49a.26.26,0,0,0,.26-.26V40.77A.26.26,0,0,0,1086.71,40.51Zm-33.23,7.71h7v.4c0,.81.43,1.93,2.48,2.68l.09,0,.09,0c2-.76,2.48-1.88,2.48-2.68v-.4h20.84v6.95h-33ZM1065,49a1,1,0,0,0-.65.25.45.45,0,0,1-.65,0,1,1,0,0,0-1.3,0,.45.45,0,0,1-.65,0,1,1,0,0,0-.65-.25h0l.83-1.12.23.31a.26.26,0,0,0,.44,0l.48-.9.45.9a.26.26,0,0,0,.44,0l.24-.33L1065,49Zm-3.57.66a1,1,0,0,0,1.3,0,.45.45,0,0,1,.65,0,1,1,0,0,0,1.3,0l.11-.08a3.66,3.66,0,0,1-1.72,1.18,3.85,3.85,0,0,1-1.69-1.14Zm3.69-1.44-.7-.94a.26.26,0,0,0-.21-.1h0a.26.26,0,0,0-.21.11l-.19.27-.49-1a.26.26,0,0,0-.23-.14.27.27,0,0,0-.23.14l-.52,1-.2-.26a.26.26,0,0,0-.21-.1h0a.26.26,0,0,0-.21.1l-.69.93v-3.1h4.09ZM1086.45,41V47.7h-20.84V44.63h-5.13V47.7h-7V41Zm-33,21.6V55.69h33v6.95Z"/><path class="cls-1" d="M1063,46.25a.2.2,0,0,0,0-.39A.2.2,0,0,0,1063,46.25Z"/><path class="cls-1" d="M1063.82,45.73a.2.2,0,0,0,0-.39A.2.2,0,0,0,1063.82,45.73Z"/><path class="cls-1" d="M1062.26,45.73a.2.2,0,0,0,0-.39A.2.2,0,0,0,1062.26,45.73Z"/><path class="cls-1" d="M229.84,223.92l-1.56-1.56a2.47,2.47,0,0,0-3.49,0L217,230.14l-9.34,9.34a.26.26,0,0,0-.07.13l-1.53,4.59-.42.42a.26.26,0,0,0,.37.37l.42-.42L211,243a.26.26,0,0,0,.13-.07l9.34-9.34,7.78-7.78a2.46,2.46,0,0,0,.7-2.06l.49.49a2.07,2.07,0,0,1,.09,2.85l-7.78,7.78a.26.26,0,0,0,.37.37l7.78-7.78A2.57,2.57,0,0,0,229.84,223.92ZM211,242.41l-2.76-2.76,9-9,2.76,2.76Zm-4.27,1.52,1.26-3.79,2.53,2.53Zm21.2-18.45-7.59,7.59-2.76-2.76,7.59-7.59a1.95,1.95,0,0,1,2.76,2.76Z"/><path class="cls-1" d="M524.5,408.26H504.05a.29.29,0,0,0-.29.29v1.07h-6.32a.29.29,0,0,0-.29.29v25.72a.29.29,0,0,0,.29.29h20.45a.29.29,0,0,0,.29-.29v-1.17h6.33a.29.29,0,0,0,.29-.29V408.56A.29.29,0,0,0,524.5,408.26Zm-6.91,27.08H497.73V410.21h19.86Zm6.62-1.47h-6v-4.41h3.39a.29.29,0,1,0,0-.59h-3.39v-1.54h3.39a.29.29,0,1,0,0-.59h-3.39v-1.51h3.39a.29.29,0,1,0,0-.59h-3.39v-1.51h.71a.29.29,0,0,0,0-.59h-.71v-1.5h3.39a.29.29,0,1,0,0-.59h-3.39V418.9h3.39a.29.29,0,1,0,0-.59h-3.39v-1.49h3.39a.29.29,0,1,0,0-.59h-3.39v-1.55h3.54a.29.29,0,0,0,0-.59h-3.54v-1.55h3.54a.29.29,0,0,0,0-.59h-3.54v-2a.29.29,0,0,0-.29-.29H504.34v-.77h19.86Z"/><path class="cls-1" d="M515.11,413.31H500.33a.29.29,0,1,0,0,.59h14.78a.29.29,0,1,0,0-.59Z"/><path class="cls-1" d="M515.11,417.56H500.33a.29.29,0,1,0,0,.59h14.78a.29.29,0,1,0,0-.59Z"/><path class="cls-1" d="M500.33,420.23h10a.29.29,0,0,0,0-.59h-10a.29.29,0,1,0,0,.59Z"/><path class="cls-1" d="M515.11,419.65h-3.68a.29.29,0,0,0,0,.59h3.68a.29.29,0,1,0,0-.59Z"/><path class="cls-1" d="M515.11,421.76h-8.43a.29.29,0,1,0,0,.59h8.43a.29.29,0,1,0,0-.59Z"/><path class="cls-1" d="M500.33,422.34h5.27a.29.29,0,0,0,0-.59h-5.27a.29.29,0,1,0,0,.59Z"/><path class="cls-1" d="M515.11,426h-10a.29.29,0,0,0,0,.59h10a.29.29,0,1,0,0-.59Z"/><path class="cls-1" d="M500.33,426.57H504a.29.29,0,0,0,0-.59h-3.68a.29.29,0,1,0,0,.59Z"/><path class="cls-1" d="M515.11,428.68a.29.29,0,1,0,0-.59h-5a.29.29,0,0,0,0,.59Z"/><path class="cls-1" d="M500.33,428.68h8.41a.29.29,0,1,0,0-.59h-8.41a.29.29,0,1,0,0,.59Z"/><path class="cls-1" d="M515.11,430.2H500.33a.29.29,0,1,0,0,.59h14.78a.29.29,0,1,0,0-.59Z"/><path class="cls-1" d="M509.67,432.32h-9.35a.29.29,0,1,0,0,.59h9.35a.29.29,0,1,0,0-.59Z"/><path class="cls-1" d="M33.75,202.23H.26a.26.26,0,0,0-.26.26v7.19H0v14.93a.26.26,0,0,0,.26.26H33.75a.26.26,0,0,0,.26-.26V202.49A.26.26,0,0,0,33.75,202.23ZM.52,209.94H6.61v6.48c0,.16,0,.31,0,.46H.52Zm6.61,6.48v-6.48H16v6.48a4.42,4.42,0,0,1-8.84,0ZM8.21,208l1.24.87a.26.26,0,0,0,.3,0l1.8-1.31,1.8,1.31a.26.26,0,0,0,.3,0l1.24-.87-.34,1.44h-6Zm3.6-1.73a3.17,3.17,0,0,1,2.47,1.52l-.78.55-1.69-1.23Zm-.52.83L9.6,208.32l-.78-.55a3.2,3.2,0,0,1,2.47-1.52Zm5.2,9.34v-6.48h17v6.95h-17C16.48,216.74,16.48,216.58,16.48,216.43Zm17-13.67v6.67H15.08l.47-2a.26.26,0,0,0-.4-.27l-.44.31a3.69,3.69,0,0,0-2.9-1.74v-.45a.26.26,0,0,0-.52,0v.45a3.72,3.72,0,0,0-2.9,1.74L8,207.16a.26.26,0,0,0-.4.27l.47,2H.52v-6.67Zm-33,21.6v-6.95H6.71a4.94,4.94,0,0,0,9.68,0H33.49v6.95Z"/><path class="cls-1" d="M8.78,217.35a.26.26,0,0,0,.14,0l.11,0,1.43-.63a1.69,1.69,0,0,0,.83.41V219a.26.26,0,1,0,.52,0v-1.87a1.7,1.7,0,0,0,.83-.41l1.43.63.11,0a.26.26,0,0,0,.26-.26v-3.44c0-.54-.7-.9-1.17-.9a.93.93,0,0,0-.67.28H12l.34-1H13a.26.26,0,1,0,0-.52h-.82a.26.26,0,0,0-.25.18l-.38,1.17-.38-1.17a.26.26,0,0,0-.25-.18H10.1a.26.26,0,1,0,0,.52h.63l.34,1H10.5a.93.93,0,0,0-.67-.28c-.47,0-1.17.36-1.17.9v3.44A.26.26,0,0,0,8.78,217.35Zm4.48-4c.29,0,.65.23.65.38v3l-1.06-.47v-2.57A.39.39,0,0,1,13.26,213.31Zm-2.5.28h1.57v2.72a1.09,1.09,0,0,1-1.57,0v-2.72Zm-1.58.1c0-.14.36-.38.65-.38a.39.39,0,0,1,.41.38v2.57l-1.06.47Z"/><path class="cls-1" d="M947.86,253.94a.4.4,0,0,0-.57.06l-2.42,3a11.66,11.66,0,0,0-22.6-2.84.4.4,0,1,0,.76.27,10.86,10.86,0,0,1,21.05,2.9l-3.58-2.26a.4.4,0,1,0-.43.68l4.23,2.67,0,0,0,0h.26l.06,0,0,0,0,0,0,0,0,0,3.09-3.83A.4.4,0,0,0,947.86,253.94Z"/><path class="cls-1" d="M944,261.53a.4.4,0,0,0-.51.24,10.86,10.86,0,0,1-21.05-2.9l3.58,2.26a.4.4,0,1,0,.43-.68l-4.23-2.67-.08,0h0l-.1,0h-.15l-.09,0h0l-.08.07h0l-3.09,3.83a.4.4,0,0,0,.63.5l2.42-3a11.66,11.66,0,0,0,22.6,2.84A.4.4,0,0,0,944,261.53Z"/><path class="cls-1" d="M54.13,25.28a.26.26,0,0,1-.17-.06l-2.39-2a.26.26,0,0,1-.09-.2V21.56l-1.78-.09-.09.83a.26.26,0,0,1-.4.19l-1.44-1a.26.26,0,0,1-.12-.23l.1-1.52-5.59-.11a.26.26,0,0,1-.25-.22l-.09-.63-1.58-.11a.26.26,0,0,1-.24-.22l-.09-.63-1.47-.1a.26.26,0,0,1-.15-.06L36,15.77a.26.26,0,0,1-.09-.17l-.11-.86-.76-.65a.26.26,0,0,1-.09-.19l-.11-2.38h-.59a.26.26,0,0,1-.26-.26V8.75a.26.26,0,0,1,.26-.26h.58V5a.26.26,0,0,1,.26-.26h.7V1.22a.26.26,0,0,1,.43-.2l.91.77h.44l.4-.7A.26.26,0,0,1,38.22,1H39.3a.26.26,0,0,1,.24.16l.29.69,3.54.11a.26.26,0,0,1,.24.19l.19.65,15.36.12a.26.26,0,0,1,.26.26v.48a.26.26,0,0,1-.14.23l-.81.41v.42h.7a.26.26,0,0,1,.21.11L60.2,6a.26.26,0,0,1,0,.15V8.49H61.4V5.86a.26.26,0,0,1,.06-.17l.82-.94a.26.26,0,0,1,.2-.09.26.26,0,0,1,.2.09l1.7,2a.26.26,0,0,1,.06.17V8.1h.48l3.3-2.7V4.09a.26.26,0,0,1,.26-.26H70l2-2.35V.26a.26.26,0,0,1,.43-.2l1.44,1.2a.26.26,0,0,1,.09.2V2.53a.26.26,0,0,1-.06.17l-.72.84-.07.06-.94.52V6.36a.26.26,0,0,1-.12.22l-.83.52v3.8a.26.26,0,0,1-.12.22l-.83.52v.55H71a.26.26,0,0,1,.26.26v1.32a.26.26,0,0,1-.12.22l-1,.6a.26.26,0,0,1-.14,0h-.92l.1,1.76a.26.26,0,0,1-.09.21l-1,.84-1.1.88.1,1.29L69,20.73a.26.26,0,0,1,.12.22v2.87a.26.26,0,0,1-.41.21l-2.27-1.67a.26.26,0,0,1-.1-.19l-.1-1.23-1.47-.21a.26.26,0,0,1-.22-.23l-.09-.94-.88.08-.19.67a.26.26,0,0,1-.14.16l-2,1-.1,0-4.83.24-.78.55-.09,0-.88.2L54.39,25a.26.26,0,0,1-.16.23ZM52,22.87l1.9,1.61.1-2.22a.26.26,0,0,1,.2-.24l1-.23.79-.57a.26.26,0,0,1,.14,0L61,20.94l1.88-.88.21-.72a.26.26,0,0,1,.23-.19L64.63,19a.26.26,0,0,1,.28.23l.1,1,1.47.21a.26.26,0,0,1,.22.24L66.82,22l1.76,1.3V21.1L66.79,20a.26.26,0,0,1-.12-.2l-.12-1.56a.26.26,0,0,1,.1-.22l1.2-1,.85-.75-.11-1.91a.26.26,0,0,1,.26-.28H70l.77-.48v-.91H70a.26.26,0,0,1-.26-.26v-1a.26.26,0,0,1,.12-.22l.83-.52V7a.26.26,0,0,1,.12-.22l.83-.52V4a.26.26,0,0,1,.13-.23l1-.58.62-.73V1.58L72.57.81v.76a.26.26,0,0,1-.06.17L70.35,4.26a.26.26,0,0,1-.2.09H68.74V5.52a.26.26,0,0,1-.1.2L65.18,8.56a.26.26,0,0,1-.16.06h-.84a.26.26,0,0,1-.26-.26V7.05L62.48,5.33,61.92,6V8.75a.26.26,0,0,1-.26.26H60a.26.26,0,0,1-.26-.26V6.2l-.71-1h-.82a.26.26,0,0,1-.26-.26V4.09a.26.26,0,0,1,.14-.23l.81-.41V3.39L43.6,3.27a.26.26,0,0,1-.25-.19l-.19-.66-3.52-.11a.26.26,0,0,1-.23-.16l-.29-.68h-.76l-.4.7a.26.26,0,0,1-.22.13h-.69a.25.25,0,0,1-.17-.06l-.56-.47V5a.26.26,0,0,1-.26.26h-.7V8.75a.26.26,0,0,1-.26.26h-.58v2h.58a.26.26,0,0,1,.26.25l.11,2.52.75.64a.26.26,0,0,1,.09.17l.11.86,2.13,1.79,1.59.11a.26.26,0,0,1,.24.22l.09.63,1.58.11a.26.26,0,0,1,.24.22l.09.62,5.64.11a.26.26,0,0,1,.25.28l-.11,1.64,1,.64.07-.65a.26.26,0,0,1,.27-.23l2.27.12a.26.26,0,0,1,.25.26Z"/><path class="cls-1" d="M650.43,534.53H648a.26.26,0,0,1-.19-.09l-1.22-1.34h-1.73l-.57.57a.26.26,0,0,1-.35,0l-.84-.72H642l-.11,1.32a.26.26,0,0,1-.26.24h-1.17a.26.26,0,0,1-.26-.23l-.11-1.07h-1.44l-.31.52a.26.26,0,0,1-.42,0l-2.78-3.16h-.66a.26.26,0,0,1-.26-.26v-1.19l-1.19-.11a.26.26,0,0,1-.2-.13l-.45-.78h-.53l-.08.63.62.31a.26.26,0,0,1,.07.42l-1,1a.26.26,0,0,1-.42-.07l-1-2.08a.26.26,0,0,1,0-.25l.54-.91h-2a.26.26,0,0,1-.2-.09l-1.15-1.38-1.1.77a.26.26,0,0,1-.41-.21v-1.17a.26.26,0,0,1,.09-.2l.69-.57v-1h-.52a.26.26,0,0,1-.23-.14l-1-1.95a.26.26,0,0,1,.13-.36l.75-.32v-1.11l-.78-.45a.26.26,0,0,1,0-.44l.8-.57v-.52h-.65a.26.26,0,0,1-.18-.08l-.91-.91a.26.26,0,0,1,.15-.44l.69-.1v-3a.26.26,0,0,1,.26-.26h.52v-.42l-.72-.84a.26.26,0,0,1,.2-.43h2.06l.45-.78a.26.26,0,0,1,.23-.13h2.1l1.48-1.61a.26.26,0,0,1,.19-.08h.91V508a.26.26,0,0,1,.26-.26H634l.32-.75a.26.26,0,0,1,.24-.16h1.95a.26.26,0,0,1,.2.09l.91,1a.26.26,0,0,1-.2.43h-.52v.78h1.3a.26.26,0,0,1,.23.13l.45.78h.37v-.52a.26.26,0,0,1,.26-.26h8l.44-.66a.26.26,0,0,1,.4,0l.7.7h1.19a.26.26,0,0,1,.26.26v2.08h.65a.26.26,0,0,1,.26.26V514h.65a.26.26,0,0,1,.26.26v2.86a.26.26,0,0,1-.06.17l-.78.91a.26.26,0,0,1-.2.09h-.78v.65h.52a.26.26,0,0,1,.26.25l.12,3,.81.58a.26.26,0,0,1,.05.37l-.64.82,1.25.19a.26.26,0,0,1,.16.09l.91,1a.26.26,0,0,1-.2.43h-.52v.65h.52a.26.26,0,0,1,.2.42l-3.51,4.29a.26.26,0,0,1-.13.09l-.72.21v2.13l.92.57a.26.26,0,0,1-.14.48Zm-2.35-.52h1.45l-.27-.17a.26.26,0,0,1-.12-.22v-2.47a.26.26,0,0,1,.19-.25l.83-.24,3.11-3.8H653a.26.26,0,0,1-.26-.26v-1.17a.26.26,0,0,1,.26-.26h.21l-.47-.54-1.6-.25A.26.26,0,0,1,651,524l.74-1-.69-.49a.26.26,0,0,1-.11-.2l-.12-2.87h-.53a.26.26,0,0,1-.26-.26V518a.26.26,0,0,1,.26-.26h.92l.64-.75v-2.5h-.65a.26.26,0,0,1-.26-.26v-2.08h-.65a.26.26,0,0,1-.26-.26v-2.08h-1a.26.26,0,0,1-.18-.08l-.56-.56-.34.52a.26.26,0,0,1-.22.12h-7.93v.52a.26.26,0,0,1-.26.26h-.78a.26.26,0,0,1-.23-.13l-.45-.78h-1.41a.26.26,0,0,1-.26-.26v-1.3a.26.26,0,0,1,.26-.26h.21l-.45-.52h-1.66l-.32.75a.26.26,0,0,1-.24.16h-1.43v.39a.26.26,0,0,1-.26.26h-1.06L630,510.54a.26.26,0,0,1-.19.08H627.7l-.45.78a.26.26,0,0,1-.23.13h-1.64l.41.48a.26.26,0,0,1,.06.17V513a.26.26,0,0,1-.26.26h-.52v3a.26.26,0,0,1-.22.26l-.4.06.47.47h.8a.26.26,0,0,1,.26.26v.91a.26.26,0,0,1-.11.21l-.58.41.56.32a.26.26,0,0,1,.13.23v1.43a.26.26,0,0,1-.16.24l-.65.28.83,1.56h.62a.26.26,0,0,1,.26.26v1.43a.26.26,0,0,1-.09.2l-.69.57v.55l.89-.62a.26.26,0,0,1,.35,0l1.22,1.47h2.35a.26.26,0,0,1,.22.39l-.71,1.18.81,1.63.53-.53-.46-.23a.26.26,0,0,1-.14-.26l.13-1a.26.26,0,0,1,.26-.23h.91a.26.26,0,0,1,.23.13l.45.79,1.29.12a.26.26,0,0,1,.24.26v1.17h.52a.26.26,0,0,1,.2.09l2.62,3,.21-.34a.26.26,0,0,1,.22-.13h1.82a.26.26,0,0,1,.26.23l.11,1.07h.7l.11-1.32a.26.26,0,0,1,.26-.24h1.43a.26.26,0,0,1,.17.06l.73.62.48-.48a.26.26,0,0,1,.18-.08h1.95a.26.26,0,0,1,.19.09Z"/></g></g></svg>