<svg xmlns="http://www.w3.org/2000/svg" viewBox="0 0 629 258.02"><defs><style>.cls-1{fill:#4b88a2;}</style></defs><title>Posta</title><g id="Layer_2" data-name="Layer 2"><g id="Layer_1-2" data-name="Layer 1"><path class="cls-1" d="M620.11,257.81l.57-.14.48-.12.54-.19.48-.18.5-.23.48-.23.46-.27.47-.29c.16-.11.31-.23.47-.35l.4-.3c.24-.2.47-.4.69-.62l.12-.11.12-.13c.21-.22.42-.44.61-.68s.21-.28.32-.43.22-.29.33-.44.2-.33.3-.5.17-.28.25-.43.17-.34.25-.52.15-.3.21-.46.13-.34.19-.51.13-.33.18-.5.09-.35.14-.53.09-.34.13-.52.07-.42.1-.63,0-.29.06-.44A11,11,0,0,0,629,247V11A11,11,0,0,0,618,0H270l-.63,0-.5.05-.56.09-.52.11-.52.14-.51.16-.51.19-.47.2-.52.25-.43.23-.5.31-.4.27-.46.35-.41.34-.39.36-.42.43-.21.21-.11.14c-.14.16-.27.33-.4.5l-.28.37c-.11.16-.22.33-.33.5s-.18.28-.26.42-.17.33-.26.5-.16.31-.23.47-.14.34-.2.51-.13.33-.18.5-.1.34-.15.51-.1.35-.14.53-.06.34-.09.5-.06.38-.09.57,0,.32,0,.48,0,.41,0,.62,0,.12,0,.18V79.11a11,11,0,0,0,22.08,0V35.55l98.14,86.89a11.15,11.15,0,0,0-1.46,1.22l-96.68,96.68V147.79a11,11,0,0,0-22.08,0v13.49h-157a11,11,0,0,0,0,22.08h157V247a11,11,0,0,0,11,11H618c.36,0,.73,0,1.09-.05l.5-.07Zm-13.19-37.47-96.68-96.68-.19-.17,72.68-61.66A11,11,0,1,0,568.45,45L444.25,150.36,299.37,22.08H606.92V220.34ZM393.57,139.27a11,11,0,0,0,1.93-2.6l41.29,36.55a11,11,0,0,0,14.46.15l42.07-35.7a11.1,11.1,0,0,0,1.31,1.59L591.31,236H296.9Z"/><path class="cls-1" d="M11,125.71H317.47a11,11,0,1,0,0-22.08H11a11,11,0,1,0,0,22.08Z"/><path class="cls-1" d="M30.36,64.88H234.06a11,11,0,0,0,0-22.08H30.36a11,11,0,0,0,0,22.08Z"/><path class="cls-1" d="M212,207.89H11A11,11,0,1,0,11,230H212a11,11,0,0,0,0-22.08Z"/></g></g></svg>