<svg xmlns="http://www.w3.org/2000/svg" xmlns:xlink="http://www.w3.org/1999/xlink" viewBox="0 0 1163.76 534.53"><defs><style>.cls-1{fill:none;}.cls-2{clip-path:url(#clip-path);}.cls-3{fill:#00aaaf;}</style><clipPath id="clip-path" transform="translate(-107.52 -51.32)"><rect class="cls-1" width="1365.63" height="653.75"/></clipPath></defs><title>pattern2+</title><g id="Layer_2" data-name="Layer 2"><g id="Layer_1-2" data-name="Layer 1"><g class="cls-2"><path class="cls-3" d="M1243.39,315h-1.17a.26.26,0,0,1-.26-.25l-.12-2.35h-1.05a.26.26,0,0,1-.26-.24l-.11-1.58h-.54a.26.26,0,0,1-.26-.23l-.13-1.3a.26.26,0,0,1,.24-.29l1.42-.11-.08-.74-3.1-1.11a.26.26,0,0,1-.1-.07l-2.73-2.86a.26.26,0,0,1,.19-.44h1.56v-1.06l-1.61-1.48a.26.26,0,0,1,.18-.45h1.27l-.09-.93-1.37-1.5a.26.26,0,0,1-.07-.18V296a.26.26,0,0,1,.19-.25l.72-.21v-1.63l-1.47-1.22a.26.26,0,0,1,0-.4l.69-.57v-.53h-.52a.26.26,0,0,1-.26-.23l-.12-1.2-.83-.71a.26.26,0,0,1,0-.4l.69-.57v-.47l-.6-.2a.26.26,0,0,1-.13-.4l1-1.43a.26.26,0,0,1,.21-.11h1.94l.44-.66a.26.26,0,0,1,.22-.12h2.86a.26.26,0,0,1,.2.09l2.73,3.12a.26.26,0,0,1,.06.17V290h.65a.26.26,0,0,1,.26.26v.65h1.17a.26.26,0,0,1,.19.09l1.17,1.3a.26.26,0,0,1,.07.17v1.95h.39a.26.26,0,0,1,.24.15l.45,1h1.26a.26.26,0,0,1,.26.26v.52h1.27l.32-.64a.26.26,0,0,1,.25-.14l2.34.13a.26.26,0,0,1,.25.26v.91a.26.26,0,0,1-.26.26h-1.43v.26h.65a.26.26,0,0,1,.26.27l-.13,2.34a.26.26,0,0,1-.07.16l-1.62,1.74v.16h.52a.26.26,0,0,1,.26.26v1.44l2.64,2.26a.26.26,0,0,1,0,.38l-1,1a.26.26,0,0,1-.18.08H1252v4.29a.26.26,0,0,1-.26.26h-5.31l-.58,1a.26.26,0,0,1-.23.13h-1.84l-.11,1.45A.26.26,0,0,1,1243.39,315Zm-.92-.52h.68l.11-1.45a.26.26,0,0,1,.26-.24h1.93l.58-1a.26.26,0,0,1,.23-.13h5.2v-4.29a.26.26,0,0,1,.26-.26h1.58l.77-.77-2.52-2.16a.26.26,0,0,1-.09-.2v-1.3h-.52a.26.26,0,0,1-.26-.26v-.52a.26.26,0,0,1,.07-.18l1.63-1.75.11-2h-.64a.26.26,0,0,1-.26-.26v-.78a.26.26,0,0,1,.26-.26h1.43v-.4l-1.92-.11-.31.63a.26.26,0,0,1-.23.14h-1.69a.26.26,0,0,1-.26-.26v-.52h-1.17a.26.26,0,0,1-.24-.15l-.45-1h-.48a.26.26,0,0,1-.26-.26v-2.11l-1-1.14h-1.31a.26.26,0,0,1-.26-.26v-.65H1243a.26.26,0,0,1-.26-.26v-2.11l-2.59-3h-2.6l-.44.66a.26.26,0,0,1-.22.12h-1.95l-.75,1,.44.15a.26.26,0,0,1,.18.25v.78a.26.26,0,0,1-.09.2l-.54.45.68.58a.26.26,0,0,1,.09.17l.11,1.07h.54a.26.26,0,0,1,.26.26v.91a.26.26,0,0,1-.09.2l-.54.45,1.32,1.1a.26.26,0,0,1,.09.2v1.95a.26.26,0,0,1-.19.25l-.72.21v1.52l1.36,1.49a.26.26,0,0,1,.07.15l.13,1.3a.26.26,0,0,1-.26.29h-.89l1.2,1.11a.26.26,0,0,1,.08.19v1.43a.26.26,0,0,1-.26.26h-1.21l2.27,2.38,3.19,1.15a.26.26,0,0,1,.17.22l.13,1.17a.26.26,0,0,1-.24.29l-1.42.11.08.8h.54a.26.26,0,0,1,.26.24l.11,1.58h1.06a.26.26,0,0,1,.26.25Z" transform="translate(-107.52 -51.32)"/><path class="cls-3" d="M1078.22,486.51h-8.71a.26.26,0,0,1-.19-.09l-2.21-2.47a.26.26,0,0,1-.06-.12l-.09-.44h-1.22a.26.26,0,0,1-.17-.06l-.91-.78a.26.26,0,0,1-.09-.22l.1-1.15h-.5a.26.26,0,0,1-.26-.26v-1.3h-.52a.26.26,0,0,1-.26-.26v-1.17a.26.26,0,0,1,.22-.26l.56-.09v-2.51a.26.26,0,0,1,.08-.18l1.69-1.69a.26.26,0,0,1,.18-.08h4l.32-.64a.26.26,0,0,1,.23-.14h.91v-.39a.26.26,0,0,1,.1-.21l1.46-1.09v-1a.26.26,0,0,1,.26-.26h.52v-1.3a.26.26,0,0,1,.26-.26h1.18l1.87-2.12a.26.26,0,0,1,.19-.09h2.6a.26.26,0,0,1,.26.26v1.3h1v-1.17a.26.26,0,0,1,.24-.26l1.3-.12.32-.54a.26.26,0,0,1,.22-.13h1a.26.26,0,0,1,.26.26v1h.52a.26.26,0,0,1,.26.26v.54l1.32.11a.26.26,0,0,1,.24.26v1.17a.26.26,0,0,1-.08.18l-.34.34h.78l.31-.52a.26.26,0,0,1,.37-.08l.77.51v-.81a.26.26,0,0,1,.09-.2l.91-.78a.26.26,0,0,1,.17-.06H1094a.26.26,0,0,1,.26.26v.39h1l1.09-1.33a.26.26,0,0,1,.2-.1h4a.26.26,0,0,1,.26.26v.52h2.08a.26.26,0,0,1,.26.26v1.17h.52a.26.26,0,0,1,.12,0l1.43.78a.26.26,0,0,1,.14.23v.52h2.08a.26.26,0,0,1,.26.26v1.17a.26.26,0,0,1-.1.2l-1.34,1.1-.12,2.35a.26.26,0,0,1-.06.16l-.78.91a.26.26,0,0,1-.15.09l-.56.09v2a.26.26,0,0,1-.26.26h-1.82v.52a.26.26,0,0,1-.26.26H1101a.26.26,0,0,1-.23-.14l-1.62-3h-.27l-.09.56a.26.26,0,0,1-.25.22l-3.25.13a.26.26,0,0,1-.24-.14l-.33-.65-1-.1-.43.65a.26.26,0,0,1-.22.12h-.92l-.78.89-.12,1.22a.26.26,0,0,1-.07.16l-.65.65a.26.26,0,0,1-.18.08h-1.08l-.09.56a.26.26,0,0,1-.26.22h-.52v.52a.26.26,0,0,1-.24.26l-1.43.13a.26.26,0,0,1-.2-.07.26.26,0,0,1-.08-.19v-.65h-1.57l-1.22,1.34a.26.26,0,0,1-.19.09h-3.93l-.88.77v1.18h.52a.26.26,0,0,1,.22.4l-.91,1.43A.26.26,0,0,1,1078.22,486.51Zm-8.59-.52h8.45l.58-.91h-.31a.26.26,0,0,1-.26-.26v-1.56a.26.26,0,0,1,.09-.2l1-.91a.26.26,0,0,1,.17-.06h3.91l1.22-1.34a.26.26,0,0,1,.19-.09h1.95a.26.26,0,0,1,.26.26v.63l.91-.08v-.54a.26.26,0,0,1,.26-.26h.56l.09-.56a.26.26,0,0,1,.26-.22h1.19l.51-.51.12-1.21a.26.26,0,0,1,.06-.15l.91-1a.26.26,0,0,1,.2-.09h.9l.44-.66a.26.26,0,0,1,.24-.11l1.3.13a.26.26,0,0,1,.21.14l.31.63,2.87-.11.1-.57a.26.26,0,0,1,.26-.22h.65a.26.26,0,0,1,.23.14l1.62,3h.88v-.52a.26.26,0,0,1,.26-.26h1.82v-1.95a.26.26,0,0,1,.22-.26l.69-.11.66-.77.13-2.38a.26.26,0,0,1,.09-.19l1.33-1.09v-.79h-2.08a.26.26,0,0,1-.26-.26V470l-1.24-.67h-.71a.26.26,0,0,1-.26-.26v-1.17h-2.08a.26.26,0,0,1-.26-.26v-.52h-3.65l-1.09,1.33a.26.26,0,0,1-.2.1H1094a.26.26,0,0,1-.26-.26v-.39h-3.8l-.75.64v1.18a.26.26,0,0,1-.4.22l-.94-.63-.25.42a.26.26,0,0,1-.22.13h-1.56a.26.26,0,0,1-.18-.44l.7-.7v-.82l-1.32-.11a.26.26,0,0,1-.24-.26V467h-.52a.26.26,0,0,1-.26-.26v-1h-.63l-.31.52a.26.26,0,0,1-.2.13l-1.19.11v1.19a.26.26,0,0,1-.26.26h-1.56a.26.26,0,0,1-.26-.26v-1.3h-2.22l-1.87,2.12a.26.26,0,0,1-.19.09h-1v1.3a.26.26,0,0,1-.26.26h-.52V471a.26.26,0,0,1-.1.21l-1.46,1.09v.52a.26.26,0,0,1-.26.26h-1l-.32.64a.26.26,0,0,1-.23.14H1066l-1.54,1.54v2.62a.26.26,0,0,1-.22.26l-.56.09v.69h.52a.26.26,0,0,1,.26.26v1.3h.52a.26.26,0,0,1,.26.28l-.12,1.3.73.63h1.33a.26.26,0,0,1,.25.21l.12.58Zm-5.45-7.93h0Z" transform="translate(-107.52 -51.32)"/><path class="cls-3" d="M754.92,96.2h-.78a.26.26,0,0,1-.26-.26v-.26h-.39v.26a.26.26,0,0,1-.26.26h-1.17a.26.26,0,0,1-.13,0l-.91-.52a.26.26,0,0,1-.13-.19l-.1-.81H750a.26.26,0,0,1-.26-.26v-1l-2.15-.6a.26.26,0,0,1-.19-.25V91.39h-.78a.26.26,0,0,1-.21-.11l-.65-.91a.26.26,0,0,1,0-.15v-.68l-.81-.1a.26.26,0,0,1-.14-.06l-1.3-1.17a.26.26,0,0,1-.09-.19v-.65h-.26a.26.26,0,0,1-.26-.26v-1l-.32-.08a.26.26,0,0,1-.2-.25v-1a.26.26,0,0,1,.26-.26h.26v-.67l-1.48-1.48a.26.26,0,0,1-.07-.13l-.1-.49-.36-.09a.26.26,0,0,1-.2-.25v-1a.26.26,0,0,1,.26-.26h.91a.26.26,0,0,1,.23.14l.11.23.53-.44a.26.26,0,0,1,.17-.06h.69l1.36-1.11a.26.26,0,0,1,.37,0l.31.42h.13V79a.26.26,0,0,1,.26-.26h.9l.7-1.05a.26.26,0,0,1,.22-.12h.65v-.26a.26.26,0,0,1,.26-.26h1.09l1.36-1a.26.26,0,0,1,.41.21v.26h.41l1-1h-.28a.26.26,0,0,1-.26-.26v-.91a.26.26,0,0,1,.26-.26h1.56a.26.26,0,0,1,.21.11l.65.91a.26.26,0,0,1,0,.15v.78h.42l.75-.64V74.37a.26.26,0,0,1,.26-.26h.52a.26.26,0,0,1,.23.14l.2.4.77.11a.26.26,0,0,1,.22.26v.93l.51.51,1.34.12a.26.26,0,0,1,.24.26V76.7a.26.26,0,0,1,.26-.26h.78a.26.26,0,0,1,.26.26v.91h.65a.26.26,0,0,1,.26.26v.26h.39v-.26a.26.26,0,0,1,.26-.26h1a.26.26,0,0,1,.26.26V79a.26.26,0,0,1-.08.18l-.86.86,2,2,.34-.34a.26.26,0,0,1,.18-.08h.78v-.52h-.26a.26.26,0,0,1-.26-.26V79.69a.26.26,0,0,1,.26-.26h.91a.26.26,0,0,1,.26.26V80l.81.1a.26.26,0,0,1,.15.07l.44.44h.41a.26.26,0,0,1,.21.1l.31.42h.26v-.39a.26.26,0,0,1,.26-.26h.91a.26.26,0,0,1,.26.26V81.9a.26.26,0,0,1-.08.18l-.09.09a.26.26,0,0,1,.17.24v1h.52v-.39a.26.26,0,0,1,.26-.26H774a.26.26,0,0,1,.13,0l1.17.65a.26.26,0,0,1,.13.23v.39H776a.26.26,0,0,1,.23.14l.37.73,1.65,1.4a.26.26,0,0,1,.09.2v1a.26.26,0,0,1-.26.26h-1.4l-.71,1.42a.26.26,0,0,1-.23.14h-.78v.26a.26.26,0,0,1-.26.26h-.28l-.11,1.58a.26.26,0,0,1-.26.24h-.78v.52a.26.26,0,0,1-.08.19l-1.56,1.43a.26.26,0,0,1-.18.07h-1.69a.26.26,0,0,1-.26-.26v-.39h-.78v.91a.26.26,0,0,1-.26.26h-.29l-.1.94a.26.26,0,0,1-.4.19l-1.82-1.17a.26.26,0,0,1-.09-.1l-.19-.38h-.75v.91a.26.26,0,0,1-.34.25l-2.08-.65a.26.26,0,0,1-.18-.21l-.09-.56h-1.47l-.11,0-1.17-.52a.26.26,0,0,1-.15-.24v-.26h-1.82a.26.26,0,0,1-.26-.26V92.3h-.26v1.17a.26.26,0,0,1-.08.19l-1.61,1.48v.8A.26.26,0,0,1,754.92,96.2Zm-.52-.52h.26V95a.26.26,0,0,1,.08-.19l1.61-1.48V92a.26.26,0,0,1,.26-.26h.78a.26.26,0,0,1,.26.26v.13h1.82a.26.26,0,0,1,.26.26v.35l1,.43h1.63a.26.26,0,0,1,.26.22l.1.62,1.59.5v-.82a.26.26,0,0,1,.26-.26h1.17a.26.26,0,0,1,.23.14l.23.46,1.41.9.08-.75a.26.26,0,0,1,.26-.23h.26v-.91a.26.26,0,0,1,.26-.26h1.3a.26.26,0,0,1,.26.26v.39h1.33l1.4-1.28v-.67a.26.26,0,0,1,.26-.26h.8l.11-1.58a.26.26,0,0,1,.26-.24h.26v-.26a.26.26,0,0,1,.26-.26h.88l.71-1.42a.26.26,0,0,1,.23-.14h1.3V86.7l-1.6-1.35a.26.26,0,0,1-.06-.08l-.32-.64h-.62a.26.26,0,0,1-.26-.26v-.5l-1-.54h-.84v.39a.26.26,0,0,1-.26.26h-1a.26.26,0,0,1-.26-.26v-1h-.26a.26.26,0,0,1-.18-.44l.44-.44V81h-.39v.39a.26.26,0,0,1-.26.26h-.65a.26.26,0,0,1-.21-.1l-.31-.42h-.39a.26.26,0,0,1-.18-.08l-.46-.46-1-.12a.26.26,0,0,1-.23-.26V80h-.39v.65h.26a.26.26,0,0,1,.26.26v1a.26.26,0,0,1-.26.26h-.93l-.44.44a.26.26,0,0,1-.37,0l-2.34-2.34a.26.26,0,0,1,0-.37l1-1v-.8h-.52v.26a.26.26,0,0,1-.26.26h-.91a.26.26,0,0,1-.26-.26v-.26h-.65a.26.26,0,0,1-.26-.26V77h-.26v.26a.26.26,0,0,1-.26.26h-.52a.26.26,0,0,1-.26-.26v-.15L758.92,77a.26.26,0,0,1-.16-.08l-.65-.65a.26.26,0,0,1-.08-.18v-.81l-.69-.1a.26.26,0,0,1-.2-.14l-.19-.38h-.1v.91a.26.26,0,0,1-.09.2l-.91.78a.26.26,0,0,1-.17.06h-.78a.26.26,0,0,1-.26-.26v-1l-.52-.73H753V75h.39a.26.26,0,0,1,.26.26v.26a.26.26,0,0,1-.08.18l-1.3,1.3a.26.26,0,0,1-.18.08h-.78a.26.26,0,0,1-.26-.26h0l-1,.74a.26.26,0,0,1-.15,0h-.91v.26a.26.26,0,0,1-.26.26h-.77l-.7,1.05a.26.26,0,0,1-.22.12h-.78v.26a.26.26,0,0,1-.26.26h-.52a.26.26,0,0,1-.21-.1l-.23-.3-1.22,1a.26.26,0,0,1-.16.06h-.69l-.71.59a.26.26,0,0,1-.4-.08l-.19-.38h-.49v.58l.32.08a.26.26,0,0,1,.19.2l.11.57,1.5,1.5a.26.26,0,0,1,.08.18v1a.26.26,0,0,1-.26.26h-.26v.58l.32.08a.26.26,0,0,1,.2.25v.91h.26a.26.26,0,0,1,.26.26v.79l1.15,1,1,.12a.26.26,0,0,1,.23.26v.83l.52.73h.91a.26.26,0,0,1,.26.26v1.23L750,93a.26.26,0,0,1,.19.25v.91H751a.26.26,0,0,1,.26.23l.11.91.74.42H753v-.26a.26.26,0,0,1,.26-.26h.91a.26.26,0,0,1,.26.26Z" transform="translate(-107.52 -51.32)"/><path class="cls-3" d="M420.76,418.69h-2.31a.26.26,0,0,1-.23-.14l-.26-.48h-1.43a.26.26,0,0,1-.26-.23l-.06-.56h-.34v.46a.26.26,0,0,1-.25.26l-1,0a.26.26,0,0,1-.25-.16l-.24-.58-.7,0a.26.26,0,0,1-.22-.15l-.94-1.93-.7-.08-.84,2a.26.26,0,0,1-.24.16h-.89l0,.53a.26.26,0,0,1-.26.25h0l-4.18,0a.26.26,0,0,1-.26-.25l0-.51h-.47l0,1.25a.26.26,0,0,1-.26.25h-4.15a.26.26,0,0,1-.26-.22l-.17-1.12a.26.26,0,0,1,.07-.22l.78-.84a.26.26,0,0,1,.18-.08l2-.05.34-.57a.26.26,0,0,1,.22-.13h.07l-1.62-2a.26.26,0,0,1-.06-.15l0-.32-1,0a.26.26,0,0,1-.2-.1l-.67-.89a.26.26,0,0,1-.05-.16v-.56a.26.26,0,0,1,.26-.26h.44v-1.85h-1.08a.26.26,0,0,1-.26-.27l.06-1.2a.26.26,0,0,1,.08-.18l1.14-1.06,0-1-2.31,0a.26.26,0,0,1-.26-.26v-1.84a.26.26,0,0,1,.07-.17l2.12-2.34a.26.26,0,0,1,.19-.09h.76l.08-.45a.26.26,0,0,1,.26-.22h4.88a.26.26,0,0,1,.21.11l.9,1.26,3.88.08a.26.26,0,0,1,.25.26v.43h.43V401a.26.26,0,0,1,.25-.26l1,0v-.44a.26.26,0,0,1,.26-.26h1l1-2.19a.26.26,0,0,1,.24-.15h7.88V396.6a.26.26,0,0,1,.26-.26h4a.26.26,0,0,1,.15.05l.84.62h.33l-.44-.67a.26.26,0,0,1,0-.14l0-1.84a.26.26,0,0,1,.26-.26h.83l.45-.7a.26.26,0,0,1,.22-.12h2a.26.26,0,0,1,.26.24l.13,1.91.49.19a.26.26,0,0,1,.16.23l.11,1.85,1.43,1.29a.26.26,0,0,1-.17.45h-2.53v2a.26.26,0,0,1-.25.26l-2.14.05L428,403.82a.26.26,0,0,1-.19.1l-1.51.07v.37a.26.26,0,0,1-.25.26l-.91,0,0,.49a.26.26,0,0,1-.26.27h-.66l0,1.77h1a.26.26,0,0,1,.26.26l0,3.68a.26.26,0,0,1-.26.26h-2l-.4.63a.26.26,0,0,1-.22.12h-.76l-.16.49a.26.26,0,0,1-.25.18h-1.05v3.81l.48.48a.26.26,0,0,1,.08.18l0,1.17a.26.26,0,0,1-.26.27Zm-2.16-.52h1.89l0-.8-.48-.48a.26.26,0,0,1-.08-.18v-4.18a.26.26,0,0,1,.26-.26h1.12l.16-.49a.26.26,0,0,1,.25-.18h.8l.4-.63a.26.26,0,0,1,.22-.12H425l0-3.16h-1a.26.26,0,0,1-.26-.26l0-2.29a.26.26,0,0,1,.26-.26h.65l0-.48a.26.26,0,0,1,.25-.27l.92,0v-.36a.26.26,0,0,1,.25-.26l1.64-.08,1.71-2.11a.26.26,0,0,1,.2-.1l2,0v-2a.26.26,0,0,1,.26-.26h2.11l-1-.91a.26.26,0,0,1-.08-.18l-.1-1.79-.49-.19a.26.26,0,0,1-.16-.22l-.12-1.83h-1.62l-.45.7a.26.26,0,0,1-.22.12h-.71l0,1.5.66,1a.26.26,0,0,1-.21.4l-.88,0a.26.26,0,0,1-.16-.05l-.84-.62h-3.69v1.08a.26.26,0,0,1-.26.26h-8l-1,2.19a.26.26,0,0,1-.24.15h-.94V401a.26.26,0,0,1-.25.26l-1,0v1.14a.26.26,0,0,1-.25.26l-.95,0a.25.25,0,0,1-.19-.07.26.26,0,0,1-.08-.19V402l-3.76-.08a.26.26,0,0,1-.21-.11l-.9-1.26h-4.53l-.08.45a.26.26,0,0,1-.26.22h-.86l-2,2.18v1.48l2.31,0a.26.26,0,0,1,.26.25l0,1.37a.26.26,0,0,1-.08.2l-1.15,1.07,0,.82h1.07a.26.26,0,0,1,.26.26v2.37a.26.26,0,0,1-.26.26h-.44v.21l.54.72,1.16,0a.26.26,0,0,1,.25.25l0,.47,1.9,2.39a.26.26,0,0,1-.2.42h-.47l-.34.57a.26.26,0,0,1-.22.13l-2,.05-.62.66.12.77h3.68l0-1.26a.26.26,0,0,1,.26-.25h0l1,0a.26.26,0,0,1,.25.25l0,.5,3.68,0,0-.53a.26.26,0,0,1,.26-.25h1l.85-2a.26.26,0,0,1,.27-.16l1,.11a.26.26,0,0,1,.21.14l.94,1.93.71,0a.26.26,0,0,1,.22.16l.24.56.55,0V417a.26.26,0,0,1,.08-.19.26.26,0,0,1,.19-.07l.84,0a.26.26,0,0,1,.25.23l.06.55h1.36a.26.26,0,0,1,.23.14Z" transform="translate(-107.52 -51.32)"/><path class="cls-3" d="M366.21,566.71l-.74-1.42a.26.26,0,0,0-.23-.14l-2.11,0a.28.28,0,0,0-.19.07.26.26,0,0,0-.08.18v.39h-.52v-.62l.62-.7a.26.26,0,0,0-.06-.39l-1.19-.75v-1.1a.26.26,0,0,0-.26-.26h-.33v-1.47a.26.26,0,0,0-.06-.16l-.62-.76a.26.26,0,0,0-.2-.1h-.82l-.91-.54v-1.66a.26.26,0,0,0-.26-.26H358v-.88a.26.26,0,0,0-.09-.2l-1.6-1.36a.26.26,0,0,0-.35,0l-.61.62h-.55v-.28l1.2-.9a.26.26,0,0,0,.1-.22l-.05-1.26.61-.49a.26.26,0,0,0,.1-.2v-.73l.49-.28a.26.26,0,0,0,.13-.23v-1.42a.26.26,0,0,0-.08-.18.25.25,0,0,0-.19-.08l-3.53,0h-.33l.31-.8,1.35-1.17a.26.26,0,0,0,.09-.16l.39-2.49a.26.26,0,0,0-.4-.25l-2.34,1.59h-1.73a.26.26,0,0,0-.26.26v2.38h-.93a.26.26,0,0,0-.26.26v1.55h-.25V549a.26.26,0,0,0-.46-.17l-.74.86a.26.26,0,0,0-.06.17v1.48a.26.26,0,0,0,.25.26l1.33.08V552l-1.62.05a.26.26,0,0,0-.14.47l1.77,1.26,0,.49-1.15,0a.27.27,0,0,0-.19.07.26.26,0,0,0-.08.19v1.75a.26.26,0,0,0,.26.26h.56a.26.26,0,0,0,.26-.26v-.59h.44l.08,1.82a.26.26,0,0,0,.44.18l.86-.83a.26.26,0,0,0,.08-.19v-.74h.46l0,1.66-.53,0a.26.26,0,0,0-.25.28l.06.86a.26.26,0,0,0,.17.23l1.81.68a.26.26,0,0,0,.35-.23l0-.39.9,0,.08,1.42a.26.26,0,0,0,.08.18l1,.88,0,2.83h-1.85l-.59-.45a.26.26,0,0,0-.41.14l-.55,2a.26.26,0,0,0,.23.33l.73,0,0,1.8-1.11,0a.27.27,0,0,0-.19.08.26.26,0,0,0-.07.2l0,.49h-1.08a.26.26,0,0,0-.18.45l1,.92a.27.27,0,0,0,.19.07l1.22-.06,1.79,1a.26.26,0,0,0,.13,0h.83a.26.26,0,0,0,.26-.26v-.05l.42,0-.73.87-1,0v-.28a.26.26,0,0,0-.08-.19.25.25,0,0,0-.19-.07l-1,.06a.26.26,0,0,0-.24.27l0,.84-2.55,2.64-.79,0a.26.26,0,0,0-.25.27l0,.56a.26.26,0,0,0,.19.24l1.31.39h.07a.26.26,0,0,0,.21-.11l.93-1.29,1.5,0,.2.55a.26.26,0,0,0,.38.13l1.1-.71a.26.26,0,0,0,.12-.22l0-.92h2.85a.26.26,0,0,0,.26-.26v-.44l.75,0,0,.43a.26.26,0,0,0,.26.24h.65a.26.26,0,0,0,.26-.26v-.3h3.21a.26.26,0,0,0,.14,0l2-1.31a.26.26,0,0,0,.12-.23l-.06-1.22a.26.26,0,0,0-.26-.25h-.91l1.09-1.49a.26.26,0,0,0,.05-.15v-1.79H366a.26.26,0,0,0,.23-.38Zm-.94-.14a.26.26,0,0,0-.26.26v2l-1.34,1.83a.26.26,0,0,0,.21.41H365l0,.82L363.26,573h-3.4a.26.26,0,0,0-.26.26v.3h-.16l0-.42a.26.26,0,0,0-.25-.24l-1.25-.06a.27.27,0,0,0-.19.07.26.26,0,0,0-.08.19v.45h-2.86a.26.26,0,0,0-.26.27l0,1-.7.46-.15-.41a.26.26,0,0,0-.24-.17l-1.81,0a.28.28,0,0,0-.21.11l-.9,1.25-1-.28v-.12l.63,0a.26.26,0,0,0,.18-.08l2.7-2.79a.26.26,0,0,0,.07-.19l0-.7.45,0v.26a.26.26,0,0,0,.25.26l1.42.06a.26.26,0,0,0,.21-.09l1.16-1.37a.26.26,0,0,0-.19-.43l-1.22-.06a.26.26,0,0,0-.27.26v.07h-.5l-1.79-1a.26.26,0,0,0-.14,0l-1.19.05-.43-.4h.69a.26.26,0,0,0,.26-.28l0-.49,1.08,0h0a.26.26,0,0,0,.26-.25l.06-2.31a.26.26,0,0,0-.24-.27l-.66,0,.36-1.31.36.27a.26.26,0,0,0,.16.05h2.2a.26.26,0,0,0,.26-.26l0-3.2a.26.26,0,0,0-.08-.19l-1-.89-.08-1.55a.26.26,0,0,0-.25-.25l-1.39-.06a.26.26,0,0,0-.27.25v.3l-1.32-.5,0-.43.5,0a.26.26,0,0,0,.25-.26l0-2.17a.26.26,0,0,0-.25-.26l-1,0a.25.25,0,0,0-.19.07.26.26,0,0,0-.08.19v.9l-.37.35-.06-1.49a.26.26,0,0,0-.26-.25h-.95a.26.26,0,0,0-.26.26V556h0v-1.22l1.16,0a.26.26,0,0,0,.19-.08.26.26,0,0,0,.07-.19l0-.89a.26.26,0,0,0-.11-.2l-1.24-.89,1.1,0a.26.26,0,0,0,.25-.26v-.86a.26.26,0,0,0-.25-.26l-1.33-.08v-1.14l.22-.26v.7a.26.26,0,0,0,.26.26h.77a.26.26,0,0,0,.26-.26v-1.55h.93a.26.26,0,0,0,.26-.26v-2.38h1.55a.26.26,0,0,0,.15,0l1.91-1.3-.28,1.81-1.32,1.15a.26.26,0,0,0-.07.1l-.47,1.22a.26.26,0,0,0,.24.35h.71l3.27,0v1l-.49.28a.26.26,0,0,0-.13.23v.76l-.62.49a.26.26,0,0,0-.1.21l.05,1.26-1.2.9a.26.26,0,0,0-.1.21v.67a.26.26,0,0,0,.26.26h.92a.26.26,0,0,0,.19-.08l.51-.53,1.33,1.12v1a.26.26,0,0,0,.26.26h.3v1.55a.26.26,0,0,0,.13.22l1.1.65a.26.26,0,0,0,.13,0h.77l.49.59v1.64a.26.26,0,0,0,.26.26h.33v1a.26.26,0,0,0,.12.22l1,.67-.48.54a.26.26,0,0,0-.07.17v1a.26.26,0,0,0,.26.26h1a.26.26,0,0,0,.26-.26v-.39l1.69,0,.47.91Z" transform="translate(-107.52 -51.32)"/><path class="cls-3" d="M349.2,566.14l-.09-2.76a.26.26,0,0,0-.16-.23l-.26-.1,1.73-2.07a.26.26,0,0,0,.06-.17v-1.22a.26.26,0,0,0-.26-.26h-.32l-.82-1.61a.26.26,0,0,0-.23-.14h-1.56l-.12-.41a.26.26,0,0,0-.25-.19h-1.51a.26.26,0,0,0-.24.17l-.15.4-.8,0a.26.26,0,0,0-.21.12l-.68,1.07a.26.26,0,0,0,0,.15l0,.68a.26.26,0,0,0,.26.25h.18l-.66.85h-.8v-.35a.26.26,0,0,0-.26-.26h-.95a.26.26,0,0,0-.23.14l-.83,1.59a.26.26,0,0,0,.21.38l.31,0-.33.46a.26.26,0,0,0,0,.14l0,.8a.26.26,0,0,0,.12.23l1.13.72v1l-1.25.87a.26.26,0,0,0-.11.23l0,.93-.28,0a.26.26,0,0,0-.22.16l-.59,1.39a.26.26,0,0,0,.11.33l.38.21-.49,1a.26.26,0,0,0,.23.37h2.31a.26.26,0,0,0,.26-.26v-.33h1.37l.11,0,2.85-1.39a.26.26,0,0,0,.15-.22l0-.38h2a.26.26,0,0,0,.25-.18l.62-2A.26.26,0,0,0,349.2,566.14Zm-1.07,1.77H346a.26.26,0,0,0-.26.25l0,.47-2.66,1.3h-1.57a.26.26,0,0,0-.26.26v.33h-1.64l.41-.84a.26.26,0,0,0-.11-.34l-.39-.21.44-1,.37,0a.26.26,0,0,0,.25-.27l-.05-1,1.25-.87a.26.26,0,0,0,.11-.21v-1.25a.26.26,0,0,0-.12-.22l-1.12-.72,0-.58.55-.77a.26.26,0,0,0-.19-.41l-.38,0,.57-1.1h.53V561a.26.26,0,0,0,.26.26h1.19a.26.26,0,0,0,.2-.1l1.07-1.37a.26.26,0,0,0-.2-.42h-.46l0-.35.56-.88.84,0a.26.26,0,0,0,.24-.17l.15-.39h1.14l.12.41a.26.26,0,0,0,.25.19h1.59l.82,1.61a.26.26,0,0,0,.23.14H350v.86l-1.9,2.27a.26.26,0,0,0,.1.41l.44.17.08,2.55Z" transform="translate(-107.52 -51.32)"/><path class="cls-3" d="M1271,537.52h-33.49a.26.26,0,0,0-.26.26V559.9a.26.26,0,0,0,.26.26H1271a.26.26,0,0,0,.26-.26V537.78A.26.26,0,0,0,1271,537.52Zm-.26,21.33-10.11-6.74h10.11Zm-15.54-8.64v9.44h-2V550.2a.26.26,0,0,0-.26-.26h-15.14v-2.11h15.14a.26.26,0,0,0,.26-.26V538h2v9.54a.26.26,0,0,0,.26.26h15.28v2.11h-15.28A.26.26,0,0,0,1255.22,550.2Zm-17.43,1.86a.26.26,0,0,0,.14,0h10l-10.1,6.73Zm0-13.18,10.1,6.73h-10.1Zm33,6.73h-10.11l10.11-6.74Zm0-7.37-11.12,7.41a.26.26,0,0,0,.14.48h11v1.18h-15V538H1257a.26.26,0,0,0,0,.1v5.66a.26.26,0,0,0,.4.22l9-6h4.39Zm-13.25-.21h7.92l-7.9,5.27v-5.17A.26.26,0,0,0,1257.51,538Zm-6.48,0a.26.26,0,0,0,0,.1v5.17l-7.9-5.27Zm-8.86,0,9,6a.26.26,0,0,0,.4-.22v-5.66a.26.26,0,0,0,0-.1h1.16v9.28h-14.88v-1.18h11a.26.26,0,0,0,.14-.48l-11.1-7.4V538Zm-4.38,21.42,11.1-7.4a.26.26,0,0,0-.14-.48h-10.82a.26.26,0,0,0-.14,0v-1.16h14.88v9.18h-1.15a.26.26,0,0,0,0-.05v-5.66a.26.26,0,0,0-.4-.22l-8.87,5.91h-4.46Zm13.22.18h-7.84l7.83-5.22v5.17A.26.26,0,0,0,1251,559.64Zm6.51,0a.26.26,0,0,0,0-.05v-5.17l7.83,5.22Zm8.77,0h0l-8.87-5.91a.26.26,0,0,0-.4.22v5.66a.26.26,0,0,0,0,.05h-1.27v-9.18h15v1.12h-11a.26.26,0,0,0-.14.48l11.12,7.41v.17Z" transform="translate(-107.52 -51.32)"/><path class="cls-3" d="M161.27,486.24H127.78a.26.26,0,0,0-.26.26v22.12a.26.26,0,0,0,.26.26h33.49a.26.26,0,0,0,.26-.26V486.5A.26.26,0,0,0,161.27,486.24Zm-.26.52v10.54H128V486.76Zm-33,21.6V497.83h33v10.54Z" transform="translate(-107.52 -51.32)"/><path class="cls-3" d="M408.46,100.77H375a.26.26,0,0,0-.26.26v22.12a.26.26,0,0,0,.26.26h33.49a.26.26,0,0,0,.26-.26V101A.26.26,0,0,0,408.46,100.77Zm-33.23,15.3h33V118h-33Zm14.59-9.69H408.2v1.91H389.82Zm0,2.43H408.2v1.91H389.82Zm18.39-2.95H389.82V104H408.2Zm-18.39,5.37H408.2v1.91H389.82Zm18.39,2.43v1.91h-33v-1.93h33Zm-33,4.84h33v1.91h-33Zm33-15.06H389.82v-2.14H408.2Zm-18.9-2.14v11.84H375.23V101.29Zm-14.07,21.6v-2h33v2Z" transform="translate(-107.52 -51.32)"/><circle class="cls-3" cx="270" cy="59.32" r="0.43"/><circle class="cls-3" cx="272.36" cy="59.32" r="0.43"/><circle class="cls-3" cx="274.71" cy="59.32" r="0.43"/><circle class="cls-3" cx="277.07" cy="59.32" r="0.43"/><circle class="cls-3" cx="279.42" cy="59.32" r="0.43"/><circle class="cls-3" cx="268.82" cy="60.46" r="0.43"/><circle class="cls-3" cx="271.18" cy="60.46" r="0.43"/><circle class="cls-3" cx="273.53" cy="60.46" r="0.43"/><circle class="cls-3" cx="275.89" cy="60.46" r="0.43"/><circle class="cls-3" cx="278.24" cy="60.46" r="0.43"/><circle class="cls-3" cx="280.6" cy="60.46" r="0.43"/><circle class="cls-3" cx="268.82" cy="58.18" r="0.43"/><circle class="cls-3" cx="271.18" cy="58.18" r="0.43"/><circle class="cls-3" cx="273.53" cy="58.18" r="0.43"/><circle class="cls-3" cx="275.89" cy="58.18" r="0.43"/><circle class="cls-3" cx="278.24" cy="58.18" r="0.43"/><circle class="cls-3" cx="280.6" cy="58.18" r="0.43"/><circle class="cls-3" cx="270" cy="57.04" r="0.43"/><circle class="cls-3" cx="272.36" cy="57.04" r="0.43"/><circle class="cls-3" cx="274.71" cy="57.04" r="0.43"/><circle class="cls-3" cx="277.07" cy="57.04" r="0.43"/><circle class="cls-3" cx="279.42" cy="57.04" r="0.43"/><circle class="cls-3" cx="268.82" cy="55.9" r="0.43"/><circle class="cls-3" cx="271.18" cy="55.9" r="0.43"/><circle class="cls-3" cx="273.53" cy="55.9" r="0.43"/><circle class="cls-3" cx="275.89" cy="55.9" r="0.43"/><circle class="cls-3" cx="278.24" cy="55.9" r="0.43"/><circle class="cls-3" cx="280.6" cy="55.9" r="0.43"/><circle class="cls-3" cx="270" cy="54.76" r="0.43"/><circle class="cls-3" cx="272.36" cy="54.76" r="0.43"/><circle class="cls-3" cx="274.71" cy="54.76" r="0.43"/><circle class="cls-3" cx="277.07" cy="54.76" r="0.43"/><circle class="cls-3" cx="279.42" cy="54.76" r="0.43"/><circle class="cls-3" cx="268.82" cy="53.62" r="0.43"/><circle class="cls-3" cx="271.18" cy="53.62" r="0.43"/><circle class="cls-3" cx="273.53" cy="53.62" r="0.43"/><circle class="cls-3" cx="275.89" cy="53.62" r="0.43"/><circle class="cls-3" cx="278.24" cy="53.62" r="0.43"/><circle class="cls-3" cx="280.6" cy="53.62" r="0.43"/><circle class="cls-3" cx="270" cy="52.48" r="0.43"/><circle class="cls-3" cx="272.36" cy="52.48" r="0.43"/><circle class="cls-3" cx="274.71" cy="52.48" r="0.43"/><circle class="cls-3" cx="277.07" cy="52.48" r="0.43"/><circle class="cls-3" cx="279.42" cy="52.48" r="0.43"/><circle class="cls-3" cx="268.82" cy="51.34" r="0.43"/><circle class="cls-3" cx="271.18" cy="51.34" r="0.43"/><circle class="cls-3" cx="273.53" cy="51.34" r="0.43"/><circle class="cls-3" cx="275.89" cy="51.34" r="0.43"/><circle class="cls-3" cx="278.24" cy="51.34" r="0.43"/><circle class="cls-3" cx="280.6" cy="51.34" r="0.43"/><path class="cls-3" d="M906.76,459.6H873.27a.26.26,0,0,0-.26.26v7.19h0V482a.26.26,0,0,0,.26.26h33.49A.26.26,0,0,0,907,482V459.86A.26.26,0,0,0,906.76,459.6Zm-33.23,7.71h6V472a4.8,4.8,0,0,0,.37,1.88q.07.18.16.34h-6.58ZM888.9,472a4.37,4.37,0,0,1-.19,1.28,9.63,9.63,0,0,0-1.45.14,3.4,3.4,0,0,0-2.18-1.37l-.32,0v-1.65h1.36a.26.26,0,1,0,0-.52h-1.36v-1.51h.75a.26.26,0,1,0,0-.52h-.75v-1a.26.26,0,0,0-.26-.26h0a.26.26,0,0,0-.26.26v1h-.75a.26.26,0,0,0,0,.52h.75v1.51h-1.37a.26.26,0,1,0,0,.52h1.37V472l-.32,0a3.4,3.4,0,0,0-2.18,1.38,13.52,13.52,0,0,0-1.45-.14,4.37,4.37,0,0,1-.19-1.28v-7.15h8.8Zm-8.41,1.82a8,8,0,0,1,1.26.14.26.26,0,0,0,.31-.1,2.88,2.88,0,0,1,1.94-1.3,2.81,2.81,0,0,1,1,0,2.88,2.88,0,0,1,1.94,1.3.26.26,0,0,0,.22.12l.09,0a6.42,6.42,0,0,1,1.26-.15c-.43.92-1.48,2.15-4,3C882,476,880.93,474.78,880.49,473.86Zm8.55.06h0a4.8,4.8,0,0,0,.37-1.88v-4.72H906.5v6.95H888.88Q889,474.1,889,473.92Zm17.46-13.8v6.67H889.42v-2.16a.26.26,0,0,0-.26-.26h-9.32a.26.26,0,0,0-.26.26v2.16h-6v-6.67Zm-33,21.6v-6.95h6.91a8,8,0,0,0,4,2.6h.16a8,8,0,0,0,4-2.6H906.5v6.95Z" transform="translate(-107.52 -51.32)"/><path class="cls-3" d="M996.33,165.7H962.69l0,0,0,0h0l0,0V166h0v22.12h0v.12l0,0h0l0,0h0l0,0h33.61a.26.26,0,0,0,.26-.26V166A.26.26,0,0,0,996.33,165.7Zm-.26,11.06H976.34l-12.77-10.54h32.51Zm-33-10.25L975.84,177,963.1,187.54Zm.46,21.31,12.77-10.54h19.74v10.54Z" transform="translate(-107.52 -51.32)"/><path class="cls-3" d="M1194.23,91.83h-33.49a.26.26,0,0,0-.26.26v7.19h0v14.93a.26.26,0,0,0,.26.26h33.49a.26.26,0,0,0,.26-.26V92.09A.26.26,0,0,0,1194.23,91.83ZM1161,99.54h7v.4c0,.81.43,1.93,2.48,2.68l.09,0,.09,0c2-.76,2.48-1.88,2.48-2.68v-.4H1194v6.95h-33Zm11.5.81a1,1,0,0,0-.65.25.45.45,0,0,1-.65,0,1,1,0,0,0-1.3,0,.45.45,0,0,1-.65,0,1,1,0,0,0-.65-.25h0l.83-1.12.23.31a.26.26,0,0,0,.44,0l.48-.9.45.9a.26.26,0,0,0,.44,0l.24-.33.84,1.13Zm-3.57.66a1,1,0,0,0,1.3,0,.45.45,0,0,1,.65,0,1,1,0,0,0,1.3,0l.11-.08a3.66,3.66,0,0,1-1.72,1.18,3.85,3.85,0,0,1-1.69-1.14Zm3.69-1.44-.7-.94a.26.26,0,0,0-.21-.1h0a.26.26,0,0,0-.21.11l-.19.27-.49-1a.26.26,0,0,0-.23-.14.27.27,0,0,0-.23.14l-.52,1-.2-.26a.26.26,0,0,0-.21-.1h0a.26.26,0,0,0-.21.1l-.69.93v-3.1h4.09ZM1194,92.35V99h-20.84V96H1168V99h-7V92.35ZM1161,114V107h33V114Z" transform="translate(-107.52 -51.32)"/><path class="cls-3" d="M1170.56,97.57a.2.2,0,0,0,0-.39A.2.2,0,0,0,1170.56,97.57Z" transform="translate(-107.52 -51.32)"/><path class="cls-3" d="M1171.34,97a.2.2,0,0,0,0-.39A.2.2,0,0,0,1171.34,97Z" transform="translate(-107.52 -51.32)"/><path class="cls-3" d="M1169.78,97a.2.2,0,0,0,0-.39A.2.2,0,0,0,1169.78,97Z" transform="translate(-107.52 -51.32)"/><path class="cls-3" d="M337.36,275.23l-1.56-1.56a2.47,2.47,0,0,0-3.49,0l-7.78,7.78-9.34,9.34a.26.26,0,0,0-.07.13l-1.53,4.59-.42.42a.26.26,0,0,0,.37.37l.42-.42,4.59-1.53a.26.26,0,0,0,.13-.07l9.34-9.34,7.78-7.78a2.46,2.46,0,0,0,.7-2.06l.49.49a2.07,2.07,0,0,1,.09,2.85l-7.78,7.78a.26.26,0,0,0,.37.37l7.78-7.78A2.57,2.57,0,0,0,337.36,275.23Zm-18.85,18.49L315.75,291l9-9,2.76,2.76Zm-4.27,1.52,1.26-3.79L318,294Zm21.2-18.45-7.59,7.59-2.76-2.76,7.59-7.59a1.95,1.95,0,0,1,2.76,2.76Z" transform="translate(-107.52 -51.32)"/><path class="cls-3" d="M632,459.58H611.57a.29.29,0,0,0-.29.29v1.07H605a.29.29,0,0,0-.29.29V487a.29.29,0,0,0,.29.29H625.4a.29.29,0,0,0,.29-.29v-1.17H632a.29.29,0,0,0,.29-.29V459.87A.29.29,0,0,0,632,459.58Zm-6.91,27.08H605.25V461.53h19.86Zm6.62-1.47h-6v-4.41h3.39a.29.29,0,0,0,0-.59H625.7v-1.54h3.39a.29.29,0,0,0,0-.59H625.7v-1.51h3.39a.29.29,0,0,0,0-.59H625.7v-1.51h.71a.29.29,0,1,0,0-.59h-.71v-1.5h3.39a.29.29,0,0,0,0-.59H625.7v-1.58h3.39a.29.29,0,0,0,0-.59H625.7v-1.49h3.39a.29.29,0,0,0,0-.59H625.7V466h3.54a.29.29,0,0,0,0-.59H625.7v-1.55h3.54a.29.29,0,0,0,0-.59H625.7v-2a.29.29,0,0,0-.29-.29H611.86v-.77h19.86Z" transform="translate(-107.52 -51.32)"/><path class="cls-3" d="M622.63,464.63H607.85a.29.29,0,1,0,0,.59h14.78a.29.29,0,0,0,0-.59Z" transform="translate(-107.52 -51.32)"/><path class="cls-3" d="M622.63,468.87H607.85a.29.29,0,1,0,0,.59h14.78a.29.29,0,0,0,0-.59Z" transform="translate(-107.52 -51.32)"/><path class="cls-3" d="M607.85,471.55h10a.29.29,0,0,0,0-.59h-10a.29.29,0,1,0,0,.59Z" transform="translate(-107.52 -51.32)"/><path class="cls-3" d="M622.63,471h-3.68a.29.29,0,0,0,0,.59h3.68a.29.29,0,0,0,0-.59Z" transform="translate(-107.52 -51.32)"/><path class="cls-3" d="M622.63,473.08h-8.43a.29.29,0,1,0,0,.59h8.43a.29.29,0,0,0,0-.59Z" transform="translate(-107.52 -51.32)"/><path class="cls-3" d="M607.85,473.66h5.27a.29.29,0,0,0,0-.59h-5.27a.29.29,0,1,0,0,.59Z" transform="translate(-107.52 -51.32)"/><path class="cls-3" d="M622.63,477.3h-10a.29.29,0,0,0,0,.59h10a.29.29,0,0,0,0-.59Z" transform="translate(-107.52 -51.32)"/><path class="cls-3" d="M607.85,477.88h3.68a.29.29,0,0,0,0-.59h-3.68a.29.29,0,1,0,0,.59Z" transform="translate(-107.52 -51.32)"/><path class="cls-3" d="M622.63,480a.29.29,0,1,0,0-.59h-5a.29.29,0,1,0,0,.59Z" transform="translate(-107.52 -51.32)"/><path class="cls-3" d="M607.85,480h8.41a.29.29,0,0,0,0-.59h-8.41a.29.29,0,1,0,0,.59Z" transform="translate(-107.52 -51.32)"/><path class="cls-3" d="M622.63,481.52H607.85a.29.29,0,1,0,0,.59h14.78a.29.29,0,0,0,0-.59Z" transform="translate(-107.52 -51.32)"/><path class="cls-3" d="M617.19,483.63h-9.35a.29.29,0,1,0,0,.59h9.35a.29.29,0,0,0,0-.59Z" transform="translate(-107.52 -51.32)"/><path class="cls-3" d="M141.27,253.55H107.78a.26.26,0,0,0-.26.26V261h0v14.93a.26.26,0,0,0,.26.26h33.49a.26.26,0,0,0,.26-.26V253.81A.26.26,0,0,0,141.27,253.55ZM108,261.26h6.09v6.48c0,.16,0,.31,0,.46H108Zm6.61,6.48v-6.48h8.84v6.48a4.42,4.42,0,0,1-8.84,0Zm1.08-8.45,1.24.87a.26.26,0,0,0,.3,0l1.8-1.31,1.8,1.31a.26.26,0,0,0,.3,0l1.24-.87-.34,1.44h-6Zm3.6-1.73a3.17,3.17,0,0,1,2.47,1.52l-.78.55-1.69-1.23Zm-.52.83-1.69,1.23-.78-.55a3.2,3.2,0,0,1,2.47-1.52Zm5.2,9.34v-6.48h17v6.95H124C124,268.05,124,267.9,124,267.74Zm17-13.67v6.67H122.6l.47-2a.26.26,0,0,0-.4-.27l-.44.31a3.69,3.69,0,0,0-2.9-1.74v-.45a.26.26,0,1,0-.52,0V257a3.72,3.72,0,0,0-2.9,1.74l-.44-.31a.26.26,0,0,0-.4.27l.47,2H108v-6.67Zm-33,21.6v-6.95h6.19a4.94,4.94,0,0,0,9.68,0H141v6.95Z" transform="translate(-107.52 -51.32)"/><path class="cls-3" d="M116.3,268.66a.26.26,0,0,0,.14,0l.11,0,1.43-.63a1.69,1.69,0,0,0,.83.41v1.87a.26.26,0,1,0,.52,0v-1.87a1.7,1.7,0,0,0,.83-.41l1.43.63.11,0a.26.26,0,0,0,.26-.26V265c0-.54-.7-.9-1.17-.9a.93.93,0,0,0-.67.28h-.56l.34-1h.63a.26.26,0,1,0,0-.52h-.82a.26.26,0,0,0-.25.18l-.38,1.17-.38-1.17a.26.26,0,0,0-.25-.18h-.82a.26.26,0,1,0,0,.52h.63l.34,1H118a.93.93,0,0,0-.67-.28c-.47,0-1.17.36-1.17.9v3.44A.26.26,0,0,0,116.3,268.66Zm4.48-4c.29,0,.65.23.65.38v3l-1.06-.47V265A.39.39,0,0,1,120.78,264.63Zm-2.5.28h1.57v2.72a1.09,1.09,0,0,1-1.57,0v-2.72Zm-1.58.1c0-.14.36-.38.65-.38a.39.39,0,0,1,.41.38v2.57l-1.06.47Z" transform="translate(-107.52 -51.32)"/><path class="cls-3" d="M1055.38,305.26a.4.4,0,0,0-.57.06l-2.42,3a11.66,11.66,0,0,0-22.6-2.84.4.4,0,1,0,.76.27,10.86,10.86,0,0,1,21.05,2.9L1048,306.4a.4.4,0,1,0-.43.68l4.23,2.67,0,0,0,0h.26l.06,0,0,0,0,0,0,0,0,0,3.09-3.83A.4.4,0,0,0,1055.38,305.26Z" transform="translate(-107.52 -51.32)"/><path class="cls-3" d="M1051.51,312.85a.4.4,0,0,0-.51.24,10.86,10.86,0,0,1-21.05-2.9l3.58,2.26a.4.4,0,1,0,.43-.68l-4.23-2.67-.08,0h0l-.1,0h-.15l-.09,0h0l-.08.07h0l-3.09,3.83a.4.4,0,0,0,.63.5l2.42-3a11.66,11.66,0,0,0,22.6,2.84A.4.4,0,0,0,1051.51,312.85Z" transform="translate(-107.52 -51.32)"/><path class="cls-3" d="M161.65,76.6a.26.26,0,0,1-.17-.06l-2.39-2a.26.26,0,0,1-.09-.2V72.88l-1.78-.09-.09.83a.26.26,0,0,1-.4.19l-1.44-1a.26.26,0,0,1-.12-.23l.1-1.52L149.68,71a.26.26,0,0,1-.25-.22l-.09-.63L147.75,70a.26.26,0,0,1-.24-.22l-.09-.63-1.47-.1a.26.26,0,0,1-.15-.06l-2.27-1.91a.26.26,0,0,1-.09-.17l-.11-.86-.76-.65a.26.26,0,0,1-.09-.19l-.11-2.38h-.59a.26.26,0,0,1-.26-.26V60.07a.26.26,0,0,1,.26-.26h.58V56.36a.26.26,0,0,1,.26-.26h.7V52.54a.26.26,0,0,1,.43-.2l.91.77h.44l.4-.7a.26.26,0,0,1,.22-.13h1.08a.26.26,0,0,1,.24.16l.29.69,3.54.11a.26.26,0,0,1,.24.19l.19.65,15.36.12a.26.26,0,0,1,.26.26v.48a.26.26,0,0,1-.14.23l-.81.41V56h.7a.26.26,0,0,1,.21.11l.84,1.2a.26.26,0,0,1,0,.15v2.37h1.15V57.18A.26.26,0,0,1,169,57l.82-.94A.26.26,0,0,1,170,56a.26.26,0,0,1,.2.09l1.7,2a.26.26,0,0,1,.06.17v1.14h.48l3.3-2.7V55.41a.26.26,0,0,1,.26-.26h1.56l2-2.35V51.58a.26.26,0,0,1,.43-.2l1.44,1.2a.26.26,0,0,1,.09.2v1.08a.26.26,0,0,1-.06.17l-.72.84-.07.06-.94.52v2.24a.26.26,0,0,1-.12.22l-.83.52v3.8a.26.26,0,0,1-.12.22l-.83.52v.55h.7a.26.26,0,0,1,.26.26V65.1a.26.26,0,0,1-.12.22l-1,.6a.26.26,0,0,1-.14,0h-.92l.1,1.76a.26.26,0,0,1-.09.21l-1,.84-1.1.88.1,1.29,1.8,1.13a.26.26,0,0,1,.12.22v2.87a.26.26,0,0,1-.41.21l-2.27-1.67a.26.26,0,0,1-.1-.19l-.1-1.23-1.47-.21a.26.26,0,0,1-.22-.23l-.09-.94-.88.08-.19.67a.26.26,0,0,1-.14.16l-2,1-.1,0-4.83.24-.78.55-.09,0-.88.2-.11,2.55a.26.26,0,0,1-.16.23Zm-2.13-2.41,1.9,1.61.1-2.22a.26.26,0,0,1,.2-.24l1-.23.79-.57a.26.26,0,0,1,.14,0l4.85-.24,1.88-.88.21-.72a.26.26,0,0,1,.23-.19l1.32-.12a.26.26,0,0,1,.28.23l.1,1,1.47.21a.26.26,0,0,1,.22.24l.11,1.32,1.76,1.3V72.42l-1.79-1.12a.26.26,0,0,1-.12-.2l-.12-1.56a.26.26,0,0,1,.1-.22l1.2-1,.85-.75-.11-1.91a.26.26,0,0,1,.26-.28h1.12l.77-.48V64h-.7a.26.26,0,0,1-.26-.26v-1a.26.26,0,0,1,.12-.22l.83-.52v-3.8a.26.26,0,0,1,.12-.22l.83-.52V55.29a.26.26,0,0,1,.13-.23l1-.58.62-.73V52.9l-.92-.76v.76a.26.26,0,0,1-.06.17l-2.15,2.51a.26.26,0,0,1-.2.09h-1.41v1.18a.26.26,0,0,1-.1.2l-3.47,2.84a.26.26,0,0,1-.16.06h-.84a.26.26,0,0,1-.26-.26V58.37L170,56.64l-.55.63v2.79a.26.26,0,0,1-.26.26h-1.67a.26.26,0,0,1-.26-.26V57.52l-.71-1h-.82a.26.26,0,0,1-.26-.26v-.84a.26.26,0,0,1,.14-.23l.81-.41v-.06l-15.29-.12a.26.26,0,0,1-.25-.19l-.19-.66-3.52-.11a.26.26,0,0,1-.23-.16l-.29-.68h-.76l-.4.7a.26.26,0,0,1-.22.13h-.69a.25.25,0,0,1-.17-.06l-.56-.47v3.27a.26.26,0,0,1-.26.26h-.7v3.45a.26.26,0,0,1-.26.26h-.58v2h.58a.26.26,0,0,1,.26.25l.11,2.52.75.64a.26.26,0,0,1,.09.17l.11.86,2.13,1.79,1.59.11a.26.26,0,0,1,.24.22l.09.63,1.58.11a.26.26,0,0,1,.24.22l.09.62,5.64.11a.26.26,0,0,1,.25.28l-.11,1.64,1,.64.07-.65a.26.26,0,0,1,.27-.23l2.27.12a.26.26,0,0,1,.25.26Z" transform="translate(-107.52 -51.32)"/><path class="cls-3" d="M757.95,585.85h-2.47a.26.26,0,0,1-.19-.09l-1.22-1.34h-1.73l-.57.57a.26.26,0,0,1-.35,0l-.84-.72h-1.09l-.11,1.32a.26.26,0,0,1-.26.24h-1.17a.26.26,0,0,1-.26-.23l-.11-1.07h-1.44l-.31.52a.26.26,0,0,1-.42,0L742.62,582H742a.26.26,0,0,1-.26-.26V580.5l-1.19-.11a.26.26,0,0,1-.2-.13l-.45-.78h-.53l-.08.63.62.31a.26.26,0,0,1,.07.42l-1,1a.26.26,0,0,1-.42-.07l-1-2.08a.26.26,0,0,1,0-.25l.54-.91h-2a.26.26,0,0,1-.2-.09l-1.15-1.38-1.1.77a.26.26,0,0,1-.41-.21v-1.17a.26.26,0,0,1,.09-.2l.69-.57v-1h-.52a.26.26,0,0,1-.23-.14l-1-1.95a.26.26,0,0,1,.13-.36l.75-.32V570.8l-.78-.45a.26.26,0,0,1,0-.44l.8-.57v-.52h-.65a.26.26,0,0,1-.18-.08l-.91-.91a.26.26,0,0,1,.15-.44l.69-.1v-3a.26.26,0,0,1,.26-.26h.52v-.42l-.72-.84a.26.26,0,0,1,.2-.43h2.06l.45-.78a.26.26,0,0,1,.23-.13h2.1l1.48-1.61a.26.26,0,0,1,.19-.08h.91v-.39a.26.26,0,0,1,.26-.26h1.52l.32-.75a.26.26,0,0,1,.24-.16H744a.26.26,0,0,1,.2.09l.91,1a.26.26,0,0,1-.2.43h-.52v.78h1.3a.26.26,0,0,1,.23.13l.45.78h.37v-.52a.26.26,0,0,1,.26-.26h8l.44-.66a.26.26,0,0,1,.4,0l.7.7h1.19a.26.26,0,0,1,.26.26V563h.65a.26.26,0,0,1,.26.26v2.08h.65a.26.26,0,0,1,.26.26v2.86a.26.26,0,0,1-.06.17l-.78.91a.26.26,0,0,1-.2.09h-.78v.65h.52a.26.26,0,0,1,.26.25l.12,3,.81.58a.26.26,0,0,1,.05.37l-.64.82,1.25.19a.26.26,0,0,1,.16.09l.91,1a.26.26,0,0,1-.2.43h-.52v.65h.52a.26.26,0,0,1,.2.42L758,582.38a.26.26,0,0,1-.13.09l-.72.21v2.13l.92.57a.26.26,0,0,1-.14.48Zm-2.35-.52H757l-.27-.17a.26.26,0,0,1-.12-.22v-2.47a.26.26,0,0,1,.19-.25l.83-.24,3.11-3.8h-.23a.26.26,0,0,1-.26-.26v-1.17a.26.26,0,0,1,.26-.26h.21l-.47-.54-1.6-.25a.26.26,0,0,1-.17-.42l.74-1-.69-.49a.26.26,0,0,1-.11-.2l-.12-2.87h-.53a.26.26,0,0,1-.26-.26v-1.17a.26.26,0,0,1,.26-.26h.92l.64-.75v-2.5h-.65a.26.26,0,0,1-.26-.26V563.5h-.65a.26.26,0,0,1-.26-.26v-2.08h-1a.26.26,0,0,1-.18-.08l-.56-.56-.34.52a.26.26,0,0,1-.22.12h-7.93v.52a.26.26,0,0,1-.26.26h-.78a.26.26,0,0,1-.23-.13l-.45-.78h-1.41a.26.26,0,0,1-.26-.26v-1.3a.26.26,0,0,1,.26-.26h.21l-.45-.52h-1.66l-.32.75a.26.26,0,0,1-.24.16h-1.43V560a.26.26,0,0,1-.26.26H739l-1.48,1.61a.26.26,0,0,1-.19.08h-2.06l-.45.78a.26.26,0,0,1-.23.13h-1.64l.41.48a.26.26,0,0,1,.06.17v.78a.26.26,0,0,1-.26.26h-.52v3a.26.26,0,0,1-.22.26l-.4.06.47.47h.8a.26.26,0,0,1,.26.26v.91a.26.26,0,0,1-.11.21l-.58.41.56.32a.26.26,0,0,1,.13.23v1.43a.26.26,0,0,1-.16.24l-.65.28.83,1.56h.62a.26.26,0,0,1,.26.26v1.43a.26.26,0,0,1-.09.2l-.69.57v.55l.89-.62a.26.26,0,0,1,.35,0l1.22,1.47h2.35a.26.26,0,0,1,.22.39l-.71,1.18.81,1.63.53-.53-.46-.23a.26.26,0,0,1-.14-.26l.13-1a.26.26,0,0,1,.26-.23H740a.26.26,0,0,1,.23.13l.45.79L742,580a.26.26,0,0,1,.24.26v1.17h.52a.26.26,0,0,1,.2.09l2.62,3,.21-.34A.26.26,0,0,1,746,584h1.82a.26.26,0,0,1,.26.23l.11,1.07h.7L749,584a.26.26,0,0,1,.26-.24h1.43a.26.26,0,0,1,.17.06l.73.62L752,584a.26.26,0,0,1,.18-.08h1.95a.26.26,0,0,1,.19.09Z" transform="translate(-107.52 -51.32)"/></g></g></g></svg>