<svg xmlns="http://www.w3.org/2000/svg" viewBox="0 0 691.57 148.83"><defs><style>.cls-1{fill:#fff;}.cls-2{fill:#48626b;}.cls-3{fill:#3b5158;}</style></defs><title>1-ang</title><g id="Layer_2" data-name="Layer 2"><g id="Layer_1-2" data-name="Layer 1"><polygon class="cls-1" points="335.66 33.38 322.23 33.38 353.88 74.42 322.23 115.45 335.66 115.45 367.31 74.42 335.66 33.38"/><path class="cls-2" d="M587.22,72.83a2.09,2.09,0,0,0-.74-1.74,3.28,3.28,0,0,0-2.12-.59h-2.73v4.72h2.73a3.28,3.28,0,0,0,2.12-.6A2.2,2.2,0,0,0,587.22,72.83Z"/><path class="cls-2" d="M335.66,33.38l31.64,41-31.64,41H691.57V33.38Zm83.49,46.18A5.6,5.6,0,0,1,417,80a5.53,5.53,0,0,1-2.81-.73,5.41,5.41,0,0,1-2.74-4.76,5.26,5.26,0,0,1,.74-2.76,5.41,5.41,0,0,1,2-2,5.9,5.9,0,0,1,5-.3A5.37,5.37,0,0,1,421,70.68l-.87,1.06a4.48,4.48,0,0,0-1.43-1,4.12,4.12,0,0,0-3.76.2,4,4,0,0,0-1.5,1.49,4.15,4.15,0,0,0,1.5,5.66,4.16,4.16,0,0,0,3.74.2,4.7,4.7,0,0,0,1.45-.94l.89,1A6.35,6.35,0,0,1,419.15,79.56Zm11.93.34h-8.89V78.81l6.87-8.31h-6.69V69.16H431v1.09l-6.87,8.32h7Zm9.81,0h-7.64V69.16h7.46V70.5h-6v3.31h5.36v1.34h-5.36v3.42h6.17Zm9.16-.34a5.6,5.6,0,0,1-2.18.45,5.53,5.53,0,0,1-2.81-.73,5.41,5.41,0,0,1-2.74-4.76,5.26,5.26,0,0,1,.74-2.76,5.41,5.41,0,0,1,2-2,5.9,5.9,0,0,1,5-.3,5.37,5.37,0,0,1,1.82,1.19l-.87,1.06a4.48,4.48,0,0,0-1.43-1,4.15,4.15,0,0,0-5.26,1.69,4.12,4.12,0,0,0,0,4.15,4.1,4.1,0,0,0,1.5,1.51,4.16,4.16,0,0,0,3.74.2,4.7,4.7,0,0,0,1.45-.94l.89,1A6.22,6.22,0,0,1,450.05,79.56Zm13,.34H461.6V75.28h-6.14V79.9H454V69.16h1.47V74h6.14V69.16h1.49Zm6.71,1.84h-1.23l4.82-14.41h1.24Zm17.3-1.84h-7.64V69.16h7.46V70.5h-6v3.31h5.36v1.34h-5.36v3.42h6.17Zm11.48,0h-1.49L491,71.59V79.9h-1.47V69.16H491l6.15,8.33V69.16h1.46Zm4.19-3.29a4.2,4.2,0,0,0,3.65,2.08,4.41,4.41,0,0,0,1.37-.22,5.37,5.37,0,0,0,1.3-.62v-3.2h1.3V78.6a6.28,6.28,0,0,1-1.9,1,6.37,6.37,0,0,1-2.16.39,5.61,5.61,0,0,1-2.84-.73,5.44,5.44,0,0,1-2.78-4.76,5.27,5.27,0,0,1,.75-2.76,5.49,5.49,0,0,1,2.06-2,5.87,5.87,0,0,1,2.89-.72,6.09,6.09,0,0,1,2.18.4,5.77,5.77,0,0,1,1.85,1.09l-.84,1.07a4.75,4.75,0,0,0-1.48-.93,4.64,4.64,0,0,0-1.71-.33,4.17,4.17,0,0,0-2.12.56,3.94,3.94,0,0,0-1.53,1.5,4.15,4.15,0,0,0,0,4.18Zm16.58,3.29h-6.16V69.16h1.47v9.41h4.69Zm3.35,0h-1.47V69.16h1.47Zm9.67-1.35A3.16,3.16,0,0,1,531,79.62a5.35,5.35,0,0,1-2.07.37,5.94,5.94,0,0,1-2.3-.46,6.16,6.16,0,0,1-1.93-1.22l.66-1.28a5.5,5.5,0,0,0,1.72,1.16,4.83,4.83,0,0,0,1.87.41,3,3,0,0,0,1.69-.42,1.4,1.4,0,0,0,.29-2.08,2.49,2.49,0,0,0-.85-.59c-.35-.14-.81-.3-1.39-.47a15.71,15.71,0,0,1-1.75-.63,3.05,3.05,0,0,1-1.14-.91,2.44,2.44,0,0,1-.47-1.58,2.58,2.58,0,0,1,.47-1.52,3,3,0,0,1,1.34-1,5.32,5.32,0,0,1,2-.35,6.43,6.43,0,0,1,1.9.28,6.25,6.25,0,0,1,1.65.76L532,71.4a6.16,6.16,0,0,0-1.55-.71,5.24,5.24,0,0,0-1.49-.24,2.72,2.72,0,0,0-1.49.36,1.13,1.13,0,0,0-.56,1,1.29,1.29,0,0,0,.34.93,2.36,2.36,0,0,0,.83.57c.32.13.78.3,1.36.48a16,16,0,0,1,1.77.64,3.09,3.09,0,0,1,1.15.92,2.56,2.56,0,0,1,.47,1.6A2.63,2.63,0,0,1,532.37,78.55Zm12,1.35h-1.49V75.28h-6.14V79.9h-1.47V69.16h1.47V74h6.14V69.16h1.49Zm6.7,1.84h-1.23l4.82-14.41h1.25Zm16.27-3.19a3.16,3.16,0,0,1-1.39,1.07,5.35,5.35,0,0,1-2.07.37,6,6,0,0,1-2.3-.46,6.16,6.16,0,0,1-1.93-1.22l.66-1.28A5.54,5.54,0,0,0,562,78.19a4.74,4.74,0,0,0,1.86.41,3,3,0,0,0,1.69-.42,1.4,1.4,0,0,0,.29-2.08,2.49,2.49,0,0,0-.85-.59c-.35-.14-.81-.3-1.39-.47a15.71,15.71,0,0,1-1.75-.63,3.05,3.05,0,0,1-1.14-.91,2.44,2.44,0,0,1-.47-1.58,2.58,2.58,0,0,1,.47-1.52,3.08,3.08,0,0,1,1.34-1,5.32,5.32,0,0,1,2-.35,6.43,6.43,0,0,1,1.9.28,6.25,6.25,0,0,1,1.65.76L567,71.4a6.16,6.16,0,0,0-1.55-.71,5.23,5.23,0,0,0-1.48-.24,2.73,2.73,0,0,0-1.5.36,1.13,1.13,0,0,0-.56,1,1.29,1.29,0,0,0,.34.93,2.36,2.36,0,0,0,.83.57c.32.13.78.3,1.36.48a15.29,15.29,0,0,1,1.77.64,3.09,3.09,0,0,1,1.15.92,2.56,2.56,0,0,1,.47,1.6A2.63,2.63,0,0,1,567.29,78.55Zm10.49,1.35h-7.64V69.16h7.46V70.5h-6v3.31H577v1.34h-5.36v3.42h6.17Zm9.31,0L585,76.53l-.6,0h-2.73V79.9h-1.47V69.16h4.2a4.82,4.82,0,0,1,3.16.94,3.34,3.34,0,0,1,1.11,2.68A3.8,3.8,0,0,1,588,75a3.4,3.4,0,0,1-1.74,1.29l2.5,3.63Zm11.69-.77a4.74,4.74,0,0,1-2.86.77h-4.67V69.16h4.59a4.17,4.17,0,0,1,2.59.72,2.32,2.32,0,0,1,.94,2,2.34,2.34,0,0,1-.52,1.55,2.52,2.52,0,0,1-1.43.85,2.88,2.88,0,0,1,1.76.9,2.7,2.7,0,0,1,.63,1.82A2.55,2.55,0,0,1,598.78,79.13Zm4.87.77h-1.47V69.16h1.47Zm11.05,0-1.14-2.61H607.9l-1.12,2.61h-1.55L610,69.16h1.54l4.75,10.74Zm12.26,0h-1.49l-6.14-8.31V79.9h-1.47V69.16h1.49l6.15,8.33V69.16H627Z"/><polygon class="cls-2" points="608.48 75.96 612.99 75.96 610.72 70.74 608.48 75.96"/><path class="cls-2" d="M597.64,75.51a3.37,3.37,0,0,0-1.88-.46h-3v3.5h3a3.21,3.21,0,0,0,1.88-.45,1.5,1.5,0,0,0,.67-1.31A1.47,1.47,0,0,0,597.64,75.51Z"/><path class="cls-2" d="M597.31,73.3a1.46,1.46,0,0,0,.54-1.21,1.4,1.4,0,0,0-.54-1.18,2.44,2.44,0,0,0-1.55-.4h-3v3.21h3A2.51,2.51,0,0,0,597.31,73.3Z"/><path class="cls-3" d="M322.23,33.38H136.45a74.2,74.2,0,0,1,0,82.07H322.23l31.65-41ZM208,78.76A3.67,3.67,0,0,1,206.39,80a6.53,6.53,0,0,1-2.34.41,8.49,8.49,0,0,1-2.83-.5,7.6,7.6,0,0,1-2.44-1.36l1.16-2.33a7.07,7.07,0,0,0,2,1.25,5.54,5.54,0,0,0,2.1.49,2,2,0,0,0,1-.24.78.78,0,0,0,.38-.72.83.83,0,0,0-.28-.65,2.28,2.28,0,0,0-.72-.42c-.29-.1-.69-.22-1.21-.36a15.39,15.39,0,0,1-1.94-.66,3.51,3.51,0,0,1-1.32-1,2.83,2.83,0,0,1-.54-1.81,3.16,3.16,0,0,1,.56-1.85,3.59,3.59,0,0,1,1.6-1.24,6.35,6.35,0,0,1,2.4-.43,8.9,8.9,0,0,1,2.45.35,8.4,8.4,0,0,1,2.12.94l-1.13,2.38a10.1,10.1,0,0,0-1.95-.88,5.62,5.62,0,0,0-1.73-.34,1.65,1.65,0,0,0-.87.2.66.66,0,0,0-.32.6.81.81,0,0,0,.28.63,2.15,2.15,0,0,0,.68.4c.27.11.67.24,1.21.4a15.93,15.93,0,0,1,2,.69,3.36,3.36,0,0,1,1.33,1,2.91,2.91,0,0,1,.55,1.85A3.18,3.18,0,0,1,208,78.76ZM218,80.2h-7.82V68.77h3v8.89H218Zm12.17-2.71a5.76,5.76,0,0,1-2.21,2.14,6.41,6.41,0,0,1-3.16.78,6.5,6.5,0,0,1-3.15-.77,5.8,5.8,0,0,1-3-5.18,5.67,5.67,0,0,1,.81-3,5.75,5.75,0,0,1,2.22-2.1,6.85,6.85,0,0,1,6.31,0,5.7,5.7,0,0,1,3,5.1A5.77,5.77,0,0,1,230.15,77.49Zm8.52,2.71h-3.1l-4.43-11.43h3.21L237.21,77l2.86-8.27h3.07Zm14.72,0h-9.18V68.77h9v2.38h-6v2.14h5.44v2.36l-5.44,0v2.15h6.19Zm12.41,0h-2.61L258,73.37V80.2h-2.79V68.77h2.62l5.2,6.88V68.77h2.77Zm5.22,0h-3V68.77h3Zm10.61,0-.78-2h-4.94l-.8,2H272L277,68.77H280l4.8,11.43Zm14.78,0h-2.6l-5.19-6.83V80.2h-2.79V68.77h2.63l5.2,6.88,0-6.88h2.77Z"/><path class="cls-3" d="M226.37,71.56a2.92,2.92,0,0,0-1.56-.44,3,3,0,0,0-1.57.44,3.26,3.26,0,0,0-1.15,1.21,3.55,3.55,0,0,0-.42,1.71,3.46,3.46,0,0,0,.43,1.72,3.37,3.37,0,0,0,1.15,1.22,2.89,2.89,0,0,0,1.56.45,2.84,2.84,0,0,0,1.56-.45,3.21,3.21,0,0,0,1.12-1.22,3.79,3.79,0,0,0,0-3.43A3.11,3.11,0,0,0,226.37,71.56Z"/><polygon class="cls-3" points="276.8 75.9 279.97 75.9 278.4 71.82 276.8 75.9"/><path class="cls-2" d="M74.41,11a63.42,63.42,0,1,0,63.42,63.41A63.49,63.49,0,0,0,74.41,11ZM54.7,58.44V44.49H84.28V109.7h-17V58.44Z"/><path class="cls-1" d="M136.45,33.38a74.2,74.2,0,1,0,12.38,41A74.39,74.39,0,0,0,136.45,33.38Zm-62,104.45a63.42,63.42,0,1,1,63.42-63.42A63.49,63.49,0,0,1,74.41,137.83Z"/><polygon class="cls-1" points="84.28 109.69 84.28 44.49 54.7 44.49 54.7 58.44 67.25 58.44 67.25 109.69 84.28 109.69"/><path class="cls-1" d="M206.76,73.91a15.93,15.93,0,0,0-2-.69c-.54-.16-.94-.29-1.21-.4a2.15,2.15,0,0,1-.68-.4.81.81,0,0,1-.28-.63.66.66,0,0,1,.32-.6,1.65,1.65,0,0,1,.87-.2,5.62,5.62,0,0,1,1.73.34,10.1,10.1,0,0,1,1.95.88l1.13-2.38a8.4,8.4,0,0,0-2.12-.94,8.9,8.9,0,0,0-2.45-.35,6.35,6.35,0,0,0-2.4.43,3.59,3.59,0,0,0-1.6,1.24,3.16,3.16,0,0,0-.56,1.85,2.83,2.83,0,0,0,.54,1.81,3.51,3.51,0,0,0,1.32,1,15.39,15.39,0,0,0,1.94.66c.52.14.92.26,1.21.36a2.28,2.28,0,0,1,.72.42.83.83,0,0,1,.28.65.78.78,0,0,1-.38.72,2,2,0,0,1-1,.24,5.54,5.54,0,0,1-2.1-.49,7.07,7.07,0,0,1-2-1.25l-1.16,2.33a7.6,7.6,0,0,0,2.44,1.36,8.49,8.49,0,0,0,2.83.5,6.53,6.53,0,0,0,2.34-.41A3.67,3.67,0,0,0,208,78.76a3.18,3.18,0,0,0,.6-2,2.91,2.91,0,0,0-.55-1.85A3.36,3.36,0,0,0,206.76,73.91Z"/><polygon class="cls-1" points="213.14 68.77 210.16 68.77 210.16 80.2 217.98 80.2 217.98 77.66 213.14 77.66 213.14 68.77"/><path class="cls-1" d="M227.94,69.36a6.85,6.85,0,0,0-6.31,0,5.75,5.75,0,0,0-2.22,2.1,5.67,5.67,0,0,0-.81,3,5.8,5.8,0,0,0,3,5.18,6.5,6.5,0,0,0,3.15.77,6.41,6.41,0,0,0,3.16-.78,5.82,5.82,0,0,0,3-5.17,5.7,5.7,0,0,0-3-5.1Zm-.45,6.84a3.21,3.21,0,0,1-1.12,1.22,2.84,2.84,0,0,1-1.56.45,2.89,2.89,0,0,1-1.56-.45,3.37,3.37,0,0,1-1.15-1.22,3.46,3.46,0,0,1-.43-1.72,3.55,3.55,0,0,1,.42-1.71,3.26,3.26,0,0,1,1.15-1.21,3,3,0,0,1,1.57-.44,2.92,2.92,0,0,1,1.56.44,3.11,3.11,0,0,1,1.12,1.21,3.79,3.79,0,0,1,0,3.43Z"/><polygon class="cls-1" points="237.21 77.04 234.35 68.77 231.14 68.77 235.57 80.2 238.67 80.2 243.14 68.77 240.07 68.77 237.21 77.04"/><polygon class="cls-1" points="247.2 75.67 252.64 75.65 252.64 73.29 247.2 73.29 247.2 71.15 253.23 71.15 253.23 68.77 244.22 68.77 244.22 80.2 253.39 80.2 253.39 77.82 247.2 77.82 247.2 75.67"/><polygon class="cls-1" points="263.04 75.65 257.84 68.77 255.22 68.77 255.22 80.2 258.01 80.2 258.01 73.37 263.19 80.2 265.8 80.2 265.8 68.77 263.03 68.77 263.04 75.65"/><rect class="cls-1" x="268.03" y="68.77" width="2.98" height="11.43"/><path class="cls-1" d="M277,68.77,272,80.2h3.07l.8-2h4.94l.78,2h3.18L280,68.77Zm-.15,7.13,1.6-4.08L280,75.9Z"/><polygon class="cls-1" points="293.66 75.65 288.46 68.77 285.83 68.77 285.83 80.2 288.62 80.2 288.62 73.37 293.81 80.2 296.41 80.2 296.41 68.77 293.64 68.77 293.66 75.65"/><path class="cls-1" d="M418.7,78.28a4.16,4.16,0,0,1-3.74-.2,4.14,4.14,0,0,1-1.5-5.66,4,4,0,0,1,1.5-1.49,4.12,4.12,0,0,1,3.76-.2,4.48,4.48,0,0,1,1.43,1l.87-1.06a5.37,5.37,0,0,0-1.82-1.19,5.9,5.9,0,0,0-5,.3,5.41,5.41,0,0,0-2,2,5.26,5.26,0,0,0-.74,2.76,5.41,5.41,0,0,0,2.74,4.76A5.53,5.53,0,0,0,417,80a5.6,5.6,0,0,0,2.18-.45A6.35,6.35,0,0,0,421,78.31l-.89-1A4.7,4.7,0,0,1,418.7,78.28Z"/><polygon class="cls-1" points="431.02 70.25 431.02 69.16 422.38 69.16 422.37 70.5 429.06 70.5 422.19 78.81 422.19 79.9 431.08 79.9 431.1 78.57 424.15 78.57 431.02 70.25"/><polygon class="cls-1" points="434.72 75.15 440.08 75.15 440.08 73.81 434.72 73.81 434.72 70.5 440.7 70.5 440.7 69.16 433.25 69.16 433.25 79.9 440.89 79.9 440.89 78.57 434.72 78.57 434.72 75.15"/><path class="cls-1" d="M449.6,78.28a4.16,4.16,0,0,1-3.74-.2,4.1,4.1,0,0,1-1.5-1.51,4.11,4.11,0,0,1,1.5-5.64,4.12,4.12,0,0,1,3.76-.2,4.48,4.48,0,0,1,1.43,1l.87-1.06a5.37,5.37,0,0,0-1.82-1.19,5.9,5.9,0,0,0-5,.3,5.41,5.41,0,0,0-2,2,5.26,5.26,0,0,0-.74,2.76,5.41,5.41,0,0,0,2.74,4.76,5.53,5.53,0,0,0,2.81.73,5.6,5.6,0,0,0,2.18-.45,6.22,6.22,0,0,0,1.89-1.25l-.89-1A4.7,4.7,0,0,1,449.6,78.28Z"/><polygon class="cls-1" points="461.6 73.95 455.46 73.95 455.46 69.16 453.99 69.16 453.99 79.9 455.46 79.9 455.46 75.28 461.6 75.28 461.6 79.9 463.09 79.9 463.09 69.16 461.6 69.16 461.6 73.95"/><polygon class="cls-1" points="468.57 81.74 469.8 81.74 474.63 67.33 473.39 67.33 468.57 81.74"/><polygon class="cls-1" points="480.94 75.15 486.29 75.15 486.29 73.81 480.94 73.81 480.94 70.5 486.92 70.5 486.92 69.16 479.46 69.16 479.46 79.9 487.1 79.9 487.1 78.57 480.94 78.57 480.94 75.15"/><polygon class="cls-1" points="497.12 77.49 490.97 69.16 489.48 69.16 489.48 79.9 490.95 79.9 490.95 71.59 497.09 79.9 498.58 79.9 498.58 69.16 497.12 69.16 497.12 77.49"/><path class="cls-1" d="M504.29,70.93a4.17,4.17,0,0,1,2.12-.56,4.64,4.64,0,0,1,1.71.33,4.75,4.75,0,0,1,1.48.93l.84-1.07a5.77,5.77,0,0,0-1.85-1.09,6.09,6.09,0,0,0-2.18-.4,5.87,5.87,0,0,0-2.89.72,5.49,5.49,0,0,0-2.06,2,5.27,5.27,0,0,0-.75,2.76,5.44,5.44,0,0,0,2.78,4.76,5.61,5.61,0,0,0,2.84.73,6.37,6.37,0,0,0,2.16-.39,6.28,6.28,0,0,0,1.9-1V74.65h-1.3v3.2a5.37,5.37,0,0,1-1.3.62,4.41,4.41,0,0,1-1.37.22,4.2,4.2,0,0,1-3.65-2.08,4.15,4.15,0,0,1,0-4.18A3.94,3.94,0,0,1,504.29,70.93Z"/><polygon class="cls-1" points="514.66 69.16 513.19 69.16 513.19 79.9 519.35 79.9 519.35 78.57 514.66 78.57 514.66 69.16"/><rect class="cls-1" x="521.23" y="69.16" width="1.47" height="10.74"/><path class="cls-1" d="M531.25,74.42a16,16,0,0,0-1.77-.64c-.58-.18-1-.35-1.36-.48a2.36,2.36,0,0,1-.83-.57,1.29,1.29,0,0,1-.34-.93,1.13,1.13,0,0,1,.56-1,2.72,2.72,0,0,1,1.49-.36,5.24,5.24,0,0,1,1.49.24,6.16,6.16,0,0,1,1.55.71l.62-1.32a6.25,6.25,0,0,0-1.65-.76,6.43,6.43,0,0,0-1.9-.28,5.32,5.32,0,0,0-2,.35,3,3,0,0,0-1.34,1,2.58,2.58,0,0,0-.47,1.52,2.44,2.44,0,0,0,.47,1.58,3.05,3.05,0,0,0,1.14.91,15.71,15.71,0,0,0,1.75.63c.58.17,1,.33,1.39.47a2.49,2.49,0,0,1,.85.59,1.4,1.4,0,0,1-.29,2.08,3,3,0,0,1-1.69.42,4.83,4.83,0,0,1-1.87-.41A5.5,5.5,0,0,1,525.34,77l-.66,1.28a6.16,6.16,0,0,0,1.93,1.22,5.94,5.94,0,0,0,2.3.46,5.35,5.35,0,0,0,2.07-.37,3.16,3.16,0,0,0,1.39-1.07,2.63,2.63,0,0,0,.5-1.61,2.56,2.56,0,0,0-.47-1.6A3.09,3.09,0,0,0,531.25,74.42Z"/><polygon class="cls-1" points="542.83 73.95 536.69 73.95 536.69 69.16 535.22 69.16 535.22 79.9 536.69 79.9 536.69 75.28 542.83 75.28 542.83 79.9 544.32 79.9 544.32 69.16 542.83 69.16 542.83 73.95"/><polygon class="cls-1" points="549.79 81.74 551.02 81.74 555.86 67.33 554.61 67.33 549.79 81.74"/><path class="cls-1" d="M566.17,74.42a15.29,15.29,0,0,0-1.77-.64c-.58-.18-1-.35-1.36-.48a2.36,2.36,0,0,1-.83-.57,1.29,1.29,0,0,1-.34-.93,1.13,1.13,0,0,1,.56-1,2.73,2.73,0,0,1,1.5-.36,5.23,5.23,0,0,1,1.48.24,6.16,6.16,0,0,1,1.55.71l.62-1.32a6.25,6.25,0,0,0-1.65-.76A6.43,6.43,0,0,0,564,69a5.32,5.32,0,0,0-2,.35,3.08,3.08,0,0,0-1.34,1,2.58,2.58,0,0,0-.47,1.52,2.44,2.44,0,0,0,.47,1.58,3.05,3.05,0,0,0,1.14.91,15.71,15.71,0,0,0,1.75.63c.58.17,1,.33,1.39.47a2.49,2.49,0,0,1,.85.59,1.4,1.4,0,0,1-.29,2.08,3,3,0,0,1-1.69.42,4.74,4.74,0,0,1-1.86-.41A5.54,5.54,0,0,1,560.26,77l-.66,1.28a6.16,6.16,0,0,0,1.93,1.22,6,6,0,0,0,2.3.46,5.35,5.35,0,0,0,2.07-.37,3.16,3.16,0,0,0,1.39-1.07,2.63,2.63,0,0,0,.5-1.61,2.56,2.56,0,0,0-.47-1.6A3.09,3.09,0,0,0,566.17,74.42Z"/><polygon class="cls-1" points="571.61 75.15 576.97 75.15 576.97 73.81 571.61 73.81 571.61 70.5 577.6 70.5 577.6 69.16 570.14 69.16 570.14 79.9 577.78 79.9 577.78 78.57 571.61 78.57 571.61 75.15"/><path class="cls-1" d="M588,75a3.8,3.8,0,0,0,.61-2.2,3.34,3.34,0,0,0-1.11-2.68,4.82,4.82,0,0,0-3.16-.94h-4.2V79.9h1.47V76.56h2.73l.6,0,2.13,3.37h1.69l-2.5-3.63A3.4,3.4,0,0,0,588,75Zm-3.66.24h-2.73V70.5h2.73a3.28,3.28,0,0,1,2.12.59,2.09,2.09,0,0,1,.74,1.74,2.2,2.2,0,0,1-.74,1.79A3.28,3.28,0,0,1,584.36,75.22Z"/><path class="cls-1" d="M597.42,74.25a2.52,2.52,0,0,0,1.43-.85,2.34,2.34,0,0,0,.52-1.55,2.32,2.32,0,0,0-.94-2,4.17,4.17,0,0,0-2.59-.72h-4.59V79.9h4.67a4.74,4.74,0,0,0,2.86-.77,2.55,2.55,0,0,0,1-2.16,2.7,2.7,0,0,0-.63-1.82A2.88,2.88,0,0,0,597.42,74.25Zm-4.69-3.74h3a2.44,2.44,0,0,1,1.55.4,1.4,1.4,0,0,1,.54,1.18,1.46,1.46,0,0,1-.54,1.21,2.51,2.51,0,0,1-1.55.42h-3Zm4.91,7.59a3.21,3.21,0,0,1-1.88.45h-3v-3.5h3a3.37,3.37,0,0,1,1.88.46,1.47,1.47,0,0,1,.67,1.28A1.5,1.5,0,0,1,597.64,78.1Z"/><rect class="cls-1" x="602.18" y="69.16" width="1.47" height="10.74"/><path class="cls-1" d="M610,69.16,605.23,79.9h1.55l1.12-2.61h5.66l1.14,2.61h1.59l-4.75-10.74ZM608.48,76l2.24-5.22L613,76Z"/><polygon class="cls-1" points="625.5 77.49 619.35 69.16 617.86 69.16 617.86 79.9 619.33 79.9 619.33 71.59 625.47 79.9 626.96 79.9 626.96 69.16 625.5 69.16 625.5 77.49"/></g></g></svg>