<svg xmlns="http://www.w3.org/2000/svg" viewBox="0 0 689.58 148.83"><defs><style>.cls-1{fill:#fff;}.cls-2{fill:#00aaaf;}.cls-3{fill:#008c90;}</style></defs><title>2-ang</title><g id="Layer_2" data-name="Layer 2"><g id="Layer_1-2" data-name="Layer 1"><polygon class="cls-1" points="486.67 33.38 471.81 33.38 503.45 74.41 471.81 115.45 486.67 115.45 518.32 74.41 486.67 33.38"/><path class="cls-2" d="M486.67,33.38l31.65,41-31.65,41H689.58V33.38ZM564,79.56a3.23,3.23,0,0,1-1.4,1.06,5.33,5.33,0,0,1-2.06.38,6,6,0,0,1-2.31-.46,6.37,6.37,0,0,1-1.93-1.23L557,78a5.54,5.54,0,0,0,1.73,1.16,4.76,4.76,0,0,0,1.86.4,3,3,0,0,0,1.7-.42,1.4,1.4,0,0,0,.28-2.08,2.38,2.38,0,0,0-.85-.58c-.34-.14-.81-.3-1.39-.48a12.49,12.49,0,0,1-1.75-.63,2.93,2.93,0,0,1-1.14-.9,2.77,2.77,0,0,1,0-3.1,2.92,2.92,0,0,1,1.33-1,5.14,5.14,0,0,1,2-.36,6.42,6.42,0,0,1,1.89.29,6.25,6.25,0,0,1,1.65.76l-.61,1.32a6.26,6.26,0,0,0-1.56-.72,5.57,5.57,0,0,0-1.48-.23,2.75,2.75,0,0,0-1.5.36,1.13,1.13,0,0,0-.56,1,1.28,1.28,0,0,0,.34.92,2.36,2.36,0,0,0,.83.57c.33.14.78.3,1.36.49a15.29,15.29,0,0,1,1.77.64,3.06,3.06,0,0,1,1.15.91A2.53,2.53,0,0,1,564.5,78,2.69,2.69,0,0,1,564,79.56Zm9,1.35h-6.17V70.17h1.47v9.4H573Zm11.46-2.62a5.47,5.47,0,0,1-2.05,2,6,6,0,0,1-5.69,0,5.54,5.54,0,0,1-2-2,5.33,5.33,0,0,1-.75-2.77,5.24,5.24,0,0,1,.75-2.75,5.36,5.36,0,0,1,2-2,6,6,0,0,1,5.7,0,5.32,5.32,0,0,1,2.05,2,5.24,5.24,0,0,1,.75,2.75A5.33,5.33,0,0,1,584.48,78.29Zm7.14,2.62h-1.54l-4.32-10.74h1.58l3.54,9.1,3.54-9.1H596Zm13.61,0h-7.65V70.17H605V71.5h-6v3.32h5.35v1.33h-5.35v3.42h6.17Zm11.47,0h-1.49l-6.13-8.32v8.32H607.6V70.17h1.49l6.16,8.33V70.17h1.45Zm4.56,0h-1.47V70.17h1.47Zm11,0-1.14-2.61h-5.66l-1.12,2.61h-1.55l4.77-10.74h1.54l4.75,10.74Zm12.26,0h-1.49l-6.14-8.32v8.32h-1.47V70.17H637l6.15,8.33V70.17h1.46Z"/><path class="cls-2" d="M581.67,72a4,4,0,0,0-2.07-.56,4.22,4.22,0,0,0-3.6,2,3.94,3.94,0,0,0-.57,2.08,4,4,0,0,0,.57,2.09,4.23,4.23,0,0,0,1.52,1.51,4.11,4.11,0,0,0,2.08.56,4,4,0,0,0,2.07-.56,4.26,4.26,0,0,0,1.5-1.51,4.09,4.09,0,0,0,.56-2.09,4,4,0,0,0-.56-2.08A4.12,4.12,0,0,0,581.67,72Z"/><polygon class="cls-2" points="626.09 76.96 630.6 76.96 628.33 71.75 626.09 76.96"/><path class="cls-3" d="M396.54,78.84a2.08,2.08,0,0,0-1.24-.3H393v2.4h2.28a2.07,2.07,0,0,0,1.24-.33,1.07,1.07,0,0,0,.46-.91A1,1,0,0,0,396.54,78.84Z"/><polygon class="cls-3" points="410.48 78.95 413.64 78.95 412.08 74.87 410.48 78.95"/><path class="cls-3" d="M383.38,74.2h-2.16v3.51h2.16a2,2,0,0,0,1.41-.46,1.66,1.66,0,0,0,.5-1.32,1.62,1.62,0,0,0-.5-1.28A2,2,0,0,0,383.38,74.2Z"/><path class="cls-3" d="M396.28,76.07a1,1,0,0,0,.36-.84,1,1,0,0,0-.36-.81,1.43,1.43,0,0,0-1-.26H393v2.21h2.28A1.49,1.49,0,0,0,396.28,76.07Z"/><path class="cls-3" d="M471.81,33.38H136.45a74.2,74.2,0,0,1,0,82.07H471.81l31.64-41ZM207.43,82.88a6.14,6.14,0,0,1-5.6-.2,5.71,5.71,0,0,1-2.15-2.13,6,6,0,0,1-.79-3,5.68,5.68,0,0,1,3-5.1,6.49,6.49,0,0,1,7.73,1.21l-1.73,2.08a4.25,4.25,0,0,0-1.32-1.11,3.11,3.11,0,0,0-1.51-.42,3.07,3.07,0,0,0-1.58.43,3.1,3.1,0,0,0-1.11,1.19,3.69,3.69,0,0,0,0,3.38,3.1,3.1,0,0,0,1.11,1.19,3,3,0,0,0,1.58.43,3.44,3.44,0,0,0,1.46-.36,4.41,4.41,0,0,0,1.37-1l1.75,1.88A6.94,6.94,0,0,1,207.43,82.88Zm12.93.37H210.24V81.31l6-7.09h-5.82v-2.4h9.82v2l-6,7.08h6.12Zm10.75,0h-9.18V71.82h9V74.2h-6v2.14h5.45V78.7l-5.45,0v2.15h6.2Zm9.62-.37a6,6,0,0,1-2.53.58,6.12,6.12,0,0,1-3.07-.78A5.71,5.71,0,0,1,233,80.55a6,6,0,0,1-.78-3,5.81,5.81,0,0,1,.8-3,5.67,5.67,0,0,1,2.19-2.1,6.52,6.52,0,0,1,7.74,1.21L241.2,75.7a4.25,4.25,0,0,0-1.32-1.11,3.15,3.15,0,0,0-1.52-.42,3,3,0,0,0-1.57.43,3.13,3.13,0,0,0-1.12,1.19,3.69,3.69,0,0,0,0,3.38,3.13,3.13,0,0,0,1.12,1.19,2.94,2.94,0,0,0,1.57.43,3.45,3.45,0,0,0,1.47-.36,4.53,4.53,0,0,0,1.37-1l1.74,1.88A6.83,6.83,0,0,1,240.73,82.88Zm14.06.37h-3V78.87H247.2v4.38h-3V71.82h3v4.67h4.61V71.82h3ZM261.35,85H258.9l5.28-15h2.45Zm17.86-1.79H270V71.82h9V74.2h-6v2.14h5.44V78.7l-5.44,0v2.15h6.19Zm12.41,0H289l-5.18-6.83v6.83H281V71.82h2.63l5.2,6.88,0-6.88h2.77Zm5-4a3.09,3.09,0,0,0,1.17,1.21,3.28,3.28,0,0,0,1.67.44,4.51,4.51,0,0,0,2-.55v-3H304V82a7.54,7.54,0,0,1-2.24,1.09,8.28,8.28,0,0,1-2.52.41,6.28,6.28,0,0,1-3.12-.77,5.75,5.75,0,0,1-2.19-2.13,5.86,5.86,0,0,1-.8-3,5.65,5.65,0,0,1,.82-3,5.77,5.77,0,0,1,2.27-2.11,6.75,6.75,0,0,1,3.22-.77,7.35,7.35,0,0,1,2.54.47,6.38,6.38,0,0,1,2.15,1.25l-1.69,2.08a4.77,4.77,0,0,0-1.43-.93,4.21,4.21,0,0,0-1.59-.34,3.12,3.12,0,0,0-1.64.44,3.21,3.21,0,0,0-1.16,1.21,3.5,3.5,0,0,0-.43,1.71A3.62,3.62,0,0,0,296.61,79.27Zm17.18,4H306V71.82h3v8.89h4.84Zm4.34,0h-3V71.82h3Zm10.63-1.44A3.69,3.69,0,0,1,327.1,83a6.46,6.46,0,0,1-2.34.41,8.28,8.28,0,0,1-2.83-.5,7.55,7.55,0,0,1-2.43-1.36l1.15-2.33a7.37,7.37,0,0,0,2.05,1.26,5.73,5.73,0,0,0,2.1.49,2,2,0,0,0,1.05-.25.8.8,0,0,0,.38-.72.86.86,0,0,0-.29-.65,2,2,0,0,0-.71-.41c-.29-.11-.7-.23-1.22-.37a16,16,0,0,1-1.94-.66,3.38,3.38,0,0,1-1.31-1,2.8,2.8,0,0,1-.55-1.8,3.11,3.11,0,0,1,.57-1.86,3.54,3.54,0,0,1,1.6-1.23,6.12,6.12,0,0,1,2.4-.43,8.47,8.47,0,0,1,2.44.35,7.77,7.77,0,0,1,2.12.93l-1.12,2.38a10.75,10.75,0,0,0-2-.88,6,6,0,0,0-1.74-.34,1.58,1.58,0,0,0-.87.21.66.66,0,0,0-.32.59.84.84,0,0,0,.28.63,2.22,2.22,0,0,0,.69.41q.4.15,1.2.39a15.57,15.57,0,0,1,2,.69A3.53,3.53,0,0,1,328.81,78a3,3,0,0,1,.55,1.85A3.18,3.18,0,0,1,328.76,81.81Zm12.7,1.44h-3V78.87h-4.61v4.38h-3V71.82h3v4.67h4.61V71.82h3ZM348,85h-2.45l5.29-15h2.44Zm17.1-3.23A3.6,3.6,0,0,1,363.46,83a6.53,6.53,0,0,1-2.34.41,8.24,8.24,0,0,1-2.83-.5,7.71,7.71,0,0,1-2.44-1.36L357,79.24a7.32,7.32,0,0,0,2,1.26,5.73,5.73,0,0,0,2.1.49,2,2,0,0,0,1.05-.25.78.78,0,0,0,.38-.72.85.85,0,0,0-.28-.65,2.09,2.09,0,0,0-.72-.41c-.29-.11-.69-.23-1.21-.37a15.39,15.39,0,0,1-1.94-.66,3.49,3.49,0,0,1-1.32-1,2.8,2.8,0,0,1-.54-1.8,3.17,3.17,0,0,1,.56-1.86,3.65,3.65,0,0,1,1.6-1.23,6.16,6.16,0,0,1,2.4-.43,8.54,8.54,0,0,1,2.45.35,8,8,0,0,1,2.12.93l-1.13,2.38a10.75,10.75,0,0,0-1.95-.88,5.94,5.94,0,0,0-1.73-.34,1.55,1.55,0,0,0-.87.21.64.64,0,0,0-.32.59.81.81,0,0,0,.28.63,2.16,2.16,0,0,0,.68.41c.27.1.67.23,1.21.39a15.93,15.93,0,0,1,2,.69A3.45,3.45,0,0,1,365.16,78a2.91,2.91,0,0,1,.55,1.85A3.18,3.18,0,0,1,365.11,81.81Zm11.3,1.44h-9.18V71.82h9V74.2h-6v2.14h5.45V78.7l-5.45,0v2.15h6.2Zm8.69,0-1.67-3.16h-2.21v3.16h-3V71.82h5.14a5.24,5.24,0,0,1,3.51,1.06,3.65,3.65,0,0,1,1.25,3,4.51,4.51,0,0,1-.52,2.23,3.69,3.69,0,0,1-1.52,1.46l2.38,3.73Zm14.44-1.49A3.42,3.42,0,0,1,398,82.87a6.62,6.62,0,0,1-2.33.38H390V71.82h5.42a6.65,6.65,0,0,1,2.25.35,3.33,3.33,0,0,1,1.47,1,2.34,2.34,0,0,1,.52,1.53,2.38,2.38,0,0,1-.53,1.56,2.66,2.66,0,0,1-1.44.92,2.8,2.8,0,0,1,1.72,1,2.91,2.91,0,0,1,.63,1.89A2.75,2.75,0,0,1,399.54,81.76Zm5.15,1.49h-3V71.82h3Zm10.61,0-.78-2h-4.94l-.8,2h-3.06l4.9-11.43h3.07l4.79,11.43Zm14.79,0h-2.61l-5.18-6.83v6.83h-2.79V71.82h2.62l5.2,6.88V71.82h2.77Z"/><path class="cls-1" d="M206.52,80.43a3.44,3.44,0,0,1-1.46.36,3,3,0,0,1-1.58-.43,3.1,3.1,0,0,1-1.11-1.19,3.69,3.69,0,0,1,0-3.38,3.1,3.1,0,0,1,1.11-1.19,3.07,3.07,0,0,1,1.58-.43,3.11,3.11,0,0,1,1.51.42,4.25,4.25,0,0,1,1.32,1.11l1.73-2.08a6.48,6.48,0,0,0-7.73-1.21,5.68,5.68,0,0,0-3,5.1,6,6,0,0,0,.79,3,5.71,5.71,0,0,0,2.15,2.13,6.14,6.14,0,0,0,5.6.2,6.94,6.94,0,0,0,2.21-1.55l-1.75-1.88A4.41,4.41,0,0,1,206.52,80.43Z"/><polygon class="cls-1" points="220.27 73.78 220.27 71.82 210.45 71.82 210.45 74.22 216.27 74.22 210.24 81.31 210.24 83.25 220.36 83.25 220.36 80.86 214.24 80.86 220.27 73.78"/><polygon class="cls-1" points="224.91 78.72 230.36 78.7 230.36 76.34 224.91 76.34 224.91 74.2 230.94 74.2 230.94 71.82 221.93 71.82 221.93 83.25 231.11 83.25 231.11 80.87 224.91 80.87 224.91 78.72"/><path class="cls-1" d="M239.83,80.43a3.45,3.45,0,0,1-1.47.36,2.94,2.94,0,0,1-1.57-.43,3.13,3.13,0,0,1-1.12-1.19,3.69,3.69,0,0,1,0-3.38,3.13,3.13,0,0,1,1.12-1.19,3,3,0,0,1,1.57-.43,3.15,3.15,0,0,1,1.52.42,4.25,4.25,0,0,1,1.32,1.11l1.73-2.08a6.5,6.5,0,0,0-7.74-1.21,5.67,5.67,0,0,0-2.19,2.1,5.81,5.81,0,0,0-.8,3,6,6,0,0,0,.78,3,5.71,5.71,0,0,0,2.15,2.13,6.12,6.12,0,0,0,3.07.78,6,6,0,0,0,2.53-.58,6.83,6.83,0,0,0,2.21-1.55l-1.74-1.88A4.53,4.53,0,0,1,239.83,80.43Z"/><polygon class="cls-1" points="251.81 76.49 247.2 76.49 247.2 71.82 244.21 71.82 244.21 83.25 247.2 83.25 247.2 78.87 251.81 78.87 251.81 83.25 254.79 83.25 254.79 71.82 251.81 71.82 251.81 76.49"/><polygon class="cls-1" points="258.9 85.05 261.35 85.05 266.63 70.05 264.18 70.05 258.9 85.05"/><polygon class="cls-1" points="273.02 78.72 278.46 78.7 278.46 76.34 273.02 76.34 273.02 74.2 279.05 74.2 279.05 71.82 270.04 71.82 270.04 83.25 279.21 83.25 279.21 80.87 273.02 80.87 273.02 78.72"/><polygon class="cls-1" points="288.87 78.7 283.67 71.82 281.04 71.82 281.04 83.25 283.83 83.25 283.83 76.42 289.01 83.25 291.62 83.25 291.62 71.82 288.85 71.82 288.87 78.7"/><path class="cls-1" d="M297.77,74.61a3.12,3.12,0,0,1,1.64-.44,4.21,4.21,0,0,1,1.59.34,4.77,4.77,0,0,1,1.43.93l1.69-2.08A6.38,6.38,0,0,0,302,72.11a7.35,7.35,0,0,0-2.54-.47,6.75,6.75,0,0,0-3.22.77,5.77,5.77,0,0,0-2.27,2.11,5.65,5.65,0,0,0-.82,3,5.86,5.86,0,0,0,.8,3,5.75,5.75,0,0,0,2.19,2.13,6.28,6.28,0,0,0,3.12.77,8.28,8.28,0,0,0,2.52-.41A7.54,7.54,0,0,0,304,82V77.42h-2.57v3a4.51,4.51,0,0,1-2,.55,3.28,3.28,0,0,1-1.67-.44,3.09,3.09,0,0,1-1.17-1.21,3.62,3.62,0,0,1-.43-1.74,3.5,3.5,0,0,1,.43-1.71A3.21,3.21,0,0,1,297.77,74.61Z"/><polygon class="cls-1" points="308.95 71.82 305.97 71.82 305.97 83.25 313.79 83.25 313.79 80.71 308.95 80.71 308.95 71.82"/><rect class="cls-1" x="315.14" y="71.82" width="2.98" height="11.43"/><path class="cls-1" d="M327.48,77a15.57,15.57,0,0,0-2-.69q-.79-.24-1.2-.39a2.22,2.22,0,0,1-.69-.41.84.84,0,0,1-.28-.63.66.66,0,0,1,.32-.59,1.58,1.58,0,0,1,.87-.21,6,6,0,0,1,1.74.34,10.75,10.75,0,0,1,2,.88l1.12-2.38a7.77,7.77,0,0,0-2.12-.93,8.47,8.47,0,0,0-2.44-.35,6.12,6.12,0,0,0-2.4.43,3.54,3.54,0,0,0-1.6,1.23,3.11,3.11,0,0,0-.57,1.86,2.8,2.8,0,0,0,.55,1.8,3.38,3.38,0,0,0,1.31,1,16,16,0,0,0,1.94.66c.52.14.93.26,1.22.37a2,2,0,0,1,.71.41.86.86,0,0,1,.29.65.8.8,0,0,1-.38.72,2,2,0,0,1-1.05.25,5.73,5.73,0,0,1-2.1-.49,7.37,7.37,0,0,1-2.05-1.26l-1.15,2.33a7.55,7.55,0,0,0,2.43,1.36,8.28,8.28,0,0,0,2.83.5A6.46,6.46,0,0,0,327.1,83a3.69,3.69,0,0,0,1.66-1.21,3.18,3.18,0,0,0,.6-2,3,3,0,0,0-.55-1.85A3.53,3.53,0,0,0,327.48,77Z"/><polygon class="cls-1" points="338.47 76.49 333.86 76.49 333.86 71.82 330.88 71.82 330.88 83.25 333.86 83.25 333.86 78.87 338.47 78.87 338.47 83.25 341.46 83.25 341.46 71.82 338.47 71.82 338.47 76.49"/><polygon class="cls-1" points="345.56 85.05 348.01 85.05 353.29 70.05 350.85 70.05 345.56 85.05"/><path class="cls-1" d="M363.83,77a15.93,15.93,0,0,0-2-.69c-.54-.16-.94-.29-1.21-.39a2.16,2.16,0,0,1-.68-.41.81.81,0,0,1-.28-.63.64.64,0,0,1,.32-.59,1.55,1.55,0,0,1,.87-.21,5.94,5.94,0,0,1,1.73.34,10.75,10.75,0,0,1,1.95.88l1.13-2.38a8,8,0,0,0-2.12-.93,8.54,8.54,0,0,0-2.45-.35,6.16,6.16,0,0,0-2.4.43,3.65,3.65,0,0,0-1.6,1.23,3.17,3.17,0,0,0-.56,1.86,2.8,2.8,0,0,0,.54,1.8,3.49,3.49,0,0,0,1.32,1,15.39,15.39,0,0,0,1.94.66c.52.14.92.26,1.21.37a2.09,2.09,0,0,1,.72.41.85.85,0,0,1,.28.65.78.78,0,0,1-.38.72,2,2,0,0,1-1.05.25,5.73,5.73,0,0,1-2.1-.49,7.32,7.32,0,0,1-2-1.26l-1.16,2.33a7.71,7.71,0,0,0,2.44,1.36,8.24,8.24,0,0,0,2.83.5,6.53,6.53,0,0,0,2.34-.41,3.6,3.6,0,0,0,1.65-1.21,3.18,3.18,0,0,0,.6-2,2.91,2.91,0,0,0-.55-1.85A3.45,3.45,0,0,0,363.83,77Z"/><polygon class="cls-1" points="370.21 78.72 375.66 78.7 375.66 76.34 370.21 76.34 370.21 74.2 376.25 74.2 376.25 71.82 367.23 71.82 367.23 83.25 376.41 83.25 376.41 80.87 370.21 80.87 370.21 78.72"/><path class="cls-1" d="M387.61,78.06a4.51,4.51,0,0,0,.52-2.23,3.65,3.65,0,0,0-1.25-3,5.24,5.24,0,0,0-3.51-1.06h-5.14V83.25h3V80.09h2.21l1.67,3.16h3.37l-2.38-3.73A3.69,3.69,0,0,0,387.61,78.06Zm-2.82-.81a2,2,0,0,1-1.41.46h-2.16V74.2h2.16a2,2,0,0,1,1.41.45,1.62,1.62,0,0,1,.5,1.28A1.66,1.66,0,0,1,384.79,77.25Z"/><path class="cls-1" d="M397.73,77.19a2.66,2.66,0,0,0,1.44-.92,2.38,2.38,0,0,0,.53-1.56,2.34,2.34,0,0,0-.52-1.53,3.33,3.33,0,0,0-1.47-1,6.65,6.65,0,0,0-2.25-.35H390V83.25h5.64a6.62,6.62,0,0,0,2.33-.38,3.42,3.42,0,0,0,1.53-1.11,2.75,2.75,0,0,0,.54-1.69,2.91,2.91,0,0,0-.63-1.89A2.8,2.8,0,0,0,397.73,77.19Zm-4.71-3h2.28a1.43,1.43,0,0,1,1,.26,1,1,0,0,1,.36.81,1,1,0,0,1-.36.84,1.49,1.49,0,0,1-1,.3H393Zm3.52,6.45a2.07,2.07,0,0,1-1.24.33H393v-2.4h2.28a2.08,2.08,0,0,1,1.24.3,1,1,0,0,1,.46.86A1.07,1.07,0,0,1,396.54,80.61Z"/><rect class="cls-1" x="401.71" y="71.82" width="2.98" height="11.43"/><path class="cls-1" d="M410.62,71.82l-4.9,11.43h3.06l.8-2h4.94l.78,2h3.18l-4.79-11.43ZM410.48,79l1.6-4.08L413.64,79Z"/><polygon class="cls-1" points="427.33 78.7 422.13 71.82 419.51 71.82 419.51 83.25 422.3 83.25 422.3 76.42 427.48 83.25 430.09 83.25 430.09 71.82 427.32 71.82 427.33 78.7"/><path class="cls-2" d="M74.41,11a63.42,63.42,0,1,0,63.42,63.41A63.49,63.49,0,0,0,74.41,11Zm0,30.83A30.21,30.21,0,0,1,86.11,44a18.82,18.82,0,0,1,8.09,6,14.52,14.52,0,0,1,2.93,8.93,19.73,19.73,0,0,1-3.3,10.37,64.34,64.34,0,0,1-9.35,11.4L71.18,94.1H99v13.68H49.32l-.09-11.26L73,72.15a32.89,32.89,0,0,0,4.55-5.77,9.9,9.9,0,0,0,1.77-4.93,4.86,4.86,0,0,0-2-4.14,9.1,9.1,0,0,0-5.49-1.44,21.21,21.21,0,0,0-8.7,2.19,38.26,38.26,0,0,0-9.25,6.09L47.37,51.59Q60.86,41.83,74.43,41.83Z"/><path class="cls-1" d="M136.45,33.38a74.2,74.2,0,1,0,12.38,41A74.39,74.39,0,0,0,136.45,33.38Zm-62,104.45a63.42,63.42,0,1,1,63.42-63.42A63.49,63.49,0,0,1,74.41,137.83Z"/><path class="cls-1" d="M53.88,64.15a38.26,38.26,0,0,1,9.25-6.09,21.21,21.21,0,0,1,8.7-2.19,9.1,9.1,0,0,1,5.49,1.44,4.86,4.86,0,0,1,2,4.14,9.9,9.9,0,0,1-1.77,4.93A32.89,32.89,0,0,1,73,72.15L49.23,96.52l.09,11.26H99V94.1H71.18l13.3-13.39a64.34,64.34,0,0,0,9.35-11.4,19.73,19.73,0,0,0,3.3-10.37A14.52,14.52,0,0,0,94.2,50a18.82,18.82,0,0,0-8.09-6,30.21,30.21,0,0,0-11.68-2.14q-13.58,0-27.06,9.76Z"/><path class="cls-1" d="M562.88,75.43a15.29,15.29,0,0,0-1.77-.64c-.58-.19-1-.35-1.36-.49a2.36,2.36,0,0,1-.83-.57,1.28,1.28,0,0,1-.34-.92,1.13,1.13,0,0,1,.56-1,2.75,2.75,0,0,1,1.5-.36,5.57,5.57,0,0,1,1.48.23,6.26,6.26,0,0,1,1.56.72l.61-1.32a6.25,6.25,0,0,0-1.65-.76,6.42,6.42,0,0,0-1.89-.29,5.14,5.14,0,0,0-2,.36,2.92,2.92,0,0,0-1.33,1,2.77,2.77,0,0,0,0,3.1,2.93,2.93,0,0,0,1.14.9,12.49,12.49,0,0,0,1.75.63c.58.18,1.05.34,1.39.48a2.38,2.38,0,0,1,.85.58,1.4,1.4,0,0,1-.28,2.08,3,3,0,0,1-1.7.42,4.76,4.76,0,0,1-1.86-.4A5.54,5.54,0,0,1,557,78l-.66,1.27a6.37,6.37,0,0,0,1.93,1.23,6,6,0,0,0,2.31.46,5.33,5.33,0,0,0,2.06-.38,3.23,3.23,0,0,0,1.4-1.06A2.69,2.69,0,0,0,564.5,78a2.53,2.53,0,0,0-.47-1.61A3.06,3.06,0,0,0,562.88,75.43Z"/><polygon class="cls-1" points="568.32 70.17 566.85 70.17 566.85 80.91 573.02 80.91 573.02 79.57 568.32 79.57 568.32 70.17"/><path class="cls-1" d="M582.43,70.8a6,6,0,0,0-5.7,0,5.36,5.36,0,0,0-2,2,5.24,5.24,0,0,0-.75,2.75,5.33,5.33,0,0,0,.75,2.77,5.54,5.54,0,0,0,2,2,6,6,0,0,0,5.69,0,5.47,5.47,0,0,0,2.05-2,5.33,5.33,0,0,0,.75-2.77,5.24,5.24,0,0,0-.75-2.75A5.32,5.32,0,0,0,582.43,70.8Zm.74,6.81a4.26,4.26,0,0,1-1.5,1.51,4,4,0,0,1-2.07.56,4.11,4.11,0,0,1-2.08-.56A4.23,4.23,0,0,1,576,77.61a4,4,0,0,1-.57-2.09,3.94,3.94,0,0,1,.57-2.08,4.22,4.22,0,0,1,3.6-2,4,4,0,0,1,2.07.56,4.12,4.12,0,0,1,1.5,1.49,4,4,0,0,1,.56,2.08A4.09,4.09,0,0,1,583.17,77.61Z"/><polygon class="cls-1" points="590.88 79.27 587.34 70.17 585.76 70.17 590.08 80.91 591.62 80.91 595.98 70.17 594.42 70.17 590.88 79.27"/><polygon class="cls-1" points="599.06 76.15 604.41 76.15 604.41 74.81 599.06 74.81 599.06 71.5 605.04 71.5 605.04 70.17 597.59 70.17 597.59 80.91 605.23 80.91 605.23 79.57 599.06 79.57 599.06 76.15"/><polygon class="cls-1" points="615.25 78.5 609.09 70.17 607.6 70.17 607.6 80.91 609.08 80.91 609.08 72.59 615.21 80.91 616.7 80.91 616.7 70.17 615.25 70.17 615.25 78.5"/><rect class="cls-1" x="619.79" y="70.17" width="1.47" height="10.74"/><path class="cls-1" d="M627.61,70.17l-4.77,10.74h1.55l1.12-2.61h5.66l1.14,2.61h1.59l-4.75-10.74ZM626.09,77l2.24-5.21L630.6,77Z"/><polygon class="cls-1" points="643.11 78.5 636.96 70.17 635.47 70.17 635.47 80.91 636.94 80.91 636.94 72.59 643.08 80.91 644.57 80.91 644.57 70.17 643.11 70.17 643.11 78.5"/></g></g></svg>