<svg xmlns="http://www.w3.org/2000/svg" viewBox="0 0 689.58 148.83"><defs><style>.cls-1{fill:#fff;}.cls-2{fill:#4b88a2;}.cls-3{fill:#3e7085;}</style></defs><title>3-ang</title><g id="Layer_2" data-name="Layer 2"><g id="Layer_1-2" data-name="Layer 1"><polygon class="cls-1" points="397.65 33.38 382.79 33.38 414.43 74.42 382.79 115.45 397.65 115.45 429.3 74.42 397.65 33.38"/><path class="cls-2" d="M500.66,72a4,4,0,0,0-2.06-.55,4.07,4.07,0,0,0-2.08.55,4.23,4.23,0,0,0-1.53,1.5,4.08,4.08,0,0,0,0,4.16,4.18,4.18,0,0,0,1.53,1.51,4,4,0,0,0,2.08.56,3.91,3.91,0,0,0,2.06-.56,4.2,4.2,0,0,0,1.51-1.51,4.14,4.14,0,0,0,0-4.16A4.25,4.25,0,0,0,500.66,72Z"/><polygon class="cls-2" points="545.09 76.97 549.6 76.97 547.33 71.75 545.09 76.97"/><path class="cls-2" d="M397.65,33.38l31.65,41-31.65,41H689.58V33.38ZM483,79.56a3.21,3.21,0,0,1-1.39,1.07,5.35,5.35,0,0,1-2.07.37,5.94,5.94,0,0,1-2.3-.46,6,6,0,0,1-1.93-1.22L476,78a5.5,5.5,0,0,0,1.72,1.16,4.79,4.79,0,0,0,1.87.41,3,3,0,0,0,1.69-.42,1.32,1.32,0,0,0,.62-1.15,1.34,1.34,0,0,0-.33-.93,2.49,2.49,0,0,0-.85-.59c-.35-.14-.81-.3-1.39-.47a15.71,15.71,0,0,1-1.75-.63,3.16,3.16,0,0,1-1.15-.91,2.48,2.48,0,0,1-.46-1.58,2.52,2.52,0,0,1,.47-1.52,3,3,0,0,1,1.34-1,5.28,5.28,0,0,1,2-.35,6.43,6.43,0,0,1,1.9.28,6.94,6.94,0,0,1,1.65.76l-.62,1.32a6.07,6.07,0,0,0-1.56-.71,5.18,5.18,0,0,0-1.48-.24,2.72,2.72,0,0,0-1.49.36,1.11,1.11,0,0,0-.56,1,1.29,1.29,0,0,0,.34.93,2.41,2.41,0,0,0,.82.57c.33.14.79.3,1.37.48a17.13,17.13,0,0,1,1.76.64,3.12,3.12,0,0,1,1.16.92,2.56,2.56,0,0,1,.47,1.6A2.7,2.7,0,0,1,483,79.56Zm9,1.35h-6.17V70.17h1.47v9.41H492Zm11.46-2.61a5.52,5.52,0,0,1-2.05,2,5.91,5.91,0,0,1-5.69,0,5.44,5.44,0,0,1-2.05-2,5.36,5.36,0,0,1-.75-2.77,5.27,5.27,0,0,1,.75-2.76,5.44,5.44,0,0,1,2-2,6,6,0,0,1,5.7,0,5.46,5.46,0,0,1,2.05,2,5.27,5.27,0,0,1,.75,2.76A5.36,5.36,0,0,1,503.48,78.3Zm7.13,2.61h-1.53l-4.33-10.74h1.58l3.55,9.1,3.54-9.1H515Zm13.61,0h-7.64V70.17H524v1.34h-6v3.31h5.36v1.34h-5.36v3.42h6.17Zm11.48,0h-1.49l-6.14-8.31v8.31H526.6V70.17h1.49l6.15,8.33V70.17h1.46Zm4.55,0h-1.47V70.17h1.47Zm11,0-1.13-2.61h-5.66l-1.12,2.61h-1.55l4.77-10.74h1.53l4.76,10.74Zm12.26,0h-1.49l-6.13-8.31v8.31h-1.48V70.17H556l6.15,8.33V70.17h1.46Z"/><path class="cls-3" d="M382.79,33.38H136.45a74.2,74.2,0,0,1,0,82.07H382.79l31.64-41ZM207.48,76.88a4.53,4.53,0,0,1-3.19,1.06h-1.92v3h-2.81V70.16h4.73a4.7,4.7,0,0,1,3.19,1,3.48,3.48,0,0,1,1.14,2.78A3.81,3.81,0,0,1,207.48,76.88Zm12.7,1.49a5.68,5.68,0,0,1-2.09,2,6.41,6.41,0,0,1-5.94,0,5.29,5.29,0,0,1-2.08-2,5.46,5.46,0,0,1-.76-2.86,5.36,5.36,0,0,1,2.84-4.8,6.49,6.49,0,0,1,5.94,0,5.35,5.35,0,0,1,2.85,4.8A5.56,5.56,0,0,1,220.18,78.37Zm9.52,2.54h-7.37V70.16h2.81v8.36h4.56Zm4.08,0H231V70.16h2.81Zm10-1.36a3.47,3.47,0,0,1-1.56,1.15,6.15,6.15,0,0,1-2.2.38,8,8,0,0,1-2.66-.47,7.27,7.27,0,0,1-2.29-1.28l1.09-2.19a6.83,6.83,0,0,0,1.92,1.18,5.19,5.19,0,0,0,2,.46,1.86,1.86,0,0,0,1-.23.75.75,0,0,0,.36-.68.79.79,0,0,0-.27-.61,2,2,0,0,0-.67-.39c-.27-.1-.65-.21-1.14-.35a13.29,13.29,0,0,1-1.83-.62,3.15,3.15,0,0,1-1.23-1,2.57,2.57,0,0,1-.52-1.69,3,3,0,0,1,.53-1.75,3.34,3.34,0,0,1,1.5-1.16,5.89,5.89,0,0,1,2.27-.41,8.2,8.2,0,0,1,2.3.33,7.73,7.73,0,0,1,2,.88l-1.05,2.24a9.82,9.82,0,0,0-1.84-.82,5.27,5.27,0,0,0-1.63-.33,1.58,1.58,0,0,0-.82.19.64.64,0,0,0-.3.57.75.75,0,0,0,.26.59,2.21,2.21,0,0,0,.64.38c.26.1.64.22,1.14.37a15.36,15.36,0,0,1,1.85.65,3.2,3.2,0,0,1,1.25,1,2.71,2.71,0,0,1,.52,1.74A2.94,2.94,0,0,1,243.78,79.55Zm11.95,1.36h-2.8V76.79h-4.35v4.12h-2.8V70.16h2.8v4.38h4.35V70.16h2.8Zm6.17,1.69h-2.3l5-14.12h2.3Zm16.1-3a3.47,3.47,0,0,1-1.56,1.15,6.15,6.15,0,0,1-2.2.38,8,8,0,0,1-2.66-.47,7.32,7.32,0,0,1-2.3-1.28l1.09-2.19a6.74,6.74,0,0,0,1.93,1.18,5.19,5.19,0,0,0,2,.46,1.86,1.86,0,0,0,1-.23.75.75,0,0,0,.36-.68.79.79,0,0,0-.27-.61,2,2,0,0,0-.68-.39c-.27-.1-.65-.21-1.14-.35a13.11,13.11,0,0,1-1.82-.62,3.11,3.11,0,0,1-1.24-1,2.62,2.62,0,0,1-.51-1.69,2.9,2.9,0,0,1,.53-1.75,3.34,3.34,0,0,1,1.5-1.16,5.84,5.84,0,0,1,2.26-.41,8.15,8.15,0,0,1,2.3.33,7.8,7.8,0,0,1,2,.88l-1.06,2.24a9.45,9.45,0,0,0-1.83-.82,5.32,5.32,0,0,0-1.64-.33,1.58,1.58,0,0,0-.82.19.64.64,0,0,0-.3.57.79.79,0,0,0,.26.59,2.27,2.27,0,0,0,.65.38c.25.1.63.22,1.13.37a14.2,14.2,0,0,1,1.85.65A3.07,3.07,0,0,1,278,76a2.71,2.71,0,0,1,.52,1.74A2.93,2.93,0,0,1,278,79.55Zm9.36,1.36H280V70.16h2.81v8.36h4.56Zm11.45-2.54a5.61,5.61,0,0,1-2.09,2,6.39,6.39,0,0,1-5.93,0,5.32,5.32,0,0,1-2.09-2,5.46,5.46,0,0,1-.76-2.86,5.32,5.32,0,0,1,.76-2.82,5.38,5.38,0,0,1,2.09-2,6.47,6.47,0,0,1,5.93,0,5.38,5.38,0,0,1,2.09,2,5.32,5.32,0,0,1,.76,2.82A5.46,5.46,0,0,1,298.81,78.37Zm5.1,2.54-4.17-10.75h3l2.69,7.78,2.7-7.78H311l-4.2,10.75Zm15.19,0-.73-1.9h-4.65l-.76,1.9h-2.88l4.62-10.75h2.88l4.51,10.75Zm10.94,0-2.82-4.17-1.35,1.5v2.67h-2.81V70.16h2.81v4.66l4-4.66h3.26l-4,4.43,4.23,6.32Z"/><path class="cls-3" d="M216.62,72.78a2.72,2.72,0,0,0-1.47-.41,2.78,2.78,0,0,0-1.48.41,3.11,3.11,0,0,0-1.08,1.14,3.26,3.26,0,0,0-.4,1.61,3.3,3.3,0,0,0,.41,1.62,3.22,3.22,0,0,0,1.08,1.15,2.78,2.78,0,0,0,2.94,0,3.15,3.15,0,0,0,1-1.15,3.52,3.52,0,0,0,.38-1.62,3.47,3.47,0,0,0-.38-1.61A3,3,0,0,0,216.62,72.78Z"/><polygon class="cls-3" points="314.56 76.86 317.54 76.86 316.06 73.03 314.56 76.86"/><path class="cls-3" d="M204.15,72.4h-1.78v3.3h1.78a1.93,1.93,0,0,0,1.33-.43A1.62,1.62,0,0,0,206,74a1.54,1.54,0,0,0-.47-1.2A1.93,1.93,0,0,0,204.15,72.4Z"/><path class="cls-3" d="M295.25,72.78a2.69,2.69,0,0,0-1.46-.41,2.79,2.79,0,0,0-1.49.41,3.11,3.11,0,0,0-1.08,1.14,3.37,3.37,0,0,0-.4,1.61,3.3,3.3,0,0,0,.41,1.62,3.22,3.22,0,0,0,1.08,1.15,2.74,2.74,0,0,0,1.48.42,2.7,2.7,0,0,0,1.46-.42,3.06,3.06,0,0,0,1.05-1.15,3.4,3.4,0,0,0,.38-1.62,3.36,3.36,0,0,0-.38-1.61A3,3,0,0,0,295.25,72.78Z"/><path class="cls-2" d="M74.41,11a63.42,63.42,0,1,0,63.42,63.42A63.49,63.49,0,0,0,74.41,11Zm21.71,89.21a21.4,21.4,0,0,1-9.21,7.53,33.51,33.51,0,0,1-14,2.7,46.47,46.47,0,0,1-14.09-2.19,37.65,37.65,0,0,1-11.68-5.81l6.33-12a30.18,30.18,0,0,0,8.74,5.21,26,26,0,0,0,9.3,1.77q5.4,0,8.28-2.09a7,7,0,0,0,2.89-6,6.87,6.87,0,0,0-2.89-6q-2.88-2-8.37-2h-11V72L75.56,57.51H50.63v-13H96.21v9.86L78.45,70.63l3.44.65a22,22,0,0,1,12.7,5.81,16.17,16.17,0,0,1,4.79,12A19.39,19.39,0,0,1,96.12,100.21Z"/><path class="cls-1" d="M136.45,33.38a74.2,74.2,0,1,0,12.38,41A74.39,74.39,0,0,0,136.45,33.38Zm-62,104.45a63.42,63.42,0,1,1,63.42-63.41A63.49,63.49,0,0,1,74.41,137.83Z"/><path class="cls-1" d="M81.89,71.28l-3.44-.65L96.21,54.35V44.49H50.63v13H75.56L60.49,72v9.31h11q5.49,0,8.37,2a6.87,6.87,0,0,1,2.89,6,7,7,0,0,1-2.89,6Q77,97.42,71.56,97.42a26,26,0,0,1-9.3-1.77,30.18,30.18,0,0,1-8.74-5.21l-6.33,12a37.65,37.65,0,0,0,11.68,5.81A46.47,46.47,0,0,0,73,110.44a33.51,33.51,0,0,0,14-2.7,21.4,21.4,0,0,0,9.21-7.53,19.39,19.39,0,0,0,3.26-11.07,16.17,16.17,0,0,0-4.79-12A22,22,0,0,0,81.89,71.28Z"/><path class="cls-1" d="M204.29,70.16h-4.73V80.91h2.81v-3h1.92a4.53,4.53,0,0,0,3.19-1.06,3.81,3.81,0,0,0,1.14-2.95,3.48,3.48,0,0,0-1.14-2.78A4.7,4.7,0,0,0,204.29,70.16Zm1.19,5.11a1.93,1.93,0,0,1-1.33.43h-1.78V72.4h1.78a1.93,1.93,0,0,1,1.33.42A1.54,1.54,0,0,1,206,74,1.62,1.62,0,0,1,205.48,75.27Z"/><path class="cls-1" d="M218.09,70.71a6.49,6.49,0,0,0-5.94,0,5.36,5.36,0,0,0-2.84,4.8,5.46,5.46,0,0,0,.76,2.86,5.29,5.29,0,0,0,2.08,2,6.41,6.41,0,0,0,5.94,0,5.68,5.68,0,0,0,2.09-2,5.56,5.56,0,0,0,.76-2.86,5.35,5.35,0,0,0-2.85-4.8Zm-.42,6.44a3.15,3.15,0,0,1-1,1.15,2.78,2.78,0,0,1-2.94,0,3.22,3.22,0,0,1-1.08-1.15,3.3,3.3,0,0,1-.41-1.62,3.26,3.26,0,0,1,.4-1.61,3.11,3.11,0,0,1,1.08-1.14,2.78,2.78,0,0,1,1.48-.41,2.72,2.72,0,0,1,1.47.41,3,3,0,0,1,1,1.14,3.47,3.47,0,0,1,.38,1.61A3.52,3.52,0,0,1,217.67,77.15Z"/><polygon class="cls-1" points="225.14 70.16 222.33 70.16 222.33 80.91 229.7 80.91 229.7 78.52 225.14 78.52 225.14 70.16"/><rect class="cls-1" x="230.97" y="70.16" width="2.81" height="10.76"/><path class="cls-1" d="M242.58,75a15.36,15.36,0,0,0-1.85-.65c-.5-.15-.88-.27-1.14-.37a2.21,2.21,0,0,1-.64-.38.75.75,0,0,1-.26-.59.64.64,0,0,1,.3-.57,1.58,1.58,0,0,1,.82-.19,5.27,5.27,0,0,1,1.63.33,9.82,9.82,0,0,1,1.84.82l1.05-2.24a7.73,7.73,0,0,0-2-.88,8.2,8.2,0,0,0-2.3-.33,5.89,5.89,0,0,0-2.27.41,3.34,3.34,0,0,0-1.5,1.16,3,3,0,0,0-.53,1.75,2.57,2.57,0,0,0,.52,1.69,3.15,3.15,0,0,0,1.23,1,13.29,13.29,0,0,0,1.83.62c.49.14.87.25,1.14.35a2,2,0,0,1,.67.39.79.79,0,0,1,.27.61.75.75,0,0,1-.36.68,1.86,1.86,0,0,1-1,.23,5.19,5.19,0,0,1-2-.46,6.83,6.83,0,0,1-1.92-1.18l-1.09,2.19a7.27,7.27,0,0,0,2.29,1.28,8,8,0,0,0,2.66.47,6.15,6.15,0,0,0,2.2-.38,3.47,3.47,0,0,0,1.56-1.15,2.94,2.94,0,0,0,.57-1.83,2.71,2.71,0,0,0-.52-1.74A3.2,3.2,0,0,0,242.58,75Z"/><polygon class="cls-1" points="252.93 74.55 248.59 74.55 248.59 70.16 245.78 70.16 245.78 80.91 248.59 80.91 248.59 76.78 252.93 76.78 252.93 80.91 255.73 80.91 255.73 70.16 252.93 70.16 252.93 74.55"/><polygon class="cls-1" points="259.6 82.6 261.9 82.6 266.87 68.48 264.57 68.48 259.6 82.6"/><path class="cls-1" d="M276.79,75a14.2,14.2,0,0,0-1.85-.65c-.5-.15-.88-.27-1.13-.37a2.27,2.27,0,0,1-.65-.38.79.79,0,0,1-.26-.59.64.64,0,0,1,.3-.57,1.58,1.58,0,0,1,.82-.19,5.32,5.32,0,0,1,1.64.33,9.45,9.45,0,0,1,1.83.82l1.06-2.24a7.8,7.8,0,0,0-2-.88,8.15,8.15,0,0,0-2.3-.33,5.84,5.84,0,0,0-2.26.41,3.34,3.34,0,0,0-1.5,1.16,2.9,2.9,0,0,0-.53,1.75,2.62,2.62,0,0,0,.51,1.69,3.11,3.11,0,0,0,1.24,1,13.11,13.11,0,0,0,1.82.62c.49.14.87.25,1.14.35a2,2,0,0,1,.68.39.79.79,0,0,1,.27.61.75.75,0,0,1-.36.68,1.86,1.86,0,0,1-1,.23,5.19,5.19,0,0,1-2-.46,6.74,6.74,0,0,1-1.93-1.18l-1.09,2.19a7.32,7.32,0,0,0,2.3,1.28,8,8,0,0,0,2.66.47,6.15,6.15,0,0,0,2.2-.38A3.47,3.47,0,0,0,278,79.55a2.93,2.93,0,0,0,.56-1.83A2.71,2.71,0,0,0,278,76,3.07,3.07,0,0,0,276.79,75Z"/><polygon class="cls-1" points="282.8 70.16 279.99 70.16 279.99 80.91 287.36 80.91 287.36 78.52 282.8 78.52 282.8 70.16"/><path class="cls-1" d="M296.72,70.71a6.47,6.47,0,0,0-5.93,0,5.38,5.38,0,0,0-2.09,2,5.32,5.32,0,0,0-.76,2.82,5.46,5.46,0,0,0,.76,2.86,5.32,5.32,0,0,0,2.09,2,6.39,6.39,0,0,0,5.93,0,5.61,5.61,0,0,0,2.09-2,5.46,5.46,0,0,0,.76-2.86,5.32,5.32,0,0,0-.76-2.82A5.38,5.38,0,0,0,296.72,70.71Zm-.42,6.44a3.06,3.06,0,0,1-1.05,1.15,2.7,2.7,0,0,1-1.46.42,2.74,2.74,0,0,1-1.48-.42,3.22,3.22,0,0,1-1.08-1.15,3.3,3.3,0,0,1-.41-1.62,3.37,3.37,0,0,1,.4-1.61,3.11,3.11,0,0,1,1.08-1.14,2.79,2.79,0,0,1,1.49-.41,2.69,2.69,0,0,1,1.46.41,3,3,0,0,1,1.05,1.14,3.36,3.36,0,0,1,.38,1.61A3.4,3.4,0,0,1,296.3,77.15Z"/><polygon class="cls-1" points="308.15 70.16 305.44 77.94 302.76 70.16 299.74 70.16 303.91 80.91 306.83 80.91 311.03 70.16 308.15 70.16"/><path class="cls-1" d="M314.7,70.16l-4.62,10.75H313l.76-1.9h4.65l.73,1.9h3l-4.51-10.75Zm-.14,6.7,1.5-3.83,1.48,3.83Z"/><polygon class="cls-1" points="333.16 70.16 329.9 70.16 325.87 74.82 325.87 70.16 323.06 70.16 323.06 80.91 325.87 80.91 325.87 78.24 327.22 76.74 330.04 80.91 333.4 80.91 329.17 74.59 333.16 70.16"/><path class="cls-1" d="M481.87,75.43a17.13,17.13,0,0,0-1.76-.64c-.58-.18-1-.34-1.37-.48a2.41,2.41,0,0,1-.82-.57,1.29,1.29,0,0,1-.34-.93,1.11,1.11,0,0,1,.56-1,2.72,2.72,0,0,1,1.49-.36,5.18,5.18,0,0,1,1.48.24,6.07,6.07,0,0,1,1.56.71l.62-1.32a6.94,6.94,0,0,0-1.65-.76,6.43,6.43,0,0,0-1.9-.28,5.28,5.28,0,0,0-2,.35,3,3,0,0,0-1.34,1,2.52,2.52,0,0,0-.47,1.52,2.48,2.48,0,0,0,.46,1.58,3.16,3.16,0,0,0,1.15.91,15.71,15.71,0,0,0,1.75.63c.58.17,1,.33,1.39.47a2.49,2.49,0,0,1,.85.59,1.34,1.34,0,0,1,.33.93,1.32,1.32,0,0,1-.62,1.15,3,3,0,0,1-1.69.42,4.79,4.79,0,0,1-1.87-.41A5.5,5.5,0,0,1,476,78l-.66,1.28a6,6,0,0,0,1.93,1.22,5.94,5.94,0,0,0,2.3.46,5.35,5.35,0,0,0,2.07-.37A3.21,3.21,0,0,0,483,79.56a2.7,2.7,0,0,0,.5-1.61,2.56,2.56,0,0,0-.47-1.6A3.12,3.12,0,0,0,481.87,75.43Z"/><polygon class="cls-1" points="487.32 70.17 485.85 70.17 485.85 80.91 492.02 80.91 492.02 79.58 487.32 79.58 487.32 70.17"/><path class="cls-1" d="M501.43,70.8a6,6,0,0,0-5.7,0,5.44,5.44,0,0,0-2,2,5.27,5.27,0,0,0-.75,2.76,5.36,5.36,0,0,0,.75,2.77,5.44,5.44,0,0,0,2.05,2,5.91,5.91,0,0,0,5.69,0,5.52,5.52,0,0,0,2.05-2,5.36,5.36,0,0,0,.75-2.77,5.27,5.27,0,0,0-.75-2.76A5.46,5.46,0,0,0,501.43,70.8Zm.74,6.81a4.2,4.2,0,0,1-1.51,1.51,3.91,3.91,0,0,1-2.06.56,4,4,0,0,1-2.08-.56A4.18,4.18,0,0,1,495,77.61a4.08,4.08,0,0,1,0-4.16,4.23,4.23,0,0,1,1.53-1.5,4.07,4.07,0,0,1,2.08-.55,4,4,0,0,1,2.06.55,4.25,4.25,0,0,1,1.51,1.5,4.14,4.14,0,0,1,0,4.16Z"/><polygon class="cls-1" points="509.88 79.27 506.33 70.17 504.75 70.17 509.08 80.91 510.61 80.91 514.97 70.17 513.42 70.17 509.88 79.27"/><polygon class="cls-1" points="518.05 76.16 523.41 76.16 523.41 74.82 518.05 74.82 518.05 71.51 524.04 71.51 524.04 70.17 516.58 70.17 516.58 80.91 524.22 80.91 524.22 79.58 518.05 79.58 518.05 76.16"/><polygon class="cls-1" points="534.24 78.5 528.09 70.17 526.6 70.17 526.6 80.91 528.07 80.91 528.07 72.6 534.21 80.91 535.7 80.91 535.7 70.17 534.24 70.17 534.24 78.5"/><rect class="cls-1" x="538.78" y="70.17" width="1.47" height="10.74"/><path class="cls-1" d="M546.61,70.17l-4.77,10.74h1.55l1.12-2.61h5.66l1.13,2.61h1.6l-4.76-10.74ZM545.09,77l2.24-5.22L549.6,77Z"/><polygon class="cls-1" points="562.1 78.5 555.95 70.17 554.46 70.17 554.46 80.91 555.94 80.91 555.94 72.6 562.07 80.91 563.56 80.91 563.56 70.17 562.1 70.17 562.1 78.5"/></g></g></svg>