<svg xmlns="http://www.w3.org/2000/svg" viewBox="0 0 618.55 131.29"><defs><style>.cls-1{fill:#fff;}.cls-2{fill:#4b88a2;}.cls-3{fill:#3e7085;}</style></defs><title>3-ponudba</title><g id="Layer_2" data-name="Layer 2"><g id="Layer_1-2" data-name="Layer 1"><polygon class="cls-1" points="361.61 29.2 348.41 29.2 376.51 65.65 348.41 102.09 361.61 102.09 389.72 65.65 361.61 29.2"/><path class="cls-2" d="M443.33,63.77a3.56,3.56,0,0,0-1.83-.49,3.63,3.63,0,0,0-1.85.49,3.73,3.73,0,0,0-1.36,1.33,3.52,3.52,0,0,0-.5,1.85,3.55,3.55,0,0,0,.5,1.85,3.77,3.77,0,0,0,1.36,1.34,3.6,3.6,0,0,0,1.85.5,3.53,3.53,0,0,0,1.83-.5,3.75,3.75,0,0,0,1.34-1.34,3.59,3.59,0,0,0,.5-1.85,3.55,3.55,0,0,0-.5-1.85A3.71,3.71,0,0,0,443.33,63.77Z"/><polygon class="cls-2" points="511.53 68.22 515.53 68.22 513.52 63.59 511.53 68.22"/><path class="cls-2" d="M361.61,29.2l28.11,36.45-28.11,36.44H618.55V29.2ZM488.78,59.47l.83.91.83-.91h1.27l-1.43,1.81h-1.34l-1.43-1.81Zm-9.85,0,.83.91.83-.91h1.27l-1.43,1.81h-1.34l-1.43-1.81ZM427.65,70.52a2.83,2.83,0,0,1-1.24.95,4.7,4.7,0,0,1-1.83.33,5.33,5.33,0,0,1-2-.41,5.54,5.54,0,0,1-1.72-1.09l.59-1.13a4.92,4.92,0,0,0,1.53,1,4.22,4.22,0,0,0,1.66.36,2.64,2.64,0,0,0,1.51-.38,1.17,1.17,0,0,0,.55-1,1.18,1.18,0,0,0-.3-.83,2.12,2.12,0,0,0-.76-.52q-.46-.19-1.23-.42a12.45,12.45,0,0,1-1.55-.56,2.67,2.67,0,0,1-1-.8,2.21,2.21,0,0,1-.42-1.4,2.25,2.25,0,0,1,.42-1.35,2.66,2.66,0,0,1,1.19-.9,4.63,4.63,0,0,1,1.77-.31,5.72,5.72,0,0,1,1.68.25,5.65,5.65,0,0,1,1.46.67l-.55,1.17a5.5,5.5,0,0,0-1.38-.63,4.68,4.68,0,0,0-1.31-.21,2.43,2.43,0,0,0-1.33.32,1,1,0,0,0-.5.88,1.16,1.16,0,0,0,.3.82,2.12,2.12,0,0,0,.74.5q.44.18,1.21.43a13.85,13.85,0,0,1,1.57.57,2.72,2.72,0,0,1,1,.81,2.25,2.25,0,0,1,.42,1.42A2.38,2.38,0,0,1,427.65,70.52Zm8,1.2h-5.48V62.19h1.31v8.35h4.17Zm10.18-2.32A4.84,4.84,0,0,1,444,71.17a5.26,5.26,0,0,1-5.06,0,4.83,4.83,0,0,1-1.82-1.77,4.73,4.73,0,0,1-.67-2.46,4.66,4.66,0,0,1,.67-2.45,4.82,4.82,0,0,1,1.81-1.75,5.32,5.32,0,0,1,5.06,0,4.81,4.81,0,0,1,1.82,1.75,4.66,4.66,0,0,1,.67,2.45A4.73,4.73,0,0,1,445.83,69.4Zm6.34,2.32H450.8L447,62.19h1.4l3.15,8.08,3.15-8.08H456Zm12.09,0h-6.79V62.19h6.62v1.19h-5.32v2.94h4.76V67.5h-4.76v3h5.48Zm10.19,0h-1.32l-5.45-7.39v7.39h-1.31V62.19h1.32l5.47,7.4v-7.4h1.29Zm8.61-1.2a2.83,2.83,0,0,1-1.24.95,4.7,4.7,0,0,1-1.83.33,5.33,5.33,0,0,1-2-.41,5.54,5.54,0,0,1-1.72-1.09l.59-1.13a4.92,4.92,0,0,0,1.53,1,4.22,4.22,0,0,0,1.66.36,2.64,2.64,0,0,0,1.51-.38,1.17,1.17,0,0,0,.55-1,1.18,1.18,0,0,0-.3-.83,2.12,2.12,0,0,0-.76-.52q-.46-.19-1.23-.42a12.45,12.45,0,0,1-1.55-.56,2.67,2.67,0,0,1-1-.8,2.21,2.21,0,0,1-.42-1.4,2.25,2.25,0,0,1,.42-1.35,2.66,2.66,0,0,1,1.19-.9,4.63,4.63,0,0,1,1.77-.31,5.72,5.72,0,0,1,1.68.25,5.65,5.65,0,0,1,1.46.67l-.55,1.17a5.5,5.5,0,0,0-1.38-.63,4.68,4.68,0,0,0-1.31-.21,2.43,2.43,0,0,0-1.33.32,1,1,0,0,0-.5.88,1.16,1.16,0,0,0,.3.82,2.12,2.12,0,0,0,.74.5q.44.18,1.21.43a13.85,13.85,0,0,1,1.57.57,2.72,2.72,0,0,1,1,.81,2.25,2.25,0,0,1,.42,1.42A2.38,2.38,0,0,1,483.05,70.52Zm8.55.89a5,5,0,0,1-4.43-.24,4.82,4.82,0,0,1-2.44-4.23,4.7,4.7,0,0,1,.66-2.45,4.77,4.77,0,0,1,1.81-1.75,5.08,5.08,0,0,1,2.52-.64,5.13,5.13,0,0,1,1.93.37,4.78,4.78,0,0,1,1.61,1.06l-.78.94a4,4,0,0,0-1.27-.89,3.67,3.67,0,0,0-4.67,1.5,3.67,3.67,0,0,0,1.33,5,3.63,3.63,0,0,0,1.85.49,3.73,3.73,0,0,0,1.47-.31,4.24,4.24,0,0,0,1.28-.84l.79.86A5.3,5.3,0,0,1,491.6,71.42Zm4.81.31h-1.31V62.19h1.31Zm10.81,0H505.9l-5.45-7.39v7.39h-1.31V62.19h1.32l5.47,7.4v-7.4h1.29Zm9.83,0-1-2.32h-5l-1,2.32h-1.38l4.24-9.54h1.36l4.22,9.54Z"/><path class="cls-3" d="M172.4,63.88a2.42,2.42,0,0,0-1.3-.37,2.49,2.49,0,0,0-1.32.37,2.65,2.65,0,0,0-1,1,3,3,0,0,0,0,2.86,2.77,2.77,0,0,0,1,1,2.42,2.42,0,0,0,1.31.37,2.39,2.39,0,0,0,1.3-.37,2.64,2.64,0,0,0,.93-1,3.17,3.17,0,0,0,0-2.86A2.59,2.59,0,0,0,172.4,63.88Z"/><polygon class="cls-3" points="330.5 67.5 333.14 67.5 331.83 64.09 330.5 67.5"/><path class="cls-3" d="M161.33,63.53h-1.58v2.93h1.58a1.68,1.68,0,0,0,1.18-.38,1.42,1.42,0,0,0,.42-1.1,1.36,1.36,0,0,0-.42-1.07A1.7,1.7,0,0,0,161.33,63.53Z"/><polygon class="cls-3" points="286.71 67.5 289.36 67.5 288.05 64.09 286.71 67.5"/><path class="cls-3" d="M348.41,29.2H120.22a65.49,65.49,0,0,1,0,72.89H348.41l28.11-36.44ZM306.65,58.7l.8.91.82-.91H310l-1.48,2.09h-2.14l-1.48-2.09Zm-9.68,0,.8.91.82-.91h1.74l-1.49,2.09h-2.14l-1.49-2.09Zm-92,0,.8.91.82-.91h1.74l-1.48,2.09h-2.14l-1.48-2.09Zm-9.68,0,.8.91.82-.91h1.74l-1.49,2.09H195l-1.49-2.09Zm-31,8.82a4,4,0,0,1-2.83.93h-1.7V71.1h-2.49V61.55h4.2a4.18,4.18,0,0,1,2.83.88,3.1,3.1,0,0,1,1,2.47A3.4,3.4,0,0,1,164.29,67.52Zm11.28,1.31a4.86,4.86,0,0,1-1.85,1.78,5.67,5.67,0,0,1-5.27,0,4.8,4.8,0,0,1-1.85-1.78,4.9,4.9,0,0,1-.67-2.54A4.75,4.75,0,0,1,168.44,62a5.74,5.74,0,0,1,5.27,0,4.75,4.75,0,0,1,2.53,4.27A4.85,4.85,0,0,1,175.57,68.84ZM184,71.1h-6.54V61.55H180V69h4ZM190.81,68a3.11,3.11,0,0,1-.89,2.37,3.4,3.4,0,0,1-2.43.84,4.2,4.2,0,0,1-3.33-1.54L185.3,68a4.15,4.15,0,0,0,1,.8,2.11,2.11,0,0,0,1,.28.94.94,0,0,0,.73-.29,1.16,1.16,0,0,0,.27-.82V63.6H185V61.55h5.78Zm8.72,1.9a3.07,3.07,0,0,1-1.38,1,5.37,5.37,0,0,1-2,.34,7.08,7.08,0,0,1-2.36-.42,6.49,6.49,0,0,1-2-1.14l1-1.95a6,6,0,0,0,1.71,1,4.67,4.67,0,0,0,1.75.41,1.62,1.62,0,0,0,.88-.2.67.67,0,0,0,.32-.6.71.71,0,0,0-.24-.54,1.75,1.75,0,0,0-.6-.35q-.36-.13-1-.31a12.39,12.39,0,0,1-1.62-.55,2.86,2.86,0,0,1-1.1-.84,2.32,2.32,0,0,1-.46-1.51,2.62,2.62,0,0,1,.47-1.55,3,3,0,0,1,1.33-1,5.19,5.19,0,0,1,2-.36,7.3,7.3,0,0,1,2,.29,6.73,6.73,0,0,1,1.77.78l-.94,2a8.42,8.42,0,0,0-1.63-.74A4.8,4.8,0,0,0,196,63.4a1.34,1.34,0,0,0-.73.17.55.55,0,0,0-.27.5.68.68,0,0,0,.23.52,1.77,1.77,0,0,0,.57.34q.34.13,1,.33a13.12,13.12,0,0,1,1.64.57,2.87,2.87,0,0,1,1.11.88,2.44,2.44,0,0,1,.46,1.55A2.65,2.65,0,0,1,199.53,69.89Zm8.29.9a5.13,5.13,0,0,1-4.68-.17,4.78,4.78,0,0,1-1.8-1.78,5,5,0,0,1-.65-2.53,4.76,4.76,0,0,1,2.5-4.27,5.43,5.43,0,0,1,4.71-.2A5.21,5.21,0,0,1,209.65,63l-1.44,1.75a3.55,3.55,0,0,0-1.1-.93,2.65,2.65,0,0,0-1.27-.35,2.48,2.48,0,0,0-1.31.36,2.57,2.57,0,0,0-.93,1,3.09,3.09,0,0,0,0,2.82,2.56,2.56,0,0,0,.93,1,2.48,2.48,0,0,0,1.31.36,2.9,2.9,0,0,0,1.23-.3,3.87,3.87,0,0,0,1.14-.82l1.46,1.57A5.82,5.82,0,0,1,207.82,70.79Zm5.4.31h-2.49V61.55h2.49Zm10.7,0h-2.18l-4.33-5.71V71.1h-2.33V61.55h2.19l4.35,5.75V61.55h2.32Zm8.88,0-.65-1.69H228l-.67,1.69h-2.56l4.1-9.55h2.56l4,9.55Zm7.14,1.5h-2l4.42-12.54h2Zm14.29-2.7a3.07,3.07,0,0,1-1.38,1,5.37,5.37,0,0,1-2,.34,7.08,7.08,0,0,1-2.36-.42,6.49,6.49,0,0,1-2-1.14l1-1.95a6,6,0,0,0,1.71,1,4.67,4.67,0,0,0,1.75.41,1.62,1.62,0,0,0,.88-.2.67.67,0,0,0,.32-.6.71.71,0,0,0-.24-.54,1.75,1.75,0,0,0-.6-.35q-.36-.13-1-.31a12.39,12.39,0,0,1-1.62-.55,2.86,2.86,0,0,1-1.1-.84,2.32,2.32,0,0,1-.46-1.51,2.62,2.62,0,0,1,.47-1.55,3,3,0,0,1,1.33-1,5.19,5.19,0,0,1,2-.36,7.3,7.3,0,0,1,2,.29,6.73,6.73,0,0,1,1.77.78l-.94,2a8.42,8.42,0,0,0-1.63-.74,4.8,4.8,0,0,0-1.45-.29,1.34,1.34,0,0,0-.73.17.55.55,0,0,0-.27.5.68.68,0,0,0,.23.52,1.77,1.77,0,0,0,.57.34q.34.13,1,.33a13.12,13.12,0,0,1,1.64.57,2.87,2.87,0,0,1,1.11.88,2.44,2.44,0,0,1,.46,1.55A2.65,2.65,0,0,1,254.24,69.89Zm8.31,1.21H256V61.55h2.49V69h4Zm10.17-2.26a4.86,4.86,0,0,1-1.85,1.78,5.67,5.67,0,0,1-5.27,0,4.8,4.8,0,0,1-1.85-1.78,4.9,4.9,0,0,1-.67-2.54A4.75,4.75,0,0,1,265.6,62a5.74,5.74,0,0,1,5.27,0,4.75,4.75,0,0,1,2.53,4.27A4.85,4.85,0,0,1,272.73,68.84Zm4.53,2.26-3.71-9.55h2.68l2.38,6.91,2.4-6.91h2.56l-3.73,9.55Zm13.49,0-.65-1.69H286l-.67,1.69h-2.56l4.1-9.55h2.56l4,9.55Zm10.51-1.21a3.07,3.07,0,0,1-1.38,1,5.37,5.37,0,0,1-2,.34,7.08,7.08,0,0,1-2.36-.42,6.49,6.49,0,0,1-2-1.14l1-1.95a6,6,0,0,0,1.71,1,4.67,4.67,0,0,0,1.75.41,1.62,1.62,0,0,0,.88-.2.67.67,0,0,0,.32-.6.71.71,0,0,0-.24-.54,1.75,1.75,0,0,0-.6-.35q-.36-.13-1-.31a12.39,12.39,0,0,1-1.62-.55,2.86,2.86,0,0,1-1.1-.84,2.32,2.32,0,0,1-.46-1.51,2.62,2.62,0,0,1,.47-1.55,3,3,0,0,1,1.33-1,5.19,5.19,0,0,1,2-.36,7.3,7.3,0,0,1,2,.29,6.73,6.73,0,0,1,1.77.78l-.94,2a8.42,8.42,0,0,0-1.63-.74,4.8,4.8,0,0,0-1.45-.29,1.34,1.34,0,0,0-.73.17.55.55,0,0,0-.27.5.68.68,0,0,0,.23.52,1.77,1.77,0,0,0,.57.34q.34.13,1,.33a13.12,13.12,0,0,1,1.64.57,2.87,2.87,0,0,1,1.11.88,2.44,2.44,0,0,1,.46,1.55A2.65,2.65,0,0,1,301.25,69.89Zm8.29.9a5.13,5.13,0,0,1-4.68-.17,4.78,4.78,0,0,1-1.8-1.78,5,5,0,0,1-.65-2.53,4.76,4.76,0,0,1,2.5-4.27,5.43,5.43,0,0,1,4.71-.2A5.21,5.21,0,0,1,311.38,63l-1.44,1.75a3.55,3.55,0,0,0-1.1-.93,2.65,2.65,0,0,0-1.27-.35,2.48,2.48,0,0,0-1.31.36,2.57,2.57,0,0,0-.93,1,3.09,3.09,0,0,0,0,2.82,2.56,2.56,0,0,0,.93,1,2.48,2.48,0,0,0,1.31.36,2.9,2.9,0,0,0,1.23-.3,3.87,3.87,0,0,0,1.14-.82l1.46,1.57A5.82,5.82,0,0,1,309.55,70.79Zm5.4.31h-2.49V61.55H315Zm10.7,0h-2.18l-4.33-5.71V71.1H316.8V61.55H319l4.35,5.75V61.55h2.32Zm8.88,0-.65-1.69h-4.13l-.67,1.69h-2.56l4.1-9.55h2.56l4,9.55Z"/><polygon class="cls-3" points="228.77 67.5 231.42 67.5 230.11 64.09 228.77 67.5"/><path class="cls-3" d="M269.57,63.88a2.42,2.42,0,0,0-1.3-.37,2.49,2.49,0,0,0-1.32.37,2.65,2.65,0,0,0-1,1,3,3,0,0,0,0,2.86,2.77,2.77,0,0,0,1,1,2.42,2.42,0,0,0,1.31.37,2.39,2.39,0,0,0,1.3-.37,2.64,2.64,0,0,0,.93-1,3.17,3.17,0,0,0,0-2.86A2.59,2.59,0,0,0,269.57,63.88Z"/><path class="cls-2" d="M65.65,8.88a56.77,56.77,0,1,0,56.77,56.77A56.83,56.83,0,0,0,65.65,8.88Zm4.61,61.78q-2.45-1.74-7.11-1.74H53.82V61L66.62,48.69H45.44V37.63H84.17V46L69.07,59.84l2.92.55a18.65,18.65,0,0,1,10.79,4.94,13.72,13.72,0,0,1,4.07,10.24A16.45,16.45,0,0,1,84.09,85a18.22,18.22,0,0,1-7.83,6.4,28.49,28.49,0,0,1-11.86,2.29,39.6,39.6,0,0,1-12-1.86,32,32,0,0,1-9.92-4.94l5.37-10.2a25.66,25.66,0,0,0,7.43,4.43,22.1,22.1,0,0,0,7.9,1.5q4.58,0,7-1.78a5.92,5.92,0,0,0,2.45-5.1A5.82,5.82,0,0,0,70.26,70.67Z"/><path class="cls-1" d="M120.22,29.2a65.49,65.49,0,1,0,11.08,36.45A65.63,65.63,0,0,0,120.22,29.2ZM65.65,122.41a56.77,56.77,0,1,1,56.77-56.77A56.83,56.83,0,0,1,65.65,122.41Z"/><path class="cls-1" d="M70.26,80.82q-2.45,1.78-7,1.78a22.1,22.1,0,0,1-7.9-1.5,25.66,25.66,0,0,1-7.43-4.43l-5.37,10.2a32,32,0,0,0,9.92,4.94,39.6,39.6,0,0,0,12,1.86,28.49,28.49,0,0,0,11.86-2.29A18.22,18.22,0,0,0,84.09,85a16.45,16.45,0,0,0,2.77-9.41,13.72,13.72,0,0,0-4.07-10.24A18.65,18.65,0,0,0,72,60.39l-2.92-.55L84.17,46V37.63H45.44V48.69H66.62L53.82,61v7.9h9.33q4.66,0,7.11,1.74a5.82,5.82,0,0,1,2.45,5.06A5.92,5.92,0,0,1,70.26,80.82Z"/><path class="cls-1" d="M161.46,61.55h-4.2V71.1h2.49V68.45h1.7a4,4,0,0,0,2.83-.93,3.4,3.4,0,0,0,1-2.62,3.1,3.1,0,0,0-1-2.47A4.18,4.18,0,0,0,161.46,61.55Zm1.06,4.54a1.68,1.68,0,0,1-1.18.38h-1.58V63.53h1.58a1.7,1.7,0,0,1,1.18.37,1.36,1.36,0,0,1,.42,1.07A1.42,1.42,0,0,1,162.51,66.08Z"/><path class="cls-1" d="M173.71,62a5.74,5.74,0,0,0-5.27,0,4.75,4.75,0,0,0-2.53,4.27,4.9,4.9,0,0,0,.67,2.54,4.8,4.8,0,0,0,1.85,1.78,5.67,5.67,0,0,0,5.27,0,4.83,4.83,0,0,0,2.53-4.32A4.75,4.75,0,0,0,173.71,62Zm-.37,5.72a2.64,2.64,0,0,1-.93,1,2.39,2.39,0,0,1-1.3.37,2.42,2.42,0,0,1-1.31-.37,2.77,2.77,0,0,1-1-1,3,3,0,0,1,0-2.86,2.65,2.65,0,0,1,1-1,2.49,2.49,0,0,1,1.32-.37,2.42,2.42,0,0,1,1.3.37,2.59,2.59,0,0,1,.93,1,3.17,3.17,0,0,1,0,2.86Z"/><polygon class="cls-1" points="179.97 61.55 177.48 61.55 177.48 71.1 184.02 71.1 184.02 68.97 179.97 68.97 179.97 61.55"/><path class="cls-1" d="M185,63.6h3.27v4.33a1.16,1.16,0,0,1-.27.82.94.94,0,0,1-.73.29,2.11,2.11,0,0,1-1-.28,4.15,4.15,0,0,1-1-.8l-1.14,1.7a4.2,4.2,0,0,0,3.33,1.54,3.4,3.4,0,0,0,2.43-.84,3.11,3.11,0,0,0,.89-2.37V61.55H185Z"/><path class="cls-1" d="M198.46,65.84a13.12,13.12,0,0,0-1.64-.57q-.67-.2-1-.33a1.77,1.77,0,0,1-.57-.34.68.68,0,0,1-.23-.52.55.55,0,0,1,.27-.5,1.34,1.34,0,0,1,.73-.17,4.8,4.8,0,0,1,1.45.29,8.42,8.42,0,0,1,1.63.74l.94-2a6.73,6.73,0,0,0-1.77-.78,7.3,7.3,0,0,0-2-.29,5.19,5.19,0,0,0-2,.36,3,3,0,0,0-1.33,1,2.62,2.62,0,0,0-.47,1.55,2.32,2.32,0,0,0,.46,1.51,2.86,2.86,0,0,0,1.1.84,12.39,12.39,0,0,0,1.62.55q.65.18,1,.31a1.75,1.75,0,0,1,.6.35.71.71,0,0,1,.24.54.67.67,0,0,1-.32.6,1.62,1.62,0,0,1-.88.2,4.67,4.67,0,0,1-1.75-.41,6,6,0,0,1-1.71-1l-1,1.95a6.49,6.49,0,0,0,2,1.14,7.08,7.08,0,0,0,2.36.42,5.37,5.37,0,0,0,2-.34,3.07,3.07,0,0,0,1.38-1,2.65,2.65,0,0,0,.5-1.63,2.44,2.44,0,0,0-.46-1.55A2.87,2.87,0,0,0,198.46,65.84Z"/><polygon class="cls-1" points="197.13 60.78 198.62 58.7 196.87 58.7 196.05 59.61 195.25 58.7 193.51 58.7 194.99 60.78 197.13 60.78"/><polygon class="cls-1" points="206.81 60.78 208.29 58.7 206.55 58.7 205.73 59.61 204.93 58.7 203.18 58.7 204.67 60.78 206.81 60.78"/><path class="cls-1" d="M207.06,68.74a2.9,2.9,0,0,1-1.23.3,2.48,2.48,0,0,1-1.31-.36,2.56,2.56,0,0,1-.93-1,3.09,3.09,0,0,1,0-2.82,2.57,2.57,0,0,1,.93-1,2.48,2.48,0,0,1,1.31-.36,2.65,2.65,0,0,1,1.27.35,3.55,3.55,0,0,1,1.1.93L209.65,63a5.21,5.21,0,0,0-1.76-1.21,5.43,5.43,0,0,0-4.71.2,4.76,4.76,0,0,0-2.5,4.27,5,5,0,0,0,.65,2.53,4.78,4.78,0,0,0,1.8,1.78,5.13,5.13,0,0,0,4.68.17,5.82,5.82,0,0,0,1.85-1.3l-1.46-1.57A3.87,3.87,0,0,1,207.06,68.74Z"/><rect class="cls-1" x="210.73" y="61.55" width="2.49" height="9.55"/><polygon class="cls-1" points="221.62 67.3 217.27 61.55 215.08 61.55 215.08 71.1 217.41 71.1 217.41 65.39 221.74 71.1 223.92 71.1 223.92 61.55 221.6 61.55 221.62 67.3"/><path class="cls-1" d="M228.9,61.55l-4.1,9.55h2.56l.67-1.69h4.13l.65,1.69h2.66l-4-9.55Zm-.12,6,1.34-3.41,1.31,3.41Z"/><polygon class="cls-1" points="237.9 72.6 239.95 72.6 244.36 60.06 242.32 60.06 237.9 72.6"/><path class="cls-1" d="M253.17,65.84a13.12,13.12,0,0,0-1.64-.57q-.67-.2-1-.33a1.77,1.77,0,0,1-.57-.34.68.68,0,0,1-.23-.52.55.55,0,0,1,.27-.5,1.34,1.34,0,0,1,.73-.17,4.8,4.8,0,0,1,1.45.29,8.42,8.42,0,0,1,1.63.74l.94-2a6.73,6.73,0,0,0-1.77-.78,7.3,7.3,0,0,0-2-.29,5.19,5.19,0,0,0-2,.36,3,3,0,0,0-1.33,1,2.62,2.62,0,0,0-.47,1.55,2.32,2.32,0,0,0,.46,1.51,2.86,2.86,0,0,0,1.1.84,12.39,12.39,0,0,0,1.62.55q.65.18,1,.31a1.75,1.75,0,0,1,.6.35.71.71,0,0,1,.24.54.67.67,0,0,1-.32.6,1.62,1.62,0,0,1-.88.2,4.67,4.67,0,0,1-1.75-.41,6,6,0,0,1-1.71-1l-1,1.95a6.49,6.49,0,0,0,2,1.14,7.08,7.08,0,0,0,2.36.42,5.37,5.37,0,0,0,2-.34,3.07,3.07,0,0,0,1.38-1,2.65,2.65,0,0,0,.5-1.63,2.44,2.44,0,0,0-.46-1.55A2.87,2.87,0,0,0,253.17,65.84Z"/><polygon class="cls-1" points="258.51 61.55 256.01 61.55 256.01 71.1 262.55 71.1 262.55 68.97 258.51 68.97 258.51 61.55"/><path class="cls-1" d="M270.87,62a5.74,5.74,0,0,0-5.27,0,4.75,4.75,0,0,0-2.53,4.27,4.9,4.9,0,0,0,.67,2.54,4.8,4.8,0,0,0,1.85,1.78,5.67,5.67,0,0,0,5.27,0,4.83,4.83,0,0,0,2.53-4.32A4.75,4.75,0,0,0,270.87,62Zm-.37,5.72a2.64,2.64,0,0,1-.93,1,2.39,2.39,0,0,1-1.3.37,2.42,2.42,0,0,1-1.31-.37,2.77,2.77,0,0,1-1-1,3,3,0,0,1,0-2.86,2.65,2.65,0,0,1,1-1,2.49,2.49,0,0,1,1.32-.37,2.42,2.42,0,0,1,1.3.37,2.59,2.59,0,0,1,.93,1,3.17,3.17,0,0,1,0,2.86Z"/><polygon class="cls-1" points="281.02 61.55 278.62 68.45 276.24 61.55 273.55 61.55 277.26 71.1 279.85 71.1 283.58 61.55 281.02 61.55"/><path class="cls-1" d="M286.84,61.55l-4.1,9.55h2.56l.67-1.69h4.13l.65,1.69h2.66l-4-9.55Zm-.12,6L288,64.09l1.31,3.41Z"/><path class="cls-1" d="M300.18,65.84a13.12,13.12,0,0,0-1.64-.57q-.67-.2-1-.33a1.77,1.77,0,0,1-.57-.34.68.68,0,0,1-.23-.52.55.55,0,0,1,.27-.5,1.34,1.34,0,0,1,.73-.17,4.8,4.8,0,0,1,1.45.29,8.42,8.42,0,0,1,1.63.74l.94-2a6.73,6.73,0,0,0-1.77-.78,7.3,7.3,0,0,0-2-.29,5.19,5.19,0,0,0-2,.36,3,3,0,0,0-1.33,1,2.62,2.62,0,0,0-.47,1.55,2.32,2.32,0,0,0,.46,1.51,2.86,2.86,0,0,0,1.1.84,12.39,12.39,0,0,0,1.62.55q.65.18,1,.31a1.75,1.75,0,0,1,.6.35.71.71,0,0,1,.24.54.67.67,0,0,1-.32.6,1.62,1.62,0,0,1-.88.2,4.67,4.67,0,0,1-1.75-.41,6,6,0,0,1-1.71-1l-1,1.95a6.49,6.49,0,0,0,2,1.14,7.08,7.08,0,0,0,2.36.42,5.37,5.37,0,0,0,2-.34,3.07,3.07,0,0,0,1.38-1,2.65,2.65,0,0,0,.5-1.63,2.44,2.44,0,0,0-.46-1.55A2.87,2.87,0,0,0,300.18,65.84Z"/><polygon class="cls-1" points="298.86 60.78 300.34 58.7 298.6 58.7 297.78 59.61 296.98 58.7 295.23 58.7 296.72 60.78 298.86 60.78"/><polygon class="cls-1" points="308.53 60.78 310.02 58.7 308.27 58.7 307.45 59.61 306.65 58.7 304.91 58.7 306.39 60.78 308.53 60.78"/><path class="cls-1" d="M308.79,68.74a2.9,2.9,0,0,1-1.23.3,2.48,2.48,0,0,1-1.31-.36,2.56,2.56,0,0,1-.93-1,3.09,3.09,0,0,1,0-2.82,2.57,2.57,0,0,1,.93-1,2.48,2.48,0,0,1,1.31-.36,2.65,2.65,0,0,1,1.27.35,3.55,3.55,0,0,1,1.1.93L311.38,63a5.21,5.21,0,0,0-1.76-1.21,5.43,5.43,0,0,0-4.71.2,4.76,4.76,0,0,0-2.5,4.27,5,5,0,0,0,.65,2.53,4.78,4.78,0,0,0,1.8,1.78,5.13,5.13,0,0,0,4.68.17,5.82,5.82,0,0,0,1.85-1.3l-1.46-1.57A3.87,3.87,0,0,1,308.79,68.74Z"/><rect class="cls-1" x="312.46" y="61.55" width="2.49" height="9.55"/><polygon class="cls-1" points="323.34 67.3 319 61.55 316.8 61.55 316.8 71.1 319.13 71.1 319.13 65.39 323.47 71.1 325.65 71.1 325.65 61.55 323.33 61.55 323.34 67.3"/><path class="cls-1" d="M330.62,61.55l-4.1,9.55h2.56l.67-1.69h4.13l.65,1.69h2.66l-4-9.55Zm-.12,6,1.34-3.41,1.31,3.41Z"/><path class="cls-1" d="M426.64,66.86a13.85,13.85,0,0,0-1.57-.57q-.78-.24-1.21-.43a2.12,2.12,0,0,1-.74-.5,1.16,1.16,0,0,1-.3-.82,1,1,0,0,1,.5-.88,2.43,2.43,0,0,1,1.33-.32,4.68,4.68,0,0,1,1.31.21,5.5,5.5,0,0,1,1.38.63L427.9,63a5.65,5.65,0,0,0-1.46-.67,5.72,5.72,0,0,0-1.68-.25,4.63,4.63,0,0,0-1.77.31,2.66,2.66,0,0,0-1.19.9,2.25,2.25,0,0,0-.42,1.35,2.21,2.21,0,0,0,.42,1.4,2.67,2.67,0,0,0,1,.8,12.45,12.45,0,0,0,1.55.56q.78.23,1.23.42a2.12,2.12,0,0,1,.76.52,1.18,1.18,0,0,1,.3.83,1.17,1.17,0,0,1-.55,1,2.64,2.64,0,0,1-1.51.38,4.22,4.22,0,0,1-1.66-.36,4.92,4.92,0,0,1-1.53-1l-.59,1.13a5.54,5.54,0,0,0,1.72,1.09,5.33,5.33,0,0,0,2,.41,4.7,4.7,0,0,0,1.83-.33,2.83,2.83,0,0,0,1.24-.95,2.38,2.38,0,0,0,.44-1.43,2.25,2.25,0,0,0-.42-1.42A2.72,2.72,0,0,0,426.64,66.86Z"/><polygon class="cls-1" points="431.48 62.19 430.17 62.19 430.17 71.72 435.65 71.72 435.65 70.54 431.48 70.54 431.48 62.19"/><path class="cls-1" d="M444,62.74a5.32,5.32,0,0,0-5.06,0,4.82,4.82,0,0,0-1.81,1.75,4.66,4.66,0,0,0-.67,2.45,4.73,4.73,0,0,0,.67,2.46A4.83,4.83,0,0,0,439,71.17a5.26,5.26,0,0,0,5.06,0,4.84,4.84,0,0,0,1.82-1.77,4.73,4.73,0,0,0,.67-2.46,4.66,4.66,0,0,0-.67-2.45A4.81,4.81,0,0,0,444,62.74Zm.65,6.05a3.75,3.75,0,0,1-1.34,1.34,3.53,3.53,0,0,1-1.83.5,3.6,3.6,0,0,1-1.85-.5,3.77,3.77,0,0,1-1.36-1.34,3.55,3.55,0,0,1-.5-1.85,3.52,3.52,0,0,1,.5-1.85,3.73,3.73,0,0,1,1.36-1.33,3.63,3.63,0,0,1,1.85-.49,3.56,3.56,0,0,1,1.83.49,3.71,3.71,0,0,1,1.34,1.33,3.55,3.55,0,0,1,.5,1.85A3.59,3.59,0,0,1,444.67,68.79Z"/><polygon class="cls-1" points="451.51 70.27 448.37 62.19 446.96 62.19 450.81 71.72 452.17 71.72 456.04 62.19 454.66 62.19 451.51 70.27"/><polygon class="cls-1" points="458.78 67.5 463.53 67.5 463.53 66.31 458.78 66.31 458.78 63.37 464.09 63.37 464.09 62.19 457.47 62.19 457.47 71.72 464.25 71.72 464.25 70.54 458.78 70.54 458.78 67.5"/><polygon class="cls-1" points="473.15 69.58 467.69 62.19 466.37 62.19 466.37 71.72 467.67 71.72 467.67 64.34 473.13 71.72 474.45 71.72 474.45 62.19 473.15 62.19 473.15 69.58"/><polygon class="cls-1" points="480.43 61.29 481.86 59.47 480.59 59.47 479.76 60.39 478.93 59.47 477.66 59.47 479.09 61.29 480.43 61.29"/><path class="cls-1" d="M482.05,66.86a13.85,13.85,0,0,0-1.57-.57q-.78-.24-1.21-.43a2.12,2.12,0,0,1-.74-.5,1.16,1.16,0,0,1-.3-.82,1,1,0,0,1,.5-.88,2.43,2.43,0,0,1,1.33-.32,4.68,4.68,0,0,1,1.31.21,5.5,5.5,0,0,1,1.38.63l.55-1.17a5.65,5.65,0,0,0-1.46-.67,5.72,5.72,0,0,0-1.68-.25,4.63,4.63,0,0,0-1.77.31,2.66,2.66,0,0,0-1.19.9,2.25,2.25,0,0,0-.42,1.35,2.21,2.21,0,0,0,.42,1.4,2.67,2.67,0,0,0,1,.8,12.45,12.45,0,0,0,1.55.56q.78.23,1.23.42a2.12,2.12,0,0,1,.76.52,1.18,1.18,0,0,1,.3.83,1.17,1.17,0,0,1-.55,1,2.64,2.64,0,0,1-1.51.38,4.22,4.22,0,0,1-1.66-.36,4.92,4.92,0,0,1-1.53-1l-.59,1.13a5.54,5.54,0,0,0,1.72,1.09,5.33,5.33,0,0,0,2,.41,4.7,4.7,0,0,0,1.83-.33,2.83,2.83,0,0,0,1.24-.95,2.38,2.38,0,0,0,.44-1.43,2.25,2.25,0,0,0-.42-1.42A2.72,2.72,0,0,0,482.05,66.86Z"/><path class="cls-1" d="M491.21,70.29a3.73,3.73,0,0,1-1.47.31,3.66,3.66,0,0,1-3.68-3.67,3.59,3.59,0,0,1,.49-1.85,3.68,3.68,0,0,1,4.67-1.5,4,4,0,0,1,1.27.89l.78-.94a4.78,4.78,0,0,0-1.61-1.06,5.13,5.13,0,0,0-1.93-.37,5.08,5.08,0,0,0-2.52.64,4.77,4.77,0,0,0-1.81,1.75,4.7,4.7,0,0,0-.66,2.45,4.82,4.82,0,0,0,2.44,4.23,5,5,0,0,0,4.43.24,5.3,5.3,0,0,0,1.68-1.11l-.79-.86A4.24,4.24,0,0,1,491.21,70.29Z"/><polygon class="cls-1" points="490.28 61.29 491.71 59.47 490.44 59.47 489.61 60.39 488.78 59.47 487.51 59.47 488.95 61.29 490.28 61.29"/><rect class="cls-1" x="495.11" y="62.19" width="1.31" height="9.54"/><polygon class="cls-1" points="505.93 69.58 500.46 62.19 499.14 62.19 499.14 71.72 500.45 71.72 500.45 64.34 505.9 71.72 507.22 71.72 507.22 62.19 505.93 62.19 505.93 69.58"/><path class="cls-1" d="M512.88,62.19l-4.24,9.54H510l1-2.32h5l1,2.32h1.42l-4.22-9.54Zm-1.35,6,2-4.63,2,4.63Z"/></g></g></svg>