<svg xmlns="http://www.w3.org/2000/svg" viewBox="0 0 9.89 16"><defs><style>.cls-1{fill:#00aaaf;}.cls-2{fill:#fff;}</style></defs><title>Logo-16x16</title><g id="Layer_2" data-name="Layer 2"><g id="Layer_1-2" data-name="Layer 1"><g id="_Group_" data-name="&lt;Group&gt;"><path id="_Compound_Path_" data-name="&lt;Compound Path&gt;" class="cls-1" d="M7.42,0H0V16H1V10.47A2.47,2.47,0,0,1,3.46,8h4A2.47,2.47,0,0,0,9.89,5.53V2.47A2.47,2.47,0,0,0,7.42,0ZM8.9,5.53A1.48,1.48,0,0,1,7.42,7H3.15A3.13,3.13,0,0,0,1,7.87V2.47A1.48,1.48,0,0,1,2.47,1H7.42A1.48,1.48,0,0,1,8.9,2.47Z"/><path id="_Path_" data-name="&lt;Path&gt;" class="cls-2" d="M8.9,9v4.54A1.48,1.48,0,0,1,7.42,15H2v1H7.42a2.47,2.47,0,0,0,2.47-2.47V10A1,1,0,0,0,8.9,9Z"/></g></g></g></svg>