<svg xmlns="http://www.w3.org/2000/svg" viewBox="0 0 719.13 102.75"><defs><style>.cls-1{fill:#fff;}.cls-2{fill:#48626b;}.cls-3{fill:#3b5158;}</style></defs><title>1_mobi-ang</title><g id="Layer_2" data-name="Layer 2"><g id="Layer_1-2" data-name="Layer 1"><polygon class="cls-1" points="341.22 13.02 327.8 13.02 359.44 50.06 327.8 87.09 341.22 87.09 372.87 50.06 341.22 13.02"/><polygon class="cls-2" points="633.54 51.68 638.54 51.68 636.02 45.9 633.54 51.68"/><path class="cls-2" d="M610,48.22a2.3,2.3,0,0,0-.82-1.93,3.62,3.62,0,0,0-2.34-.66h-3v5.24h3a3.62,3.62,0,0,0,2.34-.67A2.41,2.41,0,0,0,610,48.22Z"/><path class="cls-2" d="M341.22,13l31.65,37-31.65,37H719.13V13Zm82.54,42.65a6.23,6.23,0,0,1-2.41.5,6.11,6.11,0,0,1-3.11-.81,5.89,5.89,0,0,1-2.23-2.2,6,6,0,0,1-.82-3.07,5.95,5.95,0,0,1,3.08-5.24,6.36,6.36,0,0,1,3.15-.8,6.45,6.45,0,0,1,2.4.47,5.9,5.9,0,0,1,2,1.32l-1,1.17a4.82,4.82,0,0,0-1.58-1.11,4.61,4.61,0,0,0-4.17.21,4.58,4.58,0,0,0-1.67,1.66,4.57,4.57,0,0,0,4,6.87,4.74,4.74,0,0,0,1.84-.38,5.35,5.35,0,0,0,1.6-1l1,1.08A6.73,6.73,0,0,1,423.76,55.67Zm13.23.38h-9.86v-1.2l7.61-9.22h-7.41l0-1.48h9.57v1.21l-7.62,9.21H437Zm10.86,0h-8.47V44.15h8.27v1.48H441V49.3H447v1.48H441v3.79h6.83ZM458,55.67a6.24,6.24,0,0,1-2.42.5,6.14,6.14,0,0,1-3.11-.81A6.08,6.08,0,0,1,450.26,47a6,6,0,0,1,2.25-2.18,6.35,6.35,0,0,1,3.14-.8,6.46,6.46,0,0,1,2.41.47,5.86,5.86,0,0,1,2,1.32l-1,1.17a4.72,4.72,0,0,0-1.58-1.11,4.58,4.58,0,0,0-5.83,1.87A4.58,4.58,0,0,0,453.36,54a4.48,4.48,0,0,0,2.31.61,4.81,4.81,0,0,0,1.84-.38,5.18,5.18,0,0,0,1.59-1l1,1.08A6.73,6.73,0,0,1,458,55.67Zm14.45.38H470.8V50.94H464v5.11h-1.63V44.15H464v5.31h6.8V44.15h1.65Zm7.43,2h-1.36l5.34-16h1.37Zm19.17-2h-8.46V44.15h8.26v1.48h-6.63V49.3h5.93v1.48h-5.93v3.79h6.83Zm12.72,0h-1.65l-6.8-9.21v9.21h-1.63V44.15h1.65l6.81,9.23V44.15h1.62Zm4.64-3.64a4.72,4.72,0,0,0,1.7,1.68,4.64,4.64,0,0,0,2.35.62,4.88,4.88,0,0,0,1.52-.25,5.4,5.4,0,0,0,1.43-.69V50.24h1.45v4.37a7.47,7.47,0,0,1-2.11,1.14,7.22,7.22,0,0,1-2.4.42,6.25,6.25,0,0,1-3.14-.81A6.05,6.05,0,0,1,515,47a6,6,0,0,1,2.28-2.18,6.55,6.55,0,0,1,3.2-.8,7,7,0,0,1,2.42.44,6.62,6.62,0,0,1,2,1.21L524,46.89a5.4,5.4,0,0,0-1.65-1,5.16,5.16,0,0,0-1.89-.36,4.65,4.65,0,0,0-2.35.61,4.53,4.53,0,0,0-2.31,4A4.49,4.49,0,0,0,516.41,52.41Zm18.38,3.64H528V44.15h1.64V54.57h5.2Zm3.7,0h-1.63V44.15h1.63Zm10.72-1.49a3.53,3.53,0,0,1-1.55,1.18,5.8,5.8,0,0,1-2.28.41,6.63,6.63,0,0,1-2.55-.51,7,7,0,0,1-2.14-1.35l.73-1.42a6,6,0,0,0,1.91,1.29,5.3,5.3,0,0,0,2.07.45,3.3,3.3,0,0,0,1.87-.47,1.56,1.56,0,0,0,.32-2.3,2.59,2.59,0,0,0-1-.65c-.38-.16-.89-.33-1.53-.53a15.36,15.36,0,0,1-1.94-.69,3.35,3.35,0,0,1-1.27-1,2.78,2.78,0,0,1-.52-1.75,2.82,2.82,0,0,1,.53-1.68,3.27,3.27,0,0,1,1.48-1.12A5.78,5.78,0,0,1,545.6,44a7.17,7.17,0,0,1,2.1.31,7.31,7.31,0,0,1,1.83.84l-.68,1.46a7.07,7.07,0,0,0-1.73-.79,6,6,0,0,0-1.64-.26,3,3,0,0,0-1.66.4,1.25,1.25,0,0,0-.62,1.1,1.45,1.45,0,0,0,.38,1,2.58,2.58,0,0,0,.91.62,15.23,15.23,0,0,0,1.52.54,19.08,19.08,0,0,1,2,.71,3.41,3.41,0,0,1,1.28,1,2.78,2.78,0,0,1,.52,1.77A3,3,0,0,1,549.21,54.56Zm13.24,1.49H560.8V50.94H554v5.11h-1.64V44.15H554v5.31h6.8V44.15h1.65Zm7.42,2h-1.36l5.34-16h1.38Zm18-3.53a3.56,3.56,0,0,1-1.54,1.18,5.88,5.88,0,0,1-2.29.41,6.67,6.67,0,0,1-2.55-.51,7,7,0,0,1-2.14-1.35l.73-1.42A6.08,6.08,0,0,0,582,54.16a5.3,5.3,0,0,0,2.07.45,3.27,3.27,0,0,0,1.87-.47,1.56,1.56,0,0,0,.32-2.3,2.55,2.55,0,0,0-.94-.65c-.38-.16-.9-.33-1.54-.53a15.36,15.36,0,0,1-1.94-.69,3.35,3.35,0,0,1-1.27-1,2.78,2.78,0,0,1-.52-1.75,2.82,2.82,0,0,1,.53-1.68,3.32,3.32,0,0,1,1.48-1.12,5.81,5.81,0,0,1,2.21-.39,7.31,7.31,0,0,1,3.93,1.15l-.68,1.46a7.07,7.07,0,0,0-1.73-.79,6,6,0,0,0-1.64-.26,3,3,0,0,0-1.66.4,1.25,1.25,0,0,0-.62,1.1,1.45,1.45,0,0,0,.38,1,2.62,2.62,0,0,0,.92.62,14,14,0,0,0,1.51.54,19.08,19.08,0,0,1,1.95.71,3.41,3.41,0,0,1,1.28,1,2.78,2.78,0,0,1,.53,1.77A3,3,0,0,1,587.9,54.56Zm11.62,1.49h-8.46V44.15h8.26v1.48h-6.63V49.3h5.93v1.48h-5.93v3.79h6.83Zm10.32,0-2.36-3.74a6,6,0,0,1-.66,0h-3v3.7h-1.63V44.15h4.66a5.23,5.23,0,0,1,3.49,1.05,3.68,3.68,0,0,1,1.23,3,4.21,4.21,0,0,1-.67,2.43A3.77,3.77,0,0,1,608.94,52l2.77,4Zm12.95-.86a5.17,5.17,0,0,1-3.17.86h-5.17V44.15h5.08a4.72,4.72,0,0,1,2.87.79,2.83,2.83,0,0,1,.46,3.91,2.8,2.8,0,0,1-1.58.95,3.06,3.06,0,0,1,2,1,3,3,0,0,1,.7,2A2.8,2.8,0,0,1,622.79,55.19Zm5.39.86h-1.63V44.15h1.63Zm12.24,0-1.25-2.89h-6.28l-1.24,2.89h-1.72l5.29-11.9h1.7l5.27,11.9Zm13.59,0h-1.65l-6.8-9.21v9.21h-1.63V44.15h1.64l6.82,9.23V44.15H654Z"/><path class="cls-2" d="M621.15,48.73a1.56,1.56,0,0,0,.61-1.33,1.53,1.53,0,0,0-.61-1.31,2.73,2.73,0,0,0-1.7-.44h-3.37V49.2h3.37A2.67,2.67,0,0,0,621.15,48.73Z"/><path class="cls-2" d="M621.52,51.19a3.64,3.64,0,0,0-2.07-.51h-3.37v3.88h3.37a3.57,3.57,0,0,0,2.07-.5,1.68,1.68,0,0,0,.75-1.46A1.61,1.61,0,0,0,621.52,51.19Z"/><path class="cls-3" d="M52.84,13H0V87.09H50.1A51.26,51.26,0,0,1,52.84,13Z"/><polygon class="cls-3" points="271.9 51.44 275.61 51.44 273.77 46.67 271.9 51.44"/><path class="cls-3" d="M212.87,46.37a3.33,3.33,0,0,0-1.82-.52,3.44,3.44,0,0,0-1.84.52,3.67,3.67,0,0,0-1.34,1.42,4.21,4.21,0,0,0,0,4,3.8,3.8,0,0,0,1.34,1.44,3.38,3.38,0,0,0,1.83.52,3.33,3.33,0,0,0,1.82-.52,3.65,3.65,0,0,0,1.31-1.44,4.41,4.41,0,0,0,0-4A3.53,3.53,0,0,0,212.87,46.37Z"/><path class="cls-3" d="M327.79,13H121.11a51.26,51.26,0,0,1,2.74,74.07H327.79l31.65-37ZM191.42,54.79a4.3,4.3,0,0,1-1.94,1.42,7.47,7.47,0,0,1-2.74.48,9.87,9.87,0,0,1-3.31-.58,9,9,0,0,1-2.85-1.6l1.35-2.72a8.7,8.7,0,0,0,2.4,1.46,6.4,6.4,0,0,0,2.45.58,2.28,2.28,0,0,0,1.23-.29.93.93,0,0,0,.45-.84,1,1,0,0,0-.33-.76,2.48,2.48,0,0,0-.84-.49c-.34-.12-.81-.26-1.43-.43a17.44,17.44,0,0,1-2.27-.77,4.08,4.08,0,0,1-1.53-1.18,3.26,3.26,0,0,1-.64-2.11,3.7,3.7,0,0,1,.66-2.18A4.23,4.23,0,0,1,184,43.34a7.16,7.16,0,0,1,2.81-.5,9.94,9.94,0,0,1,2.86.41,9.22,9.22,0,0,1,2.48,1.09l-1.31,2.79a12.33,12.33,0,0,0-2.28-1,6.66,6.66,0,0,0-2-.4,1.89,1.89,0,0,0-1,.24.79.79,0,0,0-.37.69,1,1,0,0,0,.33.74,2.32,2.32,0,0,0,.8.47c.32.13.79.28,1.41.47a20.49,20.49,0,0,1,2.3.8,4.08,4.08,0,0,1,1.55,1.23,3.4,3.4,0,0,1,.65,2.17A3.7,3.7,0,0,1,191.42,54.79Zm11.64,1.69H193.9V43.1h3.49V53.5h5.67Zm14.24-3.17a6.77,6.77,0,0,1-2.59,2.5,7.92,7.92,0,0,1-7.39,0,6.69,6.69,0,0,1-2.59-2.5,6.85,6.85,0,0,1-.95-3.56,6.64,6.64,0,0,1,.95-3.51,6.74,6.74,0,0,1,2.59-2.46,8,8,0,0,1,7.39,0,6.74,6.74,0,0,1,2.59,2.46,6.64,6.64,0,0,1,.95,3.51A6.79,6.79,0,0,1,217.3,53.31Zm10,3.17h-3.62L218.46,43.1h3.76l3.34,9.68,3.35-9.68h3.59Zm17.23,0H233.76V43.1h10.55v2.79h-7.06v2.5h6.38v2.77h-6.38v2.52h7.25Zm14.52,0h-3l-6.07-8v8h-3.26V43.1h3.07l6.09,8.06,0-8.06H259Zm6.11,0h-3.49V43.1h3.49Zm12.42,0-.91-2.37h-5.79l-.93,2.37h-3.59l5.75-13.38h3.58l5.61,13.38Zm17.31,0h-3.05l-6.07-8v8h-3.26V43.1h3.07l6.09,8.06,0-8.06h3.24Z"/><path class="cls-2" d="M130.35,51.37A43.38,43.38,0,1,0,87,94.75,43.42,43.42,0,0,0,130.35,51.37Zm-56.93-11V30.8H93.75V75.63H82.05V40.39Z"/><path class="cls-1" d="M121.11,13a51.26,51.26,0,1,0,17.24,38.35A51.16,51.16,0,0,0,121.11,13ZM87,94.75a43.38,43.38,0,1,1,43.37-43.38A43.43,43.43,0,0,1,87,94.75Z"/><polygon class="cls-1" points="93.75 75.63 93.75 30.8 73.42 30.8 73.42 40.39 82.05 40.39 82.05 75.63 93.75 75.63"/><path class="cls-1" d="M189.92,49.11a20.49,20.49,0,0,0-2.3-.8c-.62-.19-1.09-.34-1.41-.47a2.32,2.32,0,0,1-.8-.47,1,1,0,0,1-.33-.74.79.79,0,0,1,.37-.69,1.89,1.89,0,0,1,1-.24,6.66,6.66,0,0,1,2,.4,12.33,12.33,0,0,1,2.28,1l1.31-2.79a9.22,9.22,0,0,0-2.48-1.09,9.94,9.94,0,0,0-2.86-.41,7.16,7.16,0,0,0-2.81.5,4.23,4.23,0,0,0-1.87,1.44,3.7,3.7,0,0,0-.66,2.18,3.26,3.26,0,0,0,.64,2.11,4.08,4.08,0,0,0,1.53,1.18,17.44,17.44,0,0,0,2.27.77c.62.17,1.09.31,1.43.43a2.48,2.48,0,0,1,.84.49,1,1,0,0,1,.33.76.93.93,0,0,1-.45.84,2.28,2.28,0,0,1-1.23.29,6.4,6.4,0,0,1-2.45-.58,8.7,8.7,0,0,1-2.4-1.46l-1.35,2.72a9,9,0,0,0,2.85,1.6,9.87,9.87,0,0,0,3.31.58,7.47,7.47,0,0,0,2.74-.48,4.3,4.3,0,0,0,1.94-1.42,3.7,3.7,0,0,0,.7-2.28,3.4,3.4,0,0,0-.65-2.17A4.08,4.08,0,0,0,189.92,49.11Z"/><polygon class="cls-1" points="197.39 43.1 193.9 43.1 193.9 56.48 203.06 56.48 203.06 53.5 197.39 53.5 197.39 43.1"/><path class="cls-1" d="M214.71,43.79a8,8,0,0,0-7.39,0,6.74,6.74,0,0,0-2.59,2.46,6.64,6.64,0,0,0-.95,3.51,6.85,6.85,0,0,0,.95,3.56,6.69,6.69,0,0,0,2.59,2.5,7.92,7.92,0,0,0,7.39,0,6.8,6.8,0,0,0,3.54-6.05,6.64,6.64,0,0,0-.95-3.51A6.74,6.74,0,0,0,214.71,43.79Zm-.53,8a3.65,3.65,0,0,1-1.31,1.44,3.33,3.33,0,0,1-1.82.52,3.38,3.38,0,0,1-1.83-.52,3.8,3.8,0,0,1-1.34-1.44,4.21,4.21,0,0,1,0-4,3.67,3.67,0,0,1,1.34-1.42,3.44,3.44,0,0,1,1.84-.52,3.33,3.33,0,0,1,1.82.52,3.53,3.53,0,0,1,1.31,1.42,4.41,4.41,0,0,1,0,4Z"/><polygon class="cls-1" points="225.56 52.78 222.22 43.1 218.46 43.1 223.65 56.48 227.27 56.48 232.5 43.1 228.91 43.1 225.56 52.78"/><polygon class="cls-1" points="237.25 51.17 243.63 51.16 243.63 48.39 237.25 48.39 237.25 45.89 244.31 45.89 244.31 43.1 233.76 43.1 233.76 56.48 244.5 56.48 244.5 53.69 237.25 53.69 237.25 51.17"/><polygon class="cls-1" points="255.8 51.16 249.71 43.1 246.64 43.1 246.64 56.48 249.9 56.48 249.9 48.48 255.97 56.48 259.02 56.48 259.02 43.1 255.78 43.1 255.8 51.16"/><rect class="cls-1" x="261.64" y="43.1" width="3.49" height="13.38"/><path class="cls-1" d="M272.08,43.1l-5.75,13.38h3.59l.93-2.37h5.79l.91,2.37h3.72L275.66,43.1Zm-.18,8.34,1.87-4.77,1.84,4.77Z"/><polygon class="cls-1" points="291.64 51.16 285.55 43.1 282.48 43.1 282.48 56.48 285.74 56.48 285.74 48.48 291.81 56.48 294.86 56.48 294.86 43.1 291.62 43.1 291.64 51.16"/><path class="cls-1" d="M423.27,54.26a4.74,4.74,0,0,1-1.84.38,4.48,4.48,0,0,1-2.31-.61,4.6,4.6,0,0,1-1.67-6.26,4.58,4.58,0,0,1,1.67-1.66,4.61,4.61,0,0,1,4.17-.21A4.82,4.82,0,0,1,424.87,47l1-1.17a5.9,5.9,0,0,0-2-1.32,6.45,6.45,0,0,0-2.4-.47,6.36,6.36,0,0,0-3.15.8A6,6,0,0,0,416,53.16a5.89,5.89,0,0,0,2.23,2.2,6.11,6.11,0,0,0,3.11.81,6.23,6.23,0,0,0,2.41-.5,6.73,6.73,0,0,0,2.09-1.38l-1-1.08A5.35,5.35,0,0,1,423.27,54.26Z"/><polygon class="cls-1" points="436.92 45.36 436.92 44.15 427.35 44.15 427.33 45.63 434.74 45.63 427.13 54.85 427.13 56.05 436.99 56.05 437 54.57 429.3 54.57 436.92 45.36"/><polygon class="cls-1" points="441.02 50.78 446.95 50.78 446.95 49.3 441.02 49.3 441.02 45.63 447.65 45.63 447.65 44.15 439.38 44.15 439.38 56.05 447.85 56.05 447.85 54.57 441.02 54.57 441.02 50.78"/><path class="cls-1" d="M457.51,54.26a4.81,4.81,0,0,1-1.84.38,4.56,4.56,0,0,1-4-2.28,4.62,4.62,0,0,1,0-4.59,4.58,4.58,0,0,1,5.83-1.87A4.72,4.72,0,0,1,459.1,47l1-1.17a5.86,5.86,0,0,0-2-1.32,6.46,6.46,0,0,0-2.41-.47,6.35,6.35,0,0,0-3.14.8,6,6,0,0,0-2.26,8.31,5.86,5.86,0,0,0,2.22,2.2,6.14,6.14,0,0,0,3.11.81,6.24,6.24,0,0,0,2.42-.5,6.73,6.73,0,0,0,2.09-1.38l-1-1.08A5.18,5.18,0,0,1,457.51,54.26Z"/><polygon class="cls-1" points="470.8 49.46 464 49.46 464 44.15 462.37 44.15 462.37 56.05 464 56.05 464 50.94 470.8 50.94 470.8 56.05 472.45 56.05 472.45 44.15 470.8 44.15 470.8 49.46"/><polygon class="cls-1" points="478.52 58.09 479.88 58.09 485.23 42.13 483.86 42.13 478.52 58.09"/><polygon class="cls-1" points="492.22 50.78 498.15 50.78 498.15 49.3 492.22 49.3 492.22 45.63 498.85 45.63 498.85 44.15 490.59 44.15 490.59 56.05 499.05 56.05 499.05 54.57 492.22 54.57 492.22 50.78"/><polygon class="cls-1" points="510.15 53.38 503.34 44.15 501.69 44.15 501.69 56.05 503.32 56.05 503.32 46.84 510.12 56.05 511.77 56.05 511.77 44.15 510.15 44.15 510.15 53.38"/><path class="cls-1" d="M518.09,46.11a4.65,4.65,0,0,1,2.35-.61,5.16,5.16,0,0,1,1.89.36,5.4,5.4,0,0,1,1.65,1l.93-1.19a6.62,6.62,0,0,0-2-1.21,7,7,0,0,0-2.42-.44,6.55,6.55,0,0,0-3.2.8A6,6,0,0,0,515,47a6,6,0,0,0,2.25,8.33,6.25,6.25,0,0,0,3.14.81,7.22,7.22,0,0,0,2.4-.42,7.47,7.47,0,0,0,2.11-1.14V50.24h-1.45v3.53a5.4,5.4,0,0,1-1.43.69,4.88,4.88,0,0,1-1.52.25,4.64,4.64,0,0,1-2.35-.62,4.72,4.72,0,0,1-1.7-1.68,4.49,4.49,0,0,1-.63-2.32,4.53,4.53,0,0,1,2.31-4Z"/><polygon class="cls-1" points="529.59 44.15 527.95 44.15 527.95 56.05 534.79 56.05 534.79 54.57 529.59 54.57 529.59 44.15"/><rect class="cls-1" x="536.86" y="44.15" width="1.63" height="11.9"/><path class="cls-1" d="M548,50a19.08,19.08,0,0,0-2-.71,15.23,15.23,0,0,1-1.52-.54,2.58,2.58,0,0,1-.91-.62,1.45,1.45,0,0,1-.38-1,1.25,1.25,0,0,1,.62-1.1,3,3,0,0,1,1.66-.4,6,6,0,0,1,1.64.26,7.07,7.07,0,0,1,1.73.79l.68-1.46a7.31,7.31,0,0,0-1.83-.84,7.17,7.17,0,0,0-2.1-.31,5.78,5.78,0,0,0-2.21.39,3.27,3.27,0,0,0-1.48,1.12,2.82,2.82,0,0,0-.53,1.68A2.78,2.78,0,0,0,541.9,49a3.35,3.35,0,0,0,1.27,1,15.36,15.36,0,0,0,1.94.69c.64.2,1.15.37,1.53.53a2.59,2.59,0,0,1,1,.65,1.56,1.56,0,0,1-.32,2.3,3.3,3.3,0,0,1-1.87.47,5.3,5.3,0,0,1-2.07-.45,6,6,0,0,1-1.91-1.29l-.73,1.42a7,7,0,0,0,2.14,1.35,6.63,6.63,0,0,0,2.55.51,5.8,5.8,0,0,0,2.28-.41,3.53,3.53,0,0,0,1.55-1.18,3,3,0,0,0,.55-1.79,2.78,2.78,0,0,0-.52-1.77A3.41,3.41,0,0,0,548,50Z"/><polygon class="cls-1" points="560.8 49.46 554 49.46 554 44.15 552.37 44.15 552.37 56.05 554 56.05 554 50.94 560.8 50.94 560.8 56.05 562.45 56.05 562.45 44.15 560.8 44.15 560.8 49.46"/><polygon class="cls-1" points="568.51 58.09 569.88 58.09 575.23 42.13 573.85 42.13 568.51 58.09"/><path class="cls-1" d="M586.65,50a19.08,19.08,0,0,0-1.95-.71,14,14,0,0,1-1.51-.54,2.62,2.62,0,0,1-.92-.62,1.45,1.45,0,0,1-.38-1,1.25,1.25,0,0,1,.62-1.1,3,3,0,0,1,1.66-.4,6,6,0,0,1,1.64.26,7.07,7.07,0,0,1,1.73.79l.68-1.46A7.31,7.31,0,0,0,584.29,44a5.81,5.81,0,0,0-2.21.39,3.32,3.32,0,0,0-1.48,1.12,2.82,2.82,0,0,0-.53,1.68,2.78,2.78,0,0,0,.52,1.75,3.35,3.35,0,0,0,1.27,1,15.36,15.36,0,0,0,1.94.69c.64.2,1.16.37,1.54.53a2.55,2.55,0,0,1,.94.65,1.56,1.56,0,0,1-.32,2.3,3.27,3.27,0,0,1-1.87.47,5.3,5.3,0,0,1-2.07-.45,6.08,6.08,0,0,1-1.91-1.29l-.73,1.42a7,7,0,0,0,2.14,1.35,6.67,6.67,0,0,0,2.55.51,5.88,5.88,0,0,0,2.29-.41,3.56,3.56,0,0,0,1.54-1.18,3,3,0,0,0,.56-1.79,2.78,2.78,0,0,0-.53-1.77A3.41,3.41,0,0,0,586.65,50Z"/><polygon class="cls-1" points="592.69 50.78 598.62 50.78 598.62 49.3 592.69 49.3 592.69 45.63 599.32 45.63 599.32 44.15 591.06 44.15 591.06 56.05 599.52 56.05 599.52 54.57 592.69 54.57 592.69 50.78"/><path class="cls-1" d="M610.87,50.6a4.21,4.21,0,0,0,.67-2.43,3.68,3.68,0,0,0-1.23-3,5.23,5.23,0,0,0-3.49-1.05h-4.66v11.9h1.63v-3.7h3a6,6,0,0,0,.66,0l2.36,3.74h1.87l-2.77-4A3.77,3.77,0,0,0,610.87,50.6Zm-4,.27h-3V45.63h3a3.62,3.62,0,0,1,2.34.66,2.3,2.3,0,0,1,.82,1.93,2.41,2.41,0,0,1-.82,2A3.62,3.62,0,0,1,606.82,50.87Z"/><path class="cls-1" d="M621.28,49.8a2.8,2.8,0,0,0,1.58-.95,2.83,2.83,0,0,0-.46-3.91,4.72,4.72,0,0,0-2.87-.79h-5.08v11.9h5.17a5.17,5.17,0,0,0,3.17-.86,2.8,2.8,0,0,0,1.14-2.38,3,3,0,0,0-.7-2A3.06,3.06,0,0,0,621.28,49.8Zm-5.2-4.15h3.37a2.73,2.73,0,0,1,1.7.44,1.53,1.53,0,0,1,.61,1.31,1.56,1.56,0,0,1-.61,1.33,2.67,2.67,0,0,1-1.7.47h-3.37Zm5.44,8.41a3.57,3.57,0,0,1-2.07.5h-3.37V50.68h3.37a3.64,3.64,0,0,1,2.07.51,1.61,1.61,0,0,1,.75,1.41A1.68,1.68,0,0,1,621.52,54.06Z"/><rect class="cls-1" x="626.55" y="44.15" width="1.63" height="11.9"/><path class="cls-1" d="M635.22,44.15l-5.29,11.9h1.72l1.24-2.89h6.28l1.25,2.89h1.77l-5.27-11.9Zm-1.68,7.53L636,45.9l2.52,5.78Z"/><polygon class="cls-1" points="652.39 53.38 645.58 44.15 643.93 44.15 643.93 56.05 645.56 56.05 645.56 46.84 652.36 56.05 654.01 56.05 654.01 44.15 652.39 44.15 652.39 53.38"/></g></g></svg>