<svg xmlns="http://www.w3.org/2000/svg" viewBox="0 0 717.15 102.75"><defs><style>.cls-1{fill:#fff;}.cls-2{fill:#00aaaf;}.cls-3{fill:#008c90;}</style></defs><title>2_mobi-ang</title><g id="Layer_2" data-name="Layer 2"><g id="Layer_1-2" data-name="Layer 1"><polygon class="cls-1" points="491.23 13.32 476.37 13.32 508.01 50.36 476.37 87.39 491.23 87.39 522.88 50.36 491.23 13.32"/><path class="cls-2" d="M591,46.92a4.5,4.5,0,0,0-2.28-.61,4.64,4.64,0,0,0-4,2.27,4.4,4.4,0,0,0-.63,2.3,4.47,4.47,0,0,0,.63,2.32,4.67,4.67,0,0,0,1.69,1.67,4.45,4.45,0,0,0,2.31.62,4.32,4.32,0,0,0,2.28-.62,4.61,4.61,0,0,0,1.67-1.67,4.55,4.55,0,0,0,.62-2.32,4.48,4.48,0,0,0-.62-2.3A4.58,4.58,0,0,0,591,46.92Z"/><path class="cls-2" d="M491.23,13.32l31.65,37-31.65,37H717.15V13.32Zm80.22,42a3.59,3.59,0,0,1-1.55,1.18,6,6,0,0,1-2.29.41,6.67,6.67,0,0,1-2.55-.51,6.81,6.81,0,0,1-2.14-1.36l.73-1.41A6.08,6.08,0,0,0,565.56,55a5.3,5.3,0,0,0,2.07.45,3.33,3.33,0,0,0,1.88-.47,1.54,1.54,0,0,0,.31-2.3,2.55,2.55,0,0,0-.94-.65c-.38-.16-.89-.33-1.54-.53a17.87,17.87,0,0,1-1.94-.69,3.34,3.34,0,0,1-1.26-1,2.72,2.72,0,0,1-.52-1.75,2.81,2.81,0,0,1,.52-1.68,3.38,3.38,0,0,1,1.48-1.12,5.81,5.81,0,0,1,2.21-.39,7.07,7.07,0,0,1,2.1.31,7,7,0,0,1,1.83.84l-.68,1.46a7.07,7.07,0,0,0-1.73-.79,6,6,0,0,0-1.64-.26,3,3,0,0,0-1.65.4,1.23,1.23,0,0,0-.62,1.1,1.42,1.42,0,0,0,.37,1,2.6,2.6,0,0,0,.92.63c.36.16.87.33,1.51.54a18.52,18.52,0,0,1,2,.71,3.54,3.54,0,0,1,1.27,1,2.81,2.81,0,0,1,.53,1.78A3,3,0,0,1,571.45,55.36Zm10,1.49H574.6V45h1.63V55.37h5.2Zm12.7-2.9a6,6,0,0,1-2.27,2.21,6.53,6.53,0,0,1-6.3,0A6,6,0,0,1,583.29,54a6,6,0,0,1,0-6.12,6,6,0,0,1,2.26-2.18,6.62,6.62,0,0,1,6.31,0,6,6,0,0,1,2.27,2.18,6,6,0,0,1,0,6.12Zm7.91,2.9h-1.7L595.54,45h1.75L601.22,55,605.15,45h1.72Zm15.08,0h-8.47V45h8.26v1.48h-6.63V50.1h5.93v1.48h-5.93v3.79h6.84Zm12.71,0h-1.65l-6.8-9.21v9.21h-1.63V45h1.65l6.82,9.23V45h1.61Zm5,0h-1.63V45h1.63Zm12.24,0L645.86,54h-6.27l-1.24,2.89h-1.72L641.92,45h1.7l5.27,11.9Zm13.58,0h-1.65l-6.8-9.21v9.21h-1.63V45h1.65l6.82,9.23V45h1.61Z"/><polygon class="cls-2" points="640.24 52.48 645.23 52.48 642.72 46.7 640.24 52.48"/><path class="cls-3" d="M410.21,51.43a1.26,1.26,0,0,0,.41-1,1.16,1.16,0,0,0-.41-.94,1.71,1.71,0,0,0-1.15-.31h-2.67v2.59h2.67A1.77,1.77,0,0,0,410.21,51.43Z"/><path class="cls-3" d="M410.51,54.67a2.42,2.42,0,0,0-1.45-.35h-2.67v2.8h2.67a2.42,2.42,0,0,0,1.45-.38,1.22,1.22,0,0,0,.53-1.07A1.15,1.15,0,0,0,410.51,54.67Z"/><path class="cls-3" d="M52.5,13.32H0V87.39H50.39A51.27,51.27,0,0,1,52.5,13.32Z"/><path class="cls-3" d="M395.11,49.24h-2.54v4.1h2.54a2.34,2.34,0,0,0,1.65-.53,2,2,0,0,0,.58-1.54,1.91,1.91,0,0,0-.58-1.5A2.39,2.39,0,0,0,395.11,49.24Z"/><polygon class="cls-3" points="426.82 54.8 430.53 54.8 428.69 50.02 426.82 54.8"/><path class="cls-3" d="M476.37,13.32H121.46a51.28,51.28,0,0,1,2.1,74.07H476.37l31.64-37ZM189.15,59.4a7.18,7.18,0,0,1-6.55-.23,6.79,6.79,0,0,1-2.52-2.5,7,7,0,0,1-.92-3.55,6.72,6.72,0,0,1,3.5-6,7.57,7.57,0,0,1,3.66-.89,7.33,7.33,0,0,1,2.94.62,7.25,7.25,0,0,1,2.46,1.69l-2,2.44a5.11,5.11,0,0,0-1.55-1.31,3.76,3.76,0,0,0-1.77-.49,3.48,3.48,0,0,0-1.85.51,3.63,3.63,0,0,0-1.3,1.39,4.3,4.3,0,0,0,0,3.95,3.66,3.66,0,0,0,1.3,1.4,3.56,3.56,0,0,0,1.85.5,4,4,0,0,0,1.71-.42,5.49,5.49,0,0,0,1.61-1.14l2,2.19A8.25,8.25,0,0,1,189.15,59.4Zm15.14.43H192.44V57.56l7.06-8.3h-6.81v-2.8h11.49v2.29L197.12,57h7.17Zm12.58,0H206.13V46.46h10.55v2.78h-7.06v2.5H216v2.77l-6.37,0v2.52h7.25Zm11.27-.43a7,7,0,0,1-3,.68,7.12,7.12,0,0,1-3.59-.91,6.79,6.79,0,0,1-2.52-2.5,7,7,0,0,1-.91-3.55,6.67,6.67,0,0,1,3.5-6,7.53,7.53,0,0,1,3.65-.89,7.29,7.29,0,0,1,2.94.62,7.06,7.06,0,0,1,2.46,1.69l-2,2.44a5.07,5.07,0,0,0-1.54-1.31,3.77,3.77,0,0,0-1.78-.49,3.45,3.45,0,0,0-1.84.51,3.65,3.65,0,0,0-1.31,1.39,4.3,4.3,0,0,0,0,3.95,3.68,3.68,0,0,0,1.31,1.4,3.53,3.53,0,0,0,1.84.5,4.06,4.06,0,0,0,1.72-.42,5.44,5.44,0,0,0,1.6-1.14l2,2.19A8.09,8.09,0,0,1,228.14,59.4Zm16.45.43H241.1V54.7h-5.4v5.13h-3.49V46.46h3.49v5.45h5.4V46.46h3.49Zm7.67,2.1H249.4l6.18-17.55h2.87Zm20.92-2.1H262.44V46.46H273v2.78h-7.06v2.5h6.37v2.77l-6.37,0v2.52h7.25Zm14.52,0h-3.05l-6.07-8v8h-3.26V46.46h3.07l6.09,8,0-8h3.24Zm5.84-4.66a3.67,3.67,0,0,0,1.37,1.42,3.84,3.84,0,0,0,1.95.51,5.33,5.33,0,0,0,2.31-.64V53h3v5.33a8.75,8.75,0,0,1-2.62,1.26,9.74,9.74,0,0,1-2.95.49,7.3,7.3,0,0,1-3.65-.91,6.62,6.62,0,0,1-2.57-2.49,6.85,6.85,0,0,1-.94-3.55,6.65,6.65,0,0,1,1-3.52,6.79,6.79,0,0,1,2.65-2.47,8,8,0,0,1,3.77-.89,8.74,8.74,0,0,1,3,.54,7.77,7.77,0,0,1,2.52,1.46l-2,2.44a5.33,5.33,0,0,0-1.67-1.08,4.71,4.71,0,0,0-1.86-.41,3.74,3.74,0,0,0-1.93.52,3.66,3.66,0,0,0-1.35,1.41,4.09,4.09,0,0,0-.5,2A4.19,4.19,0,0,0,293.54,55.17Zm20.11,4.66h-9.16V46.46H308v10.4h5.67Zm5.08,0h-3.5V46.46h3.5Zm12.44-1.69a4.32,4.32,0,0,1-1.94,1.43,7.68,7.68,0,0,1-2.74.47,9.87,9.87,0,0,1-3.31-.58,9.15,9.15,0,0,1-2.85-1.59l1.35-2.73a8.49,8.49,0,0,0,2.4,1.47,6.55,6.55,0,0,0,2.45.57,2.28,2.28,0,0,0,1.23-.29.93.93,0,0,0,.45-.84,1,1,0,0,0-.33-.76,2.86,2.86,0,0,0-.84-.49c-.34-.12-.81-.26-1.43-.42a18.92,18.92,0,0,1-2.27-.78,4,4,0,0,1-1.53-1.18,3.24,3.24,0,0,1-.64-2.11,3.65,3.65,0,0,1,.66-2.17,4.09,4.09,0,0,1,1.87-1.44,7.19,7.19,0,0,1,2.81-.51,10.3,10.3,0,0,1,2.86.41,9.09,9.09,0,0,1,2.48,1.1l-1.31,2.78a11.76,11.76,0,0,0-2.28-1,7,7,0,0,0-2-.4,1.89,1.89,0,0,0-1,.24.79.79,0,0,0-.37.7,1,1,0,0,0,.33.73,2.34,2.34,0,0,0,.8.48c.32.12.79.27,1.41.47a16.64,16.64,0,0,1,2.3.8,4,4,0,0,1,1.56,1.23,3.41,3.41,0,0,1,.64,2.16A3.7,3.7,0,0,1,331.17,58.14ZM346,59.83h-3.49V54.7h-5.4v5.13h-3.49V46.46h3.49v5.45h5.4V46.46H346Zm7.67,2.1h-2.86L357,44.38h2.87Zm20-3.79a4.32,4.32,0,0,1-1.94,1.43,7.67,7.67,0,0,1-2.73.47,9.88,9.88,0,0,1-3.32-.58,9.15,9.15,0,0,1-2.85-1.59l1.36-2.73a8.3,8.3,0,0,0,2.39,1.47,6.55,6.55,0,0,0,2.45.57,2.26,2.26,0,0,0,1.23-.29.93.93,0,0,0,.45-.84,1,1,0,0,0-.33-.76,2.62,2.62,0,0,0-.84-.49c-.34-.12-.81-.26-1.42-.42a17.76,17.76,0,0,1-2.27-.78,4,4,0,0,1-1.54-1.18,3.24,3.24,0,0,1-.64-2.11,3.65,3.65,0,0,1,.66-2.17,4.09,4.09,0,0,1,1.87-1.44,7.22,7.22,0,0,1,2.81-.51,10.42,10.42,0,0,1,2.87.41,9.37,9.37,0,0,1,2.48,1.1l-1.32,2.78a11.76,11.76,0,0,0-2.28-1,7,7,0,0,0-2-.4,1.88,1.88,0,0,0-1,.24.77.77,0,0,0-.37.7.94.94,0,0,0,.32.73,2.44,2.44,0,0,0,.8.48c.32.12.79.27,1.41.47a16.64,16.64,0,0,1,2.3.8,3.85,3.85,0,0,1,1.56,1.23,3.41,3.41,0,0,1,.65,2.16A3.71,3.71,0,0,1,373.72,58.14Zm13.22,1.69H376.2V46.46h10.55v2.78h-7.06v2.5h6.38v2.77l-6.38,0v2.52h7.25Zm10.17,0-1.94-3.7h-2.6v3.7h-3.49V46.46h6a6.19,6.19,0,0,1,4.11,1.23,4.25,4.25,0,0,1,1.46,3.46,5.21,5.21,0,0,1-.61,2.6,4.12,4.12,0,0,1-1.77,1.71l2.78,4.37ZM414,58.09a3.9,3.9,0,0,1-1.79,1.29,7.58,7.58,0,0,1-2.73.45h-6.6V46.46h6.35a7.39,7.39,0,0,1,2.62.41A3.8,3.8,0,0,1,413.6,48a2.77,2.77,0,0,1,.61,1.79,2.86,2.86,0,0,1-.62,1.84,3.07,3.07,0,0,1-1.69,1.06,3.31,3.31,0,0,1,2,1.17,3.42,3.42,0,0,1,.73,2.21A3.25,3.25,0,0,1,414,58.09Zm6,1.74h-3.49V46.46h3.49Zm12.42,0-.91-2.36h-5.79l-.93,2.36h-3.59L427,46.46h3.58l5.61,13.37Zm17.31,0h-3l-6.07-8v8H437.4V46.46h3.07l6.09,8,0-8h3.24Z"/><path class="cls-1" d="M188.09,56.53a4,4,0,0,1-1.71.42,3.56,3.56,0,0,1-1.85-.5,3.66,3.66,0,0,1-1.3-1.4,4.3,4.3,0,0,1,0-3.95,3.63,3.63,0,0,1,1.3-1.39,3.48,3.48,0,0,1,1.85-.51,3.76,3.76,0,0,1,1.77.49A5.11,5.11,0,0,1,189.7,51l2-2.44a7.25,7.25,0,0,0-2.46-1.69,7.33,7.33,0,0,0-2.94-.62,7.57,7.57,0,0,0-3.66.89,6.72,6.72,0,0,0-3.5,6,7,7,0,0,0,.92,3.55,6.79,6.79,0,0,0,2.52,2.5,7.18,7.18,0,0,0,6.55.23,8.25,8.25,0,0,0,2.59-1.82l-2-2.19A5.49,5.49,0,0,1,188.09,56.53Z"/><polygon class="cls-1" points="204.18 48.75 204.18 46.46 192.69 46.46 192.69 49.26 199.5 49.26 192.44 57.56 192.44 59.83 204.29 59.83 204.29 57.03 197.12 57.03 204.18 48.75"/><polygon class="cls-1" points="209.62 54.53 215.99 54.51 215.99 51.74 209.62 51.74 209.62 49.24 216.68 49.24 216.68 46.46 206.13 46.46 206.13 59.83 216.87 59.83 216.87 57.05 209.62 57.05 209.62 54.53"/><path class="cls-1" d="M227.08,56.53a4.06,4.06,0,0,1-1.72.42,3.53,3.53,0,0,1-1.84-.5,3.68,3.68,0,0,1-1.31-1.4,4.3,4.3,0,0,1,0-3.95,3.65,3.65,0,0,1,1.31-1.39,3.45,3.45,0,0,1,1.84-.51,3.77,3.77,0,0,1,1.78.49A5.07,5.07,0,0,1,228.68,51l2-2.44a7.06,7.06,0,0,0-2.46-1.69,7.29,7.29,0,0,0-2.94-.62,7.53,7.53,0,0,0-3.65.89,6.67,6.67,0,0,0-3.5,6,7,7,0,0,0,.91,3.55,6.79,6.79,0,0,0,2.52,2.5,7.12,7.12,0,0,0,3.59.91,7,7,0,0,0,3-.68,8.09,8.09,0,0,0,2.58-1.82l-2-2.19A5.44,5.44,0,0,1,227.08,56.53Z"/><polygon class="cls-1" points="241.1 51.91 235.7 51.91 235.7 46.46 232.21 46.46 232.21 59.83 235.7 59.83 235.7 54.7 241.1 54.7 241.1 59.83 244.59 59.83 244.59 46.46 241.1 46.46 241.1 51.91"/><polygon class="cls-1" points="249.4 61.93 252.26 61.93 258.45 44.38 255.58 44.38 249.4 61.93"/><polygon class="cls-1" points="265.93 54.53 272.3 54.51 272.3 51.74 265.93 51.74 265.93 49.24 272.99 49.24 272.99 46.46 262.44 46.46 262.44 59.83 273.18 59.83 273.18 57.05 265.93 57.05 265.93 54.53"/><polygon class="cls-1" points="284.48 54.51 278.39 46.46 275.32 46.46 275.32 59.83 278.58 59.83 278.58 51.84 284.65 59.83 287.7 59.83 287.7 46.46 284.46 46.46 284.48 54.51"/><path class="cls-1" d="M294.89,49.72a3.74,3.74,0,0,1,1.93-.52,4.71,4.71,0,0,1,1.86.41,5.33,5.33,0,0,1,1.67,1.08l2-2.44a7.77,7.77,0,0,0-2.52-1.46,8.74,8.74,0,0,0-3-.54,8,8,0,0,0-3.77.89,6.79,6.79,0,0,0-2.65,2.47,6.65,6.65,0,0,0-1,3.52,6.85,6.85,0,0,0,.94,3.55A6.62,6.62,0,0,0,293,59.17a7.3,7.3,0,0,0,3.65.91,9.74,9.74,0,0,0,2.95-.49,8.75,8.75,0,0,0,2.62-1.26V53h-3v3.46a5.33,5.33,0,0,1-2.31.64,3.84,3.84,0,0,1-1.95-.51,3.67,3.67,0,0,1-1.37-1.42,4.19,4.19,0,0,1-.5-2,4.09,4.09,0,0,1,.5-2A3.66,3.66,0,0,1,294.89,49.72Z"/><polygon class="cls-1" points="307.99 46.46 304.49 46.46 304.49 59.83 313.65 59.83 313.65 56.86 307.99 56.86 307.99 46.46"/><rect class="cls-1" x="315.23" y="46.46" width="3.49" height="13.38"/><path class="cls-1" d="M329.67,52.47a16.64,16.64,0,0,0-2.3-.8c-.62-.2-1.09-.35-1.41-.47a2.34,2.34,0,0,1-.8-.48,1,1,0,0,1-.33-.73.79.79,0,0,1,.37-.7,1.89,1.89,0,0,1,1-.24,7,7,0,0,1,2,.4,11.76,11.76,0,0,1,2.28,1l1.31-2.78a9.09,9.09,0,0,0-2.48-1.1,10.3,10.3,0,0,0-2.86-.41,7.19,7.19,0,0,0-2.81.51,4.09,4.09,0,0,0-1.87,1.44,3.65,3.65,0,0,0-.66,2.17,3.24,3.24,0,0,0,.64,2.11,4,4,0,0,0,1.53,1.18,18.92,18.92,0,0,0,2.27.78c.62.16,1.09.3,1.43.42a2.86,2.86,0,0,1,.84.49,1,1,0,0,1,.33.76.93.93,0,0,1-.45.84,2.28,2.28,0,0,1-1.23.29,6.55,6.55,0,0,1-2.45-.57,8.49,8.49,0,0,1-2.4-1.47l-1.35,2.73a9.15,9.15,0,0,0,2.85,1.59,9.87,9.87,0,0,0,3.31.58,7.68,7.68,0,0,0,2.74-.47,4.32,4.32,0,0,0,1.94-1.43,3.7,3.7,0,0,0,.7-2.28,3.41,3.41,0,0,0-.64-2.16A4,4,0,0,0,329.67,52.47Z"/><polygon class="cls-1" points="342.54 51.91 337.14 51.91 337.14 46.46 333.65 46.46 333.65 59.83 337.14 59.83 337.14 54.7 342.54 54.7 342.54 59.83 346.03 59.83 346.03 46.46 342.54 46.46 342.54 51.91"/><polygon class="cls-1" points="350.84 61.93 353.7 61.93 359.88 44.38 357.02 44.38 350.84 61.93"/><path class="cls-1" d="M372.22,52.47a16.64,16.64,0,0,0-2.3-.8c-.62-.2-1.09-.35-1.41-.47a2.44,2.44,0,0,1-.8-.48.94.94,0,0,1-.32-.73.77.77,0,0,1,.37-.7,1.88,1.88,0,0,1,1-.24,7,7,0,0,1,2,.4,11.76,11.76,0,0,1,2.28,1l1.32-2.78a9.37,9.37,0,0,0-2.48-1.1,10.42,10.42,0,0,0-2.87-.41,7.22,7.22,0,0,0-2.81.51,4.09,4.09,0,0,0-1.87,1.44,3.65,3.65,0,0,0-.66,2.17,3.24,3.24,0,0,0,.64,2.11,4,4,0,0,0,1.54,1.18,17.76,17.76,0,0,0,2.27.78c.61.16,1.08.3,1.42.42a2.62,2.62,0,0,1,.84.49,1,1,0,0,1,.33.76.93.93,0,0,1-.45.84,2.26,2.26,0,0,1-1.23.29,6.55,6.55,0,0,1-2.45-.57,8.3,8.3,0,0,1-2.39-1.47l-1.36,2.73a9.15,9.15,0,0,0,2.85,1.59,9.88,9.88,0,0,0,3.32.58,7.67,7.67,0,0,0,2.73-.47,4.32,4.32,0,0,0,1.94-1.43,3.71,3.71,0,0,0,.71-2.28,3.41,3.41,0,0,0-.65-2.16A3.85,3.85,0,0,0,372.22,52.47Z"/><polygon class="cls-1" points="379.69 54.53 386.07 54.51 386.07 51.74 379.69 51.74 379.69 49.24 386.75 49.24 386.75 46.46 376.2 46.46 376.2 59.83 386.94 59.83 386.94 57.05 379.69 57.05 379.69 54.53"/><path class="cls-1" d="M400.05,53.75a5.21,5.21,0,0,0,.61-2.6,4.25,4.25,0,0,0-1.46-3.46,6.19,6.19,0,0,0-4.11-1.23h-6V59.83h3.49v-3.7h2.6l1.94,3.7h3.95l-2.78-4.37A4.12,4.12,0,0,0,400.05,53.75Zm-3.29-.94a2.34,2.34,0,0,1-1.65.53h-2.54v-4.1h2.54a2.39,2.39,0,0,1,1.65.53,1.91,1.91,0,0,1,.58,1.5A2,2,0,0,1,396.76,52.81Z"/><path class="cls-1" d="M411.9,52.73a3.07,3.07,0,0,0,1.69-1.06,2.86,2.86,0,0,0,.62-1.84A2.77,2.77,0,0,0,413.6,48a3.8,3.8,0,0,0-1.73-1.17,7.39,7.39,0,0,0-2.62-.41H402.9V59.83h6.6a7.58,7.58,0,0,0,2.73-.45A3.9,3.9,0,0,0,414,58.09a3.25,3.25,0,0,0,.63-2,3.42,3.42,0,0,0-.73-2.21A3.31,3.31,0,0,0,411.9,52.73Zm-5.51-3.54h2.67a1.71,1.71,0,0,1,1.15.31,1.16,1.16,0,0,1,.41.94,1.26,1.26,0,0,1-.41,1,1.77,1.77,0,0,1-1.15.35h-2.67Zm4.12,7.55a2.42,2.42,0,0,1-1.45.38h-2.67v-2.8h2.67a2.42,2.42,0,0,1,1.45.35,1.15,1.15,0,0,1,.53,1A1.22,1.22,0,0,1,410.51,56.74Z"/><rect class="cls-1" x="416.56" y="46.46" width="3.49" height="13.38"/><path class="cls-1" d="M427,46.46l-5.75,13.37h3.59l.93-2.36h5.79l.91,2.36h3.72l-5.61-13.37Zm-.18,8.33L428.69,50l1.84,4.77Z"/><polygon class="cls-1" points="446.56 54.51 440.47 46.46 437.4 46.46 437.4 59.83 440.66 59.83 440.66 51.84 446.73 59.83 449.78 59.83 449.78 46.46 446.54 46.46 446.56 54.51"/><path class="cls-2" d="M87,8a43.38,43.38,0,1,0,43.37,43.37A43.43,43.43,0,0,0,87,8Zm2,29.62a6.24,6.24,0,0,0-3.77-1,14.64,14.64,0,0,0-6,1.5,26,26,0,0,0-6.36,4.19l-4.48-8.63Q77.65,27,87,27a20.77,20.77,0,0,1,8,1.47,13,13,0,0,1,5.57,4.16,10,10,0,0,1,2,6.14,13.61,13.61,0,0,1-2.27,7.13A44.18,44.18,0,0,1,93.9,53.7l-9.15,9.21h19.12v9.4H69.72l-.06-7.74L86,47.82a23.11,23.11,0,0,0,3.13-4,6.81,6.81,0,0,0,1.21-3.39A3.3,3.3,0,0,0,89,37.62Z"/><path class="cls-1" d="M121.46,13.32a51.28,51.28,0,1,0,16.89,38.05A51.22,51.22,0,0,0,121.46,13.32ZM87,94.75a43.38,43.38,0,1,1,43.37-43.38A43.43,43.43,0,0,1,87,94.75Z"/><path class="cls-1" d="M86,47.82,69.66,64.57l.06,7.74h34.15v-9.4H84.75L93.9,53.7a44.18,44.18,0,0,0,6.42-7.83,13.61,13.61,0,0,0,2.27-7.13,10,10,0,0,0-2-6.14A13,13,0,0,0,95,28.44,20.77,20.77,0,0,0,87,27q-9.33,0-18.61,6.72l4.48,8.63a26,26,0,0,1,6.36-4.19,14.64,14.64,0,0,1,6-1.5,6.24,6.24,0,0,1,3.77,1,3.3,3.3,0,0,1,1.34,2.84,6.81,6.81,0,0,1-1.21,3.39A23.11,23.11,0,0,1,86,47.82Z"/><path class="cls-1" d="M570.2,50.78a18.52,18.52,0,0,0-2-.71c-.64-.21-1.15-.38-1.51-.54a2.6,2.6,0,0,1-.92-.63,1.42,1.42,0,0,1-.37-1,1.23,1.23,0,0,1,.62-1.1,3,3,0,0,1,1.65-.4,6,6,0,0,1,1.64.26,7.07,7.07,0,0,1,1.73.79l.68-1.46a7,7,0,0,0-1.83-.84,7.07,7.07,0,0,0-2.1-.31,5.81,5.81,0,0,0-2.21.39,3.38,3.38,0,0,0-1.48,1.12,2.81,2.81,0,0,0-.52,1.68,2.72,2.72,0,0,0,.52,1.75,3.34,3.34,0,0,0,1.26,1,17.87,17.87,0,0,0,1.94.69c.65.2,1.16.37,1.54.53a2.55,2.55,0,0,1,.94.65,1.54,1.54,0,0,1-.31,2.3,3.33,3.33,0,0,1-1.88.47,5.3,5.3,0,0,1-2.07-.45,6.08,6.08,0,0,1-1.91-1.29l-.73,1.41a6.81,6.81,0,0,0,2.14,1.36,6.67,6.67,0,0,0,2.55.51,6,6,0,0,0,2.29-.41,3.59,3.59,0,0,0,1.55-1.18,3,3,0,0,0,.55-1.79,2.81,2.81,0,0,0-.53-1.78A3.54,3.54,0,0,0,570.2,50.78Z"/><polygon class="cls-1" points="576.23 44.95 574.6 44.95 574.6 56.85 581.43 56.85 581.43 55.37 576.23 55.37 576.23 44.95"/><path class="cls-1" d="M591.86,45.65a6.62,6.62,0,0,0-6.31,0,6,6,0,0,0-2.26,2.18,6,6,0,0,0,0,6.12,6,6,0,0,0,2.27,2.21,6.53,6.53,0,0,0,6.3,0A6,6,0,0,0,594.13,54a6,6,0,0,0,0-6.12A6,6,0,0,0,591.86,45.65Zm.82,7.55A4.61,4.61,0,0,1,591,54.87a4.32,4.32,0,0,1-2.28.62,4.45,4.45,0,0,1-2.31-.62,4.67,4.67,0,0,1-1.69-1.67,4.47,4.47,0,0,1-.63-2.32,4.4,4.4,0,0,1,.63-2.3,4.64,4.64,0,0,1,4-2.27,4.5,4.5,0,0,1,2.28.61,4.58,4.58,0,0,1,1.67,1.66,4.48,4.48,0,0,1,.62,2.3A4.55,4.55,0,0,1,592.68,53.2Z"/><polygon class="cls-1" points="601.22 55.03 597.29 44.95 595.54 44.95 600.34 56.85 602.04 56.85 606.87 44.95 605.15 44.95 601.22 55.03"/><polygon class="cls-1" points="610.28 51.58 616.21 51.58 616.21 50.1 610.28 50.1 610.28 46.43 616.91 46.43 616.91 44.95 608.65 44.95 608.65 56.85 617.12 56.85 617.12 55.37 610.28 55.37 610.28 51.58"/><polygon class="cls-1" points="628.22 54.18 621.4 44.95 619.75 44.95 619.75 56.85 621.38 56.85 621.38 47.64 628.18 56.85 629.83 56.85 629.83 44.95 628.22 44.95 628.22 54.18"/><rect class="cls-1" x="633.25" y="44.95" width="1.63" height="11.9"/><path class="cls-1" d="M641.92,45l-5.29,11.9h1.72L639.59,54h6.27l1.26,2.89h1.77L643.62,45Zm-1.68,7.53,2.48-5.78,2.51,5.78Z"/><polygon class="cls-1" points="659.09 54.18 652.27 44.95 650.62 44.95 650.62 56.85 652.25 56.85 652.25 47.64 659.05 56.85 660.7 56.85 660.7 44.95 659.09 44.95 659.09 54.18"/></g></g></svg>