<svg xmlns="http://www.w3.org/2000/svg" viewBox="0 0 719.13 102.75"><defs><style>.cls-1{fill:#fff;}.cls-2{fill:#48626b;}.cls-3{fill:#3b5158;}</style></defs><title>Mobi-1</title><g id="Layer_2" data-name="Layer 2"><g id="Layer_1-2" data-name="Layer 1"><polygon class="cls-1" points="321.22 13.02 307.8 13.02 339.44 50.06 307.8 87.09 321.22 87.09 352.87 50.06 321.22 13.02"/><polygon class="cls-2" points="321.22 13.02 352.87 50.06 321.22 87.09 719.13 87.09 719.13 13.02 321.22 13.02"/><polygon class="cls-3" points="307.8 13.02 0 13.02 0 87.09 307.8 87.09 339.44 50.06 307.8 13.02"/><path class="cls-2" d="M87,8a43.37,43.37,0,1,0,43.37,43.37A43.42,43.42,0,0,0,87,8Z"/><path class="cls-1" d="M87,0a51.37,51.37,0,1,0,51.37,51.37A51.43,51.43,0,0,0,87,0Zm0,94.75a43.37,43.37,0,1,1,43.37-43.37A43.42,43.42,0,0,1,87,94.75Z"/><path class="cls-1" d="M73.42,30.8H93.75V75.63H82.05V40.39H73.42Z"/><path class="cls-1" d="M169.51,46.1a6.7,6.7,0,0,0-2-.4,1.88,1.88,0,0,0-1,.24.78.78,0,0,0-.37.7,1,1,0,0,0,.32.73,2.47,2.47,0,0,0,.8.48q.48.18,1.41.47a18.4,18.4,0,0,1,2.3.8,4,4,0,0,1,1.55,1.23,3.41,3.41,0,0,1,.65,2.17,3.71,3.71,0,0,1-.71,2.28,4.28,4.28,0,0,1-1.94,1.42,7.51,7.51,0,0,1-2.74.48,9.91,9.91,0,0,1-3.31-.58,9,9,0,0,1-2.85-1.59l1.35-2.73a8.42,8.42,0,0,0,2.39,1.47,6.56,6.56,0,0,0,2.45.57,2.28,2.28,0,0,0,1.23-.29.93.93,0,0,0,.45-.84,1,1,0,0,0-.33-.76,2.47,2.47,0,0,0-.84-.49q-.51-.18-1.42-.43a17.46,17.46,0,0,1-2.27-.77,4,4,0,0,1-1.54-1.18,3.26,3.26,0,0,1-.64-2.11,3.68,3.68,0,0,1,.66-2.17,4.19,4.19,0,0,1,1.87-1.44,7.26,7.26,0,0,1,2.81-.5,10.21,10.21,0,0,1,2.86.41,9.42,9.42,0,0,1,2.48,1.1l-1.32,2.79A11.77,11.77,0,0,0,169.51,46.1Z"/><path class="cls-1" d="M174.9,43.1h3.49V53.5h5.67v3H174.9Z"/><path class="cls-1" d="M195.71,43.79a6.65,6.65,0,0,1,3.54,6,6.77,6.77,0,0,1-3.54,6,7.94,7.94,0,0,1-7.38,0,6.72,6.72,0,0,1-2.59-2.5,6.84,6.84,0,0,1-.95-3.56,6.65,6.65,0,0,1,3.54-6,8,8,0,0,1,7.38,0Zm-5.5,2.58a3.71,3.71,0,0,0-1.35,1.42,4.26,4.26,0,0,0,0,4,3.88,3.88,0,0,0,1.34,1.43,3.39,3.39,0,0,0,1.83.53,3.34,3.34,0,0,0,1.82-.53,3.69,3.69,0,0,0,1.31-1.43,4.45,4.45,0,0,0,0-4,3.62,3.62,0,0,0-1.31-1.42,3.39,3.39,0,0,0-1.82-.52A3.48,3.48,0,0,0,190.21,46.37Z"/><path class="cls-1" d="M199.46,43.1h3.76l3.34,9.67,3.36-9.67h3.59l-5.23,13.38h-3.63Z"/><path class="cls-1" d="M214.76,43.1h10.55v2.79h-7.06v2.5h6.37v2.77l-6.37,0v2.52h7.25v2.79H214.76Z"/><path class="cls-1" d="M236.78,43.1H240V56.48H237l-6.07-8v8h-3.26V43.1h3.07l6.09,8.05Z"/><path class="cls-1" d="M249.58,46.1a6.7,6.7,0,0,0-2-.4,1.88,1.88,0,0,0-1,.24.78.78,0,0,0-.37.7,1,1,0,0,0,.32.73,2.47,2.47,0,0,0,.8.48q.48.18,1.41.47a18.4,18.4,0,0,1,2.3.8,4,4,0,0,1,1.55,1.23,3.41,3.41,0,0,1,.65,2.17,3.71,3.71,0,0,1-.71,2.28,4.28,4.28,0,0,1-1.94,1.42,7.51,7.51,0,0,1-2.74.48,9.91,9.91,0,0,1-3.31-.58,9,9,0,0,1-2.85-1.59L243,51.79a8.42,8.42,0,0,0,2.39,1.47,6.56,6.56,0,0,0,2.45.57,2.28,2.28,0,0,0,1.23-.29.93.93,0,0,0,.45-.84,1,1,0,0,0-.33-.76,2.47,2.47,0,0,0-.84-.49q-.51-.18-1.42-.43a17.46,17.46,0,0,1-2.27-.77,4,4,0,0,1-1.54-1.18,3.26,3.26,0,0,1-.64-2.11,3.68,3.68,0,0,1,.66-2.17A4.19,4.19,0,0,1,245,43.34a7.26,7.26,0,0,1,2.81-.5,10.21,10.21,0,0,1,2.86.41,9.42,9.42,0,0,1,2.48,1.1l-1.32,2.79A11.77,11.77,0,0,0,249.58,46.1Zm-.81-7h2.44L249.13,42h-3l-2.08-2.92h2.44l1.13,1.28Z"/><path class="cls-1" d="M263.1,46.34a3.7,3.7,0,0,0-1.77-.49,3.47,3.47,0,0,0-1.84.51,3.58,3.58,0,0,0-1.31,1.39,4.32,4.32,0,0,0,0,4,3.57,3.57,0,0,0,1.31,1.39,3.47,3.47,0,0,0,1.84.5,4.05,4.05,0,0,0,1.72-.42,5.46,5.46,0,0,0,1.6-1.15l2,2.19A8.17,8.17,0,0,1,264.1,56a7.18,7.18,0,0,1-6.55-.24,6.69,6.69,0,0,1-2.52-2.5,7,7,0,0,1-.92-3.55,6.67,6.67,0,0,1,3.5-6,7.6,7.6,0,0,1,6.59-.28,7.29,7.29,0,0,1,2.46,1.69l-2,2.44A5,5,0,0,0,263.1,46.34Zm-.78-7.22h2.44L262.68,42h-3l-2.08-2.92H260l1.13,1.28Z"/><path class="cls-1" d="M268.17,43.1h3.49V56.48h-3.49Z"/><path class="cls-1" d="M283.4,43.1h3.24V56.48h-3.05l-6.07-8v8h-3.26V43.1h3.07l6.09,8.05Z"/><path class="cls-1" d="M299.08,56.48l-.92-2.37h-5.78l-.93,2.37h-3.59l5.74-13.38h3.59l5.61,13.38Zm-5.65-5h3.7l-1.83-4.77Z"/><path class="cls-1" d="M386.29,45.9a4.58,4.58,0,0,0-5.83,1.87,4.57,4.57,0,0,0,4,6.88,4.64,4.64,0,0,0,1.84-.38,5.32,5.32,0,0,0,1.6-1l1,1.07a6.64,6.64,0,0,1-2.09,1.38,6.24,6.24,0,0,1-5.52-.31,6,6,0,0,1-3-5.28A5.86,5.86,0,0,1,379,47a6,6,0,0,1,2.25-2.18,6.34,6.34,0,0,1,3.15-.8,6.4,6.4,0,0,1,2.41.47,6,6,0,0,1,2,1.32l-1,1.17A4.93,4.93,0,0,0,386.29,45.9Zm-1-5.13h1.58L385.11,43h-1.67l-1.79-2.26h1.58l1,1.14Z"/><path class="cls-1" d="M391.13,44.15h8.26v1.48h-6.63V49.3h5.93v1.48h-5.93v3.79h6.83v1.48h-8.47Z"/><path class="cls-1" d="M407.46,45.84a5.87,5.87,0,0,0-1.64-.26,3,3,0,0,0-1.66.4,1.24,1.24,0,0,0-.62,1.1,1.45,1.45,0,0,0,.37,1,2.65,2.65,0,0,0,.92.63q.54.23,1.51.54a17.23,17.23,0,0,1,2,.71,3.4,3.4,0,0,1,1.28,1,2.8,2.8,0,0,1,.53,1.78,3,3,0,0,1-.55,1.79A3.54,3.54,0,0,1,408,55.74a5.89,5.89,0,0,1-2.29.42,6.65,6.65,0,0,1-2.55-.51A6.91,6.91,0,0,1,401,54.29l.73-1.41a6.14,6.14,0,0,0,1.91,1.28,5.26,5.26,0,0,0,2.07.45,3.3,3.3,0,0,0,1.88-.47,1.56,1.56,0,0,0,.31-2.3,2.63,2.63,0,0,0-.94-.65,16.18,16.18,0,0,0-1.54-.53,15.78,15.78,0,0,1-1.94-.7,3.35,3.35,0,0,1-1.27-1,2.76,2.76,0,0,1-.52-1.75,2.81,2.81,0,0,1,.53-1.68,3.34,3.34,0,0,1,1.48-1.12,5.78,5.78,0,0,1,2.21-.39,7.17,7.17,0,0,1,2.1.31,7,7,0,0,1,1.83.84l-.68,1.46A6.89,6.89,0,0,0,407.46,45.84Zm-1-5.07h1.58L406.28,43h-1.67l-1.79-2.26h1.58l1,1.14Z"/><path class="cls-1" d="M419.74,45.9a4.58,4.58,0,0,0-5.83,1.87,4.57,4.57,0,0,0,4,6.88,4.64,4.64,0,0,0,1.84-.38,5.32,5.32,0,0,0,1.6-1l1,1.07a6.64,6.64,0,0,1-2.09,1.38,6.24,6.24,0,0,1-5.52-.31,6,6,0,0,1-3-5.28,5.86,5.86,0,0,1,.82-3.05,6,6,0,0,1,2.25-2.18,6.34,6.34,0,0,1,3.15-.8,6.4,6.4,0,0,1,2.41.47,6,6,0,0,1,2,1.32l-1,1.17A4.93,4.93,0,0,0,419.74,45.9Zm-1-5.13h1.58L418.57,43H416.9l-1.79-2.26h1.58l1,1.14Z"/><path class="cls-1" d="M424.59,44.15h1.63v11.9h-1.63Z"/><path class="cls-1" d="M438.08,44.15h1.62v11.9H438l-6.8-9.21v9.21h-1.63V44.15h1.65l6.82,9.23Z"/><path class="cls-1" d="M452,56.05l-1.26-2.89h-6.27l-1.24,2.89h-1.72l5.29-11.9h1.7l5.27,11.9Zm-6.88-4.37h5l-2.52-5.78Z"/><path class="cls-1" d="M463.46,42.13h1.38l-5.35,16h-1.36Z"/><path class="cls-1" d="M479,56.05l-1.26-2.89h-6.27l-1.24,2.89h-1.72l5.29-11.9h1.7l5.27,11.9Zm-6.88-4.37h5l-2.52-5.78Z"/><path class="cls-1" d="M491,44.15h1.62v11.9H491l-6.8-9.21v9.21h-1.63V44.15h1.65L491,53.38Z"/><path class="cls-1" d="M504.26,50.24h1.45v4.37a7.58,7.58,0,0,1-4.5,1.56,6.28,6.28,0,0,1-3.15-.81A6,6,0,0,1,495,50.09a5.82,5.82,0,0,1,.83-3.05,6,6,0,0,1,2.28-2.18,6.5,6.5,0,0,1,3.2-.8,6.86,6.86,0,0,1,2.42.44,6.48,6.48,0,0,1,2,1.21l-.93,1.19a5.2,5.2,0,0,0-1.64-1,5.12,5.12,0,0,0-1.9-.37,4.65,4.65,0,0,0-2.35.61,4.55,4.55,0,0,0-1.69,1.67,4.61,4.61,0,0,0,0,4.63,4.65,4.65,0,0,0,1.7,1.68,4.59,4.59,0,0,0,2.35.62,5,5,0,0,0,1.52-.25,5.66,5.66,0,0,0,1.44-.69Z"/><path class="cls-1" d="M508.8,44.15h1.63V54.57h5.2v1.48H508.8Z"/><path class="cls-1" d="M517.71,44.15H526v1.48h-6.63V49.3h5.93v1.48h-5.93v3.79h6.83v1.48h-8.47Z"/><path class="cls-1" d="M534,45.84a5.87,5.87,0,0,0-1.64-.26,3,3,0,0,0-1.66.4,1.24,1.24,0,0,0-.62,1.1,1.45,1.45,0,0,0,.37,1,2.65,2.65,0,0,0,.92.63q.54.23,1.51.54a17.23,17.23,0,0,1,2,.71,3.4,3.4,0,0,1,1.28,1,2.8,2.8,0,0,1,.53,1.78,3,3,0,0,1-.55,1.79,3.54,3.54,0,0,1-1.55,1.18,5.89,5.89,0,0,1-2.29.42,6.65,6.65,0,0,1-2.55-.51,6.91,6.91,0,0,1-2.14-1.36l.73-1.41a6.14,6.14,0,0,0,1.91,1.28,5.26,5.26,0,0,0,2.07.45,3.3,3.3,0,0,0,1.88-.47,1.56,1.56,0,0,0,.31-2.3,2.63,2.63,0,0,0-.94-.65,16.18,16.18,0,0,0-1.54-.53,15.78,15.78,0,0,1-1.94-.7,3.35,3.35,0,0,1-1.27-1,2.76,2.76,0,0,1-.52-1.75,2.81,2.81,0,0,1,.53-1.68,3.34,3.34,0,0,1,1.48-1.12,5.78,5.78,0,0,1,2.21-.39,7.17,7.17,0,0,1,2.1.31,7,7,0,0,1,1.83.84l-.68,1.46A6.89,6.89,0,0,0,534,45.84Zm-1-5.07h1.58L532.86,43h-1.67l-1.79-2.26H531l1,1.14Z"/><path class="cls-1" d="M546.32,45.9a4.58,4.58,0,0,0-5.83,1.87,4.57,4.57,0,0,0,4,6.88,4.64,4.64,0,0,0,1.84-.38,5.32,5.32,0,0,0,1.6-1l1,1.07a6.64,6.64,0,0,1-2.09,1.38,6.24,6.24,0,0,1-5.52-.31,6,6,0,0,1-3-5.28,5.86,5.86,0,0,1,.82-3.05,6,6,0,0,1,2.25-2.18,6.34,6.34,0,0,1,3.15-.8,6.4,6.4,0,0,1,2.41.47,6,6,0,0,1,2,1.32l-1,1.17A4.93,4.93,0,0,0,546.32,45.9Zm-1-5.13h1.58L545.15,43h-1.67l-1.79-2.26h1.58l1,1.14Z"/><path class="cls-1" d="M551.17,44.15h1.63v11.9h-1.63Z"/><path class="cls-1" d="M564.66,44.15h1.62v11.9h-1.65l-6.8-9.21v9.21H556.2V44.15h1.65l6.82,9.23Z"/><path class="cls-1" d="M578.54,56.05l-1.26-2.89H571l-1.24,2.89H568l5.29-11.9H575l5.27,11.9Zm-6.88-4.37h5l-2.52-5.78Z"/><path class="cls-1" d="M590,42.13h1.38l-5.35,16h-1.36Z"/><path class="cls-1" d="M602,45.84a5.87,5.87,0,0,0-1.64-.26,3,3,0,0,0-1.66.4,1.24,1.24,0,0,0-.62,1.1,1.45,1.45,0,0,0,.37,1,2.65,2.65,0,0,0,.92.63q.54.23,1.51.54a17.23,17.23,0,0,1,2,.71,3.4,3.4,0,0,1,1.28,1,2.8,2.8,0,0,1,.53,1.78,3,3,0,0,1-.55,1.79,3.54,3.54,0,0,1-1.55,1.18,5.89,5.89,0,0,1-2.29.42,6.65,6.65,0,0,1-2.55-.51,6.91,6.91,0,0,1-2.14-1.36l.73-1.41a6.14,6.14,0,0,0,1.91,1.28,5.26,5.26,0,0,0,2.07.45,3.3,3.3,0,0,0,1.88-.47,1.56,1.56,0,0,0,.31-2.3,2.63,2.63,0,0,0-.94-.65,16.18,16.18,0,0,0-1.54-.53,15.78,15.78,0,0,1-1.94-.7,3.35,3.35,0,0,1-1.27-1,2.76,2.76,0,0,1-.52-1.75,2.81,2.81,0,0,1,.53-1.68,3.34,3.34,0,0,1,1.48-1.12,5.78,5.78,0,0,1,2.21-.39,7.17,7.17,0,0,1,2.1.31,7,7,0,0,1,1.83.84l-.68,1.46A6.89,6.89,0,0,0,602,45.84Z"/><path class="cls-1" d="M614.93,56.05l-2.36-3.74-.66,0h-3v3.71h-1.63V44.15h4.66a5.25,5.25,0,0,1,3.49,1,3.68,3.68,0,0,1,1.23,3A4.21,4.21,0,0,1,616,50.6,3.76,3.76,0,0,1,614,52l2.77,4Zm-3-5.18a3.6,3.6,0,0,0,2.35-.67,2.41,2.41,0,0,0,.82-2,2.33,2.33,0,0,0-.82-1.93,3.67,3.67,0,0,0-2.35-.65h-3v5.24Z"/><path class="cls-1" d="M627.49,44.94a2.59,2.59,0,0,1,1,2.18,2.64,2.64,0,0,1-.58,1.73,2.82,2.82,0,0,1-1.58.94,3.1,3.1,0,0,1,1.95,1,3,3,0,0,1,.71,2,2.81,2.81,0,0,1-1.15,2.39,5.19,5.19,0,0,1-3.17.86h-5.17V44.15h5.08A4.65,4.65,0,0,1,627.49,44.94Zm-1.24,3.79a1.59,1.59,0,0,0,.6-1.33,1.55,1.55,0,0,0-.6-1.31,2.71,2.71,0,0,0-1.71-.44h-3.37V49.2h3.37A2.74,2.74,0,0,0,626.25,48.73Zm.37,5.32a1.67,1.67,0,0,0,.75-1.45,1.62,1.62,0,0,0-.75-1.41,3.65,3.65,0,0,0-2.07-.51h-3.37v3.88h3.37A3.51,3.51,0,0,0,626.61,54.06Z"/><path class="cls-1" d="M636.87,45.84a5.87,5.87,0,0,0-1.64-.26,3,3,0,0,0-1.66.4,1.24,1.24,0,0,0-.62,1.1,1.45,1.45,0,0,0,.37,1,2.65,2.65,0,0,0,.92.63q.54.23,1.51.54a17.23,17.23,0,0,1,2,.71A3.4,3.4,0,0,1,639,51a2.8,2.8,0,0,1,.53,1.78,3,3,0,0,1-.55,1.79,3.54,3.54,0,0,1-1.55,1.18,5.89,5.89,0,0,1-2.29.42,6.65,6.65,0,0,1-2.55-.51,6.91,6.91,0,0,1-2.14-1.36l.73-1.41a6.14,6.14,0,0,0,1.91,1.28,5.26,5.26,0,0,0,2.07.45,3.3,3.3,0,0,0,1.88-.47,1.56,1.56,0,0,0,.31-2.3,2.63,2.63,0,0,0-.94-.65,16.18,16.18,0,0,0-1.54-.53,15.78,15.78,0,0,1-1.94-.7,3.35,3.35,0,0,1-1.27-1,2.76,2.76,0,0,1-.52-1.75,2.81,2.81,0,0,1,.53-1.68,3.34,3.34,0,0,1,1.48-1.12,5.78,5.78,0,0,1,2.21-.39,7.17,7.17,0,0,1,2.1.31,7,7,0,0,1,1.83.84l-.68,1.46A6.89,6.89,0,0,0,636.87,45.84Zm-1-5.07h1.58L635.69,43H634l-1.79-2.26h1.58l1,1.14Z"/><path class="cls-1" d="M649.15,45.9a4.58,4.58,0,0,0-5.83,1.87,4.57,4.57,0,0,0,4,6.88,4.64,4.64,0,0,0,1.84-.38,5.32,5.32,0,0,0,1.6-1l1,1.07a6.64,6.64,0,0,1-2.09,1.38,6.24,6.24,0,0,1-5.52-.31,6,6,0,0,1-3-5.28,5.86,5.86,0,0,1,.82-3.05,6,6,0,0,1,2.25-2.18,6.34,6.34,0,0,1,3.15-.8,6.4,6.4,0,0,1,2.41.47,6,6,0,0,1,2,1.32l-1,1.17A4.93,4.93,0,0,0,649.15,45.9Zm-1-5.13h1.58L648,43h-1.67l-1.79-2.26h1.58l1,1.14Z"/><path class="cls-1" d="M654,44.15h1.63v11.9H654Z"/><path class="cls-1" d="M667.5,44.15h1.62v11.9h-1.65l-6.8-9.21v9.21H659V44.15h1.65l6.82,9.23Z"/><path class="cls-1" d="M681.37,56.05l-1.26-2.89h-6.27l-1.24,2.89h-1.72l5.29-11.9h1.7l5.27,11.9Zm-6.88-4.37h5L677,45.9Z"/></g></g></svg>