<svg xmlns="http://www.w3.org/2000/svg" viewBox="0 0 717.15 102.75"><defs><style>.cls-1{fill:#fff;}.cls-2{fill:#4b88a2;}.cls-3{fill:#3e7085;}</style></defs><title>3_mobi-ang</title><g id="Layer_2" data-name="Layer 2"><g id="Layer_1-2" data-name="Layer 1"><polygon class="cls-1" points="410.21 13.03 395.35 13.03 426.99 50.06 395.35 87.09 410.21 87.09 441.86 50.06 410.21 13.03"/><path class="cls-2" d="M516,46.63a4.44,4.44,0,0,0-2.29-.61,4.53,4.53,0,0,0-2.3.61,4.64,4.64,0,0,0-1.69,1.66,4.35,4.35,0,0,0-.63,2.3,4.41,4.41,0,0,0,.63,2.31,4.77,4.77,0,0,0,1.69,1.68,4.54,4.54,0,0,0,2.3.62,4.45,4.45,0,0,0,2.29-.62,4.69,4.69,0,0,0,1.66-1.68,4.41,4.41,0,0,0,.63-2.31,4.35,4.35,0,0,0-.63-2.3A4.56,4.56,0,0,0,516,46.63Z"/><path class="cls-2" d="M410.21,13l31.65,37-31.65,37H717.15V13Zm86.23,42a3.56,3.56,0,0,1-1.54,1.18,5.88,5.88,0,0,1-2.29.42,6.67,6.67,0,0,1-2.55-.51,6.81,6.81,0,0,1-2.14-1.36l.73-1.41a6.11,6.11,0,0,0,1.91,1.28,5.3,5.3,0,0,0,2.07.45,3.22,3.22,0,0,0,1.87-.47,1.45,1.45,0,0,0,.69-1.26,1.47,1.47,0,0,0-.37-1,2.72,2.72,0,0,0-.95-.65c-.38-.15-.89-.33-1.53-.52a15.19,15.19,0,0,1-1.94-.7,3.43,3.43,0,0,1-1.27-1,2.8,2.8,0,0,1-.52-1.75,2.83,2.83,0,0,1,.53-1.69,3.34,3.34,0,0,1,1.48-1.12,5.78,5.78,0,0,1,2.21-.39,7.52,7.52,0,0,1,2.1.31,7.33,7.33,0,0,1,1.83.85l-.68,1.46a6.72,6.72,0,0,0-1.73-.79,5.66,5.66,0,0,0-1.64-.27,3.11,3.11,0,0,0-1.66.4,1.26,1.26,0,0,0-.62,1.1,1.45,1.45,0,0,0,.38,1,2.7,2.7,0,0,0,.91.63c.37.15.87.33,1.52.53a16.75,16.75,0,0,1,1.95.72,3.29,3.29,0,0,1,1.28,1,2.81,2.81,0,0,1,.52,1.78A2.94,2.94,0,0,1,496.44,55.06Zm10,1.5H499.6V44.66h1.63V55.08h5.2Zm12.7-2.9a6.1,6.1,0,0,1-2.27,2.21,6.55,6.55,0,0,1-6.31,0,6.1,6.1,0,0,1-2.27-2.21,6,6,0,0,1-.83-3.07,5.84,5.84,0,0,1,.83-3.05,6.09,6.09,0,0,1,2.26-2.19,6.64,6.64,0,0,1,6.32,0,6,6,0,0,1,2.27,2.19,5.84,5.84,0,0,1,.83,3.05A6,6,0,0,1,519.13,53.66Zm7.9,2.9h-1.7l-4.79-11.9h1.75l3.93,10.08,3.93-10.08h1.71Zm15.08,0h-8.46V44.66h8.26v1.48h-6.63v3.67h5.93v1.48h-5.93v3.79h6.83Zm12.72,0h-1.65l-6.8-9.22v9.22h-1.63V44.66h1.65l6.81,9.23V44.66h1.62Zm5,0h-1.63V44.66h1.63Zm12.24,0-1.26-2.89h-6.27l-1.25,2.89h-1.71l5.28-11.9h1.7l5.27,11.9Zm13.58,0h-1.65l-6.8-9.22v9.22h-1.63V44.66h1.65l6.81,9.23V44.66h1.62Z"/><polygon class="cls-2" points="565.23 52.19 570.23 52.19 567.71 46.41 565.23 52.19"/><path class="cls-3" d="M300.57,47.3a3.41,3.41,0,0,0-1.82-.52,3.51,3.51,0,0,0-1.84.52,3.69,3.69,0,0,0-1.35,1.42,4.31,4.31,0,0,0,0,4,4,4,0,0,0,1.35,1.43,3.38,3.38,0,0,0,1.83.52,3.33,3.33,0,0,0,1.82-.52,3.69,3.69,0,0,0,1.31-1.43,4.27,4.27,0,0,0,.48-2,4.21,4.21,0,0,0-.48-2A3.59,3.59,0,0,0,300.57,47.3Z"/><polygon class="cls-3" points="324.58 52.38 328.29 52.38 326.46 47.6 324.58 52.38"/><path class="cls-3" d="M187.28,46.82h-2.22v4.1h2.22a2.34,2.34,0,0,0,1.65-.53,2,2,0,0,0,.58-1.55,1.93,1.93,0,0,0-.58-1.49A2.39,2.39,0,0,0,187.28,46.82Z"/><path class="cls-3" d="M202.78,47.3a3.41,3.41,0,0,0-1.82-.52,3.51,3.51,0,0,0-1.84.52,3.69,3.69,0,0,0-1.35,1.42,4.11,4.11,0,0,0-.5,2,4.07,4.07,0,0,0,.51,2,4,4,0,0,0,1.35,1.43,3.38,3.38,0,0,0,1.83.52,3.33,3.33,0,0,0,1.82-.52,3.77,3.77,0,0,0,1.31-1.43,4.39,4.39,0,0,0,.47-2,4.32,4.32,0,0,0-.47-2A3.67,3.67,0,0,0,202.78,47.3Z"/><path class="cls-3" d="M52.84,13H0V87.09H50.1A51.26,51.26,0,0,1,52.84,13Z"/><path class="cls-3" d="M395.35,13H121.11a51.26,51.26,0,0,1,2.74,74.07h271.5l31.64-37ZM191.42,52.4a5.64,5.64,0,0,1-4,1.31h-2.39v3.7h-3.49V44h5.88a5.86,5.86,0,0,1,4,1.23,4.34,4.34,0,0,1,1.41,3.46A4.75,4.75,0,0,1,191.42,52.4Zm15.79,1.84a6.79,6.79,0,0,1-2.6,2.5,7.9,7.9,0,0,1-7.38,0,6.65,6.65,0,0,1-2.6-2.5,6.8,6.8,0,0,1-.94-3.55,6.7,6.7,0,0,1,.94-3.52,6.77,6.77,0,0,1,2.6-2.46,8.09,8.09,0,0,1,7.38,0,6.77,6.77,0,0,1,2.6,2.46,7.1,7.1,0,0,1,0,7.06Zm11.84,3.17h-9.16V44h3.49v10.4h5.67Zm5.07,0h-3.49V44h3.49Zm12.44-1.69a4.2,4.2,0,0,1-1.93,1.42,7.51,7.51,0,0,1-2.74.48,9.83,9.83,0,0,1-3.31-.58,9.15,9.15,0,0,1-2.85-1.59l1.35-2.73a8.3,8.3,0,0,0,2.39,1.47,6.6,6.6,0,0,0,2.46.57,2.28,2.28,0,0,0,1.23-.29.93.93,0,0,0,.45-.84,1,1,0,0,0-.34-.76,2.45,2.45,0,0,0-.84-.49c-.33-.12-.81-.26-1.42-.42a18.32,18.32,0,0,1-2.27-.78A4,4,0,0,1,227.2,50a3.3,3.3,0,0,1-.64-2.11,3.7,3.7,0,0,1,.66-2.18,4.23,4.23,0,0,1,1.87-1.44,7.43,7.43,0,0,1,2.82-.5,10.35,10.35,0,0,1,2.86.41,9.23,9.23,0,0,1,2.48,1.1l-1.32,2.78a11.76,11.76,0,0,0-2.28-1,6.55,6.55,0,0,0-2-.4,1.88,1.88,0,0,0-1,.24.77.77,0,0,0-.37.7,1,1,0,0,0,.32.73,2.54,2.54,0,0,0,.8.48c.32.12.79.27,1.42.47a16.94,16.94,0,0,1,2.29.8,3.85,3.85,0,0,1,1.56,1.23,3.41,3.41,0,0,1,.65,2.16A3.71,3.71,0,0,1,236.56,55.72Zm14.87,1.69h-3.49V52.28h-5.41v5.13H239V44h3.49v5.45h5.41V44h3.49Zm7.67,2.1h-2.87L262.42,42h2.86Zm20-3.79a4.2,4.2,0,0,1-1.93,1.42,7.51,7.51,0,0,1-2.74.48,9.83,9.83,0,0,1-3.31-.58,9.15,9.15,0,0,1-2.85-1.59l1.35-2.73A8.3,8.3,0,0,0,272,54.19a6.6,6.6,0,0,0,2.46.57,2.28,2.28,0,0,0,1.23-.29.93.93,0,0,0,.45-.84,1,1,0,0,0-.34-.76,2.45,2.45,0,0,0-.84-.49c-.33-.12-.81-.26-1.42-.42a18.92,18.92,0,0,1-2.27-.78A4,4,0,0,1,269.75,50a3.3,3.3,0,0,1-.64-2.11,3.7,3.7,0,0,1,.66-2.18,4.28,4.28,0,0,1,1.87-1.44,7.43,7.43,0,0,1,2.82-.5,10.35,10.35,0,0,1,2.86.41,9.23,9.23,0,0,1,2.48,1.1l-1.32,2.78a11.76,11.76,0,0,0-2.28-1,6.55,6.55,0,0,0-2-.4,1.88,1.88,0,0,0-1,.24.77.77,0,0,0-.37.7,1,1,0,0,0,.32.73,2.54,2.54,0,0,0,.8.48c.32.12.79.27,1.42.47a17.13,17.13,0,0,1,2.3.8,3.89,3.89,0,0,1,1.55,1.23,3.41,3.41,0,0,1,.65,2.16A3.71,3.71,0,0,1,279.11,55.72Zm11.64,1.69H281.6V44h3.49v10.4h5.66ZM305,54.24a6.79,6.79,0,0,1-2.6,2.5,7.9,7.9,0,0,1-7.38,0,6.65,6.65,0,0,1-2.6-2.5,6.8,6.8,0,0,1-.94-3.55,6.7,6.7,0,0,1,.94-3.52,6.77,6.77,0,0,1,2.6-2.46,8.09,8.09,0,0,1,7.38,0,6.77,6.77,0,0,1,2.6,2.46,7.1,7.1,0,0,1,0,7.06Zm6.34,3.17L306.15,44h3.76l3.34,9.67L316.61,44h3.59L315,57.41Zm18.89,0-.91-2.36h-5.78l-.94,2.36H319L324.76,44h3.58L334,57.41Zm13.61,0-3.51-5.19-1.68,1.87v3.32h-3.49V44h3.49v5.8l5-5.8h4l-5,5.51L348,57.41Z"/><path class="cls-2" d="M87,8a43.38,43.38,0,1,0,43.37,43.37A43.43,43.43,0,0,0,87,8Zm3.73,47.53A9.9,9.9,0,0,0,85,54.12H77.41V47.73l10.36-10H70.63V28.8H102v6.78L89.75,46.77l2.36.45a15.05,15.05,0,0,1,8.73,4,11.1,11.1,0,0,1,3.29,8.29,13.34,13.34,0,0,1-2.23,7.61,14.91,14.91,0,0,1-6.33,5.18A23.19,23.19,0,0,1,86,74.14a32,32,0,0,1-9.68-1.5,26,26,0,0,1-8-4l4.35-8.25a20.67,20.67,0,0,0,6,3.58A17.89,17.89,0,0,0,85,65.19a9.6,9.6,0,0,0,5.69-1.44,4.8,4.8,0,0,0,2-4.13A4.7,4.7,0,0,0,90.71,55.53Z"/><path class="cls-1" d="M121.11,13a51.26,51.26,0,1,0,17.24,38.35A51.16,51.16,0,0,0,121.11,13ZM87,94.75a43.38,43.38,0,1,1,43.37-43.38A43.43,43.43,0,0,1,87,94.75Z"/><path class="cls-1" d="M90.71,63.75A9.6,9.6,0,0,1,85,65.19,17.89,17.89,0,0,1,78.62,64a20.67,20.67,0,0,1-6-3.58l-4.35,8.25a26,26,0,0,0,8,4A32,32,0,0,0,86,74.14a23.19,23.19,0,0,0,9.6-1.85,14.91,14.91,0,0,0,6.33-5.18,13.34,13.34,0,0,0,2.23-7.61,11.1,11.1,0,0,0-3.29-8.29,15.05,15.05,0,0,0-8.73-4l-2.36-.45L102,35.58V28.8H70.63v9H87.77l-10.36,10v6.39H85a9.9,9.9,0,0,1,5.76,1.41,4.7,4.7,0,0,1,2,4.09A4.8,4.8,0,0,1,90.71,63.75Z"/><path class="cls-1" d="M187.45,44h-5.88V57.41h3.49v-3.7h2.39a5.64,5.64,0,0,0,4-1.31,4.75,4.75,0,0,0,1.41-3.67,4.34,4.34,0,0,0-1.41-3.46A5.86,5.86,0,0,0,187.45,44Zm1.48,6.35a2.34,2.34,0,0,1-1.65.53h-2.22v-4.1h2.22a2.39,2.39,0,0,1,1.65.53,1.93,1.93,0,0,1,.58,1.49A2,2,0,0,1,188.93,50.39Z"/><path class="cls-1" d="M204.61,44.72a8.09,8.09,0,0,0-7.38,0,6.77,6.77,0,0,0-2.6,2.46,6.7,6.7,0,0,0-.94,3.52,6.8,6.8,0,0,0,.94,3.55,6.65,6.65,0,0,0,2.6,2.5,7.9,7.9,0,0,0,7.38,0,6.75,6.75,0,0,0,3.54-6,6.7,6.7,0,0,0-.94-3.52A6.77,6.77,0,0,0,204.61,44.72Zm-.52,8a3.77,3.77,0,0,1-1.31,1.43,3.33,3.33,0,0,1-1.82.52,3.38,3.38,0,0,1-1.83-.52,4,4,0,0,1-1.35-1.43,4.07,4.07,0,0,1-.51-2,4.11,4.11,0,0,1,.5-2,3.69,3.69,0,0,1,1.35-1.42,3.51,3.51,0,0,1,1.84-.52,3.41,3.41,0,0,1,1.82.52,3.67,3.67,0,0,1,1.31,1.42,4.32,4.32,0,0,1,.47,2A4.39,4.39,0,0,1,204.09,52.73Z"/><polygon class="cls-1" points="213.38 44.04 209.89 44.04 209.89 57.41 219.05 57.41 219.05 54.44 213.38 54.44 213.38 44.04"/><rect class="cls-1" x="220.63" y="44.04" width="3.49" height="13.38"/><path class="cls-1" d="M235.06,50.05a16.94,16.94,0,0,0-2.29-.8c-.63-.2-1.1-.35-1.42-.47a2.54,2.54,0,0,1-.8-.48,1,1,0,0,1-.32-.73.77.77,0,0,1,.37-.7,1.88,1.88,0,0,1,1-.24,6.55,6.55,0,0,1,2,.4,11.76,11.76,0,0,1,2.28,1l1.32-2.78a9.23,9.23,0,0,0-2.48-1.1,10.35,10.35,0,0,0-2.86-.41,7.43,7.43,0,0,0-2.82.5,4.23,4.23,0,0,0-1.87,1.44,3.7,3.7,0,0,0-.66,2.18A3.3,3.3,0,0,0,227.2,50a4,4,0,0,0,1.54,1.18A18.32,18.32,0,0,0,231,52c.61.16,1.09.3,1.42.42a2.45,2.45,0,0,1,.84.49,1,1,0,0,1,.34.76.93.93,0,0,1-.45.84,2.28,2.28,0,0,1-1.23.29,6.6,6.6,0,0,1-2.46-.57,8.3,8.3,0,0,1-2.39-1.47l-1.35,2.73A9.15,9.15,0,0,0,228.58,57a9.83,9.83,0,0,0,3.31.58,7.51,7.51,0,0,0,2.74-.48,4.2,4.2,0,0,0,1.93-1.42,3.71,3.71,0,0,0,.71-2.28,3.41,3.41,0,0,0-.65-2.16A3.85,3.85,0,0,0,235.06,50.05Z"/><polygon class="cls-1" points="247.94 49.49 242.53 49.49 242.53 44.04 239.04 44.04 239.04 57.41 242.53 57.41 242.53 52.28 247.94 52.28 247.94 57.41 251.43 57.41 251.43 44.04 247.94 44.04 247.94 49.49"/><polygon class="cls-1" points="256.24 59.51 259.1 59.51 265.28 41.96 262.42 41.96 256.24 59.51"/><path class="cls-1" d="M277.62,50.05a17.13,17.13,0,0,0-2.3-.8c-.63-.2-1.1-.35-1.42-.47a2.54,2.54,0,0,1-.8-.48,1,1,0,0,1-.32-.73.77.77,0,0,1,.37-.7,1.88,1.88,0,0,1,1-.24,6.55,6.55,0,0,1,2,.4,11.76,11.76,0,0,1,2.28,1l1.32-2.78a9.23,9.23,0,0,0-2.48-1.1,10.35,10.35,0,0,0-2.86-.41,7.43,7.43,0,0,0-2.82.5,4.28,4.28,0,0,0-1.87,1.44,3.7,3.7,0,0,0-.66,2.18,3.3,3.3,0,0,0,.64,2.11,4,4,0,0,0,1.54,1.18,18.92,18.92,0,0,0,2.27.78c.61.16,1.09.3,1.42.42a2.45,2.45,0,0,1,.84.49,1,1,0,0,1,.34.76.93.93,0,0,1-.45.84,2.28,2.28,0,0,1-1.23.29,6.6,6.6,0,0,1-2.46-.57,8.3,8.3,0,0,1-2.39-1.47l-1.35,2.73A9.15,9.15,0,0,0,271.13,57a9.83,9.83,0,0,0,3.31.58,7.51,7.51,0,0,0,2.74-.48,4.2,4.2,0,0,0,1.93-1.42,3.71,3.71,0,0,0,.71-2.28,3.41,3.41,0,0,0-.65-2.16A3.89,3.89,0,0,0,277.62,50.05Z"/><polygon class="cls-1" points="285.09 44.04 281.6 44.04 281.6 57.41 290.75 57.41 290.75 54.44 285.09 54.44 285.09 44.04"/><path class="cls-1" d="M302.4,44.72a8.09,8.09,0,0,0-7.38,0,6.77,6.77,0,0,0-2.6,2.46,6.7,6.7,0,0,0-.94,3.52,6.8,6.8,0,0,0,.94,3.55,6.65,6.65,0,0,0,2.6,2.5,7.9,7.9,0,0,0,7.38,0,6.75,6.75,0,0,0,3.54-6,6.7,6.7,0,0,0-.94-3.52A6.77,6.77,0,0,0,302.4,44.72Zm-.52,8a3.69,3.69,0,0,1-1.31,1.43,3.33,3.33,0,0,1-1.82.52,3.38,3.38,0,0,1-1.83-.52,4,4,0,0,1-1.35-1.43,4.31,4.31,0,0,1,0-4,3.69,3.69,0,0,1,1.35-1.42,3.51,3.51,0,0,1,1.84-.52,3.41,3.41,0,0,1,1.82.52,3.59,3.59,0,0,1,1.31,1.42,4.21,4.21,0,0,1,.48,2A4.27,4.27,0,0,1,301.88,52.73Z"/><polygon class="cls-1" points="316.61 44.04 313.25 53.71 309.91 44.04 306.15 44.04 311.34 57.41 314.97 57.41 320.2 44.04 316.61 44.04"/><path class="cls-1" d="M324.76,44,319,57.41h3.59l.94-2.36h5.78l.91,2.36H334L328.34,44Zm-.17,8.34,1.87-4.78,1.83,4.78Z"/><polygon class="cls-1" points="347.71 44.04 343.67 44.04 338.65 49.84 338.65 44.04 335.16 44.04 335.16 57.41 338.65 57.41 338.65 54.09 340.33 52.22 343.84 57.41 348.02 57.41 342.75 49.55 347.71 44.04"/><path class="cls-1" d="M495.19,50.49a16.75,16.75,0,0,0-1.95-.72c-.65-.2-1.15-.38-1.52-.53a2.7,2.7,0,0,1-.91-.63,1.45,1.45,0,0,1-.38-1,1.26,1.26,0,0,1,.62-1.1,3.11,3.11,0,0,1,1.66-.4,5.66,5.66,0,0,1,1.64.27,6.72,6.72,0,0,1,1.73.79l.68-1.46a7.33,7.33,0,0,0-1.83-.85,7.52,7.52,0,0,0-2.1-.31,5.78,5.78,0,0,0-2.21.39A3.34,3.34,0,0,0,489.14,46a2.83,2.83,0,0,0-.53,1.69,2.8,2.8,0,0,0,.52,1.75,3.43,3.43,0,0,0,1.27,1,15.19,15.19,0,0,0,1.94.7c.64.19,1.15.37,1.53.52a2.72,2.72,0,0,1,.95.65,1.47,1.47,0,0,1,.37,1,1.45,1.45,0,0,1-.69,1.26,3.22,3.22,0,0,1-1.87.47,5.3,5.3,0,0,1-2.07-.45,6.11,6.11,0,0,1-1.91-1.28l-.73,1.41a6.81,6.81,0,0,0,2.14,1.36,6.67,6.67,0,0,0,2.55.51,5.88,5.88,0,0,0,2.29-.42,3.56,3.56,0,0,0,1.54-1.18,2.94,2.94,0,0,0,.55-1.78,2.81,2.81,0,0,0-.52-1.78A3.29,3.29,0,0,0,495.19,50.49Z"/><polygon class="cls-1" points="501.23 44.66 499.6 44.66 499.6 56.56 506.43 56.56 506.43 55.08 501.23 55.08 501.23 44.66"/><path class="cls-1" d="M516.86,45.35a6.64,6.64,0,0,0-6.32,0,6.09,6.09,0,0,0-2.26,2.19,5.84,5.84,0,0,0-.83,3.05,6,6,0,0,0,.83,3.07,6.1,6.1,0,0,0,2.27,2.21,6.55,6.55,0,0,0,6.31,0,6.1,6.1,0,0,0,2.27-2.21,6,6,0,0,0,.83-3.07,5.84,5.84,0,0,0-.83-3.05A6,6,0,0,0,516.86,45.35Zm.81,7.55A4.69,4.69,0,0,1,516,54.58a4.45,4.45,0,0,1-2.29.62,4.54,4.54,0,0,1-2.3-.62,4.77,4.77,0,0,1-1.69-1.68,4.41,4.41,0,0,1-.63-2.31,4.35,4.35,0,0,1,.63-2.3,4.64,4.64,0,0,1,1.69-1.66,4.53,4.53,0,0,1,2.3-.61,4.44,4.44,0,0,1,2.29.61,4.56,4.56,0,0,1,1.66,1.66,4.35,4.35,0,0,1,.63,2.3A4.41,4.41,0,0,1,517.67,52.9Z"/><polygon class="cls-1" points="526.22 54.74 522.29 44.66 520.54 44.66 525.33 56.56 527.03 56.56 531.86 44.66 530.14 44.66 526.22 54.74"/><polygon class="cls-1" points="535.28 51.29 541.21 51.29 541.21 49.81 535.28 49.81 535.28 46.14 541.91 46.14 541.91 44.66 533.65 44.66 533.65 56.56 542.11 56.56 542.11 55.08 535.28 55.08 535.28 51.29"/><polygon class="cls-1" points="553.21 53.89 546.4 44.66 544.75 44.66 544.75 56.56 546.38 56.56 546.38 47.34 553.18 56.56 554.83 56.56 554.83 44.66 553.21 44.66 553.21 53.89"/><rect class="cls-1" x="558.25" y="44.66" width="1.63" height="11.9"/><path class="cls-1" d="M566.91,44.66l-5.28,11.9h1.71l1.25-2.89h6.27l1.26,2.89h1.76l-5.27-11.9Zm-1.68,7.53,2.48-5.78,2.52,5.78Z"/><polygon class="cls-1" points="584.08 53.89 577.27 44.66 575.62 44.66 575.62 56.56 577.25 56.56 577.25 47.34 584.05 56.56 585.7 56.56 585.7 44.66 584.08 44.66 584.08 53.89"/></g></g></svg>