<svg xmlns="http://www.w3.org/2000/svg" viewBox="0 0 249.97 254.21"><defs><style>.cls-1{opacity:0.3;}.cls-2{fill:#002837;}</style></defs><title>reference</title><g id="Layer_2" data-name="Layer 2"><g id="Layer_1-2" data-name="Layer 1"><g class="cls-1"><path class="cls-2" d="M152.53,93.21H46.61a4.24,4.24,0,0,0,0,8.47H152.53a4.24,4.24,0,0,0,0-8.47Z"/><path class="cls-2" d="M46.61,67.79H89a4.24,4.24,0,0,0,0-8.47H46.61a4.24,4.24,0,1,0,0,8.47Z"/><path class="cls-2" d="M156.76,131.34a4.24,4.24,0,0,0-4.24-4.24H46.61a4.24,4.24,0,1,0,0,8.47H152.53A4.24,4.24,0,0,0,156.76,131.34Z"/><path class="cls-2" d="M122.87,165.24a4.24,4.24,0,0,0-4.24-4.24h-72a4.24,4.24,0,1,0,0,8.47h72A4.24,4.24,0,0,0,122.87,165.24Z"/><path class="cls-2" d="M46.61,194.9a4.24,4.24,0,1,0,0,8.47h59.32a4.24,4.24,0,1,0,0-8.47Z"/><path class="cls-2" d="M8.47,8.47H131.34V67.79h59.32v72h8.47v-78L137.33,0H0V254.21H139.82v-8.47H8.47Zm131.34,6,44.85,44.85H139.82Z"/><path class="cls-2" d="M249.78,191.09a4.24,4.24,0,0,0-3.45-2.91l-33-4.61-14.71-28.72c-1.45-2.83-6.09-2.83-7.54,0l-14.71,28.72-33,4.61a4.24,4.24,0,0,0-2.31,7.29l23.75,22.31-5.6,31.46a4.24,4.24,0,0,0,6.09,4.52l29.51-15,29.51,15a4.23,4.23,0,0,0,6.08-4.52l-5.6-31.46,23.75-22.31A4.25,4.25,0,0,0,249.78,191.09Zm-32.36,22.08a4.24,4.24,0,0,0-1.27,3.83l4.51,25.36-23.85-12.08a4.24,4.24,0,0,0-3.83,0l-23.85,12.08L173.64,217a4.23,4.23,0,0,0-1.27-3.83l-19-17.83,26.37-3.69a4.23,4.23,0,0,0,3.18-2.27l11.94-23.32,11.94,23.32a4.23,4.23,0,0,0,3.18,2.27l26.37,3.69Z"/></g></g></g></svg>