<svg xmlns="http://www.w3.org/2000/svg" viewBox="0 0 618.54 131.29"><defs><style>.cls-1{fill:#fff;}.cls-2{fill:#48626b;}.cls-3{fill:#3b5158;}</style></defs><title>1-ponudba</title><g id="Layer_2" data-name="Layer 2"><g id="Layer_1-2" data-name="Layer 1"><polygon class="cls-1" points="288.79 29.2 276.87 29.2 304.97 65.65 276.87 102.09 288.79 102.09 316.89 65.65 288.79 29.2"/><path class="cls-2" d="M527.3,64.67a1.87,1.87,0,0,0-.65-1.55,2.94,2.94,0,0,0-1.88-.52h-2.43v4.2h2.43a2.89,2.89,0,0,0,1.88-.54A1.94,1.94,0,0,0,527.3,64.67Z"/><path class="cls-2" d="M536.26,65.09a1.27,1.27,0,0,0,.48-1.07,1.24,1.24,0,0,0-.48-1,2.16,2.16,0,0,0-1.37-.35h-2.7v2.85h2.7A2.19,2.19,0,0,0,536.26,65.09Z"/><path class="cls-2" d="M288.79,29.2,316.9,65.65l-28.11,36.45H618.54V29.2ZM552.18,58.7l.83.91.83-.91h1.27l-1.43,1.81h-1.34l-1.43-1.81Zm-9.85,0,.83.91.83-.91h1.27l-1.43,1.81h-1.34l-1.43-1.81Zm-72.58,0,.83.91.83-.91h1.27l-1.43,1.81h-1.34l-1.43-1.81Zm-9.85,0,.83.91.83-.91h1.27l-1.43,1.81h-1.34l-1.43-1.81Zm-91.61,0,.83.91.83-.91h1.27l-1.43,1.81h-1.34L367,58.7Zm-9.85,0,.83.91.83-.91h1.27l-1.43,1.81H358.6l-1.43-1.81Zm-17,0,.83.91.83-.91h1.27L343,60.52h-1.34L340.2,58.7Zm2.82,11.94a5,5,0,0,1-4.43-.25,4.81,4.81,0,0,1-2.44-4.23,4.7,4.7,0,0,1,.66-2.45A4.78,4.78,0,0,1,339.89,62a5.08,5.08,0,0,1,2.52-.64,5.13,5.13,0,0,1,1.93.37A4.77,4.77,0,0,1,346,62.76l-.78.94a3.94,3.94,0,0,0-1.27-.89,3.67,3.67,0,0,0-4.67,1.5,3.67,3.67,0,0,0,3.19,5.51,3.74,3.74,0,0,0,1.47-.31,4.26,4.26,0,0,0,1.28-.84l.79.86A5.31,5.31,0,0,1,344.29,70.65Zm10.29.31h-6.79V61.42h6.62V62.6H349.1v2.94h4.76v1.19H349.1v3h5.48Zm8-1.2a2.83,2.83,0,0,1-1.24.95,4.72,4.72,0,0,1-1.83.33,5.33,5.33,0,0,1-2-.41,5.56,5.56,0,0,1-1.72-1.09l.59-1.13a4.9,4.9,0,0,0,1.53,1,4.22,4.22,0,0,0,1.66.36,2.65,2.65,0,0,0,1.51-.37,1.17,1.17,0,0,0,.55-1,1.18,1.18,0,0,0-.3-.83,2.12,2.12,0,0,0-.76-.52,12.78,12.78,0,0,0-1.23-.42,12.45,12.45,0,0,1-1.55-.56,2.68,2.68,0,0,1-1-.8,2.21,2.21,0,0,1-.42-1.4,2.25,2.25,0,0,1,.42-1.35,2.66,2.66,0,0,1,1.19-.9,4.63,4.63,0,0,1,1.77-.31,5.72,5.72,0,0,1,1.68.25,5.65,5.65,0,0,1,1.46.67l-.55,1.17a5.49,5.49,0,0,0-1.38-.63,4.68,4.68,0,0,0-1.31-.21,2.43,2.43,0,0,0-1.33.32,1,1,0,0,0-.5.88,1.16,1.16,0,0,0,.3.82,2.11,2.11,0,0,0,.74.5q.44.18,1.21.43a13.52,13.52,0,0,1,1.57.57,2.71,2.71,0,0,1,1,.81,2.25,2.25,0,0,1,.42,1.42A2.38,2.38,0,0,1,362.56,69.76Zm8.55.89a5,5,0,0,1-4.43-.25,4.81,4.81,0,0,1-2.44-4.23,4.7,4.7,0,0,1,.66-2.45A4.78,4.78,0,0,1,366.71,62a5.08,5.08,0,0,1,2.52-.64,5.13,5.13,0,0,1,1.93.37,4.77,4.77,0,0,1,1.61,1.06l-.78.94a3.94,3.94,0,0,0-1.27-.89,3.67,3.67,0,0,0-4.67,1.5,3.67,3.67,0,0,0,3.19,5.51,3.74,3.74,0,0,0,1.47-.31,4.26,4.26,0,0,0,1.28-.84l.79.86A5.31,5.31,0,0,1,371.11,70.65Zm4.81.31h-1.31V61.42h1.31Zm10.81,0H385.4L380,63.57V71h-1.31V61.42H380l5.47,7.4v-7.4h1.29Zm9.83,0-1-2.32h-5l-1,2.32h-1.38l4.24-9.54h1.36L398,71Zm6,1.64H401.5l4.28-12.8h1.1ZM418.26,71l-1-2.32h-5l-1,2.32h-1.38l4.24-9.54h1.36L419.67,71Zm10.89,0h-1.32l-5.45-7.39V71h-1.31V61.42h1.32l5.47,7.4v-7.4h1.29ZM432.86,68a3.73,3.73,0,0,0,1.36,1.35,3.68,3.68,0,0,0,1.88.5,4,4,0,0,0,1.22-.2,4.56,4.56,0,0,0,1.15-.55V66.29h1.16v3.5A6.07,6.07,0,0,1,436,71a5,5,0,0,1-2.52-.65A4.82,4.82,0,0,1,431,66.17a4.66,4.66,0,0,1,.67-2.45A4.8,4.8,0,0,1,433.53,62a5.21,5.21,0,0,1,2.56-.64,5.51,5.51,0,0,1,1.94.35,5.23,5.23,0,0,1,1.64,1l-.75,1a4.14,4.14,0,0,0-1.31-.82,4.09,4.09,0,0,0-1.52-.29,3.72,3.72,0,0,0-1.88.49,3.64,3.64,0,0,0-1.36,1.34,3.69,3.69,0,0,0,0,3.71ZM447.6,71h-5.48V61.42h1.31v8.35h4.17ZM456,71h-6.79V61.42h6.62V62.6h-5.32v2.94h4.76v1.19h-4.76v3H456Zm8-1.2a2.83,2.83,0,0,1-1.24.95,4.72,4.72,0,0,1-1.83.33,5.33,5.33,0,0,1-2-.41,5.56,5.56,0,0,1-1.72-1.09l.59-1.13a4.9,4.9,0,0,0,1.53,1,4.22,4.22,0,0,0,1.66.36,2.65,2.65,0,0,0,1.51-.37,1.17,1.17,0,0,0,.55-1,1.18,1.18,0,0,0-.3-.83,2.12,2.12,0,0,0-.76-.52,12.78,12.78,0,0,0-1.23-.42,12.45,12.45,0,0,1-1.55-.56,2.68,2.68,0,0,1-1-.8,2.21,2.21,0,0,1-.42-1.4,2.25,2.25,0,0,1,.42-1.35,2.66,2.66,0,0,1,1.19-.9,4.63,4.63,0,0,1,1.77-.31,5.72,5.72,0,0,1,1.68.25,5.65,5.65,0,0,1,1.46.67l-.55,1.17a5.49,5.49,0,0,0-1.38-.63,4.68,4.68,0,0,0-1.31-.21,2.43,2.43,0,0,0-1.33.32,1,1,0,0,0-.5.88,1.16,1.16,0,0,0,.3.82,2.11,2.11,0,0,0,.74.5q.44.18,1.21.43a13.52,13.52,0,0,1,1.57.57,2.71,2.71,0,0,1,1,.81,2.25,2.25,0,0,1,.42,1.42A2.38,2.38,0,0,1,464,69.76Zm8.55.89a5,5,0,0,1-4.43-.25,4.81,4.81,0,0,1-2.44-4.23,4.7,4.7,0,0,1,.66-2.45A4.78,4.78,0,0,1,468.17,62a5.08,5.08,0,0,1,2.52-.64,5.13,5.13,0,0,1,1.93.37,4.77,4.77,0,0,1,1.61,1.06l-.78.94a3.94,3.94,0,0,0-1.27-.89,3.67,3.67,0,0,0-4.67,1.5,3.67,3.67,0,0,0,3.19,5.51,3.74,3.74,0,0,0,1.47-.31,4.26,4.26,0,0,0,1.28-.84l.79.86A5.31,5.31,0,0,1,472.57,70.65Zm4.81.31h-1.31V61.42h1.31Zm10.81,0h-1.32l-5.45-7.39V71h-1.31V61.42h1.32l5.47,7.4v-7.4h1.29ZM498,71l-1-2.32h-5L491,71h-1.38l4.24-9.54h1.36L499.43,71Zm6,1.64H503l4.28-12.8h1.1Zm14.45-2.83a2.83,2.83,0,0,1-1.24.95,4.72,4.72,0,0,1-1.83.33,5.33,5.33,0,0,1-2-.41,5.56,5.56,0,0,1-1.72-1.09l.59-1.13a4.9,4.9,0,0,0,1.53,1,4.22,4.22,0,0,0,1.66.36,2.65,2.65,0,0,0,1.51-.37,1.17,1.17,0,0,0,.55-1,1.18,1.18,0,0,0-.3-.83,2.12,2.12,0,0,0-.76-.52,12.78,12.78,0,0,0-1.23-.42,12.45,12.45,0,0,1-1.55-.56,2.68,2.68,0,0,1-1-.8,2.21,2.21,0,0,1-.42-1.4,2.25,2.25,0,0,1,.42-1.35,2.66,2.66,0,0,1,1.19-.9,4.63,4.63,0,0,1,1.77-.31,5.72,5.72,0,0,1,1.68.25,5.65,5.65,0,0,1,1.46.67l-.55,1.17a5.49,5.49,0,0,0-1.38-.63,4.68,4.68,0,0,0-1.31-.21,2.43,2.43,0,0,0-1.33.32,1,1,0,0,0-.5.88,1.16,1.16,0,0,0,.3.82,2.11,2.11,0,0,0,.74.5q.44.18,1.21.43a13.52,13.52,0,0,1,1.57.57,2.71,2.71,0,0,1,1,.81,2.25,2.25,0,0,1,.42,1.42A2.38,2.38,0,0,1,518.5,69.76Zm8.69,1.2-1.89-3-.53,0h-2.43v3H521V61.42h3.73a4.21,4.21,0,0,1,2.8.84,3,3,0,0,1,1,2.38,3.38,3.38,0,0,1-.54,1.95,3,3,0,0,1-1.55,1.14L528.69,71Zm10.38-.69A4.16,4.16,0,0,1,535,71h-4.14V61.42H535a3.72,3.72,0,0,1,2.3.63,2.07,2.07,0,0,1,.84,1.75,2.11,2.11,0,0,1-.46,1.38,2.24,2.24,0,0,1-1.27.76,2.48,2.48,0,0,1,1.56.8,2.37,2.37,0,0,1,.57,1.61A2.26,2.26,0,0,1,537.57,70.27Zm8.88-.51a2.83,2.83,0,0,1-1.24.95,4.72,4.72,0,0,1-1.83.33,5.33,5.33,0,0,1-2-.41,5.56,5.56,0,0,1-1.72-1.09l.59-1.13a4.9,4.9,0,0,0,1.53,1,4.22,4.22,0,0,0,1.66.36,2.65,2.65,0,0,0,1.51-.37,1.17,1.17,0,0,0,.55-1,1.18,1.18,0,0,0-.3-.83,2.12,2.12,0,0,0-.76-.52,12.78,12.78,0,0,0-1.23-.42,12.45,12.45,0,0,1-1.55-.56,2.68,2.68,0,0,1-1-.8,2.21,2.21,0,0,1-.42-1.4,2.25,2.25,0,0,1,.42-1.35,2.66,2.66,0,0,1,1.19-.9,4.63,4.63,0,0,1,1.77-.31,5.72,5.72,0,0,1,1.68.25,5.65,5.65,0,0,1,1.46.67l-.55,1.17a5.49,5.49,0,0,0-1.38-.63,4.68,4.68,0,0,0-1.31-.21,2.43,2.43,0,0,0-1.33.32,1,1,0,0,0-.5.88,1.16,1.16,0,0,0,.3.82,2.11,2.11,0,0,0,.74.5q.44.18,1.21.43a13.52,13.52,0,0,1,1.57.57,2.71,2.71,0,0,1,1,.81,2.25,2.25,0,0,1,.42,1.42A2.38,2.38,0,0,1,546.45,69.76Zm8.55.89a5,5,0,0,1-4.43-.25,4.81,4.81,0,0,1-2.44-4.23,4.7,4.7,0,0,1,.66-2.45A4.78,4.78,0,0,1,550.6,62a5.08,5.08,0,0,1,2.52-.64,5.13,5.13,0,0,1,1.93.37,4.77,4.77,0,0,1,1.61,1.06l-.78.94a3.94,3.94,0,0,0-1.27-.89,3.67,3.67,0,0,0-4.67,1.5,3.67,3.67,0,0,0,3.19,5.51,3.74,3.74,0,0,0,1.47-.31,4.26,4.26,0,0,0,1.28-.84l.79.86A5.31,5.31,0,0,1,555,70.65Zm4.81.31h-1.31V61.42h1.31Zm10.81,0H569.3l-5.45-7.39V71h-1.31V61.42h1.32l5.47,7.4v-7.4h1.29Zm9.83,0-1-2.32h-5l-1,2.32H572l4.24-9.54h1.36L581.86,71Z"/><polygon class="cls-2" points="492.5 67.45 496.5 67.45 494.49 62.82 492.5 67.45"/><path class="cls-2" d="M536.55,67.06a2.92,2.92,0,0,0-1.66-.41h-2.7v3.11h2.7a2.82,2.82,0,0,0,1.66-.4,1.34,1.34,0,0,0,.6-1.16A1.3,1.3,0,0,0,536.55,67.06Z"/><polygon class="cls-2" points="391.03 67.45 395.04 67.45 393.02 62.82 391.03 67.45"/><polygon class="cls-2" points="574.93 67.45 578.93 67.45 576.92 62.82 574.93 67.45"/><polygon class="cls-2" points="412.74 67.45 416.74 67.45 414.73 62.82 412.74 67.45"/><path class="cls-3" d="M181.07,64.47a2.57,2.57,0,0,0-1.38-.39,2.64,2.64,0,0,0-1.4.39,2.82,2.82,0,0,0-1,1.08,3.23,3.23,0,0,0,0,3,2.92,2.92,0,0,0,1,1.09,2.56,2.56,0,0,0,1.39.4,2.53,2.53,0,0,0,1.38-.4,2.78,2.78,0,0,0,1-1.09,3.37,3.37,0,0,0,0-3A2.73,2.73,0,0,0,181.07,64.47Z"/><path class="cls-3" d="M276.87,29.2H120.22a65.49,65.49,0,0,1,0,72.89H276.87L305,65.65ZM231.27,59l.85,1,.87-1h1.85l-1.58,2.22H231L229.42,59ZM221,59l.85,1,.87-1h1.85L223,61.18h-2.27L219.14,59ZM164.79,70.86a3.26,3.26,0,0,1-1.47,1.08,5.71,5.71,0,0,1-2.08.36,7.52,7.52,0,0,1-2.51-.44,6.88,6.88,0,0,1-2.16-1.21l1-2.07a6.38,6.38,0,0,0,1.82,1.12,5,5,0,0,0,1.86.43,1.72,1.72,0,0,0,.93-.22.71.71,0,0,0,.34-.64.75.75,0,0,0-.25-.58,1.86,1.86,0,0,0-.64-.37c-.26-.09-.62-.2-1.08-.33a13.13,13.13,0,0,1-1.72-.59,3,3,0,0,1-1.17-.9,2.47,2.47,0,0,1-.48-1.6,2.79,2.79,0,0,1,.5-1.65,3.17,3.17,0,0,1,1.42-1.09,5.49,5.49,0,0,1,2.14-.38,7.76,7.76,0,0,1,2.17.31,7.16,7.16,0,0,1,1.88.83l-1,2.11a8.92,8.92,0,0,0-1.73-.78A5.09,5.09,0,0,0,161,64a1.43,1.43,0,0,0-.77.18.59.59,0,0,0-.28.53.72.72,0,0,0,.25.56,1.87,1.87,0,0,0,.61.36q.36.14,1.07.35a14,14,0,0,1,1.75.61,3,3,0,0,1,1.18.93,2.59,2.59,0,0,1,.49,1.64A2.81,2.81,0,0,1,164.79,70.86Zm8.83,1.28h-6.95V62h2.65v7.89h4.3Zm10.81-2.4a5.16,5.16,0,0,1-2,1.9,6,6,0,0,1-5.6,0,5.09,5.09,0,0,1-2-1.9,5.19,5.19,0,0,1-.72-2.7,5,5,0,0,1,2.69-4.53,6.1,6.1,0,0,1,5.6,0A5,5,0,0,1,185.14,67,5.16,5.16,0,0,1,184.43,69.74Zm7.57,2.4h-2.75L185.3,62h2.85l2.53,7.34L193.24,62H196Zm13.08,0h-8.15V62h8V64.1h-5.36V66h4.84v2.1h-4.84V70h5.5Zm11,0h-2.32l-4.6-6.07v6.07h-2.48V62H209l4.62,6.11V62h2.46Zm9.45-1.28a3.26,3.26,0,0,1-1.47,1.08,5.71,5.71,0,0,1-2.08.36,7.52,7.52,0,0,1-2.51-.44,6.88,6.88,0,0,1-2.16-1.21l1-2.07a6.38,6.38,0,0,0,1.82,1.12,5,5,0,0,0,1.86.43,1.72,1.72,0,0,0,.93-.22.71.71,0,0,0,.34-.64.75.75,0,0,0-.25-.58,1.86,1.86,0,0,0-.64-.37c-.26-.09-.62-.2-1.08-.33a13.13,13.13,0,0,1-1.72-.59,3,3,0,0,1-1.17-.9,2.47,2.47,0,0,1-.48-1.6,2.79,2.79,0,0,1,.5-1.65,3.17,3.17,0,0,1,1.42-1.09,5.49,5.49,0,0,1,2.14-.38,7.76,7.76,0,0,1,2.17.31,7.16,7.16,0,0,1,1.88.83l-1,2.11a8.92,8.92,0,0,0-1.73-.78,5.09,5.09,0,0,0-1.54-.3,1.43,1.43,0,0,0-.77.18.59.59,0,0,0-.28.53.72.72,0,0,0,.25.56,1.87,1.87,0,0,0,.61.36q.36.14,1.07.35a14,14,0,0,1,1.75.61,3,3,0,0,1,1.18.93,2.59,2.59,0,0,1,.49,1.64A2.81,2.81,0,0,1,225.54,70.86Zm8.81,1a5.45,5.45,0,0,1-2.25.51,5.38,5.38,0,0,1-2.72-.7,5.07,5.07,0,0,1-1.91-1.9,5.28,5.28,0,0,1-.69-2.69,5.06,5.06,0,0,1,2.66-4.53,5.77,5.77,0,0,1,5-.21,5.53,5.53,0,0,1,1.87,1.28l-1.53,1.85a3.8,3.8,0,0,0-1.17-1,2.81,2.81,0,0,0-1.35-.37,2.63,2.63,0,0,0-1.4.38,2.72,2.72,0,0,0-1,1.06,3.28,3.28,0,0,0,0,3,2.72,2.72,0,0,0,1,1.06,2.63,2.63,0,0,0,1.4.38,3.07,3.07,0,0,0,1.3-.32,4.15,4.15,0,0,0,1.22-.87l1.55,1.66A6.2,6.2,0,0,1,234.35,71.82Zm5.74.33h-2.65V62h2.65Zm11.37,0h-2.32l-4.6-6.07v6.07h-2.48V62h2.33L249,68.1V62h2.46Zm9.44,0-.69-1.8h-4.39l-.71,1.8h-2.72L256.74,62h2.72l4.26,10.15Z"/><polygon class="cls-3" points="256.61 68.32 259.42 68.32 258.03 64.7 256.61 68.32"/><path class="cls-2" d="M65.65,8.88a56.77,56.77,0,1,0,56.77,56.77A56.83,56.83,0,0,0,65.65,8.88ZM74,95.13H59.58V51.57H48.91V39.72H74Z"/><path class="cls-1" d="M120.22,29.2a65.49,65.49,0,1,0,11.08,36.44A65.63,65.63,0,0,0,120.22,29.2ZM65.65,122.41a56.77,56.77,0,1,1,56.77-56.77A56.83,56.83,0,0,1,65.65,122.41Z"/><polygon class="cls-1" points="48.91 51.58 59.58 51.58 59.58 95.13 74.05 95.13 74.05 39.72 48.91 39.72 48.91 51.58"/><path class="cls-1" d="M163.65,66.55a14,14,0,0,0-1.75-.61q-.71-.22-1.07-.35a1.87,1.87,0,0,1-.61-.36.72.72,0,0,1-.25-.56.59.59,0,0,1,.28-.53A1.43,1.43,0,0,1,161,64a5.09,5.09,0,0,1,1.54.3,8.92,8.92,0,0,1,1.73.78l1-2.11a7.16,7.16,0,0,0-1.88-.83,7.76,7.76,0,0,0-2.17-.31,5.49,5.49,0,0,0-2.14.38,3.17,3.17,0,0,0-1.42,1.09,2.79,2.79,0,0,0-.5,1.65,2.47,2.47,0,0,0,.48,1.6,3,3,0,0,0,1.17.9,13.13,13.13,0,0,0,1.72.59c.46.13.82.23,1.08.33a1.86,1.86,0,0,1,.64.37.75.75,0,0,1,.25.58.71.71,0,0,1-.34.64,1.72,1.72,0,0,1-.93.22,5,5,0,0,1-1.86-.43,6.38,6.38,0,0,1-1.82-1.12l-1,2.07a6.88,6.88,0,0,0,2.16,1.21,7.52,7.52,0,0,0,2.51.44,5.71,5.71,0,0,0,2.08-.36,3.26,3.26,0,0,0,1.47-1.08,2.81,2.81,0,0,0,.54-1.73,2.59,2.59,0,0,0-.49-1.64A3,3,0,0,0,163.65,66.55Z"/><polygon class="cls-1" points="169.32 61.99 166.67 61.99 166.67 72.14 173.62 72.14 173.62 69.88 169.32 69.88 169.32 61.99"/><path class="cls-1" d="M182.46,62.51a6.1,6.1,0,0,0-5.6,0A5,5,0,0,0,174.17,67a5.19,5.19,0,0,0,.72,2.7,5.09,5.09,0,0,0,2,1.9,6,6,0,0,0,5.6,0A5.14,5.14,0,0,0,185.14,67a5,5,0,0,0-2.69-4.53Zm-.4,6.07a2.78,2.78,0,0,1-1,1.09,2.53,2.53,0,0,1-1.38.4,2.56,2.56,0,0,1-1.39-.4,2.92,2.92,0,0,1-1-1.09,3.23,3.23,0,0,1,0-3,2.82,2.82,0,0,1,1-1.08,2.64,2.64,0,0,1,1.4-.39,2.57,2.57,0,0,1,1.38.39,2.73,2.73,0,0,1,1,1.08,3.37,3.37,0,0,1,0,3Z"/><polygon class="cls-1" points="190.69 69.33 188.16 61.99 185.3 61.99 189.24 72.14 191.99 72.14 195.96 61.99 193.24 61.99 190.69 69.33"/><polygon class="cls-1" points="199.56 68.11 204.4 68.1 204.4 66 199.56 66 199.56 64.11 204.92 64.11 204.92 61.99 196.92 61.99 196.92 72.14 205.07 72.14 205.07 70.03 199.56 70.03 199.56 68.11"/><polygon class="cls-1" points="213.64 68.1 209.02 61.99 206.69 61.99 206.69 72.14 209.16 72.14 209.16 66.07 213.77 72.14 216.09 72.14 216.09 61.99 213.62 61.99 213.64 68.1"/><polygon class="cls-1" points="222.99 61.18 224.57 58.97 222.72 58.97 221.85 59.94 220.99 58.97 219.14 58.97 220.72 61.18 222.99 61.18"/><path class="cls-1" d="M224.4,66.55a14,14,0,0,0-1.75-.61q-.71-.22-1.07-.35a1.87,1.87,0,0,1-.61-.36.72.72,0,0,1-.25-.56.59.59,0,0,1,.28-.53,1.43,1.43,0,0,1,.77-.18,5.09,5.09,0,0,1,1.54.3,8.92,8.92,0,0,1,1.73.78l1-2.11a7.16,7.16,0,0,0-1.88-.83,7.76,7.76,0,0,0-2.17-.31,5.49,5.49,0,0,0-2.14.38,3.17,3.17,0,0,0-1.42,1.09,2.79,2.79,0,0,0-.5,1.65,2.47,2.47,0,0,0,.48,1.6,3,3,0,0,0,1.17.9,13.13,13.13,0,0,0,1.72.59c.46.13.82.23,1.08.33a1.86,1.86,0,0,1,.64.37.75.75,0,0,1,.25.58.71.71,0,0,1-.34.64,1.72,1.72,0,0,1-.93.22,5,5,0,0,1-1.86-.43,6.38,6.38,0,0,1-1.82-1.12l-1,2.07a6.88,6.88,0,0,0,2.16,1.21,7.52,7.52,0,0,0,2.51.44,5.71,5.71,0,0,0,2.08-.36,3.26,3.26,0,0,0,1.47-1.08,2.81,2.81,0,0,0,.54-1.73,2.59,2.59,0,0,0-.49-1.64A3,3,0,0,0,224.4,66.55Z"/><polygon class="cls-1" points="233.27 61.18 234.85 58.97 233 58.97 232.13 59.94 231.27 58.97 229.42 58.97 231 61.18 233.27 61.18"/><path class="cls-1" d="M233.55,69.64a3.07,3.07,0,0,1-1.3.32,2.63,2.63,0,0,1-1.4-.38,2.72,2.72,0,0,1-1-1.06,3.28,3.28,0,0,1,0-3,2.72,2.72,0,0,1,1-1.06,2.63,2.63,0,0,1,1.4-.38,2.81,2.81,0,0,1,1.35.37,3.8,3.8,0,0,1,1.17,1l1.53-1.85a5.53,5.53,0,0,0-1.87-1.28,5.77,5.77,0,0,0-5,.21A5.06,5.06,0,0,0,226.77,67a5.28,5.28,0,0,0,.69,2.69,5.07,5.07,0,0,0,1.91,1.9,5.38,5.38,0,0,0,2.72.7,5.45,5.45,0,0,0,2.25-.51,6.2,6.2,0,0,0,2-1.38l-1.55-1.66A4.15,4.15,0,0,1,233.55,69.64Z"/><rect class="cls-1" x="237.44" y="61.99" width="2.65" height="10.15"/><polygon class="cls-1" points="249.01 68.1 244.39 61.99 242.06 61.99 242.06 72.14 244.54 72.14 244.54 66.07 249.14 72.14 251.46 72.14 251.46 61.99 249 61.99 249.01 68.1"/><path class="cls-1" d="M256.74,62l-4.36,10.15h2.72l.71-1.8h4.39l.69,1.8h2.82L259.46,62Zm-.13,6.33L258,64.7l1.39,3.62Z"/><path class="cls-1" d="M343.89,69.52a3.74,3.74,0,0,1-1.47.31,3.67,3.67,0,1,1,1.49-7,3.94,3.94,0,0,1,1.27.89l.78-.94a4.77,4.77,0,0,0-1.61-1.06,5.13,5.13,0,0,0-1.93-.37,5.08,5.08,0,0,0-2.52.64,4.78,4.78,0,0,0-1.81,1.75,4.7,4.7,0,0,0-.66,2.45,4.81,4.81,0,0,0,2.44,4.23,5,5,0,0,0,4.43.25A5.31,5.31,0,0,0,346,69.54l-.79-.86A4.26,4.26,0,0,1,343.89,69.52Z"/><polygon class="cls-1" points="342.97 60.52 344.4 58.7 343.13 58.7 342.3 59.62 341.47 58.7 340.2 58.7 341.63 60.52 342.97 60.52"/><polygon class="cls-1" points="349.1 66.73 353.86 66.73 353.86 65.55 349.1 65.55 349.1 62.6 354.41 62.6 354.41 61.41 347.79 61.41 347.79 70.95 354.58 70.95 354.58 69.77 349.1 69.77 349.1 66.73"/><path class="cls-1" d="M361.55,66.09a13.52,13.52,0,0,0-1.57-.57q-.78-.25-1.21-.43a2.11,2.11,0,0,1-.74-.5,1.16,1.16,0,0,1-.3-.82,1,1,0,0,1,.5-.88,2.43,2.43,0,0,1,1.33-.32,4.68,4.68,0,0,1,1.31.21,5.49,5.49,0,0,1,1.38.63l.55-1.17a5.65,5.65,0,0,0-1.46-.67,5.72,5.72,0,0,0-1.68-.25,4.63,4.63,0,0,0-1.77.31,2.66,2.66,0,0,0-1.19.9,2.25,2.25,0,0,0-.42,1.35,2.21,2.21,0,0,0,.42,1.4,2.68,2.68,0,0,0,1,.8,12.45,12.45,0,0,0,1.55.56,12.78,12.78,0,0,1,1.23.42,2.12,2.12,0,0,1,.76.52,1.18,1.18,0,0,1,.3.83,1.17,1.17,0,0,1-.55,1,2.65,2.65,0,0,1-1.51.37,4.22,4.22,0,0,1-1.66-.36,4.9,4.9,0,0,1-1.53-1l-.59,1.13a5.56,5.56,0,0,0,1.72,1.09,5.33,5.33,0,0,0,2,.41,4.72,4.72,0,0,0,1.83-.33,2.83,2.83,0,0,0,1.24-.95,2.38,2.38,0,0,0,.44-1.43,2.25,2.25,0,0,0-.42-1.42A2.71,2.71,0,0,0,361.55,66.09Z"/><polygon class="cls-1" points="359.93 60.52 361.36 58.7 360.1 58.7 359.27 59.62 358.43 58.7 357.17 58.7 358.6 60.52 359.93 60.52"/><path class="cls-1" d="M370.71,69.52a3.74,3.74,0,0,1-1.47.31,3.67,3.67,0,1,1,1.49-7,3.94,3.94,0,0,1,1.27.89l.78-.94a4.77,4.77,0,0,0-1.61-1.06,5.13,5.13,0,0,0-1.93-.37,5.08,5.08,0,0,0-2.52.64,4.78,4.78,0,0,0-1.81,1.75,4.7,4.7,0,0,0-.66,2.45,4.81,4.81,0,0,0,2.44,4.23,5,5,0,0,0,4.43.25,5.31,5.31,0,0,0,1.68-1.11l-.79-.86A4.26,4.26,0,0,1,370.71,69.52Z"/><polygon class="cls-1" points="369.79 60.52 371.22 58.7 369.95 58.7 369.12 59.62 368.29 58.7 367.02 58.7 368.45 60.52 369.79 60.52"/><rect class="cls-1" x="374.61" y="61.42" width="1.31" height="9.54"/><polygon class="cls-1" points="385.43 68.81 379.96 61.41 378.64 61.41 378.64 70.95 379.95 70.95 379.95 63.57 385.4 70.95 386.72 70.95 386.72 61.41 385.43 61.41 385.43 68.81"/><path class="cls-1" d="M392.38,61.42,388.14,71h1.38l1-2.32h5l1,2.32H398l-4.22-9.54Zm-1.35,6,2-4.63,2,4.63Z"/><polygon class="cls-1" points="401.5 72.59 402.58 72.59 406.88 59.79 405.77 59.79 401.5 72.59"/><path class="cls-1" d="M414.09,61.42,409.85,71h1.38l1-2.32h5l1,2.32h1.42l-4.22-9.54Zm-1.35,6,2-4.63,2,4.63Z"/><polygon class="cls-1" points="427.85 68.81 422.39 61.41 421.06 61.41 421.06 70.95 422.37 70.95 422.37 63.57 427.82 70.95 429.14 70.95 429.14 61.41 427.85 61.41 427.85 68.81"/><path class="cls-1" d="M434.21,63a3.72,3.72,0,0,1,1.88-.49,4.09,4.09,0,0,1,1.52.29,4.14,4.14,0,0,1,1.31.82l.75-1a5.23,5.23,0,0,0-1.64-1,5.51,5.51,0,0,0-1.94-.35,5.21,5.21,0,0,0-2.56.64,4.8,4.8,0,0,0-1.83,1.75,4.66,4.66,0,0,0-.67,2.45,4.82,4.82,0,0,0,2.47,4.23A5,5,0,0,0,436,71a6.07,6.07,0,0,0,3.61-1.25v-3.5h-1.16v2.83a4.56,4.56,0,0,1-1.15.55,4,4,0,0,1-1.22.2,3.68,3.68,0,0,1-1.88-.5A3.73,3.73,0,0,1,432.86,68a3.69,3.69,0,0,1,0-3.71A3.64,3.64,0,0,1,434.21,63Z"/><polygon class="cls-1" points="443.43 61.41 442.12 61.41 442.12 70.95 447.6 70.95 447.6 69.77 443.43 69.77 443.43 61.41"/><polygon class="cls-1" points="450.57 66.73 455.32 66.73 455.32 65.55 450.57 65.55 450.57 62.6 455.88 62.6 455.88 61.41 449.26 61.41 449.26 70.95 456.05 70.95 456.05 69.77 450.57 69.77 450.57 66.73"/><path class="cls-1" d="M463,66.09a13.52,13.52,0,0,0-1.57-.57q-.78-.25-1.21-.43a2.11,2.11,0,0,1-.74-.5,1.16,1.16,0,0,1-.3-.82,1,1,0,0,1,.5-.88,2.43,2.43,0,0,1,1.33-.32,4.68,4.68,0,0,1,1.31.21,5.49,5.49,0,0,1,1.38.63l.55-1.17a5.65,5.65,0,0,0-1.46-.67,5.72,5.72,0,0,0-1.68-.25,4.63,4.63,0,0,0-1.77.31,2.66,2.66,0,0,0-1.19.9,2.25,2.25,0,0,0-.42,1.35,2.21,2.21,0,0,0,.42,1.4,2.68,2.68,0,0,0,1,.8,12.45,12.45,0,0,0,1.55.56,12.78,12.78,0,0,1,1.23.42,2.12,2.12,0,0,1,.76.52,1.18,1.18,0,0,1,.3.83,1.17,1.17,0,0,1-.55,1,2.65,2.65,0,0,1-1.51.37,4.22,4.22,0,0,1-1.66-.36,4.9,4.9,0,0,1-1.53-1l-.59,1.13a5.56,5.56,0,0,0,1.72,1.09,5.33,5.33,0,0,0,2,.41,4.72,4.72,0,0,0,1.83-.33,2.83,2.83,0,0,0,1.24-.95,2.38,2.38,0,0,0,.44-1.43A2.25,2.25,0,0,0,464,66.9,2.71,2.71,0,0,0,463,66.09Z"/><polygon class="cls-1" points="461.4 60.52 462.83 58.7 461.56 58.7 460.73 59.62 459.9 58.7 458.63 58.7 460.06 60.52 461.4 60.52"/><polygon class="cls-1" points="471.25 60.52 472.68 58.7 471.42 58.7 470.58 59.62 469.75 58.7 468.49 58.7 469.92 60.52 471.25 60.52"/><path class="cls-1" d="M472.18,69.52a3.74,3.74,0,0,1-1.47.31,3.67,3.67,0,1,1,1.49-7,3.94,3.94,0,0,1,1.27.89l.78-.94a4.77,4.77,0,0,0-1.61-1.06,5.13,5.13,0,0,0-1.93-.37,5.08,5.08,0,0,0-2.52.64,4.78,4.78,0,0,0-1.81,1.75,4.7,4.7,0,0,0-.66,2.45,4.81,4.81,0,0,0,2.44,4.23,5,5,0,0,0,4.43.25,5.31,5.31,0,0,0,1.68-1.11l-.79-.86A4.26,4.26,0,0,1,472.18,69.52Z"/><rect class="cls-1" x="476.08" y="61.42" width="1.31" height="9.54"/><polygon class="cls-1" points="486.9 68.81 481.43 61.41 480.11 61.41 480.11 70.95 481.42 70.95 481.42 63.57 486.87 70.95 488.19 70.95 488.19 61.41 486.9 61.41 486.9 68.81"/><path class="cls-1" d="M493.85,61.42,489.61,71H491l1-2.32h5L498,71h1.42l-4.22-9.54Zm-1.35,6,2-4.63,2,4.63Z"/><polygon class="cls-1" points="502.96 72.59 504.05 72.59 508.35 59.79 507.24 59.79 502.96 72.59"/><path class="cls-1" d="M517.5,66.09a13.52,13.52,0,0,0-1.57-.57q-.78-.25-1.21-.43a2.11,2.11,0,0,1-.74-.5,1.16,1.16,0,0,1-.3-.82,1,1,0,0,1,.5-.88,2.43,2.43,0,0,1,1.33-.32,4.68,4.68,0,0,1,1.31.21,5.49,5.49,0,0,1,1.38.63l.55-1.17a5.65,5.65,0,0,0-1.46-.67,5.72,5.72,0,0,0-1.68-.25,4.63,4.63,0,0,0-1.77.31,2.66,2.66,0,0,0-1.19.9,2.25,2.25,0,0,0-.42,1.35,2.21,2.21,0,0,0,.42,1.4,2.68,2.68,0,0,0,1,.8,12.45,12.45,0,0,0,1.55.56,12.78,12.78,0,0,1,1.23.42,2.12,2.12,0,0,1,.76.52,1.18,1.18,0,0,1,.3.83,1.17,1.17,0,0,1-.55,1,2.65,2.65,0,0,1-1.51.37,4.22,4.22,0,0,1-1.66-.36,4.9,4.9,0,0,1-1.53-1l-.59,1.13a5.56,5.56,0,0,0,1.72,1.09,5.33,5.33,0,0,0,2,.41,4.72,4.72,0,0,0,1.83-.33,2.83,2.83,0,0,0,1.24-.95,2.38,2.38,0,0,0,.44-1.43,2.25,2.25,0,0,0-.42-1.42A2.71,2.71,0,0,0,517.5,66.09Z"/><path class="cls-1" d="M528,66.58a3.38,3.38,0,0,0,.54-1.95,3,3,0,0,0-1-2.38,4.21,4.21,0,0,0-2.8-.84H521V71h1.31V68h2.43l.53,0,1.89,3h1.5l-2.22-3.23A3,3,0,0,0,528,66.58Zm-3.25.22h-2.43V62.6h2.43a2.94,2.94,0,0,1,1.88.52,1.87,1.87,0,0,1,.65,1.55,1.94,1.94,0,0,1-.65,1.59A2.89,2.89,0,0,1,524.77,66.8Z"/><path class="cls-1" d="M536.36,65.94a2.24,2.24,0,0,0,1.27-.76,2.11,2.11,0,0,0,.46-1.38,2.07,2.07,0,0,0-.84-1.75,3.72,3.72,0,0,0-2.3-.63h-4.07V71H535a4.16,4.16,0,0,0,2.54-.69,2.26,2.26,0,0,0,.92-1.91,2.37,2.37,0,0,0-.57-1.61A2.48,2.48,0,0,0,536.36,65.94Zm-4.17-3.32h2.7a2.16,2.16,0,0,1,1.37.35,1.24,1.24,0,0,1,.48,1,1.27,1.27,0,0,1-.48,1.07,2.19,2.19,0,0,1-1.37.37h-2.7Zm4.36,6.74a2.82,2.82,0,0,1-1.66.4h-2.7V66.65h2.7a2.92,2.92,0,0,1,1.66.41,1.3,1.3,0,0,1,.6,1.13A1.34,1.34,0,0,1,536.55,69.35Z"/><path class="cls-1" d="M545.45,66.09a13.52,13.52,0,0,0-1.57-.57q-.78-.25-1.21-.43a2.11,2.11,0,0,1-.74-.5,1.16,1.16,0,0,1-.3-.82,1,1,0,0,1,.5-.88,2.43,2.43,0,0,1,1.33-.32,4.68,4.68,0,0,1,1.31.21,5.49,5.49,0,0,1,1.38.63l.55-1.17a5.65,5.65,0,0,0-1.46-.67,5.72,5.72,0,0,0-1.68-.25,4.63,4.63,0,0,0-1.77.31,2.66,2.66,0,0,0-1.19.9,2.25,2.25,0,0,0-.42,1.35,2.21,2.21,0,0,0,.42,1.4,2.68,2.68,0,0,0,1,.8,12.45,12.45,0,0,0,1.55.56,12.78,12.78,0,0,1,1.23.42,2.12,2.12,0,0,1,.76.52,1.18,1.18,0,0,1,.3.83,1.17,1.17,0,0,1-.55,1,2.65,2.65,0,0,1-1.51.37,4.22,4.22,0,0,1-1.66-.36,4.9,4.9,0,0,1-1.53-1l-.59,1.13a5.56,5.56,0,0,0,1.72,1.09,5.33,5.33,0,0,0,2,.41,4.72,4.72,0,0,0,1.83-.33,2.83,2.83,0,0,0,1.24-.95,2.38,2.38,0,0,0,.44-1.43,2.25,2.25,0,0,0-.42-1.42A2.71,2.71,0,0,0,545.45,66.09Z"/><polygon class="cls-1" points="543.83 60.52 545.26 58.7 543.99 58.7 543.16 59.62 542.33 58.7 541.06 58.7 542.5 60.52 543.83 60.52"/><path class="cls-1" d="M554.61,69.52a3.74,3.74,0,0,1-1.47.31,3.67,3.67,0,1,1,1.49-7,3.94,3.94,0,0,1,1.27.89l.78-.94a4.77,4.77,0,0,0-1.61-1.06,5.13,5.13,0,0,0-1.93-.37,5.08,5.08,0,0,0-2.52.64,4.78,4.78,0,0,0-1.81,1.75,4.7,4.7,0,0,0-.66,2.45,4.81,4.81,0,0,0,2.44,4.23,5,5,0,0,0,4.43.25,5.31,5.31,0,0,0,1.68-1.11l-.79-.86A4.26,4.26,0,0,1,554.61,69.52Z"/><polygon class="cls-1" points="553.68 60.52 555.11 58.7 553.85 58.7 553.01 59.62 552.18 58.7 550.92 58.7 552.35 60.52 553.68 60.52"/><rect class="cls-1" x="558.51" y="61.42" width="1.31" height="9.54"/><polygon class="cls-1" points="569.33 68.81 563.86 61.41 562.54 61.41 562.54 70.95 563.85 70.95 563.85 63.57 569.3 70.95 570.62 70.95 570.62 61.41 569.33 61.41 569.33 68.81"/><path class="cls-1" d="M576.28,61.42,572,71h1.38l1-2.32h5l1,2.32h1.42l-4.22-9.54Zm-1.35,6,2-4.63,2,4.63Z"/></g></g></svg>