<svg xmlns="http://www.w3.org/2000/svg" viewBox="0 0 618.55 131.29"><defs><style>.cls-1{fill:#00aaaf;}.cls-2{fill:#fff;}.cls-3{fill:#008c90;}</style></defs><title>2-ponudba</title><g id="Layer_2" data-name="Layer 2"><g id="Layer_1-2" data-name="Layer 1"><path class="cls-1" d="M512.61,63.77a3.56,3.56,0,0,0-1.83-.49,3.63,3.63,0,0,0-1.85.49,3.73,3.73,0,0,0-1.36,1.33,3.52,3.52,0,0,0-.5,1.85,3.55,3.55,0,0,0,.5,1.85,3.77,3.77,0,0,0,1.36,1.34,3.6,3.6,0,0,0,1.85.5,3.53,3.53,0,0,0,1.83-.5,3.75,3.75,0,0,0,1.34-1.34,3.59,3.59,0,0,0,.5-1.85,3.55,3.55,0,0,0-.5-1.85A3.71,3.71,0,0,0,512.61,63.77Z"/><path class="cls-1" d="M444.22,29.2l28.11,36.45-28.11,36.45H618.55V29.2ZM558.06,59.47l.83.91.83-.91H561l-1.43,1.81h-1.34l-1.43-1.81Zm-9.85,0,.83.91.83-.91h1.27l-1.43,1.81h-1.34l-1.43-1.81ZM496.92,70.53a2.83,2.83,0,0,1-1.24.95,4.7,4.7,0,0,1-1.83.33,5.33,5.33,0,0,1-2-.41,5.54,5.54,0,0,1-1.72-1.09l.59-1.13a4.92,4.92,0,0,0,1.53,1,4.22,4.22,0,0,0,1.66.36,2.64,2.64,0,0,0,1.51-.38,1.17,1.17,0,0,0,.55-1,1.18,1.18,0,0,0-.3-.83,2.12,2.12,0,0,0-.76-.52q-.46-.19-1.23-.42a12.45,12.45,0,0,1-1.55-.56,2.67,2.67,0,0,1-1-.8,2.21,2.21,0,0,1-.42-1.4,2.25,2.25,0,0,1,.42-1.35,2.66,2.66,0,0,1,1.19-.9,4.63,4.63,0,0,1,1.77-.31,5.72,5.72,0,0,1,1.68.25,5.65,5.65,0,0,1,1.46.67l-.55,1.17a5.5,5.5,0,0,0-1.38-.63,4.68,4.68,0,0,0-1.31-.21,2.43,2.43,0,0,0-1.33.32,1,1,0,0,0-.5.88,1.16,1.16,0,0,0,.3.82,2.12,2.12,0,0,0,.74.5q.44.18,1.21.43a13.85,13.85,0,0,1,1.57.57,2.72,2.72,0,0,1,1,.81,2.25,2.25,0,0,1,.42,1.42A2.38,2.38,0,0,1,496.92,70.53Zm8,1.2h-5.48V62.19h1.31v8.35h4.17Zm10.18-2.32a4.84,4.84,0,0,1-1.82,1.77,5.26,5.26,0,0,1-5.06,0,4.83,4.83,0,0,1-1.82-1.77,4.73,4.73,0,0,1-.67-2.46,4.66,4.66,0,0,1,.67-2.45,4.82,4.82,0,0,1,1.81-1.75,5.32,5.32,0,0,1,5.06,0,4.81,4.81,0,0,1,1.82,1.75,4.66,4.66,0,0,1,.67,2.45A4.73,4.73,0,0,1,515.11,69.4Zm6.34,2.32h-1.36l-3.84-9.54h1.4l3.15,8.08,3.15-8.08h1.38Zm12.09,0h-6.79V62.19h6.62v1.19h-5.32v2.94h4.76V67.5h-4.76v3h5.48Zm10.19,0H542.4L537,64.34v7.39h-1.31V62.19H537l5.47,7.4v-7.4h1.29Zm8.61-1.2a2.83,2.83,0,0,1-1.24.95,4.7,4.7,0,0,1-1.83.33,5.33,5.33,0,0,1-2-.41,5.54,5.54,0,0,1-1.72-1.09l.59-1.13a4.92,4.92,0,0,0,1.53,1,4.22,4.22,0,0,0,1.66.36,2.64,2.64,0,0,0,1.51-.38,1.17,1.17,0,0,0,.55-1,1.18,1.18,0,0,0-.3-.83,2.12,2.12,0,0,0-.76-.52q-.46-.19-1.23-.42a12.45,12.45,0,0,1-1.55-.56,2.67,2.67,0,0,1-1-.8,2.21,2.21,0,0,1-.42-1.4,2.25,2.25,0,0,1,.42-1.35,2.66,2.66,0,0,1,1.19-.9,4.63,4.63,0,0,1,1.77-.31,5.72,5.72,0,0,1,1.68.25,5.65,5.65,0,0,1,1.46.67L552,64.18a5.5,5.5,0,0,0-1.38-.63,4.68,4.68,0,0,0-1.31-.21,2.43,2.43,0,0,0-1.33.32,1,1,0,0,0-.5.88,1.16,1.16,0,0,0,.3.82,2.12,2.12,0,0,0,.74.5q.44.18,1.21.43a13.85,13.85,0,0,1,1.57.57,2.72,2.72,0,0,1,1,.81,2.25,2.25,0,0,1,.42,1.42A2.38,2.38,0,0,1,552.33,70.53Zm8.55.89a5,5,0,0,1-4.43-.24A4.82,4.82,0,0,1,554,66.94a4.7,4.7,0,0,1,.66-2.45,4.77,4.77,0,0,1,1.81-1.75A5.08,5.08,0,0,1,559,62.1a5.13,5.13,0,0,1,1.93.37,4.78,4.78,0,0,1,1.61,1.06l-.78.94a4,4,0,0,0-1.27-.89,3.67,3.67,0,0,0-4.67,1.5,3.67,3.67,0,0,0,1.33,5,3.63,3.63,0,0,0,1.85.49,3.73,3.73,0,0,0,1.47-.31,4.24,4.24,0,0,0,1.28-.84l.79.86A5.3,5.3,0,0,1,560.88,71.42Zm4.81.31h-1.31V62.19h1.31Zm10.81,0h-1.32l-5.45-7.39v7.39h-1.31V62.19h1.32l5.47,7.4v-7.4h1.29Zm9.83,0-1-2.32h-5l-1,2.32h-1.38l4.24-9.54h1.36l4.22,9.54Z"/><polygon class="cls-1" points="580.81 68.22 584.81 68.22 582.79 63.59 580.81 68.22"/><polygon class="cls-2" points="444.23 29.2 431.02 29.2 459.13 65.65 431.02 102.09 444.23 102.09 472.33 65.65 444.23 29.2"/><path class="cls-3" d="M370,65.06a.92.92,0,0,0,.32-.75.87.87,0,0,0-.32-.72,1.31,1.31,0,0,0-.87-.24h-2v2h2A1.3,1.3,0,0,0,370,65.06Z"/><path class="cls-3" d="M370.24,67.52a1.83,1.83,0,0,0-1.1-.27h-2v2.13h2a1.87,1.87,0,0,0,1.1-.29.94.94,0,0,0,.41-.81A.88.88,0,0,0,370.24,67.52Z"/><polygon class="cls-3" points="325.04 67.62 327.85 67.62 326.46 64 325.04 67.62"/><polygon class="cls-3" points="215.65 67.62 218.46 67.62 217.07 64 215.65 67.62"/><path class="cls-3" d="M358.56,63.4h-1.93v3.11h1.93a1.79,1.79,0,0,0,1.25-.41,1.51,1.51,0,0,0,.44-1.17,1.45,1.45,0,0,0-.44-1.14A1.81,1.81,0,0,0,358.56,63.4Z"/><polygon class="cls-3" points="238.41 67.62 241.22 67.62 239.83 64 238.41 67.62"/><polygon class="cls-3" points="413.37 67.62 416.18 67.62 414.79 64 413.37 67.62"/><path class="cls-3" d="M431,29.2H120.22a65.49,65.49,0,0,1,0,72.89H431l28.11-36.45ZM388,58.26l.85,1,.87-1h1.85L390,60.48h-2.27l-1.58-2.22Zm-10.28,0,.85,1,.87-1h1.85l-1.58,2.22h-2.27l-1.58-2.22Zm-78.05,0,.85,1,.87-1h1.85l-1.58,2.22h-2.27l-1.58-2.22Zm-10.28,0,.85,1,.87-1H293l-1.58,2.22h-2.27l-1.58-2.22Zm-99.11,0,.85,1,.87-1h1.85l-1.58,2.22H190l-1.58-2.22Zm-10.28,0,.85,1,.87-1h1.85L182,60.48h-2.27l-1.58-2.22Zm-18.87,0,.85,1,.87-1h1.85l-1.58,2.22h-2.27l-1.58-2.22Zm3.08,12.85a5.45,5.45,0,0,1-5-.18,5.07,5.07,0,0,1-1.91-1.9,5.28,5.28,0,0,1-.69-2.69,5.06,5.06,0,0,1,2.66-4.53,5.77,5.77,0,0,1,5-.21,5.52,5.52,0,0,1,1.87,1.28l-1.53,1.85a3.79,3.79,0,0,0-1.17-1,2.82,2.82,0,0,0-1.35-.37,2.63,2.63,0,0,0-1.4.38,2.72,2.72,0,0,0-1,1.06,3.28,3.28,0,0,0,0,3,2.72,2.72,0,0,0,1,1.06,2.63,2.63,0,0,0,1.4.38,3.07,3.07,0,0,0,1.3-.32,4.13,4.13,0,0,0,1.22-.87l1.55,1.67A6.18,6.18,0,0,1,164.24,71.11Zm11.24.33h-8.15V61.29h8V63.4H170v1.9h4.84v2.1H170v1.91h5.5Zm9.09-1.28a3.25,3.25,0,0,1-1.47,1.08,5.71,5.71,0,0,1-2.08.36,7.5,7.5,0,0,1-2.51-.44,6.86,6.86,0,0,1-2.16-1.21l1-2.07A6.38,6.38,0,0,0,179.2,69a5,5,0,0,0,1.86.43,1.72,1.72,0,0,0,.93-.22.71.71,0,0,0,.34-.64.75.75,0,0,0-.25-.58,1.86,1.86,0,0,0-.64-.37c-.26-.09-.62-.2-1.08-.33a13.39,13.39,0,0,1-1.72-.59,3.05,3.05,0,0,1-1.17-.9,2.47,2.47,0,0,1-.48-1.6,2.79,2.79,0,0,1,.5-1.65,3.18,3.18,0,0,1,1.42-1.09,5.52,5.52,0,0,1,2.14-.38,7.76,7.76,0,0,1,2.17.31,7.13,7.13,0,0,1,1.88.83l-1,2.11a8.87,8.87,0,0,0-1.73-.78,5.09,5.09,0,0,0-1.54-.3,1.43,1.43,0,0,0-.77.18.59.59,0,0,0-.28.53.72.72,0,0,0,.25.56,1.89,1.89,0,0,0,.61.36q.36.14,1.07.35a14.13,14.13,0,0,1,1.75.61,3.06,3.06,0,0,1,1.18.93,2.59,2.59,0,0,1,.49,1.64A2.81,2.81,0,0,1,184.58,70.16Zm8.81,1a5.45,5.45,0,0,1-5-.18,5.07,5.07,0,0,1-1.91-1.9,5.28,5.28,0,0,1-.69-2.69,5.06,5.06,0,0,1,2.66-4.53,5.77,5.77,0,0,1,5-.21,5.52,5.52,0,0,1,1.87,1.28l-1.53,1.85a3.79,3.79,0,0,0-1.17-1,2.82,2.82,0,0,0-1.35-.37,2.63,2.63,0,0,0-1.4.38,2.72,2.72,0,0,0-1,1.06,3.28,3.28,0,0,0,0,3,2.72,2.72,0,0,0,1,1.06,2.63,2.63,0,0,0,1.4.38,3.07,3.07,0,0,0,1.3-.32,4.13,4.13,0,0,0,1.22-.87l1.55,1.67A6.18,6.18,0,0,1,193.39,71.11Zm5.74.33h-2.65V61.29h2.65Zm11.37,0h-2.32l-4.6-6.07v6.07H201.1V61.29h2.33L208,67.4V61.29h2.46Zm9.44,0-.69-1.8h-4.39l-.71,1.8h-2.72l4.36-10.15h2.72l4.26,10.15ZM227.52,73h-2.17L230,59.71h2.17Zm15.17-1.59-.69-1.8h-4.39l-.71,1.8h-2.72l4.36-10.15h2.72l4.26,10.15Zm13.13,0h-2.32l-4.6-6.07v6.07h-2.48V61.29h2.33l4.62,6.11V61.29h2.46Zm4.43-3.54a2.77,2.77,0,0,0,1,1.08,2.86,2.86,0,0,0,1.48.39,4,4,0,0,0,1.75-.49V66.26h2.29v4a6.75,6.75,0,0,1-2,1,7.49,7.49,0,0,1-2.24.37,5.61,5.61,0,0,1-2.77-.69,5.09,5.09,0,0,1-1.95-1.89,5.2,5.2,0,0,1-.71-2.69,5,5,0,0,1,.73-2.67,5.12,5.12,0,0,1,2-1.88,6,6,0,0,1,2.86-.68,6.55,6.55,0,0,1,2.26.41,5.87,5.87,0,0,1,1.91,1.11l-1.51,1.85a4.22,4.22,0,0,0-1.27-.83,3.6,3.6,0,0,0-1.41-.3,2.79,2.79,0,0,0-1.46.39,2.82,2.82,0,0,0-1,1.07,3.09,3.09,0,0,0-.38,1.52A3.16,3.16,0,0,0,260.26,67.9Zm15.26,3.54h-6.95V61.29h2.65v7.89h4.3Zm9.35,0h-8.15V61.29h8V63.4h-5.36v1.9h4.84v2.1h-4.84v1.91h5.5ZM294,70.16a3.25,3.25,0,0,1-1.47,1.08,5.71,5.71,0,0,1-2.08.36,7.5,7.5,0,0,1-2.51-.44,6.86,6.86,0,0,1-2.16-1.21l1-2.07A6.38,6.38,0,0,0,288.59,69a5,5,0,0,0,1.86.43,1.72,1.72,0,0,0,.93-.22.71.71,0,0,0,.34-.64.75.75,0,0,0-.25-.58,1.86,1.86,0,0,0-.64-.37c-.26-.09-.62-.2-1.08-.33a13.39,13.39,0,0,1-1.72-.59,3.05,3.05,0,0,1-1.17-.9,2.47,2.47,0,0,1-.48-1.6,2.79,2.79,0,0,1,.5-1.65,3.18,3.18,0,0,1,1.42-1.09,5.52,5.52,0,0,1,2.14-.38,7.76,7.76,0,0,1,2.17.31,7.13,7.13,0,0,1,1.88.83l-1,2.11a8.87,8.87,0,0,0-1.73-.78,5.09,5.09,0,0,0-1.54-.3,1.43,1.43,0,0,0-.77.18.59.59,0,0,0-.28.53.72.72,0,0,0,.25.56,1.89,1.89,0,0,0,.61.36q.36.14,1.07.35a14.13,14.13,0,0,1,1.75.61,3.06,3.06,0,0,1,1.18.93,2.59,2.59,0,0,1,.49,1.64A2.81,2.81,0,0,1,294,70.16Zm8.81,1a5.45,5.45,0,0,1-5-.18,5.07,5.07,0,0,1-1.91-1.9,5.28,5.28,0,0,1-.69-2.69,5.06,5.06,0,0,1,2.66-4.53,5.77,5.77,0,0,1,5-.21,5.52,5.52,0,0,1,1.87,1.28l-1.53,1.85a3.79,3.79,0,0,0-1.17-1,2.82,2.82,0,0,0-1.35-.37,2.63,2.63,0,0,0-1.4.38,2.72,2.72,0,0,0-1,1.06,3.28,3.28,0,0,0,0,3,2.72,2.72,0,0,0,1,1.06,2.63,2.63,0,0,0,1.4.38,3.07,3.07,0,0,0,1.3-.32,4.13,4.13,0,0,0,1.22-.87l1.55,1.67A6.18,6.18,0,0,1,302.78,71.11Zm5.74.33h-2.65V61.29h2.65Zm11.37,0h-2.32L313,65.37v6.07h-2.48V61.29h2.33l4.62,6.11V61.29h2.46Zm9.44,0-.69-1.8h-4.39l-.71,1.8h-2.72l4.36-10.15h2.72l4.26,10.15ZM336.91,73h-2.17l4.69-13.32h2.17Zm15.19-2.87a3.25,3.25,0,0,1-1.47,1.08,5.71,5.71,0,0,1-2.08.36,7.5,7.5,0,0,1-2.51-.44,6.86,6.86,0,0,1-2.16-1.21l1-2.07A6.38,6.38,0,0,0,346.72,69a5,5,0,0,0,1.86.43,1.72,1.72,0,0,0,.93-.22.71.71,0,0,0,.34-.64.75.75,0,0,0-.25-.58,1.86,1.86,0,0,0-.64-.37c-.26-.09-.62-.2-1.08-.33a13.39,13.39,0,0,1-1.72-.59,3.05,3.05,0,0,1-1.17-.9,2.47,2.47,0,0,1-.48-1.6,2.79,2.79,0,0,1,.5-1.65,3.18,3.18,0,0,1,1.42-1.09,5.52,5.52,0,0,1,2.14-.38,7.76,7.76,0,0,1,2.17.31,7.13,7.13,0,0,1,1.88.83l-1,2.11a8.87,8.87,0,0,0-1.73-.78,5.09,5.09,0,0,0-1.54-.3,1.43,1.43,0,0,0-.77.18.59.59,0,0,0-.28.53.72.72,0,0,0,.25.56,1.89,1.89,0,0,0,.61.36q.36.14,1.07.35a14.13,14.13,0,0,1,1.75.61,3.06,3.06,0,0,1,1.18.93,2.59,2.59,0,0,1,.49,1.64A2.81,2.81,0,0,1,352.1,70.16Zm8,1.28-1.48-2.81h-2v2.81H354V61.29h4.56a4.7,4.7,0,0,1,3.12.93,3.24,3.24,0,0,1,1.11,2.63,4,4,0,0,1-.46,2,3.2,3.2,0,0,1-1.35,1.3l2.11,3.32Zm12.83-1.32a3,3,0,0,1-1.36,1,5.75,5.75,0,0,1-2.07.34h-5V61.29h4.82a5.76,5.76,0,0,1,2,.31,2.91,2.91,0,0,1,1.31.89,2.12,2.12,0,0,1,.46,1.36,2.17,2.17,0,0,1-.47,1.39,2.36,2.36,0,0,1-1.28.81,2.5,2.5,0,0,1,1.53.88,2.6,2.6,0,0,1,.56,1.68A2.45,2.45,0,0,1,372.9,70.11Zm9.4,0a3.25,3.25,0,0,1-1.47,1.08,5.71,5.71,0,0,1-2.08.36,7.5,7.5,0,0,1-2.51-.44,6.86,6.86,0,0,1-2.16-1.21l1-2.07A6.38,6.38,0,0,0,376.92,69a5,5,0,0,0,1.86.43,1.72,1.72,0,0,0,.93-.22.71.71,0,0,0,.34-.64.75.75,0,0,0-.25-.58,1.86,1.86,0,0,0-.64-.37c-.26-.09-.62-.2-1.08-.33a13.39,13.39,0,0,1-1.72-.59,3.05,3.05,0,0,1-1.17-.9,2.47,2.47,0,0,1-.48-1.6,2.79,2.79,0,0,1,.5-1.65,3.18,3.18,0,0,1,1.42-1.09,5.52,5.52,0,0,1,2.14-.38,7.76,7.76,0,0,1,2.17.31,7.13,7.13,0,0,1,1.88.83l-1,2.11a8.87,8.87,0,0,0-1.73-.78,5.09,5.09,0,0,0-1.54-.3,1.43,1.43,0,0,0-.77.18.59.59,0,0,0-.28.53.72.72,0,0,0,.25.56,1.89,1.89,0,0,0,.61.36q.36.14,1.07.35a14.13,14.13,0,0,1,1.75.61,3.06,3.06,0,0,1,1.18.93,2.59,2.59,0,0,1,.49,1.64A2.81,2.81,0,0,1,382.3,70.16Zm8.81,1a5.45,5.45,0,0,1-5-.18,5.07,5.07,0,0,1-1.91-1.9,5.28,5.28,0,0,1-.69-2.69,5.06,5.06,0,0,1,2.66-4.53,5.77,5.77,0,0,1,5-.21,5.52,5.52,0,0,1,1.87,1.28l-1.53,1.85a3.79,3.79,0,0,0-1.17-1,2.82,2.82,0,0,0-1.35-.37,2.63,2.63,0,0,0-1.4.38,2.72,2.72,0,0,0-1,1.06,3.28,3.28,0,0,0,0,3,2.72,2.72,0,0,0,1,1.06,2.63,2.63,0,0,0,1.4.38,3.07,3.07,0,0,0,1.3-.32,4.13,4.13,0,0,0,1.22-.87l1.55,1.67A6.18,6.18,0,0,1,391.11,71.11Zm5.74.33H394.2V61.29h2.65Zm11.37,0H405.9l-4.6-6.07v6.07h-2.48V61.29h2.33l4.62,6.11V61.29h2.46Zm9.44,0-.69-1.8h-4.39l-.71,1.8h-2.72l4.36-10.15h2.72l4.26,10.15Z"/><path class="cls-2" d="M163.44,68.93a3.07,3.07,0,0,1-1.3.32,2.63,2.63,0,0,1-1.4-.38,2.72,2.72,0,0,1-1-1.06,3.28,3.28,0,0,1,0-3,2.72,2.72,0,0,1,1-1.06,2.63,2.63,0,0,1,1.4-.38,2.82,2.82,0,0,1,1.35.37,3.79,3.79,0,0,1,1.17,1l1.53-1.85a5.52,5.52,0,0,0-1.87-1.28,5.77,5.77,0,0,0-5,.21,5.06,5.06,0,0,0-2.66,4.53,5.28,5.28,0,0,0,.69,2.69,5.07,5.07,0,0,0,1.91,1.9,5.45,5.45,0,0,0,5,.18,6.18,6.18,0,0,0,2-1.38l-1.55-1.67A4.13,4.13,0,0,1,163.44,68.93Z"/><polygon class="cls-2" points="163.16 60.48 164.74 58.26 162.89 58.26 162.02 59.23 161.17 58.26 159.31 58.26 160.89 60.48 163.16 60.48"/><polygon class="cls-2" points="169.99 67.41 174.82 67.4 174.82 65.3 169.99 65.3 169.99 63.4 175.34 63.4 175.34 61.29 167.34 61.29 167.34 71.44 175.49 71.44 175.49 69.33 169.99 69.33 169.99 67.41"/><polygon class="cls-2" points="182.03 60.48 183.61 58.26 181.76 58.26 180.89 59.23 180.03 58.26 178.18 58.26 179.76 60.48 182.03 60.48"/><path class="cls-2" d="M183.44,65.85a14.13,14.13,0,0,0-1.75-.61q-.71-.22-1.07-.35a1.89,1.89,0,0,1-.61-.36.72.72,0,0,1-.25-.56.59.59,0,0,1,.28-.53,1.43,1.43,0,0,1,.77-.18,5.09,5.09,0,0,1,1.54.3,8.87,8.87,0,0,1,1.73.78l1-2.11a7.13,7.13,0,0,0-1.88-.83,7.76,7.76,0,0,0-2.17-.31,5.52,5.52,0,0,0-2.14.38,3.18,3.18,0,0,0-1.42,1.09,2.79,2.79,0,0,0-.5,1.65,2.47,2.47,0,0,0,.48,1.6,3.05,3.05,0,0,0,1.17.9,13.39,13.39,0,0,0,1.72.59c.46.12.82.23,1.08.33a1.86,1.86,0,0,1,.64.37.75.75,0,0,1,.25.58.71.71,0,0,1-.34.64,1.72,1.72,0,0,1-.93.22A5,5,0,0,1,179.2,69a6.38,6.38,0,0,1-1.82-1.12l-1,2.07a6.86,6.86,0,0,0,2.16,1.21,7.5,7.5,0,0,0,2.51.44,5.71,5.71,0,0,0,2.08-.36,3.25,3.25,0,0,0,1.47-1.08,2.81,2.81,0,0,0,.54-1.73,2.59,2.59,0,0,0-.49-1.64A3.06,3.06,0,0,0,183.44,65.85Z"/><polygon class="cls-2" points="192.31 60.48 193.89 58.26 192.04 58.26 191.17 59.23 190.31 58.26 188.46 58.26 190.04 60.48 192.31 60.48"/><path class="cls-2" d="M192.59,68.93a3.07,3.07,0,0,1-1.3.32,2.63,2.63,0,0,1-1.4-.38,2.72,2.72,0,0,1-1-1.06,3.28,3.28,0,0,1,0-3,2.72,2.72,0,0,1,1-1.06,2.63,2.63,0,0,1,1.4-.38,2.82,2.82,0,0,1,1.35.37,3.79,3.79,0,0,1,1.17,1l1.53-1.85a5.52,5.52,0,0,0-1.87-1.28,5.77,5.77,0,0,0-5,.21,5.06,5.06,0,0,0-2.66,4.53,5.28,5.28,0,0,0,.69,2.69,5.07,5.07,0,0,0,1.91,1.9,5.45,5.45,0,0,0,5,.18,6.18,6.18,0,0,0,2-1.38l-1.55-1.67A4.13,4.13,0,0,1,192.59,68.93Z"/><rect class="cls-2" x="196.48" y="61.29" width="2.65" height="10.15"/><polygon class="cls-2" points="208.05 67.4 203.43 61.29 201.1 61.29 201.1 71.44 203.58 71.44 203.58 65.37 208.18 71.44 210.5 71.44 210.5 61.29 208.03 61.29 208.05 67.4"/><path class="cls-2" d="M215.78,61.29l-4.36,10.15h2.72l.71-1.8h4.39l.69,1.8h2.82L218.5,61.29Zm-.13,6.33L217.07,64l1.39,3.62Z"/><polygon class="cls-2" points="225.35 73.03 227.52 73.03 232.21 59.71 230.04 59.71 225.35 73.03"/><path class="cls-2" d="M238.54,61.29l-4.36,10.15h2.72l.71-1.8H242l.69,1.8h2.82l-4.26-10.15Zm-.13,6.33L239.83,64l1.39,3.62Z"/><polygon class="cls-2" points="253.38 67.4 248.76 61.29 246.43 61.29 246.43 71.44 248.91 71.44 248.91 65.37 253.51 71.44 255.83 71.44 255.83 61.29 253.37 61.29 253.38 67.4"/><path class="cls-2" d="M261.29,63.76a2.79,2.79,0,0,1,1.46-.39,3.6,3.6,0,0,1,1.41.3,4.22,4.22,0,0,1,1.27.83l1.51-1.85A5.87,5.87,0,0,0,265,61.54a6.55,6.55,0,0,0-2.26-.41,6,6,0,0,0-2.86.68,5.12,5.12,0,0,0-2,1.88,5,5,0,0,0-.73,2.67,5.2,5.2,0,0,0,.71,2.69,5.09,5.09,0,0,0,1.95,1.89,5.61,5.61,0,0,0,2.77.69,7.49,7.49,0,0,0,2.24-.37,6.75,6.75,0,0,0,2-1v-4h-2.29v2.62a4,4,0,0,1-1.75.49A2.86,2.86,0,0,1,261.3,69a2.77,2.77,0,0,1-1-1.08,3.16,3.16,0,0,1-.38-1.54,3.09,3.09,0,0,1,.38-1.52A2.82,2.82,0,0,1,261.29,63.76Z"/><polygon class="cls-2" points="271.22 61.29 268.57 61.29 268.57 71.44 275.52 71.44 275.52 69.18 271.22 69.18 271.22 61.29"/><polygon class="cls-2" points="279.37 67.41 284.21 67.4 284.21 65.3 279.37 65.3 279.37 63.4 284.73 63.4 284.73 61.29 276.72 61.29 276.72 71.44 284.87 71.44 284.87 69.33 279.37 69.33 279.37 67.41"/><polygon class="cls-2" points="291.42 60.48 293 58.26 291.14 58.26 290.27 59.23 289.42 58.26 287.57 58.26 289.14 60.48 291.42 60.48"/><path class="cls-2" d="M292.83,65.85a14.13,14.13,0,0,0-1.75-.61q-.71-.22-1.07-.35a1.89,1.89,0,0,1-.61-.36.72.72,0,0,1-.25-.56.59.59,0,0,1,.28-.53,1.43,1.43,0,0,1,.77-.18,5.09,5.09,0,0,1,1.54.3,8.87,8.87,0,0,1,1.73.78l1-2.11a7.13,7.13,0,0,0-1.88-.83,7.76,7.76,0,0,0-2.17-.31,5.52,5.52,0,0,0-2.14.38,3.18,3.18,0,0,0-1.42,1.09,2.79,2.79,0,0,0-.5,1.65,2.47,2.47,0,0,0,.48,1.6,3.05,3.05,0,0,0,1.17.9,13.39,13.39,0,0,0,1.72.59c.46.12.82.23,1.08.33a1.86,1.86,0,0,1,.64.37.75.75,0,0,1,.25.58.71.71,0,0,1-.34.64,1.72,1.72,0,0,1-.93.22,5,5,0,0,1-1.86-.43,6.38,6.38,0,0,1-1.82-1.12l-1,2.07a6.86,6.86,0,0,0,2.16,1.21,7.5,7.5,0,0,0,2.51.44,5.71,5.71,0,0,0,2.08-.36A3.25,3.25,0,0,0,294,70.16a2.81,2.81,0,0,0,.54-1.73,2.59,2.59,0,0,0-.49-1.64A3.06,3.06,0,0,0,292.83,65.85Z"/><path class="cls-2" d="M302,68.93a3.07,3.07,0,0,1-1.3.32,2.63,2.63,0,0,1-1.4-.38,2.72,2.72,0,0,1-1-1.06,3.28,3.28,0,0,1,0-3,2.72,2.72,0,0,1,1-1.06,2.63,2.63,0,0,1,1.4-.38,2.82,2.82,0,0,1,1.35.37,3.79,3.79,0,0,1,1.17,1l1.53-1.85a5.52,5.52,0,0,0-1.87-1.28,5.77,5.77,0,0,0-5,.21,5.06,5.06,0,0,0-2.66,4.53,5.28,5.28,0,0,0,.69,2.69,5.07,5.07,0,0,0,1.91,1.9,5.45,5.45,0,0,0,5,.18,6.18,6.18,0,0,0,2-1.38l-1.55-1.67A4.13,4.13,0,0,1,302,68.93Z"/><polygon class="cls-2" points="301.7 60.48 303.28 58.26 301.42 58.26 300.55 59.23 299.7 58.26 297.85 58.26 299.42 60.48 301.7 60.48"/><rect class="cls-2" x="305.87" y="61.29" width="2.65" height="10.15"/><polygon class="cls-2" points="317.44 67.4 312.82 61.29 310.49 61.29 310.49 71.44 312.96 71.44 312.96 65.37 317.57 71.44 319.88 71.44 319.88 61.29 317.42 61.29 317.44 67.4"/><path class="cls-2" d="M325.17,61.29l-4.36,10.15h2.72l.71-1.8h4.39l.69,1.8h2.82l-4.26-10.15ZM325,67.62,326.46,64l1.39,3.62Z"/><polygon class="cls-2" points="334.74 73.03 336.91 73.03 341.6 59.71 339.43 59.71 334.74 73.03"/><path class="cls-2" d="M351,65.85a14.13,14.13,0,0,0-1.75-.61q-.71-.22-1.07-.35a1.89,1.89,0,0,1-.61-.36.72.72,0,0,1-.25-.56.59.59,0,0,1,.28-.53,1.43,1.43,0,0,1,.77-.18,5.09,5.09,0,0,1,1.54.3,8.87,8.87,0,0,1,1.73.78l1-2.11a7.13,7.13,0,0,0-1.88-.83,7.76,7.76,0,0,0-2.17-.31,5.52,5.52,0,0,0-2.14.38A3.18,3.18,0,0,0,345,62.56a2.79,2.79,0,0,0-.5,1.65,2.47,2.47,0,0,0,.48,1.6,3.05,3.05,0,0,0,1.17.9,13.39,13.39,0,0,0,1.72.59c.46.12.82.23,1.08.33a1.86,1.86,0,0,1,.64.37.75.75,0,0,1,.25.58.71.71,0,0,1-.34.64,1.72,1.72,0,0,1-.93.22,5,5,0,0,1-1.86-.43,6.38,6.38,0,0,1-1.82-1.12l-1,2.07A6.86,6.86,0,0,0,346,71.16a7.5,7.5,0,0,0,2.51.44,5.71,5.71,0,0,0,2.08-.36,3.25,3.25,0,0,0,1.47-1.08,2.81,2.81,0,0,0,.54-1.73,2.59,2.59,0,0,0-.49-1.64A3.06,3.06,0,0,0,351,65.85Z"/><path class="cls-2" d="M362.31,66.83a4,4,0,0,0,.46-2,3.24,3.24,0,0,0-1.11-2.63,4.7,4.7,0,0,0-3.12-.93H354V71.44h2.65V68.63h2l1.48,2.81h3L361,68.12A3.2,3.2,0,0,0,362.31,66.83Zm-2.5-.72a1.79,1.79,0,0,1-1.25.41h-1.93V63.4h1.93a1.81,1.81,0,0,1,1.25.4,1.45,1.45,0,0,1,.44,1.14A1.51,1.51,0,0,1,359.81,66.11Z"/><path class="cls-2" d="M371.3,66.05a2.36,2.36,0,0,0,1.28-.81,2.17,2.17,0,0,0,.47-1.39,2.12,2.12,0,0,0-.46-1.36,2.91,2.91,0,0,0-1.31-.89,5.76,5.76,0,0,0-2-.31h-4.82V71.44h5a5.75,5.75,0,0,0,2.07-.34,3,3,0,0,0,1.36-1,2.45,2.45,0,0,0,.48-1.5,2.6,2.6,0,0,0-.56-1.68A2.5,2.5,0,0,0,371.3,66.05Zm-4.18-2.69h2a1.31,1.31,0,0,1,.87.24.87.87,0,0,1,.32.72.92.92,0,0,1-.32.75,1.3,1.3,0,0,1-.87.27h-2Zm3.13,5.73a1.87,1.87,0,0,1-1.1.29h-2V67.25h2a1.83,1.83,0,0,1,1.1.27.88.88,0,0,1,.41.76A.94.94,0,0,1,370.24,69.09Z"/><path class="cls-2" d="M381.16,65.85a14.13,14.13,0,0,0-1.75-.61q-.71-.22-1.07-.35a1.89,1.89,0,0,1-.61-.36.72.72,0,0,1-.25-.56.59.59,0,0,1,.28-.53,1.43,1.43,0,0,1,.77-.18,5.09,5.09,0,0,1,1.54.3,8.87,8.87,0,0,1,1.73.78l1-2.11a7.13,7.13,0,0,0-1.88-.83,7.76,7.76,0,0,0-2.17-.31,5.52,5.52,0,0,0-2.14.38,3.18,3.18,0,0,0-1.42,1.09,2.79,2.79,0,0,0-.5,1.65,2.47,2.47,0,0,0,.48,1.6,3.05,3.05,0,0,0,1.17.9,13.39,13.39,0,0,0,1.72.59c.46.12.82.23,1.08.33a1.86,1.86,0,0,1,.64.37.75.75,0,0,1,.25.58.71.71,0,0,1-.34.64,1.72,1.72,0,0,1-.93.22,5,5,0,0,1-1.86-.43,6.38,6.38,0,0,1-1.82-1.12l-1,2.07a6.86,6.86,0,0,0,2.16,1.21,7.5,7.5,0,0,0,2.51.44,5.71,5.71,0,0,0,2.08-.36,3.25,3.25,0,0,0,1.47-1.08,2.81,2.81,0,0,0,.54-1.73,2.59,2.59,0,0,0-.49-1.64A3.06,3.06,0,0,0,381.16,65.85Z"/><polygon class="cls-2" points="379.75 60.48 381.33 58.26 379.48 58.26 378.61 59.23 377.75 58.26 375.9 58.26 377.48 60.48 379.75 60.48"/><polygon class="cls-2" points="390.03 60.48 391.61 58.26 389.76 58.26 388.89 59.23 388.03 58.26 386.18 58.26 387.76 60.48 390.03 60.48"/><path class="cls-2" d="M390.31,68.93a3.07,3.07,0,0,1-1.3.32,2.63,2.63,0,0,1-1.4-.38,2.72,2.72,0,0,1-1-1.06,3.28,3.28,0,0,1,0-3,2.72,2.72,0,0,1,1-1.06,2.63,2.63,0,0,1,1.4-.38,2.82,2.82,0,0,1,1.35.37,3.79,3.79,0,0,1,1.17,1l1.53-1.85a5.52,5.52,0,0,0-1.87-1.28,5.77,5.77,0,0,0-5,.21,5.06,5.06,0,0,0-2.66,4.53,5.28,5.28,0,0,0,.69,2.69,5.07,5.07,0,0,0,1.91,1.9,5.45,5.45,0,0,0,5,.18,6.18,6.18,0,0,0,2-1.38l-1.55-1.67A4.13,4.13,0,0,1,390.31,68.93Z"/><rect class="cls-2" x="394.2" y="61.29" width="2.65" height="10.15"/><polygon class="cls-2" points="405.77 67.4 401.15 61.29 398.82 61.29 398.82 71.44 401.3 71.44 401.3 65.37 405.9 71.44 408.22 71.44 408.22 61.29 405.75 61.29 405.77 67.4"/><path class="cls-2" d="M413.5,61.29l-4.36,10.15h2.72l.71-1.8H417l.69,1.8h2.82l-4.26-10.15Zm-.13,6.33L414.79,64l1.39,3.62Z"/><path class="cls-1" d="M65.65,8.88a56.77,56.77,0,1,0,56.77,56.77A56.83,56.83,0,0,0,65.65,8.88ZM86.51,82V93.67H44.3l-.08-9.56L64.38,63.39a28.61,28.61,0,0,0,3.87-4.9,8.44,8.44,0,0,0,1.5-4.19,4.11,4.11,0,0,0-1.66-3.52,7.74,7.74,0,0,0-4.66-1.22A18,18,0,0,0,56,51.42a32.42,32.42,0,0,0-7.86,5.18L42.64,45.93q11.46-8.3,23-8.3a25.73,25.73,0,0,1,9.92,1.82,16,16,0,0,1,6.88,5.14,12.31,12.31,0,0,1,2.49,7.59A16.79,16.79,0,0,1,82.13,61a54.83,54.83,0,0,1-7.94,9.68L62.88,82Z"/><path class="cls-2" d="M120.22,29.2a65.49,65.49,0,1,0,11.08,36.44A65.63,65.63,0,0,0,120.22,29.2ZM65.65,122.41a56.77,56.77,0,1,1,56.77-56.77A56.83,56.83,0,0,1,65.65,122.41Z"/><path class="cls-2" d="M82.13,61a16.79,16.79,0,0,0,2.81-8.81,12.31,12.31,0,0,0-2.49-7.59,16,16,0,0,0-6.88-5.14,25.73,25.73,0,0,0-9.92-1.82q-11.54,0-23,8.3L48.18,56.6A32.42,32.42,0,0,1,56,51.42a18,18,0,0,1,7.39-1.86,7.74,7.74,0,0,1,4.66,1.22,4.11,4.11,0,0,1,1.66,3.52,8.44,8.44,0,0,1-1.5,4.19,28.61,28.61,0,0,1-3.87,4.9L44.22,84.1l.08,9.56H86.51V82H62.88l11.3-11.38A54.83,54.83,0,0,0,82.13,61Z"/><path class="cls-2" d="M495.92,66.86a13.85,13.85,0,0,0-1.57-.57q-.78-.24-1.21-.43a2.12,2.12,0,0,1-.74-.5,1.16,1.16,0,0,1-.3-.82,1,1,0,0,1,.5-.88,2.43,2.43,0,0,1,1.33-.32,4.68,4.68,0,0,1,1.31.21,5.5,5.5,0,0,1,1.38.63l.55-1.17a5.65,5.65,0,0,0-1.46-.67,5.72,5.72,0,0,0-1.68-.25,4.63,4.63,0,0,0-1.77.31,2.66,2.66,0,0,0-1.19.9,2.25,2.25,0,0,0-.42,1.35,2.21,2.21,0,0,0,.42,1.4,2.67,2.67,0,0,0,1,.8,12.45,12.45,0,0,0,1.55.56q.78.23,1.23.42a2.12,2.12,0,0,1,.76.52,1.18,1.18,0,0,1,.3.83,1.17,1.17,0,0,1-.55,1,2.64,2.64,0,0,1-1.51.38,4.22,4.22,0,0,1-1.66-.36,4.92,4.92,0,0,1-1.53-1l-.59,1.13a5.54,5.54,0,0,0,1.72,1.09,5.33,5.33,0,0,0,2,.41,4.7,4.7,0,0,0,1.83-.33,2.83,2.83,0,0,0,1.24-.95,2.38,2.38,0,0,0,.44-1.43,2.25,2.25,0,0,0-.42-1.42A2.72,2.72,0,0,0,495.92,66.86Z"/><polygon class="cls-2" points="500.76 62.19 499.45 62.19 499.45 71.72 504.93 71.72 504.93 70.54 500.76 70.54 500.76 62.19"/><path class="cls-2" d="M513.29,62.74a5.32,5.32,0,0,0-5.06,0,4.82,4.82,0,0,0-1.81,1.75,4.66,4.66,0,0,0-.67,2.45,4.73,4.73,0,0,0,.67,2.46,4.83,4.83,0,0,0,1.82,1.77,5.26,5.26,0,0,0,5.06,0,4.84,4.84,0,0,0,1.82-1.77,4.73,4.73,0,0,0,.67-2.46,4.66,4.66,0,0,0-.67-2.45A4.81,4.81,0,0,0,513.29,62.74Zm.65,6.05a3.75,3.75,0,0,1-1.34,1.34,3.53,3.53,0,0,1-1.83.5,3.6,3.6,0,0,1-1.85-.5,3.77,3.77,0,0,1-1.36-1.34,3.55,3.55,0,0,1-.5-1.85,3.52,3.52,0,0,1,.5-1.85,3.73,3.73,0,0,1,1.36-1.33,3.63,3.63,0,0,1,1.85-.49,3.56,3.56,0,0,1,1.83.49,3.71,3.71,0,0,1,1.34,1.33,3.55,3.55,0,0,1,.5,1.85A3.59,3.59,0,0,1,513.94,68.8Z"/><polygon class="cls-2" points="520.79 70.27 517.64 62.19 516.24 62.19 520.08 71.72 521.45 71.72 525.32 62.19 523.94 62.19 520.79 70.27"/><polygon class="cls-2" points="528.05 67.5 532.81 67.5 532.81 66.31 528.05 66.31 528.05 63.37 533.37 63.37 533.37 62.19 526.75 62.19 526.75 71.72 533.53 71.72 533.53 70.54 528.05 70.54 528.05 67.5"/><polygon class="cls-2" points="542.43 69.58 536.97 62.19 535.64 62.19 535.64 71.72 536.95 71.72 536.95 64.34 542.4 71.72 543.73 71.72 543.73 62.19 542.43 62.19 542.43 69.58"/><polygon class="cls-2" points="549.71 61.29 551.14 59.47 549.87 59.47 549.04 60.39 548.21 59.47 546.94 59.47 548.37 61.29 549.71 61.29"/><path class="cls-2" d="M551.33,66.86a13.85,13.85,0,0,0-1.57-.57q-.78-.24-1.21-.43a2.12,2.12,0,0,1-.74-.5,1.16,1.16,0,0,1-.3-.82,1,1,0,0,1,.5-.88,2.43,2.43,0,0,1,1.33-.32,4.68,4.68,0,0,1,1.31.21,5.5,5.5,0,0,1,1.38.63l.55-1.17a5.65,5.65,0,0,0-1.46-.67,5.72,5.72,0,0,0-1.68-.25,4.63,4.63,0,0,0-1.77.31,2.66,2.66,0,0,0-1.19.9,2.25,2.25,0,0,0-.42,1.35,2.21,2.21,0,0,0,.42,1.4,2.67,2.67,0,0,0,1,.8,12.45,12.45,0,0,0,1.55.56q.78.23,1.23.42a2.12,2.12,0,0,1,.76.52,1.18,1.18,0,0,1,.3.83,1.17,1.17,0,0,1-.55,1,2.64,2.64,0,0,1-1.51.38,4.22,4.22,0,0,1-1.66-.36,4.92,4.92,0,0,1-1.53-1l-.59,1.13a5.54,5.54,0,0,0,1.72,1.09,5.33,5.33,0,0,0,2,.41,4.7,4.7,0,0,0,1.83-.33,2.83,2.83,0,0,0,1.24-.95,2.38,2.38,0,0,0,.44-1.43,2.25,2.25,0,0,0-.42-1.42A2.72,2.72,0,0,0,551.33,66.86Z"/><path class="cls-2" d="M560.49,70.29a3.73,3.73,0,0,1-1.47.31,3.66,3.66,0,0,1-3.68-3.67,3.59,3.59,0,0,1,.49-1.85,3.68,3.68,0,0,1,4.67-1.5,4,4,0,0,1,1.27.89l.78-.94a4.78,4.78,0,0,0-1.61-1.06A5.13,5.13,0,0,0,559,62.1a5.08,5.08,0,0,0-2.52.64,4.77,4.77,0,0,0-1.81,1.75,4.7,4.7,0,0,0-.66,2.45,4.82,4.82,0,0,0,2.44,4.23,5,5,0,0,0,4.43.24,5.3,5.3,0,0,0,1.68-1.11l-.79-.86A4.24,4.24,0,0,1,560.49,70.29Z"/><polygon class="cls-2" points="559.56 61.29 560.99 59.47 559.72 59.47 558.89 60.39 558.06 59.47 556.79 59.47 558.23 61.29 559.56 61.29"/><rect class="cls-2" x="564.39" y="62.19" width="1.31" height="9.54"/><polygon class="cls-2" points="575.21 69.58 569.74 62.19 568.42 62.19 568.42 71.72 569.73 71.72 569.73 64.34 575.18 71.72 576.5 71.72 576.5 62.19 575.21 62.19 575.21 69.58"/><path class="cls-2" d="M582.15,62.19l-4.24,9.54h1.38l1-2.32h5l1,2.32h1.42l-4.22-9.54Zm-1.35,6,2-4.63,2,4.63Z"/></g></g></svg>