<svg xmlns="http://www.w3.org/2000/svg" viewBox="0 0 232.44 232.44"><defs><style>.cls-1{fill:#00aaaf;}.cls-2{fill:#fff;}</style></defs><title>ang</title><g id="Layer_2" data-name="Layer 2"><g id="Layer_1-2" data-name="Layer 1"><polygon class="cls-1" points="43.49 98.95 67.64 118.97 91.79 98.97 232.44 99.07 232.44 0 0 0 0 99.07 43.49 98.95"/><polygon class="cls-1" points="97.19 113.97 67.64 138.44 38.1 113.97 0 114.07 0 232.44 232.44 232.44 232.44 114.07 97.19 113.97"/><path class="cls-2" d="M73.48,156.55v1H70.8v2.66h-.94v-2.66H67.18v-1h2.69V153.9h.94v2.66Z"/><path class="cls-2" d="M84,152.92a5.11,5.11,0,0,0-1.44-.23,2.66,2.66,0,0,0-1.45.35,1.09,1.09,0,0,0-.54,1,1.27,1.27,0,0,0,.33.9,2.32,2.32,0,0,0,.81.55q.48.2,1.33.47a15.09,15.09,0,0,1,1.72.63,3,3,0,0,1,1.12.89,2.46,2.46,0,0,1,.46,1.56,2.61,2.61,0,0,1-.48,1.57,3.1,3.1,0,0,1-1.36,1,5.15,5.15,0,0,1-2,.37,5.83,5.83,0,0,1-2.24-.45,6,6,0,0,1-1.88-1.19l.64-1.24a5.39,5.39,0,0,0,1.68,1.13,4.63,4.63,0,0,0,1.81.39,2.89,2.89,0,0,0,1.65-.41,1.28,1.28,0,0,0,.6-1.11,1.3,1.3,0,0,0-.33-.91,2.31,2.31,0,0,0-.83-.57,13.91,13.91,0,0,0-1.35-.46,13.76,13.76,0,0,1-1.7-.61,2.93,2.93,0,0,1-1.11-.88,2.42,2.42,0,0,1-.46-1.54,2.46,2.46,0,0,1,.46-1.48,2.93,2.93,0,0,1,1.3-1,5.08,5.08,0,0,1,1.94-.34,6.28,6.28,0,0,1,1.84.28,6.18,6.18,0,0,1,1.6.74l-.6,1.28A6,6,0,0,0,84,152.92Z"/><path class="cls-2" d="M88.6,151.44H90v9.15H94.6v1.3h-6Z"/><path class="cls-2" d="M103.75,152a5.27,5.27,0,0,1,2,1.92,5.11,5.11,0,0,1,.73,2.68,5.18,5.18,0,0,1-.73,2.69,5.29,5.29,0,0,1-2,1.94,5.76,5.76,0,0,1-5.54,0,5.29,5.29,0,0,1-2-1.94,5.18,5.18,0,0,1-.73-2.69,5.11,5.11,0,0,1,.73-2.68,5.29,5.29,0,0,1,2-1.92,5.83,5.83,0,0,1,5.54,0ZM99,153.17a4.08,4.08,0,0,0-1.48,1.46,4,4,0,0,0,0,4A4.11,4.11,0,0,0,99,160.14a3.93,3.93,0,0,0,2,.54,3.86,3.86,0,0,0,2-.54,4.09,4.09,0,0,0,1.46-1.47,4,4,0,0,0,0-4,4.06,4.06,0,0,0-1.46-1.46,3.9,3.9,0,0,0-2-.54A4,4,0,0,0,99,153.17Z"/><path class="cls-2" d="M107,151.44h1.54l3.45,8.85,3.45-8.85h1.51l-4.24,10.44h-1.49Z"/><path class="cls-2" d="M118.49,151.44h7.25v1.3h-5.82V156h5.21v1.3h-5.21v3.33h6v1.3h-7.43Z"/><path class="cls-2" d="M135.66,151.44h1.42v10.44h-1.45l-6-8.09v8.09h-1.43V151.44h1.45l6,8.1Z"/><path class="cls-2" d="M144.66,152.92a5.11,5.11,0,0,0-1.44-.23,2.66,2.66,0,0,0-1.45.35,1.09,1.09,0,0,0-.54,1,1.27,1.27,0,0,0,.33.9,2.32,2.32,0,0,0,.81.55q.48.2,1.33.47a15.17,15.17,0,0,1,1.72.63,3,3,0,0,1,1.12.89A2.45,2.45,0,0,1,147,159a2.61,2.61,0,0,1-.48,1.57,3.11,3.11,0,0,1-1.36,1,5.15,5.15,0,0,1-2,.37,5.83,5.83,0,0,1-2.24-.45,6,6,0,0,1-1.88-1.19l.64-1.24a5.38,5.38,0,0,0,1.68,1.13,4.62,4.62,0,0,0,1.81.39,2.89,2.89,0,0,0,1.65-.41,1.28,1.28,0,0,0,.6-1.11,1.3,1.3,0,0,0-.33-.91,2.32,2.32,0,0,0-.83-.57,14,14,0,0,0-1.35-.46,13.75,13.75,0,0,1-1.7-.61,2.93,2.93,0,0,1-1.11-.88,2.43,2.43,0,0,1-.46-1.54,2.46,2.46,0,0,1,.46-1.48,2.93,2.93,0,0,1,1.3-1,5.08,5.08,0,0,1,1.94-.34,6.28,6.28,0,0,1,1.84.28,6.19,6.19,0,0,1,1.6.74l-.6,1.28A6,6,0,0,0,144.66,152.92Zm-.86-4.45h1.39l-1.57,2h-1.46l-1.57-2H142l.91,1Z"/><path class="cls-2" d="M155.44,153a4,4,0,1,0-1.63,7.68,4.09,4.09,0,0,0,1.61-.34,4.65,4.65,0,0,0,1.4-.92l.87.94a5.81,5.81,0,0,1-1.83,1.22,5.48,5.48,0,0,1-4.85-.27,5.27,5.27,0,0,1-2.67-4.63,5.14,5.14,0,0,1,.72-2.68,5.23,5.23,0,0,1,2-1.92,5.56,5.56,0,0,1,2.76-.7,5.62,5.62,0,0,1,2.11.41,5.24,5.24,0,0,1,1.77,1.16l-.85,1A4.3,4.3,0,0,0,155.44,153Zm-.85-4.5H156l-1.57,2h-1.46l-1.57-2h1.39l.91,1Z"/><path class="cls-2" d="M159.69,151.44h1.43v10.44h-1.43Z"/><path class="cls-2" d="M171.54,151.44H173v10.44h-1.45l-6-8.09v8.09h-1.43V151.44h1.45l6,8.1Z"/><path class="cls-2" d="M183.71,161.88l-1.1-2.54h-5.5L176,161.88h-1.51l4.64-10.44h1.49l4.63,10.44Zm-6-3.83h4.39L179.85,153Z"/><path class="cls-2" d="M73.48,178.93v1H70.8v2.66h-.94v-2.66H67.18v-1h2.69v-2.66h.94v2.66Z"/><path class="cls-2" d="M85.59,175.35A4,4,0,0,0,80.47,177a4.06,4.06,0,0,0,0,4A4,4,0,0,0,84,183a4.09,4.09,0,0,0,1.61-.34,4.66,4.66,0,0,0,1.4-.92l.87.94A5.81,5.81,0,0,1,86,183.92a5.48,5.48,0,0,1-4.85-.27A5.27,5.27,0,0,1,78.49,179a5.14,5.14,0,0,1,.72-2.68,5.23,5.23,0,0,1,2-1.92,5.72,5.72,0,0,1,4.87-.29,5.24,5.24,0,0,1,1.77,1.16l-.85,1A4.31,4.31,0,0,0,85.59,175.35Zm-.85-4.5h1.39l-1.57,2H83.1l-1.57-2h1.39l.91,1Z"/><path class="cls-2" d="M89.84,173.82h7.25v1.3H91.27v3.22h5.21v1.3H91.27V183h6v1.3H89.84Z"/><path class="cls-2" d="M104.17,175.3a5.11,5.11,0,0,0-1.44-.23,2.66,2.66,0,0,0-1.45.35,1.09,1.09,0,0,0-.54,1,1.27,1.27,0,0,0,.33.9,2.32,2.32,0,0,0,.81.55q.48.2,1.33.47a15.09,15.09,0,0,1,1.72.63,3,3,0,0,1,1.12.89,2.46,2.46,0,0,1,.46,1.56,2.61,2.61,0,0,1-.48,1.57,3.1,3.1,0,0,1-1.36,1,5.15,5.15,0,0,1-2,.37,5.83,5.83,0,0,1-2.24-.45,6,6,0,0,1-1.88-1.19l.64-1.24a5.39,5.39,0,0,0,1.68,1.13,4.63,4.63,0,0,0,1.81.39,2.89,2.89,0,0,0,1.65-.41,1.28,1.28,0,0,0,.6-1.11,1.3,1.3,0,0,0-.33-.91,2.31,2.31,0,0,0-.83-.57,13.91,13.91,0,0,0-1.35-.46,13.76,13.76,0,0,1-1.7-.61,2.93,2.93,0,0,1-1.11-.88,2.42,2.42,0,0,1-.46-1.54A2.46,2.46,0,0,1,99.6,175a2.93,2.93,0,0,1,1.3-1,5.08,5.08,0,0,1,1.94-.34,6.28,6.28,0,0,1,1.84.28,6.18,6.18,0,0,1,1.6.74l-.6,1.28A6,6,0,0,0,104.17,175.3Zm-.86-4.45h1.39l-1.57,2h-1.46l-1.57-2h1.39l.91,1Z"/><path class="cls-2" d="M114.95,175.35a4,4,0,0,0-5.12,1.64,4.06,4.06,0,0,0,0,4,4,4,0,0,0,3.49,2,4.09,4.09,0,0,0,1.61-.34,4.66,4.66,0,0,0,1.4-.92l.87.94a5.81,5.81,0,0,1-1.84,1.22,5.48,5.48,0,0,1-4.85-.27,5.27,5.27,0,0,1-2.67-4.63,5.14,5.14,0,0,1,.72-2.68,5.23,5.23,0,0,1,2-1.92,5.72,5.72,0,0,1,4.87-.29,5.24,5.24,0,0,1,1.77,1.16l-.85,1A4.31,4.31,0,0,0,114.95,175.35Zm-.85-4.5h1.39l-1.57,2h-1.46l-1.57-2h1.39l.91,1Z"/><path class="cls-2" d="M119.2,173.82h1.43v10.44H119.2Z"/><path class="cls-2" d="M131,173.82h1.42v10.44H131l-6-8.09v8.09h-1.43V173.82h1.45l6,8.1Z"/><path class="cls-2" d="M143.22,184.26l-1.1-2.54h-5.5l-1.09,2.54H134l4.64-10.44h1.49l4.63,10.44Zm-6-3.83h4.39l-2.21-5.07Z"/><path class="cls-2" d="M73.48,201.31v1H70.8V205h-.94v-2.66H67.18v-1h2.69v-2.66h.94v2.66Z"/><path class="cls-2" d="M84,197.68a5.11,5.11,0,0,0-1.44-.23,2.66,2.66,0,0,0-1.45.35,1.09,1.09,0,0,0-.54,1,1.27,1.27,0,0,0,.33.9,2.32,2.32,0,0,0,.81.55q.48.2,1.33.47a15.09,15.09,0,0,1,1.72.63,3,3,0,0,1,1.12.89,2.46,2.46,0,0,1,.46,1.56,2.61,2.61,0,0,1-.48,1.57,3.1,3.1,0,0,1-1.36,1,5.15,5.15,0,0,1-2,.37,5.83,5.83,0,0,1-2.24-.45,6,6,0,0,1-1.88-1.19l.64-1.24A5.39,5.39,0,0,0,80.67,205a4.63,4.63,0,0,0,1.81.39,2.89,2.89,0,0,0,1.65-.41,1.28,1.28,0,0,0,.6-1.11,1.3,1.3,0,0,0-.33-.91,2.31,2.31,0,0,0-.83-.57,13.91,13.91,0,0,0-1.35-.46,13.76,13.76,0,0,1-1.7-.61,2.93,2.93,0,0,1-1.11-.88,2.42,2.42,0,0,1-.46-1.54,2.46,2.46,0,0,1,.46-1.48,2.93,2.93,0,0,1,1.3-1,5.08,5.08,0,0,1,1.94-.34,6.28,6.28,0,0,1,1.84.28,6.18,6.18,0,0,1,1.6.74l-.6,1.28A6,6,0,0,0,84,197.68Z"/><path class="cls-2" d="M95.35,206.64l-2.07-3.28-.58,0H90v3.25H88.6V196.2h4.09a4.6,4.6,0,0,1,3.07.92,3.22,3.22,0,0,1,1.08,2.6,3.71,3.71,0,0,1-.59,2.13,3.29,3.29,0,0,1-1.69,1.25L97,206.64Zm-2.66-4.55a3.17,3.17,0,0,0,2.06-.59,2.12,2.12,0,0,0,.72-1.74,2,2,0,0,0-.72-1.69,3.22,3.22,0,0,0-2.06-.57H90v4.59Z"/><path class="cls-2" d="M106.36,196.89a2.27,2.27,0,0,1,.92,1.92,2.31,2.31,0,0,1-.51,1.51,2.47,2.47,0,0,1-1.39.83,2.72,2.72,0,0,1,1.71.87,2.59,2.59,0,0,1,.62,1.77,2.47,2.47,0,0,1-1,2.1,4.56,4.56,0,0,1-2.78.75H99.39V196.2h4.46A4.08,4.08,0,0,1,106.36,196.89Zm-1.09,3.33a1.39,1.39,0,0,0,.53-1.17,1.36,1.36,0,0,0-.53-1.15,2.37,2.37,0,0,0-1.5-.39h-3v3.12h3A2.4,2.4,0,0,0,105.27,200.22Zm.32,4.67a1.46,1.46,0,0,0,.66-1.28,1.42,1.42,0,0,0-.66-1.24,3.2,3.2,0,0,0-1.82-.45h-3v3.4h3A3.09,3.09,0,0,0,105.6,204.89Z"/><path class="cls-2" d="M114.6,197.68a5.11,5.11,0,0,0-1.44-.23,2.66,2.66,0,0,0-1.45.35,1.09,1.09,0,0,0-.54,1,1.27,1.27,0,0,0,.33.9,2.32,2.32,0,0,0,.81.55q.48.2,1.33.47a15.09,15.09,0,0,1,1.72.63,3,3,0,0,1,1.12.89,2.46,2.46,0,0,1,.46,1.56,2.61,2.61,0,0,1-.48,1.57,3.1,3.1,0,0,1-1.36,1,5.15,5.15,0,0,1-2,.37,5.83,5.83,0,0,1-2.24-.45,6,6,0,0,1-1.88-1.19l.64-1.24a5.39,5.39,0,0,0,1.68,1.13,4.63,4.63,0,0,0,1.81.39,2.89,2.89,0,0,0,1.65-.41,1.28,1.28,0,0,0,.6-1.11,1.3,1.3,0,0,0-.33-.91,2.31,2.31,0,0,0-.83-.57,13.91,13.91,0,0,0-1.35-.46,13.76,13.76,0,0,1-1.7-.61,2.93,2.93,0,0,1-1.11-.88,2.42,2.42,0,0,1-.46-1.54,2.46,2.46,0,0,1,.46-1.48,2.93,2.93,0,0,1,1.3-1,5.08,5.08,0,0,1,1.94-.34,6.28,6.28,0,0,1,1.84.28,6.18,6.18,0,0,1,1.6.74l-.6,1.28A6,6,0,0,0,114.6,197.68Zm-.86-4.45h1.39l-1.57,2H112.1l-1.57-2h1.39l.91,1Z"/><path class="cls-2" d="M125.38,197.72a4,4,0,1,0-1.62,7.68,4.09,4.09,0,0,0,1.61-.34,4.66,4.66,0,0,0,1.4-.92l.87.94a5.8,5.8,0,0,1-1.84,1.22,5.48,5.48,0,0,1-4.85-.27,5.27,5.27,0,0,1-2.67-4.63,5.14,5.14,0,0,1,.72-2.68,5.23,5.23,0,0,1,2-1.92,5.72,5.72,0,0,1,4.87-.29,5.22,5.22,0,0,1,1.77,1.16l-.85,1A4.31,4.31,0,0,0,125.38,197.72Zm-.85-4.5h1.39l-1.57,2h-1.46l-1.57-2h1.39l.91,1Z"/><path class="cls-2" d="M129.63,196.2h1.43v10.44h-1.43Z"/><path class="cls-2" d="M141.48,196.2h1.42v10.44h-1.45l-6-8.09v8.09H134V196.2h1.45l6,8.1Z"/><path class="cls-2" d="M153.65,206.64l-1.1-2.54H147L146,206.64h-1.51l4.64-10.44h1.49l4.63,10.44Zm-6-3.83H152l-2.21-5.07Z"/><path class="cls-2" d="M95.06,65.54,93.29,61H82.13l-1.8,4.57H73.41L84.49,39.72h6.92l10.83,25.82Zm-10.9-9.72H91.3l-3.54-9.21Z"/><path class="cls-2" d="M122.2,39.72h6.26V65.54h-5.89L110.86,50.11V65.54h-6.3V39.72h5.93l11.75,15.54Z"/><path class="cls-2" d="M150.59,52.35h5.82V62.63a17.22,17.22,0,0,1-5.06,2.45,19.08,19.08,0,0,1-5.69.94,14.28,14.28,0,0,1-7.05-1.75,12.94,12.94,0,0,1-5-4.81,13.22,13.22,0,0,1-1.8-6.85,12.75,12.75,0,0,1,1.86-6.79A13,13,0,0,1,138.83,41a15.26,15.26,0,0,1,7.27-1.73,16.65,16.65,0,0,1,5.75,1,15,15,0,0,1,4.86,2.82l-3.83,4.71a10.75,10.75,0,0,0-3.22-2.1,9.16,9.16,0,0,0-3.59-.77,7.09,7.09,0,0,0-6.33,3.72,7.85,7.85,0,0,0-1,3.87,8,8,0,0,0,1,3.92,7,7,0,0,0,2.65,2.74,7.28,7.28,0,0,0,3.76,1A10.19,10.19,0,0,0,150.59,59Z"/></g></g></svg>