<svg xmlns="http://www.w3.org/2000/svg" viewBox="0 0 363.88 199.66"><defs><style>.cls-1{fill:#fff;}.cls-2{fill:#00aaaf;}</style></defs><title>Bohemia logo</title><g id="Layer_2" data-name="Layer 2"><g id="Layer_1-2" data-name="Layer 1"><g id="_Group_" data-name="&lt;Group&gt;"><g id="_Group_2" data-name="&lt;Group&gt;"><path id="_Compound_Path_" data-name="&lt;Compound Path&gt;" class="cls-1" d="M160.57,112.75H173c7.54,0,12.73,3.87,12.73,10.47v.1c0,7.19-6.22,10.91-13.36,10.91h-9.25V147h-2.55Zm11.94,19.14c6.36,0,10.67-3.33,10.67-8.42v-.1c0-5.43-4.21-8.27-10.38-8.27h-9.69v16.79Z"/><path id="_Compound_Path_2" data-name="&lt;Compound Path&gt;" class="cls-1" d="M189.6,112.75H204c4.21,0,7.59,1.32,9.64,3.38a9,9,0,0,1,2.59,6.36v.1c0,5.73-4.26,9-10,9.79L217.5,147h-3.23l-10.92-14.19H192.14V147H189.6Zm14.1,17.77c5.73,0,10-2.89,10-7.83v-.1c0-4.6-3.62-7.49-9.84-7.49h-11.7v15.42Z"/><path id="_Compound_Path_3" data-name="&lt;Compound Path&gt;" class="cls-1" d="M221.32,112.75h24.38v2.35H223.86v13.46h19.63v2.35H223.86v13.75h22.08V147H221.32Z"/><path id="_Compound_Path_4" data-name="&lt;Compound Path&gt;" class="cls-1" d="M247.51,112.75h2.84l13.41,31.52,13.46-31.52h2.69l-15.08,34.51h-2.25Z"/><path id="_Compound_Path_5" data-name="&lt;Compound Path&gt;" class="cls-1" d="M280,130v-.1c0-9.35,6.9-17.72,17.28-17.72s17.18,8.27,17.18,17.62v.1c0,9.35-6.9,17.72-17.28,17.72S280,139.33,280,130Zm31.82,0v-.1c0-8.47-6.17-15.42-14.63-15.42s-14.54,6.85-14.54,15.32v.1c0,8.47,6.17,15.42,14.63,15.42S311.82,138.45,311.82,130Z"/><path id="_Compound_Path_6" data-name="&lt;Compound Path&gt;" class="cls-1" d="M319.46,112.75h11.41c10.77,0,18.21,7.39,18.21,17v.1c0,9.64-7.44,17.13-18.21,17.13H319.46Zm11.41,31.91c9.55,0,15.57-6.51,15.57-14.68v-.1c0-8.12-6-14.78-15.57-14.78H322v29.56Z"/><path id="_Compound_Path_7" data-name="&lt;Compound Path&gt;" class="cls-1" d="M354.41,112.75H357V147h-2.55Z"/><path id="_Compound_Path_8" data-name="&lt;Compound Path&gt;" class="cls-1" d="M160.36,166.24h13.56c3.71,0,6.71,1.08,8.54,2.91a7.07,7.07,0,0,1,2.11,5.16v.09c0,4.46-2.91,6.71-5.59,7.79,3.94,1,7.42,3.29,7.42,7.84v.09c0,5.49-4.69,9-11.78,9H160.36Zm13.28,15.16c4.93,0,8.45-2.39,8.45-6.76v-.09c0-3.61-3-6.05-8.21-6.05H162.8v12.9Zm1.08,15.44c5.63,0,9.2-2.58,9.2-6.71V190c0-4-3.52-6.38-10-6.38H162.8v13.19Z"/><path id="_Compound_Path_9" data-name="&lt;Compound Path&gt;" class="cls-1" d="M189.27,182.76v-.09c0-9,6.62-17,16.56-17s16.47,7.93,16.47,16.89v.09c0,9-6.62,17-16.57,17S189.27,191.73,189.27,182.76Zm30.5,0v-.09c0-8.12-5.91-14.78-14-14.78s-13.94,6.57-13.94,14.69v.09c0,8.12,5.91,14.78,14,14.78S219.77,190.88,219.77,182.76Z"/><path id="_Compound_Path_10" data-name="&lt;Compound Path&gt;" class="cls-1" d="M227.11,166.24h2.44v15.2h21v-15.2H253v32.85h-2.44V183.7h-21v15.39h-2.44Z"/><path id="_Compound_Path_11" data-name="&lt;Compound Path&gt;" class="cls-1" d="M259.26,166.24h23.37v2.25H261.7v12.9h18.82v2.25H261.7v13.19h21.16v2.25h-23.6Z"/><path id="_Compound_Path_12" data-name="&lt;Compound Path&gt;" class="cls-1" d="M287.19,166.24h2.3l13.19,19.43,13.19-19.43h2.3v32.85h-2.44V170.56l-13,18.91h-.19l-13-18.91v28.53h-2.34Z"/><path id="_Compound_Path_13" data-name="&lt;Compound Path&gt;" class="cls-1" d="M324.74,166.24h2.44v32.85h-2.44Z"/><path id="_Compound_Path_14" data-name="&lt;Compound Path&gt;" class="cls-1" d="M346.23,166h2.35l15.3,33.08H361.2L357,189.9H337.64l-4.18,9.2h-2.53ZM356,187.69l-8.63-19-8.68,19Z"/></g><g id="_Group_3" data-name="&lt;Group&gt;"><path id="_Compound_Path_15" data-name="&lt;Compound Path&gt;" class="cls-2" d="M92.55,0H0V199.66H12.34v-69A30.85,30.85,0,0,1,43.19,99.83H92.55A30.85,30.85,0,0,0,123.4,69V30.85A30.85,30.85,0,0,0,92.55,0Zm18.51,69A18.51,18.51,0,0,1,92.55,87.49H39.29A39.11,39.11,0,0,0,12.34,98.26V30.85A18.51,18.51,0,0,1,30.85,12.34h61.7a18.51,18.51,0,0,1,18.51,18.51Z"/><path id="_Path_" data-name="&lt;Path&gt;" class="cls-1" d="M111.06,112.17v56.64a18.51,18.51,0,0,1-18.51,18.51H24.68v12.34H92.55a30.85,30.85,0,0,0,30.85-30.85v-44.3A12.34,12.34,0,0,0,111.06,112.17Z"/></g></g></g></g></svg>