<svg xmlns="http://www.w3.org/2000/svg" viewBox="0 0 444.32 358.8"><defs><style>.cls-1{fill:#4b88a2;}</style></defs><title>citat</title><g id="Layer_2" data-name="Layer 2"><g id="Layer_1-2" data-name="Layer 1"><path class="cls-1" d="M111.12,178.06a60.06,60.06,0,0,1,14.73-1.34c40.16,0,73.63,38.83,73.63,85.68,0,53.55-41.5,96.39-93.72,96.39C44.18,358.8,0,305.25,0,230.28c0-46.86,18.74-95.06,50.88-137.9C77.65,57.57,121.83,22.76,163.34,0l37.49,58.91C148.61,84.35,117.82,125.85,111.12,178.06Zm243.5,0a60.06,60.06,0,0,1,14.73-1.34c40.16,0,73.63,38.83,73.63,85.68,0,53.55-41.5,96.39-93.72,96.39-61.59,0-105.77-53.55-105.77-128.53,0-46.86,18.74-95.06,50.88-137.9,26.78-34.81,71-69.62,112.46-92.38l37.49,58.91C392.11,84.35,361.32,125.85,354.62,178.06Z"/></g></g></svg>