<svg xmlns="http://www.w3.org/2000/svg" viewBox="0 0 717.15 102.75"><defs><style>.cls-1{fill:#4b88a2;}.cls-2{fill:#fff;}.cls-3{fill:#3e7085;}</style></defs><title>Mobi-3</title><g id="Layer_2" data-name="Layer 2"><g id="Layer_1-2" data-name="Layer 1"><path class="cls-1" d="M530,46.63a4.44,4.44,0,0,0-2.29-.61,4.53,4.53,0,0,0-2.3.61,4.65,4.65,0,0,0-1.69,1.66,4.55,4.55,0,0,0,0,4.62,4.7,4.7,0,0,0,1.69,1.67,4.48,4.48,0,0,0,2.3.62,4.39,4.39,0,0,0,2.29-.62,4.67,4.67,0,0,0,1.67-1.67,4.6,4.6,0,0,0,0-4.62A4.62,4.62,0,0,0,530,46.63Z"/><polygon class="cls-1" points="615.08 52.19 620.08 52.19 617.57 46.41 615.08 52.19"/><path class="cls-1" d="M440.21,13l31.65,37-31.65,37H717.15V13Zm146.5,28.25,1,1.14,1-1.14h1.58l-1.78,2.26h-1.67l-1.79-2.26Zm-12.29,0,1,1.14,1-1.14h1.58l-1.79,2.26h-1.67l-1.79-2.26Zm-64,13.79a3.54,3.54,0,0,1-1.55,1.18,5.89,5.89,0,0,1-2.29.42,6.65,6.65,0,0,1-2.55-.51,6.91,6.91,0,0,1-2.14-1.36l.73-1.41a6.14,6.14,0,0,0,1.91,1.28,5.26,5.26,0,0,0,2.07.45,3.3,3.3,0,0,0,1.88-.47,1.56,1.56,0,0,0,.31-2.3,2.63,2.63,0,0,0-.94-.65,16.18,16.18,0,0,0-1.54-.53,15.78,15.78,0,0,1-1.94-.7,3.35,3.35,0,0,1-1.27-1,2.76,2.76,0,0,1-.52-1.75,2.81,2.81,0,0,1,.53-1.68,3.34,3.34,0,0,1,1.48-1.12,5.78,5.78,0,0,1,2.21-.39,7.17,7.17,0,0,1,2.1.31,7,7,0,0,1,1.83.84l-.68,1.46a6.89,6.89,0,0,0-1.73-.79,5.87,5.87,0,0,0-1.64-.26,3,3,0,0,0-1.66.4,1.24,1.24,0,0,0-.62,1.1,1.45,1.45,0,0,0,.37,1,2.65,2.65,0,0,0,.92.63q.54.23,1.51.54a17.23,17.23,0,0,1,2,.71,3.4,3.4,0,0,1,1.28,1,2.8,2.8,0,0,1,.53,1.78A3,3,0,0,1,510.44,55.06Zm10,1.5H513.6V44.66h1.63V55.08h5.2Zm12.7-2.9a6,6,0,0,1-2.27,2.21,6.56,6.56,0,0,1-6.31,0,6,6,0,0,1-2.27-2.21,5.91,5.91,0,0,1-.83-3.07,5.82,5.82,0,0,1,.83-3.05,6,6,0,0,1,2.26-2.18,6.64,6.64,0,0,1,6.32,0,6,6,0,0,1,2.27,2.18,5.82,5.82,0,0,1,.83,3.05A5.91,5.91,0,0,1,533.13,53.66Zm7.91,2.9h-1.7l-4.79-11.9h1.75l3.93,10.08,3.93-10.08h1.72Zm15.08,0h-8.47V44.66h8.26v1.48h-6.63v3.67h5.93v1.48h-5.93v3.79h6.83Zm12.72,0h-1.65l-6.8-9.21v9.21h-1.63V44.66h1.65l6.82,9.23V44.66h1.62Zm10.74-1.5A3.54,3.54,0,0,1,578,56.24a5.89,5.89,0,0,1-2.29.42,6.65,6.65,0,0,1-2.55-.51A6.91,6.91,0,0,1,571,54.79l.73-1.41a6.14,6.14,0,0,0,1.91,1.28,5.26,5.26,0,0,0,2.07.45,3.3,3.3,0,0,0,1.88-.47,1.56,1.56,0,0,0,.31-2.3,2.63,2.63,0,0,0-.94-.65,16.18,16.18,0,0,0-1.54-.53,15.78,15.78,0,0,1-1.94-.7,3.35,3.35,0,0,1-1.27-1,2.76,2.76,0,0,1-.52-1.75,2.81,2.81,0,0,1,.53-1.68,3.34,3.34,0,0,1,1.48-1.12,5.78,5.78,0,0,1,2.21-.39,7.17,7.17,0,0,1,2.1.31,7,7,0,0,1,1.83.84l-.68,1.46a6.89,6.89,0,0,0-1.73-.79,5.87,5.87,0,0,0-1.64-.26,3,3,0,0,0-1.66.4,1.24,1.24,0,0,0-.62,1.1,1.45,1.45,0,0,0,.37,1,2.65,2.65,0,0,0,.92.63q.54.23,1.51.54a17.23,17.23,0,0,1,2,.71,3.4,3.4,0,0,1,1.28,1,2.8,2.8,0,0,1,.53,1.78A3,3,0,0,1,579.56,55.06Zm10.67,1.11a6.24,6.24,0,0,1-5.52-.31,6,6,0,0,1-3-5.28,5.86,5.86,0,0,1,.82-3.05,6,6,0,0,1,2.25-2.18,6.34,6.34,0,0,1,3.15-.8,6.4,6.4,0,0,1,2.41.47,6,6,0,0,1,2,1.32l-1,1.17a4.93,4.93,0,0,0-1.58-1.11,4.58,4.58,0,0,0-5.83,1.87,4.57,4.57,0,0,0,4,6.88,4.64,4.64,0,0,0,1.84-.38,5.32,5.32,0,0,0,1.6-1l1,1.07A6.64,6.64,0,0,1,590.23,56.17Zm6,.38H594.6V44.66h1.63Zm13.48,0h-1.65l-6.8-9.21v9.21h-1.63V44.66h1.65l6.82,9.23V44.66h1.62Zm12.26,0-1.26-2.89h-6.27l-1.24,2.89h-1.72l5.29-11.9h1.7l5.27,11.9Z"/><polygon class="cls-2" points="440.21 13.02 425.35 13.02 456.99 50.06 425.35 87.09 440.21 87.09 471.86 50.06 440.21 13.02"/><path class="cls-3" d="M425.35,13H121.11a51.26,51.26,0,0,1,2.74,74.07h301.5l31.65-37ZM371.76,40l1.13,1.28L374,40h2.44L374.39,43h-3L369.32,40Zm-13.55,0,1.13,1.28L360.48,40h2.44L360.85,43h-3L355.77,40Zm-128.9,0,1.13,1.28L231.59,40H234L232,43h-3L226.87,40Zm-13.55,0,1.13,1.28L218,40h2.44L218.4,43h-3L213.33,40ZM172.42,52.4a5.63,5.63,0,0,1-4,1.31h-2.39v3.7h-3.49V44h5.88a5.85,5.85,0,0,1,4,1.23,4.35,4.35,0,0,1,1.41,3.46A4.76,4.76,0,0,1,172.42,52.4Zm15.79,1.84a6.81,6.81,0,0,1-2.59,2.5,7.94,7.94,0,0,1-7.38,0,6.71,6.71,0,0,1-2.59-2.5,6.84,6.84,0,0,1-.95-3.56,6.66,6.66,0,0,1,3.54-6,8.05,8.05,0,0,1,7.38,0,6.73,6.73,0,0,1,2.59,2.46,6.66,6.66,0,0,1,.94,3.51A6.79,6.79,0,0,1,188.21,54.24ZM200,57.41h-9.16V44h3.49v10.4H200Zm9.5-4.35a4.35,4.35,0,0,1-1.25,3.32,4.75,4.75,0,0,1-3.41,1.18,5.88,5.88,0,0,1-4.66-2.16l1.6-2.38a5.82,5.82,0,0,0,1.45,1.12,3,3,0,0,0,1.35.39,1.32,1.32,0,0,0,1-.4A1.62,1.62,0,0,0,206,53V46.92h-4.58V44h8.09Zm12.21,2.66a4.27,4.27,0,0,1-1.94,1.42,7.51,7.51,0,0,1-2.74.48,9.9,9.9,0,0,1-3.31-.58,9,9,0,0,1-2.85-1.59l1.35-2.73a8.42,8.42,0,0,0,2.39,1.47,6.53,6.53,0,0,0,2.45.57,2.28,2.28,0,0,0,1.23-.29.94.94,0,0,0,.45-.84,1,1,0,0,0-.33-.76,2.45,2.45,0,0,0-.84-.49q-.51-.18-1.42-.43a17.59,17.59,0,0,1-2.27-.77A4,4,0,0,1,212.4,50a3.25,3.25,0,0,1-.64-2.11,3.68,3.68,0,0,1,.66-2.18,4.19,4.19,0,0,1,1.87-1.44,7.27,7.27,0,0,1,2.81-.51,10.21,10.21,0,0,1,2.86.41,9.43,9.43,0,0,1,2.48,1.1l-1.32,2.79a11.75,11.75,0,0,0-2.28-1,6.73,6.73,0,0,0-2-.4,1.89,1.89,0,0,0-1,.24.78.78,0,0,0-.37.7,1,1,0,0,0,.32.73,2.47,2.47,0,0,0,.8.48q.48.18,1.41.47a18.36,18.36,0,0,1,2.3.8,4,4,0,0,1,1.56,1.23,3.42,3.42,0,0,1,.65,2.17A3.7,3.7,0,0,1,221.76,55.72ZM233.37,57a7.18,7.18,0,0,1-6.55-.24,6.69,6.69,0,0,1-2.52-2.5,7,7,0,0,1-.92-3.55,6.67,6.67,0,0,1,3.5-6,7.61,7.61,0,0,1,6.59-.28,7.29,7.29,0,0,1,2.46,1.69l-2,2.44a5,5,0,0,0-1.54-1.31,3.7,3.7,0,0,0-1.78-.49,3.47,3.47,0,0,0-1.84.51,3.58,3.58,0,0,0-1.31,1.39,4.33,4.33,0,0,0,0,3.95A3.58,3.58,0,0,0,228.75,54a3.47,3.47,0,0,0,1.84.51,4.06,4.06,0,0,0,1.72-.42,5.45,5.45,0,0,0,1.6-1.15l2,2.19A8.14,8.14,0,0,1,233.37,57Zm7.57.43h-3.49V44h3.49Zm15,0h-3.05l-6.07-8v8h-3.26V44h3.07l6.09,8.05,0-8.05h3.24Zm12.44,0L267.44,55h-5.78l-.93,2.37h-3.59L262.88,44h3.59l5.61,13.38Zm10,2.1h-2.86L281.68,42h2.86Zm20-3.79a4.27,4.27,0,0,1-1.94,1.42,7.51,7.51,0,0,1-2.74.48,9.9,9.9,0,0,1-3.31-.58,9,9,0,0,1-2.85-1.59l1.35-2.73a8.42,8.42,0,0,0,2.39,1.47,6.53,6.53,0,0,0,2.45.57,2.28,2.28,0,0,0,1.23-.29.94.94,0,0,0,.45-.84,1,1,0,0,0-.33-.76,2.45,2.45,0,0,0-.84-.49q-.51-.18-1.42-.43a17.59,17.59,0,0,1-2.27-.77A4,4,0,0,1,289,50a3.25,3.25,0,0,1-.64-2.11,3.68,3.68,0,0,1,.66-2.18,4.19,4.19,0,0,1,1.87-1.44,7.27,7.27,0,0,1,2.81-.51,10.21,10.21,0,0,1,2.86.41,9.43,9.43,0,0,1,2.48,1.1l-1.32,2.79a11.75,11.75,0,0,0-2.28-1,6.73,6.73,0,0,0-2-.4,1.89,1.89,0,0,0-1,.24.78.78,0,0,0-.37.7,1,1,0,0,0,.32.73,2.47,2.47,0,0,0,.8.48q.48.18,1.41.47a18.36,18.36,0,0,1,2.3.8,4,4,0,0,1,1.56,1.23,3.42,3.42,0,0,1,.65,2.17A3.7,3.7,0,0,1,298.37,55.72ZM310,57.41h-9.16V44h3.49v10.4H310Zm14.24-3.17a6.81,6.81,0,0,1-2.59,2.5,7.94,7.94,0,0,1-7.38,0,6.71,6.71,0,0,1-2.59-2.5,6.84,6.84,0,0,1-.95-3.56,6.66,6.66,0,0,1,3.54-6,8.05,8.05,0,0,1,7.38,0,6.73,6.73,0,0,1,2.59,2.46,6.66,6.66,0,0,1,.94,3.51A6.79,6.79,0,0,1,324.26,54.24Zm6.34,3.17L325.41,44h3.76l3.34,9.67L335.87,44h3.59l-5.23,13.38Zm18.89,0L348.58,55h-5.78l-.93,2.37h-3.59L344,44h3.59l5.61,13.38Zm14.71-1.69a4.27,4.27,0,0,1-1.94,1.42,7.51,7.51,0,0,1-2.74.48,9.9,9.9,0,0,1-3.31-.58,9,9,0,0,1-2.85-1.59l1.35-2.73a8.42,8.42,0,0,0,2.39,1.47,6.53,6.53,0,0,0,2.45.57,2.28,2.28,0,0,0,1.23-.29.94.94,0,0,0,.45-.84,1,1,0,0,0-.33-.76,2.45,2.45,0,0,0-.84-.49q-.51-.18-1.42-.43a17.59,17.59,0,0,1-2.27-.77A4,4,0,0,1,354.84,50a3.25,3.25,0,0,1-.64-2.11,3.68,3.68,0,0,1,.66-2.18,4.19,4.19,0,0,1,1.87-1.44,7.27,7.27,0,0,1,2.81-.51,10.21,10.21,0,0,1,2.86.41,9.43,9.43,0,0,1,2.48,1.1l-1.32,2.79a11.75,11.75,0,0,0-2.28-1,6.73,6.73,0,0,0-2-.4,1.89,1.89,0,0,0-1,.24.78.78,0,0,0-.37.7,1,1,0,0,0,.32.73,2.47,2.47,0,0,0,.8.48q.48.18,1.41.47a18.36,18.36,0,0,1,2.3.8,4,4,0,0,1,1.56,1.23,3.42,3.42,0,0,1,.65,2.17A3.7,3.7,0,0,1,364.2,55.72ZM375.81,57a7.18,7.18,0,0,1-6.55-.24,6.69,6.69,0,0,1-2.52-2.5,7,7,0,0,1-.92-3.55,6.67,6.67,0,0,1,3.5-6,7.61,7.61,0,0,1,6.59-.28,7.29,7.29,0,0,1,2.46,1.69l-2,2.44a5,5,0,0,0-1.54-1.31,3.7,3.7,0,0,0-1.78-.49,3.47,3.47,0,0,0-1.84.51,3.58,3.58,0,0,0-1.31,1.39,4.33,4.33,0,0,0,0,3.95A3.58,3.58,0,0,0,371.2,54a3.47,3.47,0,0,0,1.84.51,4.06,4.06,0,0,0,1.72-.42,5.45,5.45,0,0,0,1.6-1.15l2,2.19A8.14,8.14,0,0,1,375.81,57Zm7.57.43h-3.49V44h3.49Zm15,0h-3.05l-6.07-8v8H386V44H389l6.09,8.05,0-8.05h3.24Zm12.44,0L409.89,55H404.1l-.93,2.37h-3.59L405.32,44h3.59l5.61,13.38Z"/><path class="cls-3" d="M183.78,47.3a3.39,3.39,0,0,0-1.82-.52,3.49,3.49,0,0,0-1.84.52,3.71,3.71,0,0,0-1.34,1.42,4.26,4.26,0,0,0,0,4,3.88,3.88,0,0,0,1.34,1.43,3.39,3.39,0,0,0,1.83.53,3.34,3.34,0,0,0,1.82-.53,3.69,3.69,0,0,0,1.31-1.43,4.45,4.45,0,0,0,0-4A3.62,3.62,0,0,0,183.78,47.3Z"/><polygon class="cls-3" points="405.15 52.38 408.86 52.38 407.02 47.6 405.15 52.38"/><polygon class="cls-3" points="262.71 52.38 266.41 52.38 264.58 47.6 262.71 52.38"/><path class="cls-3" d="M319.83,47.3a3.39,3.39,0,0,0-1.82-.52,3.49,3.49,0,0,0-1.84.52,3.71,3.71,0,0,0-1.34,1.42,4.26,4.26,0,0,0,0,4,3.88,3.88,0,0,0,1.34,1.43,3.39,3.39,0,0,0,1.83.53,3.34,3.34,0,0,0,1.82-.53,3.69,3.69,0,0,0,1.31-1.43,4.45,4.45,0,0,0,0-4A3.62,3.62,0,0,0,319.83,47.3Z"/><polygon class="cls-3" points="343.84 52.38 347.55 52.38 345.71 47.6 343.84 52.38"/><path class="cls-3" d="M168.28,46.82h-2.21v4.1h2.21a2.35,2.35,0,0,0,1.65-.54,2,2,0,0,0,.58-1.54,1.91,1.91,0,0,0-.58-1.5A2.38,2.38,0,0,0,168.28,46.82Z"/><path class="cls-3" d="M52.84,13H0V87.09H50.1A51.26,51.26,0,0,1,52.84,13Z"/><path class="cls-1" d="M130.35,51.37A43.37,43.37,0,1,0,87,94.75,43.42,43.42,0,0,0,130.35,51.37ZM90.71,55.53A9.9,9.9,0,0,0,85,54.13H77.41V47.73l10.36-10H70.63v-9H102v6.78L89.75,46.77l2.37.45a15.09,15.09,0,0,1,8.73,4,11.1,11.1,0,0,1,3.29,8.28,13.3,13.3,0,0,1-2.24,7.61,14.75,14.75,0,0,1-6.33,5.18A23,23,0,0,1,86,74.14a32,32,0,0,1-9.69-1.5,25.93,25.93,0,0,1-8-4l4.35-8.25a20.77,20.77,0,0,0,6,3.58A17.9,17.9,0,0,0,85,65.19a9.59,9.59,0,0,0,5.69-1.44,4.79,4.79,0,0,0,2-4.12A4.71,4.71,0,0,0,90.71,55.53Z"/><path class="cls-2" d="M121.11,13a51.26,51.26,0,1,0,17.24,38.35A51.16,51.16,0,0,0,121.11,13ZM87,94.75a43.37,43.37,0,1,1,43.37-43.37A43.42,43.42,0,0,1,87,94.75Z"/><path class="cls-2" d="M90.71,63.75A9.59,9.59,0,0,1,85,65.19,17.9,17.9,0,0,1,78.62,64a20.77,20.77,0,0,1-6-3.58l-4.35,8.25a25.93,25.93,0,0,0,8,4A32,32,0,0,0,86,74.14a23,23,0,0,0,9.59-1.85,14.75,14.75,0,0,0,6.33-5.18,13.3,13.3,0,0,0,2.24-7.61,11.1,11.1,0,0,0-3.29-8.28,15.09,15.09,0,0,0-8.73-4l-2.37-.45L102,35.58V28.8H70.63v9H87.77l-10.36,10v6.39H85a9.9,9.9,0,0,1,5.76,1.41,4.71,4.71,0,0,1,2,4.09A4.79,4.79,0,0,1,90.71,63.75Z"/><path class="cls-2" d="M168.45,44h-5.88V57.41h3.49v-3.7h2.39a5.63,5.63,0,0,0,4-1.31,4.76,4.76,0,0,0,1.41-3.67,4.35,4.35,0,0,0-1.41-3.46A5.85,5.85,0,0,0,168.45,44Zm1.48,6.35a2.35,2.35,0,0,1-1.65.54h-2.21v-4.1h2.21a2.38,2.38,0,0,1,1.65.53,1.91,1.91,0,0,1,.58,1.5A2,2,0,0,1,169.93,50.39Z"/><path class="cls-2" d="M185.61,44.72a8.05,8.05,0,0,0-7.38,0,6.66,6.66,0,0,0-3.54,6,6.84,6.84,0,0,0,.95,3.56,6.71,6.71,0,0,0,2.59,2.5,7.94,7.94,0,0,0,7.38,0,6.77,6.77,0,0,0,3.54-6,6.66,6.66,0,0,0-.94-3.51A6.73,6.73,0,0,0,185.61,44.72Zm-.52,8a3.69,3.69,0,0,1-1.31,1.43,3.34,3.34,0,0,1-1.82.53,3.39,3.39,0,0,1-1.83-.53,3.88,3.88,0,0,1-1.34-1.43,4.26,4.26,0,0,1,0-4,3.71,3.71,0,0,1,1.34-1.42,3.49,3.49,0,0,1,1.84-.52,3.39,3.39,0,0,1,1.82.52,3.62,3.62,0,0,1,1.31,1.42,4.45,4.45,0,0,1,0,4Z"/><polygon class="cls-2" points="194.38 44.04 190.89 44.04 190.89 57.41 200.05 57.41 200.05 54.44 194.38 54.44 194.38 44.04"/><path class="cls-2" d="M201.46,46.92H206V53a1.62,1.62,0,0,1-.37,1.14,1.32,1.32,0,0,1-1,.4,3,3,0,0,1-1.35-.39A5.82,5.82,0,0,1,201.84,53l-1.6,2.38a5.88,5.88,0,0,0,4.66,2.16,4.75,4.75,0,0,0,3.41-1.18,4.35,4.35,0,0,0,1.25-3.32V44h-8.09Z"/><polygon class="cls-2" points="218.4 42.97 220.48 40.05 218.04 40.05 216.9 41.33 215.77 40.05 213.33 40.05 215.41 42.97 218.4 42.97"/><path class="cls-2" d="M220.26,50a18.36,18.36,0,0,0-2.3-.8q-.94-.29-1.41-.47a2.47,2.47,0,0,1-.8-.48,1,1,0,0,1-.32-.73.78.78,0,0,1,.37-.7,1.89,1.89,0,0,1,1-.24,6.73,6.73,0,0,1,2,.4,11.75,11.75,0,0,1,2.28,1l1.32-2.79a9.43,9.43,0,0,0-2.48-1.1,10.21,10.21,0,0,0-2.86-.41,7.27,7.27,0,0,0-2.81.51,4.19,4.19,0,0,0-1.87,1.44,3.68,3.68,0,0,0-.66,2.18A3.25,3.25,0,0,0,212.4,50a4,4,0,0,0,1.54,1.18,17.59,17.59,0,0,0,2.27.77q.92.25,1.42.43a2.45,2.45,0,0,1,.84.49,1,1,0,0,1,.33.76.94.94,0,0,1-.45.84,2.28,2.28,0,0,1-1.23.29,6.53,6.53,0,0,1-2.45-.57,8.42,8.42,0,0,1-2.39-1.47l-1.35,2.73A9,9,0,0,0,213.78,57a9.9,9.9,0,0,0,3.31.58,7.51,7.51,0,0,0,2.74-.48,4.27,4.27,0,0,0,1.94-1.42,3.7,3.7,0,0,0,.71-2.28,3.42,3.42,0,0,0-.65-2.17A4,4,0,0,0,220.26,50Z"/><path class="cls-2" d="M232.31,54.11a4.06,4.06,0,0,1-1.72.42,3.47,3.47,0,0,1-1.84-.51,3.58,3.58,0,0,1-1.31-1.39,4.33,4.33,0,0,1,0-3.95,3.58,3.58,0,0,1,1.31-1.39,3.47,3.47,0,0,1,1.84-.51,3.7,3.7,0,0,1,1.78.49,5,5,0,0,1,1.54,1.31l2-2.44a7.29,7.29,0,0,0-2.46-1.69,7.61,7.61,0,0,0-6.59.28,6.67,6.67,0,0,0-3.5,6,7,7,0,0,0,.92,3.55,6.69,6.69,0,0,0,2.52,2.5,7.18,7.18,0,0,0,6.55.24A8.14,8.14,0,0,0,236,55.16l-2-2.19A5.45,5.45,0,0,1,232.31,54.11Z"/><polygon class="cls-2" points="231.95 42.97 234.03 40.05 231.59 40.05 230.44 41.33 229.32 40.05 226.87 40.05 228.95 42.97 231.95 42.97"/><rect class="cls-2" x="237.45" y="44.04" width="3.49" height="13.38"/><polygon class="cls-2" points="252.69 52.09 246.6 44.04 243.53 44.04 243.53 57.41 246.79 57.41 246.79 49.42 252.86 57.41 255.92 57.41 255.92 44.04 252.67 44.04 252.69 52.09"/><path class="cls-2" d="M262.88,44l-5.74,13.38h3.59l.93-2.37h5.78l.92,2.37h3.72L266.47,44Zm-.17,8.34,1.87-4.77,1.83,4.77Z"/><polygon class="cls-2" points="275.49 59.51 278.36 59.51 284.54 41.96 281.68 41.96 275.49 59.51"/><path class="cls-2" d="M296.87,50a18.36,18.36,0,0,0-2.3-.8q-.94-.29-1.41-.47a2.47,2.47,0,0,1-.8-.48,1,1,0,0,1-.32-.73.78.78,0,0,1,.37-.7,1.89,1.89,0,0,1,1-.24,6.73,6.73,0,0,1,2,.4,11.75,11.75,0,0,1,2.28,1l1.32-2.79a9.43,9.43,0,0,0-2.48-1.1,10.21,10.21,0,0,0-2.86-.41,7.27,7.27,0,0,0-2.81.51A4.19,4.19,0,0,0,289,45.71a3.68,3.68,0,0,0-.66,2.18A3.25,3.25,0,0,0,289,50a4,4,0,0,0,1.54,1.18,17.59,17.59,0,0,0,2.27.77q.92.25,1.42.43a2.45,2.45,0,0,1,.84.49,1,1,0,0,1,.33.76.94.94,0,0,1-.45.84,2.28,2.28,0,0,1-1.23.29,6.53,6.53,0,0,1-2.45-.57,8.42,8.42,0,0,1-2.39-1.47l-1.35,2.73A9,9,0,0,0,290.39,57a9.9,9.9,0,0,0,3.31.58,7.51,7.51,0,0,0,2.74-.48,4.27,4.27,0,0,0,1.94-1.42,3.7,3.7,0,0,0,.71-2.28,3.42,3.42,0,0,0-.65-2.17A4,4,0,0,0,296.87,50Z"/><polygon class="cls-2" points="304.35 44.04 300.85 44.04 300.85 57.41 310.01 57.41 310.01 54.44 304.35 54.44 304.35 44.04"/><path class="cls-2" d="M321.66,44.72a8.05,8.05,0,0,0-7.38,0,6.66,6.66,0,0,0-3.54,6,6.84,6.84,0,0,0,.95,3.56,6.71,6.71,0,0,0,2.59,2.5,7.94,7.94,0,0,0,7.38,0,6.77,6.77,0,0,0,3.54-6,6.66,6.66,0,0,0-.94-3.51A6.73,6.73,0,0,0,321.66,44.72Zm-.52,8a3.69,3.69,0,0,1-1.31,1.43,3.34,3.34,0,0,1-1.82.53,3.39,3.39,0,0,1-1.83-.53,3.88,3.88,0,0,1-1.34-1.43,4.26,4.26,0,0,1,0-4,3.71,3.71,0,0,1,1.34-1.42,3.49,3.49,0,0,1,1.84-.52,3.39,3.39,0,0,1,1.82.52,3.62,3.62,0,0,1,1.31,1.42,4.45,4.45,0,0,1,0,4Z"/><polygon class="cls-2" points="335.87 44.04 332.51 53.71 329.17 44.04 325.41 44.04 330.6 57.41 334.23 57.41 339.45 44.04 335.87 44.04"/><path class="cls-2" d="M344,44l-5.74,13.38h3.59l.93-2.37h5.78l.92,2.37h3.72L347.6,44Zm-.17,8.34,1.87-4.77,1.83,4.77Z"/><path class="cls-2" d="M362.71,50a18.36,18.36,0,0,0-2.3-.8q-.94-.29-1.41-.47a2.47,2.47,0,0,1-.8-.48,1,1,0,0,1-.32-.73.78.78,0,0,1,.37-.7,1.89,1.89,0,0,1,1-.24,6.73,6.73,0,0,1,2,.4,11.75,11.75,0,0,1,2.28,1l1.32-2.79a9.43,9.43,0,0,0-2.48-1.1,10.21,10.21,0,0,0-2.86-.41,7.27,7.27,0,0,0-2.81.51,4.19,4.19,0,0,0-1.87,1.44,3.68,3.68,0,0,0-.66,2.18,3.25,3.25,0,0,0,.64,2.11,4,4,0,0,0,1.54,1.18,17.59,17.59,0,0,0,2.27.77q.92.25,1.42.43a2.45,2.45,0,0,1,.84.49,1,1,0,0,1,.33.76.94.94,0,0,1-.45.84,2.28,2.28,0,0,1-1.23.29,6.53,6.53,0,0,1-2.45-.57,8.42,8.42,0,0,1-2.39-1.47l-1.35,2.73A9,9,0,0,0,356.22,57a9.9,9.9,0,0,0,3.31.58,7.51,7.51,0,0,0,2.74-.48,4.27,4.27,0,0,0,1.94-1.42,3.7,3.7,0,0,0,.71-2.28,3.42,3.42,0,0,0-.65-2.17A4,4,0,0,0,362.71,50Z"/><polygon class="cls-2" points="360.85 42.97 362.93 40.05 360.48 40.05 359.34 41.33 358.21 40.05 355.77 40.05 357.85 42.97 360.85 42.97"/><path class="cls-2" d="M374.76,54.11a4.06,4.06,0,0,1-1.72.42A3.47,3.47,0,0,1,371.2,54a3.58,3.58,0,0,1-1.31-1.39,4.33,4.33,0,0,1,0-3.95,3.58,3.58,0,0,1,1.31-1.39,3.47,3.47,0,0,1,1.84-.51,3.7,3.7,0,0,1,1.78.49,5,5,0,0,1,1.54,1.31l2-2.44a7.29,7.29,0,0,0-2.46-1.69,7.61,7.61,0,0,0-6.59.28,6.67,6.67,0,0,0-3.5,6,7,7,0,0,0,.92,3.55,6.69,6.69,0,0,0,2.52,2.5,7.18,7.18,0,0,0,6.55.24,8.14,8.14,0,0,0,2.59-1.82l-2-2.19A5.45,5.45,0,0,1,374.76,54.11Z"/><polygon class="cls-2" points="374.39 42.97 376.47 40.05 374.03 40.05 372.89 41.33 371.76 40.05 369.32 40.05 371.4 42.97 374.39 42.97"/><rect class="cls-2" x="379.89" y="44.04" width="3.49" height="13.38"/><polygon class="cls-2" points="395.13 52.09 389.05 44.04 385.98 44.04 385.98 57.41 389.24 57.41 389.24 49.42 395.31 57.41 398.36 57.41 398.36 44.04 395.12 44.04 395.13 52.09"/><path class="cls-2" d="M405.32,44l-5.74,13.38h3.59L404.1,55h5.78l.92,2.37h3.72L408.91,44Zm-.17,8.34L407,47.6l1.83,4.77Z"/><path class="cls-2" d="M509.19,50.49a17.23,17.23,0,0,0-2-.71q-1-.31-1.51-.54a2.65,2.65,0,0,1-.92-.63,1.45,1.45,0,0,1-.37-1,1.24,1.24,0,0,1,.62-1.1,3,3,0,0,1,1.66-.4,5.87,5.87,0,0,1,1.64.26,6.89,6.89,0,0,1,1.73.79l.68-1.46a7,7,0,0,0-1.83-.84,7.17,7.17,0,0,0-2.1-.31,5.78,5.78,0,0,0-2.21.39A3.34,3.34,0,0,0,503.14,46a2.81,2.81,0,0,0-.53,1.68,2.76,2.76,0,0,0,.52,1.75,3.35,3.35,0,0,0,1.27,1,15.78,15.78,0,0,0,1.94.7,16.18,16.18,0,0,1,1.54.53,2.63,2.63,0,0,1,.94.65,1.56,1.56,0,0,1-.31,2.3,3.3,3.3,0,0,1-1.88.47,5.26,5.26,0,0,1-2.07-.45,6.14,6.14,0,0,1-1.91-1.28l-.73,1.41a6.91,6.91,0,0,0,2.14,1.36,6.65,6.65,0,0,0,2.55.51,5.89,5.89,0,0,0,2.29-.42,3.54,3.54,0,0,0,1.55-1.18,3,3,0,0,0,.55-1.79,2.8,2.8,0,0,0-.53-1.78A3.4,3.4,0,0,0,509.19,50.49Z"/><polygon class="cls-2" points="515.23 44.66 513.6 44.66 513.6 56.56 520.43 56.56 520.43 55.08 515.23 55.08 515.23 44.66"/><path class="cls-2" d="M530.86,45.35a6.64,6.64,0,0,0-6.32,0,6,6,0,0,0-2.26,2.18,5.82,5.82,0,0,0-.83,3.05,5.91,5.91,0,0,0,.83,3.07,6,6,0,0,0,2.27,2.21,6.56,6.56,0,0,0,6.31,0,6,6,0,0,0,2.27-2.21,5.91,5.91,0,0,0,.83-3.07,5.82,5.82,0,0,0-.83-3.05A6,6,0,0,0,530.86,45.35Zm.82,7.55A4.67,4.67,0,0,1,530,54.58a4.39,4.39,0,0,1-2.29.62,4.48,4.48,0,0,1-2.3-.62,4.7,4.7,0,0,1-1.69-1.67,4.55,4.55,0,0,1,0-4.62,4.65,4.65,0,0,1,1.69-1.66,4.53,4.53,0,0,1,2.3-.61,4.44,4.44,0,0,1,2.29.61,4.62,4.62,0,0,1,1.67,1.66,4.6,4.6,0,0,1,0,4.62Z"/><polygon class="cls-2" points="540.22 54.74 536.29 44.66 534.54 44.66 539.33 56.56 541.03 56.56 545.86 44.66 544.14 44.66 540.22 54.74"/><polygon class="cls-2" points="549.28 51.29 555.21 51.29 555.21 49.81 549.28 49.81 549.28 46.14 555.91 46.14 555.91 44.66 547.65 44.66 547.65 56.56 556.11 56.56 556.11 55.08 549.28 55.08 549.28 51.29"/><polygon class="cls-2" points="567.21 53.89 560.4 44.66 558.75 44.66 558.75 56.56 560.38 56.56 560.38 47.34 567.18 56.56 568.83 56.56 568.83 44.66 567.21 44.66 567.21 53.89"/><path class="cls-2" d="M578.31,50.49a17.23,17.23,0,0,0-2-.71q-1-.31-1.51-.54a2.65,2.65,0,0,1-.92-.63,1.45,1.45,0,0,1-.37-1,1.24,1.24,0,0,1,.62-1.1,3,3,0,0,1,1.66-.4,5.87,5.87,0,0,1,1.64.26,6.89,6.89,0,0,1,1.73.79l.68-1.46a7,7,0,0,0-1.83-.84,7.17,7.17,0,0,0-2.1-.31,5.78,5.78,0,0,0-2.21.39A3.34,3.34,0,0,0,572.26,46a2.81,2.81,0,0,0-.53,1.68,2.76,2.76,0,0,0,.52,1.75,3.35,3.35,0,0,0,1.27,1,15.78,15.78,0,0,0,1.94.7,16.18,16.18,0,0,1,1.54.53,2.63,2.63,0,0,1,.94.65,1.56,1.56,0,0,1-.31,2.3,3.3,3.3,0,0,1-1.88.47,5.26,5.26,0,0,1-2.07-.45,6.14,6.14,0,0,1-1.91-1.28L571,54.79a6.91,6.91,0,0,0,2.14,1.36,6.65,6.65,0,0,0,2.55.51,5.89,5.89,0,0,0,2.29-.42,3.54,3.54,0,0,0,1.55-1.18,3,3,0,0,0,.55-1.79,2.8,2.8,0,0,0-.53-1.78A3.4,3.4,0,0,0,578.31,50.49Z"/><polygon class="cls-2" points="576.29 43.53 578.08 41.27 576.5 41.27 575.46 42.41 574.42 41.27 572.84 41.27 574.63 43.53 576.29 43.53"/><polygon class="cls-2" points="588.58 43.53 590.37 41.27 588.79 41.27 587.75 42.41 586.71 41.27 585.13 41.27 586.92 43.53 588.58 43.53"/><path class="cls-2" d="M589.74,54.76a4.64,4.64,0,0,1-1.84.38,4.57,4.57,0,1,1,1.85-8.75,4.93,4.93,0,0,1,1.58,1.11l1-1.17a6,6,0,0,0-2-1.32,6.4,6.4,0,0,0-2.41-.47,6.34,6.34,0,0,0-3.15.8,6,6,0,0,0-2.25,2.18,5.86,5.86,0,0,0-.82,3.05,6,6,0,0,0,3,5.28,6.24,6.24,0,0,0,5.52.31,6.64,6.64,0,0,0,2.09-1.38l-1-1.07A5.32,5.32,0,0,1,589.74,54.76Z"/><rect class="cls-2" x="594.6" y="44.66" width="1.63" height="11.9"/><polygon class="cls-2" points="608.1 53.89 601.28 44.66 599.63 44.66 599.63 56.56 601.26 56.56 601.26 47.34 608.06 56.56 609.71 56.56 609.71 44.66 608.1 44.66 608.1 53.89"/><path class="cls-2" d="M616.77,44.66l-5.29,11.9h1.72l1.24-2.89h6.27L622,56.56h1.77l-5.27-11.9Zm-1.68,7.53,2.48-5.78,2.52,5.78Z"/></g></g></svg>