<svg xmlns="http://www.w3.org/2000/svg" viewBox="0 0 609 571"><defs><style>.cls-1{opacity:0.3;}.cls-2{fill:#fff;}</style></defs><title>onas</title><g id="Layer_2" data-name="Layer 2"><g id="Layer_1-2" data-name="Layer 1"><g class="cls-1"><path class="cls-2" d="M266.77,130.56h0c-6.86,0-12.48,5.27-12.48,11.7v59.93h-13.1v-1.05c-4.37-40.85-46.17-73.74-89.59-70.46-6.86.47-12,6.2-11.48,12.64s6.61,11.24,13.48,10.77c29.45-2.22,58.89,20.6,62.51,48.22H88.72a12.87,12.87,0,0,0-9.23,3.86,11.13,11.13,0,0,0-3.12,9c2.12,19.9,13.35,38.86,30.69,52.2a86,86,0,0,0,51.53,17.79c2.5,0,5.12-.12,7.61-.35,34.94-3.51,63.89-28.44,72.5-59h15.6v47.4c0,6.44,5.61,11.7,12.48,11.7s12.48-5.27,12.48-11.7V142.61A12.21,12.21,0,0,0,266.77,130.56ZM163.58,261.41c-13.72,1.4-28.57-3-40.8-12.29a56.39,56.39,0,0,1-18.34-23.41H212.62C204.88,244.44,185.92,259.19,163.58,261.41Z"/><path class="cls-2" d="M506.35,385,443.58,268.67a12.58,12.58,0,0,0-11.11-6.44,12.44,12.44,0,0,0-11.11,6.44l-63.76,119c-3.12,5.74-.62,12.76,5.49,15.68a13.54,13.54,0,0,0,5.61,1.29,12.35,12.35,0,0,0,11.11-6.44l22-41h61.64l20.71,38.39a12.85,12.85,0,0,0,16.72,5.15c6.12-3,8.61-10.06,5.49-15.8Zm-92.09-51.27,18.22-33.94,18.34,33.94Z"/><path class="cls-2" d="M606.92,319c-6-36.64-25.08-70.58-53.78-95.74-54.28-47.52-133.51-57.94-198.9-27.86-9.86-83.1-85-148.06-176.06-148.06-47.54,0-92.21,17.21-125.9,48.57S0,169.18,0,213.89s18.59,86.5,52.28,118,78.36,48.57,125.9,48.57a185.52,185.52,0,0,0,77.11-16.62c8,68,60,125.59,131.89,143.38h.12a192.51,192.51,0,0,0,42.92,4.92c64,0,124.78-32.42,156.6-86.73A158.45,158.45,0,0,0,606.92,319ZM178.18,357c-84.35,0-153.1-64.14-153.1-143.15S93.83,70.75,178.18,70.75c84,0,152.23,64.26,152.23,143.15S262.16,357,178.18,357Zm386.93,57.12c-33.44,57.12-103.94,86-171.57,70.34C328,468.23,281.75,413.57,279.38,350.6c43.92-28.79,73.24-75.73,75.86-129.1,58-31.84,131.52-24.46,180.93,19C587.08,284.94,598.93,356.34,565.12,414.16Z"/><path class="cls-2" d="M241.07,498.31v-.12c-.12-.47-.25-.94-.37-1.29v-.12a4.72,4.72,0,0,0-.5-1.17c0-.12-.12-.23-.25-.35s-.37-.59-.5-.82-.12-.23-.25-.35l-.75-1.05a7.76,7.76,0,0,0-1-1.05l-.25-.23c-.25-.23-.62-.47-.87-.7s-.25-.12-.37-.23-.62-.35-.87-.59-.25-.12-.37-.23a6,6,0,0,0-1.25-.59L169.7,465.31a12.74,12.74,0,0,0-16.22,6.44c-2.62,6,.5,12.76,6.86,15.22L203,503.11a89.42,89.42,0,0,1-76.36,1.76h-.12c-31.07-13.46-50.66-43.19-49.91-76,.12-6.44-5.24-11.82-12.23-11.94s-12.6,4.92-12.73,11.47c-1.12,42,24.21,80.29,64.26,97.73a115.12,115.12,0,0,0,46.92,9.95A117.29,117.29,0,0,0,202.89,529l-11.36,26a11.41,11.41,0,0,0,6.86,15.22,13,13,0,0,0,4.74.82,12.59,12.59,0,0,0,11.6-7.26l25.7-59.11c0-.12.12-.23.12-.35a.21.21,0,0,1,0-.35,3.43,3.43,0,0,0,.25-.94.41.41,0,0,1,.12-.35c.12-.47.12-.94.25-1.4V499.6c0-.35-.12-.7-.12-1.05C241.07,498.43,241.07,498.43,241.07,498.31Z"/><path class="cls-2" d="M368.72,72.86V73c.12.47.25.94.37,1.29v.12a4.72,4.72,0,0,0,.5,1.17c0,.12.12.23.25.35s.37.59.5.82.12.23.25.35l.75,1.05a7.76,7.76,0,0,0,1,1.05l.25.23c.25.23.62.47.87.7s.25.12.37.23.62.35.87.59.25.12.37.23a6,6,0,0,0,1.25.59l63.76,24.11a12.74,12.74,0,0,0,16.22-6.44c2.62-6-.5-12.76-6.86-15.22L406.78,68.06a89.42,89.42,0,0,1,76.36-1.76h.12c31.07,13.46,50.66,43.19,49.91,76-.12,6.44,5.24,11.82,12.23,11.94h.25c6.74,0,12.35-5,12.48-11.47,1-42.14-24.21-80.53-64.39-97.85h0a115.71,115.71,0,0,0-86.85-2.81l11.36-26A11.41,11.41,0,0,0,411.39.87c-6.36-2.46-13.72.47-16.22,6.44l-25.7,59.11c0,.12-.12.23-.12.35s-.12.35-.12.47a3.43,3.43,0,0,0-.25.94.41.41,0,0,1-.12.35c-.12.47-.12.94-.25,1.4v1.64c0,.35.12.7.12,1.05C368.72,72.74,368.72,72.74,368.72,72.86Z"/></g></g></g></svg>