<svg xmlns="http://www.w3.org/2000/svg" viewBox="0 0 232.44 232.44"><defs><style>.cls-1{fill:#4b88a2;}.cls-2{fill:#fff;}</style></defs><title>pol</title><g id="Layer_2" data-name="Layer 2"><g id="Layer_1-2" data-name="Layer 1"><polygon class="cls-1" points="43.49 98.95 67.64 118.97 91.79 98.97 232.44 99.07 232.44 0 0 0 0 99.07 43.49 98.95"/><polygon class="cls-1" points="97.19 113.97 67.64 138.44 38.1 113.97 0 114.07 0 232.44 232.44 232.44 232.44 114.07 97.19 113.97"/><path class="cls-2" d="M73.47,168.16v1H70.8v2.66h-.94v-2.66H67.18v-1h2.69V165.5h.94v2.66Z"/><path class="cls-2" d="M84,164.53a5.11,5.11,0,0,0-1.44-.23,2.66,2.66,0,0,0-1.45.35,1.09,1.09,0,0,0-.54,1,1.27,1.27,0,0,0,.33.9,2.32,2.32,0,0,0,.81.55q.48.2,1.33.47a15.17,15.17,0,0,1,1.72.63,3,3,0,0,1,1.12.89,2.45,2.45,0,0,1,.46,1.56,2.61,2.61,0,0,1-.48,1.57,3.11,3.11,0,0,1-1.36,1,5.15,5.15,0,0,1-2,.37,5.83,5.83,0,0,1-2.24-.45,6,6,0,0,1-1.88-1.19l.64-1.24a5.38,5.38,0,0,0,1.68,1.13,4.62,4.62,0,0,0,1.81.39,2.89,2.89,0,0,0,1.65-.41,1.28,1.28,0,0,0,.6-1.11,1.3,1.3,0,0,0-.33-.91,2.32,2.32,0,0,0-.83-.57,14,14,0,0,0-1.35-.46,13.75,13.75,0,0,1-1.7-.61,2.93,2.93,0,0,1-1.11-.88,2.43,2.43,0,0,1-.46-1.54,2.46,2.46,0,0,1,.46-1.48,2.93,2.93,0,0,1,1.3-1,5.08,5.08,0,0,1,1.94-.34,6.28,6.28,0,0,1,1.84.28,6.19,6.19,0,0,1,1.6.74l-.6,1.28A6,6,0,0,0,84,164.53Z"/><path class="cls-2" d="M88.6,163H90v9.15H94.6v1.3h-6Z"/><path class="cls-2" d="M103.75,163.65a5.27,5.27,0,0,1,2,1.92,5.11,5.11,0,0,1,.73,2.68,5.18,5.18,0,0,1-.73,2.69,5.28,5.28,0,0,1-2,1.94,5.75,5.75,0,0,1-5.53,0,5.28,5.28,0,0,1-2-1.94,5.18,5.18,0,0,1-.73-2.69,5.1,5.1,0,0,1,.73-2.68,5.28,5.28,0,0,1,2-1.92,5.83,5.83,0,0,1,5.54,0ZM99,164.77a4.07,4.07,0,0,0-1.48,1.46,4,4,0,0,0,0,4A4.1,4.1,0,0,0,99,171.75a3.93,3.93,0,0,0,2,.54,3.86,3.86,0,0,0,2-.54,4.09,4.09,0,0,0,1.46-1.47,4,4,0,0,0,0-4,4.06,4.06,0,0,0-1.46-1.46,3.9,3.9,0,0,0-2-.54A4,4,0,0,0,99,164.77Z"/><path class="cls-2" d="M107,163h1.54l3.45,8.85,3.45-8.85h1.51l-4.24,10.44h-1.49Z"/><path class="cls-2" d="M125.54,173.48l-1.1-2.54h-5.5l-1.09,2.54h-1.51L121,163h1.49l4.63,10.44Zm-6-3.83h4.39l-2.21-5.07Z"/><path class="cls-2" d="M133.1,164.53a5.11,5.11,0,0,0-1.44-.23,2.66,2.66,0,0,0-1.45.35,1.09,1.09,0,0,0-.54,1,1.27,1.27,0,0,0,.33.9,2.32,2.32,0,0,0,.81.55q.48.2,1.33.47a15.17,15.17,0,0,1,1.72.63A3,3,0,0,1,135,169a2.45,2.45,0,0,1,.46,1.56,2.61,2.61,0,0,1-.48,1.57,3.11,3.11,0,0,1-1.36,1,5.15,5.15,0,0,1-2,.37,5.83,5.83,0,0,1-2.24-.45,6,6,0,0,1-1.88-1.19l.64-1.24a5.38,5.38,0,0,0,1.68,1.13,4.62,4.62,0,0,0,1.81.39,2.89,2.89,0,0,0,1.65-.41,1.28,1.28,0,0,0,.6-1.11,1.3,1.3,0,0,0-.33-.91,2.32,2.32,0,0,0-.83-.57,14,14,0,0,0-1.35-.46,13.75,13.75,0,0,1-1.7-.61,2.93,2.93,0,0,1-1.11-.88,2.43,2.43,0,0,1-.46-1.54,2.46,2.46,0,0,1,.46-1.48,2.93,2.93,0,0,1,1.3-1,5.08,5.08,0,0,1,1.94-.34,6.28,6.28,0,0,1,1.84.28,6.19,6.19,0,0,1,1.6.74l-.6,1.28A6,6,0,0,0,133.1,164.53Zm-.86-4.45h1.39l-1.57,2H130.6l-1.57-2h1.39l.91,1Z"/><path class="cls-2" d="M143.88,164.57a4,4,0,1,0-1.63,7.68,4.09,4.09,0,0,0,1.61-.34,4.65,4.65,0,0,0,1.4-.92l.87.94a5.81,5.81,0,0,1-1.83,1.22,5.48,5.48,0,0,1-4.85-.27,5.27,5.27,0,0,1-2.67-4.63,5.14,5.14,0,0,1,.72-2.68,5.23,5.23,0,0,1,2-1.92,5.56,5.56,0,0,1,2.76-.7,5.62,5.62,0,0,1,2.11.41,5.24,5.24,0,0,1,1.77,1.16l-.85,1A4.3,4.3,0,0,0,143.88,164.57Zm-.85-4.5h1.39l-1.57,2h-1.46l-1.57-2h1.39l.91,1Z"/><path class="cls-2" d="M148.13,163h1.43v10.44h-1.43Z"/><path class="cls-2" d="M160,163h1.42v10.44h-1.45l-6-8.09v8.09h-1.43V163H154l6,8.1Z"/><path class="cls-2" d="M172.15,173.48l-1.1-2.54h-5.5l-1.09,2.54h-1.51L167.58,163h1.49l4.63,10.44Zm-6-3.83h4.39l-2.21-5.07Z"/><path class="cls-2" d="M73.47,190.54v1H70.8v2.66h-.94v-2.66H67.18v-1h2.69v-2.66h.94v2.66Z"/><path class="cls-2" d="M84,186.9a5.11,5.11,0,0,0-1.44-.23,2.66,2.66,0,0,0-1.45.35,1.09,1.09,0,0,0-.54,1,1.27,1.27,0,0,0,.33.9,2.32,2.32,0,0,0,.81.55q.48.2,1.33.47a15.17,15.17,0,0,1,1.72.63,3,3,0,0,1,1.12.89,2.45,2.45,0,0,1,.46,1.56,2.61,2.61,0,0,1-.48,1.57,3.11,3.11,0,0,1-1.36,1,5.15,5.15,0,0,1-2,.37,5.83,5.83,0,0,1-2.24-.45,6,6,0,0,1-1.88-1.19l.64-1.24a5.38,5.38,0,0,0,1.68,1.13,4.62,4.62,0,0,0,1.81.39,2.89,2.89,0,0,0,1.65-.41,1.28,1.28,0,0,0,.6-1.11,1.3,1.3,0,0,0-.33-.91,2.32,2.32,0,0,0-.83-.57,14,14,0,0,0-1.35-.46,13.75,13.75,0,0,1-1.7-.61,2.93,2.93,0,0,1-1.11-.88,2.43,2.43,0,0,1-.46-1.54,2.46,2.46,0,0,1,.46-1.48,2.93,2.93,0,0,1,1.3-1,5.08,5.08,0,0,1,1.94-.34,6.28,6.28,0,0,1,1.84.28,6.19,6.19,0,0,1,1.6.74l-.6,1.28A6,6,0,0,0,84,186.9Z"/><path class="cls-2" d="M88.6,185.42H90v9.15H94.6v1.3h-6Z"/><path class="cls-2" d="M103.75,186a5.27,5.27,0,0,1,2,1.92,5.11,5.11,0,0,1,.73,2.68,5.18,5.18,0,0,1-.73,2.69,5.28,5.28,0,0,1-2,1.94,5.75,5.75,0,0,1-5.53,0,5.28,5.28,0,0,1-2-1.94,5.18,5.18,0,0,1-.73-2.69,5.1,5.1,0,0,1,.73-2.68,5.28,5.28,0,0,1,2-1.92,5.83,5.83,0,0,1,5.54,0ZM99,187.15a4.07,4.07,0,0,0-1.48,1.46,4,4,0,0,0,0,4A4.1,4.1,0,0,0,99,194.12a3.93,3.93,0,0,0,2,.54,3.86,3.86,0,0,0,2-.54,4.09,4.09,0,0,0,1.46-1.47,4,4,0,0,0,0-4,4.06,4.06,0,0,0-1.46-1.46,3.9,3.9,0,0,0-2-.54A4,4,0,0,0,99,187.15Z"/><path class="cls-2" d="M107,185.42h1.54l3.45,8.85,3.45-8.85h1.51l-4.24,10.44h-1.49Z"/><path class="cls-2" d="M118.49,185.42h7.25v1.3h-5.82v3.22h5.21v1.3h-5.21v3.33h6v1.3h-7.43Z"/><path class="cls-2" d="M135.66,185.42h1.42v10.44h-1.45l-6-8.09v8.09h-1.43V185.42h1.45l6,8.1Z"/><path class="cls-2" d="M144.66,186.9a5.11,5.11,0,0,0-1.44-.23,2.66,2.66,0,0,0-1.45.35,1.09,1.09,0,0,0-.54,1,1.27,1.27,0,0,0,.33.9,2.32,2.32,0,0,0,.81.55q.48.2,1.33.47a15.17,15.17,0,0,1,1.72.63,3,3,0,0,1,1.12.89A2.45,2.45,0,0,1,147,193a2.61,2.61,0,0,1-.48,1.57,3.11,3.11,0,0,1-1.36,1,5.15,5.15,0,0,1-2,.37,5.83,5.83,0,0,1-2.24-.45,6,6,0,0,1-1.88-1.19l.64-1.24a5.38,5.38,0,0,0,1.68,1.13,4.62,4.62,0,0,0,1.81.39,2.89,2.89,0,0,0,1.65-.41,1.28,1.28,0,0,0,.6-1.11,1.3,1.3,0,0,0-.33-.91,2.32,2.32,0,0,0-.83-.57,14,14,0,0,0-1.35-.46,13.75,13.75,0,0,1-1.7-.61,2.93,2.93,0,0,1-1.11-.88,2.43,2.43,0,0,1-.46-1.54,2.46,2.46,0,0,1,.46-1.48,2.93,2.93,0,0,1,1.3-1,5.08,5.08,0,0,1,1.94-.34,6.28,6.28,0,0,1,1.84.28,6.19,6.19,0,0,1,1.6.74l-.6,1.28A6,6,0,0,0,144.66,186.9Zm-.86-4.45h1.39l-1.57,2h-1.46l-1.57-2H142l.91,1Z"/><path class="cls-2" d="M155.44,186.95a4,4,0,1,0-1.63,7.68,4.09,4.09,0,0,0,1.61-.34,4.65,4.65,0,0,0,1.4-.92l.87.94a5.81,5.81,0,0,1-1.83,1.22,5.48,5.48,0,0,1-4.85-.27,5.27,5.27,0,0,1-2.67-4.63,5.14,5.14,0,0,1,.72-2.68,5.23,5.23,0,0,1,2-1.92,5.56,5.56,0,0,1,2.76-.7,5.62,5.62,0,0,1,2.11.41,5.24,5.24,0,0,1,1.77,1.16l-.85,1A4.3,4.3,0,0,0,155.44,186.95Zm-.85-4.5H156l-1.57,2h-1.46l-1.57-2h1.39l.91,1Z"/><path class="cls-2" d="M159.69,185.42h1.43v10.44h-1.43Z"/><path class="cls-2" d="M171.54,185.42H173v10.44h-1.45l-6-8.09v8.09h-1.43V185.42h1.45l6,8.1Z"/><path class="cls-2" d="M183.71,195.86l-1.1-2.54h-5.5L176,195.86h-1.51l4.64-10.44h1.49l4.63,10.44Zm-6-3.83h4.39L179.85,187Z"/><path class="cls-2" d="M99.79,42.1a8.39,8.39,0,0,1,2.72,6.68,9.18,9.18,0,0,1-2.72,7.09q-2.73,2.52-7.66,2.52h-4.6v7.14H80.79V39.72H92.13Q97.07,39.72,99.79,42.1ZM95,52a3.85,3.85,0,0,0,1.12-3A3.69,3.69,0,0,0,95,46.11a4.6,4.6,0,0,0-3.18-1H87.53V53H91.8A4.54,4.54,0,0,0,95,52Z"/><path class="cls-2" d="M125.26,41a12.83,12.83,0,0,1,6.83,11.53,13.06,13.06,0,0,1-6.83,11.67,15.32,15.32,0,0,1-14.25,0,13,13,0,0,1-5-4.82,13.22,13.22,0,0,1-1.82-6.87A12.84,12.84,0,0,1,111,41a15.53,15.53,0,0,1,14.25,0Zm-10.61,5a7.16,7.16,0,0,0-2.6,2.74,8.22,8.22,0,0,0,0,7.73,7.48,7.48,0,0,0,2.6,2.76,6.54,6.54,0,0,0,3.54,1,6.44,6.44,0,0,0,3.52-1,7.11,7.11,0,0,0,2.52-2.76,8.58,8.58,0,0,0,0-7.73A7,7,0,0,0,121.72,46a6.54,6.54,0,0,0-3.52-1A6.72,6.72,0,0,0,114.65,46Z"/><path class="cls-2" d="M135.44,39.72h6.74V59.79h10.94v5.75H135.44Z"/></g></g></svg>