<svg xmlns="http://www.w3.org/2000/svg" viewBox="0 0 232.44 232.44"><defs><style>.cls-1{fill:#002837;}.cls-2{fill:#fff;}</style></defs><title>slo</title><g id="Layer_2" data-name="Layer 2"><g id="Layer_1-2" data-name="Layer 1"><polygon class="cls-1" points="43.49 98.95 67.64 118.97 91.79 98.97 232.44 99.07 232.44 0 0 0 0 99.07 43.49 98.95"/><polygon class="cls-1" points="97.19 113.97 67.64 138.44 38.1 113.97 0 114.07 0 232.44 232.44 232.44 232.44 114.07 97.19 113.97"/><path class="cls-2" d="M73.47,156.55v1H70.8v2.66h-.94v-2.66H67.18v-1h2.69V153.9h.94v2.66Z"/><path class="cls-2" d="M85.59,153a4,4,0,0,0-5.12,1.64,4.06,4.06,0,0,0,0,4,4,4,0,0,0,3.49,2,4.09,4.09,0,0,0,1.61-.34,4.66,4.66,0,0,0,1.4-.92l.87.94A5.81,5.81,0,0,1,86,161.54a5.48,5.48,0,0,1-4.85-.27,5.27,5.27,0,0,1-2.67-4.63,5.14,5.14,0,0,1,.72-2.68,5.23,5.23,0,0,1,2-1.92,5.72,5.72,0,0,1,4.87-.29,5.24,5.24,0,0,1,1.77,1.16l-.85,1A4.31,4.31,0,0,0,85.59,153Zm-.85-4.5h1.39l-1.57,2H83.1l-1.57-2h1.39l.91,1Z"/><path class="cls-2" d="M89.84,151.44h7.25v1.3H91.27V156h5.21v1.3H91.27v3.33h6v1.3H89.84Z"/><path class="cls-2" d="M104.17,152.92a5.11,5.11,0,0,0-1.44-.23,2.66,2.66,0,0,0-1.45.35,1.09,1.09,0,0,0-.54,1,1.27,1.27,0,0,0,.33.9,2.32,2.32,0,0,0,.81.55q.48.2,1.33.47a15.09,15.09,0,0,1,1.72.63,3,3,0,0,1,1.12.89,2.46,2.46,0,0,1,.46,1.56,2.61,2.61,0,0,1-.48,1.57,3.1,3.1,0,0,1-1.36,1,5.15,5.15,0,0,1-2,.37,5.83,5.83,0,0,1-2.24-.45,6,6,0,0,1-1.88-1.19l.64-1.24a5.39,5.39,0,0,0,1.68,1.13,4.63,4.63,0,0,0,1.81.39,2.89,2.89,0,0,0,1.65-.41,1.28,1.28,0,0,0,.6-1.11,1.3,1.3,0,0,0-.33-.91,2.31,2.31,0,0,0-.83-.57,13.91,13.91,0,0,0-1.35-.46,13.76,13.76,0,0,1-1.7-.61,2.93,2.93,0,0,1-1.11-.88,2.42,2.42,0,0,1-.46-1.54,2.46,2.46,0,0,1,.46-1.48,2.93,2.93,0,0,1,1.3-1,5.08,5.08,0,0,1,1.94-.34,6.28,6.28,0,0,1,1.84.28,6.18,6.18,0,0,1,1.6.74l-.6,1.28A6,6,0,0,0,104.17,152.92Zm-.86-4.45h1.39l-1.57,2h-1.46l-1.57-2h1.39l.91,1Z"/><path class="cls-2" d="M114.95,153a4,4,0,0,0-5.12,1.64,4.06,4.06,0,0,0,0,4,4,4,0,0,0,3.49,2,4.09,4.09,0,0,0,1.61-.34,4.66,4.66,0,0,0,1.4-.92l.87.94a5.81,5.81,0,0,1-1.84,1.22,5.48,5.48,0,0,1-4.85-.27,5.27,5.27,0,0,1-2.67-4.63,5.14,5.14,0,0,1,.72-2.68,5.23,5.23,0,0,1,2-1.92,5.72,5.72,0,0,1,4.87-.29,5.24,5.24,0,0,1,1.77,1.16l-.85,1A4.31,4.31,0,0,0,114.95,153Zm-.85-4.5h1.39l-1.57,2h-1.46l-1.57-2h1.39l.91,1Z"/><path class="cls-2" d="M119.2,151.44h1.43v10.44H119.2Z"/><path class="cls-2" d="M131,151.44h1.42v10.44H131l-6-8.09v8.09h-1.43V151.44h1.45l6,8.1Z"/><path class="cls-2" d="M143.22,161.88l-1.1-2.54h-5.51l-1.09,2.54H134l4.64-10.44h1.49l4.62,10.44Zm-6-3.83h4.39L139.36,153Z"/><path class="cls-2" d="M73.47,178.93v1H70.8v2.66h-.94v-2.66H67.18v-1h2.69v-2.66h.94v2.66Z"/><path class="cls-2" d="M87.17,184.26l-1.1-2.54H80.56l-1.09,2.54H78l4.64-10.44H84.1l4.62,10.44Zm-6-3.83h4.39l-2.21-5.07Z"/><path class="cls-2" d="M97.67,173.82h1.42v10.44H97.64l-6-8.09v8.09H90.24V173.82h1.45l6,8.1Z"/><path class="cls-2" d="M109.31,179.16h1.27V183a6.65,6.65,0,0,1-4,1.37,5.51,5.51,0,0,1-2.76-.71,5.28,5.28,0,0,1-2.7-4.63,5.11,5.11,0,0,1,.73-2.68,5.25,5.25,0,0,1,2-1.92,5.7,5.7,0,0,1,2.8-.7,6,6,0,0,1,2.13.39,5.7,5.7,0,0,1,1.8,1.06l-.82,1a4.61,4.61,0,0,0-3.1-1.22,4.08,4.08,0,0,0-2.06.54,4,4,0,0,0-1.48,1.46,4,4,0,0,0,0,4.07,4.08,4.08,0,0,0,1.49,1.48,4,4,0,0,0,2.06.54,4.4,4.4,0,0,0,1.34-.22,5,5,0,0,0,1.26-.6Z"/><path class="cls-2" d="M113.29,173.82h1.43V183h4.56v1.3h-6Z"/><path class="cls-2" d="M121.11,173.82h7.25v1.3h-5.82v3.22h5.21v1.3h-5.21V183h6v1.3h-7.43Z"/><path class="cls-2" d="M135.44,175.3a5.11,5.11,0,0,0-1.44-.23,2.66,2.66,0,0,0-1.45.35,1.09,1.09,0,0,0-.54,1,1.27,1.27,0,0,0,.33.9,2.32,2.32,0,0,0,.81.55q.48.2,1.33.47a15.09,15.09,0,0,1,1.72.63,3,3,0,0,1,1.12.89,2.46,2.46,0,0,1,.46,1.56,2.61,2.61,0,0,1-.48,1.57,3.1,3.1,0,0,1-1.36,1,5.15,5.15,0,0,1-2,.37,5.83,5.83,0,0,1-2.24-.45,6,6,0,0,1-1.88-1.19l.64-1.24a5.39,5.39,0,0,0,1.68,1.13,4.63,4.63,0,0,0,1.81.39,2.89,2.89,0,0,0,1.65-.41,1.28,1.28,0,0,0,.6-1.11,1.3,1.3,0,0,0-.33-.91A2.31,2.31,0,0,0,135,180a13.91,13.91,0,0,0-1.35-.46,13.76,13.76,0,0,1-1.7-.61,2.93,2.93,0,0,1-1.11-.88,2.42,2.42,0,0,1-.46-1.54,2.46,2.46,0,0,1,.46-1.48,2.93,2.93,0,0,1,1.3-1,5.08,5.08,0,0,1,1.94-.34,6.28,6.28,0,0,1,1.84.28,6.18,6.18,0,0,1,1.6.74L137,176A6,6,0,0,0,135.44,175.3Zm-.86-4.45H136l-1.57,2h-1.46l-1.57-2h1.39l.91,1Z"/><path class="cls-2" d="M146.22,175.35A4,4,0,0,0,141.1,177a4.06,4.06,0,0,0,0,4,4,4,0,0,0,3.49,2,4.09,4.09,0,0,0,1.61-.34,4.66,4.66,0,0,0,1.4-.92l.87.94a5.81,5.81,0,0,1-1.84,1.22,5.48,5.48,0,0,1-4.85-.27,5.27,5.27,0,0,1-2.67-4.63,5.14,5.14,0,0,1,.72-2.68,5.23,5.23,0,0,1,2-1.92,5.72,5.72,0,0,1,4.87-.29,5.24,5.24,0,0,1,1.77,1.16l-.85,1A4.31,4.31,0,0,0,146.22,175.35Zm-.85-4.5h1.39l-1.57,2h-1.46l-1.57-2h1.39l.91,1Z"/><path class="cls-2" d="M150.47,173.82h1.43v10.44h-1.43Z"/><path class="cls-2" d="M162.32,173.82h1.42v10.44h-1.45l-6-8.09v8.09h-1.43V173.82h1.45l6,8.1Z"/><path class="cls-2" d="M174.49,184.26l-1.1-2.54h-5.51l-1.09,2.54h-1.51l4.64-10.44h1.49L176,184.26Zm-6-3.83h4.39l-2.21-5.07Z"/><path class="cls-2" d="M73.47,201.31v1H70.8V205h-.94v-2.66H67.18v-1h2.69v-2.66h.94v2.66Z"/><path class="cls-2" d="M84,197.68a5.11,5.11,0,0,0-1.44-.23,2.66,2.66,0,0,0-1.45.35,1.09,1.09,0,0,0-.54,1,1.27,1.27,0,0,0,.33.9,2.32,2.32,0,0,0,.81.55q.48.2,1.33.47a15.09,15.09,0,0,1,1.72.63,3,3,0,0,1,1.12.89,2.46,2.46,0,0,1,.46,1.56,2.61,2.61,0,0,1-.48,1.57,3.1,3.1,0,0,1-1.36,1,5.15,5.15,0,0,1-2,.37,5.83,5.83,0,0,1-2.24-.45,6,6,0,0,1-1.88-1.19l.64-1.24A5.39,5.39,0,0,0,80.67,205a4.63,4.63,0,0,0,1.81.39,2.89,2.89,0,0,0,1.65-.41,1.28,1.28,0,0,0,.6-1.11,1.3,1.3,0,0,0-.33-.91,2.31,2.31,0,0,0-.83-.57,13.91,13.91,0,0,0-1.35-.46,13.76,13.76,0,0,1-1.7-.61,2.93,2.93,0,0,1-1.11-.88,2.42,2.42,0,0,1-.46-1.54,2.46,2.46,0,0,1,.46-1.48,2.93,2.93,0,0,1,1.3-1,5.08,5.08,0,0,1,1.94-.34,6.28,6.28,0,0,1,1.84.28,6.18,6.18,0,0,1,1.6.74l-.6,1.28A6,6,0,0,0,84,197.68Z"/><path class="cls-2" d="M95.35,206.64l-2.07-3.28-.58,0H90v3.25H88.6V196.2h4.09a4.6,4.6,0,0,1,3.07.92,3.22,3.22,0,0,1,1.08,2.6,3.71,3.71,0,0,1-.59,2.13,3.29,3.29,0,0,1-1.69,1.25L97,206.64Zm-2.66-4.55a3.17,3.17,0,0,0,2.06-.59,2.12,2.12,0,0,0,.72-1.74,2,2,0,0,0-.72-1.69,3.22,3.22,0,0,0-2.06-.57H90v4.59Z"/><path class="cls-2" d="M106.36,196.89a2.27,2.27,0,0,1,.92,1.92,2.31,2.31,0,0,1-.51,1.51,2.47,2.47,0,0,1-1.39.83,2.72,2.72,0,0,1,1.71.87,2.59,2.59,0,0,1,.62,1.77,2.47,2.47,0,0,1-1,2.1,4.56,4.56,0,0,1-2.78.75H99.39V196.2h4.46A4.08,4.08,0,0,1,106.36,196.89Zm-1.09,3.33a1.39,1.39,0,0,0,.53-1.17,1.36,1.36,0,0,0-.53-1.15,2.37,2.37,0,0,0-1.5-.39h-3v3.12h3A2.4,2.4,0,0,0,105.27,200.22Zm.32,4.67a1.46,1.46,0,0,0,.66-1.28,1.42,1.42,0,0,0-.66-1.24,3.2,3.2,0,0,0-1.82-.45h-3v3.4h3A3.09,3.09,0,0,0,105.6,204.89Z"/><path class="cls-2" d="M114.6,197.68a5.11,5.11,0,0,0-1.44-.23,2.66,2.66,0,0,0-1.45.35,1.09,1.09,0,0,0-.54,1,1.27,1.27,0,0,0,.33.9,2.32,2.32,0,0,0,.81.55q.48.2,1.33.47a15.09,15.09,0,0,1,1.72.63,3,3,0,0,1,1.12.89,2.46,2.46,0,0,1,.46,1.56,2.61,2.61,0,0,1-.48,1.57,3.1,3.1,0,0,1-1.36,1,5.15,5.15,0,0,1-2,.37,5.83,5.83,0,0,1-2.24-.45,6,6,0,0,1-1.88-1.19l.64-1.24a5.39,5.39,0,0,0,1.68,1.13,4.63,4.63,0,0,0,1.81.39,2.89,2.89,0,0,0,1.65-.41,1.28,1.28,0,0,0,.6-1.11,1.3,1.3,0,0,0-.33-.91,2.31,2.31,0,0,0-.83-.57,13.91,13.91,0,0,0-1.35-.46,13.76,13.76,0,0,1-1.7-.61,2.93,2.93,0,0,1-1.11-.88,2.42,2.42,0,0,1-.46-1.54,2.46,2.46,0,0,1,.46-1.48,2.93,2.93,0,0,1,1.3-1,5.08,5.08,0,0,1,1.94-.34,6.28,6.28,0,0,1,1.84.28,6.18,6.18,0,0,1,1.6.74l-.6,1.28A6,6,0,0,0,114.6,197.68Zm-.86-4.45h1.39l-1.57,2H112.1l-1.57-2h1.39l.91,1Z"/><path class="cls-2" d="M125.38,197.72a4,4,0,0,0-5.12,1.64,4.06,4.06,0,0,0,0,4,4,4,0,0,0,3.49,2,4.09,4.09,0,0,0,1.61-.34,4.66,4.66,0,0,0,1.4-.92l.87.94a5.81,5.81,0,0,1-1.84,1.22,5.48,5.48,0,0,1-4.85-.27,5.27,5.27,0,0,1-2.67-4.63,5.14,5.14,0,0,1,.72-2.68,5.23,5.23,0,0,1,2-1.92,5.72,5.72,0,0,1,4.87-.29,5.24,5.24,0,0,1,1.77,1.16l-.85,1A4.31,4.31,0,0,0,125.38,197.72Zm-.85-4.5h1.39l-1.57,2h-1.46l-1.57-2h1.39l.91,1Z"/><path class="cls-2" d="M129.63,196.2h1.43v10.44h-1.43Z"/><path class="cls-2" d="M141.48,196.2h1.42v10.44h-1.45l-6-8.09v8.09H134V196.2h1.45l6,8.1Z"/><path class="cls-2" d="M153.65,206.64l-1.1-2.54H147L146,206.64h-1.51l4.64-10.44h1.49l4.62,10.44Zm-6-3.83H152l-2.21-5.07Z"/><path class="cls-2" d="M94.8,45.5a13,13,0,0,0-3.92-.77,3.63,3.63,0,0,0-2,.46,1.5,1.5,0,0,0-.72,1.34A1.84,1.84,0,0,0,88.82,48a4.75,4.75,0,0,0,1.55.92q.92.35,2.73.9a35.5,35.5,0,0,1,4.44,1.55,7.77,7.77,0,0,1,3,2.38,6.6,6.6,0,0,1,1.25,4.18,7.15,7.15,0,0,1-1.36,4.4A8.26,8.26,0,0,1,96.68,65a14.53,14.53,0,0,1-5.28.92A19.12,19.12,0,0,1,85,64.82a17.47,17.47,0,0,1-5.51-3.08l2.61-5.27a16.25,16.25,0,0,0,4.62,2.84,12.62,12.62,0,0,0,4.73,1.1,4.39,4.39,0,0,0,2.38-.55,1.8,1.8,0,0,0,.87-1.62,1.91,1.91,0,0,0-.64-1.47,4.76,4.76,0,0,0-1.62-.94q-1-.35-2.74-.83a34,34,0,0,1-4.38-1.49,7.75,7.75,0,0,1-3-2.28,6.29,6.29,0,0,1-1.23-4.07A7.11,7.11,0,0,1,82.39,43,8.08,8.08,0,0,1,86,40.18a14,14,0,0,1,5.43-1A19.73,19.73,0,0,1,97,40a18.2,18.2,0,0,1,4.79,2.12L99.2,47.49A22.63,22.63,0,0,0,94.8,45.5Z"/><path class="cls-2" d="M105.21,39.72h6.74V59.79h10.94v5.75H105.21Z"/><path class="cls-2" d="M145.36,41a12.84,12.84,0,0,1,6.83,11.53,13.07,13.07,0,0,1-6.83,11.67,15.32,15.32,0,0,1-14.25,0,13,13,0,0,1-5-4.82,13.21,13.21,0,0,1-1.82-6.87A12.84,12.84,0,0,1,131.11,41a15.53,15.53,0,0,1,14.25,0Zm-10.61,5a7.15,7.15,0,0,0-2.6,2.74,8.22,8.22,0,0,0,0,7.73,7.48,7.48,0,0,0,2.6,2.76,6.54,6.54,0,0,0,3.54,1,6.45,6.45,0,0,0,3.52-1,7.12,7.12,0,0,0,2.52-2.76,8.58,8.58,0,0,0,0-7.73A7,7,0,0,0,141.83,46a6.54,6.54,0,0,0-3.52-1A6.72,6.72,0,0,0,134.76,46Z"/></g></g></svg>